<?xml version="1.0" encoding="utf-8" standalone="no"?>
<!-- Creator: Esri ArcMap 10.9.1.28388 -->
<!DOCTYPE svg PUBLIC "-//W3C//DTD SVG 1.1//EN"  "http://www.w3.org/Graphics/SVG/1.1/DTD/svg11.dtd">
<svg width="2592pt" height="3456pt" viewBox="0 0 2592 3456" enable-background="new 0 0 2592 3456"
	version="1.1" xmlns="http://www.w3.org/2000/svg" xmlns:xlink="http://www.w3.org/1999/xlink" >
	<g id="Layers">
		<g id="municipal">
			<path clip-path="url(#SVG_CP_1)" fill="#ce8d34" fill-rule="evenodd" stroke="none" d="M2353.8,632.15364L2344.2,655.6734L2324.88,665.8733
				L2315.28,683.03312L2315.76,687.59308L2318.52,710.75285L2320.56,730.07265L2312.52,754.6724L2309.88,768.11227L2308.44,770.99224
				L2290.08,808.79186L2305.56,873.47121L2312.04,897.59097L2304,935.51058L2303.52,946.79047L2309.88,970.31023L2333.4,998.14995
				L2359.08,1012.06981L2379.96,1044.70948L2386.08,1059.34934L2388.6,1065.10928L2393.64,1104.46888L2396.64,1126.54866L2402.52,1148.50844
				L2399.28,1178.98813L2400.12,1181.38811L2410.56,1210.54781L2432.4,1256.62735L2437.2,1293.58698L2447.4,1318.18673L2451.12,1353.46638
				L2451.72,1369.54621L2467.32,1387.90603L2469.36,1390.426L2472,1404.34586L2474.16,1425.22565L2458.08,1437.46553L2424.96,1439.14551
				L2391.24,1428.34562L2345.16,1425.70565L2333.4,1429.42561L2322.72,1448.14542L2301.36,1476.58514L2281.56,1499.6249L2258.16,1520.3847
				L2251.56,1526.26464L2244.96,1528.66461L2209.92,1540.78449L2209.8,1540.78449L2209.68,1540.78449L2161.08,1566.46423L2147.76,1583.02407
				L2148.84,1593.70396L2124.72,1600.18389L2120.52,1625.26364L2097.48,1660.66328L2084.88,1677.58311L2074.56,1691.50297L2074.44,1691.62297
				L2074.32,1691.86297L2064.6,1706.26282L2058.96,1714.42274L2045.04,1735.06253L2042.4,1739.14249L2011.8,1786.42202L2001.24,1802.50186
				L1996.32,1809.94178L1991.88,1820.26168L1978.68,1850.62137L1964.76,1890.70097L1953,1926.10061L1931.52,1965.70021L1921.44,1983.34004
				L1941.24,2006.7398L1941.36,2006.8598L1941.36,2006.9798L1941.6,2007.0998L1942.2,2007.81979L1943.04,2008.89978L1944.96,2011.17976
				L1956.6,2023.65963L1966.68,2034.45952L1966.92,2034.69952L1974.96,2049.09937L1968.48,2057.37929L1968.36,2057.37929L1968.36,2057.49929
				L1951.32,2079.09907L1937.76,2086.059L1928.4,2090.85895L1939.56,2105.37881L1954.08,2112.81873L1956.24,2131.53854L1955.64,2153.97832
				L1954.56,2174.85811L1965.48,2175.9381L1988.28,2178.21807L1997.4,2179.17806L2003.76,2179.77806L2011.68,2180.49805L2022.36,2181.45804
				L2030.16,2182.17803L2032.2,2182.41803L2053.08,2189.61796L2056.92,2190.93795L2063.16,2193.09792L2063.88,2193.09792L2066.64,2193.33792
				L2129.04,2197.89788L2159.04,2221.41764L2186.28,2238.57747L2186.52,2239.65746L2191.08,2259.93725L2197.56,2274.9371L2194.8,2300.13685
				L2153.88,2349.21635L2151.48,2351.97632L2153.64,2369.73615L2153.76,2369.85614L2153.76,2369.97614L2154,2371.89612L2161.08,2430.09554
				L2171.16,2461.77522L2173.2,2468.01516L2173.56,2469.09515L2179.32,2487.33496L2187.36,2524.29459L2213.52,2552.7343L2235.24,2564.73418
				L2136.24,2630.61352L2126.28,2640.33342L2107.68,2652.3333L2089.2,2669.01313L2086.92,2674.29308L2087.52,2679.81302L2084.52,2687.73294
				L2077.8,2689.17293L2069.04,2687.13295L2060.88,2689.77292L2059.2,2702.0128L2026.44,2709.57273L2000.64,2700.45282L1983.6,2693.49289
				L1967.28,2691.57291L1949.52,2692.4129L1937.28,2690.49292L1935.12,2690.25292L1924.08,2689.65293L1905.48,2693.97288L1900.08,2697.57285
				L1891.08,2703.45279L1875.12,2722.4126L1857.84,2747.85234L1839.96,2769.69212L1826.76,2789.13192L1824.36,2792.73189L1818.36,2798.49183
				L1805.64,2810.85171L1796.16,2823.21158L1782.48,2835.93145L1777.56,2854.29127L1775.64,2861.61119L1767.24,2881.65099L1754.88,2886.93094
				L1752.12,2888.13093L1733.52,2883.69097L1730.28,2882.97098L1720.8,2881.291L1693.44,2876.49104L1673.88,2874.69106L1669.08,2874.21107
				L1664.4,2873.73107L1664.28,2873.73107L1659.12,2874.21107L1657.2,2874.33107L1657.08,2874.45107L1655.16,2874.57106L1649.4,2875.05106
				L1644.96,2875.41106L1643.16,2875.53105L1632.36,2876.49104L1631.64,2876.73104L1628.04,2877.57103L1604.28,2883.81097L1597.68,2884.65096
				L1593,2885.37096L1591.2,2885.61095L1583.04,2887.05094L1578,2887.77093L1571.16,2889.69091L1569.24,2890.29091L1566.72,2891.0109
				L1562.16,2892.21089L1556.76,2893.77087L1551.48,2895.69085L1549.44,2896.41084L1541.88,2899.29082L1535.52,2901.57079L1533,2902.41078
				L1529.88,2903.37077L1523.16,2905.53075L1523.04,2905.53075L1515.96,2907.81073L1507.56,2910.4507L1497,2913.69067L1491.72,2915.37065
				L1484.76,2918.25062L1479,2920.7706L1472.52,2923.53057L1467,2925.81055L1462.92,2927.25053L1458.72,2928.69052L1458.36,2928.81052
				L1458.24,2928.93052L1451.76,2931.21049L1447.32,2934.21046L1442.64,2937.33043L1437.48,2940.8104L1431.48,2944.77036L1426.08,2948.49032
				L1421.88,2951.73029L1417.08,2955.69025L1410.36,2960.97019L1404.36,2965.77015L1402.32,2972.37008L1400.16,2978.97001L1399.92,2980.05
				L1397.76,2986.52994L1395.48,2993.84986L1395,3001.64978L1394.64,3007.40973L1394.52,3009.56971L1395.24,3017.00963L1395.96,3024.44956
				L1396.92,3033.68946L1397.28,3037.28943L1397.64,3041.00939L1385.52,3030.3295L1364.76,3012.08968L1362.48,3010.4097L1337.88,2993.48987
				L1332.96,2992.88987L1327.32,2994.20986L1324.68,2995.88984L1321.56,2997.92982L1317.6,2998.76981L1315.08,2999.36981L1313.52,2999.7298
				L1308.24,3005.24975L1305.24,3010.1697L1300.56,3015.92964L1297.08,3026.12954L1284.6,3044.60935L1281.84,3048.56931L1280.52,3050.72929
				L1273.68,3054.32925L1258.32,3062.36917L1247.04,3066.68913L1233.48,3064.52915L1218.6,3058.88921L1202.28,3053.84926L1191,3046.76933
				L1187.4,3038.96941L1178.16,3055.28924L1169.64,3065.12915L1159.8,3071.60908L1147.56,3076.76903L1134.48,3080.009L1119.6,3083.96896
				L1112.28,3084.20895L1103.04,3086.72893L1089.24,3092.60887L1074.84,3097.16882L1054.32,3104.60875L1028.76,3079.889L1025.16,3055.76924
				L1011.72,3033.08947L1007.28,3021.68958L1005.96,3018.20962L1004.88,3015.20965L1004.64,3014.60965L1004.52,3014.36966L1004.52,3014.24966
				L1004.4,3014.12966L1001.04,3005.36975L995.64,2992.16988L994.68,2989.7699L992.52,2984.72996L988.68,2978.25002L984.72,2971.29009
				L960.6,2940.0904L918,2916.69064L861.96,2910.9307L801.6,2917.41063L750.36,2944.17036L729.36,2943.93037L722.16,2939.73041L
				713.76,2937.33043L711.48,2933.13047L707.52,2930.7305L702.48,2928.09053L697.32,2926.05055L691.92,2922.93058L684.12,2921.73059
				L681.48,2913.21068L684.36,2908.05073L681.12,2886.57094L679.2,2865.45116L677.28,2848.65133L676.92,2828.49153L675,2813.73168
				L670.68,2801.0118L672.12,2787.09194L672.36,2787.09194L680.64,2786.49195L686.4,2787.93194L695.16,2790.69191L705.6,2792.97189
				L718.08,2795.61186L731.28,2798.37183L742.56,2798.37183L751.92,2796.45185L757.08,2794.77187L765.6,2787.93194L776.64,2775.93206
				L783.96,2765.49216L788.88,2760.09222L792.48,2748.45233L793.68,2732.49249L789.72,2714.97267L783.72,2704.17278L779.16,2694.33288
				L777.72,2691.33291L770.04,2676.09306L756.72,2662.4132L754.44,2660.13322L754.2,2659.89323L743.16,2651.37331L734.88,2639.13343
				L731.52,2630.49352L728.64,2622.9336L722.16,2603.61379L719.28,2589.45393L714.48,2581.17402L712.8,2578.29405L708.72,2571.33412
				L688.32,2549.97433L676.32,2537.85445L669.6,2531.01452L657.12,2515.29468L656.52,2514.45469L651.48,2504.85479L643.92,2498.49485
				L638.4,2493.8149L625.68,2484.21499L625.56,2484.09499L625.44,2484.09499L615.96,2476.17507L606.24,2467.41516L597.72,2456.97527
				L584.16,2445.69538L565.8,2430.81553L557.28,2421.57562L547.32,2407.29577L530.04,2396.25588L521.76,2390.97593L496.2,2386.05598
				L474.96,2373.9361L469.56,2370.09614L469.44,2370.09614L469.44,2369.97614L454.32,2359.05625L431.64,2353.41631L406.8,2351.97632
				L371.28,2349.09635L366.24,2347.29637L366,2347.17637L365.88,2347.17637L347.88,2340.57644L347.04,2340.33644L347.04,2333.25651
				L330.6,2325.0966L302.04,2316.93668L277.44,2308.77676L248.76,2292.33693L236.88,2282.13703L227.52,2274.09711L227.4,2274.09711
				L227.28,2273.97711L220.2,2267.85717L208.68,2263.17722L203.88,2261.25724L197.52,2265.0972L181.2,2256.93728L156.6,2252.73732
				L150.6,2255.4973L140.16,2246.37739L139.8,2246.13739L139.32,2245.77739L124.92,2233.05752L117.84,2226.93758L124.2,2216.73769
				L129,2205.5778L132,2193.45792L132.24,2192.37793L133.32,2187.81798L133.32,2172.57813L133.32,2167.77818L133.32,2167.17819L
				133.32,2165.13821L133.08,2152.53833L133.08,2152.41833L133.08,2152.17834L132.84,2142.21844L132.96,2142.21844L146.28,2133.09853
				L153.12,2132.37854L153.12,2132.13854L153.24,2132.13854L158.4,2131.53854L160.56,2130.81855L160.92,2130.57855L163.2,2129.73856
				L174,2125.5386L183.48,2114.61871L184.32,2113.65872L185.28,2112.57873L185.28,2100.93885L185.28,2100.09886L185.64,2084.49902
				L187.56,2064.57922L186.72,2057.13929L192,2050.29936L199.44,2038.77948L207.6,2039.01948L215.28,2040.33946L236.16,2036.01951
				L245.16,2032.05955L252,2029.05958L258.84,2027.25959L262.8,2026.05961L264.36,2028.69958L265.32,2030.13956L268.68,2036.1395
				L271.44,2038.17948L273.96,2039.85947L278.76,2040.21946L281.52,2040.33946L283.44,2040.45946L288.72,2039.97947L291.48,2040.81946
				L296.28,2046.2194L300.84,2048.73938L304.8,2049.69937L311.52,2047.65939L314.88,2044.53942L317.64,2040.33946L319.68,2038.77948
				L324.12,2037.33949L328.44,2036.3795L331.8,2035.65951L338.16,2035.65951L340.56,2035.89951L344.04,2036.8595L344.88,2037.09949
				L349.44,2039.49947L350.76,2040.09946L351.72,2040.09946L357,2039.61947L361.92,2036.8595L362.88,2036.3795L365.52,2034.81952
				L368.76,2034.69952L372.96,2034.69952L373.32,2034.93952L375.48,2036.4995L375.96,2036.8595L380.88,2035.05951L385.08,2031.45955
				L389.76,2026.7796L393.36,2025.33961L398.28,2023.89963L399.72,2024.37962L399.96,2024.37962L400.2,2024.49962L400.68,2024.61962
				L400.8,2024.61962L400.92,2024.61962L401.04,2024.61962L401.16,2024.73962L401.88,2024.85962L403.32,2025.09962L405.96,2026.4196
				L409.56,2026.6596L410.28,2026.8996L412.08,2027.61959L416.16,2028.09959L419.28,2027.97959L420.72,2027.85959L424.8,2023.53963
				L429.6,2018.37968L429.84,2018.13969L432.72,2017.0597L433.2,2016.8197L436.2,2009.49977L436.44,2009.49977L438.24,2009.73977
				L438.72,2009.73977L439.56,2009.73977L445.32,2009.25977L445.8,2009.25977L445.8,2009.13978L445.8,2008.89978L446.52,2008.77978
				L447.48,2008.65978L454.2,2004.81982L456.6,2002.65984L456.84,2002.53984L457.56,2002.29984L457.68,2002.29984L458.64,2001.69985
				L458.76,2001.33985L459.12,2000.61986L459.24,2000.01987L459.6,1999.65987L461.16,1998.09989L466.68,1991.85995L466.92,1991.61995
				L467.64,1990.89996L468.12,1990.53996L468.24,1990.41996L472.32,1989.81997L472.44,1989.69997L476.4,1987.77999L476.16,1987.18
				L474.84,1984.54002L474.36,1983.22004L474,1982.50004L472.92,1980.22007L478.92,1976.7401L489.24,1971.58015L494.4,1969.42018
				L494.76,1969.30018L497.52,1968.46019L498.48,1968.10019L501.6,1968.22019L501.48,1967.98019L501.48,1967.74019L501.36,1966.6602
				L503.28,1950.82036L500.04,1943.86043L496.56,1936.18051L491.76,1915.54072L491.28,1913.50074L487.08,1894.06093L484.56,1888.06099
				L480.36,1878.58109L479.04,1875.58112L478.92,1873.66114L478.92,1869.34118L478.8,1868.1412L478.68,1859.98128L471.24,1853.14135
				L469.68,1851.94136L464.04,1847.3814L464.04,1846.78141L463.92,1846.66141L463.92,1846.54141L463.92,1846.42141L462.48,1838.2615
				L465.12,1829.86158L464.88,1824.10164L464.76,1817.5017L469.68,1807.7818L473.04,1801.06187L470.52,1794.22194L466.56,1783.30205
				L467.16,1774.42214L471.84,1773.22215L479.16,1771.18217L487.2,1769.14219L487.8,1768.90219L489.24,1768.3022L501.96,1763.14225
				L507.24,1754.86234L515.88,1741.06247L516,1740.82248L517.92,1737.82251L518.4,1732.18256L518.64,1728.7026L518.76,1727.14261
				L518.88,1724.74264L519.36,1718.9827L519.48,1717.78271L519.48,1717.30271L519.72,1714.18274L519.96,1712.74276L523.8,1690.54298
				L540.36,1669.78319L540.96,1660.42329L545.16,1646.14343L523.32,1584.70405L502.2,1554.22436L516.84,1548.82441L541.44,1539.5845
				L557.4,1524.22466L561.72,1505.62484L571.08,1490.385L587.28,1483.42507L613.56,1482.10508L633.24,1480.0651L643.8,1474.06516
				L653.16,1466.38524L657.48,1444.54546L673.8,1431.22559L681.6,1421.62569L705,1392.94598L727.56,1371.3462L743.16,1364.02627
				L759.48,1356.10635L768.84,1352.14639L776.16,1344.46647L785.76,1326.82664L796.08,1307.26684L800.04,1296.58695L795.36,1285.90706
				L790.44,1272.70719L785.4,1251.10741L788.4,1243.78748L800.4,1240.78751L815.4,1236.10756L834.6,1236.46755L837.36,1237.18755
				L855.6,1242.1075L875.16,1240.78751L898.44,1248.10744L930,1254.10738L934.8,1258.30733L939.36,1262.38729L957.6,1269.70722L
				959.04,1269.46722L959.52,1268.86723L959.64,1268.62723L960.12,1268.26723L960.12,1268.14723L960.24,1268.14723L960.36,1268.14723
				L960.72,1267.90724L960.84,1267.90724L961.8,1267.78724L962.04,1267.78724L962.16,1267.78724L963.12,1267.90724L963.96,1267.78724
				L965.04,1267.66724L965.16,1267.66724L966.36,1267.42724L966.6,1267.42724L967.56,1267.42724L968.04,1267.54724L968.88,1267.30724
				L969.6,1266.94725L969.72,1266.82725L969.84,1266.82725L970.68,1266.34725L971.04,1266.22725L972.12,1265.86726L972.84,1265.62726
				L974.28,1265.50726L974.52,1265.50726L975.36,1265.50726L975.48,1265.50726L975.84,1265.62726L976.08,1265.62726L976.8,1265.74726
				L976.92,1265.86726L977.88,1266.22725L978.36,1266.34725L978.48,1266.34725L979.08,1266.22725L979.32,1266.22725L979.68,1266.10726
				L980.16,1265.98726L980.4,1265.74726L980.52,1265.74726L980.76,1265.74726L981.12,1265.74726L981.48,1265.74726L981.72,1265.74726
				L981.84,1265.62726L982.56,1265.02727L982.68,1265.02727L982.8,1264.90727L983.04,1264.78727L983.04,1264.66727L983.4,1264.54727
				L984.24,1264.06728L984.84,1263.58728L984.96,1263.46728L985.08,1263.34728L985.68,1262.98729L985.92,1262.86729L986.52,1262.50729
				L987.12,1262.1473L987.96,1261.6673L988.32,1261.4273L988.44,1261.3073L988.68,1261.06731L988.8,1260.58731L989.04,1260.22731
				L989.28,1260.10732L989.4,1259.98732L989.64,1259.62732L989.64,1259.50732L989.88,1259.26732L989.88,1259.14733L990.24,1258.90733
				L990.36,1258.90733L990.84,1258.66733L990.96,1258.66733L991.08,1258.66733L991.2,1258.66733L991.32,1258.66733L991.8,1258.78733
				L992.16,1258.66733L992.64,1258.54733L993.72,1258.30733L993.96,1258.18734L993.96,1258.06734L994.44,1257.82734L995.4,1257.22734
				L995.76,1256.86735L996.24,1256.62735L996.36,1256.50735L997.44,1255.90736L997.56,1255.90736L997.8,1255.66736L998.04,1255.42736
				L998.52,1254.94737L998.64,1254.82737L999.12,1254.34737L999.36,1253.98738L999.6,1253.62738L999.84,1253.38738L999.96,1253.14739
				L1000.08,1253.14739L1000.44,1252.54739L1001.04,1252.0674L1001.4,1251.8274L1002.36,1251.22741L1002.72,1250.98741L1003.32,1250.50741
				L1003.68,1250.14742L1004.16,1249.78742L1004.28,1249.78742L1004.4,1249.78742L1004.64,1249.66742L1005.12,1249.54742L1005.36,1249.54742
				L1005.72,1249.54742L1006.32,1249.42742L1007.4,1249.30742L1007.88,1249.18743L1008.24,1249.18743L1008.36,1249.18743L1008.84,1249.18743
				L1010.28,1249.30742L1010.76,1249.30742L1011.12,1249.42742L1011.36,1249.42742L1012.08,1249.66742L1013.04,1250.02742L1013.4,1250.14742
				L1013.52,1250.14742L1014,1250.14742L1014.24,1250.26741L1014.6,1250.26741L1015.08,1250.26741L1015.2,1250.14742L1015.68,1250.14742
				L1016.28,1249.90742L1016.76,1249.54742L1016.88,1249.42742L1017.6,1248.94743L1018.08,1248.58743L1018.8,1248.34743L1019.04,1248.10744
				L1019.04,1247.98744L1019.04,1247.86744L1019.04,1247.62744L1019.16,1247.38744L1019.16,1247.26745L1019.28,1247.02745L1019.4,1247.02745
				L1019.76,1246.66745L1019.88,1246.66745L1020.6,1246.42745L1021.8,1246.42745L1022.16,1246.42745L1023.24,1246.42745L1024.32,1246.30745
				L1024.92,1246.30745L1025.28,1246.30745L1025.4,1246.30745L1025.64,1246.30745L1026,1246.30745L1026.48,1246.18746L1026.96,1245.82746
				L1027.44,1245.58746L1027.8,1245.58746L1027.92,1245.58746L1028.16,1245.58746L1028.4,1245.58746L1028.64,1245.46746L1028.88,1245.46746
				L1029.24,1245.34746L1029.84,1245.10747L1030.08,1245.10747L1030.32,1244.98747L1031.28,1244.62747L1032.12,1244.38747L1032.84,1244.02748
				L1032.96,1243.78748L1033.56,1243.54748L1034.16,1243.06749L1034.4,1242.94749L1035.72,1241.9875L1036.68,1241.14751L1037.76,1240.18752
				L1037.88,1240.06752L1038.48,1239.58752L1038.6,1239.46752L1039.2,1239.34752L1040.04,1238.98753L1040.76,1238.62753L1041,1238.38753
				L1041.36,1238.26754L1041.72,1237.90754L1041.84,1237.90754L1042.2,1237.66754L1042.56,1237.54754L1043.16,1237.30755L1043.88,1237.30755
				L1044.48,1237.18755L1044.72,1237.18755L1044.84,1237.18755L1045.8,1237.06755L1046.52,1237.06755L1047.6,1236.70755L1047.72,1236.58755
				L1048.44,1236.22756L1048.56,1236.22756L1049.4,1235.86756L1050.36,1235.74756L1051.32,1235.50756L1052.04,1235.38756L1052.88,1235.26757
				L1052.88,1235.38756L1053.36,1235.38756L1054.2,1235.50756L1054.32,1235.50756L1054.68,1235.62756L1055.16,1235.86756L1055.64,1235.98756
				L1055.88,1235.98756L1056.12,1235.98756L1056.72,1235.86756L1057.2,1235.86756L1057.92,1235.50756L1058.88,1234.90757L1059.12,1234.78757
				L1059.6,1234.42757L1059.84,1234.30758L1060.68,1233.94758L1060.92,1233.94758L1061.64,1233.70758L1062.12,1233.58758L1062.24,1233.46758
				L1062.48,1233.46758L1063.2,1233.22759L1064.76,1232.98759L1065.24,1232.98759L1065.48,1232.98759L1065.6,1232.98759L1065.96,1232.86759
				L1066.32,1232.74759L1066.44,1232.50759L1066.56,1232.50759L1066.8,1232.50759L1067.04,1232.38759L1067.28,1232.38759L1067.64,1232.38759
				L1067.88,1232.50759L1068.24,1232.50759L1068.6,1232.38759L1068.96,1232.2676L1069.2,1232.1476L1069.32,1232.0276L1069.44,1231.7876
				L1069.8,1231.30761L1069.92,1231.18761L1070.28,1230.94761L1070.64,1230.70761L1071.12,1230.46761L1071.36,1230.34762L1071.6,1230.34762
				L1072.08,1230.34762L1072.44,1230.46761L1072.68,1230.46761L1072.8,1230.22762L1073.04,1230.10762L1073.04,1229.98762L1073.28,1229.98762
				L1073.52,1229.98762L1073.88,1229.74762L1073.88,1229.62762L1074.12,1229.50762L1074.24,1229.38763L1074.36,1229.26763L1074.36,1229.14763
				L1074.48,1229.02763L1074.6,1228.90763L1074.84,1228.78763L1075.2,1228.42763L1075.32,1228.30764L1075.44,1228.18764L1075.68,1228.18764
				L1075.68,1228.06764L1076.28,1227.82764L1076.76,1227.46764L1077.6,1227.10765L1077.84,1226.98765L1078.2,1226.74765L1078.56,1226.50765
				L1078.8,1226.38766L1078.92,1226.38766L1079.04,1226.38766L1079.52,1226.14766L1080.12,1225.66766L1080.24,1225.54766L1080.36,1225.30767
				L1080.48,1225.18767L1080.84,1224.94767L1081.32,1224.58767L1081.56,1224.46767L1081.92,1224.34768L1082.4,1224.46767L1082.4,1224.34768
				L1082.52,1224.34768L1082.76,1224.22768L1083.12,1223.98768L1083.24,1223.98768L1083.48,1223.86768L1083.84,1223.86768L1084.56,1223.98768
				L1085.04,1223.98768L1085.16,1223.98768L1085.52,1224.10768L1085.64,1224.10768L1085.88,1224.10768L1086,1224.22768L1086.36,1224.22768
				L1086.72,1224.22768L1086.96,1224.10768L1087.32,1224.10768L1087.68,1224.22768L1088.04,1224.22768L1088.64,1223.98768L1089,1223.98768
				L1089.24,1223.98768L1089.6,1224.10768L1089.72,1224.10768L1089.96,1224.10768L1090.2,1224.10768L1090.56,1224.34768L1090.8,1224.46767
				L1090.92,1224.58767L1091.04,1224.58767L1091.16,1224.58767L1091.52,1224.70767L1091.76,1224.70767L1091.88,1224.82767L1092.12,1224.82767
				L1092.36,1224.94767L1092.6,1225.06767L1092.84,1225.06767L1093.44,1225.30767L1093.68,1225.42766L1093.92,1225.54766L1094.4,1225.54766
				L1094.52,1225.54766L1094.64,1225.42766L1094.88,1225.42766L1095,1225.42766L1095.12,1225.42766L1095.36,1225.54766L1095.6,1225.42766
				L1095.6,1225.18767L1095.72,1224.82767L1095.96,1224.58767L1096.08,1224.70767L1096.2,1224.70767L1096.44,1224.70767L1096.44,1224.94767
				L1096.44,1225.06767L1096.68,1224.94767L1096.8,1224.70767L1097.04,1224.58767L1097.4,1224.46767L1097.52,1224.34768L1097.64,1224.10768
				L1097.88,1223.86768L1098.12,1223.74768L1098.24,1223.62768L1098.36,1223.38769L1098.48,1223.14769L1098.72,1222.78769L1098.84,1222.66769
				L1099.08,1222.66769L1099.2,1222.66769L1099.32,1222.78769L1099.32,1222.90769L1099.44,1223.14769L1099.56,1223.38769L1099.68,1223.62768
				L1099.8,1223.62768L1099.92,1223.74768L1100.16,1223.86768L1100.4,1223.98768L1100.64,1224.22768L1100.88,1224.34768L1100.88,1224.46767
				L1100.88,1224.58767L1100.88,1224.70767L1100.88,1224.82767L1100.88,1224.94767L1101.12,1225.06767L1101.36,1225.06767L1101.72,1224.94767
				L1102.08,1224.82767L1102.32,1224.82767L1102.56,1224.94767L1102.8,1224.94767L1103.28,1224.94767L1103.52,1224.94767L1104,1225.18767
				L1104.36,1225.30767L1104.72,1225.42766L1104.96,1225.54766L1105.08,1225.54766L1105.32,1225.54766L1105.44,1225.54766L1105.68,1225.66766
				L1105.92,1225.54766L1106.28,1225.66766L1106.52,1225.54766L1106.76,1225.54766L1107.12,1225.66766L1107.36,1225.54766L1107.48,1225.54766
				L1107.6,1225.54766L1108.2,1225.54766L1108.32,1225.54766L1108.56,1225.66766L1108.68,1225.66766L1108.8,1225.78766L1109.04,1225.78766
				L1109.28,1225.90766L1109.64,1225.78766L1109.88,1225.78766L1110.36,1225.66766L1110.48,1225.54766L1111.08,1225.54766L1111.56,1225.42766
				L1111.8,1225.42766L1111.92,1225.42766L1112.16,1225.54766L1112.52,1225.66766L1112.76,1225.78766L1113.12,1225.78766L1113.84,1225.66766
				L1114.08,1225.66766L1114.44,1225.66766L1114.68,1225.66766L1114.8,1225.66766L1115.04,1225.54766L1115.52,1225.42766L1115.76,1225.30767
				L1116.12,1225.18767L1116.36,1225.18767L1116.72,1225.18767L1117.2,1225.18767L1117.56,1224.94767L1118.04,1224.70767L1118.4,1224.46767
				L1118.64,1224.46767L1119,1224.34768L1119.36,1224.34768L1119.84,1224.10768L1120.32,1224.10768L1120.56,1223.98768L1120.92,1223.86768
				L1121.04,1223.86768L1121.4,1223.86768L1121.88,1223.74768L1122.24,1223.74768L1122.48,1223.74768L1122.6,1223.74768L1122.84,1223.62768
				L1123.08,1223.50768L1123.2,1223.50768L1123.44,1223.50768L1123.8,1223.38769L1124.04,1223.38769L1124.28,1223.26769L1124.64,1223.14769
				L1125,1223.14769L1125.24,1223.26769L1125.36,1223.26769L1125.6,1223.14769L1125.72,1223.02769L1125.84,1222.78769L1125.96,1222.66769
				L1126.08,1222.54769L1126.32,1222.54769L1126.56,1222.54769L1126.68,1222.66769L1127.04,1222.78769L1127.28,1222.90769L1127.4,1222.90769
				L1127.52,1222.78769L1127.76,1222.4277L1127.76,1222.1877L1127.88,1222.0677L1128,1221.9477L1128.36,1222.0677L1128.6,1222.0677
				L1128.72,1222.0677L1128.84,1221.9477L1129.08,1222.0677L1129.2,1222.1877L1129.44,1222.1877L1129.56,1222.0677L1129.68,1221.9477
				L1129.8,1221.7077L1129.92,1221.4677L1130.04,1221.22771L1130.16,1221.10771L1130.4,1220.98771L1130.64,1220.98771L1130.88,1221.10771
				L1131,1221.22771L1131.12,1221.4677L1131.24,1221.4677L1131.36,1221.34771L1131.36,1221.10771L1131.48,1220.98771L1131.6,1220.86771
				L1131.72,1220.98771L1131.96,1221.10771L1132.08,1221.22771L1132.2,1221.10771L1132.2,1220.86771L1132.32,1220.74771L1132.44,1220.62771
				L1132.68,1220.74771L1132.8,1220.86771L1133.04,1220.98771L1133.4,1220.98771L1133.4,1220.86771L1133.52,1220.74771L1133.52,1220.50771
				L1133.76,1220.50771L1134,1220.50771L1134.24,1220.62771L1134.48,1220.62771L1134.48,1220.50771L1134.48,1220.38772L1134.36,1220.14772
				L1134.48,1219.90772L1134.48,1219.78772L1134.6,1219.66772L1134.84,1219.66772L1134.96,1219.78772L1135.08,1219.90772L1135.2,1219.90772
				L1135.32,1219.90772L1135.32,1219.78772L1135.32,1219.66772L1135.32,1219.30773L1135.32,1219.06773L1135.44,1218.94773L1135.56,1218.70773
				L1135.68,1218.70773L1135.92,1218.82773L1136.16,1218.94773L1136.28,1218.82773L1136.28,1218.70773L1136.4,1218.34774L1136.4,1218.22774
				L1136.52,1217.98774L1136.64,1217.74774L1136.76,1217.50774L1136.88,1217.38775L1137,1217.26775L1137.12,1217.14775L1137.36,1217.02775
				L1137.6,1216.90775L1137.84,1216.90775L1138.2,1217.02775L1138.56,1217.14775L1139.04,1217.26775L1139.04,1217.38775L1139.4,1217.38775
				L1139.88,1217.38775L1140.12,1217.38775L1140.48,1217.38775L1140.84,1217.26775L1141.2,1217.14775L1141.32,1217.14775L1141.68,1217.14775
				L1141.92,1217.14775L1142.4,1217.02775L1142.64,1216.78775L1142.88,1216.66775L1143.24,1216.54775L1143.6,1216.54775L1144.08,1216.54775
				L1144.32,1216.66775L1144.56,1216.54775L1144.8,1216.42776L1145.04,1216.18776L1145.4,1216.30776L1145.52,1216.42776L1145.64,1216.42776
				L1145.88,1216.30776L1145.88,1216.18776L1145.88,1215.94776L1146,1215.82776L1146.12,1215.70776L1146.48,1215.82776L1147.2,1214.98777
				L1147.68,1214.98777L1150.32,1208.86783L1156.08,1196.26796L1161.36,1185.94806L1169.28,1170.34822L1174.32,1161.70831L1175.28,1155.46837
				L1179,1133.38859L1185.24,1128.70864L1199.28,1098.82894L1199.52,1092.829L1201.92,1090.90902L1208.16,1085.26908L1210.32,1084.42908
				L1217.52,1081.90911L1225.2,1077.94915L1235.76,1068.94924L1247.76,1066.30927L1260.72,1059.94933L1271.64,1052.7494L1297.92,1050.82942
				L1298.16,1050.82942L1320.84,1049.14944L1321.08,1049.14944L1324.68,1048.78944L1324.92,1048.78944L1325.76,1048.78944L1325.88,1048.78944
				L1327.32,1048.66944L1327.56,1048.66944L1329.12,1048.54945L1329.48,1048.54945L1361.88,1046.14947L1362.12,1046.14947L1373.4,1045.30948
				L1373.64,1045.30948L1417.8,1042.06951L1437.48,1044.22949L1437.6,1044.22949L1452.48,1040.26953L1461.6,1032.8296L1461.72,1032.8296
				L1462.92,1033.90959L1477.44,1046.38947L1484.88,1059.94933L1490.64,1067.38926L1508.52,1081.90911L1528.32,1089.82903L1544.04,1091.98901
				L1553.28,1090.18903L1569.96,1081.42911L1590.96,1075.30918L1602.36,1066.06927L1607.64,1049.02944L1612.8,1030.18963L1619.88,1013.98979
				L1636.08,1007.02986L1643.04,994.66999L1638.24,984.23009L1633.44,975.47018L1624.2,959.39034L1618.08,946.67047L1609.08,938.15056
				L1592.64,915.95078L1591.08,908.27086L1588.8,897.11097L1594.8,889.79104L1600.68,882.47112L1607.28,870.71124L1627.44,857.03137
				L1636.92,857.03137L1647.24,816.59178L1658.64,798.59196L1677.96,770.39225L1688.76,748.67246L1696.8,727.91267L1697.28,712.79283
				L1688.76,693.95301L1691.64,684.59311L1701.48,668.03328L1713.24,652.91343L1722.24,648.23348L1736.4,642.11354L1741.56,630.83365
				L1774.08,628.43367L1796.76,629.39366L1806.6,630.83365L1825.92,638.39357L1849.56,654.35341L1864.56,654.83341L1888.68,648.71347
				L1907.52,648.23348L1915.92,647.75348L1929.6,629.87366L1941.84,625.19371L1954.68,616.1938L1964.52,608.63387L1978.2,602.99393
				L1986.72,593.63402L1990.8,587.87408L2006.16,586.5541L2011.68,594.95401L2018.28,603.95392L2020.56,618.59377L2024.4,630.83365
				L2030.04,637.43358L2044.68,629.87366L2058.36,617.15379L2067.24,605.39391L2075.28,585.59411L2081.88,567.59429L2102.16,548.27448
				L2122.92,531.35465L2156.88,515.75481L2180.4,502.07495L2185.08,497.155L2193.6,488.03509L2211.96,468.23529L2213.28,465.59531
				L2220.48,451.67545L2224.68,432.83564L2229.96,407.3959L2245.44,389.03608L2253.48,383.39614L2269.44,367.3163L2270.4,351.35646
				L2298.72,366.23631L2329.68,391.31606L2348.4,408.95588L2358.6,445.91551L2378.4,464.63532L2381.88,471.47525L2389.68,486.5951
				L2403.6,504.23492L2400.36,519.71477L2388,542.75454L2378.88,558.35438L2382.12,579.71416L2378.88,599.51397L2353.8,632.15364
				z"/>
			<path clip-path="url(#SVG_CP_1)" fill="none" stroke="#000000" stroke-width="3.96" stroke-miterlimit="10" stroke-linecap="round" stroke-linejoin="round" d="
				M2353.8,632.15364L2344.2,655.6734L2324.88,665.8733L2315.28,683.03312L2315.76,687.59308L2318.52,710.75285L2320.56,730.07265
				L2312.52,754.6724L2309.88,768.11227L2308.44,770.99224L2290.08,808.79186L2305.56,873.47121L2312.04,897.59097L2304,935.51058
				L2303.52,946.79047L2309.88,970.31023L2333.4,998.14995L2359.08,1012.06981L2379.96,1044.70948L2386.08,1059.34934L2388.6,1065.10928
				L2393.64,1104.46888L2396.64,1126.54866L2402.52,1148.50844L2399.28,1178.98813L2400.12,1181.38811L2410.56,1210.54781L2432.4,1256.62735
				L2437.2,1293.58698L2447.4,1318.18673L2451.12,1353.46638L2451.72,1369.54621L2467.32,1387.90603L2469.36,1390.426L2472,1404.34586
				L2474.16,1425.22565L2458.08,1437.46553L2424.96,1439.14551L2391.24,1428.34562L2345.16,1425.70565L2333.4,1429.42561L2322.72,1448.14542
				L2301.36,1476.58514L2281.56,1499.6249L2258.16,1520.3847L2251.56,1526.26464L2244.96,1528.66461L2209.92,1540.78449L2209.8,1540.78449
				L2209.68,1540.78449L2161.08,1566.46423L2147.76,1583.02407L2148.84,1593.70396L2124.72,1600.18389L2120.52,1625.26364L2097.48,1660.66328
				L2084.88,1677.58311L2074.56,1691.50297L2074.44,1691.62297L2074.32,1691.86297L2064.6,1706.26282L2058.96,1714.42274L2045.04,1735.06253
				L2042.4,1739.14249L2011.8,1786.42202L2001.24,1802.50186L1996.32,1809.94178L1991.88,1820.26168L1978.68,1850.62137L1964.76,1890.70097
				L1953,1926.10061L1931.52,1965.70021L1921.44,1983.34004L1941.24,2006.7398L1941.36,2006.8598L1941.36,2006.9798L1941.6,2007.0998
				L1942.2,2007.81979L1943.04,2008.89978L1944.96,2011.17976L1956.6,2023.65963L1966.68,2034.45952L1966.92,2034.69952L1974.96,2049.09937
				L1968.48,2057.37929L1968.36,2057.37929L1968.36,2057.49929L1951.32,2079.09907L1937.76,2086.059L1928.4,2090.85895L1939.56,2105.37881
				L1954.08,2112.81873L1956.24,2131.53854L1955.64,2153.97832L1954.56,2174.85811L1965.48,2175.9381L1988.28,2178.21807L1997.4,2179.17806
				L2003.76,2179.77806L2011.68,2180.49805L2022.36,2181.45804L2030.16,2182.17803L2032.2,2182.41803L2053.08,2189.61796L2056.92,2190.93795
				L2063.16,2193.09792L2063.88,2193.09792L2066.64,2193.33792L2129.04,2197.89788L2159.04,2221.41764L2186.28,2238.57747L2186.52,2239.65746
				L2191.08,2259.93725L2197.56,2274.9371L2194.8,2300.13685L2153.88,2349.21635L2151.48,2351.97632L2153.64,2369.73615L2153.76,2369.85614
				L2153.76,2369.97614L2154,2371.89612L2161.08,2430.09554L2171.16,2461.77522L2173.2,2468.01516L2173.56,2469.09515L2179.32,2487.33496
				L2187.36,2524.29459L2213.52,2552.7343L2235.24,2564.73418L2136.24,2630.61352L2126.28,2640.33342L2107.68,2652.3333L2089.2,2669.01313
				L2086.92,2674.29308L2087.52,2679.81302L2084.52,2687.73294L2077.8,2689.17293L2069.04,2687.13295L2060.88,2689.77292L2059.2,2702.0128
				L2026.44,2709.57273L2000.64,2700.45282L1983.6,2693.49289L1967.28,2691.57291L1949.52,2692.4129L1937.28,2690.49292L1935.12,2690.25292
				L1924.08,2689.65293L1905.48,2693.97288L1900.08,2697.57285L1891.08,2703.45279L1875.12,2722.4126L1857.84,2747.85234L1839.96,2769.69212
				L1826.76,2789.13192L1824.36,2792.73189L1818.36,2798.49183L1805.64,2810.85171L1796.16,2823.21158L1782.48,2835.93145L1777.56,2854.29127
				L1775.64,2861.61119L1767.24,2881.65099L1754.88,2886.93094L1752.12,2888.13093L1733.52,2883.69097L1730.28,2882.97098L1720.8,2881.291
				L1693.44,2876.49104L1673.88,2874.69106L1669.08,2874.21107L1664.4,2873.73107L1664.28,2873.73107L1659.12,2874.21107L1657.2,2874.33107
				L1657.08,2874.45107L1655.16,2874.57106L1649.4,2875.05106L1644.96,2875.41106L1643.16,2875.53105L1632.36,2876.49104L1631.64,2876.73104
				L1628.04,2877.57103L1604.28,2883.81097L1597.68,2884.65096L1593,2885.37096L1591.2,2885.61095L1583.04,2887.05094L1578,2887.77093
				L1571.16,2889.69091L1569.24,2890.29091L1566.72,2891.0109L1562.16,2892.21089L1556.76,2893.77087L1551.48,2895.69085L1549.44,2896.41084
				L1541.88,2899.29082L1535.52,2901.57079L1533,2902.41078L1529.88,2903.37077L1523.16,2905.53075L1523.04,2905.53075L1515.96,2907.81073
				L1507.56,2910.4507L1497,2913.69067L1491.72,2915.37065L1484.76,2918.25062L1479,2920.7706L1472.52,2923.53057L1467,2925.81055
				L1462.92,2927.25053L1458.72,2928.69052L1458.36,2928.81052L1458.24,2928.93052L1451.76,2931.21049L1447.32,2934.21046L1442.64,2937.33043
				L1437.48,2940.8104L1431.48,2944.77036L1426.08,2948.49032L1421.88,2951.73029L1417.08,2955.69025L1410.36,2960.97019L1404.36,2965.77015
				L1402.32,2972.37008L1400.16,2978.97001L1399.92,2980.05L1397.76,2986.52994L1395.48,2993.84986L1395,3001.64978L1394.64,3007.40973
				L1394.52,3009.56971L1395.24,3017.00963L1395.96,3024.44956L1396.92,3033.68946L1397.28,3037.28943L1397.64,3041.00939L1385.52,3030.3295
				L1364.76,3012.08968L1362.48,3010.4097L1337.88,2993.48987L1332.96,2992.88987L1327.32,2994.20986L1324.68,2995.88984L1321.56,2997.92982
				L1317.6,2998.76981L1315.08,2999.36981L1313.52,2999.7298L1308.24,3005.24975L1305.24,3010.1697L1300.56,3015.92964L1297.08,3026.12954
				L1284.6,3044.60935L1281.84,3048.56931L1280.52,3050.72929L1273.68,3054.32925L1258.32,3062.36917L1247.04,3066.68913L1233.48,3064.52915
				L1218.6,3058.88921L1202.28,3053.84926L1191,3046.76933L1187.4,3038.96941L1178.16,3055.28924L1169.64,3065.12915L1159.8,3071.60908
				L1147.56,3076.76903L1134.48,3080.009L1119.6,3083.96896L1112.28,3084.20895L1103.04,3086.72893L1089.24,3092.60887L1074.84,3097.16882
				L1054.32,3104.60875L1028.76,3079.889L1025.16,3055.76924L1011.72,3033.08947L1007.28,3021.68958L1005.96,3018.20962L1004.88,3015.20965
				L1004.64,3014.60965L1004.52,3014.36966L1004.52,3014.24966L1004.4,3014.12966L1001.04,3005.36975L995.64,2992.16988L994.68,2989.7699
				L992.52,2984.72996L988.68,2978.25002L984.72,2971.29009L960.6,2940.0904L918,2916.69064L861.96,2910.9307L801.6,2917.41063L
				750.36,2944.17036L729.36,2943.93037L722.16,2939.73041L713.76,2937.33043L711.48,2933.13047L707.52,2930.7305L702.48,2928.09053
				L697.32,2926.05055L691.92,2922.93058L684.12,2921.73059L681.48,2913.21068L684.36,2908.05073L681.12,2886.57094L679.2,2865.45116
				L677.28,2848.65133L676.92,2828.49153L675,2813.73168L670.68,2801.0118L672.12,2787.09194L672.36,2787.09194L680.64,2786.49195
				L686.4,2787.93194L695.16,2790.69191L705.6,2792.97189L718.08,2795.61186L731.28,2798.37183L742.56,2798.37183L751.92,2796.45185
				L757.08,2794.77187L765.6,2787.93194L776.64,2775.93206L783.96,2765.49216L788.88,2760.09222L792.48,2748.45233L793.68,2732.49249
				L789.72,2714.97267L783.72,2704.17278L779.16,2694.33288L777.72,2691.33291L770.04,2676.09306L756.72,2662.4132L754.44,2660.13322
				L754.2,2659.89323L743.16,2651.37331L734.88,2639.13343L731.52,2630.49352L728.64,2622.9336L722.16,2603.61379L719.28,2589.45393
				L714.48,2581.17402L712.8,2578.29405L708.72,2571.33412L688.32,2549.97433L676.32,2537.85445L669.6,2531.01452L657.12,2515.29468
				L656.52,2514.45469L651.48,2504.85479L643.92,2498.49485L638.4,2493.8149L625.68,2484.21499L625.56,2484.09499L625.44,2484.09499
				L615.96,2476.17507L606.24,2467.41516L597.72,2456.97527L584.16,2445.69538L565.8,2430.81553L557.28,2421.57562L547.32,2407.29577
				L530.04,2396.25588L521.76,2390.97593L496.2,2386.05598L474.96,2373.9361L469.56,2370.09614L469.44,2370.09614L469.44,2369.97614
				L454.32,2359.05625L431.64,2353.41631L406.8,2351.97632L371.28,2349.09635L366.24,2347.29637L366,2347.17637L365.88,2347.17637
				L347.88,2340.57644L347.04,2340.33644L347.04,2333.25651L330.6,2325.0966L302.04,2316.93668L277.44,2308.77676L248.76,2292.33693
				L236.88,2282.13703L227.52,2274.09711L227.4,2274.09711L227.28,2273.97711L220.2,2267.85717L208.68,2263.17722L203.88,2261.25724
				L197.52,2265.0972L181.2,2256.93728L156.6,2252.73732L150.6,2255.4973L140.16,2246.37739L139.8,2246.13739L139.32,2245.77739
				L124.92,2233.05752L117.84,2226.93758L124.2,2216.73769L129,2205.5778L132,2193.45792L132.24,2192.37793L133.32,2187.81798L133.32,2172.57813
				L133.32,2167.77818L133.32,2167.17819L133.32,2165.13821L133.08,2152.53833L133.08,2152.41833L133.08,2152.17834L132.84,2142.21844
				L132.96,2142.21844L146.28,2133.09853L153.12,2132.37854L153.12,2132.13854L153.24,2132.13854L158.4,2131.53854L160.56,2130.81855
				L160.92,2130.57855L163.2,2129.73856L174,2125.5386L183.48,2114.61871L184.32,2113.65872L185.28,2112.57873L185.28,2100.93885
				L185.28,2100.09886L185.64,2084.49902L187.56,2064.57922L186.72,2057.13929L192,2050.29936L199.44,2038.77948L207.6,2039.01948
				L215.28,2040.33946L236.16,2036.01951L245.16,2032.05955L252,2029.05958L258.84,2027.25959L262.8,2026.05961L264.36,2028.69958
				L265.32,2030.13956L268.68,2036.1395L271.44,2038.17948L273.96,2039.85947L278.76,2040.21946L281.52,2040.33946L283.44,2040.45946
				L288.72,2039.97947L291.48,2040.81946L296.28,2046.2194L300.84,2048.73938L304.8,2049.69937L311.52,2047.65939L314.88,2044.53942
				L317.64,2040.33946L319.68,2038.77948L324.12,2037.33949L328.44,2036.3795L331.8,2035.65951L338.16,2035.65951L340.56,2035.89951
				L344.04,2036.8595L344.88,2037.09949L349.44,2039.49947L350.76,2040.09946L351.72,2040.09946L357,2039.61947L361.92,2036.8595
				L362.88,2036.3795L365.52,2034.81952L368.76,2034.69952L372.96,2034.69952L373.32,2034.93952L375.48,2036.4995L375.96,2036.8595
				L380.88,2035.05951L385.08,2031.45955L389.76,2026.7796L393.36,2025.33961L398.28,2023.89963L399.72,2024.37962L399.96,2024.37962
				L400.2,2024.49962L400.68,2024.61962L400.8,2024.61962L400.92,2024.61962L401.04,2024.61962L401.16,2024.73962L401.88,2024.85962
				L403.32,2025.09962L405.96,2026.4196L409.56,2026.6596L410.28,2026.8996L412.08,2027.61959L416.16,2028.09959L419.28,2027.97959
				L420.72,2027.85959L424.8,2023.53963L429.6,2018.37968L429.84,2018.13969L432.72,2017.0597L433.2,2016.8197L436.2,2009.49977
				L436.44,2009.49977L438.24,2009.73977L438.72,2009.73977L439.56,2009.73977L445.32,2009.25977L445.8,2009.25977L445.8,2009.13978
				L445.8,2008.89978L446.52,2008.77978L447.48,2008.65978L454.2,2004.81982L456.6,2002.65984L456.84,2002.53984L457.56,2002.29984
				L457.68,2002.29984L458.64,2001.69985L458.76,2001.33985L459.12,2000.61986L459.24,2000.01987L459.6,1999.65987L461.16,1998.09989
				L466.68,1991.85995L466.92,1991.61995L467.64,1990.89996L468.12,1990.53996L468.24,1990.41996L472.32,1989.81997L472.44,1989.69997
				L476.4,1987.77999L476.16,1987.18L474.84,1984.54002L474.36,1983.22004L474,1982.50004L472.92,1980.22007L478.92,1976.7401L489.24,1971.58015
				L494.4,1969.42018L494.76,1969.30018L497.52,1968.46019L498.48,1968.10019L501.6,1968.22019L501.48,1967.98019L501.48,1967.74019
				L501.36,1966.6602L503.28,1950.82036L500.04,1943.86043L496.56,1936.18051L491.76,1915.54072L491.28,1913.50074L487.08,1894.06093
				L484.56,1888.06099L480.36,1878.58109L479.04,1875.58112L478.92,1873.66114L478.92,1869.34118L478.8,1868.1412L478.68,1859.98128
				L471.24,1853.14135L469.68,1851.94136L464.04,1847.3814L464.04,1846.78141L463.92,1846.66141L463.92,1846.54141L463.92,1846.42141
				L462.48,1838.2615L465.12,1829.86158L464.88,1824.10164L464.76,1817.5017L469.68,1807.7818L473.04,1801.06187L470.52,1794.22194
				L466.56,1783.30205L467.16,1774.42214L471.84,1773.22215L479.16,1771.18217L487.2,1769.14219L487.8,1768.90219L489.24,1768.3022
				L501.96,1763.14225L507.24,1754.86234L515.88,1741.06247L516,1740.82248L517.92,1737.82251L518.4,1732.18256L518.64,1728.7026
				L518.76,1727.14261L518.88,1724.74264L519.36,1718.9827L519.48,1717.78271L519.48,1717.30271L519.72,1714.18274L519.96,1712.74276
				L523.8,1690.54298L540.36,1669.78319L540.96,1660.42329L545.16,1646.14343L523.32,1584.70405L502.2,1554.22436L516.84,1548.82441
				L541.44,1539.5845L557.4,1524.22466L561.72,1505.62484L571.08,1490.385L587.28,1483.42507L613.56,1482.10508L633.24,1480.0651
				L643.8,1474.06516L653.16,1466.38524L657.48,1444.54546L673.8,1431.22559L681.6,1421.62569L705,1392.94598L727.56,1371.3462L
				743.16,1364.02627L759.48,1356.10635L768.84,1352.14639L776.16,1344.46647L785.76,1326.82664L796.08,1307.26684L800.04,1296.58695
				L795.36,1285.90706L790.44,1272.70719L785.4,1251.10741L788.4,1243.78748L800.4,1240.78751L815.4,1236.10756L834.6,1236.46755
				L837.36,1237.18755L855.6,1242.1075L875.16,1240.78751L898.44,1248.10744L930,1254.10738L934.8,1258.30733L939.36,1262.38729
				L957.6,1269.70722L959.04,1269.46722L959.52,1268.86723L959.64,1268.62723L960.12,1268.26723L960.12,1268.14723L960.24,1268.14723
				L960.36,1268.14723L960.72,1267.90724L960.84,1267.90724L961.8,1267.78724L962.04,1267.78724L962.16,1267.78724L963.12,1267.90724
				L963.96,1267.78724L965.04,1267.66724L965.16,1267.66724L966.36,1267.42724L966.6,1267.42724L967.56,1267.42724L968.04,1267.54724
				L968.88,1267.30724L969.6,1266.94725L969.72,1266.82725L969.84,1266.82725L970.68,1266.34725L971.04,1266.22725L972.12,1265.86726
				L972.84,1265.62726L974.28,1265.50726L974.52,1265.50726L975.36,1265.50726L975.48,1265.50726L975.84,1265.62726L976.08,1265.62726
				L976.8,1265.74726L976.92,1265.86726L977.88,1266.22725L978.36,1266.34725L978.48,1266.34725L979.08,1266.22725L979.32,1266.22725
				L979.68,1266.10726L980.16,1265.98726L980.4,1265.74726L980.52,1265.74726L980.76,1265.74726L981.12,1265.74726L981.48,1265.74726
				L981.72,1265.74726L981.84,1265.62726L982.56,1265.02727L982.68,1265.02727L982.8,1264.90727L983.04,1264.78727L983.04,1264.66727
				L983.4,1264.54727L984.24,1264.06728L984.84,1263.58728L984.96,1263.46728L985.08,1263.34728L985.68,1262.98729L985.92,1262.86729
				L986.52,1262.50729L987.12,1262.1473L987.96,1261.6673L988.32,1261.4273L988.44,1261.3073L988.68,1261.06731L988.8,1260.58731
				L989.04,1260.22731L989.28,1260.10732L989.4,1259.98732L989.64,1259.62732L989.64,1259.50732L989.88,1259.26732L989.88,1259.14733
				L990.24,1258.90733L990.36,1258.90733L990.84,1258.66733L990.96,1258.66733L991.08,1258.66733L991.2,1258.66733L991.32,1258.66733
				L991.8,1258.78733L992.16,1258.66733L992.64,1258.54733L993.72,1258.30733L993.96,1258.18734L993.96,1258.06734L994.44,1257.82734
				L995.4,1257.22734L995.76,1256.86735L996.24,1256.62735L996.36,1256.50735L997.44,1255.90736L997.56,1255.90736L997.8,1255.66736
				L998.04,1255.42736L998.52,1254.94737L998.64,1254.82737L999.12,1254.34737L999.36,1253.98738L999.6,1253.62738L999.84,1253.38738
				L999.96,1253.14739L1000.08,1253.14739L1000.44,1252.54739L1001.04,1252.0674L1001.4,1251.8274L1002.36,1251.22741L1002.72,1250.98741
				L1003.32,1250.50741L1003.68,1250.14742L1004.16,1249.78742L1004.28,1249.78742L1004.4,1249.78742L1004.64,1249.66742L1005.12,1249.54742
				L1005.36,1249.54742L1005.72,1249.54742L1006.32,1249.42742L1007.4,1249.30742L1007.88,1249.18743L1008.24,1249.18743L1008.36,1249.18743
				L1008.84,1249.18743L1010.28,1249.30742L1010.76,1249.30742L1011.12,1249.42742L1011.36,1249.42742L1012.08,1249.66742L1013.04,1250.02742
				L1013.4,1250.14742L1013.52,1250.14742L1014,1250.14742L1014.24,1250.26741L1014.6,1250.26741L1015.08,1250.26741L1015.2,1250.14742
				L1015.68,1250.14742L1016.28,1249.90742L1016.76,1249.54742L1016.88,1249.42742L1017.6,1248.94743L1018.08,1248.58743L1018.8,1248.34743
				L1019.04,1248.10744L1019.04,1247.98744L1019.04,1247.86744L1019.04,1247.62744L1019.16,1247.38744L1019.16,1247.26745L1019.28,1247.02745
				L1019.4,1247.02745L1019.76,1246.66745L1019.88,1246.66745L1020.6,1246.42745L1021.8,1246.42745L1022.16,1246.42745L1023.24,1246.42745
				L1024.32,1246.30745L1024.92,1246.30745L1025.28,1246.30745L1025.4,1246.30745L1025.64,1246.30745L1026,1246.30745L1026.48,1246.18746
				L1026.96,1245.82746L1027.44,1245.58746L1027.8,1245.58746L1027.92,1245.58746L1028.16,1245.58746L1028.4,1245.58746L1028.64,1245.46746
				L1028.88,1245.46746L1029.24,1245.34746L1029.84,1245.10747L1030.08,1245.10747L1030.32,1244.98747L1031.28,1244.62747L1032.12,1244.38747
				L1032.84,1244.02748L1032.96,1243.78748L1033.56,1243.54748L1034.16,1243.06749L1034.4,1242.94749L1035.72,1241.9875L1036.68,1241.14751
				L1037.76,1240.18752L1037.88,1240.06752L1038.48,1239.58752L1038.6,1239.46752L1039.2,1239.34752L1040.04,1238.98753L1040.76,1238.62753
				L1041,1238.38753L1041.36,1238.26754L1041.72,1237.90754L1041.84,1237.90754L1042.2,1237.66754L1042.56,1237.54754L1043.16,1237.30755
				L1043.88,1237.30755L1044.48,1237.18755L1044.72,1237.18755L1044.84,1237.18755L1045.8,1237.06755L1046.52,1237.06755L1047.6,1236.70755
				L1047.72,1236.58755L1048.44,1236.22756L1048.56,1236.22756L1049.4,1235.86756L1050.36,1235.74756L1051.32,1235.50756L1052.04,1235.38756
				L1052.88,1235.26757L1052.88,1235.38756L1053.36,1235.38756L1054.2,1235.50756L1054.32,1235.50756L1054.68,1235.62756L1055.16,1235.86756
				L1055.64,1235.98756L1055.88,1235.98756L1056.12,1235.98756L1056.72,1235.86756L1057.2,1235.86756L1057.92,1235.50756L1058.88,1234.90757
				L1059.12,1234.78757L1059.6,1234.42757L1059.84,1234.30758L1060.68,1233.94758L1060.92,1233.94758L1061.64,1233.70758L1062.12,1233.58758
				L1062.24,1233.46758L1062.48,1233.46758L1063.2,1233.22759L1064.76,1232.98759L1065.24,1232.98759L1065.48,1232.98759L1065.6,1232.98759
				L1065.96,1232.86759L1066.32,1232.74759L1066.44,1232.50759L1066.56,1232.50759L1066.8,1232.50759L1067.04,1232.38759L1067.28,1232.38759
				L1067.64,1232.38759L1067.88,1232.50759L1068.24,1232.50759L1068.6,1232.38759L1068.96,1232.2676L1069.2,1232.1476L1069.32,1232.0276
				L1069.44,1231.7876L1069.8,1231.30761L1069.92,1231.18761L1070.28,1230.94761L1070.64,1230.70761L1071.12,1230.46761L1071.36,1230.34762
				L1071.6,1230.34762L1072.08,1230.34762L1072.44,1230.46761L1072.68,1230.46761L1072.8,1230.22762L1073.04,1230.10762L1073.04,1229.98762
				L1073.28,1229.98762L1073.52,1229.98762L1073.88,1229.74762L1073.88,1229.62762L1074.12,1229.50762L1074.24,1229.38763L1074.36,1229.26763
				L1074.36,1229.14763L1074.48,1229.02763L1074.6,1228.90763L1074.84,1228.78763L1075.2,1228.42763L1075.32,1228.30764L1075.44,1228.18764
				L1075.68,1228.18764L1075.68,1228.06764L1076.28,1227.82764L1076.76,1227.46764L1077.6,1227.10765L1077.84,1226.98765L1078.2,1226.74765
				L1078.56,1226.50765L1078.8,1226.38766L1078.92,1226.38766L1079.04,1226.38766L1079.52,1226.14766L1080.12,1225.66766L1080.24,1225.54766
				L1080.36,1225.30767L1080.48,1225.18767L1080.84,1224.94767L1081.32,1224.58767L1081.56,1224.46767L1081.92,1224.34768L1082.4,1224.46767
				L1082.4,1224.34768L1082.52,1224.34768L1082.76,1224.22768L1083.12,1223.98768L1083.24,1223.98768L1083.48,1223.86768L1083.84,1223.86768
				L1084.56,1223.98768L1085.04,1223.98768L1085.16,1223.98768L1085.52,1224.10768L1085.64,1224.10768L1085.88,1224.10768L1086,1224.22768
				L1086.36,1224.22768L1086.72,1224.22768L1086.96,1224.10768L1087.32,1224.10768L1087.68,1224.22768L1088.04,1224.22768L1088.64,1223.98768
				L1089,1223.98768L1089.24,1223.98768L1089.6,1224.10768L1089.72,1224.10768L1089.96,1224.10768L1090.2,1224.10768L1090.56,1224.34768
				L1090.8,1224.46767L1090.92,1224.58767L1091.04,1224.58767L1091.16,1224.58767L1091.52,1224.70767L1091.76,1224.70767L1091.88,1224.82767
				L1092.12,1224.82767L1092.36,1224.94767L1092.6,1225.06767L1092.84,1225.06767L1093.44,1225.30767L1093.68,1225.42766L1093.92,1225.54766
				L1094.4,1225.54766L1094.52,1225.54766L1094.64,1225.42766L1094.88,1225.42766L1095,1225.42766L1095.12,1225.42766L1095.36,1225.54766
				L1095.6,1225.42766L1095.6,1225.18767L1095.72,1224.82767L1095.96,1224.58767L1096.08,1224.70767L1096.2,1224.70767L1096.44,1224.70767
				L1096.44,1224.94767L1096.44,1225.06767L1096.68,1224.94767L1096.8,1224.70767L1097.04,1224.58767L1097.4,1224.46767L1097.52,1224.34768
				L1097.64,1224.10768L1097.88,1223.86768L1098.12,1223.74768L1098.24,1223.62768L1098.36,1223.38769L1098.48,1223.14769L1098.72,1222.78769
				L1098.84,1222.66769L1099.08,1222.66769L1099.2,1222.66769L1099.32,1222.78769L1099.32,1222.90769L1099.44,1223.14769L1099.56,1223.38769
				"/>
			<path clip-path="url(#SVG_CP_1)" fill="none" stroke="#000000" stroke-width="3.96" stroke-miterlimit="10" stroke-linecap="round" stroke-linejoin="round" d="
				M1099.56,1223.38769L1099.68,1223.62768L1099.8,1223.62768L1099.92,1223.74768L1100.16,1223.86768L1100.4,1223.98768L1100.64,1224.22768
				L1100.88,1224.34768L1100.88,1224.46767L1100.88,1224.58767L1100.88,1224.70767L1100.88,1224.82767L1100.88,1224.94767L1101.12,1225.06767
				L1101.36,1225.06767L1101.72,1224.94767L1102.08,1224.82767L1102.32,1224.82767L1102.56,1224.94767L1102.8,1224.94767L1103.28,1224.94767
				L1103.52,1224.94767L1104,1225.18767L1104.36,1225.30767L1104.72,1225.42766L1104.96,1225.54766L1105.08,1225.54766L1105.32,1225.54766
				L1105.44,1225.54766L1105.68,1225.66766L1105.92,1225.54766L1106.28,1225.66766L1106.52,1225.54766L1106.76,1225.54766L1107.12,1225.66766
				L1107.36,1225.54766L1107.48,1225.54766L1107.6,1225.54766L1108.2,1225.54766L1108.32,1225.54766L1108.56,1225.66766L1108.68,1225.66766
				L1108.8,1225.78766L1109.04,1225.78766L1109.28,1225.90766L1109.64,1225.78766L1109.88,1225.78766L1110.36,1225.66766L1110.48,1225.54766
				L1111.08,1225.54766L1111.56,1225.42766L1111.8,1225.42766L1111.92,1225.42766L1112.16,1225.54766L1112.52,1225.66766L1112.76,1225.78766
				L1113.12,1225.78766L1113.84,1225.66766L1114.08,1225.66766L1114.44,1225.66766L1114.68,1225.66766L1114.8,1225.66766L1115.04,1225.54766
				L1115.52,1225.42766L1115.76,1225.30767L1116.12,1225.18767L1116.36,1225.18767L1116.72,1225.18767L1117.2,1225.18767L1117.56,1224.94767
				L1118.04,1224.70767L1118.4,1224.46767L1118.64,1224.46767L1119,1224.34768L1119.36,1224.34768L1119.84,1224.10768L1120.32,1224.10768
				L1120.56,1223.98768L1120.92,1223.86768L1121.04,1223.86768L1121.4,1223.86768L1121.88,1223.74768L1122.24,1223.74768L1122.48,1223.74768
				L1122.6,1223.74768L1122.84,1223.62768L1123.08,1223.50768L1123.2,1223.50768L1123.44,1223.50768L1123.8,1223.38769L1124.04,1223.38769
				L1124.28,1223.26769L1124.64,1223.14769L1125,1223.14769L1125.24,1223.26769L1125.36,1223.26769L1125.6,1223.14769L1125.72,1223.02769
				L1125.84,1222.78769L1125.96,1222.66769L1126.08,1222.54769L1126.32,1222.54769L1126.56,1222.54769L1126.68,1222.66769L1127.04,1222.78769
				L1127.28,1222.90769L1127.4,1222.90769L1127.52,1222.78769L1127.76,1222.4277L1127.76,1222.1877L1127.88,1222.0677L1128,1221.9477
				L1128.36,1222.0677L1128.6,1222.0677L1128.72,1222.0677L1128.84,1221.9477L1129.08,1222.0677L1129.2,1222.1877L1129.44,1222.1877
				L1129.56,1222.0677L1129.68,1221.9477L1129.8,1221.7077L1129.92,1221.4677L1130.04,1221.22771L1130.16,1221.10771L1130.4,1220.98771
				L1130.64,1220.98771L1130.88,1221.10771L1131,1221.22771L1131.12,1221.4677L1131.24,1221.4677L1131.36,1221.34771L1131.36,1221.10771
				L1131.48,1220.98771L1131.6,1220.86771L1131.72,1220.98771L1131.96,1221.10771L1132.08,1221.22771L1132.2,1221.10771L1132.2,1220.86771
				L1132.32,1220.74771L1132.44,1220.62771L1132.68,1220.74771L1132.8,1220.86771L1133.04,1220.98771L1133.4,1220.98771L1133.4,1220.86771
				L1133.52,1220.74771L1133.52,1220.50771L1133.76,1220.50771L1134,1220.50771L1134.24,1220.62771L1134.48,1220.62771L1134.48,1220.50771
				L1134.48,1220.38772L1134.36,1220.14772L1134.48,1219.90772L1134.48,1219.78772L1134.6,1219.66772L1134.84,1219.66772L1134.96,1219.78772
				L1135.08,1219.90772L1135.2,1219.90772L1135.32,1219.90772L1135.32,1219.78772L1135.32,1219.66772L1135.32,1219.30773L1135.32,1219.06773
				L1135.44,1218.94773L1135.56,1218.70773L1135.68,1218.70773L1135.92,1218.82773L1136.16,1218.94773L1136.28,1218.82773L1136.28,1218.70773
				L1136.4,1218.34774L1136.4,1218.22774L1136.52,1217.98774L1136.64,1217.74774L1136.76,1217.50774L1136.88,1217.38775L1137,1217.26775
				L1137.12,1217.14775L1137.36,1217.02775L1137.6,1216.90775L1137.84,1216.90775L1138.2,1217.02775L1138.56,1217.14775L1139.04,1217.26775
				L1139.04,1217.38775L1139.4,1217.38775L1139.88,1217.38775L1140.12,1217.38775L1140.48,1217.38775L1140.84,1217.26775L1141.2,1217.14775
				L1141.32,1217.14775L1141.68,1217.14775L1141.92,1217.14775L1142.4,1217.02775L1142.64,1216.78775L1142.88,1216.66775L1143.24,1216.54775
				L1143.6,1216.54775L1144.08,1216.54775L1144.32,1216.66775L1144.56,1216.54775L1144.8,1216.42776L1145.04,1216.18776L1145.4,1216.30776
				L1145.52,1216.42776L1145.64,1216.42776L1145.88,1216.30776L1145.88,1216.18776L1145.88,1215.94776L1146,1215.82776L1146.12,1215.70776
				L1146.48,1215.82776L1147.2,1214.98777L1147.68,1214.98777L1150.32,1208.86783L1156.08,1196.26796L1161.36,1185.94806L1169.28,1170.34822
				L1174.32,1161.70831L1175.28,1155.46837L1179,1133.38859L1185.24,1128.70864L1199.28,1098.82894L1199.52,1092.829L1201.92,1090.90902
				L1208.16,1085.26908L1210.32,1084.42908L1217.52,1081.90911L1225.2,1077.94915L1235.76,1068.94924L1247.76,1066.30927L1260.72,1059.94933
				L1271.64,1052.7494L1297.92,1050.82942L1298.16,1050.82942L1320.84,1049.14944L1321.08,1049.14944L1324.68,1048.78944L1324.92,1048.78944
				L1325.76,1048.78944L1325.88,1048.78944L1327.32,1048.66944L1327.56,1048.66944L1329.12,1048.54945L1329.48,1048.54945L1361.88,1046.14947
				L1362.12,1046.14947L1373.4,1045.30948L1373.64,1045.30948L1417.8,1042.06951L1437.48,1044.22949L1437.6,1044.22949L1452.48,1040.26953
				L1461.6,1032.8296L1461.72,1032.8296L1462.92,1033.90959L1477.44,1046.38947L1484.88,1059.94933L1490.64,1067.38926L1508.52,1081.90911
				L1528.32,1089.82903L1544.04,1091.98901L1553.28,1090.18903L1569.96,1081.42911L1590.96,1075.30918L1602.36,1066.06927L1607.64,1049.02944
				L1612.8,1030.18963L1619.88,1013.98979L1636.08,1007.02986L1643.04,994.66999L1638.24,984.23009L1633.44,975.47018L1624.2,959.39034
				L1618.08,946.67047L1609.08,938.15056L1592.64,915.95078L1591.08,908.27086L1588.8,897.11097L1594.8,889.79104L1600.68,882.47112
				L1607.28,870.71124L1627.44,857.03137L1636.92,857.03137L1647.24,816.59178L1658.64,798.59196L1677.96,770.39225L1688.76,748.67246
				L1696.8,727.91267L1697.28,712.79283L1688.76,693.95301L1691.64,684.59311L1701.48,668.03328L1713.24,652.91343L1722.24,648.23348
				L1736.4,642.11354L1741.56,630.83365L1774.08,628.43367L1796.76,629.39366L1806.6,630.83365L1825.92,638.39357L1849.56,654.35341
				L1864.56,654.83341L1888.68,648.71347L1907.52,648.23348L1915.92,647.75348L1929.6,629.87366L1941.84,625.19371L1954.68,616.1938
				L1964.52,608.63387L1978.2,602.99393L1986.72,593.63402L1990.8,587.87408L2006.16,586.5541L2011.68,594.95401L2018.28,603.95392
				L2020.56,618.59377L2024.4,630.83365L2030.04,637.43358L2044.68,629.87366L2058.36,617.15379L2067.24,605.39391L2075.28,585.59411
				L2081.88,567.59429L2102.16,548.27448L2122.92,531.35465L2156.88,515.75481L2180.4,502.07495L2185.08,497.155L2193.6,488.03509
				L2211.96,468.23529L2213.28,465.59531L2220.48,451.67545L2224.68,432.83564L2229.96,407.3959L2245.44,389.03608L2253.48,383.39614
				L2269.44,367.3163L2270.4,351.35646L2298.72,366.23631L2329.68,391.31606L2348.4,408.95588L2358.6,445.91551L2378.4,464.63532
				L2381.88,471.47525L2389.68,486.5951L2403.6,504.23492L2400.36,519.71477L2388,542.75454L2378.88,558.35438L2382.12,579.71416
				L2378.88,599.51397L2353.8,632.15364"/>
		</g>
		<g id="sattlements">
			<path clip-path="url(#SVG_CP_1)" fill="#FF0000" fill-rule="evenodd" stroke="#000000" stroke-width="0.96" stroke-miterlimit="10" stroke-linecap="round" stroke-linejoin="round" d="
				M897.36,1836.10152C897.36,1830.60082,892.90076,1826.14162,887.4,1826.14162C881.89924,1826.14162,877.44,1830.60082,877.44,1836.10152
				C877.44,1841.60222,881.89924,1846.06142,887.4,1846.06142C892.90076,1846.06142,897.36,1841.60222,897.36,1836.10152z"/>
			<path clip-path="url(#SVG_CP_1)" fill="#FF0000" fill-rule="evenodd" stroke="#000000" stroke-width="0.96" stroke-miterlimit="10" stroke-linecap="round" stroke-linejoin="round" d="
				M1475.88,2100.21886C1475.88,2094.71816,1471.42076,2090.25896,1465.92,2090.25896C1460.41924,2090.25896,1455.96,2094.71816
				,1455.96,2100.21886C1455.96,2105.71956,1460.41924,2110.17876,1465.92,2110.17876C1471.42076,2110.17876,1475.88,2105.71956
				,1475.88,2100.21886z"/>
			<path clip-path="url(#SVG_CP_1)" fill="#FF0000" fill-rule="evenodd" stroke="#000000" stroke-width="0.96" stroke-miterlimit="10" stroke-linecap="round" stroke-linejoin="round" d="
				M1185.96,2000.49986C1185.96,1994.99916,1181.50076,1990.53996,1176,1990.53996C1170.49924,1990.53996,1166.04,1994.99916,1166.04,2000.49986
				C1166.04,2006.00056,1170.49924,2010.45976,1176,2010.45976C1181.50076,2010.45976,1185.96,2006.00056,1185.96,2000.49986z"/>
			<path clip-path="url(#SVG_CP_1)" fill="#FF0000" fill-rule="evenodd" stroke="#000000" stroke-width="0.96" stroke-miterlimit="10" stroke-linecap="round" stroke-linejoin="round" d="
				M1964.4,1696.30292C1964.4,1690.80222,1959.94076,1686.34303,1954.44,1686.34303C1948.93924,1686.34303,1944.48,1690.80222,1944.48,1696.30292
				C1944.48,1701.80363,1948.93924,1706.26282,1954.44,1706.26282C1959.94076,1706.26282,1964.4,1701.80363,1964.4,1696.30292z"/>
			<path clip-path="url(#SVG_CP_1)" fill="#FF0000" fill-rule="evenodd" stroke="#000000" stroke-width="0.96" stroke-miterlimit="10" stroke-linecap="round" stroke-linejoin="round" d="
				M1763.88,2068.53918C1763.88,2063.03848,1759.42076,2058.57928,1753.92,2058.57928C1748.41924,2058.57928,1743.96,2063.03848
				,1743.96,2068.53918C1743.96,2074.03988,1748.41924,2078.49908,1753.92,2078.49908C1759.42076,2078.49908,1763.88,2074.03988
				,1763.88,2068.53918z"/>
			<path clip-path="url(#SVG_CP_1)" fill="#FF0000" fill-rule="evenodd" stroke="#000000" stroke-width="0.96" stroke-miterlimit="10" stroke-linecap="round" stroke-linejoin="round" d="
				M986.28,1912.42075C986.28,1906.92005,981.82076,1902.46085,976.32,1902.46085C970.81924,1902.46085,966.36,1906.92005,966.36,1912.42075
				C966.36,1917.92145,970.81924,1922.38065,976.32,1922.38065C981.82076,1922.38065,986.28,1917.92145,986.28,1912.42075z"/>
			<path clip-path="url(#SVG_CP_1)" fill="#FF0000" fill-rule="evenodd" stroke="#000000" stroke-width="0.96" stroke-miterlimit="10" stroke-linecap="round" stroke-linejoin="round" d="
				M1258.2,2094.09892C1258.2,2088.59822,1253.74076,2084.13902,1248.24,2084.13902C1242.73924,2084.13902,1238.28,2088.59822,1238.28,2094.09892
				C1238.28,2099.59962,1242.73924,2104.05882,1248.24,2104.05882C1253.74076,2104.05882,1258.2,2099.59962,1258.2,2094.09892z"/>
			<path clip-path="url(#SVG_CP_1)" fill="#FF0000" fill-rule="evenodd" stroke="#000000" stroke-width="0.96" stroke-miterlimit="10" stroke-linecap="round" stroke-linejoin="round" d="
				M801.6,1848.58139C801.6,1843.08069,797.14076,1838.62149,791.64,1838.62149C786.13924,1838.62149,781.68,1843.08069,781.68,1848.58139
				C781.68,1854.08209,786.13924,1858.54129,791.64,1858.54129C797.14076,1858.54129,801.6,1854.08209,801.6,1848.58139z"/>
			<path clip-path="url(#SVG_CP_1)" fill="#FF0000" fill-rule="evenodd" stroke="#000000" stroke-width="0.96" stroke-miterlimit="10" stroke-linecap="round" stroke-linejoin="round" d="
				M757.08,1883.14104C757.08,1877.64034,752.62076,1873.18114,747.12,1873.18114C741.61924,1873.18114,737.16,1877.64034,737.16,1883.14104
				C737.16,1888.64174,741.61924,1893.10094,747.12,1893.10094C752.62076,1893.10094,757.08,1888.64174,757.08,1883.14104z"/>
			<path clip-path="url(#SVG_CP_1)" fill="#FF0000" fill-rule="evenodd" stroke="#000000" stroke-width="0.96" stroke-miterlimit="10" stroke-linecap="round" stroke-linejoin="round" d="
				M1652.88,2104.77881C1652.88,2099.27811,1648.42076,2094.81891,1642.92,2094.81891C1637.41924,2094.81891,1632.96,2099.27811
				,1632.96,2104.77881C1632.96,2110.27951,1637.41924,2114.73871,1642.92,2114.73871C1648.42076,2114.73871,1652.88,2110.27951
				,1652.88,2104.77881z"/>
			<path clip-path="url(#SVG_CP_1)" fill="#FF0000" fill-rule="evenodd" stroke="#000000" stroke-width="0.96" stroke-miterlimit="10" stroke-linecap="round" stroke-linejoin="round" d="
				M1384.2,2032.65954C1384.2,2027.15884,1379.74076,2022.69964,1374.24,2022.69964C1368.73924,2022.69964,1364.28,2027.15884,1364.28,2032.65954
				C1364.28,2038.16024,1368.73924,2042.61944,1374.24,2042.61944C1379.74076,2042.61944,1384.2,2038.16024,1384.2,2032.65954z"/>
			<path clip-path="url(#SVG_CP_1)" fill="#FF0000" fill-rule="evenodd" stroke="#000000" stroke-width="0.96" stroke-miterlimit="10" stroke-linecap="round" stroke-linejoin="round" d="
				M1301.4,2052.57934C1301.4,2047.07864,1296.94076,2042.61944,1291.44,2042.61944C1285.93924,2042.61944,1281.48,2047.07864,1281.48,2052.57934
				C1281.48,2058.08004,1285.93924,2062.53924,1291.44,2062.53924C1296.94076,2062.53924,1301.4,2058.08004,1301.4,2052.57934z"/>
			<path clip-path="url(#SVG_CP_1)" fill="#FF0000" fill-rule="evenodd" stroke="#000000" stroke-width="0.96" stroke-miterlimit="10" stroke-linecap="round" stroke-linejoin="round" d="
				M1113.72,2025.81961C1113.72,2020.31891,1109.26076,2015.85971,1103.76,2015.85971C1098.25924,2015.85971,1093.8,2020.31891,
				1093.8,2025.81961C1093.8,2031.32031,1098.25924,2035.77951,1103.76,2035.77951C1109.26076,2035.77951,1113.72,2031.32031,1113.72,2025.81961
				z"/>
			<path clip-path="url(#SVG_CP_1)" fill="#FF0000" fill-rule="evenodd" stroke="#000000" stroke-width="0.96" stroke-miterlimit="10" stroke-linecap="round" stroke-linejoin="round" d="
				M2166.72,1439.38551C2166.72,1433.88481,2162.26076,1429.42561,2156.76,1429.42561C2151.25924,1429.42561,2146.8,1433.88481,
				2146.8,1439.38551C2146.8,1444.88621,2151.25924,1449.34541,2156.76,1449.34541C2162.26076,1449.34541,2166.72,1444.88621,2166.72,1439.38551
				z"/>
			<g font-family="'ESRI Default Marker'" font-size="1" kerning="0" font-weight="400" fill="#FF0000" clip-path="url(#SVG_CP_1)" >
				<text text-anchor="start" transform="matrix(30 0 0 29.9997 1518.78 2166.33819)" >
					<tspan direction="ltr" unicode-bidi="embed" x="0 ">!</tspan>
				</text>
			</g>
			<g font-family="'ESRI Default Marker'" font-size="1" kerning="0" font-weight="400" fill="#000000" clip-path="url(#SVG_CP_1)" >
				<text text-anchor="start" transform="matrix(30 0 0 29.9997 1518.78 2166.69819)" >
					<tspan direction="ltr" unicode-bidi="embed" x="0 ">.</tspan>
				</text>
			</g>
			<path clip-path="url(#SVG_CP_1)" fill="#FF0000" fill-rule="evenodd" stroke="#000000" stroke-width="0.96" stroke-miterlimit="10" stroke-linecap="round" stroke-linejoin="round" d="
				M1262.88,2522.13461C1262.88,2516.63391,1258.42076,2512.17471,1252.92,2512.17471C1247.41924,2512.17471,1242.96,2516.63391
				,1242.96,2522.13461C1242.96,2527.63531,1247.41924,2532.09451,1252.92,2532.09451C1258.42076,2532.09451,1262.88,2527.63531
				,1262.88,2522.13461z"/>
			<path clip-path="url(#SVG_CP_1)" fill="#FF0000" fill-rule="evenodd" stroke="#000000" stroke-width="0.96" stroke-miterlimit="10" stroke-linecap="round" stroke-linejoin="round" d="
				M1437.24,2580.93402C1437.24,2575.43332,1432.78076,2570.97412,1427.28,2570.97412C1421.77924,2570.97412,1417.32,2575.43332
				,1417.32,2580.93402C1417.32,2586.43472,1421.77924,2590.89392,1427.28,2590.89392C1432.78076,2590.89392,1437.24,2586.43472
				,1437.24,2580.93402z"/>
			<path clip-path="url(#SVG_CP_1)" fill="#FF0000" fill-rule="evenodd" stroke="#000000" stroke-width="0.96" stroke-miterlimit="10" stroke-linecap="round" stroke-linejoin="round" d="
				M556.92,1842.58145C556.92,1837.08075,552.46076,1832.62155,546.96,1832.62155C541.45924,1832.62155,537,1837.08075,537,1842.58145
				C537,1848.08215,541.45924,1852.54135,546.96,1852.54135C552.46076,1852.54135,556.92,1848.08215,556.92,1842.58145z"/>
			<path clip-path="url(#SVG_CP_1)" fill="#FF0000" fill-rule="evenodd" stroke="#000000" stroke-width="0.96" stroke-miterlimit="10" stroke-linecap="round" stroke-linejoin="round" d="
				M614.28,1889.98098C614.28,1884.48027,609.82076,1880.02108,604.32,1880.02108C598.81924,1880.02108,594.36,1884.48027,594.36,1889.98098
				C594.36,1895.48168,598.81924,1899.94088,604.32,1899.94088C609.82076,1899.94088,614.28,1895.48168,614.28,1889.98098z"/>
		</g>
		<g id="sattlements_Anno_6">
			<g font-family="'Sylfaen'" font-size="1" kerning="0" font-weight="700" fill="#000000" clip-path="url(#SVG_CP_1)" >
				<text text-anchor="start" transform="matrix(49.92 0 0 49.9195 902.04 1839.22149)" >
					<tspan direction="ltr" unicode-bidi="embed" x="0 "></tspan>
					<tspan direction="ltr" unicode-bidi="embed" x="0.48557 "></tspan>
					<tspan direction="ltr" unicode-bidi="embed" x="0.95191 "></tspan>
					<tspan direction="ltr" unicode-bidi="embed" x="1.64662 "></tspan>
					<tspan direction="ltr" unicode-bidi="embed" x="2.3293 "></tspan>
					<tspan direction="ltr" unicode-bidi="embed" x="3.04084 "></tspan>
					<tspan direction="ltr" unicode-bidi="embed" x="3.774 "></tspan>
					<tspan direction="ltr" unicode-bidi="embed" x="4.46871 "></tspan>
					<tspan direction="ltr" unicode-bidi="embed" x="5.411 "></tspan>
				</text>
			</g>
			<g font-family="'Sylfaen'" font-size="1" kerning="0" font-weight="700" fill="#000000" clip-path="url(#SVG_CP_1)" >
				<text text-anchor="start" transform="matrix(49.92 0 0 49.9195 1648.92 2138.97847)" >
					<tspan direction="ltr" unicode-bidi="embed" x="0 "></tspan>
					<tspan direction="ltr" unicode-bidi="embed" x="0.48557 "></tspan>
					<tspan direction="ltr" unicode-bidi="embed" x="1.03605 "></tspan>
					<tspan direction="ltr" unicode-bidi="embed" x="1.71873 "></tspan>
					<tspan direction="ltr" unicode-bidi="embed" x="2.137 "></tspan>
					<tspan direction="ltr" unicode-bidi="embed" x="2.65142 "></tspan>
					<tspan direction="ltr" unicode-bidi="embed" x="3.11776 "></tspan>
					<tspan direction="ltr" unicode-bidi="embed" x="3.85573 "></tspan>
					<tspan direction="ltr" unicode-bidi="embed" x="4.79563 "></tspan>
				</text>
			</g>
			<g font-family="'Sylfaen'" font-size="1" kerning="0" font-weight="700" fill="#000000" clip-path="url(#SVG_CP_1)" >
				<text text-anchor="start" transform="matrix(49.92 0 0 49.9195 1167.6 1982.50004)" >
					<tspan direction="ltr" unicode-bidi="embed" x="0 "></tspan>
					<tspan direction="ltr" unicode-bidi="embed" x="0.5048 "></tspan>
					<tspan direction="ltr" unicode-bidi="embed" x="1.19951 "></tspan>
					<tspan direction="ltr" unicode-bidi="embed" x="1.68748 "></tspan>
					<tspan direction="ltr" unicode-bidi="embed" x="2.42065 "></tspan>
					<tspan direction="ltr" unicode-bidi="embed" x="2.83891 "></tspan>
					<tspan direction="ltr" unicode-bidi="embed" x="3.32689 "></tspan>
				</text>
			</g>
			<g font-family="'Sylfaen'" font-size="1" kerning="0" font-weight="700" fill="#000000" clip-path="url(#SVG_CP_1)" >
				<text text-anchor="start" transform="matrix(49.92 0 0 49.9195 1765.8 1681.06308)" >
					<tspan direction="ltr" unicode-bidi="embed" x="0 "></tspan>
					<tspan direction="ltr" unicode-bidi="embed" x="0.93989 "></tspan>
					<tspan direction="ltr" unicode-bidi="embed" x="1.49037 "></tspan>
					<tspan direction="ltr" unicode-bidi="embed" x="2.0144 "></tspan>
					<tspan direction="ltr" unicode-bidi="embed" x="2.48074 "></tspan>
					<tspan direction="ltr" unicode-bidi="embed" x="3.29083 "></tspan>
				</text>
			</g>
			<g font-family="'Sylfaen'" font-size="1" kerning="0" font-weight="700" fill="#000000" clip-path="url(#SVG_CP_1)" >
				<text text-anchor="start" transform="matrix(49.92 0 0 49.9195 1763.52 2052.57934)" >
					<tspan direction="ltr" unicode-bidi="embed" x="0 "></tspan>
					<tspan direction="ltr" unicode-bidi="embed" x="0.49519 "></tspan>
					<tspan direction="ltr" unicode-bidi="embed" x="0.96153 "></tspan>
					<tspan direction="ltr" unicode-bidi="embed" x="1.44951 "></tspan>
				</text>
			</g>
			<g font-family="'Sylfaen'" font-size="1" kerning="0" font-weight="700" fill="#000000" clip-path="url(#SVG_CP_1)" >
				<text text-anchor="start" transform="matrix(49.92 0 0 49.9195 985.2 1908.58079)" >
					<tspan direction="ltr" unicode-bidi="embed" x="0 "></tspan>
					<tspan direction="ltr" unicode-bidi="embed" x="0.52403 "></tspan>
					<tspan direction="ltr" unicode-bidi="embed" x="1.0072 "></tspan>
					<tspan direction="ltr" unicode-bidi="embed" x="1.42787 "></tspan>
					<tspan direction="ltr" unicode-bidi="embed" x="1.91344 "></tspan>
					<tspan direction="ltr" unicode-bidi="embed" x="2.4519 "></tspan>
					<tspan direction="ltr" unicode-bidi="embed" x="2.90382 "></tspan>
					<tspan direction="ltr" unicode-bidi="embed" x="3.32449 "></tspan>
					<tspan direction="ltr" unicode-bidi="embed" x="4.00477 "></tspan>
				</text>
			</g>
			<g font-family="'Sylfaen'" font-size="1" kerning="0" font-weight="700" fill="#000000" clip-path="url(#SVG_CP_1)" >
				<text text-anchor="start" transform="matrix(49.92 0 0 49.9195 1079.88 2131.53854)" >
					<tspan direction="ltr" unicode-bidi="embed" x="0 "></tspan>
					<tspan direction="ltr" unicode-bidi="embed" x="0.48557 "></tspan>
					<tspan direction="ltr" unicode-bidi="embed" x="0.90384 "></tspan>
					<tspan direction="ltr" unicode-bidi="embed" x="1.35816 "></tspan>
					<tspan direction="ltr" unicode-bidi="embed" x="1.8245 "></tspan>
					<tspan direction="ltr" unicode-bidi="embed" x="2.39901 "></tspan>
					<tspan direction="ltr" unicode-bidi="embed" x="2.94949 "></tspan>
				</text>
			</g>
			<g font-family="'Sylfaen'" font-size="1" kerning="0" font-weight="700" fill="#000000" clip-path="url(#SVG_CP_1)" >
				<text text-anchor="start" transform="matrix(49.92 0 0 49.9195 716.88 1759.54229)" >
					<tspan direction="ltr" unicode-bidi="embed" x="0 "></tspan>
					<tspan direction="ltr" unicode-bidi="embed" x="0.47596 "></tspan>
					<tspan direction="ltr" unicode-bidi="embed" x="1.02403 "></tspan>
					<tspan direction="ltr" unicode-bidi="embed" x="1.70671 "></tspan>
					<tspan direction="ltr" unicode-bidi="embed" x="2.19229 "></tspan>
					<tspan direction="ltr" unicode-bidi="embed" x="2.65863 "></tspan>
					<tspan direction="ltr" unicode-bidi="embed" x="3.59852 "></tspan>
				</text>
			</g>
			<g font-family="'Sylfaen'" font-size="1" kerning="0" font-weight="700" fill="#000000" clip-path="url(#SVG_CP_1)" >
				<text text-anchor="start" transform="matrix(49.92 0 0 49.9195 716.88 1825.42163)" >
					<tspan direction="ltr" unicode-bidi="embed" x="0 "></tspan>
					<tspan direction="ltr" unicode-bidi="embed" x="0.73076 "></tspan>
					<tspan direction="ltr" unicode-bidi="embed" x="1.42787 "></tspan>
					<tspan direction="ltr" unicode-bidi="embed" x="2.36777 "></tspan>
				</text>
			</g>
			<g font-family="'Sylfaen'" font-size="1" kerning="0" font-weight="700" fill="#000000" clip-path="url(#SVG_CP_1)" >
				<text text-anchor="start" transform="matrix(49.92 0 0 49.9195 724.08 1933.42054)" >
					<tspan direction="ltr" unicode-bidi="embed" x="0 "></tspan>
					<tspan direction="ltr" unicode-bidi="embed" x="0.53605 "></tspan>
					<tspan direction="ltr" unicode-bidi="embed" x="1.21633 "></tspan>
					<tspan direction="ltr" unicode-bidi="embed" x="1.68268 "></tspan>
					<tspan direction="ltr" unicode-bidi="embed" x="2.18988 "></tspan>
					<tspan direction="ltr" unicode-bidi="embed" x="2.60815 "></tspan>
					<tspan direction="ltr" unicode-bidi="embed" x="3.55045 "></tspan>
				</text>
			</g>
			<g font-family="'Sylfaen'" font-size="1" kerning="0" font-weight="700" fill="#000000" clip-path="url(#SVG_CP_1)" >
				<text text-anchor="start" transform="matrix(49.92 0 0 49.9195 1479.12 2079.21907)" >
					<tspan direction="ltr" unicode-bidi="embed" x="0 "></tspan>
					<tspan direction="ltr" unicode-bidi="embed" x="0.45192 "></tspan>
					<tspan direction="ltr" unicode-bidi="embed" x="0.93749 "></tspan>
					<tspan direction="ltr" unicode-bidi="embed" x="1.35576 "></tspan>
					<tspan direction="ltr" unicode-bidi="embed" x="1.93027 "></tspan>
					<tspan direction="ltr" unicode-bidi="embed" x="2.45671 "></tspan>
					<tspan direction="ltr" unicode-bidi="embed" x="3.19228 "></tspan>
					<tspan direction="ltr" unicode-bidi="embed" x="4.00236 "></tspan>
				</text>
			</g>
			<g font-family="'Sylfaen'" font-size="1" kerning="0" font-weight="700" fill="#000000" clip-path="url(#SVG_CP_1)" >
				<text text-anchor="start" transform="matrix(49.92 0 0 49.9195 1378.32 2019.09968)" >
					<tspan direction="ltr" unicode-bidi="embed" x="0 "></tspan>
					<tspan direction="ltr" unicode-bidi="embed" x="0.48557 "></tspan>
					<tspan direction="ltr" unicode-bidi="embed" x="0.90384 "></tspan>
					<tspan direction="ltr" unicode-bidi="embed" x="1.73556 "></tspan>
					<tspan direction="ltr" unicode-bidi="embed" x="2.22354 "></tspan>
					<tspan direction="ltr" unicode-bidi="embed" x="2.68747 "></tspan>
					<tspan direction="ltr" unicode-bidi="embed" x="3.62977 "></tspan>
				</text>
			</g>
			<g font-family="'Sylfaen'" font-size="1" kerning="0" font-weight="700" fill="#000000" clip-path="url(#SVG_CP_1)" >
				<text text-anchor="start" transform="matrix(49.92 0 0 49.9195 978.48 2070.93915)" >
					<tspan direction="ltr" unicode-bidi="embed" x="0 "></tspan>
					<tspan direction="ltr" unicode-bidi="embed" x="0.45192 "></tspan>
					<tspan direction="ltr" unicode-bidi="embed" x="1.39422 "></tspan>
					<tspan direction="ltr" unicode-bidi="embed" x="2.22594 "></tspan>
					<tspan direction="ltr" unicode-bidi="embed" x="2.77641 "></tspan>
					<tspan direction="ltr" unicode-bidi="embed" x="3.26199 "></tspan>
					<tspan direction="ltr" unicode-bidi="embed" x="3.99996 "></tspan>
					<tspan direction="ltr" unicode-bidi="embed" x="4.50476 "></tspan>
					<tspan direction="ltr" unicode-bidi="embed" x="4.92303 "></tspan>
					<tspan direction="ltr" unicode-bidi="embed" x="5.411 "></tspan>
				</text>
			</g>
			<g font-family="'Sylfaen'" font-size="1" kerning="0" font-weight="700" fill="#000000" clip-path="url(#SVG_CP_1)" >
				<text text-anchor="start" transform="matrix(49.92 0 0 49.9195 870.12 2014.53972)" >
					<tspan direction="ltr" unicode-bidi="embed" x="0 "></tspan>
					<tspan direction="ltr" unicode-bidi="embed" x="0.5048 "></tspan>
					<tspan direction="ltr" unicode-bidi="embed" x="1.24037 "></tspan>
					<tspan direction="ltr" unicode-bidi="embed" x="1.75719 "></tspan>
					<tspan direction="ltr" unicode-bidi="embed" x="2.22354 "></tspan>
					<tspan direction="ltr" unicode-bidi="embed" x="2.95911 "></tspan>
					<tspan direction="ltr" unicode-bidi="embed" x="3.9014 "></tspan>
				</text>
			</g>
			<g font-family="'Sylfaen'" font-size="1" kerning="0" font-weight="700" fill="#000000" clip-path="url(#SVG_CP_1)" >
				<text text-anchor="start" transform="matrix(49.92 0 0 49.9195 2157 1417.54573)" >
					<tspan direction="ltr" unicode-bidi="embed" x="0 "></tspan>
					<tspan direction="ltr" unicode-bidi="embed" x="0.73557 "></tspan>
					<tspan direction="ltr" unicode-bidi="embed" x="1.41826 "></tspan>
					<tspan direction="ltr" unicode-bidi="embed" x="1.83652 "></tspan>
					<tspan direction="ltr" unicode-bidi="embed" x="2.31969 "></tspan>
				</text>
			</g>
			<g font-family="'Sylfaen'" font-size="1" kerning="0" font-weight="700" fill="#000000" clip-path="url(#SVG_CP_1)" >
				<text text-anchor="start" transform="matrix(49.92 0 0 49.9195 1528.56 2194.17791)" >
					<tspan direction="ltr" unicode-bidi="embed" x="0 "></tspan>
					<tspan direction="ltr" unicode-bidi="embed" x="0.41827 "></tspan>
					<tspan direction="ltr" unicode-bidi="embed" x="0.90384 "></tspan>
					<tspan direction="ltr" unicode-bidi="embed" x="1.41104 "></tspan>
					<tspan direction="ltr" unicode-bidi="embed" x="2.09133 "></tspan>
					<tspan direction="ltr" unicode-bidi="embed" x="2.78843 "></tspan>
					<tspan direction="ltr" unicode-bidi="embed" x="3.72833 "></tspan>
					<tspan direction="ltr" unicode-bidi="embed" x="4.149 "></tspan>
					<tspan direction="ltr" unicode-bidi="embed" x="4.88457 "></tspan>
					<tspan direction="ltr" unicode-bidi="embed" x="5.56725 "></tspan>
				</text>
			</g>
			<g font-family="'Sylfaen'" font-size="1" kerning="0" font-weight="700" fill="#000000" clip-path="url(#SVG_CP_1)" >
				<text text-anchor="start" transform="matrix(49.92 0 0 49.9195 1191.84 2490.93493)" >
					<tspan direction="ltr" unicode-bidi="embed" x="0 "></tspan>
					<tspan direction="ltr" unicode-bidi="embed" x="0.48557 "></tspan>
					<tspan direction="ltr" unicode-bidi="embed" x="1.03605 "></tspan>
					<tspan direction="ltr" unicode-bidi="embed" x="1.49037 "></tspan>
					<tspan direction="ltr" unicode-bidi="embed" x="2.18507 "></tspan>
					<tspan direction="ltr" unicode-bidi="embed" x="2.86776 "></tspan>
					<tspan direction="ltr" unicode-bidi="embed" x="3.36535 "></tspan>
					<tspan direction="ltr" unicode-bidi="embed" x="3.85092 "></tspan>
					<tspan direction="ltr" unicode-bidi="embed" x="4.4014 "></tspan>
					<tspan direction="ltr" unicode-bidi="embed" x="4.88937 "></tspan>
					<tspan direction="ltr" unicode-bidi="embed" x="5.7211 "></tspan>
				</text>
			</g>
			<g font-family="'Sylfaen'" font-size="1" kerning="0" font-weight="700" fill="#000000" clip-path="url(#SVG_CP_1)" >
				<text text-anchor="start" transform="matrix(49.92 0 0 49.9195 1434.96 2619.45363)" >
					<tspan direction="ltr" unicode-bidi="embed" x="0 "></tspan>
					<tspan direction="ltr" unicode-bidi="embed" x="0.44711 "></tspan>
					<tspan direction="ltr" unicode-bidi="embed" x="0.93028 "></tspan>
					<tspan direction="ltr" unicode-bidi="embed" x="1.39662 "></tspan>
					<tspan direction="ltr" unicode-bidi="embed" x="2.22834 "></tspan>
					<tspan direction="ltr" unicode-bidi="embed" x="2.8942 "></tspan>
					<tspan direction="ltr" unicode-bidi="embed" x="3.70429 "></tspan>
					<tspan direction="ltr" unicode-bidi="embed" x="4.64659 "></tspan>
					<tspan direction="ltr" unicode-bidi="embed" x="5.38216 "></tspan>
					<tspan direction="ltr" unicode-bidi="embed" x="6.05763 "></tspan>
				</text>
			</g>
			<g font-family="'Sylfaen'" font-size="1" kerning="0" font-weight="700" fill="#000000" clip-path="url(#SVG_CP_1)" >
				<text text-anchor="start" transform="matrix(49.92 0 0 49.9195 546.6 1741.90247)" >
					<tspan direction="ltr" unicode-bidi="embed" x="0 "></tspan>
					<tspan direction="ltr" unicode-bidi="embed" x="0.72595 "></tspan>
					<tspan direction="ltr" unicode-bidi="embed" x="1.1923 "></tspan>
					<tspan direction="ltr" unicode-bidi="embed" x="2.02402 "></tspan>
				</text>
			</g>
			<g font-family="'Sylfaen'" font-size="1" kerning="0" font-weight="700" fill="#000000" clip-path="url(#SVG_CP_1)" >
				<text text-anchor="start" transform="matrix(49.92 0 0 49.9195 514.56 1807.7818)" >
					<tspan direction="ltr" unicode-bidi="embed" x="0 "></tspan>
					<tspan direction="ltr" unicode-bidi="embed" x="0.53605 "></tspan>
					<tspan direction="ltr" unicode-bidi="embed" x="0.99759 "></tspan>
					<tspan direction="ltr" unicode-bidi="embed" x="1.48316 "></tspan>
					<tspan direction="ltr" unicode-bidi="embed" x="2.03363 "></tspan>
					<tspan direction="ltr" unicode-bidi="embed" x="2.53363 "></tspan>
				</text>
			</g>
			<g font-family="'Sylfaen'" font-size="1" kerning="0" font-weight="700" fill="#000000" clip-path="url(#SVG_CP_1)" >
				<text text-anchor="start" transform="matrix(49.92 0 0 49.9195 551.76 1934.74052)" >
					<tspan direction="ltr" unicode-bidi="embed" x="0 "></tspan>
					<tspan direction="ltr" unicode-bidi="embed" x="0.44711 "></tspan>
					<tspan direction="ltr" unicode-bidi="embed" x="0.93028 "></tspan>
					<tspan direction="ltr" unicode-bidi="embed" x="1.39662 "></tspan>
					<tspan direction="ltr" unicode-bidi="embed" x="2.22834 "></tspan>
				</text>
			</g>
			<g font-family="'Sylfaen'" font-size="1" kerning="0" font-weight="700" fill="#000000" clip-path="url(#SVG_CP_1)" >
				<text text-anchor="start" transform="matrix(49.92 0 0 49.9195 540.9 2008.29978)" >
					<tspan direction="ltr" unicode-bidi="embed" x="0 "></tspan>
					<tspan direction="ltr" unicode-bidi="embed" x="0.53605 "></tspan>
					<tspan direction="ltr" unicode-bidi="embed" x="0.99759 "></tspan>
					<tspan direction="ltr" unicode-bidi="embed" x="1.48316 "></tspan>
					<tspan direction="ltr" unicode-bidi="embed" x="2.03363 "></tspan>
					<tspan direction="ltr" unicode-bidi="embed" x="2.53363 "></tspan>
				</text>
			</g>
		</g>
	</g>
</svg>
