<?xml version="1.0" encoding="utf-8" standalone="no"?>
<!-- Creator: Esri ArcMap 10.9.1.28388 -->
<!DOCTYPE svg PUBLIC "-//W3C//DTD SVG 1.1//EN"  "http://www.w3.org/Graphics/SVG/1.1/DTD/svg11.dtd">
<svg width="2592pt" height="3456pt" viewBox="0 0 2592 3456" enable-background="new 0 0 2592 3456"
	version="1.1" xmlns="http://www.w3.org/2000/svg" xmlns:xlink="http://www.w3.org/1999/xlink" >
	<g id="Layers">
		<g id="municipal">
			<path clip-path="url(#SVG_CP_1)" fill="#ce8d34" fill-rule="evenodd" stroke="none" d="M2353.8,632.1646L2344.2,655.68477L2324.88,665.88484
				L2315.28,683.04497L2315.76,687.605L2318.52,710.76517L2320.56,730.08531L2312.52,754.68549L2309.88,768.12558L2308.44,771.00561
				L2290.08,808.80588L2305.56,873.48635L2312.04,897.60653L2304,935.5268L2303.52,946.80688L2309.88,970.32705L2333.4,998.16726
				L2359.08,1012.08736L2379.96,1044.7276L2386.08,1059.3677L2388.6,1065.12774L2393.64,1104.48803L2396.64,1126.56819L2402.52,1148.52835
				L2399.28,1179.00857L2400.12,1181.40859L2410.56,1210.5688L2432.4,1256.64914L2437.2,1293.60941L2447.4,1318.20958L2451.12,1353.48984
				L2451.72,1369.56996L2467.32,1387.93009L2469.36,1390.45011L2472,1404.37021L2474.16,1425.25036L2458.08,1437.49045L2424.96,1439.17046
				L2391.24,1428.37038L2345.16,1425.73037L2333.4,1429.45039L2322.72,1448.17053L2301.36,1476.61074L2281.56,1499.6509L2258.16,1520.41105
				L2251.56,1526.2911L2244.96,1528.69111L2209.92,1540.8112L2209.8,1540.8112L2209.68,1540.8112L2161.08,1566.49139L2147.76,1583.05151
				L2148.84,1593.73159L2124.72,1600.21163L2120.52,1625.29182L2097.48,1660.69207L2084.88,1677.6122L2074.56,1691.5323L2074.44,1691.6523
				L2074.32,1691.8923L2064.6,1706.29241L2058.96,1714.45246L2045.04,1735.09261L2042.4,1739.17264L2011.8,1786.45299L2001.24,1802.5331
				L1996.32,1809.97316L1991.88,1820.29323L1978.68,1850.65345L1964.76,1890.73375L1953,1926.134L1931.52,1965.73429L1921.44,1983.37442
				L1941.24,2006.77459L1941.36,2006.89459L1941.36,2007.01459L1941.6,2007.13459L1942.2,2007.8546L1943.04,2008.93461L1944.96,2011.21462
				L1956.6,2023.69471L1966.68,2034.49479L1966.92,2034.73479L1974.96,2049.1349L1968.48,2057.41496L1968.36,2057.41496L1968.36,2057.53496
				L1951.32,2079.13512L1937.76,2086.09517L1928.4,2090.8952L1939.56,2105.41531L1954.08,2112.85536L1956.24,2131.5755L1955.64,2154.01566
				L1954.56,2174.89581L1965.48,2175.97582L1988.28,2178.25584L1997.4,2179.21584L2003.76,2179.81585L2011.68,2180.53585L2022.36,2181.49586
				L2030.16,2182.21587L2032.2,2182.45587L2053.08,2189.65592L2056.92,2190.97593L2063.16,2193.13594L2063.88,2193.13594L2066.64,2193.37595
				L2129.04,2197.93598L2159.04,2221.45615L2186.28,2238.61628L2186.52,2239.69628L2191.08,2259.97643L2197.56,2274.97654L2194.8,2300.17672
				L2153.88,2349.25708L2151.48,2352.0171L2153.64,2369.77723L2153.76,2369.89723L2153.76,2370.01723L2154,2371.93724L2161.08,2430.13767
				L2171.16,2461.8179L2173.2,2468.05794L2173.56,2469.13795L2179.32,2487.37808L2187.36,2524.33835L2213.52,2552.77856L2235.24,2564.77865
				L2136.24,2630.65913L2126.28,2640.3792L2107.68,2652.37928L2089.2,2669.0594L2086.92,2674.33944L2087.52,2679.85948L2084.52,2687.77954
				L2077.8,2689.21955L2069.04,2687.17954L2060.88,2689.81956L2059.2,2702.05964L2026.44,2709.6197L2000.64,2700.49963L1983.6,2693.53958
				L1967.28,2691.61957L1949.52,2692.45957L1937.28,2690.53956L1935.12,2690.29956L1924.08,2689.69955L1905.48,2694.01959L1900.08,2697.61961
				L1891.08,2703.49965L1875.12,2722.45979L1857.84,2747.89998L1839.96,2769.74014L1826.76,2789.18028L1824.36,2792.7803L1818.36,2798.54035
				L1805.64,2810.90044L1796.16,2823.26053L1782.48,2835.98062L1777.56,2854.34075L1775.64,2861.6608L1767.24,2881.70095L1754.88,2886.98099
				L1752.12,2888.181L1733.52,2883.74097L1730.28,2883.02096L1720.8,2881.34095L1693.44,2876.54091L1673.88,2874.7409L1669.08,2874.2609
				L1664.4,2873.78089L1664.28,2873.78089L1659.12,2874.2609L1657.2,2874.3809L1657.08,2874.5009L1655.16,2874.6209L1649.4,2875.1009
				L1644.96,2875.46091L1643.16,2875.58091L1632.36,2876.54091L1631.64,2876.78091L1628.04,2877.62092L1604.28,2883.86097L1597.68,2884.70097
				L1593,2885.42098L1591.2,2885.66098L1583.04,2887.10099L1578,2887.82099L1571.16,2889.74101L1569.24,2890.34101L1566.72,2891.06102
				L1562.16,2892.26103L1556.76,2893.82104L1551.48,2895.74105L1549.44,2896.46106L1541.88,2899.34108L1535.52,2901.6211L1533,2902.4611
				L1529.88,2903.42111L1523.16,2905.58112L1523.04,2905.58112L1515.96,2907.86114L1507.56,2910.50116L1497,2913.74118L1491.72,2915.4212
				L1484.76,2918.30122L1479,2920.82123L1472.52,2923.58125L1467,2925.86127L1462.92,2927.30128L1458.72,2928.74129L1458.36,2928.86129
				L1458.24,2928.98129L1451.76,2931.26131L1447.32,2934.26133L1442.64,2937.38136L1437.48,2940.86138L1431.48,2944.82141L1426.08,2948.54144
				L1421.88,2951.78146L1417.08,2955.74149L1410.36,2961.02153L1404.36,2965.82156L1402.32,2972.42161L1400.16,2979.02166L1399.92,2980.10167
				L1397.76,2986.58171L1395.48,2993.90177L1395,3001.70182L1394.64,3007.46186L1394.52,3009.62188L1395.24,3017.06193L1395.96,3024.50199
				L1396.92,3033.74206L1397.28,3037.34208L1397.64,3041.06211L1385.52,3030.38203L1364.76,3012.1419L1362.48,3010.46189L1337.88,2993.54176
				L1332.96,2992.94176L1327.32,2994.26177L1324.68,2995.94178L1321.56,2997.9818L1317.6,2998.8218L1315.08,2999.42181L1313.52,2999.78181
				L1308.24,3005.30185L1305.24,3010.22188L1300.56,3015.98193L1297.08,3026.182L1284.6,3044.66214L1281.84,3048.62216L1280.52,3050.78218
				L1273.68,3054.38221L1258.32,3062.42226L1247.04,3066.7423L1233.48,3064.58228L1218.6,3058.94224L1202.28,3053.9022L1191,3046.82215
				L1187.4,3039.02209L1178.16,3055.34221L1169.64,3065.18228L1159.8,3071.66233L1147.56,3076.82237L1134.48,3080.06239L1119.6,3084.02242
				L1112.28,3084.26242L1103.04,3086.78244L1089.24,3092.66248L1074.84,3097.22252L1054.32,3104.66257L1028.76,3079.94239L1025.16,3055.82222
				L1011.72,3033.14205L1007.28,3021.74197L1005.96,3018.26194L1004.88,3015.26192L1004.64,3014.66192L1004.52,3014.42192L1004.52,3014.30191
				L1004.4,3014.18191L1001.04,3005.42185L995.64,2992.22175L994.68,2989.82174L992.52,2984.7817L988.68,2978.30165L984.72,2971.3416
				L960.6,2940.14138L918,2916.74121L861.96,2910.98116L801.6,2917.46121L750.36,2944.2214L729.36,2943.9814L722.16,2939.78137L
				713.76,2937.38136L711.48,2933.18132L707.52,2930.78131L702.48,2928.14129L697.32,2926.10127L691.92,2922.98125L684.12,2921.78124
				L681.48,2913.26118L684.36,2908.10114L681.12,2886.62099L679.2,2865.50083L677.28,2848.70071L676.92,2828.54056L675,2813.78046
				L670.68,2801.06036L672.12,2787.14026L672.36,2787.14026L680.64,2786.54026L686.4,2787.98027L695.16,2790.74029L705.6,2793.02031
				L718.08,2795.66032L731.28,2798.42034L742.56,2798.42034L751.92,2796.50033L757.08,2794.82032L765.6,2787.98027L776.64,2775.98018
				L783.96,2765.54011L788.88,2760.14007L792.48,2748.49998L793.68,2732.53987L789.72,2715.01974L783.72,2704.21966L779.16,2694.37959
				L777.72,2691.37957L770.04,2676.13946L756.72,2662.45936L754.44,2660.17934L754.2,2659.93934L743.16,2651.41928L734.88,2639.17919
				L731.52,2630.53912L728.64,2622.97907L722.16,2603.65893L719.28,2589.49883L714.48,2581.21877L712.8,2578.33874L708.72,2571.37869
				L688.32,2550.01854L676.32,2537.89845L669.6,2531.0584L657.12,2515.33829L656.52,2514.49828L651.48,2504.89821L643.92,2498.53816
				L638.4,2493.85813L625.68,2484.25806L625.56,2484.13806L625.44,2484.13806L615.96,2476.218L606.24,2467.45794L597.72,2457.01786
				L584.16,2445.73778L565.8,2430.85767L557.28,2421.61761L547.32,2407.3375L530.04,2396.29742L521.76,2391.01738L496.2,2386.09735
				L474.96,2373.97726L469.56,2370.13723L469.44,2370.13723L469.44,2370.01723L454.32,2359.09715L431.64,2353.45711L406.8,2352.0171
				L371.28,2349.13708L366.24,2347.33707L366,2347.21706L365.88,2347.21706L347.88,2340.61702L347.04,2340.37702L347.04,2333.29696
				L330.6,2325.1369L302.04,2316.97684L277.44,2308.81679L248.76,2292.37667L236.88,2282.17659L227.52,2274.13653L227.4,2274.13653
				L227.28,2274.01653L220.2,2267.89649L208.68,2263.21645L203.88,2261.29644L197.52,2265.13647L181.2,2256.97641L156.6,2252.77638
				L150.6,2255.5364L140.16,2246.41633L139.8,2246.17633L139.32,2245.81633L124.92,2233.09624L117.84,2226.97619L124.2,2216.77612
				L129,2205.61604L132,2193.49595L132.24,2192.41594L133.32,2187.85591L133.32,2172.6158L133.32,2167.81576L133.32,2167.21576L
				133.32,2165.17574L133.08,2152.57565L133.08,2152.45565L133.08,2152.21565L132.84,2142.25557L132.96,2142.25557L146.28,2133.13551
				L153.12,2132.4155L153.12,2132.1755L153.24,2132.1755L158.4,2131.5755L160.56,2130.85549L160.92,2130.61549L163.2,2129.77548
				L174,2125.57545L183.48,2114.65537L184.32,2113.69537L185.28,2112.61536L185.28,2100.97527L185.28,2100.13527L185.64,2084.53516
				L187.56,2064.61501L186.72,2057.17496L192,2050.33491L199.44,2038.81482L207.6,2039.05482L215.28,2040.37483L236.16,2036.0548
				L245.16,2032.09477L252,2029.09475L258.84,2027.29474L262.8,2026.09473L264.36,2028.73475L265.32,2030.17476L268.68,2036.1748
				L271.44,2038.21482L273.96,2039.89483L278.76,2040.25483L281.52,2040.37483L283.44,2040.49483L288.72,2040.01483L291.48,2040.85484
				L296.28,2046.25488L300.84,2048.7749L304.8,2049.7349L311.52,2047.69489L314.88,2044.57486L317.64,2040.37483L319.68,2038.81482
				L324.12,2037.37481L328.44,2036.41481L331.8,2035.6948L338.16,2035.6948L340.56,2035.9348L344.04,2036.89481L344.88,2037.13481
				L349.44,2039.53483L350.76,2040.13483L351.72,2040.13483L357,2039.65483L361.92,2036.89481L362.88,2036.41481L365.52,2034.85479
				L368.76,2034.73479L372.96,2034.73479L373.32,2034.97479L375.48,2036.53481L375.96,2036.89481L380.88,2035.0948L385.08,2031.49477
				L389.76,2026.81474L393.36,2025.37472L398.28,2023.93471L399.72,2024.41472L399.96,2024.41472L400.2,2024.53472L400.68,2024.65472
				L400.8,2024.65472L400.92,2024.65472L401.04,2024.65472L401.16,2024.77472L401.88,2024.89472L403.32,2025.13472L405.96,2026.45473
				L409.56,2026.69473L410.28,2026.93474L412.08,2027.65474L416.16,2028.13475L419.28,2028.01474L420.72,2027.89474L424.8,2023.57471
				L429.6,2018.41467L429.84,2018.17467L432.72,2017.09466L433.2,2016.85466L436.2,2009.53461L436.44,2009.53461L438.24,2009.77461
				L438.72,2009.77461L439.56,2009.77461L445.32,2009.29461L445.8,2009.29461L445.8,2009.17461L445.8,2008.93461L446.52,2008.8146
				L447.48,2008.6946L454.2,2004.85458L456.6,2002.69456L456.84,2002.57456L457.56,2002.33456L457.68,2002.33456L458.64,2001.73455
				L458.76,2001.37455L459.12,2000.65455L459.24,2000.05454L459.6,1999.69454L461.16,1998.13453L466.68,1991.89448L466.92,1991.65448
				L467.64,1990.93447L468.12,1990.57447L468.24,1990.45447L472.32,1989.85447L472.44,1989.73447L476.4,1987.81445L476.16,1987.21445
				L474.84,1984.57443L474.36,1983.25442L474,1982.53441L472.92,1980.2544L478.92,1976.77437L489.24,1971.61433L494.4,1969.45432
				L494.76,1969.33432L497.52,1968.49431L498.48,1968.13431L501.6,1968.25431L501.48,1968.01431L501.48,1967.77431L501.36,1966.6943
				L503.28,1950.85418L500.04,1943.89413L496.56,1936.21408L491.76,1915.57393L491.28,1913.53391L487.08,1894.09377L484.56,1888.09373
				L480.36,1878.61366L479.04,1875.61364L478.92,1873.69362L478.92,1869.37359L478.8,1868.17358L478.68,1860.01352L471.24,1853.17347
				L469.68,1851.97346L464.04,1847.41343L464.04,1846.81343L463.92,1846.69343L463.92,1846.57343L463.92,1846.45342L462.48,1838.29336
				L465.12,1829.8933L464.88,1824.13326L464.76,1817.53321L469.68,1807.81314L473.04,1801.09309L470.52,1794.25304L466.56,1783.33297
				L467.16,1774.4529L471.84,1773.25289L479.16,1771.21288L487.2,1769.17286L487.8,1768.93286L489.24,1768.33286L501.96,1763.17282
				L507.24,1754.89276L515.88,1741.09266L516,1740.85266L517.92,1737.85263L518.4,1732.21259L518.64,1728.73257L518.76,1727.17256
				L518.88,1724.77254L519.36,1719.0125L519.48,1717.81249L519.48,1717.33249L519.72,1714.21246L519.96,1712.77245L523.8,1690.57229
				L540.36,1669.81214L540.96,1660.45207L545.16,1646.17197L523.32,1584.73152L502.2,1554.2513L516.84,1548.85126L541.44,1539.61119
				L557.4,1524.25108L561.72,1505.65095L571.08,1490.41084L587.28,1483.45079L613.56,1482.13078L633.24,1480.09076L643.8,1474.09072
				L653.16,1466.41066L657.48,1444.5705L673.8,1431.25041L681.6,1421.65034L705,1392.97013L727.56,1371.36997L743.16,1364.04992
				L759.48,1356.12986L768.84,1352.16983L776.16,1344.48977L785.76,1326.84965L796.08,1307.2895L800.04,1296.60943L795.36,1285.92935
				L790.44,1272.72925L785.4,1251.1291L788.4,1243.80904L800.4,1240.80902L815.4,1236.12899L834.6,1236.48899L837.36,1237.20899
				L855.6,1242.12903L875.16,1240.80902L898.44,1248.12907L930,1254.12912L934.8,1258.32915L939.36,1262.40918L957.6,1269.72923
				L959.04,1269.48923L959.52,1268.88923L959.64,1268.64922L960.12,1268.28922L960.12,1268.16922L960.24,1268.16922L960.36,1268.16922
				L960.72,1267.92922L960.84,1267.92922L961.8,1267.80922L962.04,1267.80922L962.16,1267.80922L963.12,1267.92922L963.96,1267.80922
				L965.04,1267.68922L965.16,1267.68922L966.36,1267.44921L966.6,1267.44921L967.56,1267.44921L968.04,1267.56922L968.88,1267.32921
				L969.6,1266.96921L969.72,1266.84921L969.84,1266.84921L970.68,1266.36921L971.04,1266.24921L972.12,1265.8892L972.84,1265.6492
				L974.28,1265.5292L974.52,1265.5292L975.36,1265.5292L975.48,1265.5292L975.84,1265.6492L976.08,1265.6492L976.8,1265.7692L976.92,1265.8892
				L977.88,1266.24921L978.36,1266.36921L978.48,1266.36921L979.08,1266.24921L979.32,1266.24921L979.68,1266.12921L980.16,1266.0092
				L980.4,1265.7692L980.52,1265.7692L980.76,1265.7692L981.12,1265.7692L981.48,1265.7692L981.72,1265.7692L981.84,1265.6492L982.56,1265.0492
				L982.68,1265.0492L982.8,1264.9292L983.04,1264.8092L983.04,1264.68919L983.4,1264.56919L984.24,1264.08919L984.84,1263.60919
				L984.96,1263.48919L985.08,1263.36919L985.68,1263.00918L985.92,1262.88918L986.52,1262.52918L987.12,1262.16918L987.96,1261.68917
				L988.32,1261.44917L988.44,1261.32917L988.68,1261.08917L988.8,1260.60917L989.04,1260.24916L989.28,1260.12916L989.4,1260.00916
				L989.64,1259.64916L989.64,1259.52916L989.88,1259.28916L989.88,1259.16915L990.24,1258.92915L990.36,1258.92915L990.84,1258.68915
				L990.96,1258.68915L991.08,1258.68915L991.2,1258.68915L991.32,1258.68915L991.8,1258.80915L992.16,1258.68915L992.64,1258.56915
				L993.72,1258.32915L993.96,1258.20915L993.96,1258.08915L994.44,1257.84915L995.4,1257.24914L995.76,1256.88914L996.24,1256.64914
				L996.36,1256.52914L997.44,1255.92913L997.56,1255.92913L997.8,1255.68913L998.04,1255.44913L998.52,1254.96912L998.64,1254.84912
				L999.12,1254.36912L999.36,1254.00912L999.6,1253.64911L999.84,1253.40911L999.96,1253.16911L1000.08,1253.16911L1000.44,1252.56911
				L1001.04,1252.0891L1001.4,1251.8491L1002.36,1251.2491L1002.72,1251.0091L1003.32,1250.52909L1003.68,1250.16909L1004.16,1249.80909
				L1004.28,1249.80909L1004.4,1249.80909L1004.64,1249.68909L1005.12,1249.56908L1005.36,1249.56908L1005.72,1249.56908L1006.32,1249.44908
				L1007.4,1249.32908L1007.88,1249.20908L1008.24,1249.20908L1008.36,1249.20908L1008.84,1249.20908L1010.28,1249.32908L1010.76,1249.32908
				L1011.12,1249.44908L1011.36,1249.44908L1012.08,1249.68909L1013.04,1250.04909L1013.4,1250.16909L1013.52,1250.16909L1014,1250.16909
				L1014.24,1250.28909L1014.6,1250.28909L1015.08,1250.28909L1015.2,1250.16909L1015.68,1250.16909L1016.28,1249.92909L1016.76,1249.56908
				L1016.88,1249.44908L1017.6,1248.96908L1018.08,1248.60908L1018.8,1248.36908L1019.04,1248.12907L1019.04,1248.00907L1019.04,1247.88907
				L1019.04,1247.64907L1019.16,1247.40907L1019.16,1247.28907L1019.28,1247.04907L1019.4,1247.04907L1019.76,1246.68906L1019.88,1246.68906
				L1020.6,1246.44906L1021.8,1246.44906L1022.16,1246.44906L1023.24,1246.44906L1024.32,1246.32906L1024.92,1246.32906L1025.28,1246.32906
				L1025.4,1246.32906L1025.64,1246.32906L1026,1246.32906L1026.48,1246.20906L1026.96,1245.84906L1027.44,1245.60906L1027.8,1245.60906
				L1027.92,1245.60906L1028.16,1245.60906L1028.4,1245.60906L1028.64,1245.48906L1028.88,1245.48906L1029.24,1245.36905L1029.84,1245.12905
				L1030.08,1245.12905L1030.32,1245.00905L1031.28,1244.64905L1032.12,1244.40905L1032.84,1244.04904L1032.96,1243.80904L1033.56,1243.56904
				L1034.16,1243.08904L1034.4,1242.96904L1035.72,1242.00903L1036.68,1241.16902L1037.76,1240.20902L1037.88,1240.08902L1038.48,1239.60901
				L1038.6,1239.48901L1039.2,1239.36901L1040.04,1239.00901L1040.76,1238.64901L1041,1238.409L1041.36,1238.289L1041.72,1237.929
				L1041.84,1237.929L1042.2,1237.689L1042.56,1237.569L1043.16,1237.329L1043.88,1237.329L1044.48,1237.20899L1044.72,1237.20899
				L1044.84,1237.20899L1045.8,1237.08899L1046.52,1237.08899L1047.6,1236.72899L1047.72,1236.60899L1048.44,1236.24899L1048.56,1236.24899
				L1049.4,1235.88899L1050.36,1235.76898L1051.32,1235.52898L1052.04,1235.40898L1052.88,1235.28898L1052.88,1235.40898L1053.36,1235.40898
				L1054.2,1235.52898L1054.32,1235.52898L1054.68,1235.64898L1055.16,1235.88899L1055.64,1236.00899L1055.88,1236.00899L1056.12,1236.00899
				L1056.72,1235.88899L1057.2,1235.88899L1057.92,1235.52898L1058.88,1234.92898L1059.12,1234.80898L1059.6,1234.44897L1059.84,1234.32897
				L1060.68,1233.96897L1060.92,1233.96897L1061.64,1233.72897L1062.12,1233.60897L1062.24,1233.48897L1062.48,1233.48897L1063.2,1233.24897
				L1064.76,1233.00896L1065.24,1233.00896L1065.48,1233.00896L1065.6,1233.00896L1065.96,1232.88896L1066.32,1232.76896L1066.44,1232.52896
				L1066.56,1232.52896L1066.8,1232.52896L1067.04,1232.40896L1067.28,1232.40896L1067.64,1232.40896L1067.88,1232.52896L1068.24,1232.52896
				L1068.6,1232.40896L1068.96,1232.28896L1069.2,1232.16896L1069.32,1232.04896L1069.44,1231.80896L1069.8,1231.32895L1069.92,1231.20895
				L1070.28,1230.96895L1070.64,1230.72895L1071.12,1230.48895L1071.36,1230.36895L1071.6,1230.36895L1072.08,1230.36895L1072.44,1230.48895
				L1072.68,1230.48895L1072.8,1230.24894L1073.04,1230.12894L1073.04,1230.00894L1073.28,1230.00894L1073.52,1230.00894L1073.88,1229.76894
				L1073.88,1229.64894L1074.12,1229.52894L1074.24,1229.40894L1074.36,1229.28894L1074.36,1229.16894L1074.48,1229.04894L1074.6,1228.92893
				L1074.84,1228.80893L1075.2,1228.44893L1075.32,1228.32893L1075.44,1228.20893L1075.68,1228.20893L1075.68,1228.08893L1076.28,1227.84893
				L1076.76,1227.48892L1077.6,1227.12892L1077.84,1227.00892L1078.2,1226.76892L1078.56,1226.52892L1078.8,1226.40892L1078.92,1226.40892
				L1079.04,1226.40892L1079.52,1226.16891L1080.12,1225.68891L1080.24,1225.56891L1080.36,1225.32891L1080.48,1225.20891L1080.84,1224.96891
				L1081.32,1224.6089L1081.56,1224.4889L1081.92,1224.3689L1082.4,1224.4889L1082.4,1224.3689L1082.52,1224.3689L1082.76,1224.2489
				L1083.12,1224.0089L1083.24,1224.0089L1083.48,1223.8889L1083.84,1223.8889L1084.56,1224.0089L1085.04,1224.0089L1085.16,1224.0089
				L1085.52,1224.1289L1085.64,1224.1289L1085.88,1224.1289L1086,1224.2489L1086.36,1224.2489L1086.72,1224.2489L1086.96,1224.1289
				L1087.32,1224.1289L1087.68,1224.2489L1088.04,1224.2489L1088.64,1224.0089L1089,1224.0089L1089.24,1224.0089L1089.6,1224.1289
				L1089.72,1224.1289L1089.96,1224.1289L1090.2,1224.1289L1090.56,1224.3689L1090.8,1224.4889L1090.92,1224.6089L1091.04,1224.6089
				L1091.16,1224.6089L1091.52,1224.7289L1091.76,1224.7289L1091.88,1224.84891L1092.12,1224.84891L1092.36,1224.96891L1092.6,1225.08891
				L1092.84,1225.08891L1093.44,1225.32891L1093.68,1225.44891L1093.92,1225.56891L1094.4,1225.56891L1094.52,1225.56891L1094.64,1225.44891
				L1094.88,1225.44891L1095,1225.44891L1095.12,1225.44891L1095.36,1225.56891L1095.6,1225.44891L1095.6,1225.20891L1095.72,1224.84891
				L1095.96,1224.6089L1096.08,1224.7289L1096.2,1224.7289L1096.44,1224.7289L1096.44,1224.96891L1096.44,1225.08891L1096.68,1224.96891
				L1096.8,1224.7289L1097.04,1224.6089L1097.4,1224.4889L1097.52,1224.3689L1097.64,1224.1289L1097.88,1223.8889L1098.12,1223.7689
				L1098.24,1223.6489L1098.36,1223.40889L1098.48,1223.16889L1098.72,1222.80889L1098.84,1222.68889L1099.08,1222.68889L1099.2,1222.68889
				L1099.32,1222.80889L1099.32,1222.92889L1099.44,1223.16889L1099.56,1223.40889L1099.68,1223.6489L1099.8,1223.6489L1099.92,1223.7689
				L1100.16,1223.8889L1100.4,1224.0089L1100.64,1224.2489L1100.88,1224.3689L1100.88,1224.4889L1100.88,1224.6089L1100.88,1224.7289
				L1100.88,1224.84891L1100.88,1224.96891L1101.12,1225.08891L1101.36,1225.08891L1101.72,1224.96891L1102.08,1224.84891L1102.32,1224.84891
				L1102.56,1224.96891L1102.8,1224.96891L1103.28,1224.96891L1103.52,1224.96891L1104,1225.20891L1104.36,1225.32891L1104.72,1225.44891
				L1104.96,1225.56891L1105.08,1225.56891L1105.32,1225.56891L1105.44,1225.56891L1105.68,1225.68891L1105.92,1225.56891L1106.28,1225.68891
				L1106.52,1225.56891L1106.76,1225.56891L1107.12,1225.68891L1107.36,1225.56891L1107.48,1225.56891L1107.6,1225.56891L1108.2,1225.56891
				L1108.32,1225.56891L1108.56,1225.68891L1108.68,1225.68891L1108.8,1225.80891L1109.04,1225.80891L1109.28,1225.92891L1109.64,1225.80891
				L1109.88,1225.80891L1110.36,1225.68891L1110.48,1225.56891L1111.08,1225.56891L1111.56,1225.44891L1111.8,1225.44891L1111.92,1225.44891
				L1112.16,1225.56891L1112.52,1225.68891L1112.76,1225.80891L1113.12,1225.80891L1113.84,1225.68891L1114.08,1225.68891L1114.44,1225.68891
				L1114.68,1225.68891L1114.8,1225.68891L1115.04,1225.56891L1115.52,1225.44891L1115.76,1225.32891L1116.12,1225.20891L1116.36,1225.20891
				L1116.72,1225.20891L1117.2,1225.20891L1117.56,1224.96891L1118.04,1224.7289L1118.4,1224.4889L1118.64,1224.4889L1119,1224.3689
				L1119.36,1224.3689L1119.84,1224.1289L1120.32,1224.1289L1120.56,1224.0089L1120.92,1223.8889L1121.04,1223.8889L1121.4,1223.8889
				L1121.88,1223.7689L1122.24,1223.7689L1122.48,1223.7689L1122.6,1223.7689L1122.84,1223.6489L1123.08,1223.5289L1123.2,1223.5289
				L1123.44,1223.5289L1123.8,1223.40889L1124.04,1223.40889L1124.28,1223.28889L1124.64,1223.16889L1125,1223.16889L1125.24,1223.28889
				L1125.36,1223.28889L1125.6,1223.16889L1125.72,1223.04889L1125.84,1222.80889L1125.96,1222.68889L1126.08,1222.56889L1126.32,1222.56889
				L1126.56,1222.56889L1126.68,1222.68889L1127.04,1222.80889L1127.28,1222.92889L1127.4,1222.92889L1127.52,1222.80889L1127.76,1222.44889
				L1127.76,1222.20889L1127.88,1222.08889L1128,1221.96888L1128.36,1222.08889L1128.6,1222.08889L1128.72,1222.08889L1128.84,1221.96888
				L1129.08,1222.08889L1129.2,1222.20889L1129.44,1222.20889L1129.56,1222.08889L1129.68,1221.96888L1129.8,1221.72888L1129.92,1221.48888
				L1130.04,1221.24888L1130.16,1221.12888L1130.4,1221.00888L1130.64,1221.00888L1130.88,1221.12888L1131,1221.24888L1131.12,1221.48888
				L1131.24,1221.48888L1131.36,1221.36888L1131.36,1221.12888L1131.48,1221.00888L1131.6,1220.88888L1131.72,1221.00888L1131.96,1221.12888
				L1132.08,1221.24888L1132.2,1221.12888L1132.2,1220.88888L1132.32,1220.76888L1132.44,1220.64887L1132.68,1220.76888L1132.8,1220.88888
				L1133.04,1221.00888L1133.4,1221.00888L1133.4,1220.88888L1133.52,1220.76888L1133.52,1220.52887L1133.76,1220.52887L1134,1220.52887
				L1134.24,1220.64887L1134.48,1220.64887L1134.48,1220.52887L1134.48,1220.40887L1134.36,1220.16887L1134.48,1219.92887L1134.48,1219.80887
				L1134.6,1219.68887L1134.84,1219.68887L1134.96,1219.80887L1135.08,1219.92887L1135.2,1219.92887L1135.32,1219.92887L1135.32,1219.80887
				L1135.32,1219.68887L1135.32,1219.32887L1135.32,1219.08886L1135.44,1218.96886L1135.56,1218.72886L1135.68,1218.72886L1135.92,1218.84886
				L1136.16,1218.96886L1136.28,1218.84886L1136.28,1218.72886L1136.4,1218.36886L1136.4,1218.24886L1136.52,1218.00886L1136.64,1217.76885
				L1136.76,1217.52885L1136.88,1217.40885L1137,1217.28885L1137.12,1217.16885L1137.36,1217.04885L1137.6,1216.92885L1137.84,1216.92885
				L1138.2,1217.04885L1138.56,1217.16885L1139.04,1217.28885L1139.04,1217.40885L1139.4,1217.40885L1139.88,1217.40885L1140.12,1217.40885
				L1140.48,1217.40885L1140.84,1217.28885L1141.2,1217.16885L1141.32,1217.16885L1141.68,1217.16885L1141.92,1217.16885L1142.4,1217.04885
				L1142.64,1216.80885L1142.88,1216.68885L1143.24,1216.56884L1143.6,1216.56884L1144.08,1216.56884L1144.32,1216.68885L1144.56,1216.56884
				L1144.8,1216.44884L1145.04,1216.20884L1145.4,1216.32884L1145.52,1216.44884L1145.64,1216.44884L1145.88,1216.32884L1145.88,1216.20884
				L1145.88,1215.96884L1146,1215.84884L1146.12,1215.72884L1146.48,1215.84884L1147.2,1215.00883L1147.68,1215.00883L1150.32,1208.88879
				L1156.08,1196.2887L1161.36,1185.96862L1169.28,1170.36851L1174.32,1161.72845L1175.28,1155.4884L1179,1133.40824L1185.24,1128.72821
				L1199.28,1098.84799L1199.52,1092.84795L1201.92,1090.92793L1208.16,1085.28789L1210.32,1084.44788L1217.52,1081.92787L1225.2,1077.96784
				L1235.76,1068.96777L1247.76,1066.32775L1260.72,1059.96771L1271.64,1052.76765L1297.92,1050.84764L1298.16,1050.84764L1320.84,1049.16763
				L1321.08,1049.16763L1324.68,1048.80763L1324.92,1048.80763L1325.76,1048.80763L1325.88,1048.80763L1327.32,1048.68762L1327.56,1048.68762
				L1329.12,1048.56762L1329.48,1048.56762L1361.88,1046.16761L1362.12,1046.16761L1373.4,1045.3276L1373.64,1045.3276L1417.8,1042.08758
				L1437.48,1044.24759L1437.6,1044.24759L1452.48,1040.28756L1461.6,1032.84751L1461.72,1032.84751L1462.92,1033.92752L1477.44,1046.40761
				L1484.88,1059.96771L1490.64,1067.40776L1508.52,1081.92787L1528.32,1089.84792L1544.04,1092.00794L1553.28,1090.20793L1569.96,1081.44786
				L1590.96,1075.32782L1602.36,1066.08775L1607.64,1049.04763L1612.8,1030.20749L1619.88,1014.00737L1636.08,1007.04732L1643.04,994.68723
				L1638.24,984.24716L1633.44,975.48709L1624.2,959.40698L1618.08,946.68688L1609.08,938.16682L1592.64,915.96666L1591.08,908.2866
				L1588.8,897.12652L1594.8,889.80647L1600.68,882.48642L1607.28,870.72633L1627.44,857.04623L1636.92,857.04623L1647.24,816.60594
				L1658.64,798.60581L1677.96,770.4056L1688.76,748.68544L1696.8,727.92529L1697.28,712.80518L1688.76,693.96505L1691.64,684.60498
				L1701.48,668.04486L1713.24,652.92475L1722.24,648.24471L1736.4,642.12467L1741.56,630.84459L1774.08,628.44457L1796.76,629.40458
				L1806.6,630.84459L1825.92,638.40464L1849.56,654.36476L1864.56,654.84476L1888.68,648.72472L1907.52,648.24471L1915.92,647.76471
				L1929.6,629.88458L1941.84,625.20455L1954.68,616.20448L1964.52,608.64443L1978.2,603.00438L1986.72,593.64432L1990.8,587.88427
				L2006.16,586.56426L2011.68,594.96433L2018.28,603.96439L2020.56,618.6045L2024.4,630.84459L2030.04,637.44463L2044.68,629.88458
				L2058.36,617.16449L2067.24,605.4044L2075.28,585.60426L2081.88,567.60413L2102.16,548.28399L2122.92,531.36386L2156.88,515.76375
				L2180.4,502.08365L2185.08,497.16361L2193.6,488.04355L2211.96,468.2434L2213.28,465.60339L2220.48,451.68328L2224.68,432.84315
				L2229.96,407.40296L2245.44,389.04283L2253.48,383.40279L2269.44,367.32267L2270.4,351.36255L2298.72,366.24266L2329.68,391.32285
				L2348.4,408.96297L2358.6,445.92324L2378.4,464.64338L2381.88,471.48343L2389.68,486.60354L2403.6,504.24367L2400.36,519.72378
				L2388,542.76395L2378.88,558.36406L2382.12,579.72422L2378.88,599.52436L2353.8,632.1646z"/>
			<path clip-path="url(#SVG_CP_1)" fill="none" stroke="#000000" stroke-width="3.96" stroke-miterlimit="10" stroke-linecap="round" stroke-linejoin="round" d="
				M2353.8,632.1646L2344.2,655.68477L2324.88,665.88484L2315.28,683.04497L2315.76,687.605L2318.52,710.76517L2320.56,730.08531
				L2312.52,754.68549L2309.88,768.12558L2308.44,771.00561L2290.08,808.80588L2305.56,873.48635L2312.04,897.60653L2304,935.5268
				L2303.52,946.80688L2309.88,970.32705L2333.4,998.16726L2359.08,1012.08736L2379.96,1044.7276L2386.08,1059.3677L2388.6,1065.12774
				L2393.64,1104.48803L2396.64,1126.56819L2402.52,1148.52835L2399.28,1179.00857L2400.12,1181.40859L2410.56,1210.5688L2432.4,1256.64914
				L2437.2,1293.60941L2447.4,1318.20958L2451.12,1353.48984L2451.72,1369.56996L2467.32,1387.93009L2469.36,1390.45011L2472,1404.37021
				L2474.16,1425.25036L2458.08,1437.49045L2424.96,1439.17046L2391.24,1428.37038L2345.16,1425.73037L2333.4,1429.45039L2322.72,1448.17053
				L2301.36,1476.61074L2281.56,1499.6509L2258.16,1520.41105L2251.56,1526.2911L2244.96,1528.69111L2209.92,1540.8112L2209.8,1540.8112
				L2209.68,1540.8112L2161.08,1566.49139L2147.76,1583.05151L2148.84,1593.73159L2124.72,1600.21163L2120.52,1625.29182L2097.48,1660.69207
				L2084.88,1677.6122L2074.56,1691.5323L2074.44,1691.6523L2074.32,1691.8923L2064.6,1706.29241L2058.96,1714.45246L2045.04,1735.09261
				L2042.4,1739.17264L2011.8,1786.45299L2001.24,1802.5331L1996.32,1809.97316L1991.88,1820.29323L1978.68,1850.65345L1964.76,1890.73375
				L1953,1926.134L1931.52,1965.73429L1921.44,1983.37442L1941.24,2006.77459L1941.36,2006.89459L1941.36,2007.01459L1941.6,2007.13459
				L1942.2,2007.8546L1943.04,2008.93461L1944.96,2011.21462L1956.6,2023.69471L1966.68,2034.49479L1966.92,2034.73479L1974.96,2049.1349
				L1968.48,2057.41496L1968.36,2057.41496L1968.36,2057.53496L1951.32,2079.13512L1937.76,2086.09517L1928.4,2090.8952L1939.56,2105.41531
				L1954.08,2112.85536L1956.24,2131.5755L1955.64,2154.01566L1954.56,2174.89581L1965.48,2175.97582L1988.28,2178.25584L1997.4,2179.21584
				L2003.76,2179.81585L2011.68,2180.53585L2022.36,2181.49586L2030.16,2182.21587L2032.2,2182.45587L2053.08,2189.65592L2056.92,2190.97593
				L2063.16,2193.13594L2063.88,2193.13594L2066.64,2193.37595L2129.04,2197.93598L2159.04,2221.45615L2186.28,2238.61628L2186.52,2239.69628
				L2191.08,2259.97643L2197.56,2274.97654L2194.8,2300.17672L2153.88,2349.25708L2151.48,2352.0171L2153.64,2369.77723L2153.76,2369.89723
				L2153.76,2370.01723L2154,2371.93724L2161.08,2430.13767L2171.16,2461.8179L2173.2,2468.05794L2173.56,2469.13795L2179.32,2487.37808
				L2187.36,2524.33835L2213.52,2552.77856L2235.24,2564.77865L2136.24,2630.65913L2126.28,2640.3792L2107.68,2652.37928L2089.2,2669.0594
				L2086.92,2674.33944L2087.52,2679.85948L2084.52,2687.77954L2077.8,2689.21955L2069.04,2687.17954L2060.88,2689.81956L2059.2,2702.05964
				L2026.44,2709.6197L2000.64,2700.49963L1983.6,2693.53958L1967.28,2691.61957L1949.52,2692.45957L1937.28,2690.53956L1935.12,2690.29956
				L1924.08,2689.69955L1905.48,2694.01959L1900.08,2697.61961L1891.08,2703.49965L1875.12,2722.45979L1857.84,2747.89998L1839.96,2769.74014
				L1826.76,2789.18028L1824.36,2792.7803L1818.36,2798.54035L1805.64,2810.90044L1796.16,2823.26053L1782.48,2835.98062L1777.56,2854.34075
				L1775.64,2861.6608L1767.24,2881.70095L1754.88,2886.98099L1752.12,2888.181L1733.52,2883.74097L1730.28,2883.02096L1720.8,2881.34095
				L1693.44,2876.54091L1673.88,2874.7409L1669.08,2874.2609L1664.4,2873.78089L1664.28,2873.78089L1659.12,2874.2609L1657.2,2874.3809
				L1657.08,2874.5009L1655.16,2874.6209L1649.4,2875.1009L1644.96,2875.46091L1643.16,2875.58091L1632.36,2876.54091L1631.64,2876.78091
				L1628.04,2877.62092L1604.28,2883.86097L1597.68,2884.70097L1593,2885.42098L1591.2,2885.66098L1583.04,2887.10099L1578,2887.82099
				L1571.16,2889.74101L1569.24,2890.34101L1566.72,2891.06102L1562.16,2892.26103L1556.76,2893.82104L1551.48,2895.74105L1549.44,2896.46106
				L1541.88,2899.34108L1535.52,2901.6211L1533,2902.4611L1529.88,2903.42111L1523.16,2905.58112L1523.04,2905.58112L1515.96,2907.86114
				L1507.56,2910.50116L1497,2913.74118L1491.72,2915.4212L1484.76,2918.30122L1479,2920.82123L1472.52,2923.58125L1467,2925.86127
				L1462.92,2927.30128L1458.72,2928.74129L1458.36,2928.86129L1458.24,2928.98129L1451.76,2931.26131L1447.32,2934.26133L1442.64,2937.38136
				L1437.48,2940.86138L1431.48,2944.82141L1426.08,2948.54144L1421.88,2951.78146L1417.08,2955.74149L1410.36,2961.02153L1404.36,2965.82156
				L1402.32,2972.42161L1400.16,2979.02166L1399.92,2980.10167L1397.76,2986.58171L1395.48,2993.90177L1395,3001.70182L1394.64,3007.46186
				L1394.52,3009.62188L1395.24,3017.06193L1395.96,3024.50199L1396.92,3033.74206L1397.28,3037.34208L1397.64,3041.06211L1385.52,3030.38203
				L1364.76,3012.1419L1362.48,3010.46189L1337.88,2993.54176L1332.96,2992.94176L1327.32,2994.26177L1324.68,2995.94178L1321.56,2997.9818
				L1317.6,2998.8218L1315.08,2999.42181L1313.52,2999.78181L1308.24,3005.30185L1305.24,3010.22188L1300.56,3015.98193L1297.08,3026.182
				L1284.6,3044.66214L1281.84,3048.62216L1280.52,3050.78218L1273.68,3054.38221L1258.32,3062.42226L1247.04,3066.7423L1233.48,3064.58228
				L1218.6,3058.94224L1202.28,3053.9022L1191,3046.82215L1187.4,3039.02209L1178.16,3055.34221L1169.64,3065.18228L1159.8,3071.66233
				L1147.56,3076.82237L1134.48,3080.06239L1119.6,3084.02242L1112.28,3084.26242L1103.04,3086.78244L1089.24,3092.66248L1074.84,3097.22252
				L1054.32,3104.66257L1028.76,3079.94239L1025.16,3055.82222L1011.72,3033.14205L1007.28,3021.74197L1005.96,3018.26194L1004.88,3015.26192
				L1004.64,3014.66192L1004.52,3014.42192L1004.52,3014.30191L1004.4,3014.18191L1001.04,3005.42185L995.64,2992.22175L994.68,2989.82174
				L992.52,2984.7817L988.68,2978.30165L984.72,2971.3416L960.6,2940.14138L918,2916.74121L861.96,2910.98116L801.6,2917.46121L
				750.36,2944.2214L729.36,2943.9814L722.16,2939.78137L713.76,2937.38136L711.48,2933.18132L707.52,2930.78131L702.48,2928.14129
				L697.32,2926.10127L691.92,2922.98125L684.12,2921.78124L681.48,2913.26118L684.36,2908.10114L681.12,2886.62099L679.2,2865.50083
				L677.28,2848.70071L676.92,2828.54056L675,2813.78046L670.68,2801.06036L672.12,2787.14026L672.36,2787.14026L680.64,2786.54026
				L686.4,2787.98027L695.16,2790.74029L705.6,2793.02031L718.08,2795.66032L731.28,2798.42034L742.56,2798.42034L751.92,2796.50033
				L757.08,2794.82032L765.6,2787.98027L776.64,2775.98018L783.96,2765.54011L788.88,2760.14007L792.48,2748.49998L793.68,2732.53987
				L789.72,2715.01974L783.72,2704.21966L779.16,2694.37959L777.72,2691.37957L770.04,2676.13946L756.72,2662.45936L754.44,2660.17934
				L754.2,2659.93934L743.16,2651.41928L734.88,2639.17919L731.52,2630.53912L728.64,2622.97907L722.16,2603.65893L719.28,2589.49883
				L714.48,2581.21877L712.8,2578.33874L708.72,2571.37869L688.32,2550.01854L676.32,2537.89845L669.6,2531.0584L657.12,2515.33829
				L656.52,2514.49828L651.48,2504.89821L643.92,2498.53816L638.4,2493.85813L625.68,2484.25806L625.56,2484.13806L625.44,2484.13806
				L615.96,2476.218L606.24,2467.45794L597.72,2457.01786L584.16,2445.73778L565.8,2430.85767L557.28,2421.61761L547.32,2407.3375
				L530.04,2396.29742L521.76,2391.01738L496.2,2386.09735L474.96,2373.97726L469.56,2370.13723L469.44,2370.13723L469.44,2370.01723
				L454.32,2359.09715L431.64,2353.45711L406.8,2352.0171L371.28,2349.13708L366.24,2347.33707L366,2347.21706L365.88,2347.21706
				L347.88,2340.61702L347.04,2340.37702L347.04,2333.29696L330.6,2325.1369L302.04,2316.97684L277.44,2308.81679L248.76,2292.37667
				L236.88,2282.17659L227.52,2274.13653L227.4,2274.13653L227.28,2274.01653L220.2,2267.89649L208.68,2263.21645L203.88,2261.29644
				L197.52,2265.13647L181.2,2256.97641L156.6,2252.77638L150.6,2255.5364L140.16,2246.41633L139.8,2246.17633L139.32,2245.81633
				L124.92,2233.09624L117.84,2226.97619L124.2,2216.77612L129,2205.61604L132,2193.49595L132.24,2192.41594L133.32,2187.85591L
				133.32,2172.6158L133.32,2167.81576L133.32,2167.21576L133.32,2165.17574L133.08,2152.57565L133.08,2152.45565L133.08,2152.21565
				L132.84,2142.25557L132.96,2142.25557L146.28,2133.13551L153.12,2132.4155L153.12,2132.1755L153.24,2132.1755L158.4,2131.5755
				L160.56,2130.85549L160.92,2130.61549L163.2,2129.77548L174,2125.57545L183.48,2114.65537L184.32,2113.69537L185.28,2112.61536
				L185.28,2100.97527L185.28,2100.13527L185.64,2084.53516L187.56,2064.61501L186.72,2057.17496L192,2050.33491L199.44,2038.81482
				L207.6,2039.05482L215.28,2040.37483L236.16,2036.0548L245.16,2032.09477L252,2029.09475L258.84,2027.29474L262.8,2026.09473
				L264.36,2028.73475L265.32,2030.17476L268.68,2036.1748L271.44,2038.21482L273.96,2039.89483L278.76,2040.25483L281.52,2040.37483
				L283.44,2040.49483L288.72,2040.01483L291.48,2040.85484L296.28,2046.25488L300.84,2048.7749L304.8,2049.7349L311.52,2047.69489
				L314.88,2044.57486L317.64,2040.37483L319.68,2038.81482L324.12,2037.37481L328.44,2036.41481L331.8,2035.6948L338.16,2035.6948
				L340.56,2035.9348L344.04,2036.89481L344.88,2037.13481L349.44,2039.53483L350.76,2040.13483L351.72,2040.13483L357,2039.65483
				L361.92,2036.89481L362.88,2036.41481L365.52,2034.85479L368.76,2034.73479L372.96,2034.73479L373.32,2034.97479L375.48,2036.53481
				L375.96,2036.89481L380.88,2035.0948L385.08,2031.49477L389.76,2026.81474L393.36,2025.37472L398.28,2023.93471L399.72,2024.41472
				L399.96,2024.41472L400.2,2024.53472L400.68,2024.65472L400.8,2024.65472L400.92,2024.65472L401.04,2024.65472L401.16,2024.77472
				L401.88,2024.89472L403.32,2025.13472L405.96,2026.45473L409.56,2026.69473L410.28,2026.93474L412.08,2027.65474L416.16,2028.13475
				L419.28,2028.01474L420.72,2027.89474L424.8,2023.57471L429.6,2018.41467L429.84,2018.17467L432.72,2017.09466L433.2,2016.85466
				L436.2,2009.53461L436.44,2009.53461L438.24,2009.77461L438.72,2009.77461L439.56,2009.77461L445.32,2009.29461L445.8,2009.29461
				L445.8,2009.17461L445.8,2008.93461L446.52,2008.8146L447.48,2008.6946L454.2,2004.85458L456.6,2002.69456L456.84,2002.57456
				L457.56,2002.33456L457.68,2002.33456L458.64,2001.73455L458.76,2001.37455L459.12,2000.65455L459.24,2000.05454L459.6,1999.69454
				L461.16,1998.13453L466.68,1991.89448L466.92,1991.65448L467.64,1990.93447L468.12,1990.57447L468.24,1990.45447L472.32,1989.85447
				L472.44,1989.73447L476.4,1987.81445L476.16,1987.21445L474.84,1984.57443L474.36,1983.25442L474,1982.53441L472.92,1980.2544
				L478.92,1976.77437L489.24,1971.61433L494.4,1969.45432L494.76,1969.33432L497.52,1968.49431L498.48,1968.13431L501.6,1968.25431
				L501.48,1968.01431L501.48,1967.77431L501.36,1966.6943L503.28,1950.85418L500.04,1943.89413L496.56,1936.21408L491.76,1915.57393
				L491.28,1913.53391L487.08,1894.09377L484.56,1888.09373L480.36,1878.61366L479.04,1875.61364L478.92,1873.69362L478.92,1869.37359
				L478.8,1868.17358L478.68,1860.01352L471.24,1853.17347L469.68,1851.97346L464.04,1847.41343L464.04,1846.81343L463.92,1846.69343
				L463.92,1846.57343L463.92,1846.45342L462.48,1838.29336L465.12,1829.8933L464.88,1824.13326L464.76,1817.53321L469.68,1807.81314
				L473.04,1801.09309L470.52,1794.25304L466.56,1783.33297L467.16,1774.4529L471.84,1773.25289L479.16,1771.21288L487.2,1769.17286
				L487.8,1768.93286L489.24,1768.33286L501.96,1763.17282L507.24,1754.89276L515.88,1741.09266L516,1740.85266L517.92,1737.85263
				L518.4,1732.21259L518.64,1728.73257L518.76,1727.17256L518.88,1724.77254L519.36,1719.0125L519.48,1717.81249L519.48,1717.33249
				L519.72,1714.21246L519.96,1712.77245L523.8,1690.57229L540.36,1669.81214L540.96,1660.45207L545.16,1646.17197L523.32,1584.73152
				L502.2,1554.2513L516.84,1548.85126L541.44,1539.61119L557.4,1524.25108L561.72,1505.65095L571.08,1490.41084L587.28,1483.45079
				L613.56,1482.13078L633.24,1480.09076L643.8,1474.09072L653.16,1466.41066L657.48,1444.5705L673.8,1431.25041L681.6,1421.65034
				L705,1392.97013L727.56,1371.36997L743.16,1364.04992L759.48,1356.12986L768.84,1352.16983L776.16,1344.48977L785.76,1326.84965
				L796.08,1307.2895L800.04,1296.60943L795.36,1285.92935L790.44,1272.72925L785.4,1251.1291L788.4,1243.80904L800.4,1240.80902
				L815.4,1236.12899L834.6,1236.48899L837.36,1237.20899L855.6,1242.12903L875.16,1240.80902L898.44,1248.12907L930,1254.12912
				L934.8,1258.32915L939.36,1262.40918L957.6,1269.72923L959.04,1269.48923L959.52,1268.88923L959.64,1268.64922L960.12,1268.28922
				L960.12,1268.16922L960.24,1268.16922L960.36,1268.16922L960.72,1267.92922L960.84,1267.92922L961.8,1267.80922L962.04,1267.80922
				L962.16,1267.80922L963.12,1267.92922L963.96,1267.80922L965.04,1267.68922L965.16,1267.68922L966.36,1267.44921L966.6,1267.44921
				L967.56,1267.44921L968.04,1267.56922L968.88,1267.32921L969.6,1266.96921L969.72,1266.84921L969.84,1266.84921L970.68,1266.36921
				L971.04,1266.24921L972.12,1265.8892L972.84,1265.6492L974.28,1265.5292L974.52,1265.5292L975.36,1265.5292L975.48,1265.5292
				L975.84,1265.6492L976.08,1265.6492L976.8,1265.7692L976.92,1265.8892L977.88,1266.24921L978.36,1266.36921L978.48,1266.36921
				L979.08,1266.24921L979.32,1266.24921L979.68,1266.12921L980.16,1266.0092L980.4,1265.7692L980.52,1265.7692L980.76,1265.7692
				L981.12,1265.7692L981.48,1265.7692L981.72,1265.7692L981.84,1265.6492L982.56,1265.0492L982.68,1265.0492L982.8,1264.9292L983.04,1264.8092
				L983.04,1264.68919L983.4,1264.56919L984.24,1264.08919L984.84,1263.60919L984.96,1263.48919L985.08,1263.36919L985.68,1263.00918
				L985.92,1262.88918L986.52,1262.52918L987.12,1262.16918L987.96,1261.68917L988.32,1261.44917L988.44,1261.32917L988.68,1261.08917
				L988.8,1260.60917L989.04,1260.24916L989.28,1260.12916L989.4,1260.00916L989.64,1259.64916L989.64,1259.52916L989.88,1259.28916
				L989.88,1259.16915L990.24,1258.92915L990.36,1258.92915L990.84,1258.68915L990.96,1258.68915L991.08,1258.68915L991.2,1258.68915
				L991.32,1258.68915L991.8,1258.80915L992.16,1258.68915L992.64,1258.56915L993.72,1258.32915L993.96,1258.20915L993.96,1258.08915
				L994.44,1257.84915L995.4,1257.24914L995.76,1256.88914L996.24,1256.64914L996.36,1256.52914L997.44,1255.92913L997.56,1255.92913
				L997.8,1255.68913L998.04,1255.44913L998.52,1254.96912L998.64,1254.84912L999.12,1254.36912L999.36,1254.00912L999.6,1253.64911
				L999.84,1253.40911L999.96,1253.16911L1000.08,1253.16911L1000.44,1252.56911L1001.04,1252.0891L1001.4,1251.8491L1002.36,1251.2491
				L1002.72,1251.0091L1003.32,1250.52909L1003.68,1250.16909L1004.16,1249.80909L1004.28,1249.80909L1004.4,1249.80909L1004.64,1249.68909
				L1005.12,1249.56908L1005.36,1249.56908L1005.72,1249.56908L1006.32,1249.44908L1007.4,1249.32908L1007.88,1249.20908L1008.24,1249.20908
				L1008.36,1249.20908L1008.84,1249.20908L1010.28,1249.32908L1010.76,1249.32908L1011.12,1249.44908L1011.36,1249.44908L1012.08,1249.68909
				L1013.04,1250.04909L1013.4,1250.16909L1013.52,1250.16909L1014,1250.16909L1014.24,1250.28909L1014.6,1250.28909L1015.08,1250.28909
				L1015.2,1250.16909L1015.68,1250.16909L1016.28,1249.92909L1016.76,1249.56908L1016.88,1249.44908L1017.6,1248.96908L1018.08,1248.60908
				L1018.8,1248.36908L1019.04,1248.12907L1019.04,1248.00907L1019.04,1247.88907L1019.04,1247.64907L1019.16,1247.40907L1019.16,1247.28907
				L1019.28,1247.04907L1019.4,1247.04907L1019.76,1246.68906L1019.88,1246.68906L1020.6,1246.44906L1021.8,1246.44906L1022.16,1246.44906
				L1023.24,1246.44906L1024.32,1246.32906L1024.92,1246.32906L1025.28,1246.32906L1025.4,1246.32906L1025.64,1246.32906L1026,1246.32906
				L1026.48,1246.20906L1026.96,1245.84906L1027.44,1245.60906L1027.8,1245.60906L1027.92,1245.60906L1028.16,1245.60906L1028.4,1245.60906
				L1028.64,1245.48906L1028.88,1245.48906L1029.24,1245.36905L1029.84,1245.12905L1030.08,1245.12905L1030.32,1245.00905L1031.28,1244.64905
				L1032.12,1244.40905L1032.84,1244.04904L1032.96,1243.80904L1033.56,1243.56904L1034.16,1243.08904L1034.4,1242.96904L1035.72,1242.00903
				L1036.68,1241.16902L1037.76,1240.20902L1037.88,1240.08902L1038.48,1239.60901L1038.6,1239.48901L1039.2,1239.36901L1040.04,1239.00901
				L1040.76,1238.64901L1041,1238.409L1041.36,1238.289L1041.72,1237.929L1041.84,1237.929L1042.2,1237.689L1042.56,1237.569L1043.16,1237.329
				L1043.88,1237.329L1044.48,1237.20899L1044.72,1237.20899L1044.84,1237.20899L1045.8,1237.08899L1046.52,1237.08899L1047.6,1236.72899
				L1047.72,1236.60899L1048.44,1236.24899L1048.56,1236.24899L1049.4,1235.88899L1050.36,1235.76898L1051.32,1235.52898L1052.04,1235.40898
				L1052.88,1235.28898L1052.88,1235.40898L1053.36,1235.40898L1054.2,1235.52898L1054.32,1235.52898L1054.68,1235.64898L1055.16,1235.88899
				L1055.64,1236.00899L1055.88,1236.00899L1056.12,1236.00899L1056.72,1235.88899L1057.2,1235.88899L1057.92,1235.52898L1058.88,1234.92898
				L1059.12,1234.80898L1059.6,1234.44897L1059.84,1234.32897L1060.68,1233.96897L1060.92,1233.96897L1061.64,1233.72897L1062.12,1233.60897
				L1062.24,1233.48897L1062.48,1233.48897L1063.2,1233.24897L1064.76,1233.00896L1065.24,1233.00896L1065.48,1233.00896L1065.6,1233.00896
				L1065.96,1232.88896L1066.32,1232.76896L1066.44,1232.52896L1066.56,1232.52896L1066.8,1232.52896L1067.04,1232.40896L1067.28,1232.40896
				L1067.64,1232.40896L1067.88,1232.52896L1068.24,1232.52896L1068.6,1232.40896L1068.96,1232.28896L1069.2,1232.16896L1069.32,1232.04896
				L1069.44,1231.80896L1069.8,1231.32895L1069.92,1231.20895L1070.28,1230.96895L1070.64,1230.72895L1071.12,1230.48895L1071.36,1230.36895
				L1071.6,1230.36895L1072.08,1230.36895L1072.44,1230.48895L1072.68,1230.48895L1072.8,1230.24894L1073.04,1230.12894L1073.04,1230.00894
				L1073.28,1230.00894L1073.52,1230.00894L1073.88,1229.76894L1073.88,1229.64894L1074.12,1229.52894L1074.24,1229.40894L1074.36,1229.28894
				L1074.36,1229.16894L1074.48,1229.04894L1074.6,1228.92893L1074.84,1228.80893L1075.2,1228.44893L1075.32,1228.32893L1075.44,1228.20893
				L1075.68,1228.20893L1075.68,1228.08893L1076.28,1227.84893L1076.76,1227.48892L1077.6,1227.12892L1077.84,1227.00892L1078.2,1226.76892
				L1078.56,1226.52892L1078.8,1226.40892L1078.92,1226.40892L1079.04,1226.40892L1079.52,1226.16891L1080.12,1225.68891L1080.24,1225.56891
				L1080.36,1225.32891L1080.48,1225.20891L1080.84,1224.96891L1081.32,1224.6089L1081.56,1224.4889L1081.92,1224.3689L1082.4,1224.4889
				L1082.4,1224.3689L1082.52,1224.3689L1082.76,1224.2489L1083.12,1224.0089L1083.24,1224.0089L1083.48,1223.8889L1083.84,1223.8889
				L1084.56,1224.0089L1085.04,1224.0089L1085.16,1224.0089L1085.52,1224.1289L1085.64,1224.1289L1085.88,1224.1289L1086,1224.2489
				L1086.36,1224.2489L1086.72,1224.2489L1086.96,1224.1289L1087.32,1224.1289L1087.68,1224.2489L1088.04,1224.2489L1088.64,1224.0089
				L1089,1224.0089L1089.24,1224.0089L1089.6,1224.1289L1089.72,1224.1289L1089.96,1224.1289L1090.2,1224.1289L1090.56,1224.3689
				L1090.8,1224.4889L1090.92,1224.6089L1091.04,1224.6089L1091.16,1224.6089L1091.52,1224.7289L1091.76,1224.7289L1091.88,1224.84891
				L1092.12,1224.84891L1092.36,1224.96891L1092.6,1225.08891L1092.84,1225.08891L1093.44,1225.32891L1093.68,1225.44891L1093.92,1225.56891
				L1094.4,1225.56891L1094.52,1225.56891L1094.64,1225.44891L1094.88,1225.44891L1095,1225.44891L1095.12,1225.44891L1095.36,1225.56891
				L1095.6,1225.44891L1095.6,1225.20891L1095.72,1224.84891L1095.96,1224.6089L1096.08,1224.7289L1096.2,1224.7289L1096.44,1224.7289
				L1096.44,1224.96891L1096.44,1225.08891L1096.68,1224.96891L1096.8,1224.7289L1097.04,1224.6089L1097.4,1224.4889L1097.52,1224.3689
				L1097.64,1224.1289L1097.88,1223.8889L1098.12,1223.7689L1098.24,1223.6489L1098.36,1223.40889L1098.48,1223.16889L1098.72,1222.80889
				L1098.84,1222.68889L1099.08,1222.68889L1099.2,1222.68889L1099.32,1222.80889L1099.32,1222.92889L1099.44,1223.16889L1099.56,1223.40889
				"/>
			<path clip-path="url(#SVG_CP_1)" fill="none" stroke="#000000" stroke-width="3.96" stroke-miterlimit="10" stroke-linecap="round" stroke-linejoin="round" d="
				M1099.56,1223.40889L1099.68,1223.6489L1099.8,1223.6489L1099.92,1223.7689L1100.16,1223.8889L1100.4,1224.0089L1100.64,1224.2489
				L1100.88,1224.3689L1100.88,1224.4889L1100.88,1224.6089L1100.88,1224.7289L1100.88,1224.84891L1100.88,1224.96891L1101.12,1225.08891
				L1101.36,1225.08891L1101.72,1224.96891L1102.08,1224.84891L1102.32,1224.84891L1102.56,1224.96891L1102.8,1224.96891L1103.28,1224.96891
				L1103.52,1224.96891L1104,1225.20891L1104.36,1225.32891L1104.72,1225.44891L1104.96,1225.56891L1105.08,1225.56891L1105.32,1225.56891
				L1105.44,1225.56891L1105.68,1225.68891L1105.92,1225.56891L1106.28,1225.68891L1106.52,1225.56891L1106.76,1225.56891L1107.12,1225.68891
				L1107.36,1225.56891L1107.48,1225.56891L1107.6,1225.56891L1108.2,1225.56891L1108.32,1225.56891L1108.56,1225.68891L1108.68,1225.68891
				L1108.8,1225.80891L1109.04,1225.80891L1109.28,1225.92891L1109.64,1225.80891L1109.88,1225.80891L1110.36,1225.68891L1110.48,1225.56891
				L1111.08,1225.56891L1111.56,1225.44891L1111.8,1225.44891L1111.92,1225.44891L1112.16,1225.56891L1112.52,1225.68891L1112.76,1225.80891
				L1113.12,1225.80891L1113.84,1225.68891L1114.08,1225.68891L1114.44,1225.68891L1114.68,1225.68891L1114.8,1225.68891L1115.04,1225.56891
				L1115.52,1225.44891L1115.76,1225.32891L1116.12,1225.20891L1116.36,1225.20891L1116.72,1225.20891L1117.2,1225.20891L1117.56,1224.96891
				L1118.04,1224.7289L1118.4,1224.4889L1118.64,1224.4889L1119,1224.3689L1119.36,1224.3689L1119.84,1224.1289L1120.32,1224.1289
				L1120.56,1224.0089L1120.92,1223.8889L1121.04,1223.8889L1121.4,1223.8889L1121.88,1223.7689L1122.24,1223.7689L1122.48,1223.7689
				L1122.6,1223.7689L1122.84,1223.6489L1123.08,1223.5289L1123.2,1223.5289L1123.44,1223.5289L1123.8,1223.40889L1124.04,1223.40889
				L1124.28,1223.28889L1124.64,1223.16889L1125,1223.16889L1125.24,1223.28889L1125.36,1223.28889L1125.6,1223.16889L1125.72,1223.04889
				L1125.84,1222.80889L1125.96,1222.68889L1126.08,1222.56889L1126.32,1222.56889L1126.56,1222.56889L1126.68,1222.68889L1127.04,1222.80889
				L1127.28,1222.92889L1127.4,1222.92889L1127.52,1222.80889L1127.76,1222.44889L1127.76,1222.20889L1127.88,1222.08889L1128,1221.96888
				L1128.36,1222.08889L1128.6,1222.08889L1128.72,1222.08889L1128.84,1221.96888L1129.08,1222.08889L1129.2,1222.20889L1129.44,1222.20889
				L1129.56,1222.08889L1129.68,1221.96888L1129.8,1221.72888L1129.92,1221.48888L1130.04,1221.24888L1130.16,1221.12888L1130.4,1221.00888
				L1130.64,1221.00888L1130.88,1221.12888L1131,1221.24888L1131.12,1221.48888L1131.24,1221.48888L1131.36,1221.36888L1131.36,1221.12888
				L1131.48,1221.00888L1131.6,1220.88888L1131.72,1221.00888L1131.96,1221.12888L1132.08,1221.24888L1132.2,1221.12888L1132.2,1220.88888
				L1132.32,1220.76888L1132.44,1220.64887L1132.68,1220.76888L1132.8,1220.88888L1133.04,1221.00888L1133.4,1221.00888L1133.4,1220.88888
				L1133.52,1220.76888L1133.52,1220.52887L1133.76,1220.52887L1134,1220.52887L1134.24,1220.64887L1134.48,1220.64887L1134.48,1220.52887
				L1134.48,1220.40887L1134.36,1220.16887L1134.48,1219.92887L1134.48,1219.80887L1134.6,1219.68887L1134.84,1219.68887L1134.96,1219.80887
				L1135.08,1219.92887L1135.2,1219.92887L1135.32,1219.92887L1135.32,1219.80887L1135.32,1219.68887L1135.32,1219.32887L1135.32,1219.08886
				L1135.44,1218.96886L1135.56,1218.72886L1135.68,1218.72886L1135.92,1218.84886L1136.16,1218.96886L1136.28,1218.84886L1136.28,1218.72886
				L1136.4,1218.36886L1136.4,1218.24886L1136.52,1218.00886L1136.64,1217.76885L1136.76,1217.52885L1136.88,1217.40885L1137,1217.28885
				L1137.12,1217.16885L1137.36,1217.04885L1137.6,1216.92885L1137.84,1216.92885L1138.2,1217.04885L1138.56,1217.16885L1139.04,1217.28885
				L1139.04,1217.40885L1139.4,1217.40885L1139.88,1217.40885L1140.12,1217.40885L1140.48,1217.40885L1140.84,1217.28885L1141.2,1217.16885
				L1141.32,1217.16885L1141.68,1217.16885L1141.92,1217.16885L1142.4,1217.04885L1142.64,1216.80885L1142.88,1216.68885L1143.24,1216.56884
				L1143.6,1216.56884L1144.08,1216.56884L1144.32,1216.68885L1144.56,1216.56884L1144.8,1216.44884L1145.04,1216.20884L1145.4,1216.32884
				L1145.52,1216.44884L1145.64,1216.44884L1145.88,1216.32884L1145.88,1216.20884L1145.88,1215.96884L1146,1215.84884L1146.12,1215.72884
				L1146.48,1215.84884L1147.2,1215.00883L1147.68,1215.00883L1150.32,1208.88879L1156.08,1196.2887L1161.36,1185.96862L1169.28,1170.36851
				L1174.32,1161.72845L1175.28,1155.4884L1179,1133.40824L1185.24,1128.72821L1199.28,1098.84799L1199.52,1092.84795L1201.92,1090.92793
				L1208.16,1085.28789L1210.32,1084.44788L1217.52,1081.92787L1225.2,1077.96784L1235.76,1068.96777L1247.76,1066.32775L1260.72,1059.96771
				L1271.64,1052.76765L1297.92,1050.84764L1298.16,1050.84764L1320.84,1049.16763L1321.08,1049.16763L1324.68,1048.80763L1324.92,1048.80763
				L1325.76,1048.80763L1325.88,1048.80763L1327.32,1048.68762L1327.56,1048.68762L1329.12,1048.56762L1329.48,1048.56762L1361.88,1046.16761
				L1362.12,1046.16761L1373.4,1045.3276L1373.64,1045.3276L1417.8,1042.08758L1437.48,1044.24759L1437.6,1044.24759L1452.48,1040.28756
				L1461.6,1032.84751L1461.72,1032.84751L1462.92,1033.92752L1477.44,1046.40761L1484.88,1059.96771L1490.64,1067.40776L1508.52,1081.92787
				L1528.32,1089.84792L1544.04,1092.00794L1553.28,1090.20793L1569.96,1081.44786L1590.96,1075.32782L1602.36,1066.08775L1607.64,1049.04763
				L1612.8,1030.20749L1619.88,1014.00737L1636.08,1007.04732L1643.04,994.68723L1638.24,984.24716L1633.44,975.48709L1624.2,959.40698
				L1618.08,946.68688L1609.08,938.16682L1592.64,915.96666L1591.08,908.2866L1588.8,897.12652L1594.8,889.80647L1600.68,882.48642
				L1607.28,870.72633L1627.44,857.04623L1636.92,857.04623L1647.24,816.60594L1658.64,798.60581L1677.96,770.4056L1688.76,748.68544
				L1696.8,727.92529L1697.28,712.80518L1688.76,693.96505L1691.64,684.60498L1701.48,668.04486L1713.24,652.92475L1722.24,648.24471
				L1736.4,642.12467L1741.56,630.84459L1774.08,628.44457L1796.76,629.40458L1806.6,630.84459L1825.92,638.40464L1849.56,654.36476
				L1864.56,654.84476L1888.68,648.72472L1907.52,648.24471L1915.92,647.76471L1929.6,629.88458L1941.84,625.20455L1954.68,616.20448
				L1964.52,608.64443L1978.2,603.00438L1986.72,593.64432L1990.8,587.88427L2006.16,586.56426L2011.68,594.96433L2018.28,603.96439
				L2020.56,618.6045L2024.4,630.84459L2030.04,637.44463L2044.68,629.88458L2058.36,617.16449L2067.24,605.4044L2075.28,585.60426
				L2081.88,567.60413L2102.16,548.28399L2122.92,531.36386L2156.88,515.76375L2180.4,502.08365L2185.08,497.16361L2193.6,488.04355
				L2211.96,468.2434L2213.28,465.60339L2220.48,451.68328L2224.68,432.84315L2229.96,407.40296L2245.44,389.04283L2253.48,383.40279
				L2269.44,367.32267L2270.4,351.36255L2298.72,366.24266L2329.68,391.32285L2348.4,408.96297L2358.6,445.92324L2378.4,464.64338
				L2381.88,471.48343L2389.68,486.60354L2403.6,504.24367L2400.36,519.72378L2388,542.76395L2378.88,558.36406L2382.12,579.72422
				L2378.88,599.52436L2353.8,632.1646"/>
		</g>
		<g id="sattlements">
			<path clip-path="url(#SVG_CP_1)" fill="#FF0000" fill-rule="evenodd" stroke="#000000" stroke-width="0.96" stroke-miterlimit="10" stroke-linecap="round" stroke-linejoin="round" d="
				M1964.4,1696.39233C1964.4,1690.8584,1959.94076,1686.37226,1954.44,1686.37226C1948.93924,1686.37226,1944.48,1690.8584,1944.48,1696.39233
				C1944.48,1701.92627,1948.93924,1706.41241,1954.44,1706.41241C1959.94076,1706.41241,1964.4,1701.92627,1964.4,1696.39233z"/>
			<path clip-path="url(#SVG_CP_1)" fill="#FF0000" fill-rule="evenodd" stroke="#000000" stroke-width="0.96" stroke-miterlimit="10" stroke-linecap="round" stroke-linejoin="round" d="
				M1763.88,2068.63504C1763.88,2063.10111,1759.42076,2058.61497,1753.92,2058.61497C1748.41924,2058.61497,1743.96,2063.10111
				,1743.96,2068.63504C1743.96,2074.16897,1748.41924,2078.65511,1753.92,2078.65511C1759.42076,2078.65511,1763.88,2074.16897
				,1763.88,2068.63504z"/>
			<path clip-path="url(#SVG_CP_1)" fill="#FF0000" fill-rule="evenodd" stroke="#000000" stroke-width="0.96" stroke-miterlimit="10" stroke-linecap="round" stroke-linejoin="round" d="
				M1673.52,2533.09842C1673.52,2527.59762,1669.06076,2523.13834,1663.56,2523.13834C1658.05924,2523.13834,1653.6,2527.59762,
				1653.6,2533.09842C1653.6,2538.59921,1658.05924,2543.05849,1663.56,2543.05849C1669.06076,2543.05849,1673.52,2538.59921,1673.52,2533.09842
				z"/>
			<path clip-path="url(#SVG_CP_1)" fill="#FF0000" fill-rule="evenodd" stroke="#000000" stroke-width="0.96" stroke-miterlimit="10" stroke-linecap="round" stroke-linejoin="round" d="
				M910.08,2290.57665C910.08,2285.07586,905.59389,2280.61658,900.06,2280.61658C894.52611,2280.61658,890.04,2285.07586,890.04,2290.57665
				C890.04,2296.07745,894.52611,2300.53673,900.06,2300.53673C905.59389,2300.53673,910.08,2296.07745,910.08,2290.57665z"/>
			<path clip-path="url(#SVG_CP_1)" fill="#FF0000" fill-rule="evenodd" stroke="#000000" stroke-width="0.96" stroke-miterlimit="10" stroke-linecap="round" stroke-linejoin="round" d="
				M986.28,1912.5139C986.28,1906.97997,981.82076,1902.49383,976.32,1902.49383C970.81924,1902.49383,966.36,1906.97997,966.36,1912.5139
				C966.36,1918.04784,970.81924,1922.53398,976.32,1922.53398C981.82076,1922.53398,986.28,1918.04784,986.28,1912.5139z"/>
			<path clip-path="url(#SVG_CP_1)" fill="#FF0000" fill-rule="evenodd" stroke="#000000" stroke-width="0.96" stroke-miterlimit="10" stroke-linecap="round" stroke-linejoin="round" d="
				M1222.56,2214.5561C1222.56,2209.02217,1218.10076,2204.53603,1212.6,2204.53603C1207.09924,2204.53603,1202.64,2209.02217,1202.64,2214.5561
				C1202.64,2220.09003,1207.09924,2224.57617,1212.6,2224.57617C1218.10076,2224.57617,1222.56,2220.09003,1222.56,2214.5561z"/>
			<path clip-path="url(#SVG_CP_1)" fill="#FF0000" fill-rule="evenodd" stroke="#000000" stroke-width="0.96" stroke-miterlimit="10" stroke-linecap="round" stroke-linejoin="round" d="
				M757.2,1883.23369C757.2,1877.69976,752.71389,1873.21362,747.18,1873.21362C741.64611,1873.21362,737.16,1877.69976,737.16,1883.23369
				C737.16,1888.76763,741.64611,1893.25376,747.18,1893.25376C752.71389,1893.25376,757.2,1888.76763,757.2,1883.23369z"/>
			<path clip-path="url(#SVG_CP_1)" fill="#FF0000" fill-rule="evenodd" stroke="#000000" stroke-width="0.96" stroke-miterlimit="10" stroke-linecap="round" stroke-linejoin="round" d="
				M812.16,1993.39449C812.16,1987.86056,807.67389,1983.37442,802.14,1983.37442C796.60611,1983.37442,792.12,1987.86056,792.12,1993.39449
				C792.12,1998.92843,796.60611,2003.41457,802.14,2003.41457C807.67389,2003.41457,812.16,1998.92843,812.16,1993.39449z"/>
			<path clip-path="url(#SVG_CP_1)" fill="#FF0000" fill-rule="evenodd" stroke="#000000" stroke-width="0.96" stroke-miterlimit="10" stroke-linecap="round" stroke-linejoin="round" d="
				M1499.16,2206.75604C1499.16,2201.22211,1494.67389,2196.73597,1489.14,2196.73597C1483.60611,2196.73597,1479.12,2201.22211
				,1479.12,2206.75604C1479.12,2212.28998,1483.60611,2216.77612,1489.14,2216.77612C1494.67389,2216.77612,1499.16,2212.28998
				,1499.16,2206.75604z"/>
			<path clip-path="url(#SVG_CP_1)" fill="#FF0000" fill-rule="evenodd" stroke="#000000" stroke-width="0.96" stroke-miterlimit="10" stroke-linecap="round" stroke-linejoin="round" d="
				M1384.2,2032.75478C1384.2,2027.22085,1379.74076,2022.73471,1374.24,2022.73471C1368.73924,2022.73471,1364.28,2027.22085,1364.28,2032.75478
				C1364.28,2038.28871,1368.73924,2042.77485,1374.24,2042.77485C1379.74076,2042.77485,1384.2,2038.28871,1384.2,2032.75478z"/>
			<path clip-path="url(#SVG_CP_1)" fill="#FF0000" fill-rule="evenodd" stroke="#000000" stroke-width="0.96" stroke-miterlimit="10" stroke-linecap="round" stroke-linejoin="round" d="
				M1113.72,2025.85473C1113.72,2020.35393,1109.26076,2015.89466,1103.76,2015.89466C1098.25924,2015.89466,1093.8,2020.35393,
				1093.8,2025.85473C1093.8,2031.35552,1098.25924,2035.8148,1103.76,2035.8148C1109.26076,2035.8148,1113.72,2031.35552,1113.72,2025.85473
				z"/>
			<path clip-path="url(#SVG_CP_1)" fill="#FF0000" fill-rule="evenodd" stroke="#000000" stroke-width="0.96" stroke-miterlimit="10" stroke-linecap="round" stroke-linejoin="round" d="
				M1463.16,2500.63818C1463.16,2495.10425,1458.70076,2490.61811,1453.2,2490.61811C1447.69924,2490.61811,1443.24,2495.10425,
				1443.24,2500.63818C1443.24,2506.17211,1447.69924,2510.65825,1453.2,2510.65825C1458.70076,2510.65825,1463.16,2506.17211,1463.16,2500.63818
				z"/>
			<path clip-path="url(#SVG_CP_1)" fill="#FF0000" fill-rule="evenodd" stroke="#000000" stroke-width="0.96" stroke-miterlimit="10" stroke-linecap="round" stroke-linejoin="round" d="
				M1262.88,2522.17834C1262.88,2516.67754,1258.42076,2512.21826,1252.92,2512.21826C1247.41924,2512.21826,1242.96,2516.67754
				,1242.96,2522.17834C1242.96,2527.67913,1247.41924,2532.13841,1252.92,2532.13841C1258.42076,2532.13841,1262.88,2527.67913
				,1262.88,2522.17834z"/>
			<path clip-path="url(#SVG_CP_1)" fill="#FF0000" fill-rule="evenodd" stroke="#000000" stroke-width="0.96" stroke-miterlimit="10" stroke-linecap="round" stroke-linejoin="round" d="
				M1360.8,2505.67822C1360.8,2500.14428,1356.31389,2495.65814,1350.78,2495.65814C1345.24611,2495.65814,1340.76,2500.14428,1340.76,2505.67822
				C1340.76,2511.21215,1345.24611,2515.69829,1350.78,2515.69829C1356.31389,2515.69829,1360.8,2511.21215,1360.8,2505.67822z"/>
			<path clip-path="url(#SVG_CP_1)" fill="#FF0000" fill-rule="evenodd" stroke="#000000" stroke-width="0.96" stroke-miterlimit="10" stroke-linecap="round" stroke-linejoin="round" d="
				M539.4,2117.7154C539.4,2112.18146,534.94076,2107.69532,529.44,2107.69532C523.93924,2107.69532,519.48,2112.18146,519.48,2117.7154
				C519.48,2123.24933,523.93924,2127.73547,529.44,2127.73547C534.94076,2127.73547,539.4,2123.24933,539.4,2117.7154z"/>
		</g>
		<g id="sattlements1">
			<path clip-path="url(#SVG_CP_1)" fill="#FF0000" fill-rule="evenodd" stroke="#000000" stroke-width="0.96" stroke-miterlimit="10" stroke-linecap="round" stroke-linejoin="round" d="
				M1870.56,2308.27678C1870.56,2302.74285,1866.10076,2298.25671,1860.6,2298.25671C1855.09924,2298.25671,1850.64,2302.74285,
				1850.64,2308.27678C1850.64,2313.81072,1855.09924,2318.29685,1860.6,2318.29685C1866.10076,2318.29685,1870.56,2313.81072,1870.56,2308.27678
				z"/>
			<path clip-path="url(#SVG_CP_1)" fill="#FF0000" fill-rule="evenodd" stroke="#000000" stroke-width="0.96" stroke-miterlimit="10" stroke-linecap="round" stroke-linejoin="round" d="
				M1062,2798.78035C1062,2793.27955,1057.51389,2788.82028,1051.98,2788.82028C1046.44611,2788.82028,1041.96,2793.27955,1041.96,2798.78035
				C1041.96,2804.28114,1046.44611,2808.74042,1051.98,2808.74042C1057.51389,2808.74042,1062,2804.28114,1062,2798.78035z"/>
			<path clip-path="url(#SVG_CP_1)" fill="#FF0000" fill-rule="evenodd" stroke="#000000" stroke-width="0.96" stroke-miterlimit="10" stroke-linecap="round" stroke-linejoin="round" d="
				M1956,2258.83642C1956,2253.30249,1951.51389,2248.81635,1945.98,2248.81635C1940.44611,2248.81635,1935.96,2253.30249,1935.96,2258.83642
				C1935.96,2264.37036,1940.44611,2268.8565,1945.98,2268.8565C1951.51389,2268.8565,1956,2264.37036,1956,2258.83642z"/>
			<path clip-path="url(#SVG_CP_1)" fill="#FF0000" fill-rule="evenodd" stroke="#000000" stroke-width="0.96" stroke-miterlimit="10" stroke-linecap="round" stroke-linejoin="round" d="
				M556.92,1842.6734C556.92,1837.13946,552.46076,1832.65332,546.96,1832.65332C541.45924,1832.65332,537,1837.13946,537,1842.6734
				C537,1848.20733,541.45924,1852.69347,546.96,1852.69347C552.46076,1852.69347,556.92,1848.20733,556.92,1842.6734z"/>
			<path clip-path="url(#SVG_CP_1)" fill="#FF0000" fill-rule="evenodd" stroke="#000000" stroke-width="0.96" stroke-miterlimit="10" stroke-linecap="round" stroke-linejoin="round" d="
				M614.28,1890.01374C614.28,1884.51294,609.82076,1880.05367,604.32,1880.05367C598.81924,1880.05367,594.36,1884.51294,594.36,1890.01374
				C594.36,1895.51454,598.81924,1899.97381,604.32,1899.97381C609.82076,1899.97381,614.28,1895.51454,614.28,1890.01374z"/>
		</g>
		<g id="sattlements_Anno_7">
			<g font-family="'Sylfaen'" font-size="1" kerning="0" font-weight="700" fill="#000000" clip-path="url(#SVG_CP_1)" >
				<text text-anchor="start" transform="matrix(49.92 0 0 49.92036 1759.2 1681.09222)" >
					<tspan direction="ltr" unicode-bidi="embed" x="0 ">Likheti</tspan>
					
				</text>
			</g>
			<g font-family="'Sylfaen'" font-size="1" kerning="0" font-weight="700" fill="#000000" clip-path="url(#SVG_CP_1)" >
				<text text-anchor="start" transform="matrix(49.92 0 0 49.92036 1754.16 2046.61488)" >
					<tspan direction="ltr" unicode-bidi="embed" x="0 ">Tsesi</tspan>
					
				</text>
			</g>
			<g font-family="'Sylfaen'" font-size="1" kerning="0" font-weight="700" fill="#000000" clip-path="url(#SVG_CP_1)" >
				<text text-anchor="start" transform="matrix(49.92 0 0 49.92036 1666.32 2507.29823)" >
					<tspan direction="ltr" unicode-bidi="embed" x="0 ">Velevi</tspan>
					
				</text>
			</g>
			<g font-family="'Sylfaen'" font-size="1" kerning="0" font-weight="700" fill="#000000" clip-path="url(#SVG_CP_1)" >
				<text text-anchor="start" transform="matrix(49.92 0 0 49.92036 900.12 2276.53655)" >
					<tspan direction="ltr" unicode-bidi="embed" x="0 ">Namanevi</tspan>
					
				</text>
			</g>
			<g font-family="'Sylfaen'" font-size="1" kerning="0" font-weight="700" fill="#000000" clip-path="url(#SVG_CP_1)" >
				<text text-anchor="start" transform="matrix(49.92 0 0 49.92036 983.04 1898.4138)" >
					<tspan direction="ltr" unicode-bidi="embed" x="0 ">Khvanchkara</tspan>
					
				</text>
			</g>
			<g font-family="'Sylfaen'" font-size="1" kerning="0" font-weight="700" fill="#000000" clip-path="url(#SVG_CP_1)" >
				<text text-anchor="start" transform="matrix(49.92 0 0 49.92036 1206.36 2205.13603)" >
					<tspan direction="ltr" unicode-bidi="embed" x="0 ">Znakva</tspan>
					
				</text>
			</g>
			<g font-family="'Sylfaen'" font-size="1" kerning="0" font-weight="700" fill="#000000" clip-path="url(#SVG_CP_1)" >
				<text text-anchor="start" transform="matrix(49.92 0 0 49.92036 712.02 1861.33353)" >
					<tspan direction="ltr" unicode-bidi="embed" x="0 ">Chrebalo</tspan>
					
				</text>
			</g>
			<g font-family="'Sylfaen'" font-size="1" kerning="0" font-weight="700" fill="#000000" clip-path="url(#SVG_CP_1)" >
				<text text-anchor="start" transform="matrix(49.92 0 0 49.92036 802.2 1971.37433)" >
					<tspan direction="ltr" unicode-bidi="embed" x="0 ">Ghadishi</tspan>
					
				</text>
			</g>
			<g font-family="'Sylfaen'" font-size="1" kerning="0" font-weight="700" fill="#000000" clip-path="url(#SVG_CP_1)" >
				<text text-anchor="start" transform="matrix(49.92 0 0 49.92036 1493.16 2241.7363)" >
					<tspan direction="ltr" unicode-bidi="embed" x="0 ">Itsa</tspan>
					
				</text>
			</g>
			<g font-family="'Sylfaen'" font-size="1" kerning="0" font-weight="700" fill="#000000" clip-path="url(#SVG_CP_1)" >
				<text text-anchor="start" transform="matrix(49.92 0 0 49.92036 1378.32 2017.33467)" >
					<tspan direction="ltr" unicode-bidi="embed" x="0 ">Sadmeli</tspan>
					
				</text>
			</g>
			<g font-family="'Sylfaen'" font-size="1" kerning="0" font-weight="700" fill="#000000" clip-path="url(#SVG_CP_1)" >
				<text text-anchor="start" transform="matrix(49.92 0 0 49.92036 1094.28 2009.17461)" >
					<tspan direction="ltr" unicode-bidi="embed" x="0 ">Bugeuli</tspan>
					
				</text>
			</g>
			<g font-family="'Sylfaen'" font-size="1" kerning="0" font-weight="700" fill="#000000" clip-path="url(#SVG_CP_1)" >
				<text text-anchor="start" transform="matrix(49.92 0 0 49.92036 1376.7 2129.65548)" >
					<tspan direction="ltr" unicode-bidi="embed" x="0 ">Ambrolauri</tspan>
					
				</text>
			</g>
			<g font-family="'Sylfaen'" font-size="1" kerning="0" font-weight="700" fill="#000000" clip-path="url(#SVG_CP_1)" >
				<text text-anchor="start" transform="matrix(49.92 0 0 49.92036 1442.82 2482.57805)" >
					<tspan direction="ltr" unicode-bidi="embed" x="0 ">Khotevi</tspan>
					
				</text>
			</g>
			<g font-family="'Sylfaen'" font-size="1" kerning="0" font-weight="700" fill="#000000" clip-path="url(#SVG_CP_1)" >
				<text text-anchor="start" transform="matrix(49.92 0 0 49.92036 938.88 2505.49822)" >
					<tspan direction="ltr" unicode-bidi="embed" x="0 ">Nikortsminda</tspan>
					
				</text>
			</g>
			<g font-family="'Sylfaen'" font-size="1" kerning="0" font-weight="700" fill="#000000" clip-path="url(#SVG_CP_1)" >
				<text text-anchor="start" transform="matrix(49.92 0 0 49.92036 1309.32 2545.45851)" >
					<tspan direction="ltr" unicode-bidi="embed" x="0 ">Cheliaghele</tspan>
					
				</text>
			</g>
			<g font-family="'Sylfaen'" font-size="1" kerning="0" font-weight="700" fill="#000000" clip-path="url(#SVG_CP_1)" >
				<text text-anchor="start" transform="matrix(49.92 0 0 49.92036 533.64 2095.81524)" >
					<tspan direction="ltr" unicode-bidi="embed" x="0 ">Tsakhi</tspan>
					
				</text>
			</g>
		</g>
		<g id="sattlements_Anno_8">
			<g font-family="'Sylfaen'" font-size="1" kerning="0" font-weight="700" fill="#000000" clip-path="url(#SVG_CP_1)" >
				<text text-anchor="start" transform="matrix(49.92 0 0 49.92036 1872.72 2354.05711)" >
					<tspan direction="ltr" unicode-bidi="embed" x="0 ">Shua Skhvava</tspan>
					
				</text>
			</g>
			<g font-family="'Sylfaen'" font-size="1" kerning="0" font-weight="700" fill="#000000" clip-path="url(#SVG_CP_1)" >
				<text text-anchor="start" transform="matrix(49.92 0 0 49.92036 1058.64 2787.50027)" >
					<tspan direction="ltr" unicode-bidi="embed" x="0 ">Kharistvala</tspan>
					
				</text>
			</g>
			<g font-family="'Sylfaen'" font-size="1" kerning="0" font-weight="700" fill="#000000" clip-path="url(#SVG_CP_1)" >
				<text text-anchor="start" transform="matrix(49.92 0 0 49.92036 1852.08 2240.77629)" >
					<tspan direction="ltr" unicode-bidi="embed" x="0 ">Zemo Skhvava</tspan>
					
				</text>
			</g>
			<g font-family="'Sylfaen'" font-size="1" kerning="0" font-weight="700" fill="#000000" clip-path="url(#SVG_CP_1)" >
				<text text-anchor="start" transform="matrix(49.92 0 0 49.92036 548.46 1745.65269)" >
					<tspan direction="ltr" unicode-bidi="embed" x="0 ">Zeda</tspan>
					
				</text>
			</g>
			<g font-family="'Sylfaen'" font-size="1" kerning="0" font-weight="700" fill="#000000" clip-path="url(#SVG_CP_1)" >
				<text text-anchor="start" transform="matrix(49.92 0 0 49.92036 532.44 1811.53317)" >
					<tspan direction="ltr" unicode-bidi="embed" x="0 ">Chkvishi</tspan>
					
				</text>
			</g>
			<g font-family="'Sylfaen'" font-size="1" kerning="0" font-weight="700" fill="#000000" clip-path="url(#SVG_CP_1)" >
				<text text-anchor="start" transform="matrix(49.92 0 0 49.92036 545.28 1927.69401)" >
					<tspan direction="ltr" unicode-bidi="embed" x="0 ">Kveda</tspan>
					
				</text>
			</g>
			<g font-family="'Sylfaen'" font-size="1" kerning="0" font-weight="700" fill="#000000" clip-path="url(#SVG_CP_1)" >
				<text text-anchor="start" transform="matrix(49.92 0 0 49.92036 523.56 1993.57449)" >
					<tspan direction="ltr" unicode-bidi="embed" x="0 ">Chkvishi</tspan>
					
				</text>
			</g>
		</g>
	</g>
</svg>
