<?xml version="1.0" encoding="utf-8" standalone="no"?>
<!-- Creator: Esri ArcMap 10.9.1.28388 -->
<!DOCTYPE svg PUBLIC "-//W3C//DTD SVG 1.1//EN"  "http://www.w3.org/Graphics/SVG/1.1/DTD/svg11.dtd">
<svg width="3456pt" height="2592pt" viewBox="0 0 3456 2592" enable-background="new 0 0 3456 2592"
	version="1.1" xmlns="http://www.w3.org/2000/svg" xmlns:xlink="http://www.w3.org/1999/xlink" >
	<g id="Layers">
		<g id="municipal">
			<path clip-path="url(#SVG_CP_1)" fill="#ce8d34" fill-rule="evenodd" stroke="none" d="M2706.82433,645.48096L2720.26425,651.60097
				L2734.66417,649.92097L2740.90413,650.64097L2751.22407,655.68098L2761.18401,657.84098L2766.34398,663.00099L2777.98392,665.04099
				L2787.94386,676.08101L2791.78384,686.04102L2795.86381,692.16103L2803.78377,699.36104L2803.78377,710.04106L2803.78377,717.24107
				L2812.66372,727.56109L2816.86369,737.8811L2822.38366,745.80111L2816.1437,766.80114L2816.50369,775.08116L2824.06365,780.84116
				L2830.06362,783.36117L2831.62361,783.96117L2841.94355,787.80118L2852.62348,790.20118L2858.50345,795.96119L2865.34341,798.48119
				L2874.22336,809.76121L2883.9433,816.00122L2897.26323,810.12121L2906.98317,812.88121L2922.34308,813.60121L2937.82299,814.20121
				L2950.54292,813.24121L2957.86288,811.44121L2972.98279,817.68122L2973.94278,831.72124L2986.66271,846.60126L2996.02265,849.60127
				L2995.78266,850.92127L2999.74263,849.60127L3020.38251,849.60127L3030.70245,855.48128L3034.18243,855.84128L3042.70238,856.56128
				L3049.30235,858.96128L3061.90227,857.88128L3079.54217,856.56128L3100.90205,857.16128L3108.10201,863.04129L3116.62196,866.88129
				L3130.06188,864.84129L3142.7818,870.9613L3155.14173,874.0813L3158.98171,882.36132L3162.10169,891.96133L3162.70169,896.04134
				L3172.42163,900.60134L3175.42162,910.56136L3184.42156,923.28138L3191.62152,919.08137L3206.38144,907.44135L3218.38137,899.88134
				L3231.46129,895.08134L3243.58122,893.28133L3248.74119,904.68135L3255.58115,914.64136L3269.02107,920.52137L3276.22103,930.12139
				L3284.14099,948.00141L3289.90095,954.84142L3295.06092,962.76144L3292.06094,973.08145L3292.30094,976.56146L3296.50091,978.24146
				L3298.9009,981.00146L3296.50091,985.80147L3290.62095,986.52147L3287.86096,990.60148L3290.62095,998.16149L3284.14099,1005.1215
				L3276.58103,1018.08152L3274.78104,1024.32153L3264.2211,1035.72155L3254.14116,1042.56156L3245.62121,1063.20159L3244.90121,1071.1216
				L3244.18122,1077.96161L3230.5013,1096.20164L3232.54128,1101.00164L3241.18123,1110.60166L3246.5812,1120.92167L3259.30113,1129.20168
				L3258.70113,1141.5617L3265.54109,1155.72172L3269.38107,1166.28174L3274.42104,1170.84175L3277.54102,1176.60176L3277.18103,1183.56177
				L3275.50104,1191.12178L3266.26109,1197.24179L3261.46112,1205.8818L3257.98114,1210.68181L3246.3412,1214.76181L3229.4213,1222.68182
				L3213.94139,1244.04186L3208.78142,1257.72188L3209.50142,1266.00189L3208.78142,1277.76191L3197.14149,1289.40192L3191.26152,1293.48193
				L3179.98159,1306.92195L3176.14161,1325.52198L3173.02163,1339.322L3167.86166,1349.40201L3166.90166,1351.32202L3153.46174,1365.72204
				L3147.22178,1372.44205L3143.8618,1376.04205L3126.5819,1386.00207L3101.86204,1397.40208L3086.74213,1409.7621L3071.98221,1423.80212
				L3067.18224,1436.88214L3061.30228,1451.40216L3054.82231,1459.92218L3044.86237,1469.28219L3034.18243,1474.6822L3029.98246,1469.88219
				L3027.22247,1461.00218L3025.54248,1450.32216L3020.74251,1443.84215L3016.66253,1437.60214L3005.5026,1438.68215L3002.50262,1442.76215
				L2996.38265,1449.60216L2986.30271,1453.80217L2979.10275,1459.20218L2969.86281,1465.80219L2960.86286,1469.28219L2950.90292,1482.24221
				L2944.78295,1482.60221L2930.98303,1482.96221L2913.46313,1487.40222L2902.4232,1487.16222L2885.2633,1475.4022L2871.22338,1469.88219
				L2863.90342,1468.92219L2847.46351,1468.20219L2823.70365,1469.88219L2819.98367,1478.1622L2809.66373,1482.60221L2803.06377,1486.08222
				L2794.54382,1497.12223L2787.22386,1509.12225L2785.18387,1515.96226L2791.42384,1529.76228L2791.06384,1540.8023L2785.18387,1555.92232
				L2777.26392,1571.64234L2763.224,1592.28238L2754.94405,1605.36239L2747.38409,1635.00244L2740.54413,1635.00244L2725.78422,1644.96245
				L2720.86425,1653.48247L2716.66427,1658.76247L2712.3443,1664.16248L2713.90429,1672.32249L2715.10428,1677.9625L2727.10421,1694.04253
				L2733.58417,1700.28254L2738.14415,1709.52255L2744.86411,1721.28257L2748.34409,1727.64258L2751.94407,1735.32259L2746.7841,1744.3226
				L2734.90417,1749.36261L2729.8642,1761.24263L2726.02422,1774.92265L2722.18424,1787.40267L2713.90429,1794.12268L2698.54438,1798.68268
				L2686.42445,1805.04269L2679.70449,1806.36269L2679.58449,1806.24269L2668.18455,1804.68269L2653.78464,1798.92268L2640.70471,1788.36267
				L2636.50474,1782.96266L2631.10477,1773.12264L2620.42483,1763.88263L2619.58483,1763.16263L2612.86487,1768.56264L2601.94494,1771.44264
				L2587.66502,1769.88264L2579.98506,1754.52262L2575.78509,1747.20261L2564.62515,1737.96259L2547.70525,1730.28258L2531.62534,1725.48257
				L2533.54533,1714.56256L2533.54533,1710.48255L2533.54533,1700.52254L2531.98534,1693.44253L2520.46541,1687.08252L2514.46544,1686.72252
				L2506.42549,1679.76251L2499.10553,1672.68249L2495.86555,1665.96248L2489.74559,1662.48248L2481.22563,1662.48248L2466.94572,1651.80246
				L2466.10572,1651.32246L2449.90582,1646.76246L2446.54584,1644.60245L2442.22586,1641.60245L2420.38599,1633.32244L2405.02608,1619.28242
				L2391.46615,1614.48241L2381.74621,1611.4824L2376.58624,1610.1624L2373.46626,1609.4424L2366.3863,1609.2024L2356.66636,1609.2024
				L2344.54643,1610.1624L2336.50647,1610.1624L2327.50652,1614.24241L2317.18658,1616.28241L2300.38668,1611.7224L2293.42672,1606.6824
				L2280.8268,1598.64238L2270.26686,1594.32238L2265.82688,1592.40238L2255.74694,1582.80236L2247.70699,1573.08235L2242.18702,1567.80234
				L2227.18711,1561.08233L2214.34718,1557.96232L2194.54729,1553.16232L2192.50731,1552.56232L2182.54736,1549.68231L2168.98744,1548.48231
				L2151.22755,1550.04231L2127.70768,1544.8823L2127.34768,1544.7623L2121.82772,1543.6823L2111.50778,1537.68229L2100.46784,1531.20228
				L2093.74788,1524.96227L2081.62795,1519.20227L2073.58799,1516.68226L2065.30804,1512.84226L2057.02809,1506.84225L2053.06811,1500.60224
				L2047.06815,1496.04223L2035.54822,1494.00223L2030.50824,1496.04223L2023.18829,1497.12223L2018.62831,1496.04223L2018.26832,1496.04223
				L2007.10838,1497.84223L1993.66846,1500.12224L1991.86847,1500.36224L1982.86852,1501.56224L1976.02856,1504.32224L1968.5886,1508.64225
				L1954.18869,1503.84224L1944.94874,1503.84224L1935.94879,1505.64225L1928.86883,1510.08225L1920.58888,1513.68226L1904.74897,1516.32226
				L1880.98911,1528.92228L1877.02913,1533.84229L1876.18914,1539.0023L1876.42914,1545.0023L1876.42914,1549.56231L1871.86916,1559.76233
				L1868.98918,1568.28234L1864.6692,1575.72235L1863.34921,1577.76235L1846.90931,1605.00239L1841.38934,1611.4824L1836.82937,1619.28242
				L1833.70938,1631.28243L1828.54941,1641.72245L1821.82945,1646.88246L1814.0295,1652.64247L1802.74956,1662.48248L1797.34959,1670.52249
				L1791.34963,1674.3625L1784.14967,1677.4825L1779.7097,1689.12252L1771.06975,1696.56253L1766.98977,1702.92254L1760.62981,1705.80254
				L1746.34989,1710.60255L1739.62993,1710.12255L1736.26995,1709.76255L1734.82996,1707.96255L1730.38998,1707.48255L1724.39002,1706.28255
				L1718.15005,1706.28255L1710.5901,1710.36255L1708.19011,1710.84255L1707.71011,1711.32255L1700.15016,1716.96256L1697.51017,1720.32257
				L1693.91019,1724.88257L1692.7102,1727.52258L1693.67019,1729.44258L1694.15019,1732.44258L1697.99017,1737.24259L1698.23017,1745.6426
				L1696.55018,1753.92262L1689.35022,1767.24264L1689.59022,1777.80265L1690.31021,1788.48267L1688.87022,1795.92268L1679.27028,1797.84268
				L1673.99031,1798.92268L1662.11038,1794.72268L1660.91038,1794.36268L1650.71044,1785.72266L1636.55053,1783.68266L1622.03061,1780.92266
				L1613.03066,1780.92266L1608.83069,1783.32266L1608.71069,1783.32266L1608.59069,1783.44266L1607.39069,1784.64266L1601.75073,1790.04267
				L1589.99079,1797.60268L1579.31086,1801.32269L1571.5109,1800.48269L1570.43091,1800.48269L1563.23095,1800.24269L1562.87095,1800.24269
				L1562.39095,1800.24269L1551.59102,1803.24269L1550.39102,1803.48269L1550.27102,1803.60269L1550.15103,1803.60269L1549.79103,1803.72269
				L1542.35107,1810.5627L1539.35109,1813.3227L1526.03117,1822.20272L1518.59121,1828.08273L1502.2713,1840.92275L1494.71135,1847.28276
				L1490.99137,1855.92277L1489.07138,1861.80278L1482.59142,1868.88279L1480.79143,1870.80279L1478.51144,1872.60279L1476.83145,1872.72279
				L1467.11151,1877.0428L1459.43155,1883.64281L1458.35156,1884.48281L1458.35156,1885.32281L1458.11156,1889.88282L1458.59156,1891.32282
				L1460.15155,1896.00283L1461.83154,1901.16284L1462.79153,1904.88284L1464.11152,1906.56284L1464.23152,1906.56284L1466.27151,1908.12285
				L1466.39151,1908.24285L1467.23151,1909.80285L1467.23151,1909.92285L1466.63151,1913.52285L1466.15151,1915.80286L1465.07152,1920.00286
				L1463.03153,1925.52287L1462.91153,1925.76287L1462.91153,1925.88287L1462.67153,1931.16288L1461.59154,1938.00289L1461.35154,1938.00289
				L1459.79155,1938.24289L1459.55155,1938.24289L1459.31155,1938.24289L1458.83155,1938.36289L1458.71155,1938.36289L1458.59156,1938.36289
				L1458.47156,1938.36289L1452.59159,1939.08289L1438.67167,1944.1229L1431.95171,1946.5229L1424.27175,1945.9229L1423.19176,1945.4429
				L1419.59178,1944.0029L1417.67179,1942.3229L1409.15184,1935.36289L1408.55185,1934.28289L1406.03186,1929.48288L1401.59189,1920.48286
				L1374.47204,1920.00286L1363.19211,1919.40286L1354.67216,1910.52285L1347.4722,1898.28283L1335.11227,1878.3628L1335.47227,1875.6028
				L1335.35227,1875.0028L1335.35227,1874.7628L1334.63227,1871.28279L1334.39227,1869.60279L1333.43228,1867.44279L1332.59229,1865.76278
				L1332.35229,1865.16278L1330.1923,1860.48278L1323.35234,1854.48277L1322.03235,1848.36276L1319.63236,1843.08275L1313.87239,1838.28274
				L1313.63239,1838.16274L1313.1524,1837.32274L1312.7924,1836.48274L1309.43242,1829.76273L1308.11243,1829.04273L1305.95244,1827.84273
				L1300.07247,1826.76272L1291.91252,1825.32272L1281.47258,1817.40271L1279.07259,1814.28271L1273.31263,1806.8427L1268.39266,1800.60269
				L1257.71272,1797.84268L1255.67273,1783.68266L1254.95273,1780.80266L1254.11274,1777.68265L1252.43275,1776.48265L1251.83275,1776.00265
				L1247.99277,1761.96263L1242.23281,1753.80262L1237.91283,1750.68261L1237.19284,1750.08261L1232.39287,1746.60261L1229.27288,1745.8826
				L1228.91289,1745.7626L1225.19291,1744.9226L1221.71293,1742.2826L1219.79294,1740.8426L1208.873,1744.9226L1202.27304,1746.2426
				L1201.91304,1746.2426L1194.83308,1747.68261L1189.91311,1748.76261L1189.79311,1748.76261L1185.35314,1749.72261L1180.79316,1750.68261
				L1179.11317,1751.04261L1167.11324,1753.92262L1166.87324,1753.92262L1162.19327,1755.00262L1161.71327,1755.12262L1133.15344,1767.72264
				L1123.1935,1765.68263L1101.35362,1755.84262L1079.63375,1742.5226L1079.51375,1742.5226L1067.99382,1740.4826L1059.11387,1741.5626
				L1053.8339,1741.5626L1045.19395,1741.5626L1032.83402,1738.80259L1026.11406,1741.2026L1014.47413,1744.9226L1005.23418,1744.9226
				L994.31424,1741.8026L985.1943,1737.36259L981.95432,1733.52259L981.71432,1733.28259L967.0744,1731.96258L956.15446,1739.76259
				L950.3945,1752.12261L947.27452,1760.64263L941.87455,1774.56265L937.79457,1788.60267L935.99458,1792.32267L929.15462,1807.6827
				L922.79466,1814.88271L918.59468,1814.04271L918.47468,1814.04271L908.03474,1812.1227L900.23479,1803.96269L886.19487,1790.28267
				L884.99488,1788.60267L884.03488,1787.28267L878.99491,1780.68266L878.39491,1780.08266L878.27492,1779.84265L878.15492,1779.72265
				L866.75498,1769.16264L846.3551,1757.16262L841.31513,1753.32262L843.83511,1740.7226L844.67511,1736.40259L846.4751,1727.76258
				L845.7551,1725.36257L843.47512,1717.32256L840.47513,1706.88255L839.99514,1705.92254L839.87514,1705.80254L831.47519,1688.88252
				L831.47519,1688.76252L829.3152,1684.44251L829.0752,1684.20251L828.9552,1683.96251L828.9552,1683.84251L828.5952,1683.00251
				L827.15521,1681.32251L827.03521,1681.32251L827.03521,1681.20251L817.55527,1670.52249L817.55527,1670.40249L817.43527,1670.40249
				L814.31529,1666.80249L814.19529,1666.56249L813.71529,1666.08249L813.59529,1665.96248L807.59532,1659.12247L804.83534,1656.36247
				L804.47534,1656.00247L799.43537,1650.96246L797.87538,1649.40246L795.83539,1647.36246L795.71539,1647.24246L795.59539,1647.00246
				L795.59539,1646.88246L795.59539,1646.76246L795.47539,1646.64246L795.47539,1646.76246L795.2354,1646.40246L790.07543,1635.84244
				L789.95543,1635.72244L788.51544,1632.84244L788.39544,1632.60244L788.39544,1632.48244L788.27544,1632.36243L786.59545,1629.00243
				L786.47545,1628.64243L784.79546,1625.52242L783.71546,1623.36242L765.83557,1620.36242L763.67558,1619.88242L753.71564,1617.84241
				L751.91565,1617.48241L751.19565,1617.36241L751.07565,1617.36241L750.95565,1617.36241L739.67572,1608.8424L739.55572,1608.8424
				L738.95572,1608.3624L736.07574,1603.20239L735.95574,1603.08239L735.23574,1601.76239L734.99575,1601.40239L729.95577,1592.64238
				L729.95577,1592.52238L727.07579,1587.48237L721.91582,1581.12236L721.67582,1580.76236L719.87583,1578.48235L716.27585,1574.04235
				L715.07586,1572.60235L714.11587,1571.88234L713.87587,1571.88234L713.51587,1571.64234L712.55587,1571.04234L709.91589,1569.36234
				L704.99592,1566.24234L695.75597,1560.48233L693.71598,1559.16233L691.196,1557.60232L692.39599,1551.48231L694.19598,1542.7223
				L690.836,1542.0023L680.15606,1539.8423L680.03606,1539.8423L679.91606,1539.8423L679.31607,1539.7223L668.39613,1534.20229L
				668.15613,1534.20229L655.43621,1527.84228L653.63622,1526.64228L646.43626,1521.84227L638.7563,1518.00226L632.87634,1515.00226
				L632.63634,1514.88226L628.55636,1512.84226L627.71637,1512.36226L627.59637,1512.36226L622.5564,1509.24225L613.67645,1503.96224
				L602.87651,1499.16224L602.75651,1499.04224L594.23656,1495.32223L587.9966,1492.56223L587.8766,1492.44223L586.7966,1491.96223
				L584.15662,1490.04222L584.03662,1489.92222L581.87663,1488.24222L581.75663,1488.24222L580.31664,1487.16222L580.19664,1487.04222
				L576.35666,1484.16221L576.23666,1484.04221L574.79667,1482.96221L570.3567,1479.48221L559.91676,1471.08219L541.91686,1468.08219
				L534.47691,1466.52219L534.35691,1466.52219L534.23691,1466.52219L527.03695,1465.08219L515.15702,1477.0822L497.99712,1465.56219
				L497.87712,1465.56219L497.15712,1465.08219L497.03712,1464.96219L493.55714,1462.68218L493.31714,1462.56218L488.27717,1459.08218
				L480.71722,1455.36217L480.59722,1455.24217L480.47722,1455.24217L477.23724,1453.56217L463.79732,1446.96216L463.67732,1446.84216
				L458.39735,1444.20215L450.71739,1442.04215L450.59739,1442.04215L444.95742,1440.36215L444.83743,1440.36215L437.51747,1438.20215
				L435.83748,1434.96214L435.83748,1434.84214L434.51748,1432.44214L434.51748,1432.32214L431.6375,1426.44213L431.5175,1426.32213
				L430.43751,1424.04212L430.31751,1423.92212L428.51752,1420.32212L418.55758,1415.28211L415.79759,1413.96211L413.7576,1412.88211
				L410.63762,1411.32211L406.91764,1405.6821L406.91764,1406.8821L404.03766,1415.64211L403.07767,1418.52212L400.91768,1424.88213
				L400.31768,1426.08213L399.83769,1427.40213L399.71769,1427.52213L399.59769,1427.88213L396.8377,1434.48214L391.91773,1445.76216
				L388.19775,1447.80216L388.07775,1447.92216L382.19779,1451.04216L382.07779,1451.16216L378.83781,1452.84217L378.71781,1452.96217
				L377.15782,1453.80217L377.03782,1453.80217L376.91782,1453.92217L374.75783,1455.12217L374.51783,1455.24217L371.15785,1457.04217
				L368.87786,1458.24218L364.79789,1460.52218L364.31789,1460.76218L364.19789,1460.76218L358.07793,1464.12218L357.71793,1464.36218
				L329.63809,1479.60221L322.31813,1477.5622L319.67815,1476.8422L317.39816,1476.1222L305.87823,1473.0022L303.47824,1471.5622
				L303.35824,1471.5622L302.99825,1471.32219L302.87825,1471.20219L295.07829,1466.52219L294.95829,1466.52219L289.91832,1463.40218
				L285.95834,1461.12218L285.11835,1453.56217L285.11835,1453.44217L284.63835,1449.24216L284.87835,1448.76216L284.99835,1448.64216
				L293.8783,1431.96214L302.03825,1414.32211L302.63825,1412.88211L306.23823,1405.0821L304.67824,1403.40209L292.9183,1391.28208
				L283.91836,1382.04206L278.75839,1376.64205L278.63839,1376.52205L274.07841,1371.84205L273.95841,1371.72205L269.75844,1367.28204
				L269.51844,1367.16204L264.71847,1362.24203L264.71847,1362.12203L261.35849,1358.64203L261.23849,1358.52203L256.91851,1354.08202
				L256.67851,1353.84202L255.35852,1352.52202L254.99852,1352.04202L254.27853,1351.32202L251.03855,1343.042L250.31855,1341.242
				L247.67857,1334.16199L248.63856,1328.04198L248.63856,1327.80198L250.91855,1313.88196L251.63854,1309.08195L251.39854,1304.04195
				L251.39854,1303.20194L251.27855,1301.76194L251.27855,1301.64194L251.27855,1301.16194L251.03855,1295.88193L251.03855,1295.40193
				L251.03855,1295.16193L250.91855,1293.72193L250.55855,1284.84192L250.31855,1281.12191L250.31855,1280.04191L245.87858,1270.08189
				L245.75858,1269.84189L244.67858,1267.56189L244.43859,1266.96189L243.11859,1264.08189L238.43862,1253.52187L226.91869,1243.32185
				L224.7587,1241.52185L221.27872,1238.40185L219.83873,1232.16184L218.03874,1223.40182L217.91874,1223.28182L217.67874,1222.08182
				L216.59875,1216.92182L216.59875,1216.68181L216.47875,1216.56181L216.23875,1215.48181L215.63875,1212.60181L215.15875,1210.20181
				L203.75882,1212.72181L200.15884,1213.44181L197.63886,1214.04181L186.83892,1209.8418L181.31895,1207.6818L172.439,1204.3218
				L167.03903,1202.28179L163.79905,1200.96179L158.03909,1198.80179L157.07909,1198.20179L158.39908,1197.24179L160.67907,1195.56178
				L162.23906,1188.96177L162.95906,1186.44177L164.63905,1179.60176L165.95904,1174.44175L167.15903,1169.28174L167.75903,1168.08174
				L169.07902,1164.96174L177.23897,1145.88171L185.15893,1127.52168L185.15893,1103.64165L194.03888,1070.7616L208.91879,1061.88158
				L209.03879,1061.88158L220.91872,1046.88156L232.91865,1038.00155L244.79858,1023.00153L253.79853,1008.1215L266.39846,980.88146
				L271.67843,969.36145L281.99837,959.04143L283.67836,957.36143L288.59833,945.00141L289.55832,942.48141L297.83828,940.4414L
				301.55825,939.4814L319.43815,951.36142L322.67813,952.68142L334.31806,957.36143L349.31798,957.36143L370.19786,963.36144L373.43784,963.36144
				L381.47779,963.36144L385.07777,963.36144L403.07767,963.36144L417.95758,963.36144L432.83749,963.36144L448.4374,965.52144L
				472.19727,966.12144L473.39726,966.24144L493.31714,954.48142L512.15704,949.68142L525.83696,949.68142L528.35694,949.68142L
				531.95692,951.00142L544.79685,955.56143L551.39681,963.60144L559.67676,973.80145L575.39667,979.92146L581.99663,975.24145L
				584.39662,952.44142L582.23663,936.8414L582.11663,936.4814L581.99663,934.92139L580.07664,932.40139L571.31669,920.88137L556.91678,900.24134
				L553.79679,888.12132L553.0768,872.6413L553.0768,855.84128L549.35682,842.76126L549.35682,842.40126L545.51684,829.08124L541.43687,818.04122
				L541.43687,803.2812L545.51684,792.96118L564.11673,773.28115L570.95669,756.48113L577.91665,744.48111L633.59633,738.2411L641.75628,749.16112
				L654.47621,765.96114L658.79619,769.80115L672.8361,782.28117L689.63601,797.04119L692.27599,798.36119L699.23595,801.8412L717.47585,811.08121
				L722.27582,813.60121L736.67574,812.40121L746.51568,811.56121L776.03551,809.04121L808.19532,806.2812L812.3953,832.44124L815.99528,834.84125
				L837.59515,848.76127L851.51507,857.88128L872.51495,861.36129L882.11489,862.56129L902.03478,865.56129L912.71472,867.24129
				L940.55455,870.0013L941.99455,869.7613L944.75453,866.52129L965.99441,856.56128L978.71433,858.60128L991.79426,855.12128L1001.1542,850.68127
				L1012.07414,844.44126L1012.19414,844.56126L1016.87411,844.92126L1058.27387,848.28127L1058.51387,848.28127L1072.91379,851.04127
				L1081.91374,856.20128L1082.63373,857.88128L1085.99371,866.88129L1094.27366,876.48131L1106.99359,876.48131L1118.03353,880.20131
				L1130.75345,880.20131L1147.55336,888.84133L1170.23323,902.64135L1190.27311,917.04137L1210.19299,932.16139L1237.67283,943.92141
				L1249.55277,947.64141L1251.71275,948.36141L1258.31272,953.28142L1268.63266,961.08143L1276.19261,962.40144L1276.79261,962.16144
				L1305.11244,952.08142L1316.75238,947.28141L1323.95234,937.6814L1333.55228,932.88139L1337.75226,926.04138L1349.39219,926.28138
				L1358.87213,932.64139L1361.03212,934.20139L1361.15212,934.20139L1374.11204,930.12139L1379.63201,929.04139L1383.23199,927.36138
				L1391.39194,923.52138L1407.11185,922.92138L1420.19178,924.24138L1433.2717,932.88139L1439.87166,947.64141L1440.95166,953.16142
				L1441.91165,957.60143L1445.75163,958.44143L1452.59159,960.00143L1457.03156,960.12143L1469.0315,960.36143L1475.27146,957.60143
				L1495.19134,926.04138L1506.59128,915.36137L1513.79124,905.04135L1523.75118,894.36133L1527.47116,889.92133L1535.75111,888.84133
				L1541.99107,879.96131L1550.15103,870.6013L1555.071,862.68129L1558.07098,853.08127L1571.8709,843.84126L1578.35086,839.04125
				L1629.95056,845.16126L1659.23039,849.96127L1670.15033,859.32128L1671.95032,866.16129L1677.11029,875.04131L1678.07028,877.56131
				L1679.51028,880.92131L1692.2302,890.28133L1708.31011,895.44134L1709.8701,895.32134L1727.75,894.60133L1734.10996,894.36133
				L1755.10984,895.08134L1755.22984,894.96134L1770.70975,892.92133L1772.02974,892.80133L1794.70961,892.92133L1800.10958,905.04135
				L1820.50946,920.40137L1825.54943,924.24138L1839.70935,928.68139L1875.46914,934.92139L1893.34904,942.12141L1920.10888,959.88143
				L1924.90886,963.12144L1941.10876,983.76147L1945.90873,996.84149L1947.10873,1008.1215L1947.34873,1010.16151L1953.46869,1018.08152
				L1953.70869,1018.08152L1963.78863,1016.04152L1967.86861,1014.12151L1981.66853,1007.5215L1994.02846,1005.3615L2014.66834,1007.5215
				L2046.34815,1006.8015L2052.46812,1005.7215L2079.70796,1003.6815L2104.06782,1005.3615L2115.82775,998.16149L2132.98765,993.00148
				L2146.06758,985.08147L2156.74751,983.04147L2164.90747,983.40147L2180.38738,977.52146L2195.14729,980.28146L2212.06719,972.72145
				L2224.06712,972.36145L2237.50705,976.92146L2254.66695,979.32146L2262.2269,982.32147L2273.62684,982.68147L2284.30677,978.60146
				L2292.82673,975.84146L2315.50659,966.60144L2332.0665,956.64143L2340.94645,950.40142L2351.26639,948.36141L2357.50635,954.12142
				L2360.86633,954.96142L2360.98633,954.96142L2366.7463,956.28143L2368.54629,960.72143L2368.78629,965.88144L2380.54622,973.44145
				L2388.46617,982.32147L2397.34612,993.72148L2399.14611,1005.7215L2395.66613,1014.36151L2390.50616,1018.44152L2380.90622,1032.60154
				L2379.70622,1036.92155L2379.10623,1039.08155L2377.78623,1047.00156L2379.82622,1054.56157L2380.90622,1058.40158L2382.10621,1060.20158
				L2387.02618,1068.00159L2396.74612,1085.16162L2407.66606,1101.72164L2416.66601,1097.88164L2428.06594,1090.20163L2431.42592,1087.92162
				L2437.30589,1086.60162L2448.94582,1082.76162L2455.54578,1070.7616L2467.90571,1052.16157L2475.46567,1039.44155L2491.90557,1014.00151
				L2497.42554,993.00148L2500.06553,985.68147L2509.18547,960.36143L2527.06537,943.56141L2535.22532,940.6814L2540.02529,939.0014
				L2540.50529,935.04139L2542.42528,919.08137L2542.42528,910.20136L2534.02533,899.52134L2532.82534,898.08134L2523.94539,887.16132
				L2523.94539,879.24131L2523.94539,879.12131L2523.94539,879.00131L2523.94539,866.16129L2526.70537,853.80127L2531.14535,840.72125
				L2524.30539,826.92123L2515.66544,817.32122L2512.54545,806.6412L2520.46541,790.20118L2530.78535,781.20117L2535.22532,776.76116
				L2551.06523,773.28115L2556.9452,771.96115L2572.42511,761.64114L2582.74505,752.40112L2585.50503,743.04111L2595.46497,745.80111
				L2605.42492,748.92112L2615.38486,743.76111L2629.42478,732.12109L2648.02467,717.24107L2671.06454,709.08106L2684.50446,699.36104
				L2688.58443,690.48103L2689.30443,674.28101L2697.58438,663.36099L2706.82433,645.48096z"/>
			<path clip-path="url(#SVG_CP_1)" fill="none" stroke="#000000" stroke-width="3.95998" stroke-miterlimit="10" stroke-linecap="round" stroke-linejoin="round" d="
				M2706.82433,645.48096L2720.26425,651.60097L2734.66417,649.92097L2740.90413,650.64097L2751.22407,655.68098L2761.18401,657.84098
				L2766.34398,663.00099L2777.98392,665.04099L2787.94386,676.08101L2791.78384,686.04102L2795.86381,692.16103L2803.78377,699.36104
				L2803.78377,710.04106L2803.78377,717.24107L2812.66372,727.56109L2816.86369,737.8811L2822.38366,745.80111L2816.1437,766.80114
				L2816.50369,775.08116L2824.06365,780.84116L2830.06362,783.36117L2831.62361,783.96117L2841.94355,787.80118L2852.62348,790.20118
				L2858.50345,795.96119L2865.34341,798.48119L2874.22336,809.76121L2883.9433,816.00122L2897.26323,810.12121L2906.98317,812.88121
				L2922.34308,813.60121L2937.82299,814.20121L2950.54292,813.24121L2957.86288,811.44121L2972.98279,817.68122L2973.94278,831.72124
				L2986.66271,846.60126L2996.02265,849.60127L2995.78266,850.92127L2999.74263,849.60127L3020.38251,849.60127L3030.70245,855.48128
				L3034.18243,855.84128L3042.70238,856.56128L3049.30235,858.96128L3061.90227,857.88128L3079.54217,856.56128L3100.90205,857.16128
				L3108.10201,863.04129L3116.62196,866.88129L3130.06188,864.84129L3142.7818,870.9613L3155.14173,874.0813L3158.98171,882.36132
				L3162.10169,891.96133L3162.70169,896.04134L3172.42163,900.60134L3175.42162,910.56136L3184.42156,923.28138L3191.62152,919.08137
				L3206.38144,907.44135L3218.38137,899.88134L3231.46129,895.08134L3243.58122,893.28133L3248.74119,904.68135L3255.58115,914.64136
				L3269.02107,920.52137L3276.22103,930.12139L3284.14099,948.00141L3289.90095,954.84142L3295.06092,962.76144L3292.06094,973.08145
				L3292.30094,976.56146L3296.50091,978.24146L3298.9009,981.00146L3296.50091,985.80147L3290.62095,986.52147L3287.86096,990.60148
				L3290.62095,998.16149L3284.14099,1005.1215L3276.58103,1018.08152L3274.78104,1024.32153L3264.2211,1035.72155L3254.14116,1042.56156
				L3245.62121,1063.20159L3244.90121,1071.1216L3244.18122,1077.96161L3230.5013,1096.20164L3232.54128,1101.00164L3241.18123,1110.60166
				L3246.5812,1120.92167L3259.30113,1129.20168L3258.70113,1141.5617L3265.54109,1155.72172L3269.38107,1166.28174L3274.42104,1170.84175
				L3277.54102,1176.60176L3277.18103,1183.56177L3275.50104,1191.12178L3266.26109,1197.24179L3261.46112,1205.8818L3257.98114,1210.68181
				L3246.3412,1214.76181L3229.4213,1222.68182L3213.94139,1244.04186L3208.78142,1257.72188L3209.50142,1266.00189L3208.78142,1277.76191
				L3197.14149,1289.40192L3191.26152,1293.48193L3179.98159,1306.92195L3176.14161,1325.52198L3173.02163,1339.322L3167.86166,1349.40201
				L3166.90166,1351.32202L3153.46174,1365.72204L3147.22178,1372.44205L3143.8618,1376.04205L3126.5819,1386.00207L3101.86204,1397.40208
				L3086.74213,1409.7621L3071.98221,1423.80212L3067.18224,1436.88214L3061.30228,1451.40216L3054.82231,1459.92218L3044.86237,1469.28219
				L3034.18243,1474.6822L3029.98246,1469.88219L3027.22247,1461.00218L3025.54248,1450.32216L3020.74251,1443.84215L3016.66253,1437.60214
				L3005.5026,1438.68215L3002.50262,1442.76215L2996.38265,1449.60216L2986.30271,1453.80217L2979.10275,1459.20218L2969.86281,1465.80219
				L2960.86286,1469.28219L2950.90292,1482.24221L2944.78295,1482.60221L2930.98303,1482.96221L2913.46313,1487.40222L2902.4232,1487.16222
				L2885.2633,1475.4022L2871.22338,1469.88219L2863.90342,1468.92219L2847.46351,1468.20219L2823.70365,1469.88219L2819.98367,1478.1622
				L2809.66373,1482.60221L2803.06377,1486.08222L2794.54382,1497.12223L2787.22386,1509.12225L2785.18387,1515.96226L2791.42384,1529.76228
				L2791.06384,1540.8023L2785.18387,1555.92232L2777.26392,1571.64234L2763.224,1592.28238L2754.94405,1605.36239L2747.38409,1635.00244
				L2740.54413,1635.00244L2725.78422,1644.96245L2720.86425,1653.48247L2716.66427,1658.76247L2712.3443,1664.16248L2713.90429,1672.32249
				L2715.10428,1677.9625L2727.10421,1694.04253L2733.58417,1700.28254L2738.14415,1709.52255L2744.86411,1721.28257L2748.34409,1727.64258
				L2751.94407,1735.32259L2746.7841,1744.3226L2734.90417,1749.36261L2729.8642,1761.24263L2726.02422,1774.92265L2722.18424,1787.40267
				L2713.90429,1794.12268L2698.54438,1798.68268L2686.42445,1805.04269L2679.70449,1806.36269L2679.58449,1806.24269L2668.18455,1804.68269
				L2653.78464,1798.92268L2640.70471,1788.36267L2636.50474,1782.96266L2631.10477,1773.12264L2620.42483,1763.88263L2619.58483,1763.16263
				L2612.86487,1768.56264L2601.94494,1771.44264L2587.66502,1769.88264L2579.98506,1754.52262L2575.78509,1747.20261L2564.62515,1737.96259
				L2547.70525,1730.28258L2531.62534,1725.48257L2533.54533,1714.56256L2533.54533,1710.48255L2533.54533,1700.52254L2531.98534,1693.44253
				L2520.46541,1687.08252L2514.46544,1686.72252L2506.42549,1679.76251L2499.10553,1672.68249L2495.86555,1665.96248L2489.74559,1662.48248
				L2481.22563,1662.48248L2466.94572,1651.80246L2466.10572,1651.32246L2449.90582,1646.76246L2446.54584,1644.60245L2442.22586,1641.60245
				L2420.38599,1633.32244L2405.02608,1619.28242L2391.46615,1614.48241L2381.74621,1611.4824L2376.58624,1610.1624L2373.46626,1609.4424
				L2366.3863,1609.2024L2356.66636,1609.2024L2344.54643,1610.1624L2336.50647,1610.1624L2327.50652,1614.24241L2317.18658,1616.28241
				L2300.38668,1611.7224L2293.42672,1606.6824L2280.8268,1598.64238L2270.26686,1594.32238L2265.82688,1592.40238L2255.74694,1582.80236
				L2247.70699,1573.08235L2242.18702,1567.80234L2227.18711,1561.08233L2214.34718,1557.96232L2194.54729,1553.16232L2192.50731,1552.56232
				L2182.54736,1549.68231L2168.98744,1548.48231L2151.22755,1550.04231L2127.70768,1544.8823L2127.34768,1544.7623L2121.82772,1543.6823
				L2111.50778,1537.68229L2100.46784,1531.20228L2093.74788,1524.96227L2081.62795,1519.20227L2073.58799,1516.68226L2065.30804,1512.84226
				L2057.02809,1506.84225L2053.06811,1500.60224L2047.06815,1496.04223L2035.54822,1494.00223L2030.50824,1496.04223L2023.18829,1497.12223
				L2018.62831,1496.04223L2018.26832,1496.04223L2007.10838,1497.84223L1993.66846,1500.12224L1991.86847,1500.36224L1982.86852,1501.56224
				L1976.02856,1504.32224L1968.5886,1508.64225L1954.18869,1503.84224L1944.94874,1503.84224L1935.94879,1505.64225L1928.86883,1510.08225
				L1920.58888,1513.68226L1904.74897,1516.32226L1880.98911,1528.92228L1877.02913,1533.84229L1876.18914,1539.0023L1876.42914,1545.0023
				L1876.42914,1549.56231L1871.86916,1559.76233L1868.98918,1568.28234L1864.6692,1575.72235L1863.34921,1577.76235L1846.90931,1605.00239
				L1841.38934,1611.4824L1836.82937,1619.28242L1833.70938,1631.28243L1828.54941,1641.72245L1821.82945,1646.88246L1814.0295,1652.64247
				L1802.74956,1662.48248L1797.34959,1670.52249L1791.34963,1674.3625L1784.14967,1677.4825L1779.7097,1689.12252L1771.06975,1696.56253
				L1766.98977,1702.92254L1760.62981,1705.80254L1746.34989,1710.60255L1739.62993,1710.12255L1736.26995,1709.76255L1734.82996,1707.96255
				L1730.38998,1707.48255L1724.39002,1706.28255L1718.15005,1706.28255L1710.5901,1710.36255L1708.19011,1710.84255L1707.71011,1711.32255
				L1700.15016,1716.96256L1697.51017,1720.32257L1693.91019,1724.88257L1692.7102,1727.52258L1693.67019,1729.44258L1694.15019,1732.44258
				L1697.99017,1737.24259L1698.23017,1745.6426L1696.55018,1753.92262L1689.35022,1767.24264L1689.59022,1777.80265L1690.31021,1788.48267
				L1688.87022,1795.92268L1679.27028,1797.84268L1673.99031,1798.92268L1662.11038,1794.72268L1660.91038,1794.36268L1650.71044,1785.72266
				L1636.55053,1783.68266L1622.03061,1780.92266L1613.03066,1780.92266L1608.83069,1783.32266L1608.71069,1783.32266L1608.59069,1783.44266
				L1607.39069,1784.64266L1601.75073,1790.04267L1589.99079,1797.60268L1579.31086,1801.32269L1571.5109,1800.48269L1570.43091,1800.48269
				L1563.23095,1800.24269L1562.87095,1800.24269L1562.39095,1800.24269L1551.59102,1803.24269L1550.39102,1803.48269L1550.27102,1803.60269
				L1550.15103,1803.60269L1549.79103,1803.72269L1542.35107,1810.5627L1539.35109,1813.3227L1526.03117,1822.20272L1518.59121,1828.08273
				L1502.2713,1840.92275L1494.71135,1847.28276L1490.99137,1855.92277L1489.07138,1861.80278L1482.59142,1868.88279L1480.79143,1870.80279
				L1478.51144,1872.60279L1476.83145,1872.72279L1467.11151,1877.0428L1459.43155,1883.64281L1458.35156,1884.48281L1458.35156,1885.32281
				L1458.11156,1889.88282L1458.59156,1891.32282L1460.15155,1896.00283L1461.83154,1901.16284L1462.79153,1904.88284L1464.11152,1906.56284
				L1464.23152,1906.56284L1466.27151,1908.12285L1466.39151,1908.24285L1467.23151,1909.80285L1467.23151,1909.92285L1466.63151,1913.52285
				L1466.15151,1915.80286L1465.07152,1920.00286L1463.03153,1925.52287L1462.91153,1925.76287L1462.91153,1925.88287L1462.67153,1931.16288
				L1461.59154,1938.00289L1461.35154,1938.00289L1459.79155,1938.24289L1459.55155,1938.24289L1459.31155,1938.24289L1458.83155,1938.36289
				L1458.71155,1938.36289L1458.59156,1938.36289L1458.47156,1938.36289L1452.59159,1939.08289L1438.67167,1944.1229L1431.95171,1946.5229
				L1424.27175,1945.9229L1423.19176,1945.4429L1419.59178,1944.0029L1417.67179,1942.3229L1409.15184,1935.36289L1408.55185,1934.28289
				L1406.03186,1929.48288L1401.59189,1920.48286L1374.47204,1920.00286L1363.19211,1919.40286L1354.67216,1910.52285L1347.4722,1898.28283
				L1335.11227,1878.3628L1335.47227,1875.6028L1335.35227,1875.0028L1335.35227,1874.7628L1334.63227,1871.28279L1334.39227,1869.60279
				L1333.43228,1867.44279L1332.59229,1865.76278L1332.35229,1865.16278L1330.1923,1860.48278L1323.35234,1854.48277L1322.03235,1848.36276
				L1319.63236,1843.08275L1313.87239,1838.28274L1313.63239,1838.16274L1313.1524,1837.32274L1312.7924,1836.48274L1309.43242,1829.76273
				L1308.11243,1829.04273L1305.95244,1827.84273L1300.07247,1826.76272L1291.91252,1825.32272L1281.47258,1817.40271L1279.07259,1814.28271
				L1273.31263,1806.8427L1268.39266,1800.60269L1257.71272,1797.84268L1255.67273,1783.68266L1254.95273,1780.80266L1254.11274,1777.68265
				L1252.43275,1776.48265L1251.83275,1776.00265L1247.99277,1761.96263L1242.23281,1753.80262L1237.91283,1750.68261L1237.19284,1750.08261
				L1232.39287,1746.60261L1229.27288,1745.8826L1228.91289,1745.7626L1225.19291,1744.9226L1221.71293,1742.2826L1219.79294,1740.8426
				L1208.873,1744.9226L1202.27304,1746.2426L1201.91304,1746.2426L1194.83308,1747.68261L1189.91311,1748.76261L1189.79311,1748.76261
				L1185.35314,1749.72261L1180.79316,1750.68261L1179.11317,1751.04261L1167.11324,1753.92262L1166.87324,1753.92262L1162.19327,1755.00262
				L1161.71327,1755.12262L1133.15344,1767.72264L1123.1935,1765.68263L1101.35362,1755.84262L1079.63375,1742.5226L1079.51375,1742.5226
				L1067.99382,1740.4826L1059.11387,1741.5626L1053.8339,1741.5626L1045.19395,1741.5626L1032.83402,1738.80259L1026.11406,1741.2026
				L1014.47413,1744.9226L1005.23418,1744.9226L994.31424,1741.8026L985.1943,1737.36259L981.95432,1733.52259L981.71432,1733.28259
				L967.0744,1731.96258L956.15446,1739.76259L950.3945,1752.12261L947.27452,1760.64263L941.87455,1774.56265L937.79457,1788.60267
				L935.99458,1792.32267L929.15462,1807.6827L922.79466,1814.88271L918.59468,1814.04271L918.47468,1814.04271L908.03474,1812.1227
				L900.23479,1803.96269L886.19487,1790.28267L884.99488,1788.60267L884.03488,1787.28267L878.99491,1780.68266L878.39491,1780.08266
				L878.27492,1779.84265L878.15492,1779.72265L866.75498,1769.16264L846.3551,1757.16262L841.31513,1753.32262L843.83511,1740.7226
				L844.67511,1736.40259L846.4751,1727.76258L845.7551,1725.36257L843.47512,1717.32256L840.47513,1706.88255L839.99514,1705.92254
				L839.87514,1705.80254L831.47519,1688.88252L831.47519,1688.76252L829.3152,1684.44251L829.0752,1684.20251L828.9552,1683.96251
				L828.9552,1683.84251L828.5952,1683.00251L827.15521,1681.32251L827.03521,1681.32251L827.03521,1681.20251L817.55527,1670.52249
				L817.55527,1670.40249L817.43527,1670.40249L814.31529,1666.80249L814.19529,1666.56249L813.71529,1666.08249L813.59529,1665.96248
				L807.59532,1659.12247L804.83534,1656.36247L804.47534,1656.00247L799.43537,1650.96246L797.87538,1649.40246L795.83539,1647.36246
				L795.71539,1647.24246L795.59539,1647.00246L795.59539,1646.88246L795.59539,1646.76246L795.47539,1646.64246L795.47539,1646.76246
				L795.2354,1646.40246L790.07543,1635.84244L789.95543,1635.72244L788.51544,1632.84244L788.39544,1632.60244L788.39544,1632.48244
				L788.27544,1632.36243L786.59545,1629.00243L786.47545,1628.64243L784.79546,1625.52242L783.71546,1623.36242L765.83557,1620.36242
				L763.67558,1619.88242L753.71564,1617.84241L751.91565,1617.48241L751.19565,1617.36241L751.07565,1617.36241L750.95565,1617.36241
				L739.67572,1608.8424L739.55572,1608.8424L738.95572,1608.3624L736.07574,1603.20239L735.95574,1603.08239L735.23574,1601.76239
				L734.99575,1601.40239L729.95577,1592.64238L729.95577,1592.52238L727.07579,1587.48237L721.91582,1581.12236L721.67582,1580.76236
				L719.87583,1578.48235L716.27585,1574.04235L715.07586,1572.60235L714.11587,1571.88234L713.87587,1571.88234L713.51587,1571.64234
				L712.55587,1571.04234L709.91589,1569.36234L704.99592,1566.24234L695.75597,1560.48233L693.71598,1559.16233L691.196,1557.60232
				L692.39599,1551.48231L694.19598,1542.7223L690.836,1542.0023L680.15606,1539.8423L680.03606,1539.8423L679.91606,1539.8423L
				679.31607,1539.7223L668.39613,1534.20229L668.15613,1534.20229L655.43621,1527.84228L653.63622,1526.64228L646.43626,1521.84227
				L638.7563,1518.00226L632.87634,1515.00226L632.63634,1514.88226L628.55636,1512.84226L627.71637,1512.36226L627.59637,1512.36226
				L622.5564,1509.24225L613.67645,1503.96224L602.87651,1499.16224L602.75651,1499.04224L594.23656,1495.32223L587.9966,1492.56223
				L587.8766,1492.44223L586.7966,1491.96223L584.15662,1490.04222L584.03662,1489.92222L581.87663,1488.24222L581.75663,1488.24222
				L580.31664,1487.16222L580.19664,1487.04222L576.35666,1484.16221L576.23666,1484.04221L574.79667,1482.96221L570.3567,1479.48221
				L559.91676,1471.08219L541.91686,1468.08219L534.47691,1466.52219L534.35691,1466.52219L534.23691,1466.52219L527.03695,1465.08219
				L515.15702,1477.0822L497.99712,1465.56219L497.87712,1465.56219L497.15712,1465.08219L497.03712,1464.96219L493.55714,1462.68218
				L493.31714,1462.56218L488.27717,1459.08218L480.71722,1455.36217L480.59722,1455.24217L480.47722,1455.24217L477.23724,1453.56217
				L463.79732,1446.96216L463.67732,1446.84216L458.39735,1444.20215L450.71739,1442.04215L450.59739,1442.04215L444.95742,1440.36215
				L444.83743,1440.36215L437.51747,1438.20215L435.83748,1434.96214L435.83748,1434.84214L434.51748,1432.44214L434.51748,1432.32214
				L431.6375,1426.44213L431.5175,1426.32213L430.43751,1424.04212L430.31751,1423.92212L428.51752,1420.32212L418.55758,1415.28211
				L415.79759,1413.96211L413.7576,1412.88211L410.63762,1411.32211L406.91764,1405.6821L406.91764,1406.8821L404.03766,1415.64211
				L403.07767,1418.52212L400.91768,1424.88213L400.31768,1426.08213L399.83769,1427.40213L399.71769,1427.52213L399.59769,1427.88213
				L396.8377,1434.48214L391.91773,1445.76216L388.19775,1447.80216L388.07775,1447.92216L382.19779,1451.04216L382.07779,1451.16216
				L378.83781,1452.84217L378.71781,1452.96217L377.15782,1453.80217L377.03782,1453.80217L376.91782,1453.92217L374.75783,1455.12217
				L374.51783,1455.24217L371.15785,1457.04217L368.87786,1458.24218L364.79789,1460.52218L364.31789,1460.76218L364.19789,1460.76218
				L358.07793,1464.12218L357.71793,1464.36218L329.63809,1479.60221L322.31813,1477.5622L319.67815,1476.8422L317.39816,1476.1222
				L305.87823,1473.0022L303.47824,1471.5622L303.35824,1471.5622L302.99825,1471.32219L302.87825,1471.20219L295.07829,1466.52219
				L294.95829,1466.52219L289.91832,1463.40218L285.95834,1461.12218L285.11835,1453.56217L285.11835,1453.44217L284.63835,1449.24216
				L284.87835,1448.76216L284.99835,1448.64216L293.8783,1431.96214L302.03825,1414.32211L302.63825,1412.88211L306.23823,1405.0821
				L304.67824,1403.40209L292.9183,1391.28208L283.91836,1382.04206L278.75839,1376.64205L278.63839,1376.52205L274.07841,1371.84205
				L273.95841,1371.72205L269.75844,1367.28204L269.51844,1367.16204L264.71847,1362.24203L264.71847,1362.12203L261.35849,1358.64203
				L261.23849,1358.52203L256.91851,1354.08202L256.67851,1353.84202L255.35852,1352.52202L254.99852,1352.04202L254.27853,1351.32202
				L251.03855,1343.042L250.31855,1341.242L247.67857,1334.16199L248.63856,1328.04198L248.63856,1327.80198L250.91855,1313.88196
				L251.63854,1309.08195L251.39854,1304.04195L251.39854,1303.20194L251.27855,1301.76194L251.27855,1301.64194L251.27855,1301.16194
				L251.03855,1295.88193L251.03855,1295.40193L251.03855,1295.16193L250.91855,1293.72193L250.55855,1284.84192L250.31855,1281.12191
				L250.31855,1280.04191L245.87858,1270.08189L245.75858,1269.84189L244.67858,1267.56189L244.43859,1266.96189L243.11859,1264.08189
				L238.43862,1253.52187L226.91869,1243.32185L224.7587,1241.52185L221.27872,1238.40185L219.83873,1232.16184L218.03874,1223.40182
				L217.91874,1223.28182L217.67874,1222.08182L216.59875,1216.92182L216.59875,1216.68181L216.47875,1216.56181L216.23875,1215.48181
				L215.63875,1212.60181L215.15875,1210.20181L203.75882,1212.72181L200.15884,1213.44181L197.63886,1214.04181L186.83892,1209.8418
				L181.31895,1207.6818L172.439,1204.3218L167.03903,1202.28179L163.79905,1200.96179L158.03909,1198.80179L157.07909,1198.20179
				L158.39908,1197.24179L160.67907,1195.56178L162.23906,1188.96177L162.95906,1186.44177L164.63905,1179.60176L165.95904,1174.44175
				L167.15903,1169.28174L167.75903,1168.08174L169.07902,1164.96174L177.23897,1145.88171L185.15893,1127.52168L185.15893,1103.64165
				L194.03888,1070.7616L208.91879,1061.88158L209.03879,1061.88158L220.91872,1046.88156L232.91865,1038.00155L244.79858,1023.00153
				L253.79853,1008.1215L266.39846,980.88146L271.67843,969.36145L281.99837,959.04143L283.67836,957.36143L288.59833,945.00141
				L289.55832,942.48141L297.83828,940.4414L301.55825,939.4814L319.43815,951.36142L322.67813,952.68142L334.31806,957.36143L349.31798,957.36143
				L370.19786,963.36144L373.43784,963.36144L381.47779,963.36144L385.07777,963.36144L403.07767,963.36144L417.95758,963.36144
				L432.83749,963.36144L448.4374,965.52144L472.19727,966.12144L473.39726,966.24144L493.31714,954.48142L512.15704,949.68142L
				525.83696,949.68142L528.35694,949.68142L531.95692,951.00142L544.79685,955.56143L551.39681,963.60144L559.67676,973.80145L
				575.39667,979.92146L581.99663,975.24145L584.39662,952.44142L582.23663,936.8414L582.11663,936.4814L581.99663,934.92139L580.07664,932.40139
				L571.31669,920.88137L556.91678,900.24134L553.79679,888.12132L553.0768,872.6413L553.0768,855.84128L549.35682,842.76126L549.35682,842.40126
				L545.51684,829.08124L541.43687,818.04122L541.43687,803.2812L545.51684,792.96118L564.11673,773.28115L570.95669,756.48113L
				577.91665,744.48111L633.59633,738.2411L641.75628,749.16112L654.47621,765.96114L658.79619,769.80115L672.8361,782.28117L689.63601,797.04119
				L692.27599,798.36119L699.23595,801.8412L717.47585,811.08121L722.27582,813.60121L736.67574,812.40121L746.51568,811.56121L
				776.03551,809.04121L808.19532,806.2812L812.3953,832.44124L815.99528,834.84125L837.59515,848.76127L851.51507,857.88128L872.51495,861.36129
				L882.11489,862.56129L902.03478,865.56129L912.71472,867.24129L940.55455,870.0013L941.99455,869.7613L944.75453,866.52129L965.99441,856.56128
				L978.71433,858.60128L991.79426,855.12128L1001.1542,850.68127L1012.07414,844.44126L1012.19414,844.56126L1016.87411,844.92126
				L1058.27387,848.28127L1058.51387,848.28127L1072.91379,851.04127L1081.91374,856.20128L1082.63373,857.88128L1085.99371,866.88129
				L1094.27366,876.48131L1106.99359,876.48131L1118.03353,880.20131L1130.75345,880.20131L1147.55336,888.84133L1170.23323,902.64135
				L1190.27311,917.04137L1210.19299,932.16139L1237.67283,943.92141L1249.55277,947.64141L1251.71275,948.36141L1258.31272,953.28142
				L1268.63266,961.08143L1276.19261,962.40144L1276.79261,962.16144L1305.11244,952.08142L1316.75238,947.28141L1323.95234,937.6814
				L1333.55228,932.88139L1337.75226,926.04138L1349.39219,926.28138L1358.87213,932.64139L1361.03212,934.20139L1361.15212,934.20139
				L1374.11204,930.12139L1379.63201,929.04139L1383.23199,927.36138L1391.39194,923.52138L1407.11185,922.92138L1420.19178,924.24138
				L1433.2717,932.88139L1439.87166,947.64141L1440.95166,953.16142L1441.91165,957.60143L1445.75163,958.44143L1452.59159,960.00143
				L1457.03156,960.12143L1469.0315,960.36143L1475.27146,957.60143L1495.19134,926.04138L1506.59128,915.36137L1513.79124,905.04135
				L1523.75118,894.36133L1527.47116,889.92133L1535.75111,888.84133L1541.99107,879.96131L1550.15103,870.6013L1555.071,862.68129
				L1558.07098,853.08127L1571.8709,843.84126L1578.35086,839.04125L1629.95056,845.16126L1659.23039,849.96127L1670.15033,859.32128
				L1671.95032,866.16129L1677.11029,875.04131L1678.07028,877.56131L1679.51028,880.92131L1692.2302,890.28133L1708.31011,895.44134
				L1709.8701,895.32134L1727.75,894.60133L1734.10996,894.36133L1755.10984,895.08134L1755.22984,894.96134L1770.70975,892.92133
				L1772.02974,892.80133L1794.70961,892.92133L1800.10958,905.04135L1820.50946,920.40137L1825.54943,924.24138L1839.70935,928.68139
				L1875.46914,934.92139L1893.34904,942.12141L1920.10888,959.88143L1924.90886,963.12144L1941.10876,983.76147L1945.90873,996.84149
				L1947.10873,1008.1215L1947.34873,1010.16151L1953.46869,1018.08152L1953.70869,1018.08152L1963.78863,1016.04152L1967.86861,1014.12151
				L1981.66853,1007.5215L1994.02846,1005.3615L2014.66834,1007.5215L2046.34815,1006.8015L2052.46812,1005.7215L2079.70796,1003.6815
				L2104.06782,1005.3615L2115.82775,998.16149L2132.98765,993.00148L2146.06758,985.08147L2156.74751,983.04147L2164.90747,983.40147
				L2180.38738,977.52146L2195.14729,980.28146L2212.06719,972.72145L2224.06712,972.36145L2237.50705,976.92146L2254.66695,979.32146
				L2262.2269,982.32147L2273.62684,982.68147L2284.30677,978.60146L2292.82673,975.84146L2315.50659,966.60144L2332.0665,956.64143
				L2340.94645,950.40142L2351.26639,948.36141L2357.50635,954.12142L2360.86633,954.96142L2360.98633,954.96142L2366.7463,956.28143
				L2368.54629,960.72143L2368.78629,965.88144L2380.54622,973.44145L2388.46617,982.32147L2397.34612,993.72148L2399.14611,1005.7215
				L2395.66613,1014.36151L2390.50616,1018.44152L2380.90622,1032.60154L2379.70622,1036.92155L2379.10623,1039.08155L2377.78623,1047.00156
				L2379.82622,1054.56157L2380.90622,1058.40158L2382.10621,1060.20158L2387.02618,1068.00159L2396.74612,1085.16162L2407.66606,1101.72164
				L2416.66601,1097.88164L2428.06594,1090.20163L2431.42592,1087.92162L2437.30589,1086.60162L2448.94582,1082.76162L2455.54578,1070.7616
				L2467.90571,1052.16157L2475.46567,1039.44155L2491.90557,1014.00151L2497.42554,993.00148L2500.06553,985.68147L2509.18547,960.36143
				L2527.06537,943.56141L2535.22532,940.6814L2540.02529,939.0014L2540.50529,935.04139"/>
			<path clip-path="url(#SVG_CP_1)" fill="none" stroke="#000000" stroke-width="3.95998" stroke-miterlimit="10" stroke-linecap="round" stroke-linejoin="round" d="
				M2540.50529,935.04139L2542.42528,919.08137L2542.42528,910.20136L2534.02533,899.52134L2532.82534,898.08134L2523.94539,887.16132
				L2523.94539,879.24131L2523.94539,879.12131L2523.94539,879.00131L2523.94539,866.16129L2526.70537,853.80127L2531.14535,840.72125
				L2524.30539,826.92123L2515.66544,817.32122L2512.54545,806.6412L2520.46541,790.20118L2530.78535,781.20117L2535.22532,776.76116
				L2551.06523,773.28115L2556.9452,771.96115L2572.42511,761.64114L2582.74505,752.40112L2585.50503,743.04111L2595.46497,745.80111
				L2605.42492,748.92112L2615.38486,743.76111L2629.42478,732.12109L2648.02467,717.24107L2671.06454,709.08106L2684.50446,699.36104
				L2688.58443,690.48103L2689.30443,674.28101L2697.58438,663.36099L2706.82433,645.48096"/>
		</g>
		<g id="sattlements">
			<path clip-path="url(#SVG_CP_1)" fill="#FF0000" fill-rule="evenodd" stroke="#000000" stroke-width="0.95999" stroke-miterlimit="10" stroke-linecap="round" stroke-linejoin="round" d="
				M1468.0715,1862.58278C1468.0715,1857.04888,1463.61228,1852.56276,1458.11156,1852.56276C1452.61083,1852.56276,1448.15162,1857.04888
				,1448.15162,1862.58278C1448.15162,1868.11668,1452.61083,1872.60279,1458.11156,1872.60279C1463.61228,1872.60279,1468.0715,1868.11668
				,1468.0715,1862.58278z"/>
			<path clip-path="url(#SVG_CP_1)" fill="#FF0000" fill-rule="evenodd" stroke="#000000" stroke-width="0.95999" stroke-miterlimit="10" stroke-linecap="round" stroke-linejoin="round" d="
				M1089.71369,1386.24207C1089.71369,1380.7413,1085.22761,1376.28205,1079.69375,1376.28205C1074.15989,1376.28205,1069.67381,1380.7413
				,1069.67381,1386.24207C1069.67381,1391.74283,1074.15989,1396.20208,1079.69375,1396.20208C1085.22761,1396.20208,1089.71369,1391.74283
				,1089.71369,1386.24207z"/>
			<path clip-path="url(#SVG_CP_1)" fill="#FF0000" fill-rule="evenodd" stroke="#000000" stroke-width="0.95999" stroke-miterlimit="10" stroke-linecap="round" stroke-linejoin="round" d="
				M2275.18683,1382.34206C2275.18683,1376.80816,2270.70075,1372.32205,2265.16689,1372.32205C2259.63302,1372.32205,2255.14694,1376.80816
				,2255.14694,1382.34206C2255.14694,1387.87596,2259.63302,1392.36208,2265.16689,1392.36208C2270.70075,1392.36208,2275.18683,1387.87596
				,2275.18683,1382.34206z"/>
			<path clip-path="url(#SVG_CP_1)" fill="#FF0000" fill-rule="evenodd" stroke="#000000" stroke-width="0.95999" stroke-miterlimit="10" stroke-linecap="round" stroke-linejoin="round" d="
				M2372.50626,1397.34208C2372.50626,1391.80818,2368.04705,1387.32207,2362.54632,1387.32207C2357.0456,1387.32207,2352.58638,1391.80818
				,2352.58638,1397.34208C2352.58638,1402.87599,2357.0456,1407.3621,2362.54632,1407.3621C2368.04705,1407.3621,2372.50626,1402.87599
				,2372.50626,1397.34208z"/>
			<path clip-path="url(#SVG_CP_1)" fill="#FF0000" fill-rule="evenodd" stroke="#000000" stroke-width="0.95999" stroke-miterlimit="10" stroke-linecap="round" stroke-linejoin="round" d="
				M1347.9522,1398.48209C1347.9522,1392.98132,1343.49298,1388.52207,1337.99225,1388.52207C1332.49153,1388.52207,1328.03231,1392.98132
				,1328.03231,1398.48209C1328.03231,1403.98285,1332.49153,1408.4421,1337.99225,1408.4421C1343.49298,1408.4421,1347.9522,1403.98285
				,1347.9522,1398.48209z"/>
			<path clip-path="url(#SVG_CP_1)" fill="#FF0000" fill-rule="evenodd" stroke="#000000" stroke-width="0.95999" stroke-miterlimit="10" stroke-linecap="round" stroke-linejoin="round" d="
				M1456.55157,1647.24246C1456.55157,1641.74169,1452.06549,1637.28244,1446.53163,1637.28244C1440.99776,1637.28244,1436.51168,1641.74169
				,1436.51168,1647.24246C1436.51168,1652.74322,1440.99776,1657.20247,1446.53163,1657.20247C1452.06549,1657.20247,1456.55157,1652.74322
				,1456.55157,1647.24246z"/>
			<path clip-path="url(#SVG_CP_1)" fill="#FF0000" fill-rule="evenodd" stroke="#000000" stroke-width="0.95999" stroke-miterlimit="10" stroke-linecap="round" stroke-linejoin="round" d="
				M2700.34437,1032.18154C2700.34437,1026.64764,2695.88515,1022.16152,2690.38442,1022.16152C2684.8837,1022.16152,2680.42448,1026.64764
				,2680.42448,1032.18154C2680.42448,1037.71544,2684.8837,1042.20155,2690.38442,1042.20155C2695.88515,1042.20155,2700.34437,1037.71544
				,2700.34437,1032.18154z"/>
		</g>
		<g id="sattlements_Anno_6">
			<g font-family="'Sylfaen'" font-size="1" kerning="0" font-weight="700" fill="#000000" clip-path="url(#SVG_CP_1)" >
				<text text-anchor="start" transform="matrix(49.91971 0 0 49.92007 1269.35265 1798.08268)" >
					<tspan direction="ltr" unicode-bidi="embed" x="0 ">Rtskhmeluri</tspan>
					
				</text>
			</g>
			<g font-family="'Sylfaen'" font-size="1" kerning="0" font-weight="700" fill="#000000" clip-path="url(#SVG_CP_1)" >
				<text text-anchor="start" transform="matrix(49.91971 0 0 49.92007 1082.63373 1374.96205)" >
					<tspan direction="ltr" unicode-bidi="embed" x="0 ">Kheledi</tspan>
					
				</text>
			</g>
			<g font-family="'Sylfaen'" font-size="1" kerning="0" font-weight="700" fill="#000000" clip-path="url(#SVG_CP_1)" >
				<text text-anchor="start" transform="matrix(49.91971 0 0 49.92007 2265.22689 1360.32203)" >
					<tspan direction="ltr" unicode-bidi="embed" x="0 ">Zhakhunderi</tspan>
					
				</text>
			</g>
			<g font-family="'Sylfaen'" font-size="1" kerning="0" font-weight="700" fill="#000000" clip-path="url(#SVG_CP_1)" >
				<text text-anchor="start" transform="matrix(49.91971 0 0 49.92007 2362.66632 1443.60215)" >
					<tspan direction="ltr" unicode-bidi="embed" x="0 ">Chikhareshi</tspan>
					
				</text>
			</g>
			<g font-family="'Sylfaen'" font-size="1" kerning="0" font-weight="700" fill="#000000" clip-path="url(#SVG_CP_1)" >
				<text text-anchor="start" transform="matrix(70.91971 0 0 70.92007 1339.55224 1375.68205)" >
					<tspan direction="ltr" unicode-bidi="embed" x="0 ">Lentekhi</tspan>
					
				</text>
			</g>
			<g font-family="'Sylfaen'" font-size="1" kerning="0" font-weight="700" fill="#000000" clip-path="url(#SVG_CP_1)" >
				<text text-anchor="start" transform="matrix(49.91971 0 0 49.92007 1449.47161 1635.84244)" >
					<tspan direction="ltr" unicode-bidi="embed" x="0 ">Khophuri</tspan>
					
				</text>
			</g>
			<g font-family="'Sylfaen'" font-size="1" kerning="0" font-weight="700" fill="#000000" clip-path="url(#SVG_CP_1)" >
				<text text-anchor="start" transform="matrix(49.91971 0 0 49.92007 2690.50442 1010.28151)" >
					<tspan direction="ltr" unicode-bidi="embed" x="0 ">Tsana</tspan>
					
				</text>
			</g>
		</g>
	</g>
</svg>
