<?xml version="1.0" encoding="utf-8" standalone="no"?>
<!-- Creator: Esri ArcMap 10.9.1.28388 -->
<!DOCTYPE svg PUBLIC "-//W3C//DTD SVG 1.1//EN"  "http://www.w3.org/Graphics/SVG/1.1/DTD/svg11.dtd">
<svg width="3456pt" height="2592pt" viewBox="0 0 3456 2592" enable-background="new 0 0 3456 2592"
	version="1.1" xmlns="http://www.w3.org/2000/svg" xmlns:xlink="http://www.w3.org/1999/xlink" >
	<g id="Layers">
		<g id="municipal">
			<path clip-path="url(#SVG_CP_1)" fill="#ce8d34" fill-rule="evenodd" stroke="none" d="M2706.87134,645.48096L2720.3115,651.60097
				L2734.71167,649.92097L2740.95174,650.64097L2751.27186,655.68098L2761.23197,657.84098L2766.39203,663.00099L2778.03217,665.04099
				L2787.99228,676.08101L2791.83233,686.04102L2795.91238,692.16103L2803.83247,699.36104L2803.83247,710.04106L2803.83247,717.24107
				L2812.71257,727.56109L2816.91262,737.8811L2822.43268,745.80111L2816.19261,766.80114L2816.55261,775.08116L2824.1127,780.84116
				L2830.11277,783.36117L2831.67279,783.96117L2841.99291,787.80118L2852.67303,790.20118L2858.5531,795.96119L2865.39318,798.48119
				L2874.27328,809.76121L2883.9934,816.00122L2897.31355,810.12121L2907.03366,812.88121L2922.39384,813.60121L2937.87402,814.20121
				L2950.59417,813.24121L2957.91425,811.44121L2973.03443,817.68122L2973.99444,831.72124L2986.71458,846.60126L2996.07469,849.60127
				L2995.83469,850.92127L2999.79474,849.60127L3020.43498,849.60127L3030.75509,855.48128L3034.23513,855.84128L3042.75523,856.56128
				L3049.35531,858.96128L3061.95546,857.88128L3079.59566,856.56128L3100.95591,857.16128L3108.15599,863.04129L3116.67609,866.88129
				L3130.11625,864.84129L3142.83639,870.9613L3155.19654,874.0813L3159.03658,882.36132L3162.15662,891.96133L3162.75662,896.04134
				L3172.47674,900.60134L3175.47677,910.56136L3184.47687,923.28138L3191.67696,919.08137L3206.43713,907.44135L3218.43727,899.88134
				L3231.51742,895.08134L3243.63756,893.28133L3248.79762,904.68135L3255.6377,914.64136L3269.07785,920.52137L3276.27794,930.12139
				L3284.19803,948.00141L3289.9581,954.84142L3295.11816,962.76144L3292.11812,973.08145L3292.35812,976.56146L3296.55817,978.24146
				L3298.9582,981.00146L3296.55817,985.80147L3290.6781,986.52147L3287.91807,990.60148L3290.6781,998.16149L3284.19803,1005.1215
				L3276.63794,1018.08152L3274.83792,1024.32153L3264.2778,1035.72155L3254.19768,1042.56156L3245.67758,1063.20159L3244.95757,1071.1216
				L3244.23757,1077.96161L3230.55741,1096.20164L3232.59743,1101.00164L3241.23753,1110.60166L3246.63759,1120.92167L3259.35774,1129.20168
				L3258.75773,1141.5617L3265.59781,1155.72172L3269.43786,1166.28174L3274.47792,1170.84175L3277.59795,1176.60176L3277.23795,1183.56177
				L3275.55793,1191.12178L3266.31782,1197.24179L3261.51777,1205.8818L3258.03773,1210.68181L3246.39759,1214.76181L3229.4774,1222.68182
				L3213.99722,1244.04186L3208.83716,1257.72188L3209.55716,1266.00189L3208.83716,1277.76191L3197.19702,1289.40192L3191.31695,1293.48193
				L3180.03682,1306.92195L3176.19678,1325.52198L3173.07674,1339.322L3167.91668,1349.40201L3166.95667,1351.32202L3153.51652,1365.72204
				L3147.27644,1372.44205L3143.9164,1376.04205L3126.6362,1386.00207L3101.91592,1397.40208L3086.79574,1409.7621L3072.03557,1423.80212
				L3067.23552,1436.88214L3061.35545,1451.40216L3054.87537,1459.92218L3044.91526,1469.28219L3034.23513,1474.6822L3030.03509,1469.88219
				L3027.27505,1461.00218L3025.59503,1450.32216L3020.79498,1443.84215L3016.71493,1437.60214L3005.5548,1438.68215L3002.55477,1442.76215
				L2996.4347,1449.60216L2986.35458,1453.80217L2979.1545,1459.20218L2969.91439,1465.80219L2960.91429,1469.28219L2950.95417,1482.24221
				L2944.8341,1482.60221L2931.03394,1482.96221L2913.51374,1487.40222L2902.47361,1487.16222L2885.31341,1475.4022L2871.27325,1469.88219
				L2863.95316,1468.92219L2847.51297,1468.20219L2823.7527,1469.88219L2820.03265,1478.1622L2809.71254,1482.60221L2803.11246,1486.08222
				L2794.59236,1497.12223L2787.27228,1509.12225L2785.23225,1515.96226L2791.47232,1529.76228L2791.11232,1540.8023L2785.23225,1555.92232
				L2777.31216,1571.64234L2763.272,1592.28238L2754.9919,1605.36239L2747.43181,1635.00244L2740.59173,1635.00244L2725.83156,1644.96245
				L2720.91151,1653.48247L2716.71146,1658.76247L2712.39141,1664.16248L2713.95143,1672.32249L2715.15144,1677.9625L2727.15158,1694.04253
				L2733.63165,1700.28254L2738.19171,1709.52255L2744.91178,1721.28257L2748.39182,1727.64258L2751.99187,1735.32259L2746.83181,1744.3226
				L2734.95167,1749.36261L2729.91161,1761.24263L2726.07157,1774.92265L2722.23152,1787.40267L2713.95143,1794.12268L2698.59125,1798.68268
				L2686.47111,1805.04269L2679.75103,1806.36269L2679.63103,1806.24269L2668.2309,1804.68269L2653.83073,1798.92268L2640.75058,1788.36267
				L2636.55053,1782.96266L2631.15047,1773.12264L2620.47034,1763.88263L2619.63033,1763.16263L2612.91026,1768.56264L2601.99013,1771.44264
				L2587.70996,1769.88264L2580.02988,1754.52262L2575.82983,1747.20261L2564.6697,1737.96259L2547.7495,1730.28258L2531.66932,1725.48257
				L2533.58934,1714.56256L2533.58934,1710.48255L2533.58934,1700.52254L2532.02932,1693.44253L2520.50919,1687.08252L2514.50912,1686.72252
				L2506.46902,1679.76251L2499.14894,1672.68249L2495.9089,1665.96248L2489.78883,1662.48248L2481.26873,1662.48248L2466.98857,1651.80246
				L2466.14856,1651.32246L2449.94837,1646.76246L2446.58833,1644.60245L2442.26828,1641.60245L2420.42803,1633.32244L2405.06785,1619.28242
				L2391.50769,1614.48241L2381.78758,1611.4824L2376.62752,1610.1624L2373.50748,1609.4424L2366.4274,1609.2024L2356.70729,1609.2024
				L2344.58715,1610.1624L2336.54706,1610.1624L2327.54695,1614.24241L2317.22683,1616.28241L2300.42664,1611.7224L2293.46656,1606.6824
				L2280.86641,1598.64238L2270.30629,1594.32238L2265.86624,1592.40238L2255.78612,1582.80236L2247.74603,1573.08235L2242.22596,1567.80234
				L2227.22579,1561.08233L2214.38564,1557.96232L2194.58541,1553.16232L2192.54539,1552.56232L2182.58527,1549.68231L2169.02512,1548.48231
				L2151.26491,1550.04231L2127.74464,1544.8823L2127.38463,1544.7623L2121.86457,1543.6823L2111.54445,1537.68229L2100.50432,1531.20228
				L2093.78425,1524.96227L2081.6641,1519.20227L2073.62401,1516.68226L2065.34392,1512.84226L2057.06382,1506.84225L2053.10377,1500.60224
				L2047.1037,1496.04223L2035.58357,1494.00223L2030.54351,1496.04223L2023.22343,1497.12223L2018.66338,1496.04223L2018.30337,1496.04223
				L2007.14324,1497.84223L1993.70309,1500.12224L1991.90307,1500.36224L1982.90296,1501.56224L1976.06288,1504.32224L1968.6228,1508.64225
				L1954.22263,1503.84224L1944.98252,1503.84224L1935.98242,1505.64225L1928.90234,1510.08225L1920.62224,1513.68226L1904.78206,1516.32226
				L1881.02178,1528.92228L1877.06174,1533.84229L1876.22173,1539.0023L1876.46173,1545.0023L1876.46173,1549.56231L1871.90168,1559.76233
				L1869.02164,1568.28234L1864.70159,1575.72235L1863.38158,1577.76235L1846.94139,1605.00239L1841.42132,1611.4824L1836.86127,1619.28242
				L1833.74123,1631.28243L1828.58117,1641.72245L1821.8611,1646.88246L1814.06101,1652.64247L1802.78088,1662.48248L1797.38081,1670.52249
				L1791.38074,1674.3625L1784.18066,1677.4825L1779.74061,1689.12252L1771.10051,1696.56253L1767.02046,1702.92254L1760.66039,1705.80254
				L1746.38022,1710.60255L1739.66014,1710.12255L1736.30011,1709.76255L1734.86009,1707.96255L1730.42004,1707.48255L1724.41997,1706.28255
				L1718.1799,1706.28255L1710.61981,1710.36255L1708.21978,1710.84255L1707.73977,1711.32255L1700.17969,1716.96256L1697.53966,1720.32257
				L1693.93962,1724.88257L1692.7396,1727.52258L1693.69961,1729.44258L1694.17962,1732.44258L1698.01966,1737.24259L1698.25967,1745.6426
				L1696.57965,1753.92262L1689.37956,1767.24264L1689.61957,1777.80265L1690.33957,1788.48267L1688.89956,1795.92268L1679.29945,1797.84268
				L1674.01938,1798.92268L1662.13925,1794.72268L1660.93923,1794.36268L1650.73911,1785.72266L1636.57895,1783.68266L1622.05878,1780.92266
				L1613.05868,1780.92266L1608.85863,1783.32266L1608.73863,1783.32266L1608.61863,1783.44266L1607.41861,1784.64266L1601.77855,1790.04267
				L1590.01841,1797.60268L1579.33829,1801.32269L1571.5382,1800.48269L1570.45819,1800.48269L1563.2581,1800.24269L1562.8981,1800.24269
				L1562.41809,1800.24269L1551.61797,1803.24269L1550.41795,1803.48269L1550.29795,1803.60269L1550.17795,1803.60269L1549.81795,1803.72269
				L1542.37786,1810.5627L1539.37783,1813.3227L1526.05767,1822.20272L1518.61759,1828.08273L1502.2974,1840.92275L1494.73731,1847.28276
				L1491.01727,1855.92277L1489.09724,1861.80278L1482.61717,1868.88279L1480.81715,1870.80279L1478.53712,1872.60279L1476.8571,1872.72279
				L1467.13699,1877.0428L1459.4569,1883.64281L1458.37689,1884.48281L1458.37689,1885.32281L1458.13688,1889.88282L1458.61689,1891.32282
				L1460.17691,1896.00283L1461.85693,1901.16284L1462.81694,1904.88284L1464.13695,1906.56284L1464.25696,1906.56284L1466.29698,1908.12285
				L1466.41698,1908.24285L1467.25699,1909.80285L1467.25699,1909.92285L1466.65698,1913.52285L1466.17698,1915.80286L1465.09697,1920.00286
				L1463.05694,1925.52287L1462.93694,1925.76287L1462.93694,1925.88287L1462.69694,1931.16288L1461.61693,1938.00289L1461.37692,1938.00289
				L1459.8169,1938.24289L1459.5769,1938.24289L1459.3369,1938.24289L1458.85689,1938.36289L1458.73689,1938.36289L1458.61689,1938.36289
				L1458.49689,1938.36289L1452.61682,1939.08289L1438.69666,1944.1229L1431.97658,1946.5229L1424.29649,1945.9229L1423.21648,1945.4429
				L1419.61644,1944.0029L1417.69642,1942.3229L1409.17632,1935.36289L1408.57631,1934.28289L1406.05628,1929.48288L1401.61623,1920.48286
				L1374.49592,1920.00286L1363.21579,1919.40286L1354.69569,1910.52285L1347.4956,1898.28283L1335.13546,1878.3628L1335.49546,1875.6028
				L1335.37546,1875.0028L1335.37546,1874.7628L1334.65545,1871.28279L1334.41545,1869.60279L1333.45544,1867.44279L1332.61543,1865.76278
				L1332.37543,1865.16278L1330.2154,1860.48278L1323.37532,1854.48277L1322.05531,1848.36276L1319.65528,1843.08275L1313.89521,1838.28274
				L1313.65521,1838.16274L1313.17521,1837.32274L1312.8152,1836.48274L1309.45516,1829.76273L1308.13515,1829.04273L1305.97512,1827.84273
				L1300.09505,1826.76272L1291.93496,1825.32272L1281.49484,1817.40271L1279.09481,1814.28271L1273.33474,1806.8427L1268.41469,1800.60269
				L1257.73456,1797.84268L1255.69454,1783.68266L1254.97453,1780.80266L1254.13452,1777.68265L1252.4545,1776.48265L1251.8545,1776.00265
				L1248.01445,1761.96263L1242.25438,1753.80262L1237.93433,1750.68261L1237.21433,1750.08261L1232.41427,1746.60261L1229.29423,1745.8826
				L1228.93423,1745.7626L1225.21419,1744.9226L1221.73415,1742.2826L1219.81413,1740.8426L1208.894,1744.9226L1202.29392,1746.2426
				L1201.93392,1746.2426L1194.85384,1747.68261L1189.93378,1748.76261L1189.81378,1748.76261L1185.37373,1749.72261L1180.81367,1750.68261
				L1179.13365,1751.04261L1167.13352,1753.92262L1166.89351,1753.92262L1162.21346,1755.00262L1161.73345,1755.12262L1133.17312,1767.72264
				L1123.21301,1765.68263L1101.37275,1755.84262L1079.6525,1742.5226L1079.5325,1742.5226L1068.01237,1740.4826L1059.13226,1741.5626
				L1053.8522,1741.5626L1045.2121,1741.5626L1032.85196,1738.80259L1026.13188,1741.2026L1014.49175,1744.9226L1005.25164,1744.9226
				L994.33151,1741.8026L985.21141,1737.36259L981.97137,1733.52259L981.73137,1733.28259L967.0912,1731.96258L956.17107,1739.76259
				L950.41101,1752.12261L947.29097,1760.64263L941.89091,1774.56265L937.81086,1788.60267L936.01084,1792.32267L929.17076,1807.6827
				L922.81069,1814.88271L918.61064,1814.04271L918.49064,1814.04271L908.05052,1812.1227L900.25042,1803.96269L886.21026,1790.28267
				L885.01025,1788.60267L884.05024,1787.28267L879.01018,1780.68266L878.41017,1780.08266L878.29017,1779.84265L878.17017,1779.72265
				L866.77004,1769.16264L846.3698,1757.16262L841.32974,1753.32262L843.84977,1740.7226L844.68978,1736.40259L846.4898,1727.76258
				L845.76979,1725.36257L843.48977,1717.32256L840.48973,1706.88255L840.00973,1705.92254L839.88973,1705.80254L831.48963,1688.88252
				L831.48963,1688.76252L829.3296,1684.44251L829.0896,1684.20251L828.9696,1683.96251L828.9696,1683.84251L828.6096,1683.00251
				L827.16958,1681.32251L827.04958,1681.32251L827.04958,1681.20251L817.56947,1670.52249L817.56947,1670.40249L817.44947,1670.40249
				L814.32943,1666.80249L814.20943,1666.56249L813.72942,1666.08249L813.60942,1665.96248L807.60935,1659.12247L804.84932,1656.36247
				L804.48932,1656.00247L799.44926,1650.96246L797.88924,1649.40246L795.84922,1647.36246L795.72921,1647.24246L795.60921,1647.00246
				L795.60921,1646.88246L795.60921,1646.76246L795.48921,1646.64246L795.48921,1646.76246L795.24921,1646.40246L790.08915,1635.84244
				L789.96915,1635.72244L788.52913,1632.84244L788.40913,1632.60244L788.40913,1632.48244L788.28913,1632.36243L786.60911,1629.00243
				L786.48911,1628.64243L784.80909,1625.52242L783.72908,1623.36242L765.84887,1620.36242L763.68884,1619.88242L753.72873,1617.84241
				L751.92871,1617.48241L751.2087,1617.36241L751.0887,1617.36241L750.9687,1617.36241L739.68857,1608.8424L739.56856,1608.8424
				L738.96856,1608.3624L736.08852,1603.20239L735.96852,1603.08239L735.24851,1601.76239L735.00851,1601.40239L729.96845,1592.64238
				L729.96845,1592.52238L727.08842,1587.48237L721.92836,1581.12236L721.68836,1580.76236L719.88834,1578.48235L716.28829,1574.04235
				L715.08828,1572.60235L714.12827,1571.88234L713.88827,1571.88234L713.52826,1571.64234L712.56825,1571.04234L709.92822,1569.36234
				L705.00816,1566.24234L695.76806,1560.48233L693.72803,1559.16233L691.208,1557.60232L692.40802,1551.48231L694.20804,1542.7223
				L690.848,1542.0023L680.16788,1539.8423L680.04787,1539.8423L679.92787,1539.8423L679.32787,1539.7223L668.40774,1534.20229L
				668.16774,1534.20229L655.44759,1527.84228L653.64757,1526.64228L646.44749,1521.84227L638.7674,1518.00226L632.88733,1515.00226
				L632.64733,1514.88226L628.56728,1512.84226L627.72727,1512.36226L627.60727,1512.36226L622.56721,1509.24225L613.68711,1503.96224
				L602.88698,1499.16224L602.76698,1499.04224L594.24688,1495.32223L588.00681,1492.56223L587.88681,1492.44223L586.8068,1491.96223
				L584.16676,1490.04222L584.04676,1489.92222L581.88674,1488.24222L581.76674,1488.24222L580.32672,1487.16222L580.20672,1487.04222
				L576.36667,1484.16221L576.24667,1484.04221L574.80666,1482.96221L570.3666,1479.48221L559.92648,1471.08219L541.92628,1468.08219
				L534.48619,1466.52219L534.36619,1466.52219L534.24619,1466.52219L527.0461,1465.08219L515.16597,1477.0822L498.00577,1465.56219
				L497.88577,1465.56219L497.16576,1465.08219L497.04576,1464.96219L493.56572,1462.68218L493.32571,1462.56218L488.28565,1459.08218
				L480.72557,1455.36217L480.60557,1455.24217L480.48556,1455.24217L477.24553,1453.56217L463.80537,1446.96216L463.68537,1446.84216
				L458.40531,1444.20215L450.72522,1442.04215L450.60522,1442.04215L444.96515,1440.36215L444.84515,1440.36215L437.52507,1438.20215
				L435.84505,1434.96214L435.84505,1434.84214L434.52503,1432.44214L434.52503,1432.32214L431.645,1426.44213L431.525,1426.32213
				L430.44498,1424.04212L430.32498,1423.92212L428.52496,1420.32212L418.56485,1415.28211L415.80482,1413.96211L413.76479,1412.88211
				L410.64476,1411.32211L406.92471,1405.6821L406.92471,1406.8821L404.04468,1415.64211L403.08467,1418.52212L400.92464,1424.88213
				L400.32464,1426.08213L399.84463,1427.40213L399.72463,1427.52213L399.60463,1427.88213L396.8446,1434.48214L391.92454,1445.76216
				L388.2045,1447.80216L388.08449,1447.92216L382.20443,1451.04216L382.08442,1451.16216L378.84439,1452.84217L378.72439,1452.96217
				L377.16437,1453.80217L377.04437,1453.80217L376.92437,1453.92217L374.76434,1455.12217L374.52434,1455.24217L371.1643,1457.04217
				L368.88427,1458.24218L364.80422,1460.52218L364.32422,1460.76218L364.20422,1460.76218L358.08415,1464.12218L357.72414,1464.36218
				L329.64382,1479.60221L322.32373,1477.5622L319.6837,1476.8422L317.40368,1476.1222L305.88354,1473.0022L303.48351,1471.5622
				L303.36351,1471.5622L303.00351,1471.32219L302.88351,1471.20219L295.08342,1466.52219L294.96342,1466.52219L289.92336,1463.40218
				L285.96331,1461.12218L285.1233,1453.56217L285.1233,1453.44217L284.6433,1449.24216L284.8833,1448.76216L285.0033,1448.64216
				L293.8834,1431.96214L302.0435,1414.32211L302.6435,1412.88211L306.24355,1405.0821L304.68353,1403.40209L292.92339,1391.28208
				L283.92329,1382.04206L278.76323,1376.64205L278.64323,1376.52205L274.08317,1371.84205L273.96317,1371.72205L269.76312,1367.28204
				L269.52312,1367.16204L264.72307,1362.24203L264.72307,1362.12203L261.36303,1358.64203L261.24303,1358.52203L256.92298,1354.08202
				L256.68297,1353.84202L255.36296,1352.52202L255.00295,1352.04202L254.28294,1351.32202L251.04291,1343.042L250.3229,1341.242
				L247.68287,1334.16199L248.64288,1328.04198L248.64288,1327.80198L250.92291,1313.88196L251.64291,1309.08195L251.40291,1304.04195
				L251.40291,1303.20194L251.28291,1301.76194L251.28291,1301.64194L251.28291,1301.16194L251.04291,1295.88193L251.04291,1295.40193
				L251.04291,1295.16193L250.92291,1293.72193L250.5629,1284.84192L250.3229,1281.12191L250.3229,1280.04191L245.88285,1270.08189
				L245.76285,1269.84189L244.68283,1267.56189L244.44283,1266.96189L243.12282,1264.08189L238.44276,1253.52187L226.92263,1243.32185
				L224.7626,1241.52185L221.28256,1238.40185L219.84255,1232.16184L218.04253,1223.40182L217.92252,1223.28182L217.68252,1222.08182
				L216.60251,1216.92182L216.60251,1216.68181L216.48251,1216.56181L216.2425,1215.48181L215.6425,1212.60181L215.16249,1210.20181
				L203.76236,1212.72181L200.16232,1213.44181L197.64229,1214.04181L186.84216,1209.8418L181.3221,1207.6818L172.442,1204.3218
				L167.04193,1202.28179L163.8019,1200.96179L158.04183,1198.80179L157.08182,1198.20179L158.40183,1197.24179L160.68186,1195.56178
				L162.24188,1188.96177L162.96189,1186.44177L164.64191,1179.60176L165.96192,1174.44175L167.16194,1169.28174L167.76194,1168.08174
				L169.08196,1164.96174L177.24205,1145.88171L185.16214,1127.52168L185.16214,1103.64165L194.04225,1070.7616L208.92242,1061.88158
				L209.04242,1061.88158L220.92256,1046.88156L232.9227,1038.00155L244.80284,1023.00153L253.80294,1008.1215L266.40309,980.88146
				L271.68315,969.36145L282.00327,959.04143L283.68329,957.36143L288.60334,945.00141L289.56335,942.48141L297.84345,940.4414L
				301.56349,939.4814L319.4437,951.36142L322.68374,952.68142L334.32387,957.36143L349.32405,957.36143L370.20429,963.36144L373.44432,963.36144
				L381.48442,963.36144L385.08446,963.36144L403.08467,963.36144L417.96484,963.36144L432.84501,963.36144L448.44519,965.52144
				L472.20547,966.12144L473.40548,966.24144L493.32571,954.48142L512.16593,949.68142L525.84609,949.68142L528.36612,949.68142
				L531.96616,951.00142L544.80631,955.56143L551.40639,963.60144L559.68648,973.80145L575.40666,979.92146L582.00674,975.24145
				L584.40677,952.44142L582.24674,936.8414L582.12674,936.4814L582.00674,934.92139L580.08672,932.40139L571.32662,920.88137L556.92645,900.24134
				L553.80641,888.12132L553.0864,872.6413L553.0864,855.84128L549.36636,842.76126L549.36636,842.40126L545.52632,829.08124L541.44627,818.04122
				L541.44627,803.2812L545.52632,792.96118L564.12653,773.28115L570.96661,756.48113L577.92669,744.48111L633.60734,738.2411L641.76743,749.16112
				L654.48758,765.96114L658.80763,769.80115L672.84779,782.28117L689.64799,797.04119L692.28802,798.36119L699.2481,801.8412L717.48831,811.08121
				L722.28836,813.60121L736.68853,812.40121L746.52864,811.56121L776.04899,809.04121L808.20936,806.2812L812.40941,832.44124L
				816.00945,834.84125L837.6097,848.76127L851.52986,857.88128L872.5301,861.36129L882.13021,862.56129L902.05045,865.56129L912.73057,867.24129
				L940.57089,870.0013L942.01091,869.7613L944.77094,866.52129L966.01119,856.56128L978.73133,858.60128L991.81148,855.12128L1001.17159,850.68127
				L1012.09172,844.44126L1012.21172,844.56126L1016.89178,844.92126L1058.29225,848.28127L1058.53226,848.28127L1072.93242,851.04127
				L1081.93253,856.20128L1082.65254,857.88128L1086.01258,866.88129L1094.29267,876.48131L1107.01282,876.48131L1118.05295,880.20131
				L1130.77309,880.20131L1147.57329,888.84133L1170.25355,902.64135L1190.29378,917.04137L1210.21401,932.16139L1237.69433,943.92141
				L1249.57447,947.64141L1251.73449,948.36141L1258.33457,953.28142L1268.65469,961.08143L1276.21478,962.40144L1276.81479,962.16144
				L1305.13511,952.08142L1316.77525,947.28141L1323.97533,937.6814L1333.57544,932.88139L1337.77549,926.04138L1349.41563,926.28138
				L1358.89574,932.64139L1361.05576,934.20139L1361.17576,934.20139L1374.13591,930.12139L1379.65598,929.04139L1383.25602,927.36138
				L1391.41611,923.52138L1407.13629,922.92138L1420.21645,924.24138L1433.2966,932.88139L1439.89667,947.64141L1440.97669,953.16142
				L1441.9367,957.60143L1445.77674,958.44143L1452.61682,960.00143L1457.05687,960.12143L1469.05701,960.36143L1475.29708,957.60143
				L1495.21731,926.04138L1506.61745,915.36137L1513.81753,905.04135L1523.77764,894.36133L1527.49769,889.92133L1535.77778,888.84133
				L1542.01786,879.96131L1550.17795,870.6013L1555.09801,862.68129L1558.09804,853.08127L1571.8982,843.84126L1578.37828,839.04125
				L1629.97887,845.16126L1659.25921,849.96127L1670.17934,859.32128L1671.97936,866.16129L1677.13942,875.04131L1678.09943,877.56131
				L1679.53945,880.92131L1692.2596,890.28133L1708.33978,895.44134L1709.8998,895.32134L1727.78001,894.60133L1734.14008,894.36133
				L1755.14032,895.08134L1755.26033,894.96134L1770.7405,892.92133L1772.06052,892.80133L1794.74078,892.92133L1800.14084,905.04135
				L1820.54108,920.40137L1825.58114,924.24138L1839.7413,928.68139L1875.50172,934.92139L1893.38192,942.12141L1920.14223,959.88143
				L1924.94229,963.12144L1941.14248,983.76147L1945.94253,996.84149L1947.14255,1008.1215L1947.38255,1010.16151L1953.50262,1018.08152
				L1953.74262,1018.08152L1963.82274,1016.04152L1967.90279,1014.12151L1981.70295,1007.5215L1994.06309,1005.3615L2014.70333,1007.5215
				L2046.3837,1006.8015L2052.50377,1005.7215L2079.74408,1003.6815L2104.10436,1005.3615L2115.8645,998.16149L2133.0247,993.00148
				L2146.10485,985.08147L2156.78497,983.04147L2164.94507,983.40147L2180.42525,977.52146L2195.18542,980.28146L2212.10562,972.72145
				L2224.10575,972.36145L2237.54591,976.92146L2254.70611,979.32146L2262.2662,982.32147L2273.66633,982.68147L2284.34645,978.60146
				L2292.86655,975.84146L2315.54681,966.60144L2332.107,956.64143L2340.98711,950.40142L2351.30723,948.36141L2357.5473,954.12142
				L2360.90734,954.96142L2361.02734,954.96142L2366.78741,956.28143L2368.58743,960.72143L2368.82743,965.88144L2380.58757,973.44145
				L2388.50766,982.32147L2397.38776,993.72148L2399.18778,1005.7215L2395.70774,1014.36151L2390.54768,1018.44152L2380.94757,1032.60154
				L2379.74756,1036.92155L2379.14755,1039.08155L2377.82753,1047.00156L2379.86756,1054.56157L2380.94757,1058.40158L2382.14758,1060.20158
				L2387.06764,1068.00159L2396.78775,1085.16162L2407.70788,1101.72164L2416.70798,1097.88164L2428.10812,1090.20163L2431.46816,1087.92162
				L2437.34822,1086.60162L2448.98836,1082.76162L2455.58843,1070.7616L2467.94858,1052.16157L2475.50867,1039.44155L2491.94886,1014.00151
				L2497.46892,993.00148L2500.10895,985.68147L2509.22906,960.36143L2527.10926,943.56141L2535.26936,940.6814L2540.06941,939.0014
				L2540.54942,935.04139L2542.46944,919.08137L2542.46944,910.20136L2534.06934,899.52134L2532.86933,898.08134L2523.98923,887.16132
				L2523.98923,879.24131L2523.98923,879.12131L2523.98923,879.00131L2523.98923,866.16129L2526.74926,853.80127L2531.18931,840.72125
				L2524.34923,826.92123L2515.70913,817.32122L2512.58909,806.6412L2520.50919,790.20118L2530.82931,781.20117L2535.26936,776.76116
				L2551.10954,773.28115L2556.98961,771.96115L2572.46979,761.64114L2582.78991,752.40112L2585.54994,743.04111L2595.51005,745.80111
				L2605.47017,748.92112L2615.43029,743.76111L2629.47045,732.12109L2648.07066,717.24107L2671.11093,709.08106L2684.55109,699.36104
				L2688.63113,690.48103L2689.35114,674.28101L2697.63124,663.36099L2706.87134,645.48096z"/>
			<path clip-path="url(#SVG_CP_1)" fill="none" stroke="#000000" stroke-width="3.96005" stroke-miterlimit="10" stroke-linecap="round" stroke-linejoin="round" d="
				M2706.87134,645.48096L2720.3115,651.60097L2734.71167,649.92097L2740.95174,650.64097L2751.27186,655.68098L2761.23197,657.84098
				L2766.39203,663.00099L2778.03217,665.04099L2787.99228,676.08101L2791.83233,686.04102L2795.91238,692.16103L2803.83247,699.36104
				L2803.83247,710.04106L2803.83247,717.24107L2812.71257,727.56109L2816.91262,737.8811L2822.43268,745.80111L2816.19261,766.80114
				L2816.55261,775.08116L2824.1127,780.84116L2830.11277,783.36117L2831.67279,783.96117L2841.99291,787.80118L2852.67303,790.20118
				L2858.5531,795.96119L2865.39318,798.48119L2874.27328,809.76121L2883.9934,816.00122L2897.31355,810.12121L2907.03366,812.88121
				L2922.39384,813.60121L2937.87402,814.20121L2950.59417,813.24121L2957.91425,811.44121L2973.03443,817.68122L2973.99444,831.72124
				L2986.71458,846.60126L2996.07469,849.60127L2995.83469,850.92127L2999.79474,849.60127L3020.43498,849.60127L3030.75509,855.48128
				L3034.23513,855.84128L3042.75523,856.56128L3049.35531,858.96128L3061.95546,857.88128L3079.59566,856.56128L3100.95591,857.16128
				L3108.15599,863.04129L3116.67609,866.88129L3130.11625,864.84129L3142.83639,870.9613L3155.19654,874.0813L3159.03658,882.36132
				L3162.15662,891.96133L3162.75662,896.04134L3172.47674,900.60134L3175.47677,910.56136L3184.47687,923.28138L3191.67696,919.08137
				L3206.43713,907.44135L3218.43727,899.88134L3231.51742,895.08134L3243.63756,893.28133L3248.79762,904.68135L3255.6377,914.64136
				L3269.07785,920.52137L3276.27794,930.12139L3284.19803,948.00141L3289.9581,954.84142L3295.11816,962.76144L3292.11812,973.08145
				L3292.35812,976.56146L3296.55817,978.24146L3298.9582,981.00146L3296.55817,985.80147L3290.6781,986.52147L3287.91807,990.60148
				L3290.6781,998.16149L3284.19803,1005.1215L3276.63794,1018.08152L3274.83792,1024.32153L3264.2778,1035.72155L3254.19768,1042.56156
				L3245.67758,1063.20159L3244.95757,1071.1216L3244.23757,1077.96161L3230.55741,1096.20164L3232.59743,1101.00164L3241.23753,1110.60166
				L3246.63759,1120.92167L3259.35774,1129.20168L3258.75773,1141.5617L3265.59781,1155.72172L3269.43786,1166.28174L3274.47792,1170.84175
				L3277.59795,1176.60176L3277.23795,1183.56177L3275.55793,1191.12178L3266.31782,1197.24179L3261.51777,1205.8818L3258.03773,1210.68181
				L3246.39759,1214.76181L3229.4774,1222.68182L3213.99722,1244.04186L3208.83716,1257.72188L3209.55716,1266.00189L3208.83716,1277.76191
				L3197.19702,1289.40192L3191.31695,1293.48193L3180.03682,1306.92195L3176.19678,1325.52198L3173.07674,1339.322L3167.91668,1349.40201
				L3166.95667,1351.32202L3153.51652,1365.72204L3147.27644,1372.44205L3143.9164,1376.04205L3126.6362,1386.00207L3101.91592,1397.40208
				L3086.79574,1409.7621L3072.03557,1423.80212L3067.23552,1436.88214L3061.35545,1451.40216L3054.87537,1459.92218L3044.91526,1469.28219
				L3034.23513,1474.6822L3030.03509,1469.88219L3027.27505,1461.00218L3025.59503,1450.32216L3020.79498,1443.84215L3016.71493,1437.60214
				L3005.5548,1438.68215L3002.55477,1442.76215L2996.4347,1449.60216L2986.35458,1453.80217L2979.1545,1459.20218L2969.91439,1465.80219
				L2960.91429,1469.28219L2950.95417,1482.24221L2944.8341,1482.60221L2931.03394,1482.96221L2913.51374,1487.40222L2902.47361,1487.16222
				L2885.31341,1475.4022L2871.27325,1469.88219L2863.95316,1468.92219L2847.51297,1468.20219L2823.7527,1469.88219L2820.03265,1478.1622
				L2809.71254,1482.60221L2803.11246,1486.08222L2794.59236,1497.12223L2787.27228,1509.12225L2785.23225,1515.96226L2791.47232,1529.76228
				L2791.11232,1540.8023L2785.23225,1555.92232L2777.31216,1571.64234L2763.272,1592.28238L2754.9919,1605.36239L2747.43181,1635.00244
				L2740.59173,1635.00244L2725.83156,1644.96245L2720.91151,1653.48247L2716.71146,1658.76247L2712.39141,1664.16248L2713.95143,1672.32249
				L2715.15144,1677.9625L2727.15158,1694.04253L2733.63165,1700.28254L2738.19171,1709.52255L2744.91178,1721.28257L2748.39182,1727.64258
				L2751.99187,1735.32259L2746.83181,1744.3226L2734.95167,1749.36261L2729.91161,1761.24263L2726.07157,1774.92265L2722.23152,1787.40267
				L2713.95143,1794.12268L2698.59125,1798.68268L2686.47111,1805.04269L2679.75103,1806.36269L2679.63103,1806.24269L2668.2309,1804.68269
				L2653.83073,1798.92268L2640.75058,1788.36267L2636.55053,1782.96266L2631.15047,1773.12264L2620.47034,1763.88263L2619.63033,1763.16263
				L2612.91026,1768.56264L2601.99013,1771.44264L2587.70996,1769.88264L2580.02988,1754.52262L2575.82983,1747.20261L2564.6697,1737.96259
				L2547.7495,1730.28258L2531.66932,1725.48257L2533.58934,1714.56256L2533.58934,1710.48255L2533.58934,1700.52254L2532.02932,1693.44253
				L2520.50919,1687.08252L2514.50912,1686.72252L2506.46902,1679.76251L2499.14894,1672.68249L2495.9089,1665.96248L2489.78883,1662.48248
				L2481.26873,1662.48248L2466.98857,1651.80246L2466.14856,1651.32246L2449.94837,1646.76246L2446.58833,1644.60245L2442.26828,1641.60245
				L2420.42803,1633.32244L2405.06785,1619.28242L2391.50769,1614.48241L2381.78758,1611.4824L2376.62752,1610.1624L2373.50748,1609.4424
				L2366.4274,1609.2024L2356.70729,1609.2024L2344.58715,1610.1624L2336.54706,1610.1624L2327.54695,1614.24241L2317.22683,1616.28241
				L2300.42664,1611.7224L2293.46656,1606.6824L2280.86641,1598.64238L2270.30629,1594.32238L2265.86624,1592.40238L2255.78612,1582.80236
				L2247.74603,1573.08235L2242.22596,1567.80234L2227.22579,1561.08233L2214.38564,1557.96232L2194.58541,1553.16232L2192.54539,1552.56232
				L2182.58527,1549.68231L2169.02512,1548.48231L2151.26491,1550.04231L2127.74464,1544.8823L2127.38463,1544.7623L2121.86457,1543.6823
				L2111.54445,1537.68229L2100.50432,1531.20228L2093.78425,1524.96227L2081.6641,1519.20227L2073.62401,1516.68226L2065.34392,1512.84226
				L2057.06382,1506.84225L2053.10377,1500.60224L2047.1037,1496.04223L2035.58357,1494.00223L2030.54351,1496.04223L2023.22343,1497.12223
				L2018.66338,1496.04223L2018.30337,1496.04223L2007.14324,1497.84223L1993.70309,1500.12224L1991.90307,1500.36224L1982.90296,1501.56224
				L1976.06288,1504.32224L1968.6228,1508.64225L1954.22263,1503.84224L1944.98252,1503.84224L1935.98242,1505.64225L1928.90234,1510.08225
				L1920.62224,1513.68226L1904.78206,1516.32226L1881.02178,1528.92228L1877.06174,1533.84229L1876.22173,1539.0023L1876.46173,1545.0023
				L1876.46173,1549.56231L1871.90168,1559.76233L1869.02164,1568.28234L1864.70159,1575.72235L1863.38158,1577.76235L1846.94139,1605.00239
				L1841.42132,1611.4824L1836.86127,1619.28242L1833.74123,1631.28243L1828.58117,1641.72245L1821.8611,1646.88246L1814.06101,1652.64247
				L1802.78088,1662.48248L1797.38081,1670.52249L1791.38074,1674.3625L1784.18066,1677.4825L1779.74061,1689.12252L1771.10051,1696.56253
				L1767.02046,1702.92254L1760.66039,1705.80254L1746.38022,1710.60255L1739.66014,1710.12255L1736.30011,1709.76255L1734.86009,1707.96255
				L1730.42004,1707.48255L1724.41997,1706.28255L1718.1799,1706.28255L1710.61981,1710.36255L1708.21978,1710.84255L1707.73977,1711.32255
				L1700.17969,1716.96256L1697.53966,1720.32257L1693.93962,1724.88257L1692.7396,1727.52258L1693.69961,1729.44258L1694.17962,1732.44258
				L1698.01966,1737.24259L1698.25967,1745.6426L1696.57965,1753.92262L1689.37956,1767.24264L1689.61957,1777.80265L1690.33957,1788.48267
				L1688.89956,1795.92268L1679.29945,1797.84268L1674.01938,1798.92268L1662.13925,1794.72268L1660.93923,1794.36268L1650.73911,1785.72266
				L1636.57895,1783.68266L1622.05878,1780.92266L1613.05868,1780.92266L1608.85863,1783.32266L1608.73863,1783.32266L1608.61863,1783.44266
				L1607.41861,1784.64266L1601.77855,1790.04267L1590.01841,1797.60268L1579.33829,1801.32269L1571.5382,1800.48269L1570.45819,1800.48269
				L1563.2581,1800.24269L1562.8981,1800.24269L1562.41809,1800.24269L1551.61797,1803.24269L1550.41795,1803.48269L1550.29795,1803.60269
				L1550.17795,1803.60269L1549.81795,1803.72269L1542.37786,1810.5627L1539.37783,1813.3227L1526.05767,1822.20272L1518.61759,1828.08273
				L1502.2974,1840.92275L1494.73731,1847.28276L1491.01727,1855.92277L1489.09724,1861.80278L1482.61717,1868.88279L1480.81715,1870.80279
				L1478.53712,1872.60279L1476.8571,1872.72279L1467.13699,1877.0428L1459.4569,1883.64281L1458.37689,1884.48281L1458.37689,1885.32281
				L1458.13688,1889.88282L1458.61689,1891.32282L1460.17691,1896.00283L1461.85693,1901.16284L1462.81694,1904.88284L1464.13695,1906.56284
				L1464.25696,1906.56284L1466.29698,1908.12285L1466.41698,1908.24285L1467.25699,1909.80285L1467.25699,1909.92285L1466.65698,1913.52285
				L1466.17698,1915.80286L1465.09697,1920.00286L1463.05694,1925.52287L1462.93694,1925.76287L1462.93694,1925.88287L1462.69694,1931.16288
				L1461.61693,1938.00289L1461.37692,1938.00289L1459.8169,1938.24289L1459.5769,1938.24289L1459.3369,1938.24289L1458.85689,1938.36289
				L1458.73689,1938.36289L1458.61689,1938.36289L1458.49689,1938.36289L1452.61682,1939.08289L1438.69666,1944.1229L1431.97658,1946.5229
				L1424.29649,1945.9229L1423.21648,1945.4429L1419.61644,1944.0029L1417.69642,1942.3229L1409.17632,1935.36289L1408.57631,1934.28289
				L1406.05628,1929.48288L1401.61623,1920.48286L1374.49592,1920.00286L1363.21579,1919.40286L1354.69569,1910.52285L1347.4956,1898.28283
				L1335.13546,1878.3628L1335.49546,1875.6028L1335.37546,1875.0028L1335.37546,1874.7628L1334.65545,1871.28279L1334.41545,1869.60279
				L1333.45544,1867.44279L1332.61543,1865.76278L1332.37543,1865.16278L1330.2154,1860.48278L1323.37532,1854.48277L1322.05531,1848.36276
				L1319.65528,1843.08275L1313.89521,1838.28274L1313.65521,1838.16274L1313.17521,1837.32274L1312.8152,1836.48274L1309.45516,1829.76273
				L1308.13515,1829.04273L1305.97512,1827.84273L1300.09505,1826.76272L1291.93496,1825.32272L1281.49484,1817.40271L1279.09481,1814.28271
				L1273.33474,1806.8427L1268.41469,1800.60269L1257.73456,1797.84268L1255.69454,1783.68266L1254.97453,1780.80266L1254.13452,1777.68265
				L1252.4545,1776.48265L1251.8545,1776.00265L1248.01445,1761.96263L1242.25438,1753.80262L1237.93433,1750.68261L1237.21433,1750.08261
				L1232.41427,1746.60261L1229.29423,1745.8826L1228.93423,1745.7626L1225.21419,1744.9226L1221.73415,1742.2826L1219.81413,1740.8426
				L1208.894,1744.9226L1202.29392,1746.2426L1201.93392,1746.2426L1194.85384,1747.68261L1189.93378,1748.76261L1189.81378,1748.76261
				L1185.37373,1749.72261L1180.81367,1750.68261L1179.13365,1751.04261L1167.13352,1753.92262L1166.89351,1753.92262L1162.21346,1755.00262
				L1161.73345,1755.12262L1133.17312,1767.72264L1123.21301,1765.68263L1101.37275,1755.84262L1079.6525,1742.5226L1079.5325,1742.5226
				L1068.01237,1740.4826L1059.13226,1741.5626L1053.8522,1741.5626L1045.2121,1741.5626L1032.85196,1738.80259L1026.13188,1741.2026
				L1014.49175,1744.9226L1005.25164,1744.9226L994.33151,1741.8026L985.21141,1737.36259L981.97137,1733.52259L981.73137,1733.28259
				L967.0912,1731.96258L956.17107,1739.76259L950.41101,1752.12261L947.29097,1760.64263L941.89091,1774.56265L937.81086,1788.60267
				L936.01084,1792.32267L929.17076,1807.6827L922.81069,1814.88271L918.61064,1814.04271L918.49064,1814.04271L908.05052,1812.1227
				L900.25042,1803.96269L886.21026,1790.28267L885.01025,1788.60267L884.05024,1787.28267L879.01018,1780.68266L878.41017,1780.08266
				L878.29017,1779.84265L878.17017,1779.72265L866.77004,1769.16264L846.3698,1757.16262L841.32974,1753.32262L843.84977,1740.7226
				L844.68978,1736.40259L846.4898,1727.76258L845.76979,1725.36257L843.48977,1717.32256L840.48973,1706.88255L840.00973,1705.92254
				L839.88973,1705.80254L831.48963,1688.88252L831.48963,1688.76252L829.3296,1684.44251L829.0896,1684.20251L828.9696,1683.96251
				L828.9696,1683.84251L828.6096,1683.00251L827.16958,1681.32251L827.04958,1681.32251L827.04958,1681.20251L817.56947,1670.52249
				L817.56947,1670.40249L817.44947,1670.40249L814.32943,1666.80249L814.20943,1666.56249L813.72942,1666.08249L813.60942,1665.96248
				L807.60935,1659.12247L804.84932,1656.36247L804.48932,1656.00247L799.44926,1650.96246L797.88924,1649.40246L795.84922,1647.36246
				L795.72921,1647.24246L795.60921,1647.00246L795.60921,1646.88246L795.60921,1646.76246L795.48921,1646.64246L795.48921,1646.76246
				L795.24921,1646.40246L790.08915,1635.84244L789.96915,1635.72244L788.52913,1632.84244L788.40913,1632.60244L788.40913,1632.48244
				L788.28913,1632.36243L786.60911,1629.00243L786.48911,1628.64243L784.80909,1625.52242L783.72908,1623.36242L765.84887,1620.36242
				L763.68884,1619.88242L753.72873,1617.84241L751.92871,1617.48241L751.2087,1617.36241L751.0887,1617.36241L750.9687,1617.36241
				L739.68857,1608.8424L739.56856,1608.8424L738.96856,1608.3624L736.08852,1603.20239L735.96852,1603.08239L735.24851,1601.76239
				L735.00851,1601.40239L729.96845,1592.64238L729.96845,1592.52238L727.08842,1587.48237L721.92836,1581.12236L721.68836,1580.76236
				L719.88834,1578.48235L716.28829,1574.04235L715.08828,1572.60235L714.12827,1571.88234L713.88827,1571.88234L713.52826,1571.64234
				L712.56825,1571.04234L709.92822,1569.36234L705.00816,1566.24234L695.76806,1560.48233L693.72803,1559.16233L691.208,1557.60232
				L692.40802,1551.48231L694.20804,1542.7223L690.848,1542.0023L680.16788,1539.8423L680.04787,1539.8423L679.92787,1539.8423L
				679.32787,1539.7223L668.40774,1534.20229L668.16774,1534.20229L655.44759,1527.84228L653.64757,1526.64228L646.44749,1521.84227
				L638.7674,1518.00226L632.88733,1515.00226L632.64733,1514.88226L628.56728,1512.84226L627.72727,1512.36226L627.60727,1512.36226
				L622.56721,1509.24225L613.68711,1503.96224L602.88698,1499.16224L602.76698,1499.04224L594.24688,1495.32223L588.00681,1492.56223
				L587.88681,1492.44223L586.8068,1491.96223L584.16676,1490.04222L584.04676,1489.92222L581.88674,1488.24222L581.76674,1488.24222
				L580.32672,1487.16222L580.20672,1487.04222L576.36667,1484.16221L576.24667,1484.04221L574.80666,1482.96221L570.3666,1479.48221
				L559.92648,1471.08219L541.92628,1468.08219L534.48619,1466.52219L534.36619,1466.52219L534.24619,1466.52219L527.0461,1465.08219
				L515.16597,1477.0822L498.00577,1465.56219L497.88577,1465.56219L497.16576,1465.08219L497.04576,1464.96219L493.56572,1462.68218
				L493.32571,1462.56218L488.28565,1459.08218L480.72557,1455.36217L480.60557,1455.24217L480.48556,1455.24217L477.24553,1453.56217
				L463.80537,1446.96216L463.68537,1446.84216L458.40531,1444.20215L450.72522,1442.04215L450.60522,1442.04215L444.96515,1440.36215
				L444.84515,1440.36215L437.52507,1438.20215L435.84505,1434.96214L435.84505,1434.84214L434.52503,1432.44214L434.52503,1432.32214
				L431.645,1426.44213L431.525,1426.32213L430.44498,1424.04212L430.32498,1423.92212L428.52496,1420.32212L418.56485,1415.28211
				L415.80482,1413.96211L413.76479,1412.88211L410.64476,1411.32211L406.92471,1405.6821L406.92471,1406.8821L404.04468,1415.64211
				L403.08467,1418.52212L400.92464,1424.88213L400.32464,1426.08213L399.84463,1427.40213L399.72463,1427.52213L399.60463,1427.88213
				L396.8446,1434.48214L391.92454,1445.76216L388.2045,1447.80216L388.08449,1447.92216L382.20443,1451.04216L382.08442,1451.16216
				L378.84439,1452.84217L378.72439,1452.96217L377.16437,1453.80217L377.04437,1453.80217L376.92437,1453.92217L374.76434,1455.12217
				L374.52434,1455.24217L371.1643,1457.04217L368.88427,1458.24218L364.80422,1460.52218L364.32422,1460.76218L364.20422,1460.76218
				L358.08415,1464.12218L357.72414,1464.36218L329.64382,1479.60221L322.32373,1477.5622L319.6837,1476.8422L317.40368,1476.1222
				L305.88354,1473.0022L303.48351,1471.5622L303.36351,1471.5622L303.00351,1471.32219L302.88351,1471.20219L295.08342,1466.52219
				L294.96342,1466.52219L289.92336,1463.40218L285.96331,1461.12218L285.1233,1453.56217L285.1233,1453.44217L284.6433,1449.24216
				L284.8833,1448.76216L285.0033,1448.64216L293.8834,1431.96214L302.0435,1414.32211L302.6435,1412.88211L306.24355,1405.0821
				L304.68353,1403.40209L292.92339,1391.28208L283.92329,1382.04206L278.76323,1376.64205L278.64323,1376.52205L274.08317,1371.84205
				L273.96317,1371.72205L269.76312,1367.28204L269.52312,1367.16204L264.72307,1362.24203L264.72307,1362.12203L261.36303,1358.64203
				L261.24303,1358.52203L256.92298,1354.08202L256.68297,1353.84202L255.36296,1352.52202L255.00295,1352.04202L254.28294,1351.32202
				L251.04291,1343.042L250.3229,1341.242L247.68287,1334.16199L248.64288,1328.04198L248.64288,1327.80198L250.92291,1313.88196
				L251.64291,1309.08195L251.40291,1304.04195L251.40291,1303.20194L251.28291,1301.76194L251.28291,1301.64194L251.28291,1301.16194
				L251.04291,1295.88193L251.04291,1295.40193L251.04291,1295.16193L250.92291,1293.72193L250.5629,1284.84192L250.3229,1281.12191
				L250.3229,1280.04191L245.88285,1270.08189L245.76285,1269.84189L244.68283,1267.56189L244.44283,1266.96189L243.12282,1264.08189
				L238.44276,1253.52187L226.92263,1243.32185L224.7626,1241.52185L221.28256,1238.40185L219.84255,1232.16184L218.04253,1223.40182
				L217.92252,1223.28182L217.68252,1222.08182L216.60251,1216.92182L216.60251,1216.68181L216.48251,1216.56181L216.2425,1215.48181
				L215.6425,1212.60181L215.16249,1210.20181L203.76236,1212.72181L200.16232,1213.44181L197.64229,1214.04181L186.84216,1209.8418
				L181.3221,1207.6818L172.442,1204.3218L167.04193,1202.28179L163.8019,1200.96179L158.04183,1198.80179L157.08182,1198.20179
				L158.40183,1197.24179L160.68186,1195.56178L162.24188,1188.96177L162.96189,1186.44177L164.64191,1179.60176L165.96192,1174.44175
				L167.16194,1169.28174L167.76194,1168.08174L169.08196,1164.96174L177.24205,1145.88171L185.16214,1127.52168L185.16214,1103.64165
				L194.04225,1070.7616L208.92242,1061.88158L209.04242,1061.88158L220.92256,1046.88156L232.9227,1038.00155L244.80284,1023.00153
				L253.80294,1008.1215L266.40309,980.88146L271.68315,969.36145L282.00327,959.04143L283.68329,957.36143L288.60334,945.00141
				L289.56335,942.48141L297.84345,940.4414L301.56349,939.4814L319.4437,951.36142L322.68374,952.68142L334.32387,957.36143L349.32405,957.36143
				L370.20429,963.36144L373.44432,963.36144L381.48442,963.36144L385.08446,963.36144L403.08467,963.36144L417.96484,963.36144
				L432.84501,963.36144L448.44519,965.52144L472.20547,966.12144L473.40548,966.24144L493.32571,954.48142L512.16593,949.68142
				L525.84609,949.68142L528.36612,949.68142L531.96616,951.00142L544.80631,955.56143L551.40639,963.60144L559.68648,973.80145
				L575.40666,979.92146L582.00674,975.24145L584.40677,952.44142L582.24674,936.8414L582.12674,936.4814L582.00674,934.92139L580.08672,932.40139
				L571.32662,920.88137L556.92645,900.24134L553.80641,888.12132L553.0864,872.6413L553.0864,855.84128L549.36636,842.76126L549.36636,842.40126
				L545.52632,829.08124L541.44627,818.04122L541.44627,803.2812L545.52632,792.96118L564.12653,773.28115L570.96661,756.48113L
				577.92669,744.48111L633.60734,738.2411L641.76743,749.16112L654.48758,765.96114L658.80763,769.80115L672.84779,782.28117L689.64799,797.04119
				L692.28802,798.36119L699.2481,801.8412L717.48831,811.08121L722.28836,813.60121L736.68853,812.40121L746.52864,811.56121L776.04899,809.04121
				L808.20936,806.2812L812.40941,832.44124L816.00945,834.84125L837.6097,848.76127L851.52986,857.88128L872.5301,861.36129L882.13021,862.56129
				L902.05045,865.56129L912.73057,867.24129L940.57089,870.0013L942.01091,869.7613L944.77094,866.52129L966.01119,856.56128L978.73133,858.60128
				L991.81148,855.12128L1001.17159,850.68127L1012.09172,844.44126L1012.21172,844.56126L1016.89178,844.92126L1058.29225,848.28127
				L1058.53226,848.28127L1072.93242,851.04127L1081.93253,856.20128L1082.65254,857.88128L1086.01258,866.88129L1094.29267,876.48131
				L1107.01282,876.48131L1118.05295,880.20131L1130.77309,880.20131L1147.57329,888.84133L1170.25355,902.64135L1190.29378,917.04137
				L1210.21401,932.16139L1237.69433,943.92141L1249.57447,947.64141L1251.73449,948.36141L1258.33457,953.28142L1268.65469,961.08143
				L1276.21478,962.40144L1276.81479,962.16144L1305.13511,952.08142L1316.77525,947.28141L1323.97533,937.6814L1333.57544,932.88139
				L1337.77549,926.04138L1349.41563,926.28138L1358.89574,932.64139L1361.05576,934.20139L1361.17576,934.20139L1374.13591,930.12139
				L1379.65598,929.04139L1383.25602,927.36138L1391.41611,923.52138L1407.13629,922.92138L1420.21645,924.24138L1433.2966,932.88139
				L1439.89667,947.64141L1440.97669,953.16142L1441.9367,957.60143L1445.77674,958.44143L1452.61682,960.00143L1457.05687,960.12143
				L1469.05701,960.36143L1475.29708,957.60143L1495.21731,926.04138L1506.61745,915.36137L1513.81753,905.04135L1523.77764,894.36133
				L1527.49769,889.92133L1535.77778,888.84133L1542.01786,879.96131L1550.17795,870.6013L1555.09801,862.68129L1558.09804,853.08127
				L1571.8982,843.84126L1578.37828,839.04125L1629.97887,845.16126L1659.25921,849.96127L1670.17934,859.32128L1671.97936,866.16129
				L1677.13942,875.04131L1678.09943,877.56131L1679.53945,880.92131L1692.2596,890.28133L1708.33978,895.44134L1709.8998,895.32134
				L1727.78001,894.60133L1734.14008,894.36133L1755.14032,895.08134L1755.26033,894.96134L1770.7405,892.92133L1772.06052,892.80133
				L1794.74078,892.92133L1800.14084,905.04135L1820.54108,920.40137L1825.58114,924.24138L1839.7413,928.68139L1875.50172,934.92139
				L1893.38192,942.12141L1920.14223,959.88143L1924.94229,963.12144L1941.14248,983.76147L1945.94253,996.84149L1947.14255,1008.1215
				L1947.38255,1010.16151L1953.50262,1018.08152L1953.74262,1018.08152L1963.82274,1016.04152L1967.90279,1014.12151L1981.70295,1007.5215
				L1994.06309,1005.3615L2014.70333,1007.5215L2046.3837,1006.8015L2052.50377,1005.7215L2079.74408,1003.6815L2104.10436,1005.3615
				L2115.8645,998.16149L2133.0247,993.00148L2146.10485,985.08147L2156.78497,983.04147L2164.94507,983.40147L2180.42525,977.52146
				L2195.18542,980.28146L2212.10562,972.72145L2224.10575,972.36145L2237.54591,976.92146L2254.70611,979.32146L2262.2662,982.32147
				L2273.66633,982.68147L2284.34645,978.60146L2292.86655,975.84146L2315.54681,966.60144L2332.107,956.64143L2340.98711,950.40142
				L2351.30723,948.36141L2357.5473,954.12142L2360.90734,954.96142L2361.02734,954.96142L2366.78741,956.28143L2368.58743,960.72143
				L2368.82743,965.88144L2380.58757,973.44145L2388.50766,982.32147L2397.38776,993.72148L2399.18778,1005.7215L2395.70774,1014.36151
				L2390.54768,1018.44152L2380.94757,1032.60154L2379.74756,1036.92155L2379.14755,1039.08155L2377.82753,1047.00156L2379.86756,1054.56157
				L2380.94757,1058.40158L2382.14758,1060.20158L2387.06764,1068.00159L2396.78775,1085.16162L2407.70788,1101.72164L2416.70798,1097.88164
				L2428.10812,1090.20163L2431.46816,1087.92162L2437.34822,1086.60162L2448.98836,1082.76162L2455.58843,1070.7616L2467.94858,1052.16157
				L2475.50867,1039.44155L2491.94886,1014.00151L2497.46892,993.00148L2500.10895,985.68147L2509.22906,960.36143L2527.10926,943.56141
				L2535.26936,940.6814L2540.06941,939.0014L2540.54942,935.04139"/>
			<path clip-path="url(#SVG_CP_1)" fill="none" stroke="#000000" stroke-width="3.96005" stroke-miterlimit="10" stroke-linecap="round" stroke-linejoin="round" d="
				M2540.54942,935.04139L2542.46944,919.08137L2542.46944,910.20136L2534.06934,899.52134L2532.86933,898.08134L2523.98923,887.16132
				L2523.98923,879.24131L2523.98923,879.12131L2523.98923,879.00131L2523.98923,866.16129L2526.74926,853.80127L2531.18931,840.72125
				L2524.34923,826.92123L2515.70913,817.32122L2512.58909,806.6412L2520.50919,790.20118L2530.82931,781.20117L2535.26936,776.76116
				L2551.10954,773.28115L2556.98961,771.96115L2572.46979,761.64114L2582.78991,752.40112L2585.54994,743.04111L2595.51005,745.80111
				L2605.47017,748.92112L2615.43029,743.76111L2629.47045,732.12109L2648.07066,717.24107L2671.11093,709.08106L2684.55109,699.36104
				L2688.63113,690.48103L2689.35114,674.28101L2697.63124,663.36099L2706.87134,645.48096"/>
		</g>
		<g id="sattlements">
			<path clip-path="url(#SVG_CP_1)" fill="#FF0000" fill-rule="evenodd" stroke="#000000" stroke-width="0.96001" stroke-miterlimit="10" stroke-linecap="round" stroke-linejoin="round" d="
				M1443.61672,1365.12204C1443.61672,1359.62127,1439.15742,1355.16202,1433.6566,1355.16202C1428.15578,1355.16202,1423.69649,1359.62127
				,1423.69649,1365.12204C1423.69649,1370.6228,1428.15578,1375.08205,1433.6566,1375.08205C1439.15742,1375.08205,1443.61672,1370.6228
				,1443.61672,1365.12204z"/>
			<path clip-path="url(#SVG_CP_1)" fill="#FF0000" fill-rule="evenodd" stroke="#000000" stroke-width="0.96001" stroke-miterlimit="10" stroke-linecap="round" stroke-linejoin="round" d="
				M1564.57812,1608.6024C1564.57812,1603.10164,1560.11882,1598.64238,1554.618,1598.64238C1549.11718,1598.64238,1544.65789,1603.10164
				,1544.65789,1608.6024C1544.65789,1614.10316,1549.11718,1618.56241,1554.618,1618.56241C1560.11882,1618.56241,1564.57812,1614.10316
				,1564.57812,1608.6024z"/>
			<path clip-path="url(#SVG_CP_1)" fill="#FF0000" fill-rule="evenodd" stroke="#000000" stroke-width="0.96001" stroke-miterlimit="10" stroke-linecap="round" stroke-linejoin="round" d="
				M1468.097,1862.52278C1468.097,1857.02201,1463.6377,1852.56276,1458.13688,1852.56276C1452.63606,1852.56276,1448.17677,1857.02201
				,1448.17677,1862.52278C1448.17677,1868.02354,1452.63606,1872.48279,1458.13688,1872.48279C1463.6377,1872.48279,1468.097,1868.02354
				,1468.097,1862.52278z"/>
			<path clip-path="url(#SVG_CP_1)" fill="#FF0000" fill-rule="evenodd" stroke="#000000" stroke-width="0.96001" stroke-miterlimit="10" stroke-linecap="round" stroke-linejoin="round" d="
				M1452.61682,1771.20264C1452.61682,1765.70188,1448.15753,1761.24263,1442.65671,1761.24263C1437.15589,1761.24263,1432.69659,1765.70188
				,1432.69659,1771.20264C1432.69659,1776.70341,1437.15589,1781.16266,1442.65671,1781.16266C1448.15753,1781.16266,1452.61682,1776.70341
				,1452.61682,1771.20264z"/>
			<path clip-path="url(#SVG_CP_1)" fill="#FF0000" fill-rule="evenodd" stroke="#000000" stroke-width="0.96001" stroke-miterlimit="10" stroke-linecap="round" stroke-linejoin="round" d="
				M1184.65372,1367.52204C1184.65372,1362.02128,1180.19442,1357.56203,1174.6936,1357.56203C1169.19278,1357.56203,1164.73349,1362.02128
				,1164.73349,1367.52204C1164.73349,1373.0228,1169.19278,1377.48205,1174.6936,1377.48205C1180.19442,1377.48205,1184.65372,1373.0228
				,1184.65372,1367.52204z"/>
			<path clip-path="url(#SVG_CP_1)" fill="#FF0000" fill-rule="evenodd" stroke="#000000" stroke-width="0.96001" stroke-miterlimit="10" stroke-linecap="round" stroke-linejoin="round" d="
				M1089.61262,1386.24207C1089.61262,1380.7413,1085.15332,1376.28205,1079.6525,1376.28205C1074.15168,1376.28205,1069.69239,1380.7413
				,1069.69239,1386.24207C1069.69239,1391.74283,1074.15168,1396.20208,1079.6525,1396.20208C1085.15332,1396.20208,1089.61262,1391.74283
				,1089.61262,1386.24207z"/>
			<path clip-path="url(#SVG_CP_1)" fill="#FF0000" fill-rule="evenodd" stroke="#000000" stroke-width="0.96001" stroke-miterlimit="10" stroke-linecap="round" stroke-linejoin="round" d="
				M2275.10634,1382.28206C2275.10634,1376.7813,2270.64705,1372.32205,2265.14623,1372.32205C2259.64541,1372.32205,2255.18611,1376.7813
				,2255.18611,1382.28206C2255.18611,1387.78283,2259.64541,1392.24208,2265.14623,1392.24208C2270.64705,1392.24208,2275.10634,1387.78283
				,2275.10634,1382.28206z"/>
			<path clip-path="url(#SVG_CP_1)" fill="#FF0000" fill-rule="evenodd" stroke="#000000" stroke-width="0.96001" stroke-miterlimit="10" stroke-linecap="round" stroke-linejoin="round" d="
				M2372.54747,1397.28208C2372.54747,1391.78132,2368.08818,1387.32207,2362.58736,1387.32207C2357.08654,1387.32207,2352.62724,1391.78132
				,2352.62724,1397.28208C2352.62724,1402.78285,2357.08654,1407.2421,2362.58736,1407.2421C2368.08818,1407.2421,2372.54747,1402.78285
				,2372.54747,1397.28208z"/>
			<path clip-path="url(#SVG_CP_1)" fill="#FF0000" fill-rule="evenodd" stroke="#000000" stroke-width="0.96001" stroke-miterlimit="10" stroke-linecap="round" stroke-linejoin="round" d="
				M2443.10829,1396.32208C2443.10829,1390.82132,2438.64899,1386.36207,2433.14817,1386.36207C2427.64735,1386.36207,2423.18806,1390.82132
				,2423.18806,1396.32208C2423.18806,1401.82285,2427.64735,1406.2821,2433.14817,1406.2821C2438.64899,1406.2821,2443.10829,1401.82285
				,2443.10829,1396.32208z"/>
			<path clip-path="url(#SVG_CP_1)" fill="#FF0000" fill-rule="evenodd" stroke="#000000" stroke-width="0.96001" stroke-miterlimit="10" stroke-linecap="round" stroke-linejoin="round" d="
				M2434.9482,1433.76214C2434.9482,1428.26137,2430.4889,1423.80212,2424.98808,1423.80212C2419.48726,1423.80212,2415.02796,1428.26137
				,2415.02796,1433.76214C2415.02796,1439.2629,2419.48726,1443.72215,2424.98808,1443.72215C2430.4889,1443.72215,2434.9482,1439.2629
				,2434.9482,1433.76214z"/>
			<path clip-path="url(#SVG_CP_1)" fill="#FF0000" fill-rule="evenodd" stroke="#000000" stroke-width="0.96001" stroke-miterlimit="10" stroke-linecap="round" stroke-linejoin="round" d="
				M1347.97561,1398.48209C1347.97561,1392.98132,1343.51631,1388.52207,1338.01549,1388.52207C1332.51467,1388.52207,1328.05538,1392.98132
				,1328.05538,1398.48209C1328.05538,1403.98285,1332.51467,1408.4421,1338.01549,1408.4421C1343.51631,1408.4421,1347.97561,1403.98285
				,1347.97561,1398.48209z"/>
			<path clip-path="url(#SVG_CP_1)" fill="#FF0000" fill-rule="evenodd" stroke="#000000" stroke-width="0.96001" stroke-miterlimit="10" stroke-linecap="round" stroke-linejoin="round" d="
				M1456.45687,1647.24246C1456.45687,1641.74169,1451.99757,1637.28244,1446.49675,1637.28244C1440.99593,1637.28244,1436.53663,1641.74169
				,1436.53663,1647.24246C1436.53663,1652.74322,1440.99593,1657.20247,1446.49675,1657.20247C1451.99757,1657.20247,1456.45687,1652.74322
				,1456.45687,1647.24246z"/>
			<path clip-path="url(#SVG_CP_1)" fill="#FF0000" fill-rule="evenodd" stroke="#000000" stroke-width="0.96001" stroke-miterlimit="10" stroke-linecap="round" stroke-linejoin="round" d="
				M2185.2253,1395.36208C2185.2253,1389.86132,2180.76601,1385.40207,2175.26519,1385.40207C2169.76437,1385.40207,2165.30507,1389.86132
				,2165.30507,1395.36208C2165.30507,1400.86285,2169.76437,1405.3221,2175.26519,1405.3221C2180.76601,1405.3221,2185.2253,1400.86285
				,2185.2253,1395.36208z"/>
			<path clip-path="url(#SVG_CP_1)" fill="#FF0000" fill-rule="evenodd" stroke="#000000" stroke-width="0.96001" stroke-miterlimit="10" stroke-linecap="round" stroke-linejoin="round" d="
				M1362.13577,1385.28207C1362.13577,1379.7813,1357.67648,1375.32205,1352.17566,1375.32205C1346.67484,1375.32205,1342.21554,1379.7813
				,1342.21554,1385.28207C1342.21554,1390.78283,1346.67484,1395.24208,1352.17566,1395.24208C1357.67648,1395.24208,1362.13577,1390.78283
				,1362.13577,1385.28207z"/>
		</g>
		<g id="sattlements_Anno_5">
			<g font-family="'Sylfaen'" font-size="1" kerning="0" font-weight="700" fill="#000000" clip-path="url(#SVG_CP_1)" >
				<text text-anchor="start" transform="matrix(49.92058 0 0 49.92007 1444.21672 1362.00203)" >
					<tspan direction="ltr" unicode-bidi="embed" x="0 "></tspan>
					<tspan direction="ltr" unicode-bidi="embed" x="0.5048 "></tspan>
					<tspan direction="ltr" unicode-bidi="embed" x="0.92307 "></tspan>
					<tspan direction="ltr" unicode-bidi="embed" x="1.43027 "></tspan>
					<tspan direction="ltr" unicode-bidi="embed" x="1.97835 "></tspan>
					<tspan direction="ltr" unicode-bidi="embed" x="2.92064 "></tspan>
				</text>
			</g>
			<g font-family="'Sylfaen'" font-size="1" kerning="0" font-weight="700" fill="#000000" clip-path="url(#SVG_CP_1)" >
				<text text-anchor="start" transform="matrix(49.92058 0 0 49.92007 1554.738 1597.32238)" >
					<tspan direction="ltr" unicode-bidi="embed" x="0 "></tspan>
					<tspan direction="ltr" unicode-bidi="embed" x="0.48557 "></tspan>
					<tspan direction="ltr" unicode-bidi="embed" x="0.90384 "></tspan>
					<tspan direction="ltr" unicode-bidi="embed" x="1.39181 "></tspan>
					<tspan direction="ltr" unicode-bidi="embed" x="1.81008 "></tspan>
					<tspan direction="ltr" unicode-bidi="embed" x="2.49276 "></tspan>
				</text>
			</g>
			<g font-family="'Sylfaen'" font-size="1" kerning="0" font-weight="700" fill="#000000" clip-path="url(#SVG_CP_1)" >
				<text text-anchor="start" transform="matrix(49.92058 0 0 49.92007 1269.7347 1805.52269)" >
					<tspan direction="ltr" unicode-bidi="embed" x="0 "></tspan>
					<tspan direction="ltr" unicode-bidi="embed" x="0.68028 "></tspan>
					<tspan direction="ltr" unicode-bidi="embed" x="1.2572 "></tspan>
					<tspan direction="ltr" unicode-bidi="embed" x="1.78123 "></tspan>
					<tspan direction="ltr" unicode-bidi="embed" x="2.2668 "></tspan>
					<tspan direction="ltr" unicode-bidi="embed" x="2.73315 "></tspan>
					<tspan direction="ltr" unicode-bidi="embed" x="3.67544 "></tspan>
					<tspan direction="ltr" unicode-bidi="embed" x="4.41101 "></tspan>
					<tspan direction="ltr" unicode-bidi="embed" x="5.0937 "></tspan>
				</text>
			</g>
			<g font-family="'Sylfaen'" font-size="1" kerning="0" font-weight="700" fill="#000000" clip-path="url(#SVG_CP_1)" >
				<text text-anchor="start" transform="matrix(49.92058 0 0 49.92007 1445.89674 1740.0026)" >
					<tspan direction="ltr" unicode-bidi="embed" x="0 "></tspan>
					<tspan direction="ltr" unicode-bidi="embed" x="0.46153 "></tspan>
					<tspan direction="ltr" unicode-bidi="embed" x="0.94711 "></tspan>
					<tspan direction="ltr" unicode-bidi="embed" x="1.41345 "></tspan>
					<tspan direction="ltr" unicode-bidi="embed" x="2.24517 "></tspan>
					<tspan direction="ltr" unicode-bidi="embed" x="2.92786 "></tspan>
					<tspan direction="ltr" unicode-bidi="embed" x="3.39179 "></tspan>
					<tspan direction="ltr" unicode-bidi="embed" x="3.89419 "></tspan>
				</text>
			</g>
			<g font-family="'Sylfaen'" font-size="1" kerning="0" font-weight="700" fill="#000000" clip-path="url(#SVG_CP_1)" >
				<text text-anchor="start" transform="matrix(49.92058 0 0 49.92007 1041.13206 1351.80202)" >
					<tspan direction="ltr" unicode-bidi="embed" x="0 "></tspan>
					<tspan direction="ltr" unicode-bidi="embed" x="0.49519 "></tspan>
					<tspan direction="ltr" unicode-bidi="embed" x="0.91345 "></tspan>
					<tspan direction="ltr" unicode-bidi="embed" x="1.40143 "></tspan>
					<tspan direction="ltr" unicode-bidi="embed" x="1.81969 "></tspan>
					<tspan direction="ltr" unicode-bidi="embed" x="2.32209 "></tspan>
				</text>
			</g>
			<g font-family="'Sylfaen'" font-size="1" kerning="0" font-weight="700" fill="#000000" clip-path="url(#SVG_CP_1)" >
				<text text-anchor="start" transform="matrix(49.92058 0 0 49.92007 874.45013 1410.4821)" >
					<tspan direction="ltr" unicode-bidi="embed" x="0 "></tspan>
					<tspan direction="ltr" unicode-bidi="embed" x="0.52403 "></tspan>
					<tspan direction="ltr" unicode-bidi="embed" x="0.99038 "></tspan>
					<tspan direction="ltr" unicode-bidi="embed" x="1.93027 "></tspan>
					<tspan direction="ltr" unicode-bidi="embed" x="2.39661 "></tspan>
					<tspan direction="ltr" unicode-bidi="embed" x="3.22833 "></tspan>
				</text>
			</g>
			<g font-family="'Sylfaen'" font-size="1" kerning="0" font-weight="700" fill="#000000" clip-path="url(#SVG_CP_1)" >
				<text text-anchor="start" transform="matrix(49.92058 0 0 49.92007 1918.58222 1432.80214)" >
					<tspan direction="ltr" unicode-bidi="embed" x="0 "></tspan>
					<tspan direction="ltr" unicode-bidi="embed" x="0.45673 "></tspan>
					<tspan direction="ltr" unicode-bidi="embed" x="0.87499 "></tspan>
					<tspan direction="ltr" unicode-bidi="embed" x="1.40143 "></tspan>
					<tspan direction="ltr" unicode-bidi="embed" x="2.137 "></tspan>
					<tspan direction="ltr" unicode-bidi="embed" x="2.62497 "></tspan>
					<tspan direction="ltr" unicode-bidi="embed" x="3.4567 "></tspan>
					<tspan direction="ltr" unicode-bidi="embed" x="3.92304 "></tspan>
					<tspan direction="ltr" unicode-bidi="embed" x="4.60572 "></tspan>
				</text>
			</g>
			<g font-family="'Sylfaen'" font-size="1" kerning="0" font-weight="700" fill="#000000" clip-path="url(#SVG_CP_1)" >
				<text text-anchor="start" transform="matrix(49.92058 0 0 49.92007 2361.62735 1379.76206)" >
					<tspan direction="ltr" unicode-bidi="embed" x="0 "></tspan>
					<tspan direction="ltr" unicode-bidi="embed" x="0.47115 "></tspan>
					<tspan direction="ltr" unicode-bidi="embed" x="1.02162 "></tspan>
					<tspan direction="ltr" unicode-bidi="embed" x="1.54566 "></tspan>
					<tspan direction="ltr" unicode-bidi="embed" x="1.96392 "></tspan>
					<tspan direction="ltr" unicode-bidi="embed" x="2.64661 "></tspan>
					<tspan direction="ltr" unicode-bidi="embed" x="3.11295 "></tspan>
					<tspan direction="ltr" unicode-bidi="embed" x="3.61535 "></tspan>
				</text>
			</g>
			<g font-family="'Sylfaen'" font-size="1" kerning="0" font-weight="700" fill="#000000" clip-path="url(#SVG_CP_1)" >
				<text text-anchor="start" transform="matrix(49.92058 0 0 49.92007 2449.82837 1425.96213)" >
					<tspan direction="ltr" unicode-bidi="embed" x="0 "></tspan>
					<tspan direction="ltr" unicode-bidi="embed" x="0.48557 "></tspan>
					<tspan direction="ltr" unicode-bidi="embed" x="0.95191 "></tspan>
					<tspan direction="ltr" unicode-bidi="embed" x="1.89181 "></tspan>
				</text>
			</g>
			<g font-family="'Sylfaen'" font-size="1" kerning="0" font-weight="700" fill="#000000" clip-path="url(#SVG_CP_1)" >
				<text text-anchor="start" transform="matrix(49.92058 0 0 49.92007 2287.94649 1476.0022)" >
					<tspan direction="ltr" unicode-bidi="embed" x="0 "></tspan>
					<tspan direction="ltr" unicode-bidi="embed" x="0.5 "></tspan>
					<tspan direction="ltr" unicode-bidi="embed" x="0.95432 "></tspan>
					<tspan direction="ltr" unicode-bidi="embed" x="1.42066 "></tspan>
					<tspan direction="ltr" unicode-bidi="embed" x="2.25238 "></tspan>
				</text>
			</g>
			<g font-family="'Sylfaen'" font-size="1" kerning="0" font-weight="700" fill="#000000" clip-path="url(#SVG_CP_1)" >
				<text text-anchor="start" transform="matrix(49.92058 0 0 49.92007 1129.93308 1436.28214)" >
					<tspan direction="ltr" unicode-bidi="embed" x="0 "></tspan>
					<tspan direction="ltr" unicode-bidi="embed" x="0.93989 "></tspan>
					<tspan direction="ltr" unicode-bidi="embed" x="1.40624 "></tspan>
					<tspan direction="ltr" unicode-bidi="embed" x="1.89421 "></tspan>
					<tspan direction="ltr" unicode-bidi="embed" x="2.62738 "></tspan>
					<tspan direction="ltr" unicode-bidi="embed" x="3.09372 "></tspan>
					<tspan direction="ltr" unicode-bidi="embed" x="3.61775 "></tspan>
				</text>
			</g>
			<g font-family="'Sylfaen'" font-size="1" kerning="0" font-weight="700" fill="#000000" clip-path="url(#SVG_CP_1)" >
				<text text-anchor="start" transform="matrix(49.92058 0 0 49.92007 1286.8349 1631.76243)" >
					<tspan direction="ltr" unicode-bidi="embed" x="0 "></tspan>
					<tspan direction="ltr" unicode-bidi="embed" x="0.52403 "></tspan>
					<tspan direction="ltr" unicode-bidi="embed" x="1.21874 "></tspan>
					<tspan direction="ltr" unicode-bidi="embed" x="1.90383 "></tspan>
					<tspan direction="ltr" unicode-bidi="embed" x="2.6394 "></tspan>
					<tspan direction="ltr" unicode-bidi="embed" x="3.32208 "></tspan>
				</text>
			</g>
			<g font-family="'Sylfaen'" font-size="1" kerning="0" font-weight="700" fill="#000000" clip-path="url(#SVG_CP_1)" >
				<text text-anchor="start" transform="matrix(49.92058 0 0 49.92007 2183.42528 1366.32204)" >
					<tspan direction="ltr" unicode-bidi="embed" x="0 "></tspan>
					<tspan direction="ltr" unicode-bidi="embed" x="0.48557 "></tspan>
					<tspan direction="ltr" unicode-bidi="embed" x="0.90384 "></tspan>
					<tspan direction="ltr" unicode-bidi="embed" x="1.39181 "></tspan>
					<tspan direction="ltr" unicode-bidi="embed" x="1.81008 "></tspan>
					<tspan direction="ltr" unicode-bidi="embed" x="2.31007 "></tspan>
				</text>
			</g>
			<g font-family="'Sylfaen'" font-size="1" kerning="0" font-weight="700" fill="#000000" clip-path="url(#SVG_CP_1)" >
				<text text-anchor="start" transform="matrix(49.92058 0 0 49.92007 1202.53393 1360.08203)" >
					<tspan direction="ltr" unicode-bidi="embed" x="0 "></tspan>
					<tspan direction="ltr" unicode-bidi="embed" x="0.93989 "></tspan>
					<tspan direction="ltr" unicode-bidi="embed" x="1.40624 "></tspan>
					<tspan direction="ltr" unicode-bidi="embed" x="1.85335 "></tspan>
					<tspan direction="ltr" unicode-bidi="embed" x="2.34132 "></tspan>
					<tspan direction="ltr" unicode-bidi="embed" x="3.07689 "></tspan>
					<tspan direction="ltr" unicode-bidi="embed" x="3.75958 "></tspan>
				</text>
			</g>
		</g>
	</g>
</svg>
