<?xml version="1.0" encoding="utf-8" standalone="no"?>
<!-- Creator: Esri ArcMap 10.9.1.28388 -->
<!DOCTYPE svg PUBLIC "-//W3C//DTD SVG 1.1//EN"  "http://www.w3.org/Graphics/SVG/1.1/DTD/svg11.dtd">
<svg width="2592pt" height="3456pt" viewBox="0 0 2592 3456" enable-background="new 0 0 2592 3456"
	version="1.1" xmlns="http://www.w3.org/2000/svg" xmlns:xlink="http://www.w3.org/1999/xlink" >
	<g id="Layers">
		<g id="municipal">
			<path clip-path="url(#SVG_CP_1)" fill="#ce8d34" fill-rule="evenodd" stroke="#000000" stroke-width="3.96" stroke-miterlimit="10" stroke-linecap="round" stroke-linejoin="round" d="
				M843.36,439.55558L876.84,459.35538L923.16,456.8354L975.6,456.8354L998.88,453.35544L1015.2,449.87547L1039.2,455.03542L1058.16,461.99535
				L1068.36,471.35526L1075.32,485.15512L1084.8,486.8351L1120.8,476.5152L1150.92,476.5152L1156.08,484.31513L1160.4,497.155L1187.88,522.95474
				L1198.2,540.11456L1216.2,560.75436L1248,583.07413L1270.32,592.55404L1284.12,601.07395L1316.76,608.03388L1339.92,611.39385
				L1376.88,609.71386L1393.2,610.55385L1415.52,615.7138L1437.84,616.55379L1460.16,616.55379L1485.12,610.55385L1497.12,602.03394
				L1509,619.19377L1522.56,631.31365L1538.52,631.79364L1548.6,635.15361L1555.92,654.47341L1594.08,687.35308L1608.12,698.51297
				L1615.8,716.39279L1617.24,733.31262L1635.12,749.15246L1662.72,768.59226L1683.96,777.71217L1693.2,786.95208L1706.16,803.87191
				L1709.04,821.75173L1709.04,840.59154L1701.36,857.03137L1694.64,874.3112L1695.12,900.95093L1696.08,913.5508L1708.56,918.35076
				L1735.68,920.27074L1742.4,928.55065L1751.16,928.07066L1758.84,925.07069L1764.24,925.55068L1769.04,924.1107L1776.24,921.23073
				L1786.44,922.19072L1808.16,930.95063L1824.6,958.43035L1833.72,972.47021L1842,983.1501L1841.52,999.10994L1842.96,1007.74986
				L1866.12,1022.26971L1881.6,1021.30972L1902.36,1014.46979L1920.24,1010.14983L1934.76,1009.66984L1953.6,1004.38989L1969.08,994.66999
				L1984.56,984.11009L2001.48,984.11009L2017.44,986.03007L2034.84,1001.98991L2041.08,1017.94975L2038.68,1033.4296L2032.92,1049.74943
				L2030.52,1061.86931L2033.4,1071.10922L2051.76,1078.30915L2058.96,1085.98907L2060.88,1096.66896L2073.96,1104.94888L2113.08,1129.06863
				L2130,1139.14853L2151.72,1155.58837L2190.96,1170.58822L2217.48,1172.0282L2238.24,1174.42818L2247.48,1185.10807L2250.36,1194.34798
				L2263.92,1195.78796L2288.52,1194.34798L2307.84,1194.34798L2327.64,1201.54791L2332.56,1208.74783L2333.52,1223.74768L2341.68,1227.10765
				L2363.4,1229.14763L2381.88,1231.5476L2396.76,1238.26754L2402.16,1244.98747L2406.96,1266.34725L2415.6,1274.02718L2428.68,1277.86714
				L2439.84,1282.90709L2455.32,1300.06691L2463.84,1313.74678L2474.16,1344.70646L2465.64,1387.66603L2456.16,1434.94556L2436.36,1461.58529
				L2433,1497.34493L2416.2,1515.46475L2410.44,1520.0247L2403.12,1524.94465L2400.36,1529.26461L2398.8,1536.34454L2397.96,1543.18447
				L2390.88,1549.4244L2379.96,1557.82432L2369.64,1560.82429L2360.4,1564.90425L2346.84,1578.10411L2337.36,1588.18401L2309.52,1612.54377
				L2290.32,1627.78361L2274.72,1642.18347L2263.44,1649.1434L2253.36,1655.62333L2244.96,1662.94326L2229.36,1662.94326L2213.04,1659.58329
				L2196,1661.86327L2194.68,1663.18326L2194.56,1663.30326L2193.72,1664.14325L2193.48,1664.26325L2192.4,1665.46324L2182.68,1665.46324
				L2177.52,1667.62321L2173.56,1672.30317L2161.56,1672.30317L2154,1675.54313L2144.88,1670.86318L2140.92,1665.46324L2135.88,1663.66325
				L2130.12,1663.66325L2120.28,1665.46324L2112.12,1667.86321L2112,1667.98321L2111.88,1668.10321L2110.2,1677.70311L2112,1690.06299
				L2117.04,1699.54289L2129.4,1705.30283L2139.48,1720.18268L2140.92,1732.54256L2133.6,1746.82242L2127.96,1757.86231L2114.88,1773.82214
				L2104.68,1777.7821L2096.4,1790.86197L2091.6,1796.98191L2086.92,1823.86164L2076.84,1842.34145L2068.44,1855.66132L2067.36,1865.14123
				L2053.92,1869.46118L2039.88,1864.06124L2031.48,1868.38119L2026.8,1877.1411L2022.84,1883.26104L2016.24,1889.74098L2009.76,1893.46094
				L1995.24,1894.54093L1985.4,1895.62092L1977.48,1900.66087L1970.28,1898.14089L1959,1890.46097L1949.88,1886.14101L1939.8,1879.66108
				L1928.16,1873.42114L1921.68,1875.34112L1911.84,1882.54105L1902.48,1886.86101L1885.56,1886.62101L1865.28,1893.82094L1854.6,1901.62086
				L1846.44,1907.8608L1831.44,1912.66075L1824.12,1922.38065L1811.64,1939.30048L1802.88,1952.38035L1797.12,1974.58012L1794.72,1993.41993
				L1794.72,2001.09986L1785,2014.17973L1778.28,2022.93964L1770.48,2030.13956L1758,2034.45952L1749.24,2052.81934L1745.4,2062.53924
				L1735.2,2063.01923L1715.4,2064.93921L1700.4,2071.17915L1689.36,2086.179L1671,2113.77872L1658.04,2124.93861L1652.16,2130.21856
				L1631.28,2148.57837L1601.88,2174.13811L1596.48,2180.73805L1582.08,2198.73787L1567.08,2213.73772L1564.32,2215.89769L1564.2,2215.89769
				L1560.96,2218.41767L1556.88,2221.53764L1555.08,2225.1376L1554.84,2225.7376L1554.72,2225.97759L1553.04,2229.21756L1547.28,2241.33744
				L1546.8,2251.89733L1546.8,2255.3773L1551.6,2255.3773L1557.36,2255.3773L1558.8,2255.97729L1572.36,2262.57722L1584.96,2271.81713
				L1594.56,2282.37703L1620.24,2288.73696L1641,2290.65694L1650.6,2294.9769L1658.28,2301.09684L1658.4,2301.21684L1658.4,2301.33683
				L1656.96,2307.09678L1626.36,2318.85666L1625.64,2319.09666L1625.52,2319.09666L1625.4,2319.33665L1618.32,2338.41646L1610.52,2357.25627
				L1609.56,2378.13606L1607.64,2400.33584L1607.64,2405.25579L1607.64,2411.97572L1615.8,2428.89555L1631.76,2443.29541L1642.92,2444.73539
				L1655.52,2446.17538L1672.44,2445.69538L1677.48,2445.57538L1677.6,2445.57538L1677.72,2445.57538L1689.84,2445.21539L1696.08,2445.21539
				L1705.8,2467.53516L1701.84,2475.21508L1683.6,2499.81484L1675.56,2510.61473L1675.32,2510.97472L1674.6,2513.1347L1667.16,2535.21448
				L1663.68,2545.77437L1663.2,2547.21436L1660.08,2562.33421L1658.52,2569.65413L1658.04,2571.69411L1655.76,2582.494L1655.52,2583.93399
				L1654.8,2588.85394L1654.44,2592.09391L1654.44,2592.33391L1652.64,2606.25377L1646.76,2624.13359L1636.68,2637.57345L1634.76,2649.69333
				L1632.72,2662.2932L1632.72,2665.41317L1632.72,2665.53317L1632.72,2665.65317L1632.72,2674.29308L1636.68,2686.41296L1637.04,2688.69294
				L1637.16,2690.13292L1641.48,2718.81263L1642.92,2733.33249L1640.52,2741.01241L1643.88,2749.29233L1642.44,2766.21215L1636.68,2784.09197
				L1639.08,2791.2919L1640.52,2796.09185L1621.2,2816.37165L1604.76,2844.93136L1596.6,2861.61119L1596.24,2869.17112L1591.2,2908.17073
				L1590.48,2913.57067L1590.36,2915.01066L1591.44,2915.37065L1591.32,2917.89063L1594.2,2942.25038L1598.16,2965.65015L1598.4,2966.97013
				L1602.96,2998.76981L1604.04,3004.04976L1604.64,3007.04973L1605.96,3014.12966L1606.68,3017.48963L1608.36,3026.12954L1610.76,3038.60941
				L1605.12,3041.24939L1583.52,3039.5694L1582.8,3039.32941L1559.28,3033.32947L1549.92,3030.92949L1525.68,3012.80967L1517.04,2993.72986
				L1493.76,2992.88987L1471.32,2988.56992L1449.48,2996.36984L1431.12,2990.72989L1422,2983.64997L1406.76,2968.53012L1396.32,2966.85014
				L1383.6,2951.61029L1364.64,2931.45049L1334.76,2911.65069L1323,2908.17073L1309.08,2898.09083L1293.84,2895.57085L1284,2886.57094
				L1262.52,2900.4908L1256.16,2910.9307L1240.08,2921.1306L1230.84,2939.61041L1208.88,2968.29012L1189.56,2995.28985L1181.4,3001.52979
				L1178.64,3003.68976L1155.84,2997.80982L1138.08,2995.64985L1122.48,2989.40991L1105.08,2982.56998L1090.68,2979.09001L1082.52,2979.21001
				L1071.12,2977.17003L1054.92,2977.53003L1045.44,2981.60999L1031.76,2984.24996L1012.56,2982.44998L1002.36,2983.28997L992.52,2978.61002
				L986.16,2973.57007L977.64,2968.53012L971.76,2962.41018L966.36,2953.29027L964.44,2947.53033L964.8,2943.09037L953.04,2941.89039
				L925.2,2955.21025L872.64,2936.61044L866.52,2937.21043L845.64,2961.93018L789.48,2924.73056L777.6,2921.0106L758.88,2910.6907
				L752.88,2920.8906L752.4,2921.1306L747.48,2923.29057L739.68,2935.89045L724.8,2930.1305L719.28,2928.09053L714,2925.21055L707.76,2921.85059
				L703.44,2919.45061L703.08,2919.33061L697.08,2916.09065L678.48,2905.29075L652.68,2899.89081L646.2,2901.0908L642.24,2901.93079
				L641.64,2902.05079L631.68,2903.85077L628.8,2904.45076L621.6,2905.77075L619.68,2906.13075L617.88,2906.25075L611.88,2906.49074
				L592.32,2907.33073L589.56,2907.45073L584.88,2907.69073L579.12,2909.97071L572.04,2912.61068L566.52,2914.77066L563.4,2915.97065
				L544.44,2923.29057L543.96,2923.77057L543.36,2924.25056L543.24,2924.25056L543.24,2924.37056L519.48,2944.89036L478.32,2929.77051
				L416.64,2914.77066L396,2903.37077L371.04,2876.37105L363.36,2841.2114L357.84,2823.69158L357.48,2822.73159L355.68,2816.85165
				L346.08,2786.61195L339.24,2731.17251L339,2729.37253L339,2729.25253L339,2729.13253L336.96,2712.2127L339.12,2709.57273L378.24,2662.7732
				L380.76,2638.89344L374.64,2624.61358L370.2,2605.29377L370.08,2604.21379L344.04,2587.89395L315.48,2565.45418L256.08,2561.13422
				L253.44,2561.01422L252.84,2560.89422L246.84,2558.85424L243.24,2557.65425L223.32,2550.69432L221.4,2550.57433L213.96,2549.85433
				L203.76,2548.89434L196.2,2548.29435L190.2,2547.69435L181.56,2546.85436L159.84,2544.69438L149.4,2543.6144L150.48,2523.6946
				L150.96,2502.33481L148.92,2484.45499L135.12,2477.37506L124.44,2463.5752L133.44,2459.01525L146.4,2452.41531L162.48,2431.89552
				L162.6,2431.77552L162.6,2431.65552L168.72,2423.8556L161.16,2410.05574L160.92,2409.93574L151.32,2399.61585L140.28,2387.73596
				L138.48,2385.57599L138.36,2385.57599L137.64,2384.616L137.52,2384.496L137.04,2383.896L136.8,2383.65601L136.68,2383.53601L
				136.68,2383.41601L117.84,2361.21623L127.44,2344.4164L147.84,2306.73678L159.12,2273.01712L172.32,2234.8575L184.92,2205.93779
				L189.12,2196.09789L193.8,2189.01797L203.88,2173.65812L232.92,2128.77857L235.56,2124.81861L248.88,2105.13881L254.16,2097.33889
				L263.4,2083.65903L263.52,2083.53903L263.64,2083.29903L273.48,2070.09916L285.48,2054.01932L307.32,2020.29966L311.4,1996.4199
				L334.32,1990.29997L333.36,1980.10007L346.08,1964.26023L392.4,1939.90047L392.4,1939.78047L392.52,1939.78047L425.88,1928.26059
				L432.24,1926.10061L438.48,1920.46067L460.68,1900.66087L479.52,1878.70109L499.92,1851.70136L510.12,1833.82154L521.4,1830.34158
				L565.2,1832.86155L597.24,1843.06145L628.92,1841.50146L644.16,1829.74158L642.12,1809.94178L639.6,1796.62192L637.56,1794.34194
				L622.8,1776.82211L622.2,1761.46227L618.72,1727.86261L609,1704.46284L604.44,1669.3032L583.56,1625.50364L573.6,1597.66392L
				572.76,1595.38394L575.88,1566.34423L570.24,1545.46444L567.48,1524.34466L562.68,1486.90503L560.28,1481.38509L554.52,1467.46523
				L534.6,1436.38554L510.12,1423.18567L487.68,1396.66594L481.56,1374.22617L482.16,1363.54627L489.72,1327.42664L483.6,1304.50687
				L468.84,1242.82749L486.36,1206.94785L487.68,1204.06788L490.32,1191.34801L497.88,1167.94824L495.84,1149.58843L493.32,1127.50865
				L492.84,1123.0687L501.96,1106.74886L520.32,1097.14896L529.56,1074.70918L553.44,1043.62949L556.56,1024.78968L553.44,1004.38989
				L562.08,989.63004L573.84,967.67026L576.84,952.91041L563.64,936.11058L556.2,921.59072L552.96,915.23079L534.12,897.35097L524.4,862.19132
				L506.52,845.39149L477,821.51173L450.12,807.23187L449.28,796.55198L456,778.55216L476.16,750.71244L498.12,740.39255L513.48,734.9926
				L517.92,728.75266L524.16,717.47278L536.28,709.43286L538.56,699.59296L539.04,690.59305L534.96,682.91313L528.24,677.15318L
				523.32,663.23332L514.32,644.75351L515.28,628.67367L498.6,617.87378L491.4,604.43392L480.24,591.83404L477.48,585.59411L495.48,561.83434
				L496.32,552.95443L497.28,542.51454L508.56,515.51481L521.52,506.5149L535.44,491.75505L537.72,483.71513L547.56,466.6753L556.08,457.67539
				L569.16,461.75535L586.2,463.67533L607.56,454.19543L622.08,449.15548L630.36,456.35541L645.96,464.75532L660.84,466.5553L682.92,459.59537
				L694.2,452.03545L727.32,439.55558L764.28,425.87571L781.44,414.71583L805.56,419.03578L843.36,439.55558z"/>
		</g>
		<g id="sattlements">
			<path clip-path="url(#SVG_CP_1)" fill="#FF0000" fill-rule="evenodd" stroke="#000000" stroke-width="0.96" stroke-miterlimit="10" stroke-linecap="round" stroke-linejoin="round" d="
				M913.2,2282.37703C913.2,2276.87632,908.74076,2272.41713,903.24,2272.41713C897.73924,2272.41713,893.28,2276.87632,893.28,2282.37703
				C893.28,2287.87773,897.73924,2292.33693,903.24,2292.33693C908.74076,2292.33693,913.2,2287.87773,913.2,2282.37703z"/>
			<path clip-path="url(#SVG_CP_1)" fill="#FF0000" fill-rule="evenodd" stroke="#000000" stroke-width="0.96" stroke-miterlimit="10" stroke-linecap="round" stroke-linejoin="round" d="
				M965.16,2179.89806C965.16,2174.39736,960.70076,2169.93816,955.2,2169.93816C949.69924,2169.93816,945.24,2174.39736,945.24,2179.89806
				C945.24,2185.39876,949.69924,2189.85796,955.2,2189.85796C960.70076,2189.85796,965.16,2185.39876,965.16,2179.89806z"/>
			<path clip-path="url(#SVG_CP_1)" fill="#FF0000" fill-rule="evenodd" stroke="#000000" stroke-width="0.96" stroke-miterlimit="10" stroke-linecap="round" stroke-linejoin="round" d="
				M976.44,2149.89836C976.44,2144.39766,971.98076,2139.93846,966.48,2139.93846C960.97924,2139.93846,956.52,2144.39766,956.52,2149.89836
				C956.52,2155.39906,960.97924,2159.85826,966.48,2159.85826C971.98076,2159.85826,976.44,2155.39906,976.44,2149.89836z"/>
			<path clip-path="url(#SVG_CP_1)" fill="#FF0000" fill-rule="evenodd" stroke="#000000" stroke-width="0.96" stroke-miterlimit="10" stroke-linecap="round" stroke-linejoin="round" d="
				M1276.8,1187.50805C1276.8,1182.00735,1272.34076,1177.54815,1266.84,1177.54815C1261.33924,1177.54815,1256.88,1182.00735,1256.88,1187.50805
				C1256.88,1193.00875,1261.33924,1197.46795,1266.84,1197.46795C1272.34076,1197.46795,1276.8,1193.00875,1276.8,1187.50805z"/>
			<path clip-path="url(#SVG_CP_1)" fill="#FF0000" fill-rule="evenodd" stroke="#000000" stroke-width="0.96" stroke-miterlimit="10" stroke-linecap="round" stroke-linejoin="round" d="
				M1843.56,1545.10445C1843.56,1539.60375,1839.10076,1535.14455,1833.6,1535.14455C1828.09924,1535.14455,1823.64,1539.60375,
				1823.64,1545.10445C1823.64,1550.60515,1828.09924,1555.06435,1833.6,1555.06435C1839.10076,1555.06435,1843.56,1550.60515,1843.56,1545.10445
				z"/>
			<path clip-path="url(#SVG_CP_1)" fill="#FF0000" fill-rule="evenodd" stroke="#000000" stroke-width="0.96" stroke-miterlimit="10" stroke-linecap="round" stroke-linejoin="round" d="
				M1266.48,1217.02775C1266.48,1211.52705,1262.02076,1207.06785,1256.52,1207.06785C1251.01924,1207.06785,1246.56,1211.52705
				,1246.56,1217.02775C1246.56,1222.52845,1251.01924,1226.98765,1256.52,1226.98765C1262.02076,1226.98765,1266.48,1222.52845
				,1266.48,1217.02775z"/>
			<path clip-path="url(#SVG_CP_1)" fill="#FF0000" fill-rule="evenodd" stroke="#000000" stroke-width="0.96" stroke-miterlimit="10" stroke-linecap="round" stroke-linejoin="round" d="
				M1421.16,2502.69481C1421.16,2497.19411,1416.70076,2492.73491,1411.2,2492.73491C1405.69924,2492.73491,1401.24,2497.19411,
				1401.24,2502.69481C1401.24,2508.19551,1405.69924,2512.65471,1411.2,2512.65471C1416.70076,2512.65471,1421.16,2508.19551,1421.16,2502.69481
				z"/>
			<path clip-path="url(#SVG_CP_1)" fill="#FF0000" fill-rule="evenodd" stroke="#000000" stroke-width="0.96" stroke-miterlimit="10" stroke-linecap="round" stroke-linejoin="round" d="
				M1420.92,2331.81653C1420.92,2326.31583,1416.46076,2321.85663,1410.96,2321.85663C1405.45924,2321.85663,1401,2326.31583,1401,2331.81653
				C1401,2337.31723,1405.45924,2341.77643,1410.96,2341.77643C1416.46076,2341.77643,1420.92,2337.31723,1420.92,2331.81653z"/>
			<path clip-path="url(#SVG_CP_1)" fill="#FF0000" fill-rule="evenodd" stroke="#000000" stroke-width="0.96" stroke-miterlimit="10" stroke-linecap="round" stroke-linejoin="round" d="
				M1231.8,2035.77951C1231.8,2030.27881,1227.34076,2025.81961,1221.84,2025.81961C1216.33924,2025.81961,1211.88,2030.27881,1211.88,2035.77951
				C1211.88,2041.28021,1216.33924,2045.73941,1221.84,2045.73941C1227.34076,2045.73941,1231.8,2041.28021,1231.8,2035.77951z"/>
			<path clip-path="url(#SVG_CP_1)" fill="#FF0000" fill-rule="evenodd" stroke="#000000" stroke-width="0.96" stroke-miterlimit="10" stroke-linecap="round" stroke-linejoin="round" d="
				M1416.84,1919.98067C1416.84,1914.47997,1412.38076,1910.02077,1406.88,1910.02077C1401.37924,1910.02077,1396.92,1914.47997
				,1396.92,1919.98067C1396.92,1925.48137,1401.37924,1929.94057,1406.88,1929.94057C1412.38076,1929.94057,1416.84,1925.48137
				,1416.84,1919.98067z"/>
			<path clip-path="url(#SVG_CP_1)" fill="#FF0000" fill-rule="evenodd" stroke="#000000" stroke-width="0.96" stroke-miterlimit="10" stroke-linecap="round" stroke-linejoin="round" d="
				M1079.28,2117.13869C1079.28,2111.63799,1074.82076,2107.17879,1069.32,2107.17879C1063.81924,2107.17879,1059.36,2111.63799
				,1059.36,2117.13869C1059.36,2122.63939,1063.81924,2127.09859,1069.32,2127.09859C1074.82076,2127.09859,1079.28,2122.63939
				,1079.28,2117.13869z"/>
			<path clip-path="url(#SVG_CP_1)" fill="#FF0000" fill-rule="evenodd" stroke="#000000" stroke-width="0.96" stroke-miterlimit="10" stroke-linecap="round" stroke-linejoin="round" d="
				M1465.32,1302.70689C1465.32,1297.20619,1460.86076,1292.74699,1455.36,1292.74699C1449.85924,1292.74699,1445.4,1297.20619,
				1445.4,1302.70689C1445.4,1308.20759,1449.85924,1312.66679,1455.36,1312.66679C1460.86076,1312.66679,1465.32,1308.20759,1465.32,1302.70689
				z"/>
			<path clip-path="url(#SVG_CP_1)" fill="#FF0000" fill-rule="evenodd" stroke="#000000" stroke-width="0.96" stroke-miterlimit="10" stroke-linecap="round" stroke-linejoin="round" d="
				M1230.96,2319.69665C1230.96,2314.19595,1226.50076,2309.73675,1221,2309.73675C1215.49924,2309.73675,1211.04,2314.19595,1211.04,2319.69665
				C1211.04,2325.19735,1215.49924,2329.65655,1221,2329.65655C1226.50076,2329.65655,1230.96,2325.19735,1230.96,2319.69665z"/>
			<path clip-path="url(#SVG_CP_1)" fill="#FF0000" fill-rule="evenodd" stroke="#000000" stroke-width="0.96" stroke-miterlimit="10" stroke-linecap="round" stroke-linejoin="round" d="
				M1025.04,1939.18048C1025.04,1933.67978,1020.58076,1929.22058,1015.08,1929.22058C1009.57924,1929.22058,1005.12,1933.67978
				,1005.12,1939.18048C1005.12,1944.68118,1009.57924,1949.14038,1015.08,1949.14038C1020.58076,1949.14038,1025.04,1944.68118
				,1025.04,1939.18048z"/>
			<path clip-path="url(#SVG_CP_1)" fill="#FF0000" fill-rule="evenodd" stroke="#000000" stroke-width="0.96" stroke-miterlimit="10" stroke-linecap="round" stroke-linejoin="round" d="
				M1075.44,2043.69943C1075.44,2038.19873,1070.98076,2033.73953,1065.48,2033.73953C1059.97924,2033.73953,1055.52,2038.19873
				,1055.52,2043.69943C1055.52,2049.20013,1059.97924,2053.65933,1065.48,2053.65933C1070.98076,2053.65933,1075.44,2049.20013
				,1075.44,2043.69943z"/>
			<path clip-path="url(#SVG_CP_1)" fill="#FF0000" fill-rule="evenodd" stroke="#000000" stroke-width="0.96" stroke-miterlimit="10" stroke-linecap="round" stroke-linejoin="round" d="
				M1125.12,2318.97666C1125.12,2313.47596,1120.66076,2309.01676,1115.16,2309.01676C1109.65924,2309.01676,1105.2,2313.47596,
				1105.2,2318.97666C1105.2,2324.47736,1109.65924,2328.93656,1115.16,2328.93656C1120.66076,2328.93656,1125.12,2324.47736,1125.12,2318.97666
				z"/>
			<path clip-path="url(#SVG_CP_1)" fill="#FF0000" fill-rule="evenodd" stroke="#000000" stroke-width="0.96" stroke-miterlimit="10" stroke-linecap="round" stroke-linejoin="round" d="
				M1305,2026.8996C1305,2021.3989,1300.54076,2016.9397,1295.04,2016.9397C1289.53924,2016.9397,1285.08,2021.3989,1285.08,2026.8996
				C1285.08,2032.4003,1289.53924,2036.8595,1295.04,2036.8595C1300.54076,2036.8595,1305,2032.4003,1305,2026.8996z"/>
			<path clip-path="url(#SVG_CP_1)" fill="#FF0000" fill-rule="evenodd" stroke="#000000" stroke-width="0.96" stroke-miterlimit="10" stroke-linecap="round" stroke-linejoin="round" d="
				M813.48,2270.13715C813.48,2264.63645,809.02076,2260.17725,803.52,2260.17725C798.01924,2260.17725,793.56,2264.63645,793.56,2270.13715
				C793.56,2275.63785,798.01924,2280.09705,803.52,2280.09705C809.02076,2280.09705,813.48,2275.63785,813.48,2270.13715z"/>
			<path clip-path="url(#SVG_CP_1)" fill="#FF0000" fill-rule="evenodd" stroke="#000000" stroke-width="0.96" stroke-miterlimit="10" stroke-linecap="round" stroke-linejoin="round" d="
				M319.8,2282.37703C319.8,2276.87632,315.34076,2272.41713,309.84,2272.41713C304.33924,2272.41713,299.88,2276.87632,299.88,2282.37703
				C299.88,2287.87773,304.33924,2292.33693,309.84,2292.33693C315.34076,2292.33693,319.8,2287.87773,319.8,2282.37703z"/>
			<path clip-path="url(#SVG_CP_1)" fill="#FF0000" fill-rule="evenodd" stroke="#000000" stroke-width="0.96" stroke-miterlimit="10" stroke-linecap="round" stroke-linejoin="round" d="
				M603,2357.13627C603,2351.63557,598.54076,2347.17637,593.04,2347.17637C587.53924,2347.17637,583.08,2351.63557,583.08,2357.13627
				C583.08,2362.63697,587.53924,2367.09617,593.04,2367.09617C598.54076,2367.09617,603,2362.63697,603,2357.13627z"/>
			<path clip-path="url(#SVG_CP_1)" fill="#FF0000" fill-rule="evenodd" stroke="#000000" stroke-width="0.96" stroke-miterlimit="10" stroke-linecap="round" stroke-linejoin="round" d="
				M301.92,2490.93493C301.92,2485.43423,297.46076,2480.97503,291.96,2480.97503C286.45924,2480.97503,282,2485.43423,282,2490.93493
				C282,2496.43563,286.45924,2500.89483,291.96,2500.89483C297.46076,2500.89483,301.92,2496.43563,301.92,2490.93493z"/>
		</g>
		<g id="sattlements_Anno_4">
			<g font-family="'Sylfaen'" font-size="1" kerning="0" font-weight="700" fill="#000000" clip-path="url(#SVG_CP_1)" >
				<text text-anchor="start" transform="matrix(49.92 0 0 49.9195 923.76 2275.77709)" >
					<tspan direction="ltr" unicode-bidi="embed" x="0 ">კ</tspan>
					<tspan direction="ltr" unicode-bidi="embed" x="0.45192 ">ო</tspan>
					<tspan direction="ltr" unicode-bidi="embed" x="1.14903 ">მ</tspan>
					<tspan direction="ltr" unicode-bidi="embed" x="1.6346 ">ა</tspan>
					<tspan direction="ltr" unicode-bidi="embed" x="2.05286 ">ნ</tspan>
					<tspan direction="ltr" unicode-bidi="embed" x="2.54084 ">დ</tspan>
					<tspan direction="ltr" unicode-bidi="embed" x="3.37256 ">ე</tspan>
					<tspan direction="ltr" unicode-bidi="embed" x="3.8389 ">ლ</tspan>
					<tspan direction="ltr" unicode-bidi="embed" x="4.7812 ">ი</tspan>
				</text>
			</g>
			<g font-family="'Sylfaen'" font-size="1" kerning="0" font-weight="700" fill="#000000" clip-path="url(#SVG_CP_1)" >
				<text text-anchor="start" transform="matrix(49.92 0 0 49.9195 787.44 2187.93798)" >
					<tspan direction="ltr" unicode-bidi="embed" x="0 ">ლ</tspan>
					<tspan direction="ltr" unicode-bidi="embed" x="0.93989 ">ა</tspan>
					<tspan direction="ltr" unicode-bidi="embed" x="1.35816 ">ჩ</tspan>
					<tspan direction="ltr" unicode-bidi="embed" x="1.83171 ">თ</tspan>
					<tspan direction="ltr" unicode-bidi="embed" x="2.6418 ">ა</tspan>
				</text>
			</g>
			<g font-family="'Sylfaen'" font-size="1" kerning="0" font-weight="700" fill="#000000" clip-path="url(#SVG_CP_1)" >
				<text text-anchor="start" transform="matrix(49.92 0 0 49.9195 993.12 2202.69783)" >
					<tspan direction="ltr" unicode-bidi="embed" x="0 ">ო</tspan>
					<tspan direction="ltr" unicode-bidi="embed" x="0.69471 ">ნ</tspan>
					<tspan direction="ltr" unicode-bidi="embed" x="1.18268 ">ი</tspan>
				</text>
			</g>
			<g font-family="'Sylfaen'" font-size="1" kerning="0" font-weight="700" fill="#000000" clip-path="url(#SVG_CP_1)" >
				<text text-anchor="start" transform="matrix(49.92 0 0 49.9195 784.2 2134.29852)" >
					<tspan direction="ltr" unicode-bidi="embed" x="0 ">შ</tspan>
					<tspan direction="ltr" unicode-bidi="embed" x="0.5 ">ე</tspan>
					<tspan direction="ltr" unicode-bidi="embed" x="0.96634 ">უ</tspan>
					<tspan direction="ltr" unicode-bidi="embed" x="1.70431 ">ბ</tspan>
					<tspan direction="ltr" unicode-bidi="embed" x="2.20911 ">ა</tspan>
					<tspan direction="ltr" unicode-bidi="embed" x="2.62738 ">ნ</tspan>
					<tspan direction="ltr" unicode-bidi="embed" x="3.11535 ">ი</tspan>
				</text>
			</g>
			<g font-family="'Sylfaen'" font-size="1" kerning="0" font-weight="700" fill="#000000" clip-path="url(#SVG_CP_1)" >
				<text text-anchor="start" transform="matrix(49.92 0 0 49.9195 1266.96 1165.66827)" >
					<tspan direction="ltr" unicode-bidi="embed" x="0 ">ღ</tspan>
					<tspan direction="ltr" unicode-bidi="embed" x="0.67307 ">ე</tspan>
					<tspan direction="ltr" unicode-bidi="embed" x="1.13941 ">ბ</tspan>
					<tspan direction="ltr" unicode-bidi="embed" x="1.64662 ">ი</tspan>
				</text>
			</g>
			<g font-family="'Sylfaen'" font-size="1" kerning="0" font-weight="700" fill="#000000" clip-path="url(#SVG_CP_1)" >
				<text text-anchor="start" transform="matrix(49.92 0 0 49.9195 1838.16 1520.98469)" >
					<tspan direction="ltr" unicode-bidi="embed" x="0 ">გ</tspan>
					<tspan direction="ltr" unicode-bidi="embed" x="0.51442 ">ლ</tspan>
					<tspan direction="ltr" unicode-bidi="embed" x="1.45672 ">ო</tspan>
					<tspan direction="ltr" unicode-bidi="embed" x="2.15142 ">ლ</tspan>
					<tspan direction="ltr" unicode-bidi="embed" x="3.09372 ">ა</tspan>
				</text>
			</g>
			<g font-family="'Sylfaen'" font-size="1" kerning="0" font-weight="700" fill="#000000" clip-path="url(#SVG_CP_1)" >
				<text text-anchor="start" transform="matrix(49.92 0 0 49.9195 960.6 1220.38772)" >
					<tspan direction="ltr" unicode-bidi="embed" x="0 ">პ</tspan>
					<tspan direction="ltr" unicode-bidi="embed" x="0.47596 ">ა</tspan>
					<tspan direction="ltr" unicode-bidi="embed" x="0.89422 ">ტ</tspan>
					<tspan direction="ltr" unicode-bidi="embed" x="1.62739 ">ა</tspan>
					<tspan direction="ltr" unicode-bidi="embed" x="2.04565 ">რ</tspan>
					<tspan direction="ltr" unicode-bidi="embed" x="2.72834 ">ა</tspan>
					<tspan direction="ltr" unicode-bidi="embed" x="3.39179 ">ღ</tspan>
					<tspan direction="ltr" unicode-bidi="embed" x="4.06727 ">ე</tspan>
					<tspan direction="ltr" unicode-bidi="embed" x="4.53361 ">ბ</tspan>
					<tspan direction="ltr" unicode-bidi="embed" x="5.03841 ">ი</tspan>
				</text>
			</g>
			<g font-family="'Sylfaen'" font-size="1" kerning="0" font-weight="700" fill="#000000" clip-path="url(#SVG_CP_1)" >
				<text text-anchor="start" transform="matrix(49.92 0 0 49.9195 1412.4 2478.57505)" >
					<tspan direction="ltr" unicode-bidi="embed" x="0 ">წ</tspan>
					<tspan direction="ltr" unicode-bidi="embed" x="0.49519 ">ე</tspan>
					<tspan direction="ltr" unicode-bidi="embed" x="0.96153 ">დ</tspan>
					<tspan direction="ltr" unicode-bidi="embed" x="1.79325 ">ი</tspan>
					<tspan direction="ltr" unicode-bidi="embed" x="2.34373 ">ს</tspan>
					<tspan direction="ltr" unicode-bidi="embed" x="2.8293 ">ი</tspan>
				</text>
			</g>
			<g font-family="'Sylfaen'" font-size="1" kerning="0" font-weight="700" fill="#000000" clip-path="url(#SVG_CP_1)" >
				<text text-anchor="start" transform="matrix(49.92 0 0 49.9195 1419 2304.21681)" >
					<tspan direction="ltr" unicode-bidi="embed" x="0 ">ქ</tspan>
					<tspan direction="ltr" unicode-bidi="embed" x="0.44711 ">ვ</tspan>
					<tspan direction="ltr" unicode-bidi="embed" x="0.93028 ">ე</tspan>
					<tspan direction="ltr" unicode-bidi="embed" x="1.39662 ">დ</tspan>
					<tspan direction="ltr" unicode-bidi="embed" x="2.22834 ">ი</tspan>
				</text>
			</g>
			<g font-family="'Sylfaen'" font-size="1" kerning="0" font-weight="700" fill="#000000" clip-path="url(#SVG_CP_1)" >
				<text text-anchor="start" transform="matrix(49.92 0 0 49.9195 1090.56 2014.29972)" >
					<tspan direction="ltr" unicode-bidi="embed" x="0 ">ნ</tspan>
					<tspan direction="ltr" unicode-bidi="embed" x="0.48557 ">ა</tspan>
					<tspan direction="ltr" unicode-bidi="embed" x="0.90384 ">კ</tspan>
					<tspan direction="ltr" unicode-bidi="embed" x="1.35816 ">ი</tspan>
					<tspan direction="ltr" unicode-bidi="embed" x="1.90864 ">ე</tspan>
					<tspan direction="ltr" unicode-bidi="embed" x="2.37498 ">თ</tspan>
					<tspan direction="ltr" unicode-bidi="embed" x="3.18506 ">ი</tspan>
				</text>
			</g>
			<g font-family="'Sylfaen'" font-size="1" kerning="0" font-weight="700" fill="#000000" clip-path="url(#SVG_CP_1)" >
				<text text-anchor="start" transform="matrix(49.92 0 0 49.9195 1407 1898.02089)" >
					<tspan direction="ltr" unicode-bidi="embed" x="0 ">უ</tspan>
					<tspan direction="ltr" unicode-bidi="embed" x="0.73557 ">წ</tspan>
					<tspan direction="ltr" unicode-bidi="embed" x="1.23316 ">ე</tspan>
					<tspan direction="ltr" unicode-bidi="embed" x="1.6971 ">რ</tspan>
					<tspan direction="ltr" unicode-bidi="embed" x="2.37978 ">ა</tspan>
				</text>
			</g>
			<g font-family="'Sylfaen'" font-size="1" kerning="0" font-weight="700" fill="#000000" clip-path="url(#SVG_CP_1)" >
				<text text-anchor="start" transform="matrix(49.92 0 0 49.9195 1069.44 2095.17891)" >
					<tspan direction="ltr" unicode-bidi="embed" x="0 ">ღ</tspan>
					<tspan direction="ltr" unicode-bidi="embed" x="0.67307 ">ა</tspan>
					<tspan direction="ltr" unicode-bidi="embed" x="1.09134 ">რ</tspan>
					<tspan direction="ltr" unicode-bidi="embed" x="1.77402 ">ი</tspan>
				</text>
			</g>
			<g font-family="'Sylfaen'" font-size="1" kerning="0" font-weight="700" fill="#000000" clip-path="url(#SVG_CP_1)" >
				<text text-anchor="start" transform="matrix(49.92 0 0 49.9195 1476 1293.94698)" >
					<tspan direction="ltr" unicode-bidi="embed" x="0 ">ჭ</tspan>
					<tspan direction="ltr" unicode-bidi="embed" x="0.53605 ">ი</tspan>
					<tspan direction="ltr" unicode-bidi="embed" x="1.08412 ">ო</tspan>
					<tspan direction="ltr" unicode-bidi="embed" x="1.78123 ">რ</tspan>
					<tspan direction="ltr" unicode-bidi="embed" x="2.46151 ">ა</tspan>
				</text>
			</g>
			<g font-family="'Sylfaen'" font-size="1" kerning="0" font-weight="700" fill="#000000" clip-path="url(#SVG_CP_1)" >
				<text text-anchor="start" transform="matrix(49.92 0 0 49.9195 597.6 2344.5364)" >
					<tspan direction="ltr" unicode-bidi="embed" x="0 ">ს</tspan>
					<tspan direction="ltr" unicode-bidi="embed" x="0.48557 ">ე</tspan>
					<tspan direction="ltr" unicode-bidi="embed" x="0.95191 ">ვ</tspan>
					<tspan direction="ltr" unicode-bidi="embed" x="1.43508 ">ა</tspan>
				</text>
			</g>
			<g font-family="'Sylfaen'" font-size="1" kerning="0" font-weight="700" fill="#000000" clip-path="url(#SVG_CP_1)" >
				<text text-anchor="start" transform="matrix(49.92 0 0 49.9195 304.44 2466.69517)" >
					<tspan direction="ltr" unicode-bidi="embed" x="0 ">ქ</tspan>
					<tspan direction="ltr" unicode-bidi="embed" x="0.44711 ">ვ</tspan>
					<tspan direction="ltr" unicode-bidi="embed" x="0.93028 ">ე</tspan>
					<tspan direction="ltr" unicode-bidi="embed" x="1.39662 ">მ</tspan>
					<tspan direction="ltr" unicode-bidi="embed" x="1.8846 ">ო</tspan>
					<tspan direction="ltr" unicode-bidi="embed" x="2.8269 ">ბ</tspan>
					<tspan direction="ltr" unicode-bidi="embed" x="3.3317 ">ა</tspan>
					<tspan direction="ltr" unicode-bidi="embed" x="3.74996 ">რ</tspan>
					<tspan direction="ltr" unicode-bidi="embed" x="4.43265 ">ი</tspan>
				</text>
			</g>
			<g font-family="'Sylfaen'" font-size="1" kerning="0" font-weight="700" fill="#000000" clip-path="url(#SVG_CP_1)" >
				<text text-anchor="start" transform="matrix(49.92 0 0 49.9195 1192.44 2374.89609)" >
					<tspan direction="ltr" unicode-bidi="embed" x="0 ">ო</tspan>
					<tspan direction="ltr" unicode-bidi="embed" x="0.69471 ">ნ</tspan>
					<tspan direction="ltr" unicode-bidi="embed" x="1.18268 ">ჭ</tspan>
					<tspan direction="ltr" unicode-bidi="embed" x="1.71873 ">ე</tspan>
					<tspan direction="ltr" unicode-bidi="embed" x="2.18507 ">ვ</tspan>
					<tspan direction="ltr" unicode-bidi="embed" x="2.66824 ">ი</tspan>
				</text>
			</g>
			<g font-family="'Sylfaen'" font-size="1" kerning="0" font-weight="700" fill="#000000" clip-path="url(#SVG_CP_1)" >
				<text text-anchor="start" transform="matrix(49.92 0 0 49.9195 1019.76 1924.42063)" >
					<tspan direction="ltr" unicode-bidi="embed" x="0 ">ს</tspan>
					<tspan direction="ltr" unicode-bidi="embed" x="0.48557 ">ა</tspan>
					<tspan direction="ltr" unicode-bidi="embed" x="0.90384 ">კ</tspan>
					<tspan direction="ltr" unicode-bidi="embed" x="1.35816 ">ა</tspan>
					<tspan direction="ltr" unicode-bidi="embed" x="1.77642 ">ო</tspan>
				</text>
			</g>
			<g font-family="'Sylfaen'" font-size="1" kerning="0" font-weight="700" fill="#000000" clip-path="url(#SVG_CP_1)" >
				<text text-anchor="start" transform="matrix(49.92 0 0 49.9195 826.44 2040.81946)" >
					<tspan direction="ltr" unicode-bidi="embed" x="0 ">ლ</tspan>
					<tspan direction="ltr" unicode-bidi="embed" x="0.93989 ">ა</tspan>
					<tspan direction="ltr" unicode-bidi="embed" x="1.35816 ">გ</tspan>
					<tspan direction="ltr" unicode-bidi="embed" x="1.87498 ">ვ</tspan>
					<tspan direction="ltr" unicode-bidi="embed" x="2.35815 ">ა</tspan>
					<tspan direction="ltr" unicode-bidi="embed" x="2.77882 ">ნ</tspan>
					<tspan direction="ltr" unicode-bidi="embed" x="3.26439 ">თ</tspan>
					<tspan direction="ltr" unicode-bidi="embed" x="4.07688 ">ა</tspan>
				</text>
			</g>
			<g font-family="'Sylfaen'" font-size="1" kerning="0" font-weight="700" fill="#000000" clip-path="url(#SVG_CP_1)" >
				<text text-anchor="start" transform="matrix(49.92 0 0 49.9195 874.68 2353.65631)" >
					<tspan direction="ltr" unicode-bidi="embed" x="0 ">პ</tspan>
					<tspan direction="ltr" unicode-bidi="embed" x="0.47596 ">ი</tspan>
					<tspan direction="ltr" unicode-bidi="embed" x="1.02403 ">პ</tspan>
					<tspan direction="ltr" unicode-bidi="embed" x="1.50239 ">ი</tspan>
					<tspan direction="ltr" unicode-bidi="embed" x="2.05046 ">ლ</tspan>
					<tspan direction="ltr" unicode-bidi="embed" x="2.99276 ">ე</tspan>
					<tspan direction="ltr" unicode-bidi="embed" x="3.4591 ">თ</tspan>
					<tspan direction="ltr" unicode-bidi="embed" x="4.26919 ">ი</tspan>
				</text>
			</g>
			<g font-family="'Sylfaen'" font-size="1" kerning="0" font-weight="700" fill="#000000" clip-path="url(#SVG_CP_1)" >
				<text text-anchor="start" transform="matrix(49.92 0 0 49.9195 1306.32 2063.25923)" >
					<tspan direction="ltr" unicode-bidi="embed" x="0 ">ჯ</tspan>
					<tspan direction="ltr" unicode-bidi="embed" x="0.72836 ">ი</tspan>
					<tspan direction="ltr" unicode-bidi="embed" x="1.27883 ">ნ</tspan>
					<tspan direction="ltr" unicode-bidi="embed" x="1.76441 ">ჭ</tspan>
					<tspan direction="ltr" unicode-bidi="embed" x="2.30286 ">ვ</tspan>
					<tspan direction="ltr" unicode-bidi="embed" x="2.78603 ">ი</tspan>
					<tspan direction="ltr" unicode-bidi="embed" x="3.33651 ">ს</tspan>
					<tspan direction="ltr" unicode-bidi="embed" x="3.82208 ">ი</tspan>
				</text>
			</g>
			<g font-family="'Sylfaen'" font-size="1" kerning="0" font-weight="700" fill="#000000" clip-path="url(#SVG_CP_1)" >
				<text text-anchor="start" transform="matrix(49.92 0 0 49.9195 563.28 2254.29731)" >
					<tspan direction="ltr" unicode-bidi="embed" x="0 ">ნ</tspan>
					<tspan direction="ltr" unicode-bidi="embed" x="0.48557 ">ი</tspan>
					<tspan direction="ltr" unicode-bidi="embed" x="1.03605 ">გ</tspan>
					<tspan direction="ltr" unicode-bidi="embed" x="1.55047 ">ვ</tspan>
					<tspan direction="ltr" unicode-bidi="embed" x="2.03604 ">ზ</tspan>
					<tspan direction="ltr" unicode-bidi="embed" x="2.76199 ">ნ</tspan>
					<tspan direction="ltr" unicode-bidi="embed" x="3.24997 ">ა</tspan>
					<tspan direction="ltr" unicode-bidi="embed" x="3.66823 ">რ</tspan>
					<tspan direction="ltr" unicode-bidi="embed" x="4.35092 ">ა</tspan>
				</text>
			</g>
			<g font-family="'Sylfaen'" font-size="1" kerning="0" font-weight="700" fill="#000000" clip-path="url(#SVG_CP_1)" >
				<text text-anchor="start" transform="matrix(49.92 0 0 49.9195 318.96 2270.97714)" >
					<tspan direction="ltr" unicode-bidi="embed" x="0 ">ს</tspan>
					<tspan direction="ltr" unicode-bidi="embed" x="0.48557 ">ო</tspan>
					<tspan direction="ltr" unicode-bidi="embed" x="1.18028 ">რ</tspan>
					<tspan direction="ltr" unicode-bidi="embed" x="1.86296 ">ი</tspan>
				</text>
			</g>
		</g>
	</g>
</svg>
