<?xml version="1.0" encoding="utf-8" standalone="no"?>
<!-- Creator: Esri ArcMap 10.9.1.28388 -->
<!DOCTYPE svg PUBLIC "-//W3C//DTD SVG 1.1//EN"  "http://www.w3.org/Graphics/SVG/1.1/DTD/svg11.dtd">
<svg width="2592pt" height="3456pt" viewBox="0 0 2592 3456" enable-background="new 0 0 2592 3456"
	version="1.1" xmlns="http://www.w3.org/2000/svg" xmlns:xlink="http://www.w3.org/1999/xlink" >
	<g id="Layers">
		<g id="municipal">
			<path clip-path="url(#SVG_CP_1)" fill="#ce8d34" fill-rule="evenodd" stroke="#000000" stroke-width="3.96" stroke-miterlimit="10" stroke-linecap="round" stroke-linejoin="round" d="
				M843.36,439.5632L876.84,459.36334L923.16,456.84332L975.6,456.84332L998.88,453.3633L1015.2,449.88327L1039.2,455.04331L1058.16,462.00336
				L1068.36,471.36343L1075.32,485.16353L1084.8,486.84354L1120.8,476.52346L1150.92,476.52346L1156.08,484.32352L1160.4,497.16361
				L1187.88,522.9638L1198.2,540.12393L1216.2,560.76408L1248,583.08424L1270.32,592.56431L1284.12,601.08437L1316.76,608.04442
				L1339.92,611.40445L1376.88,609.72443L1393.2,610.56444L1415.52,615.72448L1437.84,616.56448L1460.16,616.56448L1485.12,610.56444
				L1497.12,602.04438L1509,619.2045L1522.56,631.32459L1538.52,631.80459L1548.6,635.16462L1555.92,654.48476L1594.08,687.365L
				1608.12,698.52508L1615.8,716.40521L1617.24,733.32533L1635.12,749.16545L1662.72,768.60559L1683.96,777.72565L1693.2,786.96572
				L1706.16,803.88584L1709.04,821.76597L1709.04,840.60611L1701.36,857.04623L1694.64,874.32636L1695.12,900.96655L1696.08,913.56664
				L1708.56,918.36668L1735.68,920.28669L1742.4,928.56675L1751.16,928.08675L1758.84,925.08673L1764.24,925.56673L1769.04,924.12672
				L1776.24,921.2467L1786.44,922.2067L1808.16,930.96677L1824.6,958.44697L1833.72,972.48707L1842,983.16715L1841.52,999.12726
				L1842.96,1007.76733L1866.12,1022.28743L1881.6,1021.32743L1902.36,1014.48738L1920.24,1010.16734L1934.76,1009.68734L1953.6,1004.4073
				L1969.08,994.68723L1984.56,984.12716L2001.48,984.12716L2017.44,986.04717L2034.84,1002.00729L2041.08,1017.9674L2038.68,1033.44751
				L2032.92,1049.76763L2030.52,1061.88772L2033.4,1071.12779L2051.76,1078.32784L2058.96,1086.0079L2060.88,1096.68797L2073.96,1104.96803
				L2113.08,1129.08821L2130,1139.16828L2151.72,1155.6084L2190.96,1170.60851L2217.48,1172.04852L2238.24,1174.44854L2247.48,1185.12862
				L2250.36,1194.36868L2263.92,1195.80869L2288.52,1194.36868L2307.84,1194.36868L2327.64,1201.56874L2332.56,1208.76879L2333.52,1223.7689
				L2341.68,1227.12892L2363.4,1229.16894L2381.88,1231.56895L2396.76,1238.289L2402.16,1245.00905L2406.96,1266.36921L2415.6,1274.04926
				L2428.68,1277.88929L2439.84,1282.92933L2455.32,1300.08945L2463.84,1313.76955L2474.16,1344.72978L2465.64,1387.69009L2456.16,1434.97043
				L2436.36,1461.61063L2433,1497.37089L2416.2,1515.49102L2410.44,1520.05105L2403.12,1524.97109L2400.36,1529.29112L2398.8,1536.37117
				L2397.96,1543.21122L2390.88,1549.45126L2379.96,1557.85133L2369.64,1560.85135L2360.4,1564.93138L2346.84,1578.13147L2337.36,1588.21155
				L2309.52,1612.57172L2290.32,1627.81183L2274.72,1642.21194L2263.44,1649.17199L2253.36,1655.65204L2244.96,1662.97209L2229.36,1662.97209
				L2213.04,1659.61207L2196,1661.89208L2194.68,1663.21209L2194.56,1663.33209L2193.72,1664.1721L2193.48,1664.2921L2192.4,1665.49211
				L2182.68,1665.49211L2177.52,1667.65212L2173.56,1672.33216L2161.56,1672.33216L2154,1675.57218L2144.88,1670.89215L2140.92,1665.49211
				L2135.88,1663.6921L2130.12,1663.6921L2120.28,1665.49211L2112.12,1667.89213L2112,1668.01213L2111.88,1668.13213L2110.2,1677.7322
				L2112,1690.09229L2117.04,1699.57236L2129.4,1705.3324L2139.48,1720.21251L2140.92,1732.5726L2133.6,1746.8527L2127.96,1757.89278
				L2114.88,1773.8529L2104.68,1777.81293L2096.4,1790.89302L2091.6,1797.01306L2086.92,1823.89326L2076.84,1842.37339L2068.44,1855.69349
				L2067.36,1865.17356L2053.92,1869.49359L2039.88,1864.09355L2031.48,1868.41358L2026.8,1877.17365L2022.84,1883.29369L2016.24,1889.77374
				L2009.76,1893.49377L1995.24,1894.57377L1985.4,1895.65378L1977.48,1900.69382L1970.28,1898.1738L1959,1890.49374L1949.88,1886.17371
				L1939.8,1879.69367L1928.16,1873.45362L1921.68,1875.37363L1911.84,1882.57369L1902.48,1886.89372L1885.56,1886.65372L1865.28,1893.85377
				L1854.6,1901.65383L1846.44,1907.89387L1831.44,1912.69391L1824.12,1922.41398L1811.64,1939.3341L1802.88,1952.41419L1797.12,1974.61436
				L1794.72,1993.45449L1794.72,2001.13455L1785,2014.21464L1778.28,2022.97471L1770.48,2030.17476L1758,2034.49479L1749.24,2052.85492
				L1745.4,2062.575L1735.2,2063.055L1715.4,2064.97501L1700.4,2071.21506L1689.36,2086.21517L1671,2113.81537L1658.04,2124.97545
				L1652.16,2130.25549L1631.28,2148.61562L1601.88,2174.17581L1596.48,2180.77585L1582.08,2198.77599L1567.08,2213.77609L1564.32,2215.93611
				L1564.2,2215.93611L1560.96,2218.45613L1556.88,2221.57615L1555.08,2225.17618L1554.84,2225.77618L1554.72,2226.01618L1553.04,2229.25621
				L1547.28,2241.3763L1546.8,2251.93637L1546.8,2255.4164L1551.6,2255.4164L1557.36,2255.4164L1558.8,2256.0164L1572.36,2262.61645
				L1584.96,2271.85652L1594.56,2282.41659L1620.24,2288.77664L1641,2290.69665L1650.6,2295.01669L1658.28,2301.13673L1658.4,2301.25673
				L1658.4,2301.37673L1656.96,2307.13677L1626.36,2318.89686L1625.64,2319.13686L1625.52,2319.13686L1625.4,2319.37686L1618.32,2338.457
				L1610.52,2357.29714L1609.56,2378.17729L1607.64,2400.37745L1607.64,2405.29749L1607.64,2412.01754L1615.8,2428.93766L1631.76,2443.33776
				L1642.92,2444.77777L1655.52,2446.21778L1672.44,2445.73778L1677.48,2445.61778L1677.6,2445.61778L1677.72,2445.61778L1689.84,2445.25778
				L1696.08,2445.25778L1705.8,2467.57794L1701.84,2475.258L1683.6,2499.85817L1675.56,2510.65825L1675.32,2511.01826L1674.6,2513.17827
				L1667.16,2535.25843L1663.68,2545.81851L1663.2,2547.25852L1660.08,2562.37863L1658.52,2569.69868L1658.04,2571.7387L1655.76,2582.53878
				L1655.52,2583.97879L1654.8,2588.89882L1654.44,2592.13885L1654.44,2592.37885L1652.64,2606.29895L1646.76,2624.17908L1636.68,2637.61918
				L1634.76,2649.73926L1632.72,2662.33936L1632.72,2665.45938L1632.72,2665.57938L1632.72,2665.69938L1632.72,2674.33944L1636.68,2686.45953
				L1637.04,2688.73955L1637.16,2690.17956L1641.48,2718.85977L1642.92,2733.37987L1640.52,2741.05993L1643.88,2749.33999L1642.44,2766.26011
				L1636.68,2784.14024L1639.08,2791.34029L1640.52,2796.14033L1621.2,2816.42048L1604.76,2844.98068L1596.6,2861.6608L1596.24,2869.22086
				L1591.2,2908.22114L1590.48,2913.62118L1590.36,2915.06119L1591.44,2915.4212L1591.32,2917.94121L1594.2,2942.30139L1598.16,2965.70156
				L1598.4,2967.02157L1602.96,2998.8218L1604.04,3004.10184L1604.64,3007.10186L1605.96,3014.18191L1606.68,3017.54194L1608.36,3026.182
				L1610.76,3038.66209L1605.12,3041.30211L1583.52,3039.6221L1582.8,3039.3821L1559.28,3033.38205L1549.92,3030.98204L1525.68,3012.8619
				L1517.04,2993.78177L1493.76,2992.94176L1471.32,2988.62173L1449.48,2996.42178L1431.12,2990.78174L1422,2983.70169L1406.76,2968.58158
				L1396.32,2966.90157L1383.6,2951.66146L1364.64,2931.50131L1334.76,2911.70117L1323,2908.22114L1309.08,2898.14107L1293.84,2895.62105
				L1284,2886.62099L1262.52,2900.54109L1256.16,2910.98116L1240.08,2921.18124L1230.84,2939.66137L1208.88,2968.34158L1189.56,2995.34178
				L1181.4,3001.58182L1178.64,3003.74184L1155.84,2997.86179L1138.08,2995.70178L1122.48,2989.46173L1105.08,2982.62168L1090.68,2979.14166
				L1082.52,2979.26166L1071.12,2977.22164L1054.92,2977.58165L1045.44,2981.66168L1031.76,2984.3017L1012.56,2982.50168L1002.36,2983.34169
				L992.52,2978.66166L986.16,2973.62162L977.64,2968.58158L971.76,2962.46154L966.36,2953.34147L964.44,2947.58143L964.8,2943.1414
				L953.04,2941.94139L925.2,2955.26149L872.64,2936.66135L866.52,2937.26135L845.64,2961.98153L789.48,2924.78126L777.6,2921.06124
				L758.88,2910.74116L752.88,2920.94124L752.4,2921.18124L747.48,2923.34125L739.68,2935.94134L724.8,2930.1813L719.28,2928.14129
				L714,2925.26127L707.76,2921.90124L703.44,2919.50123L703.08,2919.38122L697.08,2916.1412L678.48,2905.34112L652.68,2899.94108
				L646.2,2901.14109L642.24,2901.9811L641.64,2902.1011L631.68,2903.90111L628.8,2904.50112L621.6,2905.82113L619.68,2906.18113
				L617.88,2906.30113L611.88,2906.54113L592.32,2907.38114L589.56,2907.50114L584.88,2907.74114L579.12,2910.02116L572.04,2912.66118
				L566.52,2914.82119L563.4,2916.0212L544.44,2923.34125L543.96,2923.82126L543.36,2924.30126L543.24,2924.30126L543.24,2924.42126
				L519.48,2944.94141L478.32,2929.8213L416.64,2914.82119L396,2903.42111L371.04,2876.42091L363.36,2841.26066L357.84,2823.74053
				L357.48,2822.78052L355.68,2816.90048L346.08,2786.66026L339.24,2731.21986L339,2729.41984L339,2729.29984L339,2729.17984L336.96,2712.25972
				L339.12,2709.6197L378.24,2662.81936L380.76,2638.93919L374.64,2624.65908L370.2,2605.33894L370.08,2604.25893L344.04,2587.93881
				L315.48,2565.49865L256.08,2561.17862L253.44,2561.05862L252.84,2560.93862L246.84,2558.8986L243.24,2557.69859L223.32,2550.73854
				L221.4,2550.61854L213.96,2549.89854L203.76,2548.93853L196.2,2548.33853L190.2,2547.73852L181.56,2546.89852L159.84,2544.7385
				L149.4,2543.65849L150.48,2523.73835L150.96,2502.37819L148.92,2484.49806L135.12,2477.41801L124.44,2463.61791L133.44,2459.05788
				L146.4,2452.45783L162.48,2431.93768L162.6,2431.81768L162.6,2431.69768L168.72,2423.89762L161.16,2410.09752L160.92,2409.97752
				L151.32,2399.65745L140.28,2387.77736L138.48,2385.61734L138.36,2385.61734L137.64,2384.65734L137.52,2384.53734L137.04,2383.93733
				L136.8,2383.69733L136.68,2383.57733L136.68,2383.45733L117.84,2361.25717L127.44,2344.45704L147.84,2306.77677L159.12,2273.05653
				L172.32,2234.89625L184.92,2205.97604L189.12,2196.13597L193.8,2189.05591L203.88,2173.6958L232.92,2128.81548L235.56,2124.85545
				L248.88,2105.17531L254.16,2097.37525L263.4,2083.69515L263.52,2083.57515L263.64,2083.33515L273.48,2070.13505L285.48,2054.05493
				L307.32,2020.33469L311.4,1996.45451L334.32,1990.33447L333.36,1980.1344L346.08,1964.29428L392.4,1939.9341L392.4,1939.8141
				L392.52,1939.8141L425.88,1928.29402L432.24,1926.134L438.48,1920.49396L460.68,1900.69382L479.52,1878.73366L499.92,1851.73346
				L510.12,1833.85333L521.4,1830.37331L565.2,1832.89333L597.24,1843.0934L628.92,1841.53339L644.16,1829.7733L642.12,1809.97316
				L639.6,1796.65306L637.56,1794.37305L622.8,1776.85292L622.2,1761.49281L618.72,1727.89256L609,1704.49239L604.44,1669.33214
				L583.56,1625.53182L573.6,1597.69162L572.76,1595.4116L575.88,1566.37139L570.24,1545.49124L567.48,1524.37108L562.68,1486.93081
				L560.28,1481.41077L554.52,1467.49067L534.6,1436.41044L510.12,1423.21035L487.68,1396.69015L481.56,1374.24999L482.16,1363.56991
				L489.72,1327.44965L483.6,1304.52948L468.84,1242.84904L486.36,1206.96878L487.68,1204.08875L490.32,1191.36866L497.88,1167.96849
				L495.84,1149.60836L493.32,1127.5282L492.84,1123.08817L501.96,1106.76805L520.32,1097.16798L529.56,1074.72781L553.44,1043.64759
				L556.56,1024.80745L553.44,1004.4073L562.08,989.6472L573.84,967.68704L576.84,952.92693L563.64,936.12681L556.2,921.6067L552.96,915.24665
				L534.12,897.36652L524.4,862.20627L506.52,845.40615L477,821.52597L450.12,807.24587L449.28,796.56579L456,778.56566L476.16,750.72546
				L498.12,740.40538L513.48,735.00534L517.92,728.7653L524.16,717.48522L536.28,709.44516L538.56,699.60509L539.04,690.60502L534.96,682.92497
				L528.24,677.16492L523.32,663.24482L514.32,644.76469L515.28,628.68457L498.6,617.88449L491.4,604.44439L480.24,591.8443L477.48,585.60426
				L495.48,561.84409L496.32,552.96402L497.28,542.52394L508.56,515.52375L521.52,506.52368L535.44,491.76358L537.72,483.72352L
				547.56,466.68339L556.08,457.68333L569.16,461.76336L586.2,463.68337L607.56,454.2033L622.08,449.16327L630.36,456.36332L645.96,464.76338
				L660.84,466.56339L682.92,459.60334L694.2,452.04329L727.32,439.5632L764.28,425.8831L781.44,414.72302L805.56,419.04305L843.36,439.5632
				z"/>
		</g>
		<g id="sattlements">
			<path clip-path="url(#SVG_CP_1)" fill="#FF0000" fill-rule="evenodd" stroke="#000000" stroke-width="0.96" stroke-miterlimit="10" stroke-linecap="round" stroke-linejoin="round" d="
				M913.2,2282.47659C913.2,2276.94266,908.74076,2272.45652,903.24,2272.45652C897.73924,2272.45652,893.28,2276.94266,893.28,2282.47659
				C893.28,2288.01053,897.73924,2292.49667,903.24,2292.49667C908.74076,2292.49667,913.2,2288.01053,913.2,2282.47659z"/>
	
			<path clip-path="url(#SVG_CP_1)" fill="#FF0000" fill-rule="evenodd" stroke="#000000" stroke-width="0.96" stroke-miterlimit="10" stroke-linecap="round" stroke-linejoin="round" d="
				M976.44,2149.93563C976.44,2144.43483,971.98076,2139.97556,966.48,2139.97556C960.97924,2139.97556,956.52,2144.43483,956.52,2149.93563
				C956.52,2155.43643,960.97924,2159.8957,966.48,2159.8957C971.98076,2159.8957,976.44,2155.43643,976.44,2149.93563z"/>
			<path clip-path="url(#SVG_CP_1)" fill="#FF0000" fill-rule="evenodd" stroke="#000000" stroke-width="0.96" stroke-miterlimit="10" stroke-linecap="round" stroke-linejoin="round" d="
				M1276.8,1187.52863C1276.8,1182.02784,1272.34076,1177.56856,1266.84,1177.56856C1261.33924,1177.56856,1256.88,1182.02784,1256.88,1187.52863
				C1256.88,1193.02943,1261.33924,1197.48871,1266.84,1197.48871C1272.34076,1197.48871,1276.8,1193.02943,1276.8,1187.52863z"/>
			<path clip-path="url(#SVG_CP_1)" fill="#FF0000" fill-rule="evenodd" stroke="#000000" stroke-width="0.96" stroke-miterlimit="10" stroke-linecap="round" stroke-linejoin="round" d="
				M1843.56,1545.19123C1843.56,1539.6573,1839.10076,1535.17116,1833.6,1535.17116C1828.09924,1535.17116,1823.64,1539.6573,1823.64,1545.19123
				C1823.64,1550.72517,1828.09924,1555.21131,1833.6,1555.21131C1839.10076,1555.21131,1843.56,1550.72517,1843.56,1545.19123z
				"/>
			<path clip-path="url(#SVG_CP_1)" fill="#FF0000" fill-rule="evenodd" stroke="#000000" stroke-width="0.96" stroke-miterlimit="10" stroke-linecap="round" stroke-linejoin="round" d="
				M1421.28,2502.7982C1421.28,2497.26426,1416.79389,2492.77812,1411.26,2492.77812C1405.72611,2492.77812,1401.24,2497.26426,
				1401.24,2502.7982C1401.24,2508.33213,1405.72611,2512.81827,1411.26,2512.81827C1416.79389,2512.81827,1421.28,2508.33213,1421.28,2502.7982
				z"/>
			<path clip-path="url(#SVG_CP_1)" fill="#FF0000" fill-rule="evenodd" stroke="#000000" stroke-width="0.96" stroke-miterlimit="10" stroke-linecap="round" stroke-linejoin="round" d="
				M1416.84,1920.07396C1416.84,1914.54003,1412.38076,1910.05389,1406.88,1910.05389C1401.37924,1910.05389,1396.92,1914.54003
				,1396.92,1920.07396C1396.92,1925.60789,1401.37924,1930.09403,1406.88,1930.09403C1412.38076,1930.09403,1416.84,1925.60789
				,1416.84,1920.07396z"/>
			<path clip-path="url(#SVG_CP_1)" fill="#FF0000" fill-rule="evenodd" stroke="#000000" stroke-width="0.96" stroke-miterlimit="10" stroke-linecap="round" stroke-linejoin="round" d="
				M1079.4,2117.23539C1079.4,2111.70146,1074.91389,2107.21532,1069.38,2107.21532C1063.84611,2107.21532,1059.36,2111.70146,1059.36,2117.23539
				C1059.36,2122.76933,1063.84611,2127.25547,1069.38,2127.25547C1074.91389,2127.25547,1079.4,2122.76933,1079.4,2117.23539z"/>
			<path clip-path="url(#SVG_CP_1)" fill="#FF0000" fill-rule="evenodd" stroke="#000000" stroke-width="0.96" stroke-miterlimit="10" stroke-linecap="round" stroke-linejoin="round" d="
				M1465.32,1302.78947C1465.32,1297.25554,1460.86076,1292.7694,1455.36,1292.7694C1449.85924,1292.7694,1445.4,1297.25554,1445.4,1302.78947
				C1445.4,1308.32341,1449.85924,1312.80954,1455.36,1312.80954C1460.86076,1312.80954,1465.32,1308.32341,1465.32,1302.78947z
				"/>
			<path clip-path="url(#SVG_CP_1)" fill="#FF0000" fill-rule="evenodd" stroke="#000000" stroke-width="0.96" stroke-miterlimit="10" stroke-linecap="round" stroke-linejoin="round" d="
				M1368,2046.61488C1368,2041.11408,1363.54076,2036.65481,1358.04,2036.65481C1352.53924,2036.65481,1348.08,2041.11408,1348.08,2046.61488
				C1348.08,2052.11568,1352.53924,2056.57495,1358.04,2056.57495C1363.54076,2056.57495,1368,2052.11568,1368,2046.61488z"/>
			<path clip-path="url(#SVG_CP_1)" fill="#FF0000" fill-rule="evenodd" stroke="#000000" stroke-width="0.96" stroke-miterlimit="10" stroke-linecap="round" stroke-linejoin="round" d="
				M730.92,2392.6974C730.92,2387.1966,726.43389,2382.73732,720.9,2382.73732C715.36611,2382.73732,710.88,2387.1966,710.88,2392.6974
				C710.88,2398.19819,715.36611,2402.65747,720.9,2402.65747C726.43389,2402.65747,730.92,2398.19819,730.92,2392.6974z"/>
			<path clip-path="url(#SVG_CP_1)" fill="#FF0000" fill-rule="evenodd" stroke="#000000" stroke-width="0.96" stroke-miterlimit="10" stroke-linecap="round" stroke-linejoin="round" d="
				M547.8,2601.13891C547.8,2595.63811,543.34076,2591.17884,537.84,2591.17884C532.33924,2591.17884,527.88,2595.63811,527.88,2601.13891
				C527.88,2606.63971,532.33924,2611.09898,537.84,2611.09898C543.34076,2611.09898,547.8,2606.63971,547.8,2601.13891z"/>
			<path clip-path="url(#SVG_CP_1)" fill="#FF0000" fill-rule="evenodd" stroke="#000000" stroke-width="0.96" stroke-miterlimit="10" stroke-linecap="round" stroke-linejoin="round" d="
				M1025.04,1939.2141C1025.04,1933.7133,1020.58076,1929.25403,1015.08,1929.25403C1009.57924,1929.25403,1005.12,1933.7133,1005.12,1939.2141
				C1005.12,1944.71489,1009.57924,1949.17417,1015.08,1949.17417C1020.58076,1949.17417,1025.04,1944.71489,1025.04,1939.2141z
				"/>
			<path clip-path="url(#SVG_CP_1)" fill="#FF0000" fill-rule="evenodd" stroke="#000000" stroke-width="0.96" stroke-miterlimit="10" stroke-linecap="round" stroke-linejoin="round" d="
				M1125.12,2319.07686C1125.12,2313.54293,1120.66076,2309.05679,1115.16,2309.05679C1109.65924,2309.05679,1105.2,2313.54293,
				1105.2,2319.07686C1105.2,2324.61079,1109.65924,2329.09693,1115.16,2329.09693C1120.66076,2329.09693,1125.12,2324.61079,1125.12,2319.07686
				z"/>
			<path clip-path="url(#SVG_CP_1)" fill="#FF0000" fill-rule="evenodd" stroke="#000000" stroke-width="0.96" stroke-miterlimit="10" stroke-linecap="round" stroke-linejoin="round" d="
				M873.96,2707.81969C873.96,2702.31889,869.50076,2697.85961,864,2697.85961C858.49924,2697.85961,854.04,2702.31889,854.04,2707.81969
				C854.04,2713.32048,858.49924,2717.77976,864,2717.77976C869.50076,2717.77976,873.96,2713.32048,873.96,2707.81969z"/>
			<path clip-path="url(#SVG_CP_1)" fill="#FF0000" fill-rule="evenodd" stroke="#000000" stroke-width="0.96" stroke-miterlimit="10" stroke-linecap="round" stroke-linejoin="round" d="
				M319.8,2282.47659C319.8,2276.94266,315.34076,2272.45652,309.84,2272.45652C304.33924,2272.45652,299.88,2276.94266,299.88,2282.47659
				C299.88,2288.01053,304.33924,2292.49667,309.84,2292.49667C315.34076,2292.49667,319.8,2288.01053,319.8,2282.47659z"/>
			<path clip-path="url(#SVG_CP_1)" fill="#FF0000" fill-rule="evenodd" stroke="#000000" stroke-width="0.96" stroke-miterlimit="10" stroke-linecap="round" stroke-linejoin="round" d="
				M1160.16,2486.17807C1160.16,2480.67728,1155.67389,2476.218,1150.14,2476.218C1144.60611,2476.218,1140.12,2480.67728,1140.12,2486.17807
				C1140.12,2491.67887,1144.60611,2496.13815,1150.14,2496.13815C1155.67389,2496.13815,1160.16,2491.67887,1160.16,2486.17807
				z"/>
			<path clip-path="url(#SVG_CP_1)" fill="#FF0000" fill-rule="evenodd" stroke="#000000" stroke-width="0.96" stroke-miterlimit="10" stroke-linecap="round" stroke-linejoin="round" d="
				M548.4,2392.9374C548.4,2387.4366,543.94076,2382.97732,538.44,2382.97732C532.93924,2382.97732,528.48,2387.4366,528.48,2392.9374
				C528.48,2398.43819,532.93924,2402.89747,538.44,2402.89747C543.94076,2402.89747,548.4,2398.43819,548.4,2392.9374z"/>
		</g>
		<g id="sattlements1">
			<path clip-path="url(#SVG_CP_1)" fill="#FF0000" fill-rule="evenodd" stroke="#000000" stroke-width="0.96" stroke-miterlimit="10" stroke-linecap="round" stroke-linejoin="round" d="
				M396.96,2533.21842C396.96,2527.71762,392.47389,2523.25834,386.94,2523.25834C381.40611,2523.25834,376.92,2527.71762,376.92,2533.21842
				C376.92,2538.71921,381.40611,2543.17849,386.94,2543.17849C392.47389,2543.17849,396.96,2538.71921,396.96,2533.21842z"/>
			<path clip-path="url(#SVG_CP_1)" fill="#FF0000" fill-rule="evenodd" stroke="#000000" stroke-width="0.96" stroke-miterlimit="10" stroke-linecap="round" stroke-linejoin="round" d="
				M302.04,2490.97811C302.04,2485.47731,297.55389,2481.01804,292.02,2481.01804C286.48611,2481.01804,282,2485.47731,282,2490.97811
				C282,2496.47891,286.48611,2500.93818,292.02,2500.93818C297.55389,2500.93818,302.04,2496.47891,302.04,2490.97811z"/>
		</g>
		<g id="sattlements_Anno_5">
			<g font-family="'Sylfaen'" font-size="1" kerning="0" font-weight="700" fill="#000000" clip-path="url(#SVG_CP_1)" >
				<text text-anchor="start" transform="matrix(49.92 0 0 49.92036 403.92 2561.05862)" >
					<tspan direction="ltr" unicode-bidi="embed" x="0 ">Zemo Bari</tspan>
					
				</text>
			</g>
			<g font-family="'Sylfaen'" font-size="1" kerning="0" font-weight="700" fill="#000000" clip-path="url(#SVG_CP_1)" >
				<text text-anchor="start" transform="matrix(49.92 0 0 49.92036 308.52 2484.01806)" >
					<tspan direction="ltr" unicode-bidi="embed" x="0 ">Kvemo Bari</tspan>
					
				</text>
			</g>
		</g>
		<g id="sattlements_Anno_6">
			<g font-family="'Sylfaen'" font-size="1" kerning="0" font-weight="700" fill="#000000" clip-path="url(#SVG_CP_1)" >
				<text text-anchor="start" transform="matrix(49.92 0 0 49.92036 627.78 2276.89655)" >
					<tspan direction="ltr" unicode-bidi="embed" x="0 ">Komandeli</tspan>
					
				</text>
			</g>
			<g font-family="'Sylfaen'" font-size="1" kerning="0" font-weight="700" fill="#000000" clip-path="url(#SVG_CP_1)" >
				<text text-anchor="start" transform="matrix(49.92 0 0 49.92036 989.16 2199.61599)" >
					<tspan direction="ltr" unicode-bidi="embed" x="0 ">Oni</tspan>
					
				</text>
			</g>
			<g font-family="'Sylfaen'" font-size="1" kerning="0" font-weight="700" fill="#000000" clip-path="url(#SVG_CP_1)" >
				<text text-anchor="start" transform="matrix(49.92 0 0 49.92036 782.64 2137.33554)" >
					<tspan direction="ltr" unicode-bidi="embed" x="0 ">Sheubani</tspan>
					
				</text>
			</g>
			<g font-family="'Sylfaen'" font-size="1" kerning="0" font-weight="700" fill="#000000" clip-path="url(#SVG_CP_1)" >
				<text text-anchor="start" transform="matrix(49.92 0 0 49.92036 1266.96 1165.68848)" >
					<tspan direction="ltr" unicode-bidi="embed" x="0 ">Ghebi</tspan>
					
				</text>
			</g>
			<g font-family="'Sylfaen'" font-size="1" kerning="0" font-weight="700" fill="#000000" clip-path="url(#SVG_CP_1)" >
				<text text-anchor="start" transform="matrix(49.92 0 0 49.92036 1841.52 1523.17107)" >
					<tspan direction="ltr" unicode-bidi="embed" x="0 ">Glola</tspan>
					
				</text>
			</g>
			<g font-family="'Sylfaen'" font-size="1" kerning="0" font-weight="700" fill="#000000" clip-path="url(#SVG_CP_1)" >
				<text text-anchor="start" transform="matrix(49.92 0 0 49.92036 1412.4 2480.89804)" >
					<tspan direction="ltr" unicode-bidi="embed" x="0 ">Tsedisi</tspan>
					
				</text>
			</g>
			<g font-family="'Sylfaen'" font-size="1" kerning="0" font-weight="700" fill="#000000" clip-path="url(#SVG_CP_1)" >
				<text text-anchor="start" transform="matrix(49.92 0 0 49.92036 1409.28 1896.97379)" >
					<tspan direction="ltr" unicode-bidi="embed" x="0 ">Utsera</tspan>
					
				</text>
			</g>
			<g font-family="'Sylfaen'" font-size="1" kerning="0" font-weight="700" fill="#000000" clip-path="url(#SVG_CP_1)" >
				<text text-anchor="start" transform="matrix(49.92 0 0 49.92036 1077.24 2106.73532)" >
					<tspan direction="ltr" unicode-bidi="embed" x="0 ">Ghari</tspan>
					
				</text>
			</g>
			<g font-family="'Sylfaen'" font-size="1" kerning="0" font-weight="700" fill="#000000" clip-path="url(#SVG_CP_1)" >
				<text text-anchor="start" transform="matrix(49.92 0 0 49.92036 1462.32 1280.88931)" >
					<tspan direction="ltr" unicode-bidi="embed" x="0 ">Chiora</tspan>
					
				</text>
			</g>
			<g font-family="'Sylfaen'" font-size="1" kerning="0" font-weight="700" fill="#000000" clip-path="url(#SVG_CP_1)" >
				<text text-anchor="start" transform="matrix(49.92 0 0 49.92036 1154.76 2463.13791)" >
					<tspan direction="ltr" unicode-bidi="embed" x="0 ">Tskhmori</tspan>
				
				</text>
			</g>
			<g font-family="'Sylfaen'" font-size="1" kerning="0" font-weight="700" fill="#000000" clip-path="url(#SVG_CP_1)" >
				<text text-anchor="start" transform="matrix(49.92 0 0 49.92036 304.86 2385.01734)" >
					<tspan direction="ltr" unicode-bidi="embed" x="0 ">Parakheti</tspan>
					
				</text>
			</g>
			<g font-family="'Sylfaen'" font-size="1" kerning="0" font-weight="700" fill="#000000" clip-path="url(#SVG_CP_1)" >
				<text text-anchor="start" transform="matrix(49.92 0 0 49.92036 1361.64 2024.65472)" >
					<tspan direction="ltr" unicode-bidi="embed" x="0 ">Gomi</tspan>
					
				</text>
			</g>
			<g font-family="'Sylfaen'" font-size="1" kerning="0" font-weight="700" fill="#000000" clip-path="url(#SVG_CP_1)" >
				<text text-anchor="start" transform="matrix(49.92 0 0 49.92036 736.08 2377.93729)" >
					<tspan direction="ltr" unicode-bidi="embed" x="0 ">Kvashkhieti</tspan>
					
				</text>
			</g>
			<g font-family="'Sylfaen'" font-size="1" kerning="0" font-weight="700" fill="#000000" clip-path="url(#SVG_CP_1)" >
				<text text-anchor="start" transform="matrix(49.92 0 0 49.92036 551.4 2639.17919)" >
					<tspan direction="ltr" unicode-bidi="embed" x="0 ">Mravaldzali</tspan>
					
				</text>
			</g>
			<g font-family="'Sylfaen'" font-size="1" kerning="0" font-weight="700" fill="#000000" clip-path="url(#SVG_CP_1)" >
				<text text-anchor="start" transform="matrix(49.92 0 0 49.92036 1018.68 1923.37398)" >
					<tspan direction="ltr" unicode-bidi="embed" x="0 ">Sakao</tspan>
					
				</text>
			</g>
			<g font-family="'Sylfaen'" font-size="1" kerning="0" font-weight="700" fill="#000000" clip-path="url(#SVG_CP_1)" >
				<text text-anchor="start" transform="matrix(49.92 0 0 49.92036 1122.24 2307.25677)" >
					<tspan direction="ltr" unicode-bidi="embed" x="0 ">Pipileti</tspan>
					
				</text>
			</g>
			<g font-family="'Sylfaen'" font-size="1" kerning="0" font-weight="700" fill="#000000" clip-path="url(#SVG_CP_1)" >
				<text text-anchor="start" transform="matrix(49.92 0 0 49.92036 879.84 2745.85996)" >
					<tspan direction="ltr" unicode-bidi="embed" x="0 ">Shkmeri</tspan>
					
				</text>
			</g>
			<g font-family="'Sylfaen'" font-size="1" kerning="0" font-weight="700" fill="#000000" clip-path="url(#SVG_CP_1)" >
				<text text-anchor="start" transform="matrix(49.92 0 0 49.92036 309.96 2271.01651)" >
					<tspan direction="ltr" unicode-bidi="embed" x="0 ">Sori</tspan>
					
				</text>
			</g>
		</g>
	</g>
</svg>
