<?xml version="1.0" encoding="utf-8" standalone="no"?>
<!-- Creator: Esri ArcMap 10.9.1.28388 -->
<!DOCTYPE svg PUBLIC "-//W3C//DTD SVG 1.1//EN"  "http://www.w3.org/Graphics/SVG/1.1/DTD/svg11.dtd">
<svg width="2592pt" height="3456pt" viewBox="0 0 2592 3456" enable-background="new 0 0 2592 3456"
	version="1.1" xmlns="http://www.w3.org/2000/svg" xmlns:xlink="http://www.w3.org/1999/xlink" >
	<g id="Layers">
		<g id="municipal">
			<path clip-path="url(#SVG_CP_1)" fill="#ce8d34" fill-rule="evenodd" stroke="none" d="M1174.8,169.68123L1201.32,190.56139
				L1236.84,233.5217L1237.44,234.1217L1241.76,239.40174L1245.96,239.40174L1248.12,238.80174L1248.36,238.80174L1248.48,238.68174
				L1255.68,236.88172L1256.52,236.76172L1257.12,236.52172L1287.72,233.7617L1304.52,233.7617L1319.76,237.96173L1336.56,237.96173
				L1358.88,239.40174L1368.6,244.92178L1395.12,271.44197L1409.04,282.60206L1413.24,289.56211L1425.72,323.04235L1413.24,374.64272
				L1420.92,393.24286L1421.16,393.48286L1421.28,393.84286L1428.84,411.963L1429.08,412.563L1429.2,413.043L1434.12,424.80309L
				1467.6,445.68324L1473.72,449.64327L1491.36,461.04335L1503.84,466.68339L1526.16,469.44341L1554,474.96345L1586.76,478.44348
				L1587.48,478.56348L1600.92,479.88349L1602.48,480.12349L1604.04,480.24349L1607.04,480.60349L1650.24,479.16348L1663.2,484.56352
				L1663.32,484.68352L1663.44,484.68352L1668,486.60354L1668.48,486.84354L1708.92,503.76366L1715.88,517.20376L1722.24,528.36384
				L1722.24,528.48384L1722.36,528.60384L1732.92,547.20398L1732.92,547.44398L1733.04,547.56398L1736.4,553.44402L1756.32,581.52423
				L1778.04,604.8044L1778.4,605.2844L1778.64,605.7644L1783.08,612.60445L1792.68,630.96459L1804.32,649.44472L1803,654.12476L
				1798.68,663.12482L1799.64,676.56492L1809.84,698.64508L1823.04,718.32522L1843.32,740.76539L1863.84,765.72557L1891.92,802.56584
				L1901.64,816.36594L1901.28,821.28597L1901.28,821.52597L1901.28,821.64597L1901.16,822.48598L1901.04,825.006L1901.04,825.246
				L1901.04,825.726L1900.92,826.32601L1899.84,829.32603L1897.8,834.36607L1890.96,847.80616L1890.36,861.60626L1890.36,876.84638
				L1887.24,882.48642L1877.52,903.36657L1874.76,914.28665L1875.96,927.72675L1874.4,940.80684L1867.92,960.12698L1865.88,963.72701
				L1856.52,979.68712L1856.4,980.04713L1851.96,987.60718L1838.16,1010.76735L1837.8,1011.24735L1835.16,1015.68738L1827.36,1027.08747
				L1827.12,1027.44747L1826.16,1029.00748L1825.8,1029.36748L1823.28,1033.08751L1821.12,1047.84762L1821.24,1052.64765L1821.24,1053.12766
				L1821.48,1059.1277L1821.48,1059.6077L1821.72,1065.36775L1821.72,1065.84775L1821.84,1068.84777L1821.84,1069.20777L1822.08,1076.16782
				L1822.08,1078.44784L1822.08,1078.92784L1822.32,1085.88789L1820.76,1104.84803L1811.16,1114.92811L1797.36,1121.40815L1784.64,1130.76822
				L1781.76,1136.76826L1781.64,1137.24827L1779.96,1140.72829L1779,1154.16839L1779,1154.7684L1778.64,1158.60842L1778.52,1158.96843
				L1769.64,1174.44854L1761.84,1177.92856L1750.68,1191.36866L1750.08,1192.08867L1737.84,1206.96878L1707.84,1243.92904L1681.92,1277.04928
				L1707.24,1293.1294L1708.08,1293.60941L1735.44,1310.88953L1757.4,1323.48962L1768.56,1328.52966L1783.92,1340.88975L1789.8,1349.88981
				L1790.04,1350.24982L1791.84,1353.00984L1791.96,1353.24984L1798.2,1362.84991L1800.72,1367.76994L1800.96,1368.36995L1802.76,1371.96997
				L1802.88,1372.20998L1810.44,1387.33009L1818.48,1407.85024L1818.6,1408.09024L1818.72,1408.33024L1820.64,1413.37028L1828.8,1439.29046
				L1829.04,1439.89047L1829.88,1442.41049L1830,1443.6105L1830,1443.8505L1830,1444.0905L1830.12,1445.65051L1830.12,1446.49052
				L1832.4,1475.17072L1836.96,1488.37082L1847.76,1539.9712L1851.36,1556.89132L1850.28,1568.0514L1844.64,1587.97155L1844.16,1598.77162
				L1851.84,1618.09176L1864.08,1647.73198L1868.16,1673.29217L1880.4,1680.97222L1890.84,1684.45225L1891.32,1684.57225L1901.88,1688.17227
				L1916.16,1702.45238L1923.12,1707.73242L1923.24,1707.85242L1931.52,1714.21246L1945.32,1714.69247L1963.68,1718.29249L1980.48,1722.85253
				L2020.32,1717.69249L2035.68,1725.85255L2053.08,1744.81269L2068.2,1758.49278L2075.04,1764.73283L2102.52,1791.25302L2121.84,1810.21316
				L2121.84,1810.33316L2121.96,1810.45316L2139.84,1828.09329L2152.8,1842.25339L2153.04,1842.6134L2159.28,1849.45345L2163.96,1858.57351
				L2163.96,1858.69351L2164.08,1858.93351L2164.08,1859.05352L2172.6,1875.49364L2181.72,1911.8539L2182.32,1914.85392L2182.32,1915.21392
				L2182.44,1915.45393L2182.68,1917.01394L2185.44,1931.77404L2185.68,1932.97405L2187.36,1941.97412L2188.2,1943.41413L2189.64,1945.57414
				L2191.32,1948.33416L2201.64,1964.89429L2203.56,1970.17432L2203.68,1970.29432L2203.68,1970.53433L2210.88,1989.97447L2218.56,2019.01468
				L2218.68,2019.25468L2218.8,2019.49468L2218.92,2019.61468L2219.88,2021.4147L2220.24,2022.0147L2221.2,2023.45471L2221.8,2027.53474
				L2221.92,2029.21475L2222.16,2031.73477L2222.28,2032.45478L2223,2033.77479L2223.24,2034.13479L2224.08,2035.4548L2224.32,2035.8148
				L2224.32,2035.9348L2224.56,2036.41481L2224.44,2037.13481L2224.56,2038.69482L2224.56,2039.29483L2224.44,2040.13483L2224.32,2041.21484
				L2223.96,2042.41485L2223.84,2043.13485L2223.72,2043.85486L2223.48,2044.33486L2223,2045.53487L2222.28,2046.49488L2222.16,2047.09488
				L2221.68,2048.29489L2220.72,2051.05491L2219.88,2053.93493L2219.52,2055.61494L2219.4,2056.21495L2219.4,2057.29496L2219.28,2058.73497
				L2219.52,2059.81498L2219.76,2060.89498L2220,2061.85499L2220.72,2063.175L2221.44,2064.73501L2222.16,2066.77503L2223.72,2069.89505
				L2224.8,2071.69506L2225.4,2072.77507L2225.76,2073.61508L2226.48,2075.29509L2226.84,2076.25509L2227.2,2077.69511L2227.92,2079.97512
				L2228.76,2082.25514L2229.6,2084.53516L2230.32,2086.21517L2230.92,2087.29518L2231.64,2088.37518L2232.36,2089.33519L2232.72,2089.81519
				L2233.2,2091.0152L2233.92,2093.53522L2234.4,2095.09523L2234.64,2096.41524L2235,2098.45526L2236.08,2104.6953L2236.56,2106.61532
				L2237.28,2108.77533L2238.24,2112.13536L2238.84,2114.17537L2239.68,2116.21539L2240.28,2117.53539L2240.52,2118.7354L2240.88,2120.41542
				L2241.12,2122.09543L2241.24,2122.93543L2241.12,2123.53544L2241,2124.25544L2240.64,2125.69545L2240.28,2128.21547L2239.92,2129.65548
				L2239.44,2131.4555L2239.32,2132.2955L2238.96,2135.05552L2238.72,2137.33554L2238.6,2138.41555L2238.6,2139.37555L2238.6,2140.33556
				L2238.6,2140.93557L2238.48,2141.77557L2238.36,2142.61558L2238,2144.65559L2237.64,2146.3356L2237.16,2148.49562L2237.04,2149.57563
				L2237.04,2151.13564L2236.92,2154.85567L2236.92,2156.05568L2236.68,2157.49569L2236.2,2160.1357L2235.84,2161.69572L2235.36,2162.89572
				L2234.88,2163.85573L2234.16,2164.81574L2233.44,2165.53574L2232.48,2167.81576L2231.16,2171.17578L2230.44,2172.7358L2230.44,2172.8558
				L2230.56,2173.0958L2232,2173.2158L2232.12,2173.2158L2232.96,2173.3358L2234.04,2173.6958L2235.72,2174.53581L2238.84,2176.21582
				L2239.56,2176.57582L2241,2177.29583L2242.44,2178.25584L2243.28,2178.61584L2243.76,2178.85584L2244.36,2178.73584L2245.68,2178.61584
				L2246.4,2178.61584L2246.76,2178.49584L2247.96,2178.61584L2248.68,2178.85584L2249.64,2179.09584L2250.96,2179.09584L2252.28,2178.97584
				L2254.44,2178.73584L2255.16,2178.61584L2257.68,2177.65583L2262.72,2175.13581L2266.32,2173.4558L2268.12,2172.8558L2270.4,2172.25579
				L2273.4,2171.65579L2273.76,2171.65579L2276.04,2171.41579L2276.76,2171.29579L2278.08,2171.17578L2280.72,2171.17578L2285.28,2171.29579
				L2285.4,2171.41579L2285.4,2171.89579L2285.4,2172.01579L2285.52,2172.6158L2285.76,2173.8158L2286.24,2176.69583L2286.36,2177.05583
				L2286.36,2177.29583L2286.96,2180.41585L2290.2,2193.25595L2293.2,2205.25603L2293.44,2206.69604L2294.64,2211.01607L2301.48,2224.33617
				L2301.6,2224.45617L2301.6,2224.69617L2308.92,2238.61628L2337.48,2274.85654L2347.68,2287.57663L2348.04,2288.05663L2350.56,2291.17666
				L2350.68,2291.29666L2350.8,2291.53666L2351.76,2292.73667L2320.56,2341.81703L2291.88,2383.21733L2243.64,2415.85756L2243.52,2415.97756
				L2243.4,2416.09757L2234.88,2421.85761L2234.76,2421.85761L2234.64,2421.97761L2208.48,2439.73774L2199.72,2445.85778L2199.84,2462.5379
				L2190.12,2490.61811L2181.36,2508.25824L2195.04,2530.09839L2195.28,2530.3384L2195.88,2531.2984L2212.08,2602.57892L2221.56,2630.05912
				L2206.32,2645.17923L2193.96,2659.09933L2189.88,2673.37944L2185.8,2685.13952L2178.24,2695.6996L2168.28,2700.49963L2159.64,2703.01965
				L2153.04,2707.45968L2146.8,2719.09977L2144.28,2738.05991L2139.24,2749.81999L2134.2,2756.06004L2133.36,2756.30004L2133.24,2756.30004
				L2133.12,2756.42004L2120.52,2760.74007L2118,2769.62014L2120.28,2779.70021L2125.8,2794.82032L2133.72,2810.06043L2136.72,2826.74055
				L2136.72,2836.22062L2148.48,2853.38074L2154.72,2864.06082L2164.44,2887.46099L2165.88,2897.54107L2153.04,2912.30117L2147.04,2914.94119
				L2127.84,2912.66118L2111.28,2913.98119L2092.44,2918.90122L2078.64,2930.3013L2071.2,2941.10138L2070.6,2943.2614L2070.48,2943.3814
				L2070.48,2943.6214L2067.24,2953.94148L2063.88,2966.66157L2059.2,2977.34165L2053.2,2985.50171L2046.24,2988.38173L2035.08,2985.98171
				L2025,2982.98169L2018.76,2982.14168L2016.48,2991.02175L2010.84,3002.54183L2001,3017.42194L1991.04,3031.58204L1980.72,3030.74203
				L1971.12,3033.62205L1958.64,3037.34208L1949.52,3040.58211L1938.36,3043.34213L1918.56,3041.18211L1913.64,3044.54213L1908,3060.02225
				L1899.12,3080.5424L1890,3100.82254L1883.16,3117.74267L1873.32,3136.82281L1864.56,3145.58287L1851.6,3151.94292L1841.28,3153.74293
				L1821.12,3161.42298L1800.84,3179.66312L1790.28,3191.6632L1787.4,3207.26332L1787.76,3220.10341L1789.92,3237.14353L1792.92,3251.90364
				L1800.96,3265.34374L1806.24,3273.5038L1808.52,3288.38391L1820.76,3298.94398L1798.08,3294.38395L1797.96,3294.38395L1797.84,3294.38395
				L1788.12,3292.46394L1768.68,3285.02388L1757.4,3279.26384L1757.16,3279.14384L1757.04,3279.02384L1742.64,3271.82379L1728.24,3264.86374
				L1725.6,3262.94372L1723.2,3259.4637L1719.36,3250.10363L1712.76,3238.82355L1707.36,3225.62345L1706.76,3224.30344L1706.64,3224.18344
				L1706.64,3224.06344L1701.12,3211.70335L1694.88,3199.22326L1689.48,3187.58317L1684.44,3175.94309L1680.12,3165.86302L1676.64,3153.38293
				L1672.32,3142.58285L1668.12,3133.58278L1663.68,3125.30272L1659.6,3121.34269L1656,3116.06265L1653.12,3111.62262L1653.12,3111.50262
				L1650.84,3106.34258L1650.6,3105.74258L1650.12,3104.06257L1648.44,3099.14253L1646.16,3094.3425L1644.84,3090.38247L1642.68,3087.50245
				L1638.96,3083.66242L1636.08,3081.2624L1634.16,3080.5424L1632.12,3078.74238L1629.84,3074.90236L1628.88,3071.42233L1627.56,3066.8623
				L1625.16,3062.06226L1621.08,3054.50221L1619.4,3049.46217L1617.24,3044.78214L1614.48,3039.9821L1611.6,3035.30207L1607.16,3028.70202
				L1601.64,3024.38199L1598.4,3022.82198L1595.28,3021.62197L1590.96,3020.06196L1585.56,3018.74195L1579.68,3017.54194L1575.12,3016.22193
				L1571.76,3015.50192L1567.68,3014.06191L1564.8,3012.9819L1563.84,3011.54189L1561.32,3004.22184L1560.48,3001.22182L1559.88,2997.9818
				L1559.4,2995.22178L1557.84,2992.34175L1554.72,2990.78174L1551.36,2989.46173L1548.84,2988.02172L1547.16,2987.66172L1543.8,2986.70171
				L1542.24,2985.98171L1539.96,2984.5417L1537.44,2983.58169L1537.2,2983.58169L1536.6,2983.70169L1535.88,2983.70169L1534.8,2983.70169
				L1531.92,2984.06169L1528.2,2984.6617L1523.76,2985.3817L1518.96,2985.98171L1515.12,2987.18172L1509.36,2988.02172L1504.44,2989.10173
				L1500.36,2989.70174L1496.16,2989.94174L1485.36,2977.10164L1476,2966.06156L1463.28,2949.74145L1445.88,2929.7013L1437.84,2919.14122
				L1430.4,2909.42115L1426.08,2903.90111L1423.32,2900.54109L1418.16,2894.30104L1408.08,2882.90096L1399.8,2872.46088L1394.04,2865.26083
				L1393.32,2864.42082L1396.08,2863.10082L1397.88,2861.90081L1400.28,2860.7008L1403.76,2858.90078L1399.8,2854.10075L1395,2849.90072
				L1390.08,2845.10068L1382.16,2839.94065L1372.8,2833.3406L1363.44,2827.46056L1355.4,2820.86051L1347.48,2813.90046L1338.12,2809.10042
				L1329.12,2803.22038L1323.24,2797.58034L1316.64,2792.4203L1304.52,2780.66022L1295.52,2770.94015L1286.52,2761.94008L1276.8,2752.58001
				L1265.4,2740.45992L1263.12,2738.17991L1263,2738.05991L1258.56,2733.61987L1258.44,2733.49987L1258.08,2733.13987L1247.28,2727.25983
				L1236.96,2724.1398L1226.52,2723.7798L1217.52,2723.7798L1206.12,2724.85981L1197.48,2726.89983L1195.2,2740.33992L1190.88,2739.85992
				L1184.28,2739.01991L1181.04,2738.89991L1172.88,2737.0999L1169.88,2736.8599L1164,2735.17989L1156.8,2733.61987L1149.72,2730.73985
				L1143.36,2727.61983L1139.52,2726.89983L1137.36,2726.41982L1130.52,2725.33981L1119.96,2722.45979L1113.36,2721.61979L1105.92,2719.93977
				L1100.52,2718.49976L1096.8,2717.17975L1093.32,2715.97975L1089.72,2714.41973L1086.12,2712.49972L1081.32,2710.45971L1076.04,2708.77969
				L1071.48,2706.37968L1067.04,2703.37965L1063.2,2700.37963L1060.92,2697.25961L1059.24,2694.85959L1056.84,2690.65956L1054.44,2686.69953
				L1051.8,2683.09951L1051.44,2682.3795L1054.56,2670.73942L1054.56,2664.61937L1052.64,2657.53932L1045.56,2648.89926L1045.32,2648.41925
				L1033.68,2628.49911L1033.56,2628.25911L1031.16,2623.33907L1029.6,2620.21905L1023,2620.33905L1014.96,2620.57905L1006.2,2620.45905
				L1001.4,2619.25904L999.72,2619.01904L995.88,2618.53904L994.32,2618.29904L993.24,2618.17903L992.64,2618.17903L991.92,2618.05903
				L988.68,2617.57903L981.96,2616.49902L977.64,2615.53902L975.48,2614.93901L973.68,2614.33901L971.28,2613.739L970.44,2613.379
				L969.96,2613.259L969.36,2613.139L964.32,2611.69899L960.72,2610.37898L957.84,2609.29897L955.08,2609.05897L953.28,2608.93897
				L951.24,2608.57896L949.08,2608.45896L946.92,2608.45896L945.24,2608.57896L944.64,2608.57896L937.44,2609.41897L933.96,2610.25898
				L931.44,2610.49898L928.8,2611.09898L925.56,2611.93899L922.8,2612.53899L920.52,2613.379L918.12,2614.33901L917.28,2612.899
				L915.96,2611.21898L914.76,2610.13898L913.32,2608.69897L911.4,2607.49896L910.44,2606.17895L908.52,2602.21892L907.08,2598.9789
				L905.88,2595.97887L904.92,2593.09885L903.96,2589.97883L903,2586.3788L900,2584.69879L898.2,2583.49878L895.32,2581.45877L891,2578.93875
				L885.96,2576.53873L882.48,2575.09872L877.44,2572.2187L874.8,2569.81868L870.24,2565.85865L864.12,2560.45862L861.6,2557.57859
				L859.2,2553.97857L857.28,2550.01854L855.36,2546.53851L853.56,2543.29849L852.12,2540.29847L850.56,2537.65845L850.08,2535.85844
				L849.24,2532.97842L848.76,2530.6984L848.64,2530.3384L848.64,2530.09839L847.68,2526.61837L846.96,2523.37835L846.12,2518.57831
				L845.64,2514.13828L835.8,2509.93825L835.2,2509.69825L834.48,2509.33824L831.72,2508.01823L827.64,2506.33822L826.8,2505.85822
				L825.96,2505.49822L820.68,2502.9782L816.48,2500.81818L812.64,2499.25817L809.28,2496.97815L805.08,2494.09813L801.36,2491.81812
				L797.88,2489.8981L797.28,2489.4181L796.32,2488.81809L795.12,2487.97809L794.88,2487.85809L791.52,2485.45807L787.8,2483.05805
				L785.28,2482.69805L779.16,2482.21805L773.16,2481.85804L769.08,2481.25804L762.84,2480.29803L753.12,2478.01802L751.92,2477.41801
				L750.84,2476.458L749.52,2475.618L746.64,2474.89799L745.2,2474.41799L741.96,2473.33798L736.44,2471.05797L732,2468.41795L727.08,2466.25793
				L722.88,2463.73791L719.52,2461.4579L716.04,2459.29788L712.8,2456.89786L710.4,2454.73785L708.96,2453.41784L704.88,2448.9778
				L699.72,2444.41777L694.44,2439.97774L688.8,2435.0577L678.84,2426.89764L660.84,2414.29755L647.88,2405.53749L633.84,2396.17742
				L622.92,2390.77738L624.72,2380.2173L611.04,2351.29709L610.92,2351.29709L609.84,2349.01708L609.84,2348.89708L609.84,2348.77708
				L608.4,2345.29705L608.16,2344.69705L605.64,2338.457L603.84,2333.65697L603.24,2332.09695L600.36,2324.7769L597,2316.61684L
				561.84,2307.25677L531.24,2296.4567L518.76,2286.97663L513.12,2284.57661L509.64,2283.0166L509.52,2283.0166L507.24,2282.05659
				L506.64,2281.81659L503.76,2280.61658L502.08,2279.89658L482.04,2271.37651L480.84,2270.53651L480,2269.8165L440.88,2239.69628
				L435.12,2237.77627L380.88,2220.73615L377.16,2215.81611L373.2,2212.69609L369.12,2209.45606L365.04,2206.57604L361.44,2203.81602
				L358.32,2200.336L360.36,2198.41598L363.24,2196.73597L365.52,2195.53596L367.56,2194.45595L368.76,2194.45595L370.44,2193.61595
				L372.12,2192.77594L373.2,2191.81593L373.8,2191.21593L375.24,2190.61593L376.68,2189.89592L377.4,2188.69591L377.64,2188.45591
				L379.92,2185.57589L380.64,2184.49588L381.6,2183.29587L382.56,2182.33587L383.4,2181.49586L384.96,2180.29585L390.12,2177.89583
				L390.84,2177.41583L391.44,2176.57582L392.16,2175.61582L393,2174.29581L393.6,2173.0958L394.2,2171.53579L394.44,2170.45578
				L394.8,2168.89577L395.76,2166.73575L396.24,2165.17574L396.72,2164.33574L397.08,2163.49573L397.08,2158.9357L397.44,2157.37568
				L399,2154.37566L399.72,2153.29565L400.8,2152.09565L402.12,2148.97562L402.24,2147.77561L402.96,2146.0956L403.08,2144.77559
				L403.08,2143.81559L403.32,2142.61558L403.56,2141.41557L404.16,2140.57556L404.88,2139.49555L405.96,2138.77555L406.8,2137.57554
				L407.28,2136.97554L407.76,2136.25553L408.12,2135.41552L408.6,2134.21552L409.68,2132.77551L410.28,2131.5755L411.24,2130.37549
				L411.6,2129.65548L411.96,2127.97547L412.32,2127.13546L412.68,2125.81546L413.04,2125.33545L413.64,2124.25544L414.6,2123.41544
				L415.68,2122.33543L416.04,2121.73543L416.52,2121.49542L417.24,2120.65542L417.72,2120.29542L418.56,2118.8554L418.68,2118.3754
				L419.4,2117.05539L419.64,2115.85538L420.24,2114.77537L420.96,2113.45537L421.68,2112.73536L422.4,2112.37536L423.72,2111.29535
				L425.04,2110.81535L426.12,2110.45534L427.32,2109.37534L428.64,2109.13533L429.96,2108.89533L431.76,2107.57532L432.84,2107.09532
				L433.56,2106.97532L436.92,2106.97532L438.36,2107.33532L443.52,2107.33532L446.28,2106.73532L446.64,2106.61532L447.36,2106.37531
				L448.2,2105.17531L449.28,2105.0553L449.88,2104.2153L450.12,2103.8553L449.16,2103.13529L448.8,2102.65529L448.32,2102.41529
				L447.84,2102.29528L447.36,2102.29528L446.76,2102.41529L446.16,2102.17528L445.2,2101.69528L444.6,2101.45528L444.36,2101.45528
				L443.52,2100.73527L443.04,2100.25527L442.56,2099.65526L442.32,2099.29526L441.72,2098.33526L441.6,2097.97525L441.36,2097.37525
				L441,2097.01525L440.52,2096.53524L440.4,2095.69524L440.04,2095.21523L440.04,2094.97523L439.8,2093.53522L439.68,2092.93522
				L439.56,2092.69521L438.84,2090.4152L438.36,2088.97519L438,2087.29518L437.64,2086.45517L437.52,2085.85516L436.92,2085.25516
				L436.32,2084.77516L435.96,2084.53516L435.48,2084.29515L434.4,2083.45515L433.68,2083.21515L432.6,2082.61514L432.24,2082.37514
				L432,2082.13514L431.64,2081.77513L431.4,2081.41513L431.16,2081.05513L430.92,2080.57513L430.32,2080.33512L429.72,2079.85512
				L429.24,2079.49512L427.44,2078.77511L427.2,2078.77511L426.84,2078.65511L426.48,2078.53511L425.88,2078.41511L424.92,2078.41511
				L424.56,2078.29511L423.96,2077.93511L423.6,2077.93511L423.36,2077.93511L422.52,2077.69511L421.8,2077.2151L421.08,2076.9751
				L420.48,2076.7351L419.88,2076.6151L419.16,2076.7351L418.56,2076.7351L417.6,2076.4951L417.12,2076.25509L416.88,2076.13509
				L416.52,2076.13509L416.04,2076.01509L415.32,2075.65509L413.76,2075.29509L412.2,2075.53509L412.08,2075.53509L411.96,2075.41509
				L411.72,2075.29509L409.92,2075.05509L409.2,2074.93509L406.68,2075.29509L404.76,2075.29509L403.08,2074.81508L401.76,2073.49507
				L401.16,2071.81506L400.2,2069.89505L399.24,2069.05504L399,2068.81504L398.88,2068.69504L396.6,2067.61503L394.2,2066.41502
				L391.68,2064.25501L391.56,2064.13501L390.12,2061.61499L389.76,2060.65498L389.16,2058.85497L388.68,2055.61494L388.44,2053.69493
				L387.36,2051.41491L386.04,2049.4949L384.36,2048.41489L381.96,2047.21488L381.84,2047.21488L381.72,2046.97488L380.04,2045.65487
				L379.44,2044.69487L378.84,2043.85486L378,2041.81484L377.04,2039.89483L376.2,2038.81482L374.88,2037.25481L373.2,2035.0948
				L372.12,2032.93478L371.88,2032.45478L370.8,2030.53476L370.08,2029.69476L369.24,2028.49475L368.64,2027.41474L368.52,2027.29474
				L368.04,2026.33473L367.2,2024.53472L367.08,2023.57471L366.96,2022.73471L366.84,2020.69469L366.6,2018.65468L366,2017.21467
				L366.12,2015.05465L365.76,2013.37464L363.48,2009.77461L363,2007.7346L363.36,2006.05458L363.96,2004.01457L363.72,2002.57456
				L362.88,2001.61455L361.08,2001.49455L359.04,2001.01455L357.6,2000.17454L356.16,1998.73453L355.2,1997.89453L354.48,1996.57452
				L354,1995.0145L353.16,1993.33449L352.68,1991.89448L352.56,1990.81447L353.16,1989.73447L353.16,1988.77446L352.32,1986.49444
				L352.32,1984.45443L351.84,1983.01442L351.24,1982.29441L350.04,1982.17441L348.72,1981.69441L347.52,1980.4944L346.8,1978.81439
				L347.04,1977.13437L346.8,1975.57436L345.48,1974.25435L343.44,1972.93434L341.52,1971.25433L340.44,1969.57432L340.32,1969.09432
				L339.96,1967.65431L339.84,1966.21429L339.84,1965.13429L339.6,1962.97427L339.6,1962.61427L339.6,1962.37427L339.84,1961.17426
				L340.08,1959.49425L340.56,1957.69423L340.92,1956.85423L340.92,1954.21421L340.68,1953.4942L340.2,1951.81419L338.88,1949.05417
				L338.52,1946.89415L338.88,1944.49414L339.12,1943.77413L339.36,1942.57412L339.72,1941.13411L341.28,1940.29411L341.64,1939.4541
				L342.6,1937.53409L344.04,1935.61407L346.2,1935.01407L348.84,1935.37407L352.8,1935.73407L356.28,1935.25407L358.68,1934.41406
				L360.6,1932.97405L363.24,1931.53404L364.8,1929.85403L365.76,1927.09401L367.08,1925.054L369.24,1923.73399L371.4,1923.37398
				L374.88,1924.21399L377.88,1925.534L380.52,1926.97401L382.08,1927.21401L383.16,1926.49401L384.24,1924.93399L382.08,1922.89398
				L381.48,1922.29398L380.76,1921.57397L358.08,1900.45382L340.68,1884.8537L336.24,1876.45364L337.2,1862.53354L338.76,1839.97338
				L341.88,1841.77339L350.52,1825.69327L351.12,1816.2132L343.8,1816.81321L341.64,1810.81317L341.04,1809.37315L340.92,1808.77315
				L340.8,1808.65315L340.8,1808.53315L339.84,1805.77313L339,1803.61311L338.16,1801.3331L336.6,1796.89306L324.48,1799.89309L
				320.88,1792.45303L319.68,1790.05301L315.72,1782.01296L315.24,1780.93295L314.76,1779.85294L314.52,1779.49294L311.76,1778.77293
				L305.28,1775.89291L300.24,1773.7329L296.64,1771.09288L292.68,1768.45286L292.32,1768.21286L292.08,1758.61279L293.4,1750.57273
				L291,1743.25267L288.6,1739.41265L281.76,1737.13263L281.16,1729.69258L286.2,1727.53256L288.24,1724.65254L283.8,1711.57244
				L287.88,1699.09235L269.88,1660.57207L240.24,1601.89165L240.84,1589.65156L260.88,1570.33142L261.12,1570.09142L272.4,1559.17134
				L314.88,1558.45133L315,1554.6113L315.48,1533.85115L315.84,1530.49113L315.84,1530.13112L317.4,1512.01099L323.04,1505.29094
				L350.28,1495.33087L335.52,1440.25047L351.6,1421.77034L351.6,1421.65034L351.72,1421.53034L355.68,1417.0903L354.84,1409.65025
				L343.92,1367.04994L333,1329.84967L330.84,1301.40946L328.08,1293.1294L327.96,1292.7694L327.84,1292.4094L322.56,1277.04928
				L319.56,1268.16922L324.48,1264.44919L331.44,1262.28918L342.6,1262.28918L343.2,1262.28918L343.56,1262.28918L347.64,1262.28918
				L353.04,1261.20917L355.56,1259.40916L356.76,1258.56915L358.08,1258.08915L366.48,1255.32913L378.24,1255.32913L381,1253.76912
				L383.76,1247.76907L384,1247.28907L384.24,1246.80906L384.72,1245.60906L386.52,1240.08902L387.48,1237.08899L388.08,1233.36897
				L388.2,1232.16896L388.44,1230.60895L389.4,1228.44893L390.24,1226.28892L391.2,1223.7689L392.4,1220.76888L391.8,1219.56887
				L388.44,1218.96886L387.24,1218.96886L386.04,1218.84886L385.32,1218.48886L384.48,1218.12886L383.88,1218.00886L383.28,1218.00886
				L382.92,1217.40885L383.04,1216.92885L383.16,1216.32884L383.16,1215.72884L383.52,1215.24884L383.64,1214.52883L383.52,1213.92883
				L383.04,1213.08882L382.8,1212.72882L381.96,1212.60882L381.6,1212.48882L381.12,1212.24881L380.76,1212.24881L379.2,1212.12881
				L378.72,1211.28881L378.48,1210.6888L378.36,1210.2088L378.84,1209.7288L378.96,1209.48879L379.2,1208.76879L379.32,1208.16878
				L379.32,1207.68878L379.08,1207.20878L379.08,1206.84877L379.08,1206.60877L379.56,1206.48877L379.32,1206.00877L379.2,1205.64877
				L379.92,1205.28876L380.16,1205.28876L381.72,1205.52876L382.68,1205.04876L383.16,1204.44876L384.12,1204.32876L384.84,1204.32876
				L385.44,1203.84875L385.44,1203.24875L385.92,1202.16874L386.52,1201.68874L387.24,1201.56874L387.96,1201.44874L388.8,1201.44874
				L389.52,1201.56874L390.24,1201.68874L390.84,1202.04874L391.44,1202.40874L392.04,1202.64874L392.88,1203.00875L393.24,1203.24875
				L393.36,1203.60875L393.72,1204.08875L393.84,1204.44876L393.24,1204.68876L393.48,1204.80876L393.84,1205.04876L393.96,1205.40876
				L394.2,1206.12877L394.56,1206.96878L396.48,1207.44878L397.44,1207.20878L398.04,1206.72877L398.76,1206.72877L399,1207.08878
				L400.08,1207.32878L400.44,1207.20878L400.92,1206.96878L401.16,1206.72877L401.52,1206.48877L402.72,1206.12877L403.08,1205.88877
				L405.48,1204.68876L408.36,1203.12875L410.04,1200.48873L412.92,1196.0487L414.36,1194.00868L418.8,1189.08865L420.72,1187.04863
				L420.12,1181.52859L420,1181.28859L419.88,1180.32858L420.24,1177.32856L420.36,1174.32854L423.36,1172.76853L425.52,1170.12851
				L427.32,1164.96847L429.12,1162.80845L431.88,1159.20843L432.36,1156.68841L432.48,1155.0084L432.48,1152.48838L434.04,1148.64835
				L434.64,1146.24833L434.16,1144.32832L433.2,1142.88831L433.2,1138.92828L435.12,1135.80826L438.72,1131.84823L441.36,1132.32823
				L444.24,1131.96823L448.32,1130.76822L451.92,1129.92822L455.16,1128.3682L457.92,1125.72818L463.32,1118.16813L467.52,1110.60807
				L472.44,1101.96801L477.24,1092.36794L479.52,1085.04789L480,1083.72788L480,1068.72777L483.12,1062.72773L486.96,1059.4877L
				491.04,1054.56767L491.76,1053.60766L496.56,1043.88759L498.72,1035.36753L499.32,1028.88748L497.64,1022.40743L501.48,1017.00739
				L505.8,1013.28737L507,1012.08736L512.16,1006.80732L517.56,1001.40728L522.96,999.24727L528.36,998.16726L539.16,997.08725L
				542.88,994.44723L547.68,987.96718L553.68,981.00713L562.2,974.52709L567.6,972.96707L567.84,972.72707L568.2,972.48707L571.56,970.20705
				L571.92,969.96705L576.24,966.96703L583.68,962.767L592.8,961.56699L600.6,961.56699L600.84,961.56699L601.08,961.56699L602.76,962.407
				L603.36,962.647L609.72,965.76702L620.52,971.40706L622.2,951.24692L622.2,951.00691L622.2,950.76691L623.16,937.80682L623.52,933.60679
				L624,927.96675L624.84,916.68666L625.08,914.28665L625.08,913.68664L625.56,908.64661L625.56,907.3266L629.28,906.48659L629.4,906.36659
				L629.64,906.36659L695.28,890.64648L695.64,890.52647L697.8,890.04647L701.64,883.08642L709.08,869.16632L709.32,868.92632L709.56,868.32631
				L712.08,869.04632L712.8,869.28632L715.32,870.00633L715.8,870.12633L728.28,873.84635L728.64,873.96635L745.44,879.00639L749.28,880.0864
				L749.52,880.2064L749.88,880.4464L750.12,880.5664L752.28,881.64641L752.16,881.28641L751.92,881.16641L750.6,880.2064L750.48,879.9664
				L750.6,879.36639L750.6,878.88639L750.6,878.28639L750.72,877.80638L750.84,877.32638L751.08,876.96638L751.2,876.12637L751.08,875.76637
				L750.72,874.92636L750.48,873.48635L750.24,872.16634L749.28,871.08633L749.4,870.48633L749.64,870.00633L749.76,869.52632L749.52,868.80632
				L749.76,868.20631L749.64,867.72631L749.4,867.0063L749.52,866.5263L750.12,866.4063L750.48,866.0463L750.84,865.44629L750.96,864.96629
				L751.2,864.12628L750.96,863.52628L750.84,863.04627L750.96,862.56627L750.72,862.20627L750.36,861.84627L749.4,861.48626L749.04,861.72627
				L747.72,861.96627L745.8,862.68627L744.6,863.16628L743.76,863.52628L742.92,863.40628L741.72,862.80627L741.6,862.56627L741.36,862.20627
				L741.36,862.08627L740.88,861.36626L740.64,860.88626L740.64,860.40626L740.88,859.56625L741.6,857.76624L742.08,855.84622L742.68,853.44621
				L742.8,852.6062L742.8,852.2462L741.48,851.16619L740.4,850.20618L739.92,849.12617L739.56,847.92616L739.68,846.96616L740.28,845.52615
				L741.12,844.44614L741.24,844.20614L741,843.84614L740.52,843.48613L739.92,842.88613L738.6,842.28612L737.4,841.68612L737.16,841.08612
				L737.16,840.48611L737.28,839.4061L737.04,838.5661L736.44,837.84609L735.12,837.72609L733.56,837.60609L732.24,837.12609L731.04,836.28608
				L729.6,834.24607L729.48,833.76606L729.6,833.04606L729.96,832.20605L729.96,831.72605L729.36,831.00604L728.4,830.04603L727.8,829.32603
				L727.08,829.20603L726.24,829.20603L725.4,828.96603L724.8,828.72603L724.44,828.12602L724.32,827.76602L724.08,827.40602L723.96,826.68601
				L723.96,826.20601L724.08,825.846L724.44,825.366L724.8,824.40599L725.04,820.44597L725.16,817.68595L724.92,816.12593L724.44,815.64593
				L724.08,815.16593L723.72,814.92593L723.72,814.44592L723.84,813.84592L724.2,812.40591L724.68,811.2059L724.92,810.60589L724.92,810.24589
				L724.68,808.44588L724.68,807.72587L724.8,807.24587L724.68,806.52586L724.8,806.04586L725.04,805.68586L726,804.96585L728.04,803.64584
				L728.64,802.92584L728.64,802.44583L728.4,801.84583L727.92,801.24583L727.68,800.64582L727.56,800.04582L727.8,799.44581L728.64,798.60581
				L728.76,798.1258L728.64,797.5258L728.4,796.68579L728.52,795.24578L729.12,793.44577L729.48,792.60576L729.48,792.36576L729,792.36576
				L728.52,792.60576L727.92,792.48576L727.32,791.76576L727.2,791.52575L726.6,790.92575L726.12,789.96574L725.64,788.88574L725.04,787.56573
				L725.04,786.96572L725.16,786.36572L724.92,785.40571L724.32,784.3257L723.36,783.3657L722.64,782.76569L719.64,780.96568L718.92,780.72568
				L718.56,780.60568L718.32,780.36567L717.24,779.64567L716.88,779.40567L716.28,778.92566L715.68,778.08566L715.32,777.12565L
				714.96,776.04564L714.96,775.68564L714.96,775.44564L714.24,774.24563L713.64,772.20561L712.92,770.0456L711.84,767.88558L711,766.92558
				L709.92,765.84557L709.8,765.36556L709.8,764.64556L709.56,763.80555L709.56,763.08555L710.16,762.36554L711.6,761.40554L712.08,760.92553
				L712.08,760.20553L712.08,759.84552L711.96,759.36552L711.84,758.88552L711.48,758.52551L711,758.04551L710.76,757.56551L710.28,756.9655
				L710.16,756.3655L710.16,755.8855L710.52,755.16549L711.6,754.44549L712.2,753.84548L712.56,753.24548L712.68,753.00547L712.68,752.64547
				L712.8,752.64547L712.68,752.04547L712.56,751.92547L712.32,751.56546L712.2,751.32546L712.08,750.72546L712.2,749.76545L712.32,749.16545
				L711.96,748.20544L711.72,747.12543L711.6,746.76543L711.6,745.44542L711.6,744.96542L711.6,744.48541L711.6,744.36541L711.12,743.88541
				L710.16,743.1654L709.32,742.6854L708.72,742.2054L708.48,741.60539L708.48,740.88539L708.48,740.16538L708.96,739.56538L709.56,738.84537
				L709.8,738.60537L709.92,738.36537L709.8,738.00537L709.44,737.76536L708.6,737.76536L707.76,737.64536L707.04,737.16536L706.56,736.68536
				L706.44,736.44535L706.2,736.08535L706.08,735.84535L705.72,734.40534L705.6,733.56533L705.6,732.36532L706.08,731.76532L706.8,731.40532
				L707.52,730.80531L708,730.08531L708.24,728.6453L708,727.32529L707.88,726.96529L707.76,726.60528L706.56,725.52528L706.08,725.04527
				L705.72,724.44527L705.72,723.72526L706.32,722.76525L707.16,722.04525L707.76,721.56525L708.24,721.32524L708.96,721.56525L
				709.08,721.44525L709.32,721.20524L709.44,721.20524L709.56,720.84524L709.44,720.60524L709.32,720.36524L708.84,720.12524L708.48,720.00523
				L708.12,719.40523L708,718.56522L708,717.96522L708.12,717.48522L708.12,717.24521L708.24,716.88521L708.6,715.92521L708.72,715.4452
				L708.84,715.3252L709.08,714.6052L709.32,714.00519L709.56,713.28519L709.32,712.20518L709.2,711.72517L709.2,711.60517L709.08,711.12517
				L709.08,710.52517L709.2,710.04516L709.32,709.68516L709.56,709.56516L710.04,709.32516L710.28,709.32516L710.4,709.20516L710.52,709.08516
				L710.64,708.72515L710.52,708.60515L710.52,708.48515L709.8,708.00515L707.88,707.52514L707.04,707.16514L706.68,706.92514L706.32,706.68514
				L706.08,706.44514L705.36,706.32514L705,706.08513L704.88,705.60513L704.76,704.88513L704.76,704.52512L704.88,704.04512L704.76,703.44511
				L704.76,703.20511L704.76,702.84511L704.76,702.48511L704.88,701.4051L704.88,700.9251L705.24,700.56509L705.72,700.08509L706.2,699.84509
				L706.56,699.60509L707.52,699.12508L708.12,698.52508L708.36,697.68507L708.36,696.84507L708.24,696.36506L708.12,696.00506L
				707.76,695.40506L707.52,694.68505L707.64,694.08505L707.88,692.40503L707.88,691.68503L707.64,691.08502L707.88,690.60502L707.88,689.88502
				L707.64,689.16501L707.4,688.44501L707.28,688.085L707.16,687.845L707.04,687.485L706.68,687.005L706.44,686.88499L705.96,686.64499
				L705.72,686.40499L705.72,686.16499L705.84,685.92499L706.56,685.80499L707.04,685.56498L707.16,685.20498L707.04,684.84498L
				706.56,684.48498L705.48,684.48498L705,684.24497L704.52,684.00497L704.04,683.64497L703.92,683.16497L704.04,682.68496L704.76,682.20496
				L704.88,681.84496L704.64,681.48495L704.4,681.24495L703.68,680.88495L703.08,680.16495L702.84,679.68494L702.6,679.32494L702.72,678.72493
				L702.84,678.12493L703.2,677.40493L703.32,676.80492L703.92,676.32492L704.76,675.36491L705.24,675.12491L705.84,674.88491L706.32,674.64491
				L706.68,674.5249L706.68,674.1649L706.8,673.8049L707.16,672.96489L706.92,672.72489L706.56,672.84489L706.08,673.20489L705.72,673.3249
				L705.48,673.20489L705.24,672.84489L705.36,672.48489L705.48,671.88489L705.36,671.40488L704.76,670.44487L704.64,669.72487L
				704.88,669.36487L705.96,666.72485L706.08,666.48485L707.4,663.24482L707.64,660.0048L707.64,659.7648L708.12,653.16475L705,640.68466
				L703.68,633.1246L701.88,624.96454L701.88,624.60454L701.76,624.36454L701.04,616.80448L701.04,616.56448L701.04,616.44448L700.56,611.76445
				L700.56,610.56444L700.56,610.44444L700.56,610.20444L700.56,606.84441L700.56,606.72441L700.56,606.48441L700.56,604.20439L
				701.16,595.44433L706.2,575.40418L707.4,547.80398L707.4,538.92392L706.8,531.48386L705,528.36384L695.52,523.32381L686.16,515.16375
				L672.96,503.16366L659.76,493.20359L648.48,483.12351L653.28,468.0034L658.92,469.44341L666.12,461.16335L668.04,459.00334L668.16,458.88334
				L668.28,458.76334L668.64,458.28333L677.04,437.40318L693.72,412.203L700.68,396.96289L716.04,380.16276L762.12,360.72262L773.28,341.16248
				L816.48,349.56254L825.72,351.96256L837.36,355.08258L844.08,354.48258L854.28,351.24255L858.48,349.32254L865.2,345.12251L867.96,342.84249
				L870.72,340.56248L872.52,339.24247L873.6,338.28246L874.92,336.72245L875.64,336.12244L876.96,335.16244L877.8,334.80243L879.6,333.96243
				L881.04,332.88242L882.72,332.16242L884.64,330.2424L887.16,327.72238L891,325.92237L892.32,324.84236L892.8,324.48236L893.64,324.60236
				L894.72,324.60236L895.56,324.12236L896.16,323.64235L896.88,322.80235L898.32,322.56235L908.16,319.68232L911.52,317.88231L
				912.72,316.2023L913.92,313.32228L916.44,310.44226L918.6,309.72225L923.52,308.64224L927.6,308.16224L932.88,306.96223L937.44,305.64222
				L942.12,304.68222L944.76,304.44221L947.16,304.80222L949.92,305.28222L952.56,305.64222L955.32,306.48223L957.48,307.44224L
				958.32,307.80224L958.8,307.92224L959.4,308.16224L960.12,308.64224L962.04,309.24225L964.32,309.84225L966.36,310.08225L968.52,310.32226
				L969.72,310.32226L970.92,310.08225L972,309.48225L972.84,309.24225L974.88,308.76225L976.56,308.52224L977.88,307.92224L980.04,307.68224
				L981.6,307.80224L983.52,308.04224L984.48,308.16224L985.32,308.16224L985.92,307.80224L986.52,307.32223L987.24,307.08223L988.92,307.20223
				L990.48,307.32223L991.44,306.96223L992.28,306.48223L992.76,306.48223L993.6,306.60223L994.44,306.84223L995.52,306.84223L996.48,307.08223
				L997.32,307.44224L998.28,307.80224L999.36,307.80224L999.96,307.80224L1001.04,308.28224L1002.24,308.28224L1003.56,307.92224
				L1004.76,307.68224L1005.6,307.68224L1006.56,308.16224L1007.76,308.76225L1009.2,308.76225L1012.44,307.56224L1015.92,307.08223
				L1017.48,307.44224L1018.44,307.80224L1019.16,308.64224L1020.12,308.88225L1020,307.80224L1019.88,307.20223L1020,305.64222
				L1020.24,304.56221L1021.32,302.4022L1021.92,300.36218L1022.52,298.56217L1023.24,297.24216L1024.44,296.04215L1026,295.20215
				L1027.2,293.76214L1027.32,293.04213L1027.32,292.56213L1027.92,291.48212L1028.4,290.16211L1029,288.4821L1030.92,286.32208
				L1031.88,284.16207L1031.88,281.88205L1031.52,281.04204L1031.28,280.56204L1031.52,279.96204L1031.88,279.48203L1032.48,278.52203
				L1032.96,277.32202L1032.96,276.24201L1032.84,275.042L1032.84,274.562L1032.6,272.52198L1032.84,271.68198L1033.32,270.12196
				L1034.52,268.32195L1035.36,267.12194L1036.56,265.08193L1038.96,263.28191L1039.92,261.6019L1040.16,260.04189L1040.4,259.20188
				L1040.4,258.84188L1040.76,258.00188L1041.12,257.04187L1041.84,256.08186L1042.68,255.72186L1045.2,254.64185L1046.64,253.44184
				L1047,252.48184L1047.12,251.64183L1046.88,250.80182L1046.16,249.96182L1046.04,249.12181L1045.92,248.64181L1046.16,246.36179
				L1046.52,244.44178L1047,243.84177L1047.6,243.24177L1048.08,243.00177L1048.68,242.64176L1049.88,241.32175L1050.96,239.88174
				L1051.32,239.40174L1052.88,237.48173L1053.72,235.44171L1053.96,235.20171L1054.92,234.72171L1055.64,234.0017L1057.2,231.48168
				L1058.4,229.68167L1059.48,228.72166L1060.92,228.00166L1065.72,226.08164L1066.8,226.08164L1068.24,226.44165L1069.2,226.44165
				L1070.88,225.96164L1072.32,225.00164L1072.56,224.40163L1072.56,223.08162L1073.4,221.52161L1074.36,220.5616L1075.8,219.8416
				L1077.24,219.4816L1077.96,218.40159L1078.44,216.96158L1078.68,215.64157L1079.64,214.44156L1081.44,213.24155L1083.36,211.32154
				L1084.2,209.28152L1085.52,207.96151L1087.44,206.7615L1088.64,205.44149L1089.36,204.12148L1089.48,203.04148L1089.24,201.84147
				L1089.36,200.04145L1089.96,196.68143L1090.08,194.04141L1091.76,190.20138L1092.84,186.36136L1093.32,183.84134L1094.4,180.84132
				L1094.28,179.76131L1094.16,178.8013L1094.4,177.24129L1095,175.44128L1095.72,174.24127L1097.28,172.68126L1099.8,171.00124
				L1101.96,170.40124L1104.6,169.92124L1106.64,170.04124L1107.6,170.64124L1109.52,171.96125L1111.44,174.12127L1112.16,175.20127
				L1113.6,176.04128L1115.4,176.88129L1116.24,177.24129L1116.72,178.5613L1117.44,179.4013L1119.24,179.64131L1120.68,179.88131
				L1120.92,179.76131L1122,178.6813L1123.32,177.24129L1123.8,176.64128L1126.2,173.88126L1128.84,171.00124L1130.52,170.04124
				L1131.84,169.32123L1153.92,157.08114L1174.8,169.68123z"/>
			<path clip-path="url(#SVG_CP_1)" fill="none" stroke="#000000" stroke-width="3.96" stroke-miterlimit="10" stroke-linecap="round" stroke-linejoin="round" d="
				M1174.8,169.68123L1201.32,190.56139L1236.84,233.5217L1237.44,234.1217L1241.76,239.40174L1245.96,239.40174L1248.12,238.80174
				L1248.36,238.80174L1248.48,238.68174L1255.68,236.88172L1256.52,236.76172L1257.12,236.52172L1287.72,233.7617L1304.52,233.7617
				L1319.76,237.96173L1336.56,237.96173L1358.88,239.40174L1368.6,244.92178L1395.12,271.44197L1409.04,282.60206L1413.24,289.56211
				L1425.72,323.04235L1413.24,374.64272L1420.92,393.24286L1421.16,393.48286L1421.28,393.84286L1428.84,411.963L1429.08,412.563
				L1429.2,413.043L1434.12,424.80309L1467.6,445.68324L1473.72,449.64327L1491.36,461.04335L1503.84,466.68339L1526.16,469.44341
				L1554,474.96345L1586.76,478.44348L1587.48,478.56348L1600.92,479.88349L1602.48,480.12349L1604.04,480.24349L1607.04,480.60349
				L1650.24,479.16348L1663.2,484.56352L1663.32,484.68352L1663.44,484.68352L1668,486.60354L1668.48,486.84354L1708.92,503.76366
				L1715.88,517.20376L1722.24,528.36384L1722.24,528.48384L1722.36,528.60384L1732.92,547.20398L1732.92,547.44398L1733.04,547.56398
				L1736.4,553.44402L1756.32,581.52423L1778.04,604.8044L1778.4,605.2844L1778.64,605.7644L1783.08,612.60445L1792.68,630.96459
				L1804.32,649.44472L1803,654.12476L1798.68,663.12482L1799.64,676.56492L1809.84,698.64508L1823.04,718.32522L1843.32,740.76539
				L1863.84,765.72557L1891.92,802.56584L1901.64,816.36594L1901.28,821.28597L1901.28,821.52597L1901.28,821.64597L1901.16,822.48598
				L1901.04,825.006L1901.04,825.246L1901.04,825.726L1900.92,826.32601L1899.84,829.32603L1897.8,834.36607L1890.96,847.80616L
				1890.36,861.60626L1890.36,876.84638L1887.24,882.48642L1877.52,903.36657L1874.76,914.28665L1875.96,927.72675L1874.4,940.80684
				L1867.92,960.12698L1865.88,963.72701L1856.52,979.68712L1856.4,980.04713L1851.96,987.60718L1838.16,1010.76735L1837.8,1011.24735
				L1835.16,1015.68738L1827.36,1027.08747L1827.12,1027.44747L1826.16,1029.00748L1825.8,1029.36748L1823.28,1033.08751L1821.12,1047.84762
				L1821.24,1052.64765L1821.24,1053.12766L1821.48,1059.1277L1821.48,1059.6077L1821.72,1065.36775L1821.72,1065.84775L1821.84,1068.84777
				L1821.84,1069.20777L1822.08,1076.16782L1822.08,1078.44784L1822.08,1078.92784L1822.32,1085.88789L1820.76,1104.84803L1811.16,1114.92811
				L1797.36,1121.40815L1784.64,1130.76822L1781.76,1136.76826L1781.64,1137.24827L1779.96,1140.72829L1779,1154.16839L1779,1154.7684
				L1778.64,1158.60842L1778.52,1158.96843L1769.64,1174.44854L1761.84,1177.92856L1750.68,1191.36866L1750.08,1192.08867L1737.84,1206.96878
				L1707.84,1243.92904L1681.92,1277.04928L1707.24,1293.1294L1708.08,1293.60941L1735.44,1310.88953L1757.4,1323.48962L1768.56,1328.52966
				L1783.92,1340.88975L1789.8,1349.88981L1790.04,1350.24982L1791.84,1353.00984L1791.96,1353.24984L1798.2,1362.84991L1800.72,1367.76994
				L1800.96,1368.36995L1802.76,1371.96997L1802.88,1372.20998L1810.44,1387.33009L1818.48,1407.85024L1818.6,1408.09024L1818.72,1408.33024
				L1820.64,1413.37028L1828.8,1439.29046L1829.04,1439.89047L1829.88,1442.41049L1830,1443.6105L1830,1443.8505L1830,1444.0905
				L1830.12,1445.65051L1830.12,1446.49052L1832.4,1475.17072L1836.96,1488.37082L1847.76,1539.9712L1851.36,1556.89132L1850.28,1568.0514
				L1844.64,1587.97155L1844.16,1598.77162L1851.84,1618.09176L1864.08,1647.73198L1868.16,1673.29217L1880.4,1680.97222L1890.84,1684.45225
				L1891.32,1684.57225L1901.88,1688.17227L1916.16,1702.45238L1923.12,1707.73242L1923.24,1707.85242L1931.52,1714.21246L1945.32,1714.69247
				L1963.68,1718.29249L1980.48,1722.85253L2020.32,1717.69249L2035.68,1725.85255L2053.08,1744.81269L2068.2,1758.49278L2075.04,1764.73283
				L2102.52,1791.25302L2121.84,1810.21316L2121.84,1810.33316L2121.96,1810.45316L2139.84,1828.09329L2152.8,1842.25339L2153.04,1842.6134
				L2159.28,1849.45345L2163.96,1858.57351L2163.96,1858.69351L2164.08,1858.93351L2164.08,1859.05352L2172.6,1875.49364L2181.72,1911.8539
				L2182.32,1914.85392L2182.32,1915.21392L2182.44,1915.45393L2182.68,1917.01394L2185.44,1931.77404L2185.68,1932.97405L2187.36,1941.97412
				L2188.2,1943.41413L2189.64,1945.57414L2191.32,1948.33416L2201.64,1964.89429L2203.56,1970.17432L2203.68,1970.29432L2203.68,1970.53433
				L2210.88,1989.97447L2218.56,2019.01468L2218.68,2019.25468L2218.8,2019.49468L2218.92,2019.61468L2219.88,2021.4147L2220.24,2022.0147
				L2221.2,2023.45471L2221.8,2027.53474L2221.92,2029.21475L2222.16,2031.73477L2222.28,2032.45478L2223,2033.77479L2223.24,2034.13479
				L2224.08,2035.4548L2224.32,2035.8148L2224.32,2035.9348L2224.56,2036.41481L2224.44,2037.13481L2224.56,2038.69482L2224.56,2039.29483
				L2224.44,2040.13483L2224.32,2041.21484L2223.96,2042.41485L2223.84,2043.13485L2223.72,2043.85486L2223.48,2044.33486L2223,2045.53487
				L2222.28,2046.49488L2222.16,2047.09488L2221.68,2048.29489L2220.72,2051.05491L2219.88,2053.93493L2219.52,2055.61494L2219.4,2056.21495
				L2219.4,2057.29496L2219.28,2058.73497L2219.52,2059.81498L2219.76,2060.89498L2220,2061.85499L2220.72,2063.175L2221.44,2064.73501
				L2222.16,2066.77503L2223.72,2069.89505L2224.8,2071.69506L2225.4,2072.77507L2225.76,2073.61508L2226.48,2075.29509L2226.84,2076.25509
				L2227.2,2077.69511L2227.92,2079.97512L2228.76,2082.25514L2229.6,2084.53516L2230.32,2086.21517L2230.92,2087.29518L2231.64,2088.37518
				L2232.36,2089.33519L2232.72,2089.81519L2233.2,2091.0152L2233.92,2093.53522L2234.4,2095.09523L2234.64,2096.41524L2235,2098.45526
				L2236.08,2104.6953L2236.56,2106.61532L2237.28,2108.77533L2238.24,2112.13536L2238.84,2114.17537L2239.68,2116.21539L2240.28,2117.53539
				L2240.52,2118.7354L2240.88,2120.41542L2241.12,2122.09543L2241.24,2122.93543L2241.12,2123.53544L2241,2124.25544L2240.64,2125.69545
				L2240.28,2128.21547L2239.92,2129.65548L2239.44,2131.4555L2239.32,2132.2955L2238.96,2135.05552L2238.72,2137.33554L2238.6,2138.41555
				L2238.6,2139.37555L2238.6,2140.33556L2238.6,2140.93557L2238.48,2141.77557L2238.36,2142.61558L2238,2144.65559L2237.64,2146.3356
				L2237.16,2148.49562L2237.04,2149.57563L2237.04,2151.13564L2236.92,2154.85567L2236.92,2156.05568L2236.68,2157.49569L2236.2,2160.1357
				L2235.84,2161.69572L2235.36,2162.89572L2234.88,2163.85573L2234.16,2164.81574L2233.44,2165.53574L2232.48,2167.81576L2231.16,2171.17578
				L2230.44,2172.7358L2230.44,2172.8558L2230.56,2173.0958L2232,2173.2158L2232.12,2173.2158L2232.96,2173.3358L2234.04,2173.6958
				L2235.72,2174.53581L2238.84,2176.21582L2239.56,2176.57582L2241,2177.29583L2242.44,2178.25584L2243.28,2178.61584L2243.76,2178.85584
				L2244.36,2178.73584L2245.68,2178.61584L2246.4,2178.61584L2246.76,2178.49584L2247.96,2178.61584L2248.68,2178.85584L2249.64,2179.09584
				L2250.96,2179.09584L2252.28,2178.97584L2254.44,2178.73584L2255.16,2178.61584L2257.68,2177.65583L2262.72,2175.13581L2266.32,2173.4558
				L2268.12,2172.8558L2270.4,2172.25579L2273.4,2171.65579L2273.76,2171.65579L2276.04,2171.41579L2276.76,2171.29579L2278.08,2171.17578
				L2280.72,2171.17578L2285.28,2171.29579L2285.4,2171.41579L2285.4,2171.89579L2285.4,2172.01579L2285.52,2172.6158L2285.76,2173.8158
				L2286.24,2176.69583L2286.36,2177.05583L2286.36,2177.29583L2286.96,2180.41585L2290.2,2193.25595L2293.2,2205.25603L2293.44,2206.69604
				L2294.64,2211.01607L2301.48,2224.33617L2301.6,2224.45617L2301.6,2224.69617L2308.92,2238.61628L2337.48,2274.85654L2347.68,2287.57663
				L2348.04,2288.05663L2350.56,2291.17666L2350.68,2291.29666L2350.8,2291.53666L2351.76,2292.73667L2320.56,2341.81703L2291.88,2383.21733
				L2243.64,2415.85756L2243.52,2415.97756L2243.4,2416.09757L2234.88,2421.85761L2234.76,2421.85761L2234.64,2421.97761L2208.48,2439.73774
				L2199.72,2445.85778L2199.84,2462.5379L2190.12,2490.61811L2181.36,2508.25824L2195.04,2530.09839L2195.28,2530.3384L2195.88,2531.2984
				L2212.08,2602.57892L2221.56,2630.05912L2206.32,2645.17923L2193.96,2659.09933L2189.88,2673.37944L2185.8,2685.13952L2178.24,2695.6996
				L2168.28,2700.49963L2159.64,2703.01965L2153.04,2707.45968L2146.8,2719.09977L2144.28,2738.05991L2139.24,2749.81999L2134.2,2756.06004
				L2133.36,2756.30004L2133.24,2756.30004L2133.12,2756.42004L2120.52,2760.74007L2118,2769.62014L2120.28,2779.70021L2125.8,2794.82032
				L2133.72,2810.06043L2136.72,2826.74055L2136.72,2836.22062L2148.48,2853.38074L2154.72,2864.06082L2164.44,2887.46099L2165.88,2897.54107
				L2153.04,2912.30117L2147.04,2914.94119L2127.84,2912.66118L2111.28,2913.98119L2092.44,2918.90122L2078.64,2930.3013L2071.2,2941.10138
				L2070.6,2943.2614L2070.48,2943.3814L2070.48,2943.6214L2067.24,2953.94148L2063.88,2966.66157L2059.2,2977.34165L2053.2,2985.50171
				L2046.24,2988.38173L2035.08,2985.98171L2025,2982.98169L2018.76,2982.14168L2016.48,2991.02175L2010.84,3002.54183L2001,3017.42194
				L1991.04,3031.58204L1980.72,3030.74203L1971.12,3033.62205L1958.64,3037.34208L1949.52,3040.58211L1938.36,3043.34213L1918.56,3041.18211
				L1913.64,3044.54213L1908,3060.02225L1899.12,3080.5424L1890,3100.82254L1883.16,3117.74267L1873.32,3136.82281L1864.56,3145.58287
				L1851.6,3151.94292L1841.28,3153.74293L1821.12,3161.42298L1800.84,3179.66312L1790.28,3191.6632L1787.4,3207.26332L1787.76,3220.10341
				L1789.92,3237.14353L1792.92,3251.90364L1800.96,3265.34374L1806.24,3273.5038L1808.52,3288.38391L1820.76,3298.94398L1798.08,3294.38395
				L1797.96,3294.38395L1797.84,3294.38395L1788.12,3292.46394L1768.68,3285.02388L1757.4,3279.26384L1757.16,3279.14384L1757.04,3279.02384
				L1742.64,3271.82379L1728.24,3264.86374L1725.6,3262.94372L1723.2,3259.4637L1719.36,3250.10363L1712.76,3238.82355L1707.36,3225.62345
				L1706.76,3224.30344L1706.64,3224.18344L1706.64,3224.06344L1701.12,3211.70335L1694.88,3199.22326L1689.48,3187.58317L1684.44,3175.94309
				L1680.12,3165.86302L1676.64,3153.38293L1672.32,3142.58285L1668.12,3133.58278L1663.68,3125.30272L1659.6,3121.34269L1656,3116.06265
				L1653.12,3111.62262L1653.12,3111.50262L1650.84,3106.34258L1650.6,3105.74258L1650.12,3104.06257L1648.44,3099.14253L1646.16,3094.3425
				L1644.84,3090.38247L1642.68,3087.50245L1638.96,3083.66242L1636.08,3081.2624L1634.16,3080.5424L1632.12,3078.74238L1629.84,3074.90236
				L1628.88,3071.42233L1627.56,3066.8623L1625.16,3062.06226L1621.08,3054.50221L1619.4,3049.46217L1617.24,3044.78214L1614.48,3039.9821
				L1611.6,3035.30207L1607.16,3028.70202L1601.64,3024.38199L1598.4,3022.82198L1595.28,3021.62197L1590.96,3020.06196L1585.56,3018.74195
				L1579.68,3017.54194L1575.12,3016.22193L1571.76,3015.50192L1567.68,3014.06191L1564.8,3012.9819L1563.84,3011.54189L1561.32,3004.22184
				L1560.48,3001.22182L1559.88,2997.9818L1559.4,2995.22178L1557.84,2992.34175L1554.72,2990.78174L1551.36,2989.46173L1548.84,2988.02172
				L1547.16,2987.66172L1543.8,2986.70171L1542.24,2985.98171L1539.96,2984.5417L1537.44,2983.58169L1537.2,2983.58169L1536.6,2983.70169
				L1535.88,2983.70169L1534.8,2983.70169L1531.92,2984.06169L1528.2,2984.6617L1523.76,2985.3817L1518.96,2985.98171L1515.12,2987.18172
				L1509.36,2988.02172L1504.44,2989.10173L1500.36,2989.70174L1496.16,2989.94174L1485.36,2977.10164L1476,2966.06156L1463.28,2949.74145
				L1445.88,2929.7013L1437.84,2919.14122L1430.4,2909.42115L1426.08,2903.90111L1423.32,2900.54109L1418.16,2894.30104L1408.08,2882.90096
				L1399.8,2872.46088L1394.04,2865.26083L1393.32,2864.42082L1396.08,2863.10082L1397.88,2861.90081L1400.28,2860.7008L1403.76,2858.90078
				L1399.8,2854.10075L1395,2849.90072L1390.08,2845.10068L1382.16,2839.94065L1372.8,2833.3406L1363.44,2827.46056L1355.4,2820.86051
				L1347.48,2813.90046L1338.12,2809.10042L1329.12,2803.22038L1323.24,2797.58034L1316.64,2792.4203L1304.52,2780.66022L1295.52,2770.94015
				L1286.52,2761.94008L1276.8,2752.58001L1265.4,2740.45992L1263.12,2738.17991L1263,2738.05991L1258.56,2733.61987L1258.44,2733.49987
				L1258.08,2733.13987L1247.28,2727.25983L1236.96,2724.1398L1226.52,2723.7798L1217.52,2723.7798L1206.12,2724.85981L1197.48,2726.89983
				L1195.2,2740.33992L1190.88,2739.85992L1184.28,2739.01991L1181.04,2738.89991L1172.88,2737.0999L1169.88,2736.8599L1164,2735.17989
				L1156.8,2733.61987L1149.72,2730.73985L1143.36,2727.61983L1139.52,2726.89983L1137.36,2726.41982L1130.52,2725.33981L1119.96,2722.45979
				L1113.36,2721.61979L1105.92,2719.93977L1100.52,2718.49976L1096.8,2717.17975L1093.32,2715.97975L1089.72,2714.41973L1086.12,2712.49972
				L1081.32,2710.45971L1076.04,2708.77969L1071.48,2706.37968L1067.04,2703.37965L1063.2,2700.37963L1060.92,2697.25961L1059.24,2694.85959
				L1056.84,2690.65956L1054.44,2686.69953L1051.8,2683.09951L1051.44,2682.3795L1054.56,2670.73942L1054.56,2664.61937L1052.64,2657.53932
				L1045.56,2648.89926L1045.32,2648.41925L1033.68,2628.49911L1033.56,2628.25911L1031.16,2623.33907L1029.6,2620.21905L1023,2620.33905
				L1014.96,2620.57905L1006.2,2620.45905L1001.4,2619.25904L999.72,2619.01904L995.88,2618.53904L994.32,2618.29904L993.24,2618.17903
				L992.64,2618.17903L991.92,2618.05903L988.68,2617.57903L981.96,2616.49902L977.64,2615.53902L975.48,2614.93901L973.68,2614.33901
				L971.28,2613.739L970.44,2613.379L969.96,2613.259L969.36,2613.139L964.32,2611.69899L960.72,2610.37898L957.84,2609.29897L955.08,2609.05897
				L953.28,2608.93897L951.24,2608.57896L949.08,2608.45896L946.92,2608.45896L945.24,2608.57896L944.64,2608.57896L937.44,2609.41897
				L933.96,2610.25898L931.44,2610.49898L928.8,2611.09898L925.56,2611.93899L922.8,2612.53899L920.52,2613.379L918.12,2614.33901
				L917.28,2612.899L915.96,2611.21898L914.76,2610.13898L913.32,2608.69897L911.4,2607.49896L910.44,2606.17895L908.52,2602.21892
				L907.08,2598.9789L905.88,2595.97887L904.92,2593.09885L903.96,2589.97883L903,2586.3788L900,2584.69879L898.2,2583.49878L895.32,2581.45877
				L891,2578.93875L885.96,2576.53873L882.48,2575.09872L877.44,2572.2187L874.8,2569.81868L870.24,2565.85865L864.12,2560.45862
				L861.6,2557.57859L859.2,2553.97857L857.28,2550.01854L855.36,2546.53851L853.56,2543.29849L852.12,2540.29847L850.56,2537.65845
				L850.08,2535.85844L849.24,2532.97842L848.76,2530.6984L848.64,2530.3384L848.64,2530.09839L847.68,2526.61837L846.96,2523.37835
				L846.12,2518.57831L845.64,2514.13828L835.8,2509.93825L835.2,2509.69825L834.48,2509.33824L831.72,2508.01823L827.64,2506.33822
				L826.8,2505.85822L825.96,2505.49822L820.68,2502.9782L816.48,2500.81818L812.64,2499.25817L809.28,2496.97815L805.08,2494.09813
				L801.36,2491.81812L797.88,2489.8981L797.28,2489.4181L796.32,2488.81809L795.12,2487.97809L794.88,2487.85809L791.52,2485.45807
				L787.8,2483.05805L785.28,2482.69805L779.16,2482.21805L773.16,2481.85804L769.08,2481.25804L762.84,2480.29803L753.12,2478.01802
				L751.92,2477.41801L750.84,2476.458L749.52,2475.618L746.64,2474.89799L745.2,2474.41799L741.96,2473.33798L736.44,2471.05797
				L732,2468.41795L727.08,2466.25793L722.88,2463.73791L719.52,2461.4579L716.04,2459.29788L712.8,2456.89786L710.4,2454.73785
				L708.96,2453.41784L704.88,2448.9778L699.72,2444.41777L694.44,2439.97774L688.8,2435.0577L678.84,2426.89764L660.84,2414.29755
				L647.88,2405.53749L633.84,2396.17742L622.92,2390.77738L624.72,2380.2173L611.04,2351.29709L610.92,2351.29709L609.84,2349.01708
				L609.84,2348.89708L609.84,2348.77708L608.4,2345.29705L608.16,2344.69705L605.64,2338.457L603.84,2333.65697L603.24,2332.09695
				L600.36,2324.7769L597,2316.61684L561.84,2307.25677L531.24,2296.4567L518.76,2286.97663L513.12,2284.57661L509.64,2283.0166
				L509.52,2283.0166L507.24,2282.05659L506.64,2281.81659L503.76,2280.61658L502.08,2279.89658L482.04,2271.37651L480.84,2270.53651
				L480,2269.8165L440.88,2239.69628L435.12,2237.77627L380.88,2220.73615L377.16,2215.81611L373.2,2212.69609L369.12,2209.45606
				L365.04,2206.57604L361.44,2203.81602L358.32,2200.336L360.36,2198.41598L363.24,2196.73597L365.52,2195.53596L367.56,2194.45595
				L368.76,2194.45595L370.44,2193.61595L372.12,2192.77594L373.2,2191.81593L373.8,2191.21593L375.24,2190.61593L376.68,2189.89592
				L377.4,2188.69591L377.64,2188.45591L379.92,2185.57589L380.64,2184.49588L381.6,2183.29587L382.56,2182.33587L383.4,2181.49586
				L384.96,2180.29585L390.12,2177.89583L390.84,2177.41583L391.44,2176.57582L392.16,2175.61582L393,2174.29581L393.6,2173.0958
				L394.2,2171.53579L394.44,2170.45578L394.8,2168.89577L395.76,2166.73575L396.24,2165.17574L396.72,2164.33574L397.08,2163.49573
				L397.08,2158.9357L397.44,2157.37568L399,2154.37566L399.72,2153.29565L400.8,2152.09565L402.12,2148.97562L402.24,2147.77561
				L402.96,2146.0956L403.08,2144.77559L403.08,2143.81559L403.32,2142.61558L403.56,2141.41557L404.16,2140.57556L404.88,2139.49555
				L405.96,2138.77555L406.8,2137.57554L407.28,2136.97554L407.76,2136.25553L408.12,2135.41552L408.6,2134.21552L409.68,2132.77551
				L410.28,2131.5755L411.24,2130.37549L411.6,2129.65548L411.96,2127.97547L412.32,2127.13546L412.68,2125.81546L413.04,2125.33545
				L413.64,2124.25544L414.6,2123.41544L415.68,2122.33543L416.04,2121.73543L416.52,2121.49542L417.24,2120.65542L417.72,2120.29542
				L418.56,2118.8554L418.68,2118.3754L419.4,2117.05539L419.64,2115.85538L420.24,2114.77537L420.96,2113.45537L421.68,2112.73536
				L422.4,2112.37536L423.72,2111.29535L425.04,2110.81535L426.12,2110.45534L427.32,2109.37534L428.64,2109.13533L429.96,2108.89533
				L431.76,2107.57532L432.84,2107.09532L433.56,2106.97532L436.92,2106.97532L438.36,2107.33532L443.52,2107.33532L446.28,2106.73532
				L446.64,2106.61532L447.36,2106.37531L448.2,2105.17531L449.28,2105.0553L449.88,2104.2153L450.12,2103.8553L449.16,2103.13529
				L448.8,2102.65529L448.32,2102.41529L447.84,2102.29528L447.36,2102.29528L446.76,2102.41529L446.16,2102.17528L445.2,2101.69528
				L444.6,2101.45528L444.36,2101.45528L443.52,2100.73527L443.04,2100.25527L442.56,2099.65526L442.32,2099.29526L441.72,2098.33526
				L441.6,2097.97525L441.36,2097.37525L441,2097.01525L440.52,2096.53524L440.4,2095.69524L440.04,2095.21523L440.04,2094.97523
				L439.8,2093.53522L439.68,2092.93522L439.56,2092.69521L438.84,2090.4152L438.36,2088.97519L438,2087.29518L437.64,2086.45517
				L437.52,2085.85516L436.92,2085.25516L436.32,2084.77516L435.96,2084.53516L435.48,2084.29515L434.4,2083.45515L433.68,2083.21515
				L432.6,2082.61514L432.24,2082.37514L432,2082.13514L431.64,2081.77513L431.4,2081.41513L431.16,2081.05513L430.92,2080.57513
				L430.32,2080.33512L429.72,2079.85512L429.24,2079.49512L427.44,2078.77511L427.2,2078.77511L426.84,2078.65511L426.48,2078.53511
				L425.88,2078.41511L424.92,2078.41511L424.56,2078.29511L423.96,2077.93511L423.6,2077.93511L423.36,2077.93511L422.52,2077.69511
				L421.8,2077.2151L421.08,2076.9751L420.48,2076.7351L419.88,2076.6151L419.16,2076.7351L418.56,2076.7351L417.6,2076.4951L417.12,2076.25509
				L416.88,2076.13509L416.52,2076.13509L416.04,2076.01509L415.32,2075.65509L413.76,2075.29509L412.2,2075.53509L412.08,2075.53509
				L411.96,2075.41509L411.72,2075.29509L409.92,2075.05509L409.2,2074.93509L406.68,2075.29509L404.76,2075.29509L403.08,2074.81508
				L401.76,2073.49507L401.16,2071.81506L400.2,2069.89505L399.24,2069.05504L399,2068.81504L398.88,2068.69504L396.6,2067.61503
				L394.2,2066.41502L391.68,2064.25501L391.56,2064.13501L390.12,2061.61499L389.76,2060.65498L389.16,2058.85497L388.68,2055.61494
				L388.44,2053.69493L387.36,2051.41491L386.04,2049.4949L384.36,2048.41489L381.96,2047.21488L381.84,2047.21488L381.72,2046.97488
				L380.04,2045.65487L379.44,2044.69487L378.84,2043.85486L378,2041.81484L377.04,2039.89483L376.2,2038.81482L374.88,2037.25481
				L373.2,2035.0948L372.12,2032.93478L371.88,2032.45478L370.8,2030.53476L370.08,2029.69476L369.24,2028.49475L368.64,2027.41474
				L368.52,2027.29474L368.04,2026.33473L367.2,2024.53472L367.08,2023.57471L366.96,2022.73471L366.84,2020.69469"/>
			<path clip-path="url(#SVG_CP_1)" fill="none" stroke="#000000" stroke-width="3.96" stroke-miterlimit="10" stroke-linecap="round" stroke-linejoin="round" d="
				M366.84,2020.69469L366.6,2018.65468L366,2017.21467L366.12,2015.05465L365.76,2013.37464L363.48,2009.77461L363,2007.7346L363.36,2006.05458
				L363.96,2004.01457L363.72,2002.57456L362.88,2001.61455L361.08,2001.49455L359.04,2001.01455L357.6,2000.17454L356.16,1998.73453
				L355.2,1997.89453L354.48,1996.57452L354,1995.0145L353.16,1993.33449L352.68,1991.89448L352.56,1990.81447L353.16,1989.73447
				L353.16,1988.77446L352.32,1986.49444L352.32,1984.45443L351.84,1983.01442L351.24,1982.29441L350.04,1982.17441L348.72,1981.69441
				L347.52,1980.4944L346.8,1978.81439L347.04,1977.13437L346.8,1975.57436L345.48,1974.25435L343.44,1972.93434L341.52,1971.25433
				L340.44,1969.57432L340.32,1969.09432L339.96,1967.65431L339.84,1966.21429L339.84,1965.13429L339.6,1962.97427L339.6,1962.61427
				L339.6,1962.37427L339.84,1961.17426L340.08,1959.49425L340.56,1957.69423L340.92,1956.85423L340.92,1954.21421L340.68,1953.4942
				L340.2,1951.81419L338.88,1949.05417L338.52,1946.89415L338.88,1944.49414L339.12,1943.77413L339.36,1942.57412L339.72,1941.13411
				L341.28,1940.29411L341.64,1939.4541L342.6,1937.53409L344.04,1935.61407L346.2,1935.01407L348.84,1935.37407L352.8,1935.73407
				L356.28,1935.25407L358.68,1934.41406L360.6,1932.97405L363.24,1931.53404L364.8,1929.85403L365.76,1927.09401L367.08,1925.054
				L369.24,1923.73399L371.4,1923.37398L374.88,1924.21399L377.88,1925.534L380.52,1926.97401L382.08,1927.21401L383.16,1926.49401
				L384.24,1924.93399L382.08,1922.89398L381.48,1922.29398L380.76,1921.57397L358.08,1900.45382L340.68,1884.8537L336.24,1876.45364
				L337.2,1862.53354L338.76,1839.97338L341.88,1841.77339L350.52,1825.69327L351.12,1816.2132L343.8,1816.81321L341.64,1810.81317
				L341.04,1809.37315L340.92,1808.77315L340.8,1808.65315L340.8,1808.53315L339.84,1805.77313L339,1803.61311L338.16,1801.3331
				L336.6,1796.89306L324.48,1799.89309L320.88,1792.45303L319.68,1790.05301L315.72,1782.01296L315.24,1780.93295L314.76,1779.85294
				L314.52,1779.49294L311.76,1778.77293L305.28,1775.89291L300.24,1773.7329L296.64,1771.09288L292.68,1768.45286L292.32,1768.21286
				L292.08,1758.61279L293.4,1750.57273L291,1743.25267L288.6,1739.41265L281.76,1737.13263L281.16,1729.69258L286.2,1727.53256
				L288.24,1724.65254L283.8,1711.57244L287.88,1699.09235L269.88,1660.57207L240.24,1601.89165L240.84,1589.65156L260.88,1570.33142
				L261.12,1570.09142L272.4,1559.17134L314.88,1558.45133L315,1554.6113L315.48,1533.85115L315.84,1530.49113L315.84,1530.13112
				L317.4,1512.01099L323.04,1505.29094L350.28,1495.33087L335.52,1440.25047L351.6,1421.77034L351.6,1421.65034L351.72,1421.53034
				L355.68,1417.0903L354.84,1409.65025L343.92,1367.04994L333,1329.84967L330.84,1301.40946L328.08,1293.1294L327.96,1292.7694
				L327.84,1292.4094L322.56,1277.04928L319.56,1268.16922L324.48,1264.44919L331.44,1262.28918L342.6,1262.28918L343.2,1262.28918
				L343.56,1262.28918L347.64,1262.28918L353.04,1261.20917L355.56,1259.40916L356.76,1258.56915L358.08,1258.08915L366.48,1255.32913
				L378.24,1255.32913L381,1253.76912L383.76,1247.76907L384,1247.28907L384.24,1246.80906L384.72,1245.60906L386.52,1240.08902
				L387.48,1237.08899L388.08,1233.36897L388.2,1232.16896L388.44,1230.60895L389.4,1228.44893L390.24,1226.28892L391.2,1223.7689
				L392.4,1220.76888L391.8,1219.56887L388.44,1218.96886L387.24,1218.96886L386.04,1218.84886L385.32,1218.48886L384.48,1218.12886
				L383.88,1218.00886L383.28,1218.00886L382.92,1217.40885L383.04,1216.92885L383.16,1216.32884L383.16,1215.72884L383.52,1215.24884
				L383.64,1214.52883L383.52,1213.92883L383.04,1213.08882L382.8,1212.72882L381.96,1212.60882L381.6,1212.48882L381.12,1212.24881
				L380.76,1212.24881L379.2,1212.12881L378.72,1211.28881L378.48,1210.6888L378.36,1210.2088L378.84,1209.7288L378.96,1209.48879
				L379.2,1208.76879L379.32,1208.16878L379.32,1207.68878L379.08,1207.20878L379.08,1206.84877L379.08,1206.60877L379.56,1206.48877
				L379.32,1206.00877L379.2,1205.64877L379.92,1205.28876L380.16,1205.28876L381.72,1205.52876L382.68,1205.04876L383.16,1204.44876
				L384.12,1204.32876L384.84,1204.32876L385.44,1203.84875L385.44,1203.24875L385.92,1202.16874L386.52,1201.68874L387.24,1201.56874
				L387.96,1201.44874L388.8,1201.44874L389.52,1201.56874L390.24,1201.68874L390.84,1202.04874L391.44,1202.40874L392.04,1202.64874
				L392.88,1203.00875L393.24,1203.24875L393.36,1203.60875L393.72,1204.08875L393.84,1204.44876L393.24,1204.68876L393.48,1204.80876
				L393.84,1205.04876L393.96,1205.40876L394.2,1206.12877L394.56,1206.96878L396.48,1207.44878L397.44,1207.20878L398.04,1206.72877
				L398.76,1206.72877L399,1207.08878L400.08,1207.32878L400.44,1207.20878L400.92,1206.96878L401.16,1206.72877L401.52,1206.48877
				L402.72,1206.12877L403.08,1205.88877L405.48,1204.68876L408.36,1203.12875L410.04,1200.48873L412.92,1196.0487L414.36,1194.00868
				L418.8,1189.08865L420.72,1187.04863L420.12,1181.52859L420,1181.28859L419.88,1180.32858L420.24,1177.32856L420.36,1174.32854
				L423.36,1172.76853L425.52,1170.12851L427.32,1164.96847L429.12,1162.80845L431.88,1159.20843L432.36,1156.68841L432.48,1155.0084
				L432.48,1152.48838L434.04,1148.64835L434.64,1146.24833L434.16,1144.32832L433.2,1142.88831L433.2,1138.92828L435.12,1135.80826
				L438.72,1131.84823L441.36,1132.32823L444.24,1131.96823L448.32,1130.76822L451.92,1129.92822L455.16,1128.3682L457.92,1125.72818
				L463.32,1118.16813L467.52,1110.60807L472.44,1101.96801L477.24,1092.36794L479.52,1085.04789L480,1083.72788L480,1068.72777
				L483.12,1062.72773L486.96,1059.4877L491.04,1054.56767L491.76,1053.60766L496.56,1043.88759L498.72,1035.36753L499.32,1028.88748
				L497.64,1022.40743L501.48,1017.00739L505.8,1013.28737L507,1012.08736L512.16,1006.80732L517.56,1001.40728L522.96,999.24727
				L528.36,998.16726L539.16,997.08725L542.88,994.44723L547.68,987.96718L553.68,981.00713L562.2,974.52709L567.6,972.96707L567.84,972.72707
				L568.2,972.48707L571.56,970.20705L571.92,969.96705L576.24,966.96703L583.68,962.767L592.8,961.56699L600.6,961.56699L600.84,961.56699
				L601.08,961.56699L602.76,962.407L603.36,962.647L609.72,965.76702L620.52,971.40706L622.2,951.24692L622.2,951.00691L622.2,950.76691
				L623.16,937.80682L623.52,933.60679L624,927.96675L624.84,916.68666L625.08,914.28665L625.08,913.68664L625.56,908.64661L625.56,907.3266
				L629.28,906.48659L629.4,906.36659L629.64,906.36659L695.28,890.64648L695.64,890.52647L697.8,890.04647L701.64,883.08642L709.08,869.16632
				L709.32,868.92632L709.56,868.32631L712.08,869.04632L712.8,869.28632L715.32,870.00633L715.8,870.12633L728.28,873.84635L728.64,873.96635
				L745.44,879.00639L749.28,880.0864L749.52,880.2064L749.88,880.4464L750.12,880.5664L752.28,881.64641L752.16,881.28641L751.92,881.16641
				L750.6,880.2064L750.48,879.9664L750.6,879.36639L750.6,878.88639L750.6,878.28639L750.72,877.80638L750.84,877.32638L751.08,876.96638
				L751.2,876.12637L751.08,875.76637L750.72,874.92636L750.48,873.48635L750.24,872.16634L749.28,871.08633L749.4,870.48633L749.64,870.00633
				L749.76,869.52632L749.52,868.80632L749.76,868.20631L749.64,867.72631L749.4,867.0063L749.52,866.5263L750.12,866.4063L750.48,866.0463
				L750.84,865.44629L750.96,864.96629L751.2,864.12628L750.96,863.52628L750.84,863.04627L750.96,862.56627L750.72,862.20627L750.36,861.84627
				L749.4,861.48626L749.04,861.72627L747.72,861.96627L745.8,862.68627L744.6,863.16628L743.76,863.52628L742.92,863.40628L741.72,862.80627
				L741.6,862.56627L741.36,862.20627L741.36,862.08627L740.88,861.36626L740.64,860.88626L740.64,860.40626L740.88,859.56625L741.6,857.76624
				L742.08,855.84622L742.68,853.44621L742.8,852.6062L742.8,852.2462L741.48,851.16619L740.4,850.20618L739.92,849.12617L739.56,847.92616
				L739.68,846.96616L740.28,845.52615L741.12,844.44614L741.24,844.20614L741,843.84614L740.52,843.48613L739.92,842.88613L738.6,842.28612
				L737.4,841.68612L737.16,841.08612L737.16,840.48611L737.28,839.4061L737.04,838.5661L736.44,837.84609L735.12,837.72609L733.56,837.60609
				L732.24,837.12609L731.04,836.28608L729.6,834.24607L729.48,833.76606L729.6,833.04606L729.96,832.20605L729.96,831.72605L729.36,831.00604
				L728.4,830.04603L727.8,829.32603L727.08,829.20603L726.24,829.20603L725.4,828.96603L724.8,828.72603L724.44,828.12602L724.32,827.76602
				L724.08,827.40602L723.96,826.68601L723.96,826.20601L724.08,825.846L724.44,825.366L724.8,824.40599L725.04,820.44597L725.16,817.68595
				L724.92,816.12593L724.44,815.64593L724.08,815.16593L723.72,814.92593L723.72,814.44592L723.84,813.84592L724.2,812.40591L724.68,811.2059
				L724.92,810.60589L724.92,810.24589L724.68,808.44588L724.68,807.72587L724.8,807.24587L724.68,806.52586L724.8,806.04586L725.04,805.68586
				L726,804.96585L728.04,803.64584L728.64,802.92584L728.64,802.44583L728.4,801.84583L727.92,801.24583L727.68,800.64582L727.56,800.04582
				L727.8,799.44581L728.64,798.60581L728.76,798.1258L728.64,797.5258L728.4,796.68579L728.52,795.24578L729.12,793.44577L729.48,792.60576
				L729.48,792.36576L729,792.36576L728.52,792.60576L727.92,792.48576L727.32,791.76576L727.2,791.52575L726.6,790.92575L726.12,789.96574
				L725.64,788.88574L725.04,787.56573L725.04,786.96572L725.16,786.36572L724.92,785.40571L724.32,784.3257L723.36,783.3657L722.64,782.76569
				L719.64,780.96568L718.92,780.72568L718.56,780.60568L718.32,780.36567L717.24,779.64567L716.88,779.40567L716.28,778.92566L
				715.68,778.08566L715.32,777.12565L714.96,776.04564L714.96,775.68564L714.96,775.44564L714.24,774.24563L713.64,772.20561L712.92,770.0456
				L711.84,767.88558L711,766.92558L709.92,765.84557L709.8,765.36556L709.8,764.64556L709.56,763.80555L709.56,763.08555L710.16,762.36554
				L711.6,761.40554L712.08,760.92553L712.08,760.20553L712.08,759.84552L711.96,759.36552L711.84,758.88552L711.48,758.52551L711,758.04551
				L710.76,757.56551L710.28,756.9655L710.16,756.3655L710.16,755.8855L710.52,755.16549L711.6,754.44549L712.2,753.84548L712.56,753.24548
				L712.68,753.00547L712.68,752.64547L712.8,752.64547L712.68,752.04547L712.56,751.92547L712.32,751.56546L712.2,751.32546L712.08,750.72546
				L712.2,749.76545L712.32,749.16545L711.96,748.20544L711.72,747.12543L711.6,746.76543L711.6,745.44542L711.6,744.96542L711.6,744.48541
				L711.6,744.36541L711.12,743.88541L710.16,743.1654L709.32,742.6854L708.72,742.2054L708.48,741.60539L708.48,740.88539L708.48,740.16538
				L708.96,739.56538L709.56,738.84537L709.8,738.60537L709.92,738.36537L709.8,738.00537L709.44,737.76536L708.6,737.76536L707.76,737.64536
				L707.04,737.16536L706.56,736.68536L706.44,736.44535L706.2,736.08535L706.08,735.84535L705.72,734.40534L705.6,733.56533L705.6,732.36532
				L706.08,731.76532L706.8,731.40532L707.52,730.80531L708,730.08531L708.24,728.6453L708,727.32529L707.88,726.96529L707.76,726.60528
				L706.56,725.52528L706.08,725.04527L705.72,724.44527L705.72,723.72526L706.32,722.76525L707.16,722.04525L707.76,721.56525L
				708.24,721.32524L708.96,721.56525L709.08,721.44525L709.32,721.20524L709.44,721.20524L709.56,720.84524L709.44,720.60524L709.32,720.36524
				L708.84,720.12524L708.48,720.00523L708.12,719.40523L708,718.56522L708,717.96522L708.12,717.48522L708.12,717.24521L708.24,716.88521
				L708.6,715.92521L708.72,715.4452L708.84,715.3252L709.08,714.6052L709.32,714.00519L709.56,713.28519L709.32,712.20518L709.2,711.72517
				L709.2,711.60517L709.08,711.12517L709.08,710.52517L709.2,710.04516L709.32,709.68516L709.56,709.56516L710.04,709.32516L710.28,709.32516
				L710.4,709.20516L710.52,709.08516L710.64,708.72515L710.52,708.60515L710.52,708.48515L709.8,708.00515L707.88,707.52514L707.04,707.16514
				L706.68,706.92514L706.32,706.68514L706.08,706.44514L705.36,706.32514L705,706.08513L704.88,705.60513L704.76,704.88513L704.76,704.52512
				L704.88,704.04512L704.76,703.44511L704.76,703.20511L704.76,702.84511L704.76,702.48511L704.88,701.4051L704.88,700.9251L705.24,700.56509
				L705.72,700.08509L706.2,699.84509L706.56,699.60509L707.52,699.12508L708.12,698.52508L708.36,697.68507L708.36,696.84507L708.24,696.36506
				L708.12,696.00506L707.76,695.40506L707.52,694.68505L707.64,694.08505L707.88,692.40503L707.88,691.68503L707.64,691.08502L
				707.88,690.60502L707.88,689.88502L707.64,689.16501L707.4,688.44501L707.28,688.085L707.16,687.845L707.04,687.485L706.68,687.005
				L706.44,686.88499L705.96,686.64499L705.72,686.40499L705.72,686.16499L705.84,685.92499L706.56,685.80499L707.04,685.56498L
				707.16,685.20498L707.04,684.84498L706.56,684.48498L705.48,684.48498L705,684.24497L704.52,684.00497L704.04,683.64497L703.92,683.16497
				L704.04,682.68496L704.76,682.20496L704.88,681.84496L704.64,681.48495L704.4,681.24495L703.68,680.88495L703.08,680.16495L702.84,679.68494
				L702.6,679.32494L702.72,678.72493L702.84,678.12493L703.2,677.40493L703.32,676.80492L703.92,676.32492L704.76,675.36491L705.24,675.12491
				L705.84,674.88491L706.32,674.64491L706.68,674.5249L706.68,674.1649L706.8,673.8049L707.16,672.96489L706.92,672.72489L706.56,672.84489
				L706.08,673.20489L705.72,673.3249L705.48,673.20489L705.24,672.84489L705.36,672.48489L705.48,671.88489L705.36,671.40488L704.76,670.44487
				L704.64,669.72487L704.88,669.36487L705.96,666.72485L706.08,666.48485L707.4,663.24482L707.64,660.0048L707.64,659.7648L708.12,653.16475
				L705,640.68466L703.68,633.1246L701.88,624.96454L701.88,624.60454L701.76,624.36454L701.04,616.80448L701.04,616.56448L701.04,616.44448
				L700.56,611.76445L700.56,610.56444L700.56,610.44444L700.56,610.20444L700.56,606.84441L700.56,606.72441L700.56,606.48441L
				700.56,604.20439L701.16,595.44433L706.2,575.40418L707.4,547.80398L707.4,538.92392L706.8,531.48386L705,528.36384L695.52,523.32381
				L686.16,515.16375L672.96,503.16366L659.76,493.20359L648.48,483.12351L653.28,468.0034L658.92,469.44341L666.12,461.16335L668.04,459.00334
				L668.16,458.88334L668.28,458.76334L668.64,458.28333L677.04,437.40318L693.72,412.203L700.68,396.96289L716.04,380.16276L762.12,360.72262
				L773.28,341.16248L816.48,349.56254L825.72,351.96256L837.36,355.08258L844.08,354.48258L854.28,351.24255L858.48,349.32254L
				865.2,345.12251L867.96,342.84249L870.72,340.56248L872.52,339.24247L873.6,338.28246L874.92,336.72245L875.64,336.12244L876.96,335.16244
				L877.8,334.80243L879.6,333.96243L881.04,332.88242L882.72,332.16242L884.64,330.2424L887.16,327.72238L891,325.92237L892.32,324.84236
				L892.8,324.48236L893.64,324.60236L894.72,324.60236L895.56,324.12236L896.16,323.64235L896.88,322.80235L898.32,322.56235L908.16,319.68232
				L911.52,317.88231L912.72,316.2023L913.92,313.32228L916.44,310.44226L918.6,309.72225L923.52,308.64224L927.6,308.16224L932.88,306.96223
				L937.44,305.64222L942.12,304.68222L944.76,304.44221L947.16,304.80222L949.92,305.28222L952.56,305.64222L955.32,306.48223L
				957.48,307.44224L958.32,307.80224L958.8,307.92224L959.4,308.16224L960.12,308.64224L962.04,309.24225L964.32,309.84225L966.36,310.08225
				L968.52,310.32226L969.72,310.32226L970.92,310.08225L972,309.48225L972.84,309.24225L974.88,308.76225L976.56,308.52224L977.88,307.92224
				L980.04,307.68224L981.6,307.80224L983.52,308.04224L984.48,308.16224L985.32,308.16224L985.92,307.80224L986.52,307.32223L987.24,307.08223
				L988.92,307.20223L990.48,307.32223L991.44,306.96223L992.28,306.48223L992.76,306.48223L993.6,306.60223L994.44,306.84223L995.52,306.84223
				L996.48,307.08223L997.32,307.44224L998.28,307.80224L999.36,307.80224L999.96,307.80224L1001.04,308.28224L1002.24,308.28224
				L1003.56,307.92224L1004.76,307.68224L1005.6,307.68224L1006.56,308.16224L1007.76,308.76225L1009.2,308.76225L1012.44,307.56224
				L1015.92,307.08223L1017.48,307.44224L1018.44,307.80224L1019.16,308.64224L1020.12,308.88225L1020,307.80224L1019.88,307.20223
				L1020,305.64222L1020.24,304.56221L1021.32,302.4022L1021.92,300.36218L1022.52,298.56217L1023.24,297.24216L1024.44,296.04215
				L1026,295.20215L1027.2,293.76214L1027.32,293.04213L1027.32,292.56213L1027.92,291.48212L1028.4,290.16211L1029,288.4821L1030.92,286.32208
				L1031.88,284.16207L1031.88,281.88205L1031.52,281.04204L1031.28,280.56204L1031.52,279.96204L1031.88,279.48203L1032.48,278.52203
				L1032.96,277.32202L1032.96,276.24201L1032.84,275.042L1032.84,274.562L1032.6,272.52198L1032.84,271.68198L1033.32,270.12196
				L1034.52,268.32195L1035.36,267.12194L1036.56,265.08193L1038.96,263.28191L1039.92,261.6019L1040.16,260.04189L1040.4,259.20188
				L1040.4,258.84188L1040.76,258.00188L1041.12,257.04187L1041.84,256.08186L1042.68,255.72186L1045.2,254.64185L1046.64,253.44184
				L1047,252.48184L1047.12,251.64183L1046.88,250.80182L1046.16,249.96182L1046.04,249.12181L1045.92,248.64181L1046.16,246.36179
				L1046.52,244.44178L1047,243.84177L1047.6,243.24177L1048.08,243.00177L1048.68,242.64176L1049.88,241.32175L1050.96,239.88174
				L1051.32,239.40174L1052.88,237.48173L1053.72,235.44171L1053.96,235.20171L1054.92,234.72171L1055.64,234.0017L1057.2,231.48168
				L1058.4,229.68167L1059.48,228.72166L1060.92,228.00166L1065.72,226.08164L1066.8,226.08164L1068.24,226.44165L1069.2,226.44165
				L1070.88,225.96164L1072.32,225.00164L1072.56,224.40163L1072.56,223.08162L1073.4,221.52161L1074.36,220.5616L1075.8,219.8416
				L1077.24,219.4816L1077.96,218.40159L1078.44,216.96158L1078.68,215.64157L1079.64,214.44156L1081.44,213.24155L1083.36,211.32154
				L1084.2,209.28152L1085.52,207.96151L1087.44,206.7615L1088.64,205.44149L1089.36,204.12148L1089.48,203.04148L1089.24,201.84147
				L1089.36,200.04145L1089.96,196.68143L1090.08,194.04141L1091.76,190.20138L1092.84,186.36136L1093.32,183.84134L1094.4,180.84132
				L1094.28,179.76131L1094.16,178.8013L1094.4,177.24129L1095,175.44128L1095.72,174.24127L1097.28,172.68126L1099.8,171.00124
				L1101.96,170.40124L1104.6,169.92124L1106.64,170.04124L1107.6,170.64124L1109.52,171.96125L1111.44,174.12127L1112.16,175.20127
				L1113.6,176.04128L1115.4,176.88129L1116.24,177.24129L1116.72,178.5613L1117.44,179.4013L1119.24,179.64131L1120.68,179.88131
				L1120.92,179.76131L1122,178.6813L1123.32,177.24129L1123.8,176.64128L1126.2,173.88126L1128.84,171.00124L1130.52,170.04124
				L1131.84,169.32123L1153.92,157.08114L1174.8,169.68123"/>
		</g>
		<g id="sattlements">
			<path clip-path="url(#SVG_CP_1)" fill="#FF0000" fill-rule="evenodd" stroke="#000000" stroke-width="0.96" stroke-miterlimit="10" stroke-linecap="round" stroke-linejoin="round" d="
				M626.28,1728.07256C626.28,1722.53863,621.79389,1718.05249,616.26,1718.05249C610.72611,1718.05249,606.24,1722.53863,606.24,1728.07256
				C606.24,1733.6065,610.72611,1738.09264,616.26,1738.09264C621.79389,1738.09264,626.28,1733.6065,626.28,1728.07256z"/>
			<path clip-path="url(#SVG_CP_1)" fill="#FF0000" fill-rule="evenodd" stroke="#000000" stroke-width="0.96" stroke-miterlimit="10" stroke-linecap="round" stroke-linejoin="round" d="
				M839.28,1582.57151C839.28,1577.07071,834.82076,1572.61143,829.32,1572.61143C823.81924,1572.61143,819.36,1577.07071,819.36,1582.57151
				C819.36,1588.0723,823.81924,1592.53158,829.32,1592.53158C834.82076,1592.53158,839.28,1588.0723,839.28,1582.57151z"/>
			<path clip-path="url(#SVG_CP_1)" fill="#FF0000" fill-rule="evenodd" stroke="#000000" stroke-width="0.96" stroke-miterlimit="10" stroke-linecap="round" stroke-linejoin="round" d="
				M1137.84,1437.97045C1137.84,1432.46966,1133.35389,1428.01038,1127.82,1428.01038C1122.28611,1428.01038,1117.8,1432.46966,
				1117.8,1437.97045C1117.8,1443.47125,1122.28611,1447.93053,1127.82,1447.93053C1133.35389,1447.93053,1137.84,1443.47125,1137.84,1437.97045
				z"/>
			<path clip-path="url(#SVG_CP_1)" fill="#FF0000" fill-rule="evenodd" stroke="#000000" stroke-width="0.96" stroke-miterlimit="10" stroke-linecap="round" stroke-linejoin="round" d="
				M1101.84,1326.18964C1101.84,1320.65571,1097.35389,1316.16957,1091.82,1316.16957C1086.28611,1316.16957,1081.8,1320.65571,
				1081.8,1326.18964C1081.8,1331.72358,1086.28611,1336.20971,1091.82,1336.20971C1097.35389,1336.20971,1101.84,1331.72358,1101.84,1326.18964
				z"/>
			<path clip-path="url(#SVG_CP_1)" fill="#FF0000" fill-rule="evenodd" stroke="#000000" stroke-width="0.96" stroke-miterlimit="10" stroke-linecap="round" stroke-linejoin="round" d="
				M632.16,1763.71282C632.16,1758.17889,627.67389,1753.69275,622.14,1753.69275C616.60611,1753.69275,612.12,1758.17889,612.12,1763.71282
				C612.12,1769.24676,616.60611,1773.7329,622.14,1773.7329C627.67389,1773.7329,632.16,1769.24676,632.16,1763.71282z"/>
			<path clip-path="url(#SVG_CP_1)" fill="#FF0000" fill-rule="evenodd" stroke="#000000" stroke-width="0.96" stroke-miterlimit="10" stroke-linecap="round" stroke-linejoin="round" d="
				M1573.56,2568.67867C1573.56,2563.14474,1569.07389,2558.6586,1563.54,2558.6586C1558.00611,2558.6586,1553.52,2563.14474,1553.52,2568.67867
				C1553.52,2574.21261,1558.00611,2578.69875,1563.54,2578.69875C1569.07389,2578.69875,1573.56,2574.21261,1573.56,2568.67867
				z"/>
			<path clip-path="url(#SVG_CP_1)" fill="#FF0000" fill-rule="evenodd" stroke="#000000" stroke-width="0.96" stroke-miterlimit="10" stroke-linecap="round" stroke-linejoin="round" d="
				M1415.4,1798.27307C1415.4,1792.73914,1410.94076,1788.253,1405.44,1788.253C1399.93924,1788.253,1395.48,1792.73914,1395.48,1798.27307
				C1395.48,1803.80701,1399.93924,1808.29315,1405.44,1808.29315C1410.94076,1808.29315,1415.4,1803.80701,1415.4,1798.27307z"/>
			<path clip-path="url(#SVG_CP_1)" fill="#FF0000" fill-rule="evenodd" stroke="#000000" stroke-width="0.96" stroke-miterlimit="10" stroke-linecap="round" stroke-linejoin="round" d="
				M1390.2,2464.75792C1390.2,2459.22399,1385.74076,2454.73785,1380.24,2454.73785C1374.73924,2454.73785,1370.28,2459.22399,1370.28,2464.75792
				C1370.28,2470.29185,1374.73924,2474.77799,1380.24,2474.77799C1385.74076,2474.77799,1390.2,2470.29185,1390.2,2464.75792z"/>
			<path clip-path="url(#SVG_CP_1)" fill="#FF0000" fill-rule="evenodd" stroke="#000000" stroke-width="0.96" stroke-miterlimit="10" stroke-linecap="round" stroke-linejoin="round" d="
				M995.4,1224.2489C995.4,1218.7481,990.94076,1214.28883,985.44,1214.28883C979.93924,1214.28883,975.48,1218.7481,975.48,1224.2489
				C975.48,1229.7497,979.93924,1234.20897,985.44,1234.20897C990.94076,1234.20897,995.4,1229.7497,995.4,1224.2489z"/>
			<path clip-path="url(#SVG_CP_1)" fill="#FF0000" fill-rule="evenodd" stroke="#000000" stroke-width="0.96" stroke-miterlimit="10" stroke-linecap="round" stroke-linejoin="round" d="
				M1086.6,1868.83359C1086.6,1863.29965,1082.11389,1858.81351,1076.58,1858.81351C1071.04611,1858.81351,1066.56,1863.29965,1066.56,1868.83359
				C1066.56,1874.36752,1071.04611,1878.85366,1076.58,1878.85366C1082.11389,1878.85366,1086.6,1874.36752,1086.6,1868.83359z"/>
		</g>
		<g id="sattlements1">
			<path clip-path="url(#SVG_CP_1)" fill="#FF0000" fill-rule="evenodd" stroke="#000000" stroke-width="0.96" stroke-miterlimit="10" stroke-linecap="round" stroke-linejoin="round" d="
				M423,1747.75271C423,1742.21877,418.51389,1737.73263,412.98,1737.73263C407.44611,1737.73263,402.96,1742.21877,402.96,1747.75271
				C402.96,1753.28664,407.44611,1757.77278,412.98,1757.77278C418.51389,1757.77278,423,1753.28664,423,1747.75271z"/>
			<path clip-path="url(#SVG_CP_1)" fill="#FF0000" fill-rule="evenodd" stroke="#000000" stroke-width="0.96" stroke-miterlimit="10" stroke-linecap="round" stroke-linejoin="round" d="
				M1807.2,2486.29808C1807.2,2480.79728,1802.71389,2476.338,1797.18,2476.338C1791.64611,2476.338,1787.16,2480.79728,1787.16,2486.29808
				C1787.16,2491.79887,1791.64611,2496.25815,1797.18,2496.25815C1802.71389,2496.25815,1807.2,2491.79887,1807.2,2486.29808z"/>
			<path clip-path="url(#SVG_CP_1)" fill="#FF0000" fill-rule="evenodd" stroke="#000000" stroke-width="0.96" stroke-miterlimit="10" stroke-linecap="round" stroke-linejoin="round" d="
				M1860.24,2559.25861C1860.24,2553.75781,1855.78076,2549.29853,1850.28,2549.29853C1844.77924,2549.29853,1840.32,2553.75781
				,1840.32,2559.25861C1840.32,2564.7594,1844.77924,2569.21868,1850.28,2569.21868C1855.78076,2569.21868,1860.24,2564.7594,1860.24,2559.25861
				z"/>
			<path clip-path="url(#SVG_CP_1)" fill="#FF0000" fill-rule="evenodd" stroke="#000000" stroke-width="0.96" stroke-miterlimit="10" stroke-linecap="round" stroke-linejoin="round" d="
				M516.36,1815.7932C516.36,1810.25927,511.90076,1805.77313,506.4,1805.77313C500.89924,1805.77313,496.44,1810.25927,496.44,1815.7932
				C496.44,1821.32713,500.89924,1825.81327,506.4,1825.81327C511.90076,1825.81327,516.36,1821.32713,516.36,1815.7932z"/>
		</g>
		<g id="_Default_">
			<g font-family="'Sylfaen'" font-size="1" kerning="0" font-weight="700" fill="#000000" clip-path="url(#SVG_CP_1)" >
				<text text-anchor="start" transform="matrix(70.92 0 0 70.92036 638.28 1806.61313)" >
					<tspan direction="ltr" unicode-bidi="embed" x="0 "></tspan>
					<tspan direction="ltr" unicode-bidi="embed" x="0.52404 "></tspan>
					<tspan direction="ltr" unicode-bidi="embed" x="1.25963 "></tspan>
					<tspan direction="ltr" unicode-bidi="embed" x="2.19954 "></tspan>
				</text>
			</g>
		</g>
		<g id="sattlements_Anno_6">
			<g font-family="'Sylfaen'" font-size="1" kerning="0" font-weight="700" fill="#000000" clip-path="url(#SVG_CP_1)" >
				<text text-anchor="start" transform="matrix(49.92 0 0 49.92036 367.14 1643.29195)" >
					<tspan direction="ltr" unicode-bidi="embed" x="0 "></tspan>
					<tspan direction="ltr" unicode-bidi="embed" x="0.72597 "></tspan>
					<tspan direction="ltr" unicode-bidi="embed" x="1.18991 "></tspan>
					<tspan direction="ltr" unicode-bidi="embed" x="1.6779 "></tspan>
				</text>
			</g>
			<g font-family="'Sylfaen'" font-size="1" kerning="0" font-weight="700" fill="#000000" clip-path="url(#SVG_CP_1)" >
				<text text-anchor="start" transform="matrix(49.92 0 0 49.92036 302.1 1714.93247)" >
					<tspan direction="ltr" unicode-bidi="embed" x="0 "></tspan>
					<tspan direction="ltr" unicode-bidi="embed" x="0.48318 "></tspan>
					<tspan direction="ltr" unicode-bidi="embed" x="0.90145 "></tspan>
					<tspan direction="ltr" unicode-bidi="embed" x="1.40386 "></tspan>
					<tspan direction="ltr" unicode-bidi="embed" x="2.34377 "></tspan>
					<tspan direction="ltr" unicode-bidi="embed" x="3.03848 "></tspan>
					<tspan direction="ltr" unicode-bidi="embed" x="3.52406 "></tspan>
					<tspan direction="ltr" unicode-bidi="embed" x="3.94234 "></tspan>
					<tspan direction="ltr" unicode-bidi="embed" x="4.42792 "></tspan>
				</text>
			</g>
			<g font-family="'Sylfaen'" font-size="1" kerning="0" font-weight="700" fill="#000000" clip-path="url(#SVG_CP_1)" >
				<text text-anchor="start" transform="matrix(49.92 0 0 49.92036 1801.8 2390.89738)" >
					<tspan direction="ltr" unicode-bidi="embed" x="0 "></tspan>
					<tspan direction="ltr" unicode-bidi="embed" x="0.44712 "></tspan>
					<tspan direction="ltr" unicode-bidi="embed" x="0.9303 "></tspan>
					<tspan direction="ltr" unicode-bidi="embed" x="1.39665 "></tspan>
					<tspan direction="ltr" unicode-bidi="embed" x="2.22838 "></tspan>
				</text>
			</g>
			<g font-family="'Sylfaen'" font-size="1" kerning="0" font-weight="700" fill="#000000" clip-path="url(#SVG_CP_1)" >
				<text text-anchor="start" transform="matrix(49.92 0 0 49.92036 1801.8 2464.45792)" >
					<tspan direction="ltr" unicode-bidi="embed" x="0 "></tspan>
					<tspan direction="ltr" unicode-bidi="embed" x="0.8077 "></tspan>
					<tspan direction="ltr" unicode-bidi="embed" x="1.33414 "></tspan>
					<tspan direction="ltr" unicode-bidi="embed" x="1.88223 "></tspan>
					<tspan direction="ltr" unicode-bidi="embed" x="2.82214 "></tspan>
					<tspan direction="ltr" unicode-bidi="embed" x="3.30772 "></tspan>
					<tspan direction="ltr" unicode-bidi="embed" x="3.72599 "></tspan>
					<tspan direction="ltr" unicode-bidi="embed" x="4.21397 "></tspan>
				</text>
			</g>
			<g font-family="'Sylfaen'" font-size="1" kerning="0" font-weight="700" fill="#000000" clip-path="url(#SVG_CP_1)" >
				<text text-anchor="start" transform="matrix(49.92 0 0 49.92036 1858.32 2612.65899)" >
					<tspan direction="ltr" unicode-bidi="embed" x="0 "></tspan>
					<tspan direction="ltr" unicode-bidi="embed" x="0.72597 "></tspan>
					<tspan direction="ltr" unicode-bidi="embed" x="1.18991 "></tspan>
					<tspan direction="ltr" unicode-bidi="embed" x="2.02165 "></tspan>
				</text>
			</g>
			<g font-family="'Sylfaen'" font-size="1" kerning="0" font-weight="700" fill="#000000" clip-path="url(#SVG_CP_1)" >
				<text text-anchor="start" transform="matrix(49.92 0 0 49.92036 1858.32 2678.53947)" >
					<tspan direction="ltr" unicode-bidi="embed" x="0 "></tspan>
					<tspan direction="ltr" unicode-bidi="embed" x="0.8077 "></tspan>
					<tspan direction="ltr" unicode-bidi="embed" x="1.33414 "></tspan>
					<tspan direction="ltr" unicode-bidi="embed" x="1.88223 "></tspan>
					<tspan direction="ltr" unicode-bidi="embed" x="2.82214 "></tspan>
					<tspan direction="ltr" unicode-bidi="embed" x="3.30772 "></tspan>
					<tspan direction="ltr" unicode-bidi="embed" x="3.72599 "></tspan>
					<tspan direction="ltr" unicode-bidi="embed" x="4.21397 "></tspan>
				</text>
			</g>
			<g font-family="'Sylfaen'" font-size="1" kerning="0" font-weight="700" fill="#000000" clip-path="url(#SVG_CP_1)" >
				<text text-anchor="start" transform="matrix(49.92 0 0 49.92036 438.36 1872.97362)" >
					<tspan direction="ltr" unicode-bidi="embed" x="0 "></tspan>
					<tspan direction="ltr" unicode-bidi="embed" x="0.44712 "></tspan>
					<tspan direction="ltr" unicode-bidi="embed" x="0.9303 "></tspan>
					<tspan direction="ltr" unicode-bidi="embed" x="1.39665 "></tspan>
					<tspan direction="ltr" unicode-bidi="embed" x="1.88223 "></tspan>
				</text>
			</g>
			<g font-family="'Sylfaen'" font-size="1" kerning="0" font-weight="700" fill="#000000" clip-path="url(#SVG_CP_1)" >
				<text text-anchor="start" transform="matrix(49.92 0 0 49.92036 438.36 1944.61414)" >
					<tspan direction="ltr" unicode-bidi="embed" x="0 "></tspan>
					<tspan direction="ltr" unicode-bidi="embed" x="0.48318 "></tspan>
					<tspan direction="ltr" unicode-bidi="embed" x="0.90145 "></tspan>
					<tspan direction="ltr" unicode-bidi="embed" x="1.40386 "></tspan>
					<tspan direction="ltr" unicode-bidi="embed" x="2.34377 "></tspan>
					<tspan direction="ltr" unicode-bidi="embed" x="3.03848 "></tspan>
					<tspan direction="ltr" unicode-bidi="embed" x="3.52406 "></tspan>
					<tspan direction="ltr" unicode-bidi="embed" x="3.94234 "></tspan>
					<tspan direction="ltr" unicode-bidi="embed" x="4.42792 "></tspan>
				</text>
			</g>
		</g>
		<g id="sattlements_Anno_7">
			<g font-family="'Sylfaen'" font-size="1" kerning="0" font-weight="700" fill="#000000" clip-path="url(#SVG_CP_1)" >
				<text text-anchor="start" transform="matrix(49.92 0 0 49.92036 616.32 1702.21238)" >
					<tspan direction="ltr" unicode-bidi="embed" x="0 "></tspan>
					<tspan direction="ltr" unicode-bidi="embed" x="0.82933 "></tspan>
					<tspan direction="ltr" unicode-bidi="embed" x="1.29568 "></tspan>
					<tspan direction="ltr" unicode-bidi="embed" x="1.75001 "></tspan>
					<tspan direction="ltr" unicode-bidi="embed" x="2.16829 "></tspan>
					<tspan direction="ltr" unicode-bidi="embed" x="2.65387 "></tspan>
					<tspan direction="ltr" unicode-bidi="embed" x="3.07454 "></tspan>
					<tspan direction="ltr" unicode-bidi="embed" x="3.57455 "></tspan>
					<tspan direction="ltr" unicode-bidi="embed" x="4.06013 "></tspan>
					<tspan direction="ltr" unicode-bidi="embed" x="4.60821 "></tspan>
					<tspan direction="ltr" unicode-bidi="embed" x="5.54812 "></tspan>
					<tspan direction="ltr" unicode-bidi="embed" x="6.01447 "></tspan>
					<tspan direction="ltr" unicode-bidi="embed" x="6.52168 "></tspan>
				</text>
			</g>
			<g font-family="'Sylfaen'" font-size="1" kerning="0" font-weight="700" fill="#000000" clip-path="url(#SVG_CP_1)" >
				<text text-anchor="start" transform="matrix(49.92 0 0 49.92036 829.44 1556.77132)" >
					<tspan direction="ltr" unicode-bidi="embed" x="0 "></tspan>
					<tspan direction="ltr" unicode-bidi="embed" x="0.82933 "></tspan>
					<tspan direction="ltr" unicode-bidi="embed" x="1.37982 "></tspan>
					<tspan direction="ltr" unicode-bidi="embed" x="2.21156 "></tspan>
					<tspan direction="ltr" unicode-bidi="embed" x="2.62983 "></tspan>
					<tspan direction="ltr" unicode-bidi="embed" x="3.16589 "></tspan>
					<tspan direction="ltr" unicode-bidi="embed" x="3.58416 "></tspan>
					<tspan direction="ltr" unicode-bidi="embed" x="4.26686 "></tspan>
				</text>
			</g>
			<g font-family="'Sylfaen'" font-size="1" kerning="0" font-weight="700" fill="#000000" clip-path="url(#SVG_CP_1)" >
				<text text-anchor="start" transform="matrix(49.92 0 0 49.92036 1127.88 1426.57037)" >
					<tspan direction="ltr" unicode-bidi="embed" x="0 "></tspan>
					<tspan direction="ltr" unicode-bidi="embed" x="0.48558 "></tspan>
					<tspan direction="ltr" unicode-bidi="embed" x="0.90385 "></tspan>
					<tspan direction="ltr" unicode-bidi="embed" x="1.47838 "></tspan>
					<tspan direction="ltr" unicode-bidi="embed" x="2.02646 "></tspan>
					<tspan direction="ltr" unicode-bidi="embed" x="2.5529 "></tspan>
					<tspan direction="ltr" unicode-bidi="embed" x="3.28849 "></tspan>
					<tspan direction="ltr" unicode-bidi="embed" x="3.97118 "></tspan>
				</text>
			</g>
			<g font-family="'Sylfaen'" font-size="1" kerning="0" font-weight="700" fill="#000000" clip-path="url(#SVG_CP_1)" >
				<text text-anchor="start" transform="matrix(49.92 0 0 49.92036 1091.88 1314.72956)" >
					<tspan direction="ltr" unicode-bidi="embed" x="0 "></tspan>
					<tspan direction="ltr" unicode-bidi="embed" x="0.41827 "></tspan>
					<tspan direction="ltr" unicode-bidi="embed" x="0.9327 "></tspan>
					<tspan direction="ltr" unicode-bidi="embed" x="1.35097 "></tspan>
					<tspan direction="ltr" unicode-bidi="embed" x="2.03367 "></tspan>
				</text>
			</g>
			<g font-family="'Sylfaen'" font-size="1" kerning="0" font-weight="700" fill="#000000" clip-path="url(#SVG_CP_1)" >
				<text text-anchor="start" transform="matrix(49.92 0 0 49.92036 1559.64 2553.25856)" >
					<tspan direction="ltr" unicode-bidi="embed" x="0 "></tspan>
					<tspan direction="ltr" unicode-bidi="embed" x="0.52404 "></tspan>
					<tspan direction="ltr" unicode-bidi="embed" x="1.07212 "></tspan>
					<tspan direction="ltr" unicode-bidi="embed" x="1.59857 "></tspan>
					<tspan direction="ltr" unicode-bidi="embed" x="2.01684 "></tspan>
					<tspan direction="ltr" unicode-bidi="embed" x="2.50242 "></tspan>
					<tspan direction="ltr" unicode-bidi="embed" x="3.05291 "></tspan>
					<tspan direction="ltr" unicode-bidi="embed" x="3.7332 "></tspan>
				</text>
			</g>
			<g font-family="'Sylfaen'" font-size="1" kerning="0" font-weight="700" fill="#000000" clip-path="url(#SVG_CP_1)" >
				<text text-anchor="start" transform="matrix(49.92 0 0 49.92036 1405.68 1786.81299)" >
					<tspan direction="ltr" unicode-bidi="embed" x="0 "></tspan>
					<tspan direction="ltr" unicode-bidi="embed" x="0.68029 "></tspan>
					<tspan direction="ltr" unicode-bidi="embed" x="1.23078 "></tspan>
					<tspan direction="ltr" unicode-bidi="embed" x="1.69232 "></tspan>
					<tspan direction="ltr" unicode-bidi="embed" x="2.15867 "></tspan>
					<tspan direction="ltr" unicode-bidi="embed" x="2.96877 "></tspan>
				</text>
			</g>
			<g font-family="'Sylfaen'" font-size="1" kerning="0" font-weight="700" fill="#000000" clip-path="url(#SVG_CP_1)" >
				<text text-anchor="start" transform="matrix(49.92 0 0 49.92036 1052.46 2450.65782)" >
					<tspan direction="ltr" unicode-bidi="embed" x="0 "></tspan>
					<tspan direction="ltr" unicode-bidi="embed" x="0.6827 "></tspan>
					<tspan direction="ltr" unicode-bidi="embed" x="1.41828 "></tspan>
					<tspan direction="ltr" unicode-bidi="embed" x="1.92069 "></tspan>
					<tspan direction="ltr" unicode-bidi="embed" x="2.60098 "></tspan>
					<tspan direction="ltr" unicode-bidi="embed" x="3.33897 "></tspan>
					<tspan direction="ltr" unicode-bidi="embed" x="3.79089 "></tspan>
					<tspan direction="ltr" unicode-bidi="embed" x="4.20917 "></tspan>
					<tspan direction="ltr" unicode-bidi="embed" x="4.94715 "></tspan>
					<tspan direction="ltr" unicode-bidi="embed" x="5.88706 "></tspan>
				</text>
			</g>
			<g font-family="'Sylfaen'" font-size="1" kerning="0" font-weight="700" fill="#000000" clip-path="url(#SVG_CP_1)" >
				<text text-anchor="start" transform="matrix(49.92 0 0 49.92036 985.56 1202.28874)" >
					<tspan direction="ltr" unicode-bidi="embed" x="0 "></tspan>
					<tspan direction="ltr" unicode-bidi="embed" x="0.67308 "></tspan>
					<tspan direction="ltr" unicode-bidi="embed" x="1.3678 "></tspan>
					<tspan direction="ltr" unicode-bidi="embed" x="2.0505 "></tspan>
					<tspan direction="ltr" unicode-bidi="embed" x="2.77887 "></tspan>
					<tspan direction="ltr" unicode-bidi="embed" x="3.47358 "></tspan>
					<tspan direction="ltr" unicode-bidi="embed" x="3.95916 "></tspan>
				</text>
			</g>
			<g font-family="'Sylfaen'" font-size="1" kerning="0" font-weight="700" fill="#000000" clip-path="url(#SVG_CP_1)" >
				<text text-anchor="start" transform="matrix(49.92 0 0 49.92036 1076.64 1842.9734)" >
					<tspan direction="ltr" unicode-bidi="embed" x="0 "></tspan>
					<tspan direction="ltr" unicode-bidi="embed" x="0.82933 "></tspan>
					<tspan direction="ltr" unicode-bidi="embed" x="1.37982 "></tspan>
					<tspan direction="ltr" unicode-bidi="embed" x="2.07453 "></tspan>
					<tspan direction="ltr" unicode-bidi="embed" x="2.52887 "></tspan>
					<tspan direction="ltr" unicode-bidi="embed" x="3.01445 "></tspan>
					<tspan direction="ltr" unicode-bidi="embed" x="3.56493 "></tspan>
					<tspan direction="ltr" unicode-bidi="embed" x="4.05051 "></tspan>
				</text>
			</g>
		</g>
	</g>
</svg>
