<?xml version="1.0" encoding="utf-8" standalone="no"?>
<!-- Creator: Esri ArcMap 10.9.1.28388 -->
<!DOCTYPE svg PUBLIC "-//W3C//DTD SVG 1.1//EN"  "http://www.w3.org/Graphics/SVG/1.1/DTD/svg11.dtd">
<svg width="3456pt" height="2592pt" viewBox="0 0 3456 2592" enable-background="new 0 0 3456 2592"
	version="1.1" xmlns="http://www.w3.org/2000/svg" xmlns:xlink="http://www.w3.org/1999/xlink" >
	<g id="Layers">
		<g id="municipal">
			<path clip-path="url(#SVG_CP_1)" fill="#ce8d34" fill-rule="evenodd" stroke="none" d="M2232.10708,220.32033L2263.4269,222.84033
				L2331.7065,216.72032L2331.8265,216.72032L2331.9465,216.60032L2343.70643,215.64032L2416.66601,215.64032L2445.94584,213.72032
				L2453.74579,213.24032L2460.82575,212.88032L2469.5857,212.28032L2475.10567,211.92032L2498.14554,210.48031L2500.18553,210.36031
				L2517.22543,209.28031L2517.46543,209.28031L2533.42533,208.32031L2596.66497,225.84034L2596.78497,225.84034L2597.02496,225.96034
				L2664.82457,244.80037L2707.30433,244.80037L2715.10428,244.80037L2715.22428,244.80037L2715.46428,244.80037L2733.10418,244.80037
				L2733.34418,244.80037L2734.30417,244.80037L2745.10411,244.80037L2745.4641,244.80037L2746.3041,244.80037L2759.74402,244.80037
				L2770.78396,250.32037L2771.86395,250.80037L2780.1439,255.00038L2780.9839,255.36038L2793.94382,261.84039L2794.90382,262.32039
				L2795.86381,262.80039L2810.02373,269.8804L2811.46372,270.6004L2813.02371,271.44041L2813.26371,271.56041L2813.86371,271.80041
				L2818.18368,273.96041L2872.66337,273.96041L2873.02337,273.96041L2898.46322,273.96041L2984.14272,273.96041L3017.62253,273.96041
				L3028.54247,273.96041L3036.82242,273.96041L3037.18242,273.96041L3066.34225,281.28042L3074.2622,283.32042L3075.82219,283.68042
				L3098.98206,289.56043L3100.18205,289.92043L3119.98194,294.96044L3116.62196,308.16046L3115.06197,313.92047L3111.58199,327.12049
				L3111.46199,327.72049L3110.50199,331.08049L3104.50203,346.68052L3098.98206,361.32054L3098.50206,362.64054L3096.34207,368.64055
				L3091.5421,383.28057L3087.46212,395.52059L3086.02213,400.0806L3085.06214,401.0406L3084.46214,401.7606L3070.90222,417.36062
				L3069.94223,418.32062L3068.74223,419.52063L3028.06247,462.00069L3038.02241,465.48069L3050.98234,469.4407L3059.74229,470.7607
				L3070.06223,472.2007L3075.58219,470.4007L3079.90217,469.8007L3084.94214,471.1207L3089.26211,474.60071L3089.74211,474.96071
				L3089.86211,475.08071L3092.62209,474.36071L3093.70209,474.72071L3094.30209,475.44071L3095.14208,476.64071L3095.86208,477.00071
				L3097.18207,478.32071L3099.10206,479.52072L3100.78205,479.88072L3101.74204,480.48072L3102.70204,481.20072L3103.66203,481.68072
				L3106.30202,481.56072L3107.02201,481.08072L3107.62201,480.96072L3108.222,481.20072L3109.062,482.40072L3110.74199,483.96072
				L3112.78198,485.64072L3114.58197,487.80073L3119.50194,490.68073L3121.18193,492.12073L3121.90193,493.08074L3135.94184,504.48075
				L3145.54179,514.08077L3154.06174,522.72078L3159.94171,531.36079L3162.70169,537.7208L3170.86164,551.64082L3185.14156,576.60086
				L3185.38156,576.72086L3187.66154,580.92087L3194.14151,595.20089L3196.30149,603.7209L3196.1815,611.64091L3200.38147,621.00093
				L3200.86147,622.44093L3201.22147,623.16093L3204.70145,633.36095L3206.02144,639.00095L3206.62143,645.00096L3206.86143,651.60097
				L3203.38145,663.84099L3203.62145,668.761L3207.22143,674.64101L3216.22138,680.04101L3218.02137,684.24102L3218.14137,685.92102
				L3218.62137,693.00103L3218.74136,706.08105L3218.02137,720.36107L3215.74138,737.6411L3215.62138,740.0411L3215.26138,742.44111
				L3214.06139,745.80111L3212.9814,748.68112L3212.9814,750.84112L3211.30141,756.48113L3211.54141,758.76113L3212.2614,758.64113
				L3213.2214,761.88114L3213.2214,762.36114L3213.2214,763.56114L3213.2214,764.04114L3213.1014,766.20114L3213.1014,766.44114
				L3212.9814,769.92115L3212.9814,770.64115L3212.8614,771.60115L3212.8614,774.24116L3212.6214,778.68116L3212.6214,779.52116
				L3213.94139,779.76116L3217.18137,779.88116L3220.90135,780.24116L3223.90133,780.96117L3231.34129,781.68117L3232.18129,782.88117
				L3233.74128,783.72117L3234.34127,788.04118L3236.62126,791.16118L3246.9412,798.48119L3252.34117,801.8412L3257.50114,808.44121
				L3263.8611,812.28121L3264.3411,812.76121L3264.5811,812.88121L3264.7011,813.12121L3268.78108,817.08122L3271.06106,819.72122
				L3275.62104,821.88123L3278.62102,823.80123L3279.34101,823.92123L3282.101,824.40123L3286.42097,826.20123L3290.50095,828.48124
				L3294.70093,830.76124L3295.18092,831.00124L3298.9009,833.16124L3297.70091,835.80125L3296.26092,843.24126L3295.06092,851.40127
				L3293.38093,858.60128L3292.18094,867.60129L3290.98095,878.52131L3289.78095,887.04132L3288.10096,896.76134L3286.54097,904.80135
				L3285.58098,912.72136L3284.74098,924.24138L3284.14099,930.36139L3283.30099,944.64141L3283.18099,944.88141L3283.18099,945.12141
				L3282.461,949.56142L3280.78101,955.32143L3277.90102,962.64144L3275.02104,970.92145L3272.74105,978.00146L3270.82106,984.00147
				L3271.30106,986.28147L3271.78106,988.44147L3272.62105,991.92148L3273.34105,994.92148L3274.06104,997.80149L3274.66104,1000.08149
				L3274.18104,1002.3615L3273.34105,1007.1615L3272.50105,1008.0015L3271.66106,1008.4815L3271.18106,1009.56151L3271.06106,1009.92151
				L3269.50107,1010.52151L3268.06108,1012.08151L3267.46108,1013.52151L3266.98109,1014.72151L3265.54109,1016.04152L3265.66109,1018.92152
				L3264.4611,1021.56152L3264.2211,1021.68152L3264.2211,1021.32152L3256.90114,1027.20153L3254.14116,1029.60154L3248.74119,1033.56154
				L3247.4212,1034.28154L3246.5812,1034.88154L3245.86121,1036.08155L3245.50121,1036.92155L3244.66121,1038.48155L3244.42122,1039.44155
				L3244.42122,1040.40155L3244.42122,1040.76155L3244.42122,1044.00156L3244.78121,1045.44156L3245.26121,1046.64156L3245.98121,1048.56156
				L3247.1812,1050.96157L3248.38119,1052.64157L3249.82118,1054.56157L3251.02118,1058.16158L3251.26118,1061.64158L3251.26118,1070.1616
				L3250.78118,1077.48161L3250.78118,1078.80161L3250.54118,1086.24162L3250.54118,1092.12163L3249.94118,1097.16164L3249.82118,1098.48164
				L3249.70119,1101.00164L3249.46119,1103.64165L3247.7812,1112.16166L3246.7012,1118.64167L3246.22121,1122.84167L3245.38121,1128.72168
				L3242.98122,1140.2417L3242.50123,1147.68171L3240.58124,1156.80173L3239.86124,1163.88174L3236.74126,1164.84174L3223.42134,1169.64174
				L3219.46136,1171.08175L3209.14142,1174.80175L3199.18148,1178.04176L3189.58153,1181.76176L3182.62157,1183.92177L3158.86171,1192.32178
				L3152.74175,1193.04178L3147.34178,1193.88178L3136.54184,1194.96178L3130.30188,1195.80178L3123.58192,1196.52178L3112.54198,1197.96179
				L3111.58199,1198.32179L3106.30202,1200.72179L3100.54205,1203.6018L3092.0221,1207.4418L3085.06214,1211.04181L3077.98218,1213.68181
				L3072.10221,1216.68181L3066.94224,1219.20182L3061.42228,1221.96182L3057.7023,1223.40182L3052.66233,1226.04183L3047.02236,1228.68183
				L3046.54236,1229.04183L3040.1824,1231.92184L3031.78245,1236.12184L3022.1825,1240.56185L3017.38253,1242.72185L3016.54254,1243.68186
				L3013.42255,1245.96186L3010.42257,1249.44186L3007.78259,1252.32187L3007.42259,1252.80187L3004.9026,1255.32187L3001.78262,1258.32188
				L3006.58259,1263.72189L3010.30257,1267.92189L3014.74255,1273.5619L3017.98253,1278.36191L3022.1825,1282.68191L3024.94249,1285.92192
				L3074.8622,1340.642L3075.70219,1341.482L3071.98221,1351.56202L3071.74222,1352.16202L3071.02222,1354.20202L3070.78222,1354.80202
				L3068.62223,1360.80203L3067.78224,1362.96203L3057.8223,1406.0421L3058.66229,1416.60211L3058.66229,1417.44211L3061.06228,1448.16216
				L3061.18228,1449.00216L3061.18228,1449.36216L3067.66224,1463.88218L3067.90224,1464.36218L3071.50222,1472.5222L3071.74222,1473.0022
				L3071.38222,1479.24221L3071.38222,1479.84221L3070.78222,1488.84222L3066.34225,1515.00226L3050.86234,1551.24231L3050.50234,1564.32233
				L3047.50236,1575.24235L3035.98242,1593.36238L3034.78243,1608.2424L3034.90243,1609.3224L3035.02243,1609.8024L3036.82242,1621.56242
				L3036.82242,1632.24243L3036.82242,1644.84245L3036.82242,1648.56246L3036.82242,1657.68247L3036.82242,1658.64247L3037.06242,1659.84248
				L3039.1024,1679.0425L3039.8224,1685.16251L3040.1824,1688.88252L3040.0624,1692.12252L3037.90241,1746.0026L3037.18242,1763.16263
				L3037.18242,1774.56265L3037.18242,1814.28271L3046.78236,1839.96274L3057.8223,1869.24279L3058.78229,1871.88279L3060.58228,1876.8028
				L3061.42228,1878.9628L3062.62227,1882.08281L3064.54226,1887.24281L3079.54217,1927.32287L3080.98216,1931.16288L3084.46214,1924.08287
				L3095.62208,1901.88284L3101.74204,1916.64286L3101.98204,1917.24286L3111.94198,1941.1229L3112.66198,1943.0429L3117.94195,1955.64292
				L3123.82191,1969.68294L3124.90191,1972.44294L3132.10187,1989.48297L3132.10187,2024.40302L3132.10187,2028.36303L3132.10187,2029.80303
				L3132.10187,2031.84303L3132.10187,2043.12305L3132.10187,2050.08306L3132.10187,2077.0831L3131.86187,2112.96315L3132.10187,2135.52319
				L3128.26189,2247.36335L3121.18193,2244.60335L3109.062,2241.24334L3095.50208,2240.76334L3093.82209,2240.64334L3090.34211,2240.40334
				L3085.54214,2240.04334L3074.0222,2244.60335L3058.42229,2255.04336L3049.78234,2261.40337L3041.74239,2266.32338L3038.86241,2274.00339
				L3037.66241,2278.6834L3026.38248,2282.1634L3018.34253,2287.32341L3007.66259,2287.56341L2997.94264,2284.44341L2992.06268,2277.2434
				L2983.18273,2261.04337L2978.38276,2254.32336L2974.30278,2253.72336L2968.42281,2252.76336L2959.78286,2252.16336L2950.54292,2252.76336
				L2948.62293,2253.24336L2944.42295,2254.56336L2937.34299,2256.48337L2925.34306,2256.48337L2916.58311,2254.80336L2909.50316,2251.92336
				L2901.5832,2252.04336L2895.70324,2248.92335L2881.30332,2245.80335L2870.86338,2245.80335L2859.58344,2251.32336L2841.46355,2260.56337
				L2830.54361,2265.12338L2800.90378,2278.0834L2785.06388,2285.04341L2748.70409,2302.32343L2738.98414,2306.64344L2729.2642,2308.32344
				L2722.42424,2308.08344L2715.46428,2309.76345L2709.10432,2316.12345L2701.66436,2330.88348L2693.38441,2341.56349L2685.34445,2340.72349
				L2676.34451,2348.1635L2658.94461,2366.40353L2652.34464,2371.68354L2642.8647,2365.92353L2634.46475,2364.72353L2624.14481,2363.64353
				L2616.70485,2364.48353L2613.94487,2364.84353L2613.10487,2364.96353L2605.06492,2367.00353L2598.34496,2371.92354L2592.70499,2379.48355
				L2588.62501,2385.12356L2584.90503,2392.08357L2576.86508,2398.32358L2569.06513,2399.64358L2557.42519,2400.24358L2553.82521,2402.40358
				L2545.90526,2406.96359L2538.10531,2408.64359L2529.10536,2409.36359L2500.66552,2408.40359L2492.02557,2403.96359L2476.42566,2397.36358
				L2466.58572,2393.76357L2446.18584,2393.16357L2441.98586,2385.24356L2438.38588,2375.76354L2432.74592,2366.88353L2425.66596,2358.84352
				L2418.826,2349.0035L2412.22603,2340.48349L2406.82607,2336.76349L2400.3461,2336.28348L2388.82617,2336.64349L2381.50621,2336.64349
				L2371.42627,2334.00348L2355.58636,2334.84348L2344.42643,2335.44348L2329.42651,2329.68347L2315.2666,2327.40347L2303.14667,2320.80346
				L2284.06678,2312.16345L2267.86687,2308.92344L2248.78698,2308.08344L2239.54703,2305.20344L2234.38706,2305.20344L2230.42709,2305.68344
				L2225.74711,2307.24344L2219.02715,2309.52344L2215.30717,2300.28343L2211.3472,2289.36341L2201.26726,2286.12341L2189.14733,2286.48341
				L2174.38741,2285.04341L2160.70749,2283.24341L2149.06756,2282.1634L2147.50757,2280.8434L2140.66761,2271.00339L2136.94763,2265.00338
				L2133.82765,2259.48337L2133.82765,2251.44336L2134.78764,2247.48335L2135.38764,2245.32335L2134.30764,2237.04334L2132.50765,2230.80333
				L2129.14767,2223.48332L2123.7477,2215.3233L2120.50772,2207.52329L2120.14773,2206.68329L2119.42773,2199.48328L2120.74772,2190.48327
				L2123.02771,2184.60326L2126.74769,2182.20325L2129.02767,2177.88325L2127.46768,2170.56324L2126.26769,2158.92322L2124.3477,2149.08321
				L2121.58772,2143.2032L2110.30778,2138.04319L2101.66783,2133.96318L2097.34786,2129.16318L2095.66787,2120.28316L2095.18787,2111.04315
				L2088.46791,2103.60314L2082.94794,2099.04313L2077.18797,2092.92312L2069.50802,2087.76311L2069.26802,2087.52311L2068.66802,2087.16311
				L2062.78806,2086.20311L2054.02811,2084.40311L2038.5482,2083.68311L2030.14825,2085.96311L2024.02828,2092.20312L2017.42832,2094.60312
				L2003.2684,2094.84312L1994.14845,2094.84312L1988.50849,2095.68313L1978.06855,2096.64313L1970.74859,2094.12312L1961.62864,2088.12311
				L1953.58869,2081.6431L1942.90875,2075.1631L1932.10881,2067.84308L1909.18895,2060.76307L1884.58909,2056.56307L1875.10914,2058.36307
				L1851.22928,2062.80308L1821.82945,2066.76308L1813.7895,2080.4431L1805.86954,2093.64312L1763.74979,2130.96318L1744.7899,2132.04318
				L1711.91009,2151.60321L1703.15014,2162.64323L1699.91016,2174.52324L1686.11024,2197.92328L1679.75028,2203.20329L1672.55032,2209.08329
				L1637.99052,2224.92332L1609.55068,2222.40331L1596.23076,2221.44331L1572.2309,2235.00333L1548.35104,2255.28336L1519.5512,2287.32341
				L1478.03144,2308.08344L1454.75158,2318.04346L1445.39163,2366.76353L1431.23171,2377.32355L1423.07176,2390.04356L1414.19181,2394.96357
				L1407.71185,2400.60358L1398.3519,2403.60358L1376.87203,2415.4836L1375.07204,2419.56361L1310.63241,2415.3636L1298.75248,2414.2836
				L1241.39281,2420.28361L1211.87298,2377.20355L1208.273,2351.28351L1208.273,2351.04351L1204.55303,2325.12347L1204.55303,2325.00347
				L1233.59286,2267.40338L1254.59274,2259.00337L1254.83274,2258.88337L1306.07244,2238.36334L1323.11234,2198.76328L1328.27231,2186.40326
				L1305.23244,2174.64324L1302.47246,2173.32324L1301.51247,2172.84324L1293.59251,2168.88323L1271.27264,2157.48322L1268.15266,2156.88322
				L1267.91266,2156.76322L1267.67266,2156.76322L1265.87267,2156.40322L1264.79268,2156.16322L1264.55268,2156.16322L1264.31268,2156.16322
				L1240.55282,2151.36321L1240.31282,2151.36321L1239.95282,2151.36321L1234.07286,2150.16321L1229.87288,2137.44319L1227.35289,2130.00318
				L1227.2329,2129.64318L1227.1129,2129.40318L1224.23291,2120.64316L1223.39292,2118.12316L1221.35293,2112.00315L1219.43294,2106.36314
				L1188.11312,2093.76312L1187.99312,2093.76312L1187.87312,2093.76312L1182.95315,2091.72312L1182.59315,2088.84312L1182.59315,2088.48312
				L1179.23317,2058.48307L1176.47319,2033.52303L1116.11354,2026.80302L1074.83378,2033.76303L1015.07412,2004.12299L971.03438,2017.80301
				L943.43454,2026.44302L929.51462,2024.76302L922.31466,2023.80302L883.07489,2019.12301L818.39526,2034.12303L760.6756,2033.76303
				L760.1956,2033.88303L738.83572,2041.32304L736.31574,2037.24304L735.59574,2036.16304L725.3958,2019.72301L721.31582,2013.003
				L717.71585,2007.36299L716.39585,2005.08299L731.63576,1951.80291L731.75576,1951.56291L731.75576,1951.32291L731.87576,1951.32291
				L733.07576,1947.0029L733.07576,1946.8829L733.19576,1946.7629L733.31575,1946.5229L733.31575,1946.4029L735.59574,1938.96289
				L735.59574,1938.60289L735.59574,1938.36289L729.23578,1938.60289L721.67582,1937.52289L718.07584,1936.32289L715.79586,1935.84289
				L713.39587,1935.36289L711.35588,1935.24289L708.7159,1935.96289L706.55591,1935.00289L704.27592,1934.16288L702.83593,1933.44288
				L700.91594,1934.28289L698.75595,1934.28289L697.55596,1933.56288L696.23597,1933.44288L694.67598,1933.68288L693.59598,1933.32288
				L692.63599,1933.32288L689.75601,1934.40289L686.15603,1934.52289L684.47604,1935.48289L681.71605,1937.40289L679.79606,1938.00289
				L677.03608,1938.00289L673.7961,1938.12289L670.91612,1938.36289L668.03613,1939.08289L665.39615,1939.80289L664.19615,1940.64289
				L662.27617,1941.6029L660.11618,1943.6429L655.9162,1943.7629L650.87623,1944.0029L647.87625,1944.4829L643.55627,1944.9629L
				640.55629,1946.1629L635.75632,1947.3629L631.19635,1949.64291L630.23635,1950.60291L624.83638,1951.20291L622.1964,1950.84291
				L614.27644,1951.92291L607.67648,1952.40291L600.35652,1955.04292L597.71654,1955.16292L595.07656,1954.68292L592.55657,1954.92292
				L590.51658,1955.28292L588.1166,1955.28292L585.71661,1953.96291L581.27664,1949.52291L577.79666,1946.7629L575.15667,1944.6029
				L573.83668,1943.0429L572.27669,1940.04289L569.9967,1937.76289L566.99672,1935.00289L564.47673,1934.52289L562.67674,1934.88289
				L559.67676,1935.96289L557.63677,1935.72289L555.11679,1934.52289L553.0768,1932.96288L550.91681,1931.76288L548.15683,1932.12288
				L543.11686,1932.96288L537.11689,1934.04288L529.79693,1934.76289L523.19697,1935.60289L522.35698,1935.72289L521.99698,1935.72289
				L521.75698,1935.72289L521.51698,1935.72289L520.79699,1935.84289L518.877,1936.08289L514.67702,1936.68289L505.67707,1936.92289
				L503.03709,1936.20289L498.95711,1933.56288L493.43714,1929.12288L487.79718,1925.28287L483.9572,1927.44287L479.27723,1932.00288
				L475.55725,1938.24289L471.71727,1943.7629L462.11732,1948.20291L455.75736,1953.00291L453.35738,1954.92292L451.19739,1956.72292
				L448.19741,1957.08292L443.39743,1956.24292L437.03747,1956.00292L432.2375,1955.52292L426.83753,1956.60292L424.19754,1958.52292
				L419.87757,1959.24292L414.7176,1959.72292L409.19763,1962.60293L404.39766,1962.96293L401.27768,1961.88293L398.0377,1962.00293
				L395.15771,1962.00293L391.55773,1961.76293L389.63774,1963.80293L385.91777,1967.64293L383.99778,1968.24294L381.23779,1968.84294
				L378.95781,1969.92294L375.47783,1972.80294L372.71784,1973.28294L369.59786,1974.84295L366.83788,1975.08295L359.51792,1974.96295
				L349.55798,1977.00295L337.67805,1979.76295L328.4381,1981.44296L321.95814,1978.80295L313.67818,1976.16295L304.67824,1973.16294
				L294.71829,1972.80294L284.75835,1975.92295L278.51839,1977.48295L274.67841,1980.24295L270.11844,1982.04296L264.83847,1982.40296
				L259.5585,1979.88295L254.87852,1977.96295L253.79853,1977.60295L250.43855,1977.48295L246.23857,1979.40295L240.35861,1982.52296
				L234.83864,1981.80296L227.63868,1982.16296L224.1587,1983.48296L220.19873,1983.84296L213.11877,1984.68296L205.67881,1985.40296
				L201.83883,1984.20296L196.31886,1984.44296L192.71888,1981.68296L189.4789,1977.84295L184.19893,1972.68294L179.63896,1970.16294
				L174.71899,1968.60294L170.27901,1969.80294L163.79905,1973.04294L162.23906,1973.52294L161.27907,1973.52294L159.23908,1972.92294
				L157.07909,1971.60294L158.63908,1965.48293L161.63906,1957.92292L165.23904,1954.80292L171.35901,1949.28291L177.95897,1943.1629
				L190.7989,1934.28289L200.99884,1924.32287L209.15879,1915.80286L215.03876,1909.44285L219.23873,1903.56284L224.6387,1900.44283
				L229.55867,1901.40284L234.83864,1904.64284L239.87861,1908.60285L245.63858,1913.16285L248.75856,1915.68286L252.71854,1917.00286
				L257.27851,1918.68286L260.87849,1920.84287L265.31846,1921.56287L267.71845,1921.44287L271.67843,1921.80287L275.51841,1925.16287
				L277.91839,1927.92288L280.43838,1930.32288L285.23835,1931.64288L291.23831,1934.04288L296.39828,1934.64289L300.11826,1934.28289
				L303.47824,1934.16288L309.95821,1931.52288L314.27818,1930.44288L318.83815,1930.20288L319.31815,1929.72288L319.55815,1929.36288
				L320.03815,1928.40288L320.15815,1927.56288L320.03815,1926.84287L319.43815,1925.40287L319.19815,1923.60287L318.71816,1922.16287
				L318.59816,1921.08287L318.71816,1920.12286L318.71816,1920.00286L318.11816,1918.44286L317.39816,1917.36286L317.39816,1916.52286
				L317.39816,1916.40286L317.51816,1915.92286L317.75816,1914.96286L317.87816,1913.88285L318.83815,1913.52285L319.31815,1912.92285
				L319.31815,1912.20285L319.07815,1911.48285L319.31815,1911.12285L319.67815,1910.88285L320.03815,1909.80285L320.27815,1908.12285
				L320.27815,1906.20284L320.15815,1904.64284L320.03815,1903.08284L320.03815,1902.96284L320.03815,1901.64284L320.03815,1901.52284
				L319.55815,1899.60283L318.83815,1898.52283L318.83815,1896.60283L318.59816,1894.68283L318.11816,1893.36282L317.03816,1890.72282
				L316.67817,1889.40282L316.55817,1888.92282L316.19817,1887.60282L316.19817,1887.48282L316.31817,1886.64281L317.15816,1885.56281
				L317.87816,1884.72281L318.47816,1884.12281L318.59816,1883.40281L318.71816,1882.08281L318.23816,1881.12281L317.87816,1879.5628
				L317.63816,1878.6028L317.75816,1877.7628L317.87816,1876.6828L317.75816,1875.6028L318.11816,1874.7628L317.99816,1873.44279
				L317.87816,1872.00279L317.63816,1870.92279L317.27816,1869.60279L316.79817,1868.64279L315.95817,1866.48278L314.63818,1864.44278
				L314.03818,1863.96278L313.31819,1863.24278L309.83821,1862.28278L299.03827,1855.56277L289.55832,1847.04275L286.19834,1838.40274
				L284.39835,1830.72273L284.39835,1830.60273L287.27834,1822.44272L286.55834,1818.96271L285.83835,1815.24271L285.47835,1812.7227
				L284.75835,1810.4427L284.15836,1808.2827L283.43836,1806.24269L282.83836,1804.32269L282.83836,1804.20269L282.83836,1802.52269
				L282.71836,1798.80268L282.35837,1797.12268L281.75837,1795.68268L280.43838,1793.16267L280.55838,1792.20267L281.15837,1790.88267
				L281.87837,1790.28267L282.11837,1789.80267L282.23837,1789.32267L282.35837,1788.96267L282.23837,1788.00267L282.35837,1786.56266
				L282.95836,1785.48266L283.91836,1784.64266L284.75835,1783.80266L287.27834,1781.16266L288.83833,1779.84265L290.63832,1778.16265
				L291.47831,1777.92265L293.3983,1778.76265L293.7583,1778.88265L295.67829,1779.36265L297.47828,1779.84265L299.87826,1780.80266
				L300.95826,1780.92266L302.63825,1780.68266L306.71822,1780.44266L307.43822,1778.64265L307.55822,1778.16265L307.67822,1777.56265
				L308.15822,1769.52264L308.51821,1759.92263L307.19822,1750.32261L306.23823,1746.60261L305.51823,1743.3626L305.15823,1738.32259
				L304.55824,1733.76259L303.59824,1731.36258L303.59824,1728.12258L303.11825,1726.80258L302.87825,1724.16257L301.91825,1722.48257
				L301.07826,1721.40257L300.59826,1718.40256L300.47826,1716.84256L300.47826,1715.76256L300.47826,1714.68256L299.63827,1712.28255
				L300.35826,1710.12255L300.83826,1707.72255L300.83826,1707.60255L300.23826,1704.72254L298.91827,1701.24254L295.55829,1696.32253
				L292.9183,1692.84253L291.71831,1689.72252L289.19833,1684.08251L288.35833,1680.48251L287.03834,1676.6425L286.55834,1674.6025
				L287.51834,1671.72249L289.67832,1668.84249L290.63832,1665.60248L292.55831,1661.64248L293.7583,1658.40247L294.71829,1655.76247
				L293.8783,1653.60247L292.31831,1651.56246L291.47831,1647.96246L289.91832,1644.00245L289.91832,1643.88245L289.91832,1641.00245
				L289.91832,1640.88245L288.11833,1636.20244L286.79834,1630.20243L284.87835,1623.96242L282.47837,1615.44241L280.67838,1609.5624
				L277.67839,1602.00239L275.8784,1597.08238L275.03841,1595.40238L273.11842,1594.56238L272.27842,1592.76238L270.23844,1591.08237
				L267.83845,1587.96237L267.11845,1585.20236L266.99845,1585.20236L268.55845,1584.60236L266.99845,1580.52236L269.51844,1579.68236
				L265.91846,1573.08235L265.91846,1569.96234L263.03848,1565.76234L261.83848,1562.64233L261.23849,1560.00233L260.39849,1558.44232
				L259.5585,1557.60232L259.4385,1555.80232L258.5985,1554.48232L258.5985,1554.36232L258.8385,1552.92232L258.9585,1552.80232
				L255.83852,1549.92231L251.99854,1547.04231L251.63854,1544.4023L249.83855,1541.6423L263.87847,1528.32228L264.59847,1517.76226
				L270.23844,1505.16225L283.31836,1494.24223L281.03837,1482.48221L280.67838,1467.84219L280.67838,1467.72219L289.19833,1433.64214
				L297.71828,1419.24212L322.07814,1398.36209L343.55801,1375.08205L367.55787,1366.80204L401.03768,1354.92202L409.31763,1337.762
				L417.35758,1314.96196L452.99738,1259.52188L496.79712,1244.88186L504.95708,1236.72184L569.7567,1171.92175L642.71628,1113.48166
				L744.95569,1077.00161L825.23522,1098.96164L836.03516,1101.60164L836.27516,1101.72164L854.87505,1106.28165L873.95494,1111.08166
				L874.31494,1111.20166L874.79494,1111.32166L881.3949,1112.88166L891.59484,1115.52166L891.71484,1115.52166L891.83484,1115.52166
				L895.19482,1116.36167L898.9148,1117.32167L899.0348,1117.32167L899.15479,1117.44167L905.75476,1119.00167L907.79474,1119.60167
				L912.71472,1120.80167L912.83472,1120.80167L912.95471,1120.80167L932.3946,1113.00166L932.5146,1112.88166L932.6346,1112.88166
				L940.43456,1109.76166L967.6744,1098.84164L983.63431,1092.48163L985.91429,1091.64163L1003.43419,1059.00158L1003.55419,1058.76158
				L1003.55419,1058.64158L1036.914,996.72149L1069.55381,975.96146L1073.63378,973.44145L1075.07378,972.36145L1085.39372,965.88144
				L1117.31353,945.60141L1161.11328,887.16132L1234.07286,836.16125L1272.95263,840.96125L1275.59262,841.32126L1275.95261,841.32126
				L1278.9526,841.68126L1283.99257,842.40126L1292.51252,843.36126L1297.67249,838.92125L1298.63248,838.08125L1302.71246,834.48124
				L1303.07246,834.24124L1327.67231,813.12121L1337.15226,789.60118L1338.95225,786.00117L1349.39219,787.08117L1357.55214,788.64118
				L1366.67209,790.32118L1372.43205,794.52119L1377.83202,797.04119L1386.35197,801.8412L1397.03191,810.96121L1400.99189,817.20122
				L1403.87187,820.56122L1405.43186,825.60123L1407.47185,822.72123L1410.59183,821.88123L1413.95181,821.76123L1415.6318,819.60122
				L1416.9518,818.40122L1419.35178,817.56122L1423.43176,817.20122L1425.59175,815.88122L1427.99173,815.04122L1430.63172,813.48121
				L1432.9117,812.88121L1435.31169,810.48121L1438.55167,808.92121L1441.91165,808.08121L1444.19164,807.3612L1446.71162,807.3612
				L1449.35161,806.8812L1451.6316,806.1612L1453.79158,805.5612L1456.55157,804.7212L1457.99156,803.4012L1459.79155,801.7212L
				1461.11154,801.1212L1463.15153,799.44119L1465.43152,798.24119L1468.6715,796.44119L1470.47149,795.00119L1472.87147,792.96118
				L1476.11145,790.92118L1478.27144,788.88118L1480.19143,787.80118L1482.35142,787.08117L1485.1114,785.88117L1487.63139,784.80117
				L1490.15137,784.20117L1492.79136,783.60117L1495.19134,781.80117L1497.35133,780.72116L1499.87132,778.92116L1502.6313,777.36116
				L1505.39128,776.28116L1508.75127,774.60116L1510.91125,774.00115L1513.31124,773.64115L1515.59123,773.76115L1518.11121,774.12115
				L1520.2712,774.36116L1522.07119,775.08116L1524.35117,775.08116L1526.15116,774.48116L1528.19115,774.84116L1530.23114,774.96116
				L1531.79113,775.08116L1532.39113,775.44116L1533.11112,775.92116L1533.47112,776.52116L1534.19112,777.48116L1536.35111,778.08116
				L1537.7911,778.56116L1539.35109,778.80116L1541.75107,778.32116L1543.19107,778.08116L1543.91106,777.96116L1544.87106,777.84116
				L1545.95105,777.00116L1546.91104,775.80116L1547.15104,775.08116L1547.75104,774.60116L1549.43103,774.48116L1550.99102,773.88115
				L1552.43101,772.92115L1552.91101,771.96115L1553.63101,771.72115L1555.67099,771.36115L1559.75097,769.44115L1563.95095,767.64115
				L1565.15094,767.28114L1566.47093,767.40114L1567.31093,767.40114L1568.27092,767.40114L1569.83091,766.80114L1573.79089,765.00114
				L1577.39087,763.20114L1580.51085,762.60114L1585.31082,761.52114L1589.0308,761.16114L1592.27078,761.16114L1596.11076,760.80114
				L1599.23074,761.28114L1601.87073,760.68113L1603.67072,760.32113L1605.9507,759.72113L1607.0307,758.40113L1608.83069,757.44113
				L1610.39068,756.96113L1612.19067,755.88113L1614.47065,755.28113L1616.99064,755.52113L1619.03063,756.12113L1621.31061,755.52113
				L1625.03059,755.52113L1627.19058,755.16113L1627.43058,755.16113L1627.67058,755.16113L1629.83056,754.68113L1632.59055,754.44113
				L1633.79054,753.84112L1635.23053,752.88112L1636.91052,751.92112L1637.87052,751.20112L1638.47051,750.24112L1639.67051,749.88112
				L1650.11045,741.24111L1661.03038,732.96109L1667.99034,727.80109L1668.11034,727.68109L1668.35034,727.56109L1676.75029,721.32108
				L1681.55026,717.60107L1681.79026,717.48107L1681.91026,717.36107L1689.71022,711.48106L1689.83022,711.48106L1689.95022,711.36106
				L1708.55011,697.44104L1772.62974,665.28099L1774.30973,664.56099L1793.14962,655.08098L1793.74962,654.84098L1796.1496,653.64098
				L1811.14951,623.64093L1811.26951,623.52093L1811.62951,622.68093L1814.62949,616.56092L1817.62948,610.80091L1817.74948,610.44091
				L1817.86948,610.32091L1817.86948,610.08091L1817.98947,609.96091L1825.30943,595.20089L1828.78941,582.84087L1839.82935,542.16081
				L1840.90934,538.4408L1841.02934,537.8408L1841.14934,537.1208L1847.26931,514.92077L1883.74909,471.1207L1885.30909,465.48069
				L1900.309,410.28061L1900.789,408.84061L1902.10899,403.8006L1905.70897,390.84058L1913.02892,317.76047L1929.58883,279.84042
				L1932.34881,273.60041L1932.46881,273.12041L1964.02863,201.0003L1967.86861,199.0803L1968.2286,198.9603L2022.46829,171.72026
				L2027.26826,172.44026L2027.98826,172.44026L2060.98807,176.64026L2061.34807,176.64026L2080.90795,179.04027L2119.42773,193.92029
				L2119.78773,194.04029L2148.22756,204.96031L2148.58756,205.08031L2171.02743,213.72032L2171.38743,213.96032L2175.8274,215.64032
				L2196.22728,217.32032L2196.58728,217.32032L2231.62708,220.20033L2232.10708,220.32033z"/>
			<path clip-path="url(#SVG_CP_1)" fill="none" stroke="#000000" stroke-width="3.95998" stroke-miterlimit="10" stroke-linecap="round" stroke-linejoin="round" d="
				M2232.10708,220.32033L2263.4269,222.84033L2331.7065,216.72032L2331.8265,216.72032L2331.9465,216.60032L2343.70643,215.64032
				L2416.66601,215.64032L2445.94584,213.72032L2453.74579,213.24032L2460.82575,212.88032L2469.5857,212.28032L2475.10567,211.92032
				L2498.14554,210.48031L2500.18553,210.36031L2517.22543,209.28031L2517.46543,209.28031L2533.42533,208.32031L2596.66497,225.84034
				L2596.78497,225.84034L2597.02496,225.96034L2664.82457,244.80037L2707.30433,244.80037L2715.10428,244.80037L2715.22428,244.80037
				L2715.46428,244.80037L2733.10418,244.80037L2733.34418,244.80037L2734.30417,244.80037L2745.10411,244.80037L2745.4641,244.80037
				L2746.3041,244.80037L2759.74402,244.80037L2770.78396,250.32037L2771.86395,250.80037L2780.1439,255.00038L2780.9839,255.36038
				L2793.94382,261.84039L2794.90382,262.32039L2795.86381,262.80039L2810.02373,269.8804L2811.46372,270.6004L2813.02371,271.44041
				L2813.26371,271.56041L2813.86371,271.80041L2818.18368,273.96041L2872.66337,273.96041L2873.02337,273.96041L2898.46322,273.96041
				L2984.14272,273.96041L3017.62253,273.96041L3028.54247,273.96041L3036.82242,273.96041L3037.18242,273.96041L3066.34225,281.28042
				L3074.2622,283.32042L3075.82219,283.68042L3098.98206,289.56043L3100.18205,289.92043L3119.98194,294.96044L3116.62196,308.16046
				L3115.06197,313.92047L3111.58199,327.12049L3111.46199,327.72049L3110.50199,331.08049L3104.50203,346.68052L3098.98206,361.32054
				L3098.50206,362.64054L3096.34207,368.64055L3091.5421,383.28057L3087.46212,395.52059L3086.02213,400.0806L3085.06214,401.0406
				L3084.46214,401.7606L3070.90222,417.36062L3069.94223,418.32062L3068.74223,419.52063L3028.06247,462.00069L3038.02241,465.48069
				L3050.98234,469.4407L3059.74229,470.7607L3070.06223,472.2007L3075.58219,470.4007L3079.90217,469.8007L3084.94214,471.1207
				L3089.26211,474.60071L3089.74211,474.96071L3089.86211,475.08071L3092.62209,474.36071L3093.70209,474.72071L3094.30209,475.44071
				L3095.14208,476.64071L3095.86208,477.00071L3097.18207,478.32071L3099.10206,479.52072L3100.78205,479.88072L3101.74204,480.48072
				L3102.70204,481.20072L3103.66203,481.68072L3106.30202,481.56072L3107.02201,481.08072L3107.62201,480.96072L3108.222,481.20072
				L3109.062,482.40072L3110.74199,483.96072L3112.78198,485.64072L3114.58197,487.80073L3119.50194,490.68073L3121.18193,492.12073
				L3121.90193,493.08074L3135.94184,504.48075L3145.54179,514.08077L3154.06174,522.72078L3159.94171,531.36079L3162.70169,537.7208
				L3170.86164,551.64082L3185.14156,576.60086L3185.38156,576.72086L3187.66154,580.92087L3194.14151,595.20089L3196.30149,603.7209
				L3196.1815,611.64091L3200.38147,621.00093L3200.86147,622.44093L3201.22147,623.16093L3204.70145,633.36095L3206.02144,639.00095
				L3206.62143,645.00096L3206.86143,651.60097L3203.38145,663.84099L3203.62145,668.761L3207.22143,674.64101L3216.22138,680.04101
				L3218.02137,684.24102L3218.14137,685.92102L3218.62137,693.00103L3218.74136,706.08105L3218.02137,720.36107L3215.74138,737.6411
				L3215.62138,740.0411L3215.26138,742.44111L3214.06139,745.80111L3212.9814,748.68112L3212.9814,750.84112L3211.30141,756.48113
				L3211.54141,758.76113L3212.2614,758.64113L3213.2214,761.88114L3213.2214,762.36114L3213.2214,763.56114L3213.2214,764.04114
				L3213.1014,766.20114L3213.1014,766.44114L3212.9814,769.92115L3212.9814,770.64115L3212.8614,771.60115L3212.8614,774.24116
				L3212.6214,778.68116L3212.6214,779.52116L3213.94139,779.76116L3217.18137,779.88116L3220.90135,780.24116L3223.90133,780.96117
				L3231.34129,781.68117L3232.18129,782.88117L3233.74128,783.72117L3234.34127,788.04118L3236.62126,791.16118L3246.9412,798.48119
				L3252.34117,801.8412L3257.50114,808.44121L3263.8611,812.28121L3264.3411,812.76121L3264.5811,812.88121L3264.7011,813.12121
				L3268.78108,817.08122L3271.06106,819.72122L3275.62104,821.88123L3278.62102,823.80123L3279.34101,823.92123L3282.101,824.40123
				L3286.42097,826.20123L3290.50095,828.48124L3294.70093,830.76124L3295.18092,831.00124L3298.9009,833.16124L3297.70091,835.80125
				L3296.26092,843.24126L3295.06092,851.40127L3293.38093,858.60128L3292.18094,867.60129L3290.98095,878.52131L3289.78095,887.04132
				L3288.10096,896.76134L3286.54097,904.80135L3285.58098,912.72136L3284.74098,924.24138L3284.14099,930.36139L3283.30099,944.64141
				L3283.18099,944.88141L3283.18099,945.12141L3282.461,949.56142L3280.78101,955.32143L3277.90102,962.64144L3275.02104,970.92145
				L3272.74105,978.00146L3270.82106,984.00147L3271.30106,986.28147L3271.78106,988.44147L3272.62105,991.92148L3273.34105,994.92148
				L3274.06104,997.80149L3274.66104,1000.08149L3274.18104,1002.3615L3273.34105,1007.1615L3272.50105,1008.0015L3271.66106,1008.4815
				L3271.18106,1009.56151L3271.06106,1009.92151L3269.50107,1010.52151L3268.06108,1012.08151L3267.46108,1013.52151L3266.98109,1014.72151
				L3265.54109,1016.04152L3265.66109,1018.92152L3264.4611,1021.56152L3264.2211,1021.68152L3264.2211,1021.32152L3256.90114,1027.20153
				L3254.14116,1029.60154L3248.74119,1033.56154L3247.4212,1034.28154L3246.5812,1034.88154L3245.86121,1036.08155L3245.50121,1036.92155
				L3244.66121,1038.48155L3244.42122,1039.44155L3244.42122,1040.40155L3244.42122,1040.76155L3244.42122,1044.00156L3244.78121,1045.44156
				L3245.26121,1046.64156L3245.98121,1048.56156L3247.1812,1050.96157L3248.38119,1052.64157L3249.82118,1054.56157L3251.02118,1058.16158
				L3251.26118,1061.64158L3251.26118,1070.1616L3250.78118,1077.48161L3250.78118,1078.80161L3250.54118,1086.24162L3250.54118,1092.12163
				L3249.94118,1097.16164L3249.82118,1098.48164L3249.70119,1101.00164L3249.46119,1103.64165L3247.7812,1112.16166L3246.7012,1118.64167
				L3246.22121,1122.84167L3245.38121,1128.72168L3242.98122,1140.2417L3242.50123,1147.68171L3240.58124,1156.80173L3239.86124,1163.88174
				L3236.74126,1164.84174L3223.42134,1169.64174L3219.46136,1171.08175L3209.14142,1174.80175L3199.18148,1178.04176L3189.58153,1181.76176
				L3182.62157,1183.92177L3158.86171,1192.32178L3152.74175,1193.04178L3147.34178,1193.88178L3136.54184,1194.96178L3130.30188,1195.80178
				L3123.58192,1196.52178L3112.54198,1197.96179L3111.58199,1198.32179L3106.30202,1200.72179L3100.54205,1203.6018L3092.0221,1207.4418
				L3085.06214,1211.04181L3077.98218,1213.68181L3072.10221,1216.68181L3066.94224,1219.20182L3061.42228,1221.96182L3057.7023,1223.40182
				L3052.66233,1226.04183L3047.02236,1228.68183L3046.54236,1229.04183L3040.1824,1231.92184L3031.78245,1236.12184L3022.1825,1240.56185
				L3017.38253,1242.72185L3016.54254,1243.68186L3013.42255,1245.96186L3010.42257,1249.44186L3007.78259,1252.32187L3007.42259,1252.80187
				L3004.9026,1255.32187L3001.78262,1258.32188L3006.58259,1263.72189L3010.30257,1267.92189L3014.74255,1273.5619L3017.98253,1278.36191
				L3022.1825,1282.68191L3024.94249,1285.92192L3074.8622,1340.642L3075.70219,1341.482L3071.98221,1351.56202L3071.74222,1352.16202
				L3071.02222,1354.20202L3070.78222,1354.80202L3068.62223,1360.80203L3067.78224,1362.96203L3057.8223,1406.0421L3058.66229,1416.60211
				L3058.66229,1417.44211L3061.06228,1448.16216L3061.18228,1449.00216L3061.18228,1449.36216L3067.66224,1463.88218L3067.90224,1464.36218
				L3071.50222,1472.5222L3071.74222,1473.0022L3071.38222,1479.24221L3071.38222,1479.84221L3070.78222,1488.84222L3066.34225,1515.00226
				L3050.86234,1551.24231L3050.50234,1564.32233L3047.50236,1575.24235L3035.98242,1593.36238L3034.78243,1608.2424L3034.90243,1609.3224
				L3035.02243,1609.8024L3036.82242,1621.56242L3036.82242,1632.24243L3036.82242,1644.84245L3036.82242,1648.56246L3036.82242,1657.68247
				L3036.82242,1658.64247L3037.06242,1659.84248L3039.1024,1679.0425L3039.8224,1685.16251L3040.1824,1688.88252L3040.0624,1692.12252
				L3037.90241,1746.0026L3037.18242,1763.16263L3037.18242,1774.56265L3037.18242,1814.28271L3046.78236,1839.96274L3057.8223,1869.24279
				L3058.78229,1871.88279L3060.58228,1876.8028L3061.42228,1878.9628L3062.62227,1882.08281L3064.54226,1887.24281L3079.54217,1927.32287
				L3080.98216,1931.16288L3084.46214,1924.08287L3095.62208,1901.88284L3101.74204,1916.64286L3101.98204,1917.24286L3111.94198,1941.1229
				L3112.66198,1943.0429L3117.94195,1955.64292L3123.82191,1969.68294L3124.90191,1972.44294L3132.10187,1989.48297L3132.10187,2024.40302
				L3132.10187,2028.36303L3132.10187,2029.80303L3132.10187,2031.84303L3132.10187,2043.12305L3132.10187,2050.08306L3132.10187,2077.0831
				L3131.86187,2112.96315L3132.10187,2135.52319L3128.26189,2247.36335L3121.18193,2244.60335L3109.062,2241.24334L3095.50208,2240.76334
				L3093.82209,2240.64334L3090.34211,2240.40334L3085.54214,2240.04334L3074.0222,2244.60335L3058.42229,2255.04336L3049.78234,2261.40337
				L3041.74239,2266.32338L3038.86241,2274.00339L3037.66241,2278.6834L3026.38248,2282.1634L3018.34253,2287.32341L3007.66259,2287.56341
				L2997.94264,2284.44341L2992.06268,2277.2434L2983.18273,2261.04337L2978.38276,2254.32336L2974.30278,2253.72336L2968.42281,2252.76336
				L2959.78286,2252.16336L2950.54292,2252.76336L2948.62293,2253.24336L2944.42295,2254.56336L2937.34299,2256.48337L2925.34306,2256.48337
				L2916.58311,2254.80336L2909.50316,2251.92336L2901.5832,2252.04336L2895.70324,2248.92335L2881.30332,2245.80335L2870.86338,2245.80335
				L2859.58344,2251.32336L2841.46355,2260.56337L2830.54361,2265.12338L2800.90378,2278.0834L2785.06388,2285.04341L2748.70409,2302.32343
				L2738.98414,2306.64344L2729.2642,2308.32344L2722.42424,2308.08344L2715.46428,2309.76345L2709.10432,2316.12345L2701.66436,2330.88348
				L2693.38441,2341.56349L2685.34445,2340.72349L2676.34451,2348.1635L2658.94461,2366.40353L2652.34464,2371.68354L2642.8647,2365.92353
				L2634.46475,2364.72353L2624.14481,2363.64353L2616.70485,2364.48353L2613.94487,2364.84353L2613.10487,2364.96353L2605.06492,2367.00353
				L2598.34496,2371.92354L2592.70499,2379.48355L2588.62501,2385.12356L2584.90503,2392.08357L2576.86508,2398.32358L2569.06513,2399.64358
				L2557.42519,2400.24358L2553.82521,2402.40358L2545.90526,2406.96359L2538.10531,2408.64359L2529.10536,2409.36359L2500.66552,2408.40359
				L2492.02557,2403.96359L2476.42566,2397.36358L2466.58572,2393.76357L2446.18584,2393.16357L2441.98586,2385.24356L2438.38588,2375.76354
				L2432.74592,2366.88353L2425.66596,2358.84352L2418.826,2349.0035L2412.22603,2340.48349L2406.82607,2336.76349L2400.3461,2336.28348
				L2388.82617,2336.64349L2381.50621,2336.64349L2371.42627,2334.00348L2355.58636,2334.84348L2344.42643,2335.44348L2329.42651,2329.68347
				L2315.2666,2327.40347L2303.14667,2320.80346L2284.06678,2312.16345L2267.86687,2308.92344L2248.78698,2308.08344L2239.54703,2305.20344
				L2234.38706,2305.20344L2230.42709,2305.68344L2225.74711,2307.24344L2219.02715,2309.52344L2215.30717,2300.28343L2211.3472,2289.36341
				L2201.26726,2286.12341L2189.14733,2286.48341L2174.38741,2285.04341L2160.70749,2283.24341L2149.06756,2282.1634L2147.50757,2280.8434
				L2140.66761,2271.00339L2136.94763,2265.00338L2133.82765,2259.48337L2133.82765,2251.44336L2134.78764,2247.48335L2135.38764,2245.32335
				L2134.30764,2237.04334L2132.50765,2230.80333L2129.14767,2223.48332L2123.7477,2215.3233L2120.50772,2207.52329L2120.14773,2206.68329
				L2119.42773,2199.48328L2120.74772,2190.48327L2123.02771,2184.60326L2126.74769,2182.20325L2129.02767,2177.88325L2127.46768,2170.56324
				L2126.26769,2158.92322L2124.3477,2149.08321L2121.58772,2143.2032L2110.30778,2138.04319L2101.66783,2133.96318L2097.34786,2129.16318
				L2095.66787,2120.28316L2095.18787,2111.04315L2088.46791,2103.60314L2082.94794,2099.04313L2077.18797,2092.92312L2069.50802,2087.76311
				L2069.26802,2087.52311L2068.66802,2087.16311L2062.78806,2086.20311L2054.02811,2084.40311L2038.5482,2083.68311L2030.14825,2085.96311
				L2024.02828,2092.20312L2017.42832,2094.60312L2003.2684,2094.84312L1994.14845,2094.84312L1988.50849,2095.68313L1978.06855,2096.64313
				L1970.74859,2094.12312L1961.62864,2088.12311L1953.58869,2081.6431L1942.90875,2075.1631L1932.10881,2067.84308L1909.18895,2060.76307
				L1884.58909,2056.56307L1875.10914,2058.36307L1851.22928,2062.80308L1821.82945,2066.76308L1813.7895,2080.4431L1805.86954,2093.64312
				L1763.74979,2130.96318L1744.7899,2132.04318L1711.91009,2151.60321L1703.15014,2162.64323L1699.91016,2174.52324L1686.11024,2197.92328
				L1679.75028,2203.20329L1672.55032,2209.08329L1637.99052,2224.92332L1609.55068,2222.40331L1596.23076,2221.44331L1572.2309,2235.00333
				L1548.35104,2255.28336L1519.5512,2287.32341L1478.03144,2308.08344L1454.75158,2318.04346L1445.39163,2366.76353L1431.23171,2377.32355
				L1423.07176,2390.04356L1414.19181,2394.96357L1407.71185,2400.60358L1398.3519,2403.60358L1376.87203,2415.4836L1375.07204,2419.56361
				L1310.63241,2415.3636L1298.75248,2414.2836L1241.39281,2420.28361L1211.87298,2377.20355L1208.273,2351.28351L1208.273,2351.04351
				L1204.55303,2325.12347L1204.55303,2325.00347L1233.59286,2267.40338L1254.59274,2259.00337L1254.83274,2258.88337L1306.07244,2238.36334
				L1323.11234,2198.76328L1328.27231,2186.40326L1305.23244,2174.64324L1302.47246,2173.32324L1301.51247,2172.84324L1293.59251,2168.88323
				L1271.27264,2157.48322L1268.15266,2156.88322L1267.91266,2156.76322L1267.67266,2156.76322L1265.87267,2156.40322L1264.79268,2156.16322
				L1264.55268,2156.16322L1264.31268,2156.16322L1240.55282,2151.36321L1240.31282,2151.36321L1239.95282,2151.36321L1234.07286,2150.16321
				L1229.87288,2137.44319L1227.35289,2130.00318L1227.2329,2129.64318L1227.1129,2129.40318L1224.23291,2120.64316L1223.39292,2118.12316
				L1221.35293,2112.00315L1219.43294,2106.36314L1188.11312,2093.76312L1187.99312,2093.76312L1187.87312,2093.76312L1182.95315,2091.72312
				L1182.59315,2088.84312L1182.59315,2088.48312L1179.23317,2058.48307L1176.47319,2033.52303L1116.11354,2026.80302L1074.83378,2033.76303
				L1015.07412,2004.12299L971.03438,2017.80301L943.43454,2026.44302L929.51462,2024.76302L922.31466,2023.80302L883.07489,2019.12301
				L818.39526,2034.12303L760.6756,2033.76303L760.1956,2033.88303L738.83572,2041.32304L736.31574,2037.24304L735.59574,2036.16304
				L725.3958,2019.72301L721.31582,2013.003L717.71585,2007.36299L716.39585,2005.08299L731.63576,1951.80291L731.75576,1951.56291
				L731.75576,1951.32291L731.87576,1951.32291L733.07576,1947.0029L733.07576,1946.8829L733.19576,1946.7629L733.31575,1946.5229
				L733.31575,1946.4029L735.59574,1938.96289L735.59574,1938.60289L735.59574,1938.36289L729.23578,1938.60289L721.67582,1937.52289
				L718.07584,1936.32289L715.79586,1935.84289L713.39587,1935.36289L711.35588,1935.24289L708.7159,1935.96289L706.55591,1935.00289
				L704.27592,1934.16288L702.83593,1933.44288L700.91594,1934.28289L698.75595,1934.28289L697.55596,1933.56288L696.23597,1933.44288
				L694.67598,1933.68288L693.59598,1933.32288L692.63599,1933.32288L689.75601,1934.40289L686.15603,1934.52289L684.47604,1935.48289
				L681.71605,1937.40289L679.79606,1938.00289L677.03608,1938.00289L673.7961,1938.12289L670.91612,1938.36289L668.03613,1939.08289
				L665.39615,1939.80289L664.19615,1940.64289L662.27617,1941.6029L660.11618,1943.6429L655.9162,1943.7629L650.87623,1944.0029
				L647.87625,1944.4829L643.55627,1944.9629L640.55629,1946.1629L635.75632,1947.3629L631.19635,1949.64291L630.23635,1950.60291
				L624.83638,1951.20291L622.1964,1950.84291L614.27644,1951.92291L607.67648,1952.40291L600.35652,1955.04292L597.71654,1955.16292
				L595.07656,1954.68292L592.55657,1954.92292L590.51658,1955.28292L588.1166,1955.28292L585.71661,1953.96291L581.27664,1949.52291
				L577.79666,1946.7629L575.15667,1944.6029L573.83668,1943.0429L572.27669,1940.04289L569.9967,1937.76289L566.99672,1935.00289
				L564.47673,1934.52289L562.67674,1934.88289L559.67676,1935.96289L557.63677,1935.72289L555.11679,1934.52289L553.0768,1932.96288
				L550.91681,1931.76288L548.15683,1932.12288L543.11686,1932.96288L537.11689,1934.04288L529.79693,1934.76289L523.19697,1935.60289
				L522.35698,1935.72289L521.99698,1935.72289L521.75698,1935.72289L521.51698,1935.72289L520.79699,1935.84289L518.877,1936.08289
				L514.67702,1936.68289L505.67707,1936.92289L503.03709,1936.20289L498.95711,1933.56288L493.43714,1929.12288L487.79718,1925.28287
				L483.9572,1927.44287L479.27723,1932.00288L475.55725,1938.24289L471.71727,1943.7629L462.11732,1948.20291L455.75736,1953.00291
				L453.35738,1954.92292L451.19739,1956.72292L448.19741,1957.08292L443.39743,1956.24292L437.03747,1956.00292L432.2375,1955.52292
				L426.83753,1956.60292L424.19754,1958.52292L419.87757,1959.24292L414.7176,1959.72292L409.19763,1962.60293L404.39766,1962.96293
				L401.27768,1961.88293L398.0377,1962.00293L395.15771,1962.00293L391.55773,1961.76293L389.63774,1963.80293L385.91777,1967.64293
				L383.99778,1968.24294L381.23779,1968.84294L378.95781,1969.92294L375.47783,1972.80294L372.71784,1973.28294L369.59786,1974.84295
				L366.83788,1975.08295L359.51792,1974.96295L349.55798,1977.00295L337.67805,1979.76295L328.4381,1981.44296L321.95814,1978.80295
				L313.67818,1976.16295L304.67824,1973.16294L294.71829,1972.80294L284.75835,1975.92295L278.51839,1977.48295L274.67841,1980.24295
				L270.11844,1982.04296L264.83847,1982.40296L259.5585,1979.88295L254.87852,1977.96295L253.79853,1977.60295L250.43855,1977.48295
				L246.23857,1979.40295L240.35861,1982.52296L234.83864,1981.80296L227.63868,1982.16296L224.1587,1983.48296L220.19873,1983.84296
				L213.11877,1984.68296L205.67881,1985.40296L201.83883,1984.20296L196.31886,1984.44296L192.71888,1981.68296L189.4789,1977.84295
				L184.19893,1972.68294L179.63896,1970.16294L174.71899,1968.60294L170.27901,1969.80294L163.79905,1973.04294L162.23906,1973.52294
				L161.27907,1973.52294L159.23908,1972.92294L157.07909,1971.60294L158.63908,1965.48293L161.63906,1957.92292L165.23904,1954.80292
				L171.35901,1949.28291L177.95897,1943.1629L190.7989,1934.28289L200.99884,1924.32287L209.15879,1915.80286L215.03876,1909.44285
				L219.23873,1903.56284L224.6387,1900.44283L229.55867,1901.40284L234.83864,1904.64284L239.87861,1908.60285L245.63858,1913.16285
				L248.75856,1915.68286L252.71854,1917.00286L257.27851,1918.68286L260.87849,1920.84287L265.31846,1921.56287L267.71845,1921.44287
				L271.67843,1921.80287L275.51841,1925.16287L277.91839,1927.92288L280.43838,1930.32288L285.23835,1931.64288L291.23831,1934.04288
				L296.39828,1934.64289L300.11826,1934.28289L303.47824,1934.16288L309.95821,1931.52288L314.27818,1930.44288L318.83815,1930.20288
				L319.31815,1929.72288L319.55815,1929.36288L320.03815,1928.40288L320.15815,1927.56288L320.03815,1926.84287L319.43815,1925.40287
				L319.19815,1923.60287L318.71816,1922.16287L318.59816,1921.08287L318.71816,1920.12286L318.71816,1920.00286L318.11816,1918.44286
				L317.39816,1917.36286L317.39816,1916.52286L317.39816,1916.40286L317.51816,1915.92286L317.75816,1914.96286L317.87816,1913.88285
				L318.83815,1913.52285L319.31815,1912.92285L319.31815,1912.20285L319.07815,1911.48285L319.31815,1911.12285L319.67815,1910.88285
				L320.03815,1909.80285L320.27815,1908.12285L320.27815,1906.20284L320.15815,1904.64284L320.03815,1903.08284L320.03815,1902.96284
				L320.03815,1901.64284L320.03815,1901.52284L319.55815,1899.60283L318.83815,1898.52283L318.83815,1896.60283L318.59816,1894.68283
				L318.11816,1893.36282L317.03816,1890.72282L316.67817,1889.40282L316.55817,1888.92282L316.19817,1887.60282L316.19817,1887.48282
				L316.31817,1886.64281L317.15816,1885.56281L317.87816,1884.72281L318.47816,1884.12281L318.59816,1883.40281L318.71816,1882.08281
				L318.23816,1881.12281L317.87816,1879.5628L317.63816,1878.6028L317.75816,1877.7628L317.87816,1876.6828L317.75816,1875.6028
				L318.11816,1874.7628L317.99816,1873.44279L317.87816,1872.00279L317.63816,1870.92279L317.27816,1869.60279L316.79817,1868.64279
				L315.95817,1866.48278L314.63818,1864.44278L314.03818,1863.96278L313.31819,1863.24278L309.83821,1862.28278L299.03827,1855.56277
				L289.55832,1847.04275L286.19834,1838.40274L284.39835,1830.72273L284.39835,1830.60273L287.27834,1822.44272L286.55834,1818.96271
				L285.83835,1815.24271L285.47835,1812.7227L284.75835,1810.4427L284.15836,1808.2827L283.43836,1806.24269L282.83836,1804.32269
				L282.83836,1804.20269L282.83836,1802.52269L282.71836,1798.80268L282.35837,1797.12268L281.75837,1795.68268L280.43838,1793.16267
				L280.55838,1792.20267L281.15837,1790.88267L281.87837,1790.28267L282.11837,1789.80267L282.23837,1789.32267L282.35837,1788.96267
				L282.23837,1788.00267L282.35837,1786.56266L282.95836,1785.48266L283.91836,1784.64266L284.75835,1783.80266L287.27834,1781.16266
				L288.83833,1779.84265L290.63832,1778.16265L291.47831,1777.92265L293.3983,1778.76265L293.7583,1778.88265L295.67829,1779.36265
				L297.47828,1779.84265L299.87826,1780.80266L300.95826,1780.92266L302.63825,1780.68266L306.71822,1780.44266L307.43822,1778.64265
				L307.55822,1778.16265L307.67822,1777.56265L308.15822,1769.52264L308.51821,1759.92263L307.19822,1750.32261L306.23823,1746.60261
				L305.51823,1743.3626L305.15823,1738.32259L304.55824,1733.76259L303.59824,1731.36258L303.59824,1728.12258L303.11825,1726.80258
				L302.87825,1724.16257L301.91825,1722.48257L301.07826,1721.40257L300.59826,1718.40256L300.47826,1716.84256L300.47826,1715.76256
				L300.47826,1714.68256L299.63827,1712.28255L300.35826,1710.12255L300.83826,1707.72255L300.83826,1707.60255L300.23826,1704.72254
				L298.91827,1701.24254L295.55829,1696.32253L292.9183,1692.84253L291.71831,1689.72252L289.19833,1684.08251L288.35833,1680.48251
				L287.03834,1676.6425L286.55834,1674.6025L287.51834,1671.72249L289.67832,1668.84249L290.63832,1665.60248L292.55831,1661.64248
				L293.7583,1658.40247L294.71829,1655.76247L293.8783,1653.60247L292.31831,1651.56246L291.47831,1647.96246L289.91832,1644.00245
				L289.91832,1643.88245L289.91832,1641.00245L289.91832,1640.88245L288.11833,1636.20244L286.79834,1630.20243L284.87835,1623.96242
				L282.47837,1615.44241L280.67838,1609.5624L277.67839,1602.00239L275.8784,1597.08238L275.03841,1595.40238L273.11842,1594.56238
				L272.27842,1592.76238L270.23844,1591.08237L267.83845,1587.96237L267.11845,1585.20236L266.99845,1585.20236L268.55845,1584.60236
				L266.99845,1580.52236L269.51844,1579.68236L265.91846,1573.08235L265.91846,1569.96234L263.03848,1565.76234L261.83848,1562.64233
				L261.23849,1560.00233L260.39849,1558.44232L259.5585,1557.60232L259.4385,1555.80232L258.5985,1554.48232L258.5985,1554.36232
				L258.8385,1552.92232L258.9585,1552.80232L255.83852,1549.92231L251.99854,1547.04231L251.63854,1544.4023L249.83855,1541.6423
				L263.87847,1528.32228L264.59847,1517.76226L270.23844,1505.16225L283.31836,1494.24223L281.03837,1482.48221L280.67838,1467.84219
				L280.67838,1467.72219L289.19833,1433.64214L297.71828,1419.24212L322.07814,1398.36209L343.55801,1375.08205L367.55787,1366.80204
				L401.03768,1354.92202L409.31763,1337.762L417.35758,1314.96196L452.99738,1259.52188"/>
			<path clip-path="url(#SVG_CP_1)" fill="none" stroke="#000000" stroke-width="3.95998" stroke-miterlimit="10" stroke-linecap="round" stroke-linejoin="round" d="
				M452.99738,1259.52188L496.79712,1244.88186L504.95708,1236.72184L569.7567,1171.92175L642.71628,1113.48166L744.95569,1077.00161
				L825.23522,1098.96164L836.03516,1101.60164L836.27516,1101.72164L854.87505,1106.28165L873.95494,1111.08166L874.31494,1111.20166
				L874.79494,1111.32166L881.3949,1112.88166L891.59484,1115.52166L891.71484,1115.52166L891.83484,1115.52166L895.19482,1116.36167
				L898.9148,1117.32167L899.0348,1117.32167L899.15479,1117.44167L905.75476,1119.00167L907.79474,1119.60167L912.71472,1120.80167
				L912.83472,1120.80167L912.95471,1120.80167L932.3946,1113.00166L932.5146,1112.88166L932.6346,1112.88166L940.43456,1109.76166
				L967.6744,1098.84164L983.63431,1092.48163L985.91429,1091.64163L1003.43419,1059.00158L1003.55419,1058.76158L1003.55419,1058.64158
				L1036.914,996.72149L1069.55381,975.96146L1073.63378,973.44145L1075.07378,972.36145L1085.39372,965.88144L1117.31353,945.60141
				L1161.11328,887.16132L1234.07286,836.16125L1272.95263,840.96125L1275.59262,841.32126L1275.95261,841.32126L1278.9526,841.68126
				L1283.99257,842.40126L1292.51252,843.36126L1297.67249,838.92125L1298.63248,838.08125L1302.71246,834.48124L1303.07246,834.24124
				L1327.67231,813.12121L1337.15226,789.60118L1338.95225,786.00117L1349.39219,787.08117L1357.55214,788.64118L1366.67209,790.32118
				L1372.43205,794.52119L1377.83202,797.04119L1386.35197,801.8412L1397.03191,810.96121L1400.99189,817.20122L1403.87187,820.56122
				L1405.43186,825.60123L1407.47185,822.72123L1410.59183,821.88123L1413.95181,821.76123L1415.6318,819.60122L1416.9518,818.40122
				L1419.35178,817.56122L1423.43176,817.20122L1425.59175,815.88122L1427.99173,815.04122L1430.63172,813.48121L1432.9117,812.88121
				L1435.31169,810.48121L1438.55167,808.92121L1441.91165,808.08121L1444.19164,807.3612L1446.71162,807.3612L1449.35161,806.8812
				L1451.6316,806.1612L1453.79158,805.5612L1456.55157,804.7212L1457.99156,803.4012L1459.79155,801.7212L1461.11154,801.1212L
				1463.15153,799.44119L1465.43152,798.24119L1468.6715,796.44119L1470.47149,795.00119L1472.87147,792.96118L1476.11145,790.92118
				L1478.27144,788.88118L1480.19143,787.80118L1482.35142,787.08117L1485.1114,785.88117L1487.63139,784.80117L1490.15137,784.20117
				L1492.79136,783.60117L1495.19134,781.80117L1497.35133,780.72116L1499.87132,778.92116L1502.6313,777.36116L1505.39128,776.28116
				L1508.75127,774.60116L1510.91125,774.00115L1513.31124,773.64115L1515.59123,773.76115L1518.11121,774.12115L1520.2712,774.36116
				L1522.07119,775.08116L1524.35117,775.08116L1526.15116,774.48116L1528.19115,774.84116L1530.23114,774.96116L1531.79113,775.08116
				L1532.39113,775.44116L1533.11112,775.92116L1533.47112,776.52116L1534.19112,777.48116L1536.35111,778.08116L1537.7911,778.56116
				L1539.35109,778.80116L1541.75107,778.32116L1543.19107,778.08116L1543.91106,777.96116L1544.87106,777.84116L1545.95105,777.00116
				L1546.91104,775.80116L1547.15104,775.08116L1547.75104,774.60116L1549.43103,774.48116L1550.99102,773.88115L1552.43101,772.92115
				L1552.91101,771.96115L1553.63101,771.72115L1555.67099,771.36115L1559.75097,769.44115L1563.95095,767.64115L1565.15094,767.28114
				L1566.47093,767.40114L1567.31093,767.40114L1568.27092,767.40114L1569.83091,766.80114L1573.79089,765.00114L1577.39087,763.20114
				L1580.51085,762.60114L1585.31082,761.52114L1589.0308,761.16114L1592.27078,761.16114L1596.11076,760.80114L1599.23074,761.28114
				L1601.87073,760.68113L1603.67072,760.32113L1605.9507,759.72113L1607.0307,758.40113L1608.83069,757.44113L1610.39068,756.96113
				L1612.19067,755.88113L1614.47065,755.28113L1616.99064,755.52113L1619.03063,756.12113L1621.31061,755.52113L1625.03059,755.52113
				L1627.19058,755.16113L1627.43058,755.16113L1627.67058,755.16113L1629.83056,754.68113L1632.59055,754.44113L1633.79054,753.84112
				L1635.23053,752.88112L1636.91052,751.92112L1637.87052,751.20112L1638.47051,750.24112L1639.67051,749.88112L1650.11045,741.24111
				L1661.03038,732.96109L1667.99034,727.80109L1668.11034,727.68109L1668.35034,727.56109L1676.75029,721.32108L1681.55026,717.60107
				L1681.79026,717.48107L1681.91026,717.36107L1689.71022,711.48106L1689.83022,711.48106L1689.95022,711.36106L1708.55011,697.44104
				L1772.62974,665.28099L1774.30973,664.56099L1793.14962,655.08098L1793.74962,654.84098L1796.1496,653.64098L1811.14951,623.64093
				L1811.26951,623.52093L1811.62951,622.68093L1814.62949,616.56092L1817.62948,610.80091L1817.74948,610.44091L1817.86948,610.32091
				L1817.86948,610.08091L1817.98947,609.96091L1825.30943,595.20089L1828.78941,582.84087L1839.82935,542.16081L1840.90934,538.4408
				L1841.02934,537.8408L1841.14934,537.1208L1847.26931,514.92077L1883.74909,471.1207L1885.30909,465.48069L1900.309,410.28061
				L1900.789,408.84061L1902.10899,403.8006L1905.70897,390.84058L1913.02892,317.76047L1929.58883,279.84042L1932.34881,273.60041
				L1932.46881,273.12041L1964.02863,201.0003L1967.86861,199.0803L1968.2286,198.9603L2022.46829,171.72026L2027.26826,172.44026
				L2027.98826,172.44026L2060.98807,176.64026L2061.34807,176.64026L2080.90795,179.04027L2119.42773,193.92029L2119.78773,194.04029
				L2148.22756,204.96031L2148.58756,205.08031L2171.02743,213.72032L2171.38743,213.96032L2175.8274,215.64032L2196.22728,217.32032
				L2196.58728,217.32032L2231.62708,220.20033L2232.10708,220.32033"/>
		</g>
		<g id="sattlements">
			<path clip-path="url(#SVG_CP_1)" fill="#FF0000" fill-rule="evenodd" stroke="#000000" stroke-width="0.95999" stroke-miterlimit="10" stroke-linecap="round" stroke-linejoin="round" d="
				M1245.95279,1315.56196C1245.95279,1310.0612,1241.49357,1305.60195,1235.99284,1305.60195C1230.49212,1305.60195,1226.0329,1310.0612
				,1226.0329,1315.56196C1226.0329,1321.06273,1230.49212,1325.52198,1235.99284,1325.52198C1241.49357,1325.52198,1245.95279,1321.06273
				,1245.95279,1315.56196z"/>
			<path clip-path="url(#SVG_CP_1)" fill="#FF0000" fill-rule="evenodd" stroke="#000000" stroke-width="0.95999" stroke-miterlimit="10" stroke-linecap="round" stroke-linejoin="round" d="
				M1809.82952,1266.42189C1809.82952,1260.88799,1805.34344,1256.40187,1799.80958,1256.40187C1794.27572,1256.40187,1789.78964,1260.88799
				,1789.78964,1266.42189C1789.78964,1271.95579,1794.27572,1276.4419,1799.80958,1276.4419C1805.34344,1276.4419,1809.82952,1271.95579
				,1809.82952,1266.42189z"/>
			<path clip-path="url(#SVG_CP_1)" fill="#FF0000" fill-rule="evenodd" stroke="#000000" stroke-width="0.95999" stroke-miterlimit="10" stroke-linecap="round" stroke-linejoin="round" d="
				M2277.22682,1419.84212C2277.22682,1414.34135,2272.7676,1409.8821,2267.26687,1409.8821C2261.76615,1409.8821,2257.30693,1414.34135
				,2257.30693,1419.84212C2257.30693,1425.34288,2261.76615,1429.80213,2267.26687,1429.80213C2272.7676,1429.80213,2277.22682,1425.34288
				,2277.22682,1419.84212z"/>
			<path clip-path="url(#SVG_CP_1)" fill="#FF0000" fill-rule="evenodd" stroke="#000000" stroke-width="0.95999" stroke-miterlimit="10" stroke-linecap="round" stroke-linejoin="round" d="
				M2024.02828,935.2214C2024.02828,929.68749,2019.5422,925.20138,2014.00834,925.20138C2008.47448,925.20138,2003.9884,929.68749
				,2003.9884,935.2214C2003.9884,940.7553,2008.47448,945.24141,2014.00834,945.24141C2019.5422,945.24141,2024.02828,940.7553
				,2024.02828,935.2214z"/>
			<path clip-path="url(#SVG_CP_1)" fill="#FF0000" fill-rule="evenodd" stroke="#000000" stroke-width="0.95999" stroke-miterlimit="10" stroke-linecap="round" stroke-linejoin="round" d="
				M2994.94266,972.42145C2994.94266,966.88755,2990.45658,962.40144,2984.92272,962.40144C2979.38886,962.40144,2974.90278,966.88755
				,2974.90278,972.42145C2974.90278,977.95535,2979.38886,982.44147,2984.92272,982.44147C2990.45658,982.44147,2994.94266,977.95535
				,2994.94266,972.42145z"/>
			<path clip-path="url(#SVG_CP_1)" fill="#FF0000" fill-rule="evenodd" stroke="#000000" stroke-width="0.95999" stroke-miterlimit="10" stroke-linecap="round" stroke-linejoin="round" d="
				M2389.66616,756.60113C2389.66616,751.10036,2385.20695,746.64111,2379.70622,746.64111C2374.2055,746.64111,2369.74628,751.10036
				,2369.74628,756.60113C2369.74628,762.10189,2374.2055,766.56114,2379.70622,766.56114C2385.20695,766.56114,2389.66616,762.10189
				,2389.66616,756.60113z"/>
			<path clip-path="url(#SVG_CP_1)" fill="#FF0000" fill-rule="evenodd" stroke="#000000" stroke-width="0.95999" stroke-miterlimit="10" stroke-linecap="round" stroke-linejoin="round" d="
				M1943.86875,1464.24218C1943.86875,1458.74142,1939.38267,1454.28217,1933.8488,1454.28217C1928.31494,1454.28217,1923.82886,1458.74142
				,1923.82886,1464.24218C1923.82886,1469.74295,1928.31494,1474.2022,1933.8488,1474.2022C1939.38267,1474.2022,1943.86875,1469.74295
				,1943.86875,1464.24218z"/>
			<path clip-path="url(#SVG_CP_1)" fill="#FF0000" fill-rule="evenodd" stroke="#000000" stroke-width="0.95999" stroke-miterlimit="10" stroke-linecap="round" stroke-linejoin="round" d="
				M473.75726,1751.88261C473.75726,1746.38185,469.27118,1741.9226,463.73732,1741.9226C458.20345,1741.9226,453.71737,1746.38185
				,453.71737,1751.88261C453.71737,1757.38338,458.20345,1761.84263,463.73732,1761.84263C469.27118,1761.84263,473.75726,1757.38338
				,473.75726,1751.88261z"/>
			<path clip-path="url(#SVG_CP_1)" fill="#FF0000" fill-rule="evenodd" stroke="#000000" stroke-width="0.95999" stroke-miterlimit="10" stroke-linecap="round" stroke-linejoin="round" d="
				M1733.86996,1249.02186C1733.86996,1243.48796,1729.41074,1239.00185,1723.91002,1239.00185C1718.4093,1239.00185,1713.95008,1243.48796
				,1713.95008,1249.02186C1713.95008,1254.55576,1718.4093,1259.04188,1723.91002,1259.04188C1729.41074,1259.04188,1733.86996,1254.55576
				,1733.86996,1249.02186z"/>
			<path clip-path="url(#SVG_CP_1)" fill="#FF0000" fill-rule="evenodd" stroke="#000000" stroke-width="0.95999" stroke-miterlimit="10" stroke-linecap="round" stroke-linejoin="round" d="
				M2635.18474,831.36124C2635.18474,825.86048,2630.69866,821.40123,2625.1648,821.40123C2619.63094,821.40123,2615.14486,825.86048
				,2615.14486,831.36124C2615.14486,836.862,2619.63094,841.32126,2625.1648,841.32126C2630.69866,841.32126,2635.18474,836.862
				,2635.18474,831.36124z"/>
		</g>
		<g id="sattlements1">
			<path clip-path="url(#SVG_CP_1)" fill="#FF0000" fill-rule="evenodd" stroke="#000000" stroke-width="0.95999" stroke-miterlimit="10" stroke-linecap="round" stroke-linejoin="round" d="
				M1000.67421,1492.80223C1000.67421,1487.30146,996.18813,1482.84221,990.65426,1482.84221C985.1204,1482.84221,980.63432,1487.30146
				,980.63432,1492.80223C980.63432,1498.30299,985.1204,1502.76224,990.65426,1502.76224C996.18813,1502.76224,1000.67421,1498.30299
				,1000.67421,1492.80223z"/>
			<path clip-path="url(#SVG_CP_1)" fill="#FF0000" fill-rule="evenodd" stroke="#000000" stroke-width="0.95999" stroke-miterlimit="10" stroke-linecap="round" stroke-linejoin="round" d="
				M1063.31384,1426.62213C1063.31384,1421.08823,1058.85463,1416.60211,1053.3539,1416.60211C1047.85318,1416.60211,1043.39396,1421.08823
				,1043.39396,1426.62213C1043.39396,1432.15603,1047.85318,1436.64214,1053.3539,1436.64214C1058.85463,1436.64214,1063.31384,1432.15603
				,1063.31384,1426.62213z"/>
		</g>
		<g id="_Default_">
			<g font-family="'Sylfaen'" font-size="1" kerning="0" font-weight="700" fill="#000000" clip-path="url(#SVG_CP_1)" >
				<text text-anchor="start" transform="matrix(49.91971 0 0 49.92007 1238.75283 1303.20194)" >
					<tspan direction="ltr" unicode-bidi="embed" x="0 ">Pirveli Maisi</tspan>
					
				</text>
			</g>
		</g>
		<g id="sattlements_Anno_6">
			<g font-family="'Sylfaen'" font-size="1" kerning="0" font-weight="700" fill="#000000" clip-path="url(#SVG_CP_1)" >
				<text text-anchor="start" transform="matrix(49.91971 0 0 49.92007 988.91427 1536.36229)" >
					<tspan direction="ltr" unicode-bidi="embed" x="0 ">Kveda Makhuntseti</tspan>
					
				</text>
			</g>
			<g font-family="'Sylfaen'" font-size="1" kerning="0" font-weight="700" fill="#000000" clip-path="url(#SVG_CP_1)" >
				<text text-anchor="start" transform="matrix(49.91971 0 0 49.92007 1057.91388 1416.12211)" >
					<tspan direction="ltr" unicode-bidi="embed" x="0 ">Zeda Makhuntseti</tspan>
					
				</text>
			</g>
		</g>
		<g id="sattlements_Anno_7">
			<g font-family="'Sylfaen'" font-size="1" kerning="0" font-weight="700" fill="#000000" clip-path="url(#SVG_CP_1)" >
				<text text-anchor="start" transform="matrix(70.91971 0 0 70.92007 1811.26951 1244.40186)" >
					<tspan direction="ltr" unicode-bidi="embed" x="0 ">Keda</tspan>
					
				</text>
			</g>
			<g font-family="'Sylfaen'" font-size="1" kerning="0" font-weight="700" fill="#000000" clip-path="url(#SVG_CP_1)" >
				<text text-anchor="start" transform="matrix(49.91971 0 0 49.92007 2271.70685 1409.4021)" >
					<tspan direction="ltr" unicode-bidi="embed" x="0 ">Merisi</tspan>
					
				</text>
			</g>
			<g font-family="'Sylfaen'" font-size="1" kerning="0" font-weight="700" fill="#000000" clip-path="url(#SVG_CP_1)" >
				<text text-anchor="start" transform="matrix(49.91971 0 0 49.92007 2014.18834 923.88138)" >
					<tspan direction="ltr" unicode-bidi="embed" x="0 ">Zvare</tspan>
					
				</text>
			</g>
			<g font-family="'Sylfaen'" font-size="1" kerning="0" font-weight="700" fill="#000000" clip-path="url(#SVG_CP_1)" >
				<text text-anchor="start" transform="matrix(49.91971 0 0 49.92007 2985.82271 950.76142)" >
					<tspan direction="ltr" unicode-bidi="embed" x="0 ">Dandalo</tspan>
					
				</text>
			</g>
			<g font-family="'Sylfaen'" font-size="1" kerning="0" font-weight="700" fill="#000000" clip-path="url(#SVG_CP_1)" >
				<text text-anchor="start" transform="matrix(49.91971 0 0 49.92007 2379.52622 728.04109)" >
					<tspan direction="ltr" unicode-bidi="embed" x="0 ">Tsorianisi</tspan>
					
				</text>
			</g>
			<g font-family="'Sylfaen'" font-size="1" kerning="0" font-weight="700" fill="#000000" clip-path="url(#SVG_CP_1)" >
				<text text-anchor="start" transform="matrix(49.91971 0 0 49.92007 1933.9088 1452.96217)" >
					<tspan direction="ltr" unicode-bidi="embed" x="0 ">Oktomberi</tspan>
					
				</text>
			</g>
			<g font-family="'Sylfaen'" font-size="1" kerning="0" font-weight="700" fill="#000000" clip-path="url(#SVG_CP_1)" >
				<text text-anchor="start" transform="matrix(49.91971 0 0 49.92007 463.79732 1726.08257)" >
					<tspan direction="ltr" unicode-bidi="embed" x="0 ">Dologani</tspan>
					
				</text>
			</g>
			<g font-family="'Sylfaen'" font-size="1" kerning="0" font-weight="700" fill="#000000" clip-path="url(#SVG_CP_1)" >
				<text text-anchor="start" transform="matrix(49.91971 0 0 49.92007 1614.35065 1231.80184)" >
					<tspan direction="ltr" unicode-bidi="embed" x="0 ">Keda</tspan>
					
				</text>
			</g>
			<g font-family="'Sylfaen'" font-size="1" kerning="0" font-weight="700" fill="#000000" clip-path="url(#SVG_CP_1)" >
				<text text-anchor="start" transform="matrix(49.91971 0 0 49.92007 2625.2248 809.40121)" >
					<tspan direction="ltr" unicode-bidi="embed" x="0 ">Tskhmorisi</tspan>
					
				</text>
			</g>
		</g>
	</g>
</svg>
