<?xml version="1.0" encoding="utf-8" standalone="no"?>
<!-- Creator: Esri ArcMap 10.9.1.28388 -->
<!DOCTYPE svg PUBLIC "-//W3C//DTD SVG 1.1//EN"  "http://www.w3.org/Graphics/SVG/1.1/DTD/svg11.dtd">
<svg width="2592pt" height="3456pt" viewBox="0 0 2592 3456" enable-background="new 0 0 2592 3456"
	version="1.1" xmlns="http://www.w3.org/2000/svg" xmlns:xlink="http://www.w3.org/1999/xlink" >
	<g id="Layers">
		<g id="municipal">
			<path clip-path="url(#SVG_CP_1)" fill="#678dac" fill-rule="evenodd" stroke="none" d="M934.05866,379.80231L962.25802,419.40255
				L963.69799,418.80255L964.77796,418.32255L966.93791,417.60254L970.89782,416.16253L974.49774,415.20253L975.93771,414.72252
				L981.69757,414.24252L992.97732,412.68251L1006.05702,412.08251L1018.17674,411.3625L1019.8567,411.4825L1020.81668,411.6025
				L1023.33662,411.72251L1026.93654,411.96251L1031.61643,411.96251L1033.0564,411.96251L1037.97629,410.8825L1041.57621,411.3625
				L1044.81613,411.96251L1056.21587,412.80251L1056.57586,412.92251L1059.81579,413.28251L1060.29578,413.28251L1060.77577,413.40252
				L1066.05565,414.00252L1069.53557,413.88252L1078.89535,414.36252L1080.57532,414.48252L1083.81524,414.48252L1086.21519,414.48252
				L1088.25514,414.48252L1092.81504,416.40253L1093.05503,416.40253L1103.49479,415.44253L1103.73479,415.44253L1103.85478,415.44253
				L1107.21471,415.92253L1108.65467,416.16253L1110.09464,416.40253L1115.13453,417.12254L1120.17441,418.80255L1138.054,424.56258
				L1144.77385,426.7226L1145.13384,426.8426L1145.37384,426.9626L1154.13364,428.64261L1160.97348,429.84262L1160.97348,429.96262
				L1171.17325,434.64264L1171.53324,434.76265L1176.57312,437.16266L1187.85287,439.44267L1189.17283,439.68268L1194.33272,440.64268
				L1212.33231,444.2427L1215.45223,444.84271L1221.93209,445.44271L1231.89186,446.16271L1254.69134,447.96273L1267.89104,447.60272
				L1283.37068,446.64272L1284.81065,446.64272L1299.09032,445.68271L1304.97019,446.04271L1317.08991,447.84272L1331.84958,449.16273
				L1346.48924,449.16273L1360.04893,448.80273L1371.08868,448.80273L1386.92832,449.52274L1392.0882,449.40273L1396.4081,450.84274
				L1411.16776,454.92277L1420.64755,456.84278L1438.04715,460.3228L1438.16715,460.3228L1446.56695,461.88281L1454.48677,462.72282
				L1465.16653,465.96284L1492.52591,472.68288L1509.32552,476.1629L1520.48527,478.56291L1529.00507,481.08293L1530.92503,481.44293
				L1532.84498,481.80293L1545.4447,485.52295L1558.64439,490.20298L1574.96402,499.80304L1577.00398,500.88305L1580.00391,503.28306
				L1583.48383,506.88308L1586.00377,509.6431L1590.68366,513.36312L1593.80359,516.84314L1595.72355,520.32317L1598.72348,523.32318
				L1601.72341,525.3632L1603.28337,526.6832L1619.00302,541.9233L1630.16276,550.80335L1636.64261,557.40339L1641.08251,562.44342
				L1648.88233,569.88347L1655.72218,575.1635L1660.16208,578.64352L1663.642,582.12354L1669.28187,587.28357L1671.92181,589.08358
				L1685.12151,600.36365L1691.96135,606.60369L1692.32134,606.96369L1692.68133,607.32369L1693.40132,607.9237L1694.84128,609.24371
				L1698.20121,612.36373L1705.16105,618.60376L1705.40104,618.96377L1706.12103,619.68377L1709.48095,622.44379L1713.80085,626.40381
				L1714.88083,627.24382L1715.9608,628.32382L1717.76076,630.48384L1718.96073,631.92384L1719.92071,633.24385L1722.56065,636.60387
				L1724.24061,638.64389L1725.56058,642.48391L1727.72053,644.04392L1729.76049,645.60393L1735.88035,651.24396L1742.00021,656.884
				L1749.56003,664.08404L1754.95991,669.00407L1765.99966,677.52412L1768.99959,680.16414L1774.03947,685.32417L1779.19936,689.16419
				L1779.67935,689.5242L1784.95922,693.96422L1791.55907,699.00425L1793.47903,699.84426L1798.51891,702.12427L1800.91886,703.08428
				L1801.75884,703.44428L1808.1187,704.16428L1809.31867,705.12429L1821.79838,691.44421L1832.83813,679.08413L1835.23808,678.12413
				L1835.35807,678.24413L1835.59807,678.48413L1834.1581,681.36415L1811.59862,706.3243L1812.79859,709.92432L1817.71848,725.40441
				L1816.6385,725.64441L1815.67852,726.00442L1815.19853,726.96442L1815.07854,727.32442L1814.11856,729.24444L1810.87863,731.28445
				L1807.39871,731.52445L1802.35883,735.48447L1798.75891,737.52449L1794.07902,738.60449L1788.07915,739.6845L1782.79927,741.24451
				L1780.27933,741.96451L1771.63953,745.20453L1768.15961,747.48455L1761.91975,750.48457L1757.95984,753.24458L1751.71998,757.68461
				L1747.76007,761.40463L1743.44017,765.12465L1730.84046,782.04476L1728.20052,785.88478L1725.80058,789.3648L1723.64063,792.96482
				L1721.24068,796.56485L1717.04078,801.48488L1715.60081,803.52489L1712.36088,811.08493L1711.04091,814.20495L1710.08094,817.20497
				L1709.24095,819.48499L1707.441,824.16501L1706.00103,829.92505L1702.28111,846.36515L1696.76124,874.80532L1696.16125,880.56536
				L1696.04126,883.32537L1696.04126,889.68541L1694.72129,895.20545L1694.0013,899.16547L1692.68133,904.3255L1691.48136,908.52553
				L1690.16139,913.20556L1689.5614,915.60557L1688.72142,918.36559L1687.76145,921.48561L1673.60177,962.28585L1671.92181,967.44589
				L1670.60184,971.04591L1669.52186,974.40593L1668.32189,977.64595L1666.88192,981.24597L1665.56195,985.20599L1664.48198,987.84601
				L1657.40214,1006.68612L1654.8822,1013.40617L1650.56229,1025.40624L1647.92236,1032.36628L1645.04242,1038.84632L1621.04297,1103.64671
				L1622.72293,1104.84672L1624.76288,1105.56673L1629.68277,1107.12674L1630.64275,1107.48674L1631.60273,1107.84674L1636.28262,1108.80675
				L1642.16249,1109.04675L1647.20237,1108.20674L1652.84224,1106.52673L1657.16214,1105.56673L1658.72211,1105.68673L1659.56209,1107.36674
				L1661.00206,1109.28675L1661.72204,1113.72678L1665.08196,1122.00683L1669.88185,1131.12688L1673.48177,1140.48694L1676.84169,1146.60698
				L1816.39851,1188.36723L1884.79694,1208.76735L1889.83683,1210.32736L1927.51597,1221.48743L1949.47547,1228.08747L1958.59526,1230.84749
				L1972.63494,1235.04751L1974.67489,1235.64752L1983.79468,1238.40753L2018.71388,1248.8476L2019.55387,1249.0876L2021.11383,1249.5676
				L2029.15365,1261.32767L2031.91358,1265.4077L2023.27378,1284.60782L2023.15378,1284.60782L2005.15419,1281.3678L1998.91434,1280.16779
				L1995.67441,1279.56778L1992.19449,1278.84778L1990.75452,1278.36778L1990.63453,1278.36778L1987.63459,1277.28777L1981.51473,1274.64775
				L1977.07484,1272.96774L1972.87493,1271.88774L1972.39494,1273.44775L1971.67496,1275.72776L1965.6751,1275.24776L1962.43517,1274.88776
				L1960.15522,1274.76776L1958.11527,1274.52775L1859.95751,1266.4877L1857.79756,1266.3677L1855.8776,1266.1277L1843.51789,1265.1677
				L1822.87836,1263.48769L1673.96176,1251.24761L1673.84176,1276.68777L1673.84176,1280.28779L1673.84176,1285.32782L1673.84176,1288.44784
				L1673.84176,1290.24785L1673.84176,1294.32787L1673.84176,1297.56789L1673.72177,1308.84796L1673.72177,1311.12798L1673.72177,1313.28799
				L1673.72177,1315.448L1673.72177,1316.28801L1673.72177,1316.52801L1673.72177,1317.96802L1676.4817,1325.64806L1677.92167,1328.40808
				L1683.32155,1338.24814L1685.12151,1342.44817L1685.4815,1346.76819L1685.00151,1352.64823L1679.96162,1358.64827L1673.48177,1370.04833
				L1667.7219,1373.16835L1656.08217,1379.52839L1581.56387,1382.88841L1581.56387,1386.36843L1581.44387,1387.08844L1581.44387,1387.56844
				L1581.32388,1388.16845L1580.00391,1390.20846L1579.76391,1390.56846L1579.88391,1390.56846L1580.72389,1391.40846L1579.04393,1393.92848
				L1577.48396,1396.32849L1576.16399,1399.68852L1577.96395,1401.36853L1574.84402,1403.64854L1574.12404,1402.92853L1572.32408,1404.36854
				L1571.84409,1403.88854L1571.7241,1403.88854L1569.44415,1406.04855L1569.20415,1406.28856L1569.80414,1406.88856L1567.2842,1409.28857
				L1565.00425,1411.68859L1564.28427,1411.20859L1562.24431,1413.4886L1562.00432,1413.8486L1560.44435,1415.28861L1559.96436,1414.92861
				L1558.2844,1416.48862L1556.48444,1418.40863L1556.24445,1418.76863L1557.44442,1420.56864L1556.12445,1421.52865L1554.80448,1420.56864
				L1554.56449,1420.80864L1552.52453,1423.20866L1553.12452,1423.92866L1551.56456,1425.48867L1549.6446,1427.52868L1547.72464,1429.4487
				L1545.56469,1431.60871L1543.16475,1434.12872L1542.44476,1434.84873L1541.36479,1435.80873L1539.44483,1437.72875L1537.04489,1439.88876
				L1537.04489,1439.76876L1536.3249,1438.92875L1534.16495,1440.60876L1533.32497,1443.36878L1533.20498,1444.80879L1533.80496,1446.4888
				L1534.28495,1447.68881L1534.88494,1449.36882L1535.72492,1450.32882L1536.5649,1451.16883L1536.80489,1451.88883L1537.64487,1455.00885
				L1540.16482,1464.12891L1540.40481,1464.84891L1540.52481,1465.32891L1540.64481,1465.92892L1540.7648,1466.16892L1543.52474,1473.36896
				L1541.72478,1473.96897L1540.52481,1474.44897L1540.8848,1475.40898L1541.0048,1475.40898L1541.36479,1476.24898L1541.60478,1476.96899
				L1543.52474,1482.12902L1543.64474,1482.12902L1544.84471,1484.04903L1546.16468,1485.96904L1546.40467,1487.04905L1546.88466,1488.48906
				L1547.12466,1488.96906L1547.48465,1489.44906L1547.48465,1489.56906L1547.96464,1490.28907L1549.40461,1494.36909L1548.68462,1495.3291
				L1546.16468,1497.12911L1545.92469,1497.24911L1548.44463,1502.76914L1548.68462,1503.48915L1549.04461,1504.20915L1550.96457,1503.36915
				L1552.64453,1506.84917L1553.00452,1507.68917L1553.8445,1510.56919L1554.0845,1511.40919L1554.2045,1512.0092L1554.32449,1512.7292
				L1554.68449,1513.92921L1554.68449,1514.16921L1555.40447,1515.48922L1555.76446,1516.20922L1555.40447,1518.24924L1554.92448,1520.28925
				L1554.56449,1522.44926L1553.8445,1525.80928L1553.9645,1526.04928L1558.2844,1534.32933L1558.4044,1534.56934L1555.04448,1535.76934
				L1554.44449,1536.00934L1554.68449,1536.60935L1554.92448,1537.20935L1555.16447,1537.92936L1555.28447,1538.28936L1556.72444,1541.76938
				L1557.92441,1545.7294L1558.4044,1547.04941L1555.04448,1547.76942L1551.20456,1549.08942L1550.96457,1549.20942L1551.68455,1551.24944
				L1552.88453,1554.48946L1553.72451,1557.00947L1554.0845,1557.72948L1550.72458,1558.92948L1552.28454,1561.3295L1553.48451,1564.20952
				L1546.76467,1566.72953L1547.60465,1569.84955L1548.32463,1572.60957L1548.56462,1573.20957L1549.16461,1576.08959L1550.12459,1575.84959
				L1551.44456,1575.48958L1552.52453,1578.6096L1553.36452,1581.84962L1553.9645,1584.60964L1554.32449,1585.68965L1554.56449,1586.64965
				L1554.56449,1587.00965L1554.80448,1587.84966L1553.8445,1588.08966L1553.72451,1590.48968L1553.12452,1591.20968L1552.76453,1591.68968
				L1553.12452,1592.88969L1553.48451,1593.9697L1553.72451,1594.6897L1556.24445,1594.0897L1557.80441,1593.60969L1557.92441,1593.60969
				L1558.5244,1596.84971L1558.5244,1596.96972L1569.56415,1593.36969L1570.76412,1596.48971L1566.56421,1598.04972L1567.40419,1601.16974
				L1562.9643,1602.48975L1561.88432,1602.84975L1562.00432,1602.84975L1563.80428,1605.48977L1564.16427,1608.00978L1564.64426,1610.8898
				L1562.24431,1611.2498L1562.24431,1611.3698L1561.64433,1614.60982L1562.00432,1617.12984L1564.88425,1616.28983L1566.08422,1620.00986
				L1566.92421,1623.48988L1567.40419,1626.00989L1567.64419,1626.6099L1567.76419,1627.3299L1567.76419,1628.0499L1567.76419,1630.92992
				L1568.24418,1633.80994L1568.12418,1637.40996L1568.72416,1641.12998L1569.92414,1643.89L1568.84416,1648.45003L1568.84416,1648.69003
				L1568.84416,1649.05003L1568.84416,1649.41003L1568.60417,1655.29007L1568.60417,1655.53007L1568.48417,1656.01007L1569.80414,1660.3301
				L1574.72403,1664.17012L1583.24383,1664.29012L1585.16379,1677.97021L1586.00377,1685.53025L1586.00377,1688.53027L1586.36376,1691.17029
				L1586.60376,1692.9703L1586.96375,1694.53031L1587.56373,1696.21032L1588.16372,1698.37033L1587.20374,1700.17034L1587.20374,1700.41034
				L1587.20374,1702.57036L1587.20374,1702.93036L1586.84375,1706.89038L1583.00384,1706.89038L1581.56387,1706.89038L1580.60389,1706.77038
				L1577.48396,1706.65038L1573.16406,1705.93038L1572.44408,1705.81038L1568.12418,1703.65036L1566.68421,1701.97035L1561.16434,1701.61035
				L1558.5244,1701.97035L1556.48444,1702.57036L1553.72451,1703.53036L1553.48451,1703.65036L1553.36452,1703.65036L1552.64453,1703.89037
				L1549.16461,1705.45038L1547.48465,1706.65038L1544.84471,1707.01038L1544.60472,1708.57039L1543.76473,1714.45043L1544.72471,1715.41044
				L1544.96471,1715.77044L1549.5246,1722.01048L1558.04441,1737.13057L1574.00404,1765.33074L1572.92407,1775.1708L1571.24411,1791.2509
				L1575.924,1803.73097L1580.84389,1817.05105L1583.24383,1817.29106L1599.92345,1819.45107L1600.76343,1819.45107L1618.64302,1864.69134
				L1625.36287,1881.37145L1627.76282,1887.61148L1642.88247,1910.05162L1648.52234,1909.45162L1653.08224,1908.97161L1653.56223,1908.97161
				L1653.68222,1908.97161L1653.68222,1918.81167L1653.80222,1938.37179L1655.24219,1942.57182L1658.36212,1950.97187L1664.72197,1968.49198
				L1667.7219,1976.65202L1668.08189,1983.37207L1668.32189,1988.5321L1669.52186,2010.49223L1670.84183,2033.29237L1671.68181,2050.45247
				L1672.0418,2055.85251L1672.4018,2062.81255L1672.52179,2063.89256L1672.64179,2064.85256L1680.32162,2107.21282L1683.08155,2122.33291
				L1684.04153,2127.25294L1688.00144,2149.33308L1688.36143,2150.89308L1690.88137,2151.13309L1705.52104,2151.97309L1706.36102,2152.09309
				L1707.321,2152.09309L1707.56099,2157.73313L1707.68099,2160.49314L1707.92098,2165.65317L1708.64097,2183.65328L1708.76097,2185.5733
				L1703.72108,2195.05335L1701.80112,2198.65338L1703.48109,2212.81346L1705.04105,2226.01354L1706.00103,2233.57359L1717.52077,2330.05417
				L1718.96073,2341.81425L1720.88069,2348.77429L1721.24068,2350.2143L1732.40043,2390.53454L1746.5601,2441.17485L1752.19997,2461.45497
				L1757.71985,2477.41507L1769.11959,2510.05527L1769.11959,2509.93527L1768.99959,2509.93527L1769.71957,2511.85528L1770.79955,2515.5753
				L1772.11952,2519.17533L1773.43949,2522.89535L1774.75946,2526.61537L1776.19942,2530.8154L1778.35938,2535.25542L1780.75932,2540.17545
				L1783.03927,2541.73546L1786.0392,2540.77546L1789.03913,2541.61546L1789.87911,2542.21547L1791.79907,2543.65547L1794.919,2549.89551
				L1797.55894,2555.05554L1798.15892,2557.21556L1798.75891,2559.49557L1798.87891,2560.09557L1798.9989,2560.81558L1799.1189,2562.01559
				L1799.3589,2564.6556L1800.07888,2568.01562L1800.19888,2568.49563L1800.79886,2571.85565L1802.23883,2574.85566L1803.19881,2578.69569
				L1803.91879,2582.65571L1804.99877,2585.29573L1807.15872,2589.49575L1808.35869,2592.85577L1809.67866,2596.4558L1810.51864,2599.69582
				L1810.99863,2601.01582L1811.95861,2603.77584L1813.63857,2607.61586L1814.95854,2609.89588L1816.39851,2612.17589L1817.95847,2614.57591
				L1818.91845,2617.09592L1819.75843,2619.25593L1820.71841,2621.77595L1821.67839,2624.29596L1822.39837,2626.57598L1822.75836,2628.61599
				L1823.35835,2634.61603L1823.35835,2637.61605L1815.79852,2659.69618L1813.87856,2662.09619L1812.91859,2663.1762L1811.47862,2664.73621
				L1808.59868,2667.97623L1804.27878,2673.49626L1802.11883,2676.25628L1795.03899,2683.69633L1788.79914,2690.41637L1788.67914,2690.41637
				L1771.03954,2690.89637L1758.67983,2692.21638L1753.51994,2708.65648L1753.15995,2709.73648L1751.59999,2709.49648L1751.24,2709.49648
				L1745.72012,2717.65653L1738.0403,2729.0566L1752.43997,2775.73689L1754.71992,2776.93689L1755.67989,2777.05689L1757.59985,2782.09692
				L1761.19977,2784.85694L1764.3197,2785.93695L1765.87966,2786.41695L1768.99959,2786.89695L1770.31956,2787.49696L1770.67955,2787.61696
				L1770.91955,2787.73696L1771.39953,2788.57696L1771.51953,2788.81697L1771.99952,2789.65697L1775.47944,2794.097L1777.75939,2798.65703
				L1778.95936,2801.17704L1778.95936,2801.29704L1780.51933,2805.97707L1780.75932,2806.45707L1782.19929,2809.21709L1782.79927,2810.6571
				L1783.03927,2811.1371L1783.87925,2813.05711L1784.59923,2815.45713L1785.31922,2817.73714L1785.9192,2819.77715L1786.75918,2822.65717
				L1789.27913,2821.81717L1790.11911,2825.17719L1790.2391,2828.89721L1791.19908,2831.65723L1791.31908,2831.77723L1792.51905,2835.61725
				L1793.35903,2838.37727L1793.83902,2838.49727L1795.39899,2838.97727L1795.99897,2841.25728L1796.23897,2842.33729L1796.83895,2844.4973
				L1798.51891,2851.45735L1798.87891,2852.65735L1800.19888,2855.29737L1802.59882,2859.8574L1804.39878,2867.05744L1804.75877,2868.37745
				L1804.87877,2871.01747L1804.99877,2871.61747L1805.59875,2874.61749L1806.31874,2878.09751L1807.15872,2882.77754L1807.9987,2886.85756
				L1809.07867,2892.3776L1810.15865,2897.65763L1810.99863,2901.49765L1811.47862,2904.01767L1811.59862,2904.73767L1812.91859,2910.73771
				L1813.87856,2915.29773L1814.59855,2918.65776L1815.91852,2921.65777L1817.83847,2926.81781L1819.99842,2933.29784L1820.9584,2936.05786
				L1822.27837,2940.01789L1823.71834,2944.21791L1823.95833,2944.93792L1825.3983,2948.89794L1826.47828,2952.13796L1828.27824,2957.29799
				L1829.9582,2964.61803L1830.55818,2967.37805L1831.51816,2970.25807L1831.75816,2970.73807L1832.47814,2973.85809L1832.71813,2974.45809
				L1833.55811,2976.61811L1834.1581,2978.89812L1833.91811,2982.37814L1834.0381,2982.49814L1834.87808,2985.01816L1834.99808,2985.13816
				L1836.43805,2989.21818L1836.55805,2989.45819L1836.79804,2989.45819L1836.91804,2989.33819L1837.03804,2989.33819L1837.15803,2990.05819
				L1838.95799,2996.05823L1839.19799,2996.53823L1840.75795,3001.09826L1841.11794,3001.93826L1841.95792,3004.45828L1843.0379,3005.17828
				L1843.1579,3005.29828L1845.31785,3012.97833L1845.43784,3013.57833L1847.1178,3019.57837L1848.07778,3023.65839L1848.91776,3027.01841
				L1849.87774,3030.25843L1850.11774,3030.85844L1852.15769,3035.41847L1852.75768,3039.49849L1852.75768,3039.85849L1853.47766,3045.37853
				L1853.47766,3045.97853L1853.83765,3049.81855L1854.31764,3051.85857L1855.63761,3056.17859L1857.43757,3062.77863L1857.55757,3062.89863
				L1858.03756,3064.69864L1858.87754,3069.01867L1861.39748,3074.2987L1861.75747,3079.21873L1863.43743,3083.53876L1865.23739,3088.09879
				L1866.91735,3092.53881L1868.83731,3097.21884L1868.83731,3097.33884L1868.83731,3097.45884L1870.51727,3101.65887L1871.95724,3105.49889
				L1872.31723,3106.4589L1872.43723,3107.0589L1873.87719,3111.85893L1878.67708,3128.05903L1879.27707,3132.73906L1879.51706,3135.85908
				L1879.87706,3137.89909L1879.99705,3138.49909L1880.23705,3139.6991L1881.07703,3143.53912L1881.07703,3143.77912L1881.31702,3144.73913
				L1881.67702,3148.09915L1881.67702,3148.69915L1881.67702,3151.45917L1881.67702,3152.05918L1881.67702,3156.1392L1881.67702,3165.37926
				L1888.15687,3182.53936L1892.23677,3193.09942L1892.35677,3193.57943L1892.59677,3194.77944L1892.59677,3195.01944L1892.71676,3195.97944
				L1892.95676,3197.17945L1893.07675,3197.89945L1893.31675,3200.05947L1893.43675,3201.13947L1893.31675,3202.33948L1893.55674,3203.41949
				L1893.67674,3203.77949L1894.27673,3205.9395L1901.11657,3221.8996L1901.47656,3223.09961L1901.59656,3223.57961L1905.79646,3236.77969
				L1904.71649,3237.49969L1903.75651,3238.4597L1901.83655,3241.45972L1900.99657,3241.93972L1900.51658,3242.17972L1900.51658,3242.29972
				L1903.99651,3247.69976L1936.63576,3298.94007L1936.51576,3298.82007L1906.03646,3284.41998L1871.59725,3267.97988L1858.15755,3261.25984
				L1856.47759,3260.17983L1853.95765,3255.3798L1849.63775,3245.65974L1844.71786,3234.73968L1839.43798,3222.3796L1833.67811,3213.01955
				L1829.35821,3205.0995L1822.63836,3192.25942L1819.27844,3184.93938L1823.47834,3176.29932L1825.15831,3165.85926L1822.87836,3157.21921
				L1821.67839,3149.05916L1819.75843,3132.49906L1806.43873,3097.57884L1799.3589,3061.21862L1774.39947,3004.93828L1746.92009,2962.69802
				L1738.64028,2936.05786L1738.88028,2926.6978L1731.44045,2909.8977L1719.68072,2897.29763L1717.52077,2887.33756L1704.32107,2867.29744
				L1695.32127,2839.69728L1694.2413,2831.17722L1694.1213,2831.17722L1650.80229,2838.25727L1650.68229,2838.25727L1644.08244,2838.01726
				L1626.32285,2825.65719L1618.40303,2815.45713L1612.76316,2809.21709L1601.48342,2793.01699L1595.96354,2784.61694L1590.20367,2776.81689
				L1584.8038,2767.33683L1560.44435,2731.93662L1559.72437,2730.73661L1558.88439,2729.1766L1541.24479,2698.21641L1528.64508,2674.09627
				L1520.00528,2658.13617L1496.12582,2616.25592L1489.28598,2606.41586L1479.4462,2592.13577L1470.8064,2577.25568L1453.1668,2552.53553
				L1438.40714,2530.57539L1436.84718,2528.17538L1425.68743,2511.49528L1420.52755,2497.8152L1410.32778,2480.65509L1410.44778,2480.65509
				L1362.20888,2408.17465L1344.92928,2387.05452L1330.7696,2361.49437L1304.01021,2314.21408L1304.3702,2312.65407L1295.13041,2290.09393
				L1188.81284,2105.65281L1188.69285,2105.65281L1185.69291,2106.97282L1185.69291,2106.85282L1167.81332,2086.33269L1167.93332,2085.97269
				L1147.41379,2048.53246L1131.93414,2023.45231L1122.21436,2014.09225L1115.13453,1999.33216L1106.61472,1991.41211L1101.45484,1984.81207
				L1098.09492,1980.85205L1093.89501,1972.092L1092.45504,1970.41199L1087.41516,1964.29195L1083.93524,1959.49192L1081.1753,1951.21187
				L1077.57538,1945.93184L1072.5355,1939.6918L1068.81558,1935.61178L1063.29571,1928.89173L1063.29571,1928.77173L1063.17571,1928.77173
				L1030.53646,1888.45149L1014.33683,1868.41137L1009.77693,1861.93133L1008.81695,1857.4913L1006.17702,1845.01122L1003.89707,1833.61115
				L1002.09711,1824.7311L1001.13713,1820.29107L999.81716,1813.57103L997.05722,1798.81094L995.49726,1789.69089L993.21731,1775.8908
				L992.13734,1768.81076L991.65735,1761.61072L991.05736,1745.41062L990.93736,1739.29058L990.57737,1720.93047L991.89734,1713.97043
				L991.65735,1702.21036L990.45737,1684.21025L988.05743,1664.65013L986.73746,1654.21006L984.33751,1648.09003L982.53756,1636.44996
				L982.53756,1636.08995L979.53762,1622.76987L975.93771,1608.48979L975.57771,1607.28978L974.01775,1601.16974L968.25788,1580.04961
				L964.89796,1567.80954L962.37802,1559.04948L960.57806,1552.44944L959.37808,1547.76942L957.81812,1542.12938L956.85814,1538.64936
				L956.13816,1536.72935L950.37829,1523.88927L944.73842,1511.7692L940.89851,1503.84915L936.33861,1494.48909L937.05859,1494.12909
				L937.41859,1493.88909L937.89858,1493.64909L938.73856,1493.16908L940.29852,1492.08908L940.29852,1491.96908L940.29852,1491.84908
				L939.21854,1489.68906L939.09855,1489.44906L939.09855,1489.32906L938.97855,1489.20906L938.97855,1488.96906L938.85855,1488.96906
				L938.73856,1488.96906L928.41879,1492.20908L926.37884,1492.92908L925.89885,1493.04908L924.09889,1493.64909L918.09903,1495.6891
				L917.85903,1495.2091L921.33895,1494.12909L925.53886,1492.68908L917.01905,1477.80899L914.49911,1479.369L913.89912,1479.609
				L912.69915,1480.32901L912.33916,1480.32901L911.25918,1480.56901L910.5392,1480.68901L908.13925,1482.00902L907.17928,1482.36902
				L906.0993,1482.60902L905.37932,1482.84902L904.65933,1483.08902L903.93935,1483.32902L903.09937,1483.44902L901.6594,1483.56903
				L901.05942,1483.56903L900.33943,1483.56903L899.13946,1483.80903L898.29948,1484.40903L897.4595,1484.76903L896.85951,1485.12903
				L896.37952,1485.36904L891.81963,1487.04905L891.09964,1487.28905L890.25966,1487.52905L889.65968,1487.76905L889.17969,1488.36905
				L885.69977,1489.80906L883.41982,1490.52907L882.33984,1490.88907L878.61993,1491.24907L874.66002,1491.96908L869.98013,1492.56908
				L868.30016,1492.44908L867.58018,1492.68908L866.8602,1493.04908L865.66023,1493.16908L863.86027,1492.80908L863.14028,1492.44908
				L859.54037,1492.20908L858.34039,1492.08908L857.74041,1492.20908L856.78043,1491.96908L855.22046,1491.48907L854.74047,1491.12907
				L854.38048,1491.12907L853.90049,1490.88907L853.5405,1491.00907L853.30051,1490.88907L853.06051,1491.12907L852.22053,1491.36907
				L851.50055,1491.36907L851.14056,1491.24907L850.78057,1491.12907L850.66057,1491.00907L850.30058,1490.76907L848.86061,1490.28907
				L847.66064,1490.28907L846.94065,1490.04906L846.10067,1489.44906L845.26069,1489.08906L844.7807,1488.72906L844.30071,1488.60906
				L843.34074,1488.36905L842.86075,1488.36905L842.50075,1488.36905L841.90077,1488.36905L841.30078,1488.36905L840.82079,1488.12905
				L840.4608,1487.88905L840.10081,1487.76905L839.50082,1487.16905L837.94086,1486.32904L835.66091,1485.72904L832.78098,1484.28903
				L831.821,1483.68903L830.98102,1482.96902L830.38103,1482.60902L829.78104,1482.24902L828.94106,1482.00902L828.34108,1481.88902
				L827.5011,1481.76901L825.82114,1480.209L823.30119,1478.52899L820.90125,1477.20899L820.42126,1476.72898L819.82127,1476.48898
				L818.86129,1476.24898L818.38131,1475.76898L817.54132,1474.92897L816.46135,1473.12896L815.50137,1472.28896L814.66139,1470.96895
				L814.4214,1470.24894L814.0614,1468.32893L814.0614,1467.36893L814.0614,1466.16892L814.54139,1463.2889L815.86136,1459.08888
				L816.10136,1457.16886L817.06134,1454.52885L816.94134,1453.44884L816.82134,1452.84884L817.90132,1449.72882L818.7413,1447.68881
				L819.46128,1445.64879L820.06127,1442.64878L821.02125,1440.96877L821.74123,1438.68875L821.74123,1438.32875L821.86123,1437.96875
				L822.46121,1437.24874L822.58121,1436.88874L822.70121,1436.52874L822.8212,1436.04874L822.58121,1435.44873L822.8212,1434.96873
				L823.90118,1433.40872L824.02118,1432.92872L824.02118,1432.08871L824.62116,1431.12871L824.74116,1430.7687L824.74116,1430.4087
				L824.74116,1430.0487L824.86116,1429.6887L824.98115,1429.20869L824.98115,1428.96869L824.98115,1428.60869L824.74116,1427.88869
				L824.86116,1427.28868L824.98115,1427.04868L825.22115,1426.56868L825.34115,1425.96867L825.46114,1424.88867L825.58114,1424.64867
				L825.94113,1424.40867L826.30112,1424.04866L826.66112,1423.20866L826.90111,1422.60865L827.02111,1422.00865L826.90111,1420.92864
				L827.02111,1419.96864L827.3811,1419.60864L827.74109,1419.00863L828.10108,1418.40863L828.58107,1417.20862L828.58107,1416.48862
				L828.46108,1415.88861L828.22108,1415.52861L828.10108,1415.16861L827.98109,1414.68861L828.82107,1414.0886L829.30106,1411.80859
				L829.90104,1411.08858L830.02104,1409.76858L830.74102,1406.88856L830.74102,1406.52856L831.34101,1405.92855L831.46101,1404.48854
				L831.941,1401.48853L832.30099,1400.64852L833.14097,1398.84851L833.38096,1398.48851L833.50096,1398.0085L833.38096,1396.8085
				L833.98095,1395.84849L834.94093,1394.16848L834.82093,1393.68848L834.82093,1393.44848L834.94093,1393.32848L835.42092,1392.60847
				L836.1409,1388.88845L836.2609,1388.52845L836.1409,1387.44844L836.50089,1386.48843L836.74089,1385.76843L836.74089,1385.28843
				L836.74089,1384.80842L836.74089,1384.08842L836.86088,1383.72842L838.18085,1381.5684L838.78084,1380.6084L838.90084,1379.04839
				L839.14083,1376.76838L839.26083,1376.40837L839.50082,1376.04837L839.86081,1375.80837L840.10081,1375.32837L840.22081,1374.84836
				L840.22081,1373.88836L840.5808,1371.96835L840.22081,1371.24834L839.86081,1370.88834L839.14083,1370.04833L839.02083,1369.20833
				L838.90084,1367.40832L838.54084,1365.48831L838.66084,1365.24831L838.66084,1364.8883L838.66084,1364.6483L838.42085,1364.5283
				L838.18085,1364.1683L837.82086,1363.6883L837.46087,1361.28828L837.10088,1359.00827L836.1409,1356.24825L834.58094,1350.12821
				L833.74095,1347.7282L833.62096,1346.88819L833.74095,1346.52819L833.74095,1346.16819L833.74095,1345.80819L833.50096,1345.32818
				L833.26097,1345.20818L833.02097,1344.72818L833.02097,1344.24818L833.14097,1343.52817L833.14097,1343.28817L833.02097,1343.04817
				L832.66098,1342.80817L832.30099,1341.72816L832.30099,1340.64816L832.06099,1340.28815L831.821,1339.92815L831.46101,1339.68815
				L831.34101,1339.44815L831.46101,1338.60814L830.86102,1334.88812L830.98102,1334.52812L830.86102,1334.16812L830.62103,1333.56811
				L830.26103,1333.08811L829.90104,1332.2481L829.78104,1331.8881L830.02104,1330.9281L830.02104,1330.20809L829.42105,1328.64808
				L829.18106,1328.16808L829.06106,1327.80808L829.06106,1327.44808L828.94106,1326.96807L828.82107,1326.60807L828.34108,1325.76807
				L827.98109,1323.72805L827.74109,1323.60805L827.5011,1323.36805L827.14111,1323.00805L827.2611,1322.04804L827.14111,1321.56804
				L826.90111,1320.36803L826.78111,1319.40803L826.90111,1318.92802L826.66112,1318.56802L826.06113,1317.48802L825.46114,1315.448
				L824.62116,1310.88797L824.38117,1309.08796L823.30119,1305.96795L823.30119,1305.36794L823.30119,1304.76794L823.30119,1304.40794
				L822.8212,1303.32793L822.34121,1302.36792L822.10122,1300.56791L825.46114,1299.48791L825.94113,1300.20791L826.30112,1301.28792
				L826.18113,1301.52792L825.94113,1302.60792L826.78111,1305.12794L827.5011,1307.52795L827.74109,1309.08796L827.3811,1309.56797
				L827.3811,1310.04797L827.98109,1310.64797L828.34108,1311.36798L829.06106,1312.68799L829.06106,1313.40799L828.58107,1314.00799
				L828.46108,1314.488L828.46108,1314.728L828.58107,1315.448L829.66105,1317.24801L829.66105,1318.68802L830.14104,1320.12803
				L830.62103,1320.72803L830.98102,1320.96804L830.98102,1321.56804L830.62103,1322.64805L831.34101,1326.24807L832.54098,1326.36807
				L832.90097,1326.60807L833.38096,1329.84809L833.74095,1330.8081L834.22094,1332.36811L835.30092,1337.04813L836.0209,1339.32815
				L837.10088,1343.64817L837.46087,1345.56819L838.06086,1347.6082L838.78084,1350.12821L839.86081,1354.80824L841.54078,1360.80828
				L843.70073,1369.32833L845.0207,1369.08833L845.74068,1368.96833L846.58066,1369.32833L847.06065,1369.56833L847.18065,1369.92833
				L847.30064,1370.04833L847.42064,1370.28834L847.42064,1370.52834L847.42064,1370.64834L847.18065,1371.24834L847.06065,1371.36834
				L846.22067,1373.28835L844.06072,1378.32839L841.30078,1387.44844L838.42085,1398.24851L836.74089,1403.88854L834.82093,1410.00858
				L833.62096,1414.2086L833.02097,1416.60862L831.46101,1421.88865L830.02104,1426.80868L829.30106,1429.9287L828.58107,1431.84871
				L827.5011,1435.08873L827.74109,1435.20873L827.02111,1437.24874L826.42112,1438.68875L825.46114,1441.20877L820.54126,1457.16886
				L820.66125,1457.88887L819.70128,1461.24889L819.22129,1461.72889L818.6213,1463.88891L818.26131,1466.40892L818.38131,1467.12893
				L818.7413,1468.32893L819.22129,1469.28894L820.66125,1471.56895L822.10122,1472.76896L821.86123,1473.36896L825.94113,1475.88898
				L828.22108,1477.20899L836.2609,1482.00902L840.3408,1483.92903L842.62075,1484.76903L845.50069,1485.84904L848.14063,1486.56904
				L848.26062,1483.80903L849.4606,1483.92903L849.4606,1486.92905L851.74054,1487.28905L861.94031,1488.84906L864.70025,1489.08906
				L866.50021,1489.08906L873.10006,1488.48906L872.74006,1486.32904L876.93997,1485.24904L877.29996,1487.04905L881.13987,1486.20904
				L883.89981,1485.36904L886.53975,1484.64903L886.89974,1484.52903L895.77954,1482.12902L899.25946,1481.04901L898.77947,1479.009
				L900.81942,1478.28899L909.57922,1476.12898L912.57915,1474.80897L919.53899,1471.44895L919.89899,1471.20895L920.49897,1471.56895
				L924.09889,1468.08893L926.85883,1465.56892L927.09882,1465.20891L928.0588,1465.80892L928.77878,1465.68892L929.13878,1465.32891
				L929.61876,1464.96891L932.2587,1462.08889L933.93867,1460.40888L934.17866,1460.64889L934.77865,1459.92888L934.53865,1459.44888
				L934.41865,1458.84888L934.29866,1458.36887L937.77858,1428.24869L926.85883,1427.04868L918.69901,1426.08868L912.45916,1425.24867
				L906.93928,1424.64867L901.17941,1423.92866L889.05969,1422.60865L887.85972,1422.36865L888.4597,1418.04863L889.05969,1413.0086
				L889.17969,1410.84858L890.01967,1403.64854L890.13967,1403.28854L890.37966,1403.04854L890.49966,1403.04854L890.73965,1403.04854
				L898.29948,1403.88854L915.57908,1405.92855L921.33895,1406.52856L927.9388,1407.36856L935.25864,1408.32857L938.37856,1408.68857
				L941.97848,1409.04857L942.09848,1408.68857L945.21841,1408.68857L945.5784,1406.40856L947.49836,1406.52856L947.49836,1404.36854
				L944.97841,1403.28854L945.33841,1402.44853L947.73835,1403.28854L948.81833,1395.72849L948.33834,1395.48849L948.21834,1395.36849
				L948.57833,1391.40846L948.69833,1391.28846L948.93832,1391.16846L949.29831,1391.28846L949.53831,1391.40846L949.17832,1395.12849
				L952.65824,1395.36849L953.01823,1391.76847L953.49822,1385.88843L949.8983,1385.52843L949.53831,1390.56846L949.29831,1390.68846
				L948.93832,1390.68846L948.69833,1390.56846L948.93832,1386.84844L949.17832,1384.44842L943.53845,1383.96842L943.65844,1382.76841
				L943.65844,1382.52841L944.01844,1382.40841L944.37843,1382.40841L948.93832,1382.76841L956.97814,1383.60842L964.65796,1384.32842
				L972.81778,1385.16843L984.45751,1386.48843L990.21738,1386.96844L1014.33683,1389.48845L1040.61623,1392.12847L1048.41605,1392.96847
				L1053.93592,1393.56848L1058.85581,1394.04848L1059.4558,1393.92848L1063.41571,1394.40848L1068.0956,1394.88849L1070.85554,1395.12849
				L1077.69538,1395.72849L1083.21526,1396.32849L1101.09485,1398.12851L1101.69483,1392.36847L1101.93483,1389.12845L1104.81476,1356.36825
				L1084.89522,1354.44824L1070.37555,1352.88823L1064.49568,1352.28823L1060.05578,1351.80822L1051.17599,1350.96822L1044.45614,1350.12821
				L1031.97643,1348.80821L1014.81682,1347.00819L1010.61691,1346.52819L999.21717,1345.32818L996.69723,1347.00819L989.3774,1351.32822
				L981.57758,1356.00825L978.33765,1357.92826L971.25781,1362.24829L963.69799,1366.68831L962.61801,1367.40832L962.25802,1369.68833
				L961.89803,1370.40834L961.29804,1371.00834L960.57806,1371.36834L959.97807,1371.36834L952.29825,1370.52834L945.4584,1369.80833
				L945.09841,1369.44833L945.21841,1368.60833L945.33841,1368.48833L949.7783,1368.84833L952.65824,1369.20833L953.01823,1365.72831
				L953.37822,1360.20827L878.97992,1352.64823L878.61993,1351.92822L877.77995,1350.12821L878.13994,1346.04819L878.37993,1344.60818
				L876.09999,1345.32818L874.90001,1345.92819L874.90001,1346.16819L874.30003,1346.40819L873.70004,1346.64819L872.98006,1346.76819
				L872.38007,1346.76819L872.02008,1346.64819L871.90008,1346.40819L871.66009,1345.44819L871.66009,1345.08818L871.78009,1344.60818
				L876.57998,1343.28817L880.41989,1342.32817L882.69984,1341.96816L884.85979,1341.96816L888.09971,1336.68813L888.93969,1324.08806
				L888.93969,1323.96805L887.97972,1323.96805L887.73972,1323.96805L887.73972,1323.84805L888.21971,1319.64803L889.29969,1319.76803
				L889.41968,1319.76803L890.73965,1301.52792L889.17969,1301.40792L889.29969,1301.40792L889.65968,1297.32789L890.97965,1297.44789
				L890.97965,1297.32789L891.45964,1290.72785L891.57963,1289.40784L894.81956,1289.88785L891.45964,1335.60813L891.45964,1335.84813
				L891.57963,1335.96813L891.69963,1336.08813L892.17962,1336.32813L918.45902,1339.20815L917.97903,1342.08816L922.65892,1342.68817
				L923.8589,1342.56817L924.09889,1342.44817L924.69888,1342.32817L926.01885,1341.84816L926.49884,1341.60816L931.77871,1338.24814
				L934.53865,1336.20813L934.77865,1334.64812L937.41859,1311.00798L929.13878,1310.04797L929.49877,1306.32795L983.49753,1311.72798
				L983.73753,1309.20796L984.09752,1305.72794L987.33745,1274.64775L984.9375,1269.60772L977.73766,1273.08774L977.37767,1272.00774
				L994.17729,1263.84769L988.17743,1251.24761L975.69771,1257.24765L975.21772,1256.28764L987.69744,1250.16761L981.57758,1237.68753
				L959.01809,1248.4876L910.77919,1243.68757L884.73979,1248.36759L884.61979,1248.36759L891.57963,1270.80773L889.77967,1271.28773
				L881.97985,1245.96758L881.37987,1243.92757L883.05983,1243.68757L883.89981,1245.60758L896.25953,1243.44756L898.05949,1240.20754
				L898.05949,1239.84754L890.97965,1238.76754L887.13973,1231.44749L886.05976,1223.52744L887.37973,1207.44735L889.41968,1192.68726
				L889.41968,1192.56726L888.5797,1178.52717L885.45977,1160.64706L882.09985,1146.00697L877.17996,1128.00686L870.34012,1112.28677
				L863.98026,1095.12666L862.4203,1090.80664L859.54037,1082.64659L859.42037,1082.28658L859.42037,1082.16658L852.46053,1068.4865
				L849.58059,1062.00646L848.50062,1060.44645L848.74061,1056.84643L848.74061,1056.72643L845.74068,1053.60641L841.18078,1043.16635
				L841.06079,1043.04635L841.18078,1038.96632L841.18078,1038.84632L839.98081,1035.8463L834.46094,1027.80625L825.10115,1005.60612
				L824.98115,1005.48612L824.26117,999.84608L824.26117,999.72608L819.46128,988.92602L811.30147,969.3659L806.50158,959.28584
				L798.22177,940.80572L794.26186,934.32568L785.86205,918.48559L779.50219,907.20552L778.06223,904.2055L776.38226,900.72548L
				772.30236,894.60544L766.42249,884.64538L759.82264,874.56532L756.22273,869.04529L743.38302,843.84513L740.62308,834.12507L
				719.02358,793.68483L710.62377,778.92474L644.26528,661.44402L643.5453,660.72402L641.14535,655.80399L638.9854,647.04394L638.02543,637.44388
				L637.90543,637.32388L637.18544,628.56382L634.9055,618.12376L632.86554,605.04368L632.02556,593.76361L632.62555,584.52356L
				632.86554,576.36351L633.34553,562.44342L631.90557,554.28337L629.74561,542.4033L628.54564,534.48325L627.94566,526.4432L626.74568,515.88314
				L624.34574,489.84298L622.54578,473.52288L621.10581,450.84274L620.74582,445.44271L618.10588,425.76259L614.02597,404.16246
				L610.18606,381.12232L605.86616,351.72214L600.22629,324.48197L596.14638,300.84183L589.30654,276.60168L589.30654,276.48168
				L583.78666,263.0416L572.14693,237.84145L572.14693,237.72145L569.50699,228.96139L568.78701,223.68136L567.94703,213.1213L565.66708,198.12121
				L560.62719,177.60108L560.02721,166.56101L566.26706,160.32098L570.10698,159.24097L578.26679,157.08096L587.98657,158.40096
				L588.70655,158.52096L602.38624,159.96097L619.30585,162.48099L622.78577,164.641L631.66557,166.68101L637.90543,169.08103L649.42516,174.48106
				L660.9449,180.7211L669.7047,186.72114L675.70456,190.56116L677.26453,192.24117L680.98444,194.52118L687.3443,199.20121L694.66413,204.12124
				L699.82401,208.20127L711.70374,220.32134L715.30366,225.96138L720.94353,236.52144L724.18346,241.08147L726.10341,243.84148
				L730.66331,250.32152L737.38316,261.12159L751.06284,275.40168L756.94271,279.9617L765.58251,284.40173L768.58244,285.60174L
				773.86232,286.56174L785.02207,290.52177L793.54187,295.8018L800.9817,299.40182L809.02152,302.64184L822.9412,308.76188L832.30099,312.0019
				L839.86081,315.12192L843.58073,316.92193L850.42057,320.04195L866.9802,329.88201L876.93997,342.00208L882.45984,349.08212L
				888.33971,355.80216L909.45922,362.88221L915.93908,365.76223L923.97889,370.08225L930.21875,374.40228L933.93867,379.56231L
				934.05866,379.80231z"/>
			<path clip-path="url(#SVG_CP_1)" fill="none" stroke="#000000" stroke-width="3.95991" stroke-miterlimit="10" stroke-linecap="round" stroke-linejoin="round" d="
				M934.05866,379.80231L962.25802,419.40255L963.69799,418.80255L964.77796,418.32255L966.93791,417.60254L970.89782,416.16253
				L974.49774,415.20253L975.93771,414.72252L981.69757,414.24252L992.97732,412.68251L1006.05702,412.08251L1018.17674,411.3625
				L1019.8567,411.4825L1020.81668,411.6025L1023.33662,411.72251L1026.93654,411.96251L1031.61643,411.96251L1033.0564,411.96251
				L1037.97629,410.8825L1041.57621,411.3625L1044.81613,411.96251L1056.21587,412.80251L1056.57586,412.92251L1059.81579,413.28251
				L1060.29578,413.28251L1060.77577,413.40252L1066.05565,414.00252L1069.53557,413.88252L1078.89535,414.36252L1080.57532,414.48252
				L1083.81524,414.48252L1086.21519,414.48252L1088.25514,414.48252L1092.81504,416.40253L1093.05503,416.40253L1103.49479,415.44253
				L1103.73479,415.44253L1103.85478,415.44253L1107.21471,415.92253L1108.65467,416.16253L1110.09464,416.40253L1115.13453,417.12254
				L1120.17441,418.80255L1138.054,424.56258L1144.77385,426.7226L1145.13384,426.8426L1145.37384,426.9626L1154.13364,428.64261
				L1160.97348,429.84262L1160.97348,429.96262L1171.17325,434.64264L1171.53324,434.76265L1176.57312,437.16266L1187.85287,439.44267
				L1189.17283,439.68268L1194.33272,440.64268L1212.33231,444.2427L1215.45223,444.84271L1221.93209,445.44271L1231.89186,446.16271
				L1254.69134,447.96273L1267.89104,447.60272L1283.37068,446.64272L1284.81065,446.64272L1299.09032,445.68271L1304.97019,446.04271
				L1317.08991,447.84272L1331.84958,449.16273L1346.48924,449.16273L1360.04893,448.80273L1371.08868,448.80273L1386.92832,449.52274
				L1392.0882,449.40273L1396.4081,450.84274L1411.16776,454.92277L1420.64755,456.84278L1438.04715,460.3228L1438.16715,460.3228
				L1446.56695,461.88281L1454.48677,462.72282L1465.16653,465.96284L1492.52591,472.68288L1509.32552,476.1629L1520.48527,478.56291
				L1529.00507,481.08293L1530.92503,481.44293L1532.84498,481.80293L1545.4447,485.52295L1558.64439,490.20298L1574.96402,499.80304
				L1577.00398,500.88305L1580.00391,503.28306L1583.48383,506.88308L1586.00377,509.6431L1590.68366,513.36312L1593.80359,516.84314
				L1595.72355,520.32317L1598.72348,523.32318L1601.72341,525.3632L1603.28337,526.6832L1619.00302,541.9233L1630.16276,550.80335
				L1636.64261,557.40339L1641.08251,562.44342L1648.88233,569.88347L1655.72218,575.1635L1660.16208,578.64352L1663.642,582.12354
				L1669.28187,587.28357L1671.92181,589.08358L1685.12151,600.36365L1691.96135,606.60369L1692.32134,606.96369L1692.68133,607.32369
				L1693.40132,607.9237L1694.84128,609.24371L1698.20121,612.36373L1705.16105,618.60376L1705.40104,618.96377L1706.12103,619.68377
				L1709.48095,622.44379L1713.80085,626.40381L1714.88083,627.24382L1715.9608,628.32382L1717.76076,630.48384L1718.96073,631.92384
				L1719.92071,633.24385L1722.56065,636.60387L1724.24061,638.64389L1725.56058,642.48391L1727.72053,644.04392L1729.76049,645.60393
				L1735.88035,651.24396L1742.00021,656.884L1749.56003,664.08404L1754.95991,669.00407L1765.99966,677.52412L1768.99959,680.16414
				L1774.03947,685.32417L1779.19936,689.16419L1779.67935,689.5242L1784.95922,693.96422L1791.55907,699.00425L1793.47903,699.84426
				L1798.51891,702.12427L1800.91886,703.08428L1801.75884,703.44428L1808.1187,704.16428L1809.31867,705.12429L1821.79838,691.44421
				L1832.83813,679.08413L1835.23808,678.12413L1835.35807,678.24413L1835.59807,678.48413L1834.1581,681.36415L1811.59862,706.3243
				L1812.79859,709.92432L1817.71848,725.40441L1816.6385,725.64441L1815.67852,726.00442L1815.19853,726.96442L1815.07854,727.32442
				L1814.11856,729.24444L1810.87863,731.28445L1807.39871,731.52445L1802.35883,735.48447L1798.75891,737.52449L1794.07902,738.60449
				L1788.07915,739.6845L1782.79927,741.24451L1780.27933,741.96451L1771.63953,745.20453L1768.15961,747.48455L1761.91975,750.48457
				L1757.95984,753.24458L1751.71998,757.68461L1747.76007,761.40463L1743.44017,765.12465L1730.84046,782.04476L1728.20052,785.88478
				L1725.80058,789.3648L1723.64063,792.96482L1721.24068,796.56485L1717.04078,801.48488L1715.60081,803.52489L1712.36088,811.08493
				L1711.04091,814.20495L1710.08094,817.20497L1709.24095,819.48499L1707.441,824.16501L1706.00103,829.92505L1702.28111,846.36515
				L1696.76124,874.80532L1696.16125,880.56536L1696.04126,883.32537L1696.04126,889.68541L1694.72129,895.20545L1694.0013,899.16547
				L1692.68133,904.3255L1691.48136,908.52553L1690.16139,913.20556L1689.5614,915.60557L1688.72142,918.36559L1687.76145,921.48561
				L1673.60177,962.28585L1671.92181,967.44589L1670.60184,971.04591L1669.52186,974.40593L1668.32189,977.64595L1666.88192,981.24597
				L1665.56195,985.20599L1664.48198,987.84601L1657.40214,1006.68612L1654.8822,1013.40617L1650.56229,1025.40624L1647.92236,1032.36628
				L1645.04242,1038.84632L1621.04297,1103.64671L1622.72293,1104.84672L1624.76288,1105.56673L1629.68277,1107.12674L1630.64275,1107.48674
				L1631.60273,1107.84674L1636.28262,1108.80675L1642.16249,1109.04675L1647.20237,1108.20674L1652.84224,1106.52673L1657.16214,1105.56673
				L1658.72211,1105.68673L1659.56209,1107.36674L1661.00206,1109.28675L1661.72204,1113.72678L1665.08196,1122.00683L1669.88185,1131.12688
				L1673.48177,1140.48694L1676.84169,1146.60698L1816.39851,1188.36723L1884.79694,1208.76735L1889.83683,1210.32736L1927.51597,1221.48743
				L1949.47547,1228.08747L1958.59526,1230.84749L1972.63494,1235.04751L1974.67489,1235.64752L1983.79468,1238.40753L2018.71388,1248.8476
				L2019.55387,1249.0876L2021.11383,1249.5676L2029.15365,1261.32767L2031.91358,1265.4077L2023.27378,1284.60782L2023.15378,1284.60782
				L2005.15419,1281.3678L1998.91434,1280.16779L1995.67441,1279.56778L1992.19449,1278.84778L1990.75452,1278.36778L1990.63453,1278.36778
				L1987.63459,1277.28777L1981.51473,1274.64775L1977.07484,1272.96774L1972.87493,1271.88774L1972.39494,1273.44775L1971.67496,1275.72776
				L1965.6751,1275.24776L1962.43517,1274.88776L1960.15522,1274.76776L1958.11527,1274.52775L1859.95751,1266.4877L1857.79756,1266.3677
				L1855.8776,1266.1277L1843.51789,1265.1677L1822.87836,1263.48769L1673.96176,1251.24761L1673.84176,1276.68777L1673.84176,1280.28779
				L1673.84176,1285.32782L1673.84176,1288.44784L1673.84176,1290.24785L1673.84176,1294.32787L1673.84176,1297.56789L1673.72177,1308.84796
				L1673.72177,1311.12798L1673.72177,1313.28799L1673.72177,1315.448L1673.72177,1316.28801L1673.72177,1316.52801L1673.72177,1317.96802
				L1676.4817,1325.64806L1677.92167,1328.40808L1683.32155,1338.24814L1685.12151,1342.44817L1685.4815,1346.76819L1685.00151,1352.64823
				L1679.96162,1358.64827L1673.48177,1370.04833L1667.7219,1373.16835L1656.08217,1379.52839L1581.56387,1382.88841L1581.56387,1386.36843
				L1581.44387,1387.08844L1581.44387,1387.56844L1581.32388,1388.16845L1580.00391,1390.20846L1579.76391,1390.56846L1579.88391,1390.56846
				L1580.72389,1391.40846L1579.04393,1393.92848L1577.48396,1396.32849L1576.16399,1399.68852L1577.96395,1401.36853L1574.84402,1403.64854
				L1574.12404,1402.92853L1572.32408,1404.36854L1571.84409,1403.88854L1571.7241,1403.88854L1569.44415,1406.04855L1569.20415,1406.28856
				L1569.80414,1406.88856L1567.2842,1409.28857L1565.00425,1411.68859L1564.28427,1411.20859L1562.24431,1413.4886L1562.00432,1413.8486
				L1560.44435,1415.28861L1559.96436,1414.92861L1558.2844,1416.48862L1556.48444,1418.40863L1556.24445,1418.76863L1557.44442,1420.56864
				L1556.12445,1421.52865L1554.80448,1420.56864L1554.56449,1420.80864L1552.52453,1423.20866L1553.12452,1423.92866L1551.56456,1425.48867
				L1549.6446,1427.52868L1547.72464,1429.4487L1545.56469,1431.60871L1543.16475,1434.12872L1542.44476,1434.84873L1541.36479,1435.80873
				L1539.44483,1437.72875L1537.04489,1439.88876L1537.04489,1439.76876L1536.3249,1438.92875L1534.16495,1440.60876L1533.32497,1443.36878
				L1533.20498,1444.80879L1533.80496,1446.4888L1534.28495,1447.68881L1534.88494,1449.36882L1535.72492,1450.32882L1536.5649,1451.16883
				L1536.80489,1451.88883L1537.64487,1455.00885L1540.16482,1464.12891L1540.40481,1464.84891L1540.52481,1465.32891L1540.64481,1465.92892
				L1540.7648,1466.16892L1543.52474,1473.36896L1541.72478,1473.96897L1540.52481,1474.44897L1540.8848,1475.40898L1541.0048,1475.40898
				L1541.36479,1476.24898L1541.60478,1476.96899L1543.52474,1482.12902L1543.64474,1482.12902L1544.84471,1484.04903L1546.16468,1485.96904
				L1546.40467,1487.04905L1546.88466,1488.48906L1547.12466,1488.96906L1547.48465,1489.44906L1547.48465,1489.56906L1547.96464,1490.28907
				L1549.40461,1494.36909L1548.68462,1495.3291L1546.16468,1497.12911L1545.92469,1497.24911L1548.44463,1502.76914L1548.68462,1503.48915
				L1549.04461,1504.20915L1550.96457,1503.36915L1552.64453,1506.84917L1553.00452,1507.68917L1553.8445,1510.56919L1554.0845,1511.40919
				L1554.2045,1512.0092L1554.32449,1512.7292L1554.68449,1513.92921L1554.68449,1514.16921L1555.40447,1515.48922L1555.76446,1516.20922
				L1555.40447,1518.24924L1554.92448,1520.28925L1554.56449,1522.44926L1553.8445,1525.80928L1553.9645,1526.04928L1558.2844,1534.32933
				L1558.4044,1534.56934L1555.04448,1535.76934L1554.44449,1536.00934L1554.68449,1536.60935L1554.92448,1537.20935L1555.16447,1537.92936
				L1555.28447,1538.28936L1556.72444,1541.76938L1557.92441,1545.7294L1558.4044,1547.04941L1555.04448,1547.76942L1551.20456,1549.08942
				L1550.96457,1549.20942L1551.68455,1551.24944L1552.88453,1554.48946L1553.72451,1557.00947L1554.0845,1557.72948L1550.72458,1558.92948
				L1552.28454,1561.3295L1553.48451,1564.20952L1546.76467,1566.72953L1547.60465,1569.84955L1548.32463,1572.60957L1548.56462,1573.20957
				L1549.16461,1576.08959L1550.12459,1575.84959L1551.44456,1575.48958L1552.52453,1578.6096L1553.36452,1581.84962L1553.9645,1584.60964
				L1554.32449,1585.68965L1554.56449,1586.64965L1554.56449,1587.00965L1554.80448,1587.84966L1553.8445,1588.08966L1553.72451,1590.48968
				L1553.12452,1591.20968L1552.76453,1591.68968L1553.12452,1592.88969L1553.48451,1593.9697L1553.72451,1594.6897L1556.24445,1594.0897
				L1557.80441,1593.60969L1557.92441,1593.60969L1558.5244,1596.84971L1558.5244,1596.96972L1569.56415,1593.36969L1570.76412,1596.48971
				L1566.56421,1598.04972L1567.40419,1601.16974L1562.9643,1602.48975L1561.88432,1602.84975L1562.00432,1602.84975L1563.80428,1605.48977
				L1564.16427,1608.00978L1564.64426,1610.8898L1562.24431,1611.2498L1562.24431,1611.3698L1561.64433,1614.60982L1562.00432,1617.12984
				L1564.88425,1616.28983L1566.08422,1620.00986L1566.92421,1623.48988L1567.40419,1626.00989L1567.64419,1626.6099L1567.76419,1627.3299
				L1567.76419,1628.0499L1567.76419,1630.92992L1568.24418,1633.80994L1568.12418,1637.40996L1568.72416,1641.12998L1569.92414,1643.89
				L1568.84416,1648.45003L1568.84416,1648.69003L1568.84416,1649.05003L1568.84416,1649.41003L1568.60417,1655.29007L1568.60417,1655.53007
				L1568.48417,1656.01007L1569.80414,1660.3301L1574.72403,1664.17012L1583.24383,1664.29012L1585.16379,1677.97021L1586.00377,1685.53025
				L1586.00377,1688.53027L1586.36376,1691.17029L1586.60376,1692.9703L1586.96375,1694.53031L1587.56373,1696.21032L1588.16372,1698.37033
				L1587.20374,1700.17034L1587.20374,1700.41034L1587.20374,1702.57036L1587.20374,1702.93036L1586.84375,1706.89038L1583.00384,1706.89038
				L1581.56387,1706.89038L1580.60389,1706.77038L1577.48396,1706.65038L1573.16406,1705.93038L1572.44408,1705.81038L1568.12418,1703.65036
				L1566.68421,1701.97035L1561.16434,1701.61035L1558.5244,1701.97035L1556.48444,1702.57036L1553.72451,1703.53036L1553.48451,1703.65036
				L1553.36452,1703.65036L1552.64453,1703.89037L1549.16461,1705.45038L1547.48465,1706.65038L1544.84471,1707.01038L1544.60472,1708.57039
				L1543.76473,1714.45043L1544.72471,1715.41044L1544.96471,1715.77044L1549.5246,1722.01048L1558.04441,1737.13057L1574.00404,1765.33074
				L1572.92407,1775.1708L1571.24411,1791.2509L1575.924,1803.73097L1580.84389,1817.05105L1583.24383,1817.29106L1599.92345,1819.45107
				L1600.76343,1819.45107L1618.64302,1864.69134L1625.36287,1881.37145L1627.76282,1887.61148L1642.88247,1910.05162L1648.52234,1909.45162
				L1653.08224,1908.97161L1653.56223,1908.97161L1653.68222,1908.97161L1653.68222,1918.81167L1653.80222,1938.37179L1655.24219,1942.57182
				L1658.36212,1950.97187L1664.72197,1968.49198L1667.7219,1976.65202L1668.08189,1983.37207L1668.32189,1988.5321L1669.52186,2010.49223
				L1670.84183,2033.29237L1671.68181,2050.45247L1672.0418,2055.85251L1672.4018,2062.81255L1672.52179,2063.89256L1672.64179,2064.85256
				L1680.32162,2107.21282L1683.08155,2122.33291L1684.04153,2127.25294L1688.00144,2149.33308L1688.36143,2150.89308L1690.88137,2151.13309
				L1705.52104,2151.97309L1706.36102,2152.09309L1707.321,2152.09309L1707.56099,2157.73313L1707.68099,2160.49314L1707.92098,2165.65317
				L1708.64097,2183.65328L1708.76097,2185.5733L1703.72108,2195.05335L1701.80112,2198.65338L1703.48109,2212.81346L1705.04105,2226.01354
				L1706.00103,2233.57359L1717.52077,2330.05417L1718.96073,2341.81425L1720.88069,2348.77429L1721.24068,2350.2143L1732.40043,2390.53454
				L1746.5601,2441.17485L1752.19997,2461.45497L1757.71985,2477.41507L1769.11959,2510.05527L1769.11959,2509.93527L1768.99959,2509.93527
				L1769.71957,2511.85528L1770.79955,2515.5753L1772.11952,2519.17533L1773.43949,2522.89535L1774.75946,2526.61537L1776.19942,2530.8154
				L1778.35938,2535.25542L1780.75932,2540.17545L1783.03927,2541.73546L1786.0392,2540.77546L1789.03913,2541.61546L1789.87911,2542.21547
				L1791.79907,2543.65547L1794.919,2549.89551L1797.55894,2555.05554L1798.15892,2557.21556L1798.75891,2559.49557L1798.87891,2560.09557
				L1798.9989,2560.81558L1799.1189,2562.01559L1799.3589,2564.6556L1800.07888,2568.01562L1800.19888,2568.49563L1800.79886,2571.85565
				L1802.23883,2574.85566L1803.19881,2578.69569L1803.91879,2582.65571L1804.99877,2585.29573L1807.15872,2589.49575L1808.35869,2592.85577
				L1809.67866,2596.4558L1810.51864,2599.69582L1810.99863,2601.01582L1811.95861,2603.77584L1813.63857,2607.61586L1814.95854,2609.89588
				L1816.39851,2612.17589L1817.95847,2614.57591L1818.91845,2617.09592L1819.75843,2619.25593L1820.71841,2621.77595L1821.67839,2624.29596
				L1822.39837,2626.57598L1822.75836,2628.61599L1823.35835,2634.61603L1823.35835,2637.61605L1815.79852,2659.69618L1813.87856,2662.09619
				L1812.91859,2663.1762L1811.47862,2664.73621L1808.59868,2667.97623L1804.27878,2673.49626L1802.11883,2676.25628L1795.03899,2683.69633
				L1788.79914,2690.41637L1788.67914,2690.41637L1771.03954,2690.89637L1758.67983,2692.21638L1753.51994,2708.65648L1753.15995,2709.73648
				L1751.59999,2709.49648L1751.24,2709.49648L1745.72012,2717.65653L1738.0403,2729.0566L1752.43997,2775.73689L1754.71992,2776.93689
				L1755.67989,2777.05689L1757.59985,2782.09692L1761.19977,2784.85694L1764.3197,2785.93695L1765.87966,2786.41695L1768.99959,2786.89695
				L1770.31956,2787.49696L1770.67955,2787.61696L1770.91955,2787.73696L1771.39953,2788.57696L1771.51953,2788.81697L1771.99952,2789.65697
				L1775.47944,2794.097L1777.75939,2798.65703L1778.95936,2801.17704L1778.95936,2801.29704L1780.51933,2805.97707L1780.75932,2806.45707
				L1782.19929,2809.21709L1782.79927,2810.6571L1783.03927,2811.1371L1783.87925,2813.05711L1784.59923,2815.45713L1785.31922,2817.73714
				L1785.9192,2819.77715L1786.75918,2822.65717L1789.27913,2821.81717L1790.11911,2825.17719L1790.2391,2828.89721L1791.19908,2831.65723
				L1791.31908,2831.77723L1792.51905,2835.61725L1793.35903,2838.37727L1793.83902,2838.49727L1795.39899,2838.97727L1795.99897,2841.25728
				L1796.23897,2842.33729L1796.83895,2844.4973L1798.51891,2851.45735L1798.87891,2852.65735L1800.19888,2855.29737L1802.59882,2859.8574
				L1804.39878,2867.05744L1804.75877,2868.37745L1804.87877,2871.01747L1804.99877,2871.61747L1805.59875,2874.61749L1806.31874,2878.09751
				L1807.15872,2882.77754L1807.9987,2886.85756L1809.07867,2892.3776L1810.15865,2897.65763L1810.99863,2901.49765L1811.47862,2904.01767
				L1811.59862,2904.73767L1812.91859,2910.73771L1813.87856,2915.29773L1814.59855,2918.65776L1815.91852,2921.65777L1817.83847,2926.81781
				L1819.99842,2933.29784L1820.9584,2936.05786L1822.27837,2940.01789L1823.71834,2944.21791L1823.95833,2944.93792L1825.3983,2948.89794
				L1826.47828,2952.13796L1828.27824,2957.29799L1829.9582,2964.61803L1830.55818,2967.37805L1831.51816,2970.25807L1831.75816,2970.73807
				L1832.47814,2973.85809L1832.71813,2974.45809L1833.55811,2976.61811L1834.1581,2978.89812L1833.91811,2982.37814L1834.0381,2982.49814
				L1834.87808,2985.01816L1834.99808,2985.13816L1836.43805,2989.21818L1836.55805,2989.45819L1836.79804,2989.45819L1836.91804,2989.33819
				L1837.03804,2989.33819L1837.15803,2990.05819L1838.95799,2996.05823L1839.19799,2996.53823L1840.75795,3001.09826L1841.11794,3001.93826
				L1841.95792,3004.45828L1843.0379,3005.17828L1843.1579,3005.29828L1845.31785,3012.97833L1845.43784,3013.57833L1847.1178,3019.57837
				L1848.07778,3023.65839L1848.91776,3027.01841L1849.87774,3030.25843L1850.11774,3030.85844L1852.15769,3035.41847L1852.75768,3039.49849
				L1852.75768,3039.85849L1853.47766,3045.37853L1853.47766,3045.97853L1853.83765,3049.81855L1854.31764,3051.85857L1855.63761,3056.17859
				L1857.43757,3062.77863L1857.55757,3062.89863L1858.03756,3064.69864L1858.87754,3069.01867L1861.39748,3074.2987L1861.75747,3079.21873
				L1863.43743,3083.53876L1865.23739,3088.09879L1866.91735,3092.53881L1868.83731,3097.21884L1868.83731,3097.33884L1868.83731,3097.45884
				L1870.51727,3101.65887L1871.95724,3105.49889L1872.31723,3106.4589L1872.43723,3107.0589L1873.87719,3111.85893L1878.67708,3128.05903
				L1879.27707,3132.73906L1879.51706,3135.85908L1879.87706,3137.89909L1879.99705,3138.49909L1880.23705,3139.6991L1881.07703,3143.53912
				L1881.07703,3143.77912L1881.31702,3144.73913L1881.67702,3148.09915L1881.67702,3148.69915L1881.67702,3151.45917L1881.67702,3152.05918
				L1881.67702,3156.1392L1881.67702,3165.37926L1888.15687,3182.53936L1892.23677,3193.09942L1892.35677,3193.57943L1892.59677,3194.77944
				L1892.59677,3195.01944L1892.71676,3195.97944L1892.95676,3197.17945L1893.07675,3197.89945L1893.31675,3200.05947L1893.43675,3201.13947
				L1893.31675,3202.33948L1893.55674,3203.41949L1893.67674,3203.77949L1894.27673,3205.9395L1901.11657,3221.8996L1901.47656,3223.09961
				L1901.59656,3223.57961L1905.79646,3236.77969L1904.71649,3237.49969L1903.75651,3238.4597L1901.83655,3241.45972L1900.99657,3241.93972
				L1900.51658,3242.17972L1900.51658,3242.29972L1903.99651,3247.69976L1936.63576,3298.94007L1936.51576,3298.82007L1906.03646,3284.41998
				L1871.59725,3267.97988L1858.15755,3261.25984L1856.47759,3260.17983L1853.95765,3255.3798L1849.63775,3245.65974L1844.71786,3234.73968
				L1839.43798,3222.3796L1833.67811,3213.01955L1829.35821,3205.0995L1822.63836,3192.25942L1819.27844,3184.93938L1823.47834,3176.29932
				L1825.15831,3165.85926L1822.87836,3157.21921L1821.67839,3149.05916L1819.75843,3132.49906L1806.43873,3097.57884L1799.3589,3061.21862
				L1774.39947,3004.93828L1746.92009,2962.69802L1738.64028,2936.05786L1738.88028,2926.6978L1731.44045,2909.8977L1719.68072,2897.29763
				L1717.52077,2887.33756L1704.32107,2867.29744L1695.32127,2839.69728L1694.2413,2831.17722L1694.1213,2831.17722L1650.80229,2838.25727
				L1650.68229,2838.25727L1644.08244,2838.01726L1626.32285,2825.65719L1618.40303,2815.45713L1612.76316,2809.21709L1601.48342,2793.01699
				L1595.96354,2784.61694L1590.20367,2776.81689L1584.8038,2767.33683L1560.44435,2731.93662L1559.72437,2730.73661L1558.88439,2729.1766
				L1541.24479,2698.21641L1528.64508,2674.09627L1520.00528,2658.13617L1496.12582,2616.25592L1489.28598,2606.41586L1479.4462,2592.13577
				L1470.8064,2577.25568L1453.1668,2552.53553L1438.40714,2530.57539L1436.84718,2528.17538L1425.68743,2511.49528L1420.52755,2497.8152
				L1410.32778,2480.65509L1410.44778,2480.65509L1362.20888,2408.17465L1344.92928,2387.05452L1330.7696,2361.49437L1304.01021,2314.21408
				L1304.3702,2312.65407L1295.13041,2290.09393L1188.81284,2105.65281L1188.69285,2105.65281L1185.69291,2106.97282L1185.69291,2106.85282
				L1167.81332,2086.33269L1167.93332,2085.97269L1147.41379,2048.53246L1131.93414,2023.45231L1122.21436,2014.09225L1115.13453,1999.33216
				L1106.61472,1991.41211L1101.45484,1984.81207L1098.09492,1980.85205L1093.89501,1972.092L1092.45504,1970.41199L1087.41516,1964.29195
				L1083.93524,1959.49192L1081.1753,1951.21187L1077.57538,1945.93184L1072.5355,1939.6918L1068.81558,1935.61178L1063.29571,1928.89173
				L1063.29571,1928.77173L1063.17571,1928.77173L1030.53646,1888.45149L1014.33683,1868.41137L1009.77693,1861.93133L1008.81695,1857.4913
				L1006.17702,1845.01122L1003.89707,1833.61115L1002.09711,1824.7311L1001.13713,1820.29107L999.81716,1813.57103L997.05722,1798.81094
				L995.49726,1789.69089L993.21731,1775.8908L992.13734,1768.81076L991.65735,1761.61072L991.05736,1745.41062L990.93736,1739.29058
				L990.57737,1720.93047L991.89734,1713.97043L991.65735,1702.21036L990.45737,1684.21025L988.05743,1664.65013L986.73746,1654.21006
				L984.33751,1648.09003L982.53756,1636.44996L982.53756,1636.08995L979.53762,1622.76987L975.93771,1608.48979L975.57771,1607.28978
				L974.01775,1601.16974L968.25788,1580.04961L964.89796,1567.80954L962.37802,1559.04948L960.57806,1552.44944L959.37808,1547.76942
				L957.81812,1542.12938L956.85814,1538.64936L956.13816,1536.72935L950.37829,1523.88927L944.73842,1511.7692L940.89851,1503.84915
				L936.33861,1494.48909L937.05859,1494.12909L937.41859,1493.88909L937.89858,1493.64909L938.73856,1493.16908L940.29852,1492.08908
				L940.29852,1491.96908L940.29852,1491.84908L939.21854,1489.68906L939.09855,1489.44906L939.09855,1489.32906L938.97855,1489.20906
				L938.97855,1488.96906L938.85855,1488.96906L938.73856,1488.96906L928.41879,1492.20908L926.37884,1492.92908L925.89885,1493.04908
				L924.09889,1493.64909L918.09903,1495.6891L917.85903,1495.2091L921.33895,1494.12909L925.53886,1492.68908L917.01905,1477.80899
				L914.49911,1479.369L913.89912,1479.609L912.69915,1480.32901L912.33916,1480.32901L911.25918,1480.56901L910.5392,1480.68901
				L908.13925,1482.00902L907.17928,1482.36902L906.0993,1482.60902L905.37932,1482.84902L904.65933,1483.08902L903.93935,1483.32902
				L903.09937,1483.44902L901.6594,1483.56903L901.05942,1483.56903L900.33943,1483.56903L899.13946,1483.80903L898.29948,1484.40903
				L897.4595,1484.76903L896.85951,1485.12903L896.37952,1485.36904L891.81963,1487.04905L891.09964,1487.28905L890.25966,1487.52905
				L889.65968,1487.76905L889.17969,1488.36905L885.69977,1489.80906L883.41982,1490.52907L882.33984,1490.88907L878.61993,1491.24907
				L874.66002,1491.96908L869.98013,1492.56908L868.30016,1492.44908L867.58018,1492.68908L866.8602,1493.04908L865.66023,1493.16908
				L863.86027,1492.80908L863.14028,1492.44908L859.54037,1492.20908L858.34039,1492.08908L857.74041,1492.20908L856.78043,1491.96908
				L855.22046,1491.48907L854.74047,1491.12907L854.38048,1491.12907L853.90049,1490.88907L853.5405,1491.00907L853.30051,1490.88907
				L853.06051,1491.12907L852.22053,1491.36907L851.50055,1491.36907L851.14056,1491.24907L850.78057,1491.12907L850.66057,1491.00907
				L850.30058,1490.76907L848.86061,1490.28907L847.66064,1490.28907L846.94065,1490.04906"/>
			<path clip-path="url(#SVG_CP_1)" fill="none" stroke="#000000" stroke-width="3.95991" stroke-miterlimit="10" stroke-linecap="round" stroke-linejoin="round" d="
				M846.94065,1490.04906L846.10067,1489.44906L845.26069,1489.08906L844.7807,1488.72906L844.30071,1488.60906L843.34074,1488.36905
				L842.86075,1488.36905L842.50075,1488.36905L841.90077,1488.36905L841.30078,1488.36905L840.82079,1488.12905L840.4608,1487.88905
				L840.10081,1487.76905L839.50082,1487.16905L837.94086,1486.32904L835.66091,1485.72904L832.78098,1484.28903L831.821,1483.68903
				L830.98102,1482.96902L830.38103,1482.60902L829.78104,1482.24902L828.94106,1482.00902L828.34108,1481.88902L827.5011,1481.76901
				L825.82114,1480.209L823.30119,1478.52899L820.90125,1477.20899L820.42126,1476.72898L819.82127,1476.48898L818.86129,1476.24898
				L818.38131,1475.76898L817.54132,1474.92897L816.46135,1473.12896L815.50137,1472.28896L814.66139,1470.96895L814.4214,1470.24894
				L814.0614,1468.32893L814.0614,1467.36893L814.0614,1466.16892L814.54139,1463.2889L815.86136,1459.08888L816.10136,1457.16886
				L817.06134,1454.52885L816.94134,1453.44884L816.82134,1452.84884L817.90132,1449.72882L818.7413,1447.68881L819.46128,1445.64879
				L820.06127,1442.64878L821.02125,1440.96877L821.74123,1438.68875L821.74123,1438.32875L821.86123,1437.96875L822.46121,1437.24874
				L822.58121,1436.88874L822.70121,1436.52874L822.8212,1436.04874L822.58121,1435.44873L822.8212,1434.96873L823.90118,1433.40872
				L824.02118,1432.92872L824.02118,1432.08871L824.62116,1431.12871L824.74116,1430.7687L824.74116,1430.4087L824.74116,1430.0487
				L824.86116,1429.6887L824.98115,1429.20869L824.98115,1428.96869L824.98115,1428.60869L824.74116,1427.88869L824.86116,1427.28868
				L824.98115,1427.04868L825.22115,1426.56868L825.34115,1425.96867L825.46114,1424.88867L825.58114,1424.64867L825.94113,1424.40867
				L826.30112,1424.04866L826.66112,1423.20866L826.90111,1422.60865L827.02111,1422.00865L826.90111,1420.92864L827.02111,1419.96864
				L827.3811,1419.60864L827.74109,1419.00863L828.10108,1418.40863L828.58107,1417.20862L828.58107,1416.48862L828.46108,1415.88861
				L828.22108,1415.52861L828.10108,1415.16861L827.98109,1414.68861L828.82107,1414.0886L829.30106,1411.80859L829.90104,1411.08858
				L830.02104,1409.76858L830.74102,1406.88856L830.74102,1406.52856L831.34101,1405.92855L831.46101,1404.48854L831.941,1401.48853
				L832.30099,1400.64852L833.14097,1398.84851L833.38096,1398.48851L833.50096,1398.0085L833.38096,1396.8085L833.98095,1395.84849
				L834.94093,1394.16848L834.82093,1393.68848L834.82093,1393.44848L834.94093,1393.32848L835.42092,1392.60847L836.1409,1388.88845
				L836.2609,1388.52845L836.1409,1387.44844L836.50089,1386.48843L836.74089,1385.76843L836.74089,1385.28843L836.74089,1384.80842
				L836.74089,1384.08842L836.86088,1383.72842L838.18085,1381.5684L838.78084,1380.6084L838.90084,1379.04839L839.14083,1376.76838
				L839.26083,1376.40837L839.50082,1376.04837L839.86081,1375.80837L840.10081,1375.32837L840.22081,1374.84836L840.22081,1373.88836
				L840.5808,1371.96835L840.22081,1371.24834L839.86081,1370.88834L839.14083,1370.04833L839.02083,1369.20833L838.90084,1367.40832
				L838.54084,1365.48831L838.66084,1365.24831L838.66084,1364.8883L838.66084,1364.6483L838.42085,1364.5283L838.18085,1364.1683
				L837.82086,1363.6883L837.46087,1361.28828L837.10088,1359.00827L836.1409,1356.24825L834.58094,1350.12821L833.74095,1347.7282
				L833.62096,1346.88819L833.74095,1346.52819L833.74095,1346.16819L833.74095,1345.80819L833.50096,1345.32818L833.26097,1345.20818
				L833.02097,1344.72818L833.02097,1344.24818L833.14097,1343.52817L833.14097,1343.28817L833.02097,1343.04817L832.66098,1342.80817
				L832.30099,1341.72816L832.30099,1340.64816L832.06099,1340.28815L831.821,1339.92815L831.46101,1339.68815L831.34101,1339.44815
				L831.46101,1338.60814L830.86102,1334.88812L830.98102,1334.52812L830.86102,1334.16812L830.62103,1333.56811L830.26103,1333.08811
				L829.90104,1332.2481L829.78104,1331.8881L830.02104,1330.9281L830.02104,1330.20809L829.42105,1328.64808L829.18106,1328.16808
				L829.06106,1327.80808L829.06106,1327.44808L828.94106,1326.96807L828.82107,1326.60807L828.34108,1325.76807L827.98109,1323.72805
				L827.74109,1323.60805L827.5011,1323.36805L827.14111,1323.00805L827.2611,1322.04804L827.14111,1321.56804L826.90111,1320.36803
				L826.78111,1319.40803L826.90111,1318.92802L826.66112,1318.56802L826.06113,1317.48802L825.46114,1315.448L824.62116,1310.88797
				L824.38117,1309.08796L823.30119,1305.96795L823.30119,1305.36794L823.30119,1304.76794L823.30119,1304.40794L822.8212,1303.32793
				L822.34121,1302.36792L822.10122,1300.56791L825.46114,1299.48791L825.94113,1300.20791L826.30112,1301.28792L826.18113,1301.52792
				L825.94113,1302.60792L826.78111,1305.12794L827.5011,1307.52795L827.74109,1309.08796L827.3811,1309.56797L827.3811,1310.04797
				L827.98109,1310.64797L828.34108,1311.36798L829.06106,1312.68799L829.06106,1313.40799L828.58107,1314.00799L828.46108,1314.488
				L828.46108,1314.728L828.58107,1315.448L829.66105,1317.24801L829.66105,1318.68802L830.14104,1320.12803L830.62103,1320.72803
				L830.98102,1320.96804L830.98102,1321.56804L830.62103,1322.64805L831.34101,1326.24807L832.54098,1326.36807L832.90097,1326.60807
				L833.38096,1329.84809L833.74095,1330.8081L834.22094,1332.36811L835.30092,1337.04813L836.0209,1339.32815L837.10088,1343.64817
				L837.46087,1345.56819L838.06086,1347.6082L838.78084,1350.12821L839.86081,1354.80824L841.54078,1360.80828L843.70073,1369.32833
				L845.0207,1369.08833L845.74068,1368.96833L846.58066,1369.32833L847.06065,1369.56833L847.18065,1369.92833L847.30064,1370.04833
				L847.42064,1370.28834L847.42064,1370.52834L847.42064,1370.64834L847.18065,1371.24834L847.06065,1371.36834L846.22067,1373.28835
				L844.06072,1378.32839L841.30078,1387.44844L838.42085,1398.24851L836.74089,1403.88854L834.82093,1410.00858L833.62096,1414.2086
				L833.02097,1416.60862L831.46101,1421.88865L830.02104,1426.80868L829.30106,1429.9287L828.58107,1431.84871L827.5011,1435.08873
				L827.74109,1435.20873L827.02111,1437.24874L826.42112,1438.68875L825.46114,1441.20877L820.54126,1457.16886L820.66125,1457.88887
				L819.70128,1461.24889L819.22129,1461.72889L818.6213,1463.88891L818.26131,1466.40892L818.38131,1467.12893L818.7413,1468.32893
				L819.22129,1469.28894L820.66125,1471.56895L822.10122,1472.76896L821.86123,1473.36896L825.94113,1475.88898L828.22108,1477.20899
				L836.2609,1482.00902L840.3408,1483.92903L842.62075,1484.76903L845.50069,1485.84904L848.14063,1486.56904L848.26062,1483.80903
				L849.4606,1483.92903L849.4606,1486.92905L851.74054,1487.28905L861.94031,1488.84906L864.70025,1489.08906L866.50021,1489.08906
				L873.10006,1488.48906L872.74006,1486.32904L876.93997,1485.24904L877.29996,1487.04905L881.13987,1486.20904L883.89981,1485.36904
				L886.53975,1484.64903L886.89974,1484.52903L895.77954,1482.12902L899.25946,1481.04901L898.77947,1479.009L900.81942,1478.28899
				L909.57922,1476.12898L912.57915,1474.80897L919.53899,1471.44895L919.89899,1471.20895L920.49897,1471.56895L924.09889,1468.08893
				L926.85883,1465.56892L927.09882,1465.20891L928.0588,1465.80892L928.77878,1465.68892L929.13878,1465.32891L929.61876,1464.96891
				L932.2587,1462.08889L933.93867,1460.40888L934.17866,1460.64889L934.77865,1459.92888L934.53865,1459.44888L934.41865,1458.84888
				L934.29866,1458.36887L937.77858,1428.24869L926.85883,1427.04868L918.69901,1426.08868L912.45916,1425.24867L906.93928,1424.64867
				L901.17941,1423.92866L889.05969,1422.60865L887.85972,1422.36865L888.4597,1418.04863L889.05969,1413.0086L889.17969,1410.84858
				L890.01967,1403.64854L890.13967,1403.28854L890.37966,1403.04854L890.49966,1403.04854L890.73965,1403.04854L898.29948,1403.88854
				L915.57908,1405.92855L921.33895,1406.52856L927.9388,1407.36856L935.25864,1408.32857L938.37856,1408.68857L941.97848,1409.04857
				L942.09848,1408.68857L945.21841,1408.68857L945.5784,1406.40856L947.49836,1406.52856L947.49836,1404.36854L944.97841,1403.28854
				L945.33841,1402.44853L947.73835,1403.28854L948.81833,1395.72849L948.33834,1395.48849L948.21834,1395.36849L948.57833,1391.40846
				L948.69833,1391.28846L948.93832,1391.16846L949.29831,1391.28846L949.53831,1391.40846L949.17832,1395.12849L952.65824,1395.36849
				L953.01823,1391.76847L953.49822,1385.88843L949.8983,1385.52843L949.53831,1390.56846L949.29831,1390.68846L948.93832,1390.68846
				L948.69833,1390.56846L948.93832,1386.84844L949.17832,1384.44842L943.53845,1383.96842L943.65844,1382.76841L943.65844,1382.52841
				L944.01844,1382.40841L944.37843,1382.40841L948.93832,1382.76841L956.97814,1383.60842L964.65796,1384.32842L972.81778,1385.16843
				L984.45751,1386.48843L990.21738,1386.96844L1014.33683,1389.48845L1040.61623,1392.12847L1048.41605,1392.96847L1053.93592,1393.56848
				L1058.85581,1394.04848L1059.4558,1393.92848L1063.41571,1394.40848L1068.0956,1394.88849L1070.85554,1395.12849L1077.69538,1395.72849
				L1083.21526,1396.32849L1101.09485,1398.12851L1101.69483,1392.36847L1101.93483,1389.12845L1104.81476,1356.36825L1084.89522,1354.44824
				L1070.37555,1352.88823L1064.49568,1352.28823L1060.05578,1351.80822L1051.17599,1350.96822L1044.45614,1350.12821L1031.97643,1348.80821
				L1014.81682,1347.00819L1010.61691,1346.52819L999.21717,1345.32818L996.69723,1347.00819L989.3774,1351.32822L981.57758,1356.00825
				L978.33765,1357.92826L971.25781,1362.24829L963.69799,1366.68831L962.61801,1367.40832L962.25802,1369.68833L961.89803,1370.40834
				L961.29804,1371.00834L960.57806,1371.36834L959.97807,1371.36834L952.29825,1370.52834L945.4584,1369.80833L945.09841,1369.44833
				L945.21841,1368.60833L945.33841,1368.48833L949.7783,1368.84833L952.65824,1369.20833L953.01823,1365.72831L953.37822,1360.20827
				L878.97992,1352.64823L878.61993,1351.92822L877.77995,1350.12821L878.13994,1346.04819L878.37993,1344.60818L876.09999,1345.32818
				L874.90001,1345.92819L874.90001,1346.16819L874.30003,1346.40819L873.70004,1346.64819L872.98006,1346.76819L872.38007,1346.76819
				L872.02008,1346.64819L871.90008,1346.40819L871.66009,1345.44819L871.66009,1345.08818L871.78009,1344.60818L876.57998,1343.28817
				L880.41989,1342.32817L882.69984,1341.96816L884.85979,1341.96816L888.09971,1336.68813L888.93969,1324.08806L888.93969,1323.96805
				L887.97972,1323.96805L887.73972,1323.96805L887.73972,1323.84805L888.21971,1319.64803L889.29969,1319.76803L889.41968,1319.76803
				L890.73965,1301.52792L889.17969,1301.40792L889.29969,1301.40792L889.65968,1297.32789L890.97965,1297.44789L890.97965,1297.32789
				L891.45964,1290.72785L891.57963,1289.40784L894.81956,1289.88785L891.45964,1335.60813L891.45964,1335.84813L891.57963,1335.96813
				L891.69963,1336.08813L892.17962,1336.32813L918.45902,1339.20815L917.97903,1342.08816L922.65892,1342.68817L923.8589,1342.56817
				L924.09889,1342.44817L924.69888,1342.32817L926.01885,1341.84816L926.49884,1341.60816L931.77871,1338.24814L934.53865,1336.20813
				L934.77865,1334.64812L937.41859,1311.00798L929.13878,1310.04797L929.49877,1306.32795L983.49753,1311.72798L983.73753,1309.20796
				L984.09752,1305.72794L987.33745,1274.64775L984.9375,1269.60772L977.73766,1273.08774L977.37767,1272.00774L994.17729,1263.84769
				L988.17743,1251.24761L975.69771,1257.24765L975.21772,1256.28764L987.69744,1250.16761L981.57758,1237.68753L959.01809,1248.4876
				L910.77919,1243.68757L884.73979,1248.36759L884.61979,1248.36759L891.57963,1270.80773L889.77967,1271.28773L881.97985,1245.96758
				L881.37987,1243.92757L883.05983,1243.68757L883.89981,1245.60758L896.25953,1243.44756L898.05949,1240.20754L898.05949,1239.84754
				L890.97965,1238.76754L887.13973,1231.44749L886.05976,1223.52744L887.37973,1207.44735L889.41968,1192.68726L889.41968,1192.56726
				L888.5797,1178.52717L885.45977,1160.64706L882.09985,1146.00697L877.17996,1128.00686L870.34012,1112.28677L863.98026,1095.12666
				L862.4203,1090.80664L859.54037,1082.64659L859.42037,1082.28658L859.42037,1082.16658L852.46053,1068.4865L849.58059,1062.00646
				L848.50062,1060.44645L848.74061,1056.84643L848.74061,1056.72643L845.74068,1053.60641L841.18078,1043.16635L841.06079,1043.04635
				L841.18078,1038.96632L841.18078,1038.84632L839.98081,1035.8463L834.46094,1027.80625L825.10115,1005.60612L824.98115,1005.48612
				L824.26117,999.84608L824.26117,999.72608L819.46128,988.92602L811.30147,969.3659L806.50158,959.28584L798.22177,940.80572L
				794.26186,934.32568L785.86205,918.48559L779.50219,907.20552L778.06223,904.2055L776.38226,900.72548L772.30236,894.60544L766.42249,884.64538
				L759.82264,874.56532L756.22273,869.04529L743.38302,843.84513L740.62308,834.12507L719.02358,793.68483L710.62377,778.92474
				L644.26528,661.44402L643.5453,660.72402L641.14535,655.80399L638.9854,647.04394L638.02543,637.44388L637.90543,637.32388L637.18544,628.56382
				L634.9055,618.12376L632.86554,605.04368L632.02556,593.76361L632.62555,584.52356L632.86554,576.36351L633.34553,562.44342L
				631.90557,554.28337L629.74561,542.4033L628.54564,534.48325L627.94566,526.4432L626.74568,515.88314L624.34574,489.84298L622.54578,473.52288
				L621.10581,450.84274L620.74582,445.44271L618.10588,425.76259L614.02597,404.16246L610.18606,381.12232L605.86616,351.72214
				L600.22629,324.48197L596.14638,300.84183L589.30654,276.60168L589.30654,276.48168L583.78666,263.0416L572.14693,237.84145L
				572.14693,237.72145L569.50699,228.96139L568.78701,223.68136L567.94703,213.1213L565.66708,198.12121L560.62719,177.60108L560.02721,166.56101
				L566.26706,160.32098L570.10698,159.24097L578.26679,157.08096L587.98657,158.40096L588.70655,158.52096L602.38624,159.96097
				L619.30585,162.48099L622.78577,164.641L631.66557,166.68101L637.90543,169.08103L649.42516,174.48106L660.9449,180.7211L669.7047,186.72114
				L675.70456,190.56116L677.26453,192.24117L680.98444,194.52118L687.3443,199.20121L694.66413,204.12124L699.82401,208.20127L
				711.70374,220.32134L715.30366,225.96138L720.94353,236.52144L724.18346,241.08147L726.10341,243.84148L730.66331,250.32152L
				737.38316,261.12159L751.06284,275.40168L756.94271,279.9617L765.58251,284.40173L768.58244,285.60174L773.86232,286.56174L785.02207,290.52177
				L793.54187,295.8018L800.9817,299.40182L809.02152,302.64184L822.9412,308.76188L832.30099,312.0019L839.86081,315.12192L843.58073,316.92193
				L850.42057,320.04195L866.9802,329.88201L876.93997,342.00208L882.45984,349.08212L888.33971,355.80216L909.45922,362.88221L
				915.93908,365.76223L923.97889,370.08225L930.21875,374.40228L933.93867,379.56231L934.05866,379.80231"/>
		</g>
		<g id="sattlements_Anno_6">
			<g font-family="'Sylfaen'" font-size="1" kerning="0" font-weight="700" fill="#000000" clip-path="url(#SVG_CP_1)" >
				<text text-anchor="start" transform="matrix(300.91971 0 0 300.92007 950.86908 906.88191)" >
					<tspan direction="ltr" unicode-bidi="embed" x="0 ">Poti</tspan>
					
				</text>
			</g>
		</g>
	</g>
</svg>
