<?xml version="1.0" encoding="utf-8" standalone="no"?>
<!-- Creator: Esri ArcMap 10.9.1.28388 -->
<!DOCTYPE svg PUBLIC "-//W3C//DTD SVG 1.1//EN"  "http://www.w3.org/Graphics/SVG/1.1/DTD/svg11.dtd">
<svg width="2592pt" height="3456pt" viewBox="0 0 2592 3456" enable-background="new 0 0 2592 3456"
	version="1.1" xmlns="http://www.w3.org/2000/svg" xmlns:xlink="http://www.w3.org/1999/xlink" >
	<g id="Layers">
		<g id="municipal">
			<path clip-path="url(#SVG_CP_1)" fill="#c85861" fill-rule="evenodd" stroke="none" d="M1821.48,354.96258L1848,363.12264L1879.44,351.96256
				L1911.84,358.0826L1945.44,359.40261L1957.8,386.76281L1992.72,412.923L2006.16,416.40303L2040.12,425.04309L2041.2,425.40309
				L2072.4,427.80311L2180.28,501.72365L2167.8,525.72382L2163.36,534.12388L2158.8,543.00395L2144.4,562.68409L2133.48,574.80418
				L2133,575.28418L2126.52,582.48424L2106.72,585.96426L2099.64,594.96433L2093.04,597.00434L2082.36,600.36437L2077.44,601.92438
				L2070.96,603.96439L2069.16,627.24456L2069.16,645.12469L2077.32,660.6048L2080.68,667.08485L2085.24,675.60491L2097.24,687.605
				L2098.56,688.92501L2099.64,690.00502L2101.56,692.16503L2105.4,696.24506L2119.32,711.48517L2122.92,747.36543L2122.68,748.92545
				L2122.56,749.28545L2121.12,756.9655L2121.24,757.32551L2121.6,759.84552L2121.6,759.96553L2121.36,761.16553L2121.36,761.28554
				L2120.16,763.56555L2120.04,763.56555L2119.92,763.68555L2119.44,763.92555L2119.2,764.40556L2119.2,765.00556L2119.32,765.48557
				L2119.56,765.84557L2119.44,766.20557L2119.44,766.32557L2118.72,770.2856L2116.2,783.6057L2116.08,784.68571L2116.44,784.80571
				L2119.56,810.00589L2133.6,847.32616L2140.08,864.12628L2142.48,870.48633L2147.16,883.08642L2147.64,884.04643L2149.56,889.44647
				L2149.68,889.80647L2152.8,897.96653L2153.52,899.64654L2160.24,917.52667L2158.56,965.04702L2157.96,979.68712L2157.72,987.12718
				L2157.36,996.24724L2157.24,996.24724L2154.72,998.28726L2152.44,999.72727L2148.48,1000.56727L2143.92,1002.00729L2139.48,1003.32729
				L2134.08,1004.6473L2129.4,1007.52733L2128.08,1008.96734L2126.88,1010.16734L2126.04,1013.88737L2126.76,1015.92739L2129.28,1016.52739
				L2133,1014.84738L2136.96,1012.92736L2139.96,1013.40737L2140.56,1014.60738L2141.4,1016.40739L2140.68,1018.92741L2139.12,1018.92741
				L2135.64,1024.92745L2135.88,1025.16745L2140.68,1026.12746L2134.68,1031.2875L2118.36,1032.48751L2110.68,1032.60751L2110.92,1033.08751
				L2111.52,1035.72753L2111.52,1036.56754L2111.28,1037.16754L2110.68,1037.52754L2109.36,1038.36755L2108.64,1039.08755L2108.04,1040.04756
				L2107.68,1040.64757L2107.44,1041.24757L2107.44,1041.84757L2107.44,1042.20758L2108.76,1045.9276L2108.88,1047.96762L2108.52,1048.44762
				L2107.92,1048.92763L2107.2,1049.64763L2106.12,1050.72764L2105.76,1051.44764L2105.04,1052.40765L2103.96,1053.36766L2102.76,1054.68767
				L2101.92,1055.52767L2100.96,1056.60768L2100.84,1057.20769L2100.72,1058.16769L2100.6,1058.7677L2100.24,1059.2477L2099.4,1059.84771
				L2098.44,1060.32771L2097.36,1060.80771L2096.4,1061.16772L2094.72,1061.88772L2094.24,1062.00772L2093.88,1062.36772L2093.52,1063.08773
				L2093.04,1063.44773L2092.32,1063.80773L2091.84,1064.52774L2091.6,1065.00774L2091.24,1065.00774L2089.56,1065.36775L2088.84,1065.96775
				L2088.48,1066.68776L2088.24,1067.52776L2087.52,1068.00776L2086.56,1068.48777L2086.08,1069.08777L2085.6,1069.80778L2085,1070.52778
				L2084.4,1070.88779L2084.16,1070.88779L2083.32,1071.00779L2082.6,1070.88779L2081.88,1070.52778L2081.04,1069.92778L2079.6,1069.44778
				L2077.68,1069.80778L2075.88,1070.28778L2075.64,1070.52778L2071.92,1074.60781L2071.56,1074.84781L2070.24,1076.64783L2069.88,1077.60783
				L2069.64,1078.56784L2069.16,1080.12785L2068.44,1081.56786L2067.96,1082.40787L2067.72,1082.76787L2066.76,1083.84788L2066.28,1084.56789
				L2066.04,1085.28789L2066.04,1086.3679L2066.28,1087.56791L2066.4,1088.16791L2066.4,1089.12792L2066.04,1090.56793L2065.2,1092.96795
				L2065.2,1094.52796L2065.08,1095.96797L2065.08,1096.68797L2064.6,1099.08799L2064.24,1099.808L2063.76,1100.168L2063.52,1100.168
				L2062.2,1100.888L2060.76,1102.08801L2060.88,1103.04802L2061.36,1104.12803L2062.68,1105.56804L2064.36,1106.64805L2066.04,1107.00805
				L2063.88,1109.28807L2063.04,1110.12807L2059.32,1113.8481L2056.8,1116.12811L2053.8,1118.64813L2051.16,1120.68815L2048.76,1122.60816
				L2045.4,1123.92817L2043.12,1125.24818L2041.92,1125.84819L2039.16,1128.0082L2039.16,1128.1282L2037.6,1129.92822L2037,1131.96823
				L2036.4,1134.36825L2036.04,1135.44826L2034.84,1138.68828L2033.52,1140.72829L2033.52,1140.84829L2032.2,1142.40831L2029.44,1144.44832
				L2026.08,1144.80832L2021.52,1144.68832L2020.2,1145.04832L2019.36,1145.28833L2018.76,1146.36833L2018.04,1147.32834L2016.36,1149.72836
				L2015.16,1152.24838L2014.68,1155.0084L2014.8,1158.36842L2013.36,1159.80843L2013.12,1159.92843L2011.44,1160.40844L2007.12,1161.60845
				L2005.44,1161.72845L2004.24,1161.84845L2002.92,1165.32847L2001.48,1168.8085L2003.4,1174.80854L2003.76,1174.92854L2004.12,1175.04854
				L2008.44,1177.32856L2012.4,1177.32856L2019.6,1178.76857L2024.64,1181.64859L2025,1181.52859L2025.24,1181.52859L2030.16,1184.76861
				L2031.12,1185.96862L2032.56,1187.64863L2034,1194.36868L2036.16,1200.72873L2040.48,1204.44876L2040.48,1205.64877L2048.16,1216.68885
				L2051.16,1262.40918L2102.28,1281.84932L2117.16,1295.52942L2133.24,1322.76962L2142.96,1361.2899L2152.68,1401.73019L2154.36,1443.6105
				L2224.44,1429.9304L2327.64,1442.41049L2419.32,1502.05092L2474.16,1556.17131L2452.68,1555.81131L2434.56,1571.77143L2422.8,1598.89162
				L2419.32,1616.29175L2341.56,1670.41214L2303.4,1671.85215L2286,1678.0922L2275.68,1707.01241L2274.84,1709.29243L2277,1723.93253
				L2269.32,1728.13256L2260.8,1720.09251L2259.6,1719.0125L2237.52,1719.7325L2217.24,1720.45251L2200.44,1749.37272L2194.32,1760.0528
				L2185.92,1767.61285L2149.92,1768.33286L2138.76,1776.73292L2143.56,1810.09316L2140.2,1837.09336L2123.52,1892.65376L2104.08,1892.65376
				L2107.8,1945.33414L2116.8,1949.77418L2123.16,1968.73431L2139.12,2015.89466L2129.16,2025.25472L2131.56,2042.77485L2135.4,2059.33497
				L2144.28,2067.85503L2144.64,2077.5751L2133,2092.69521L2117.16,2106.49531L2110.8,2119.57541L2109.48,2122.33543L2104.2,2145.2556
				L2094.96,2199.73599L2093.64,2234.89625L2087.88,2260.09643L2084.16,2270.29651L2081.64,2277.37656L2081.16,2278.45656L2081.4,2298.13671
				L2086.92,2295.73669L2095.44,2295.13669L2114.64,2294.65668L2139.6,2297.5367L2183.64,2322.25688L2208.84,2334.61697L2223.24,2341.69702
				L2226.6,2343.37704L2236.2,2348.05707L2238.24,2349.13708L2237.76,2354.05711L2234.64,2380.93731L2228.52,2429.89767L2178.12,2469.25795
				L2171.04,2474.77799L2151.24,2479.57803L2150.16,2479.93803L2149.2,2480.17803L2144.16,2481.37804L2130.36,2484.85807L2089.44,2494.93814
				L2098.44,2522.29834L2103.12,2536.69844L2104.44,2540.41847L2118.6,2579.05875L2128.56,2588.53882L2146.44,2605.57894L2149.32,2608.33896
				L2149.8,2608.81897L2157.96,2614.099L2181.36,2629.33912L2207.76,2646.49924L2205,2652.25928L2212.2,2657.41932L2210.4,2658.85933
				L2210.16,2658.97933L2210.04,2659.21933L2209.8,2659.33933L2200.08,2667.13939L2197.56,2667.9794L2194.32,2669.0594L2192.4,2669.65941
				L2192.28,2669.77941L2192.16,2669.77941L2191.8,2669.89941L2178.36,2674.33944L2177.4,2673.61944L2176.56,2672.89943L2160,2659.81934
				L2147.88,2651.77928L2138.28,2645.29923L2128.92,2641.2192L2119.56,2637.01917L2112.48,2633.89915L2107.8,2631.73913L2106.36,2631.37913
				L2097.84,2629.09911L2081.4,2638.33918L2058.48,2637.13917L2026.32,2627.2991L2023.2,2626.45909L2020.2,2625.49909L2000.52,2658.13933
				L2000.28,2658.49933L2000.16,2658.73933L2000.04,2658.85933L1999.56,2659.69934L1994.16,2668.5794L1992.24,2671.69942L1985.64,2682.6195
				L1980.6,2696.5396L1970.52,2703.37965L1967.28,2705.53967L1961.88,2720.65978L1947.72,2728.21983L1943.04,2728.33984L1930.44,2728.81984
				L1926.84,2730.61985L1916.76,2735.77989L1910.4,2748.37998L1905,2752.34001L1896.96,2758.10005L1880.52,2769.98014L1877.04,2775.14018
				L1876.56,2777.9002L1875.6,2783.54024L1872,2797.22034L1872,2797.34034L1875.24,2818.58049L1872.12,2825.66054L1865.76,2827.82056
				L1861.32,2832.9806L1857.24,2837.78063L1854.48,2849.54072L1853.4,2850.98073L1850.28,2855.30076L1846.32,2860.8208L1845.36,2863.22082
				L1847.4,2867.30085L1843.56,2885.06097L1840.56,2898.74107L1837.68,2899.94108L1835.88,2905.58112L1835.16,2912.06117L1834.68,2916.1412
				L1836.84,2920.70123L1837.44,2924.90126L1839.84,2934.02133L1842,2942.42139L1840.08,2948.66144L1835.64,2952.50147L1815.12,2970.5016
				L1805.16,2971.4616L1757.64,3020.18196L1754.4,3023.66198L1753.92,3027.98201L1762.2,3029.42202L1797.6,3035.54207L1800,3039.8621
				L1797.12,3044.54213L1782.12,3056.30222L1773.36,3063.14227L1773.36,3071.66233L1773.36,3091.10247L1769.04,3104.42257L1772.88,3113.42264
				L1773.12,3117.50266L1773.48,3121.7027L1773.96,3130.10276L1774.8,3141.50284L1757.88,3141.50284L1755.84,3141.50284L1755.48,3141.62284
				L1739.28,3147.86289L1738.32,3148.22289L1726.8,3152.66292L1726.32,3152.90292L1716.12,3154.82294L1716,3154.82294L1715.76,3154.82294
				L1672.68,3162.86299L1671.36,3163.583L1671.24,3163.583L1671,3163.703L1663.68,3167.66303L1631.76,3170.42305L1616.64,3212.30335
				L1610.4,3218.4234L1578.12,3228.38347L1575.72,3232.2235L1575.72,3249.74363L1533,3246.5036L1526.4,3251.18364L1496.88,3251.18364
				L1494.96,3248.30362L1492.56,3229.34348L1489.32,3224.66344L1460.28,3195.14323L1480.44,3172.82307L1482.6,3170.42305L1480.92,3159.50297
				L1471.2,3100.10254L1463.64,3092.54248L1455,3092.06248L1433.28,3090.62247L1425.36,3095.0625L1396.68,3111.02262L1386.96,3105.14257
				L1382.16,3102.14255L1359.6,3088.22245L1349.64,3108.1426L1349.16,3109.2226L1335.12,3114.26264L1333.56,3114.86265L1319.28,3119.90268
				L1314.96,3121.58269L1291.32,3123.98271L1274.52,3125.78272L1273.08,3120.38269L1268.76,3105.02257L1263.36,3085.70243L1261.56,3078.98238
				L1260.12,3073.82235L1257.48,3064.46228L1257,3062.66227L1230.36,3068.78231L1217.4,3056.06222L1213.44,3052.22219L1203.24,3042.26212
				L1191.12,3030.50203L1178.64,3018.26194L1170.6,3010.46189L1168.68,3008.54187L1156.92,2990.54174L1150.32,2980.82167L1150.32,2980.70167
				L1139.76,2965.10156L1132.44,2955.02148L1109.64,2919.50123L1109.04,2918.54122L1108.92,2918.54122L1104.48,2918.30122L1089.24,2919.62123
				L1085.28,2919.26122L1066.92,2913.38118L1066.92,2919.50123L1065.84,2921.78124L1064.16,2925.38127L1063.08,2926.58128L1061.16,2928.50129
				L1058.16,2930.90131L1052.88,2932.46132L1049.16,2930.90131L1045.56,2927.42128L1043.76,2924.06126L1044.72,2921.54124L1046.4,2919.14122
				L1048.32,2915.5412L1048.8,2912.90118L1049.28,2909.78115L1047.96,2906.66113L1043.88,2904.50112L1037.88,2903.66111L1033.56,2902.8211
				L1028.52,2904.50112L1027.92,2902.7011L1026.36,2899.46108L1026.12,2898.98108L1026,2898.86108L1025.88,2898.62107L1021.8,2893.46104
				L1019.52,2886.14098L1007.76,2858.90078L1009.32,2854.82076L1008.24,2847.98071L1007.16,2816.30047L996.96,2803.94039L995.76,2802.50037
				L991.2,2796.98033L990.96,2796.62033L990.36,2795.90033L989.76,2795.18032L981.84,2785.58025L981.12,2784.62024L972.84,2774.54017
				L971.16,2772.62016L969.84,2770.82014L969,2762.42008L965.16,2757.02004L957.24,2751.26L952.32,2747.65998L951.36,2745.85996
				L950.76,2744.77996L950.4,2744.17995L950.04,2743.57995L948.72,2741.05993L962.16,2741.77993L962.88,2741.89993L963.84,2741.89993
				L979.8,2742.85994L986.76,2745.01996L1000.56,2745.61996L1001.52,2745.61996L1002.84,2745.73996L1008.48,2740.57992L1011.12,2738.89991
				L1012.44,2737.2199L1012.68,2733.01987L1016.16,2727.01983L1020.12,2723.7798L1024.56,2724.0198L1026.72,2721.13978L1029.12,2718.97977
				L1034.4,2717.53976L1037.28,2709.4997L1037.04,2703.73966L1039.08,2701.93964L1044,2700.61963L1050.24,2700.97964L1063.2,2699.65963
				L1069.32,2689.21955L1074,2679.61948L1077.84,2673.13943L1082.76,2670.37941L1085.76,2667.9794L1087.56,2664.73937L1092.96,2659.45933
				L1094.04,2656.33931L1095.48,2652.25928L1095.84,2649.01926L1095,2646.25924L1094.04,2644.09922L1094.04,2642.53921L1096.92,2640.6192
				L1099.08,2640.7392L1101.96,2639.41919L1104.12,2637.25917L1107.6,2636.29917L1113.12,2637.37917L1117.08,2634.97916L1118.52,2633.29914
				L1117.8,2629.09911L1118.28,2626.21909L1120.2,2600.2989L1121.28,2586.4988L1140.84,2552.65856L1142.04,2550.37854L1144.8,2545.45851
				L1144.92,2545.33851L1146.6,2543.05849L1146.72,2542.69849L1146.96,2542.21848L1146.96,2542.09848L1147.92,2541.13847L1156.08,2532.01841
				L1157.88,2530.09839L1158.48,2514.85828L1158.36,2514.37828L1158.24,2514.01828L1158.24,2513.89828L1158.24,2513.53827L1158.12,2513.29827
				L1158.12,2513.05827L1158,2512.69827L1158.24,2511.61826L1159.68,2502.37819L1158.24,2498.05816L1149.72,2486.53808L1146.36,2481.85804
				L1142.16,2475.498L1139.88,2472.25797L1135.44,2469.13795L1127.64,2460.49789L1123.32,2463.37791L1120.8,2463.25791L1117.92,2460.85789
				L1114.68,2460.49789L1109.64,2459.89788L1101.24,2458.93788L1099.32,2458.57787L1094.88,2458.21787L1091.52,2457.97787L1090.08,2457.73787
				L1080.6,2456.17786L1072.92,2457.37787L1070.52,2457.73787L1068.72,2457.85787L1068.48,2457.97787L1068.12,2457.85787L1067.76,2457.73787
				L1067.16,2457.49787L1066.32,2457.25786L1066.2,2457.13786L1066.08,2457.13786L1063.56,2456.29786L1063.32,2456.17786L1062.96,2456.05786
				L1059.24,2453.29784L1058.52,2451.73782L1055.28,2448.8578L1053.48,2447.29779L1053.84,2446.93779L1054.32,2446.57779L1055.64,2445.61778
				L1057.56,2444.17777L1056.72,2443.57777L1055.88,2442.85776L1045.56,2434.4577L1042.2,2435.1777L1036.56,2428.21765L1033.92,2425.09763
				L1032.72,2424.61763L1029.6,2423.29762L1028.52,2422.93762L1028.04,2422.69761L1024.68,2421.0176L1018.92,2418.13758L1013.76,2415.97756
				L1009.08,2418.01758L1009.08,2418.61758L1008.72,2422.81761L1012.2,2429.89767L1013.76,2433.01769L1015.92,2436.37771L1022.04,2441.65775
				L1027.32,2443.81777L1025.88,2452.33783L1023.48,2455.45785L1017.36,2454.61785L1011.24,2455.21785L1010.88,2455.33785L1008.84,2455.45785
				L1008.72,2455.45785L1008.12,2455.45785L1007.28,2455.21785L1004.4,2454.73785L1003.56,2454.73785L1002.84,2454.97785L1002.72,2455.21785
				L1000.2,2455.09785L999.12,2455.09785L993,2454.73785L987,2442.61776L989.76,2442.37776L989.76,2440.93775L989.64,2436.97772
				L989.64,2434.8177L989.64,2433.9777L989.4,2432.41768L987.72,2429.53766L985.44,2426.53764L985.2,2426.29764L983.52,2424.85763
				L983.04,2424.61763L981.6,2423.41762L981.6,2422.45761L981.48,2422.45761L981.12,2421.3776L979.8,2419.45759L978,2417.89758L
				976.68,2417.53758L975.48,2416.69757L974.4,2415.85756L973.92,2415.97756L972.96,2414.77756L971.4,2412.37754L969,2408.89751
				L968.4,2407.6975L966.12,2404.09748L965.64,2402.65747L965.04,2397.97743L964.92,2397.49743L964.8,2396.77743L964.56,2394.49741
				L964.08,2388.85737L964.08,2383.57733L963.84,2383.57733L955.44,2366.4172L943.08,2359.93716L942.84,2359.69716L942.48,2359.57715
				L939.36,2356.69713L936.84,2353.09711L936.84,2352.97711L936.72,2352.85711L931.2,2344.57705L923.64,2330.77695L923.4,2330.17694
				L922.56,2328.73693L919.44,2323.09689L917.28,2319.01686L914.4,2314.09682L913.56,2312.77681L913.8,2312.29681L913.92,2312.17681
				L914.16,2311.69681L914.52,2310.8568L914.04,2309.65679L912.96,2307.01677L912.84,2306.53677L911.4,2303.41675L911.16,2302.81674
				L909.72,2299.21672L908.16,2295.13669L907.44,2293.57667L906.48,2291.41666L905.28,2290.09665L905.16,2289.97665L905.04,2289.73665
				L904.8,2289.49665L903.24,2286.13662L901.32,2284.45661L901.08,2284.09661L898.2,2281.93659L896.52,2279.05657L895.8,2278.45656
				L890.4,2274.49654L890.16,2274.25653L888.24,2272.93652L887.88,2272.57652L884.04,2269.3365L882.6,2268.25649L881.88,2267.65649
				L881.76,2267.53649L880.92,2267.05648L879.96,2266.57648L879.84,2266.45648L878.64,2265.85647L877.8,2265.37647L876.72,2264.89647
				L875.88,2264.41646L871.92,2263.45646L870.48,2263.09645L869.28,2260.81644L868.8,2259.73643L867.24,2256.73641L866.52,2255.1764
				L866.04,2253.85639L864.96,2250.49636L864.84,2249.77636L864.84,2249.65636L864.36,2247.25634L863.16,2244.73632L861.12,2240.29629
				L860.52,2238.97628L859.56,2236.81626L859.44,2236.57626L859.32,2236.33626L858.96,2235.37625L859.44,2235.01625L863.04,2231.65622
				L867.6,2226.61619L873.48,2219.41614L873.6,2219.17613L875.28,2216.65612L876.84,2214.3761L878.76,2211.37608L878.88,2211.13608
				L881.28,2206.81604L884.28,2202.01601L884.4,2201.89601L884.52,2201.65601L885.24,2200.456L887.76,2196.13597L888.24,2195.41596
				L890.28,2192.05594L892.32,2188.45591L892.44,2188.33591L892.8,2187.97591L894.72,2185.21589L894.96,2184.73588L894.96,2184.37588
				L895.44,2182.81587L896.16,2180.17585L896.52,2178.85584L897.12,2176.69583L895.56,2176.21582L895.44,2176.21582L893.52,2175.61582
				L893.52,2175.49582L891.84,2174.53581L886.32,2171.17578L885.96,2170.93578L881.88,2168.53577L878.88,2166.49575L878.76,2166.49575
				L877.56,2164.81574L876.48,2163.49573L868.92,2158.57569L862.68,2154.49566L860.04,2152.93565L858.36,2151.25564L858.84,2150.29563
				L859.44,2149.21563L859.92,2147.77561L860.52,2146.3356L860.76,2145.7356L861,2145.01559L862.08,2144.29559L862.2,2144.17559
				L862.08,2142.73558L861.24,2141.77557L860.64,2141.53557L859.92,2141.17557L858,2140.09556L854.76,2138.05554L853.44,2136.01553
				L853.8,2133.49551L854.88,2131.21549L854.76,2128.81548L847.8,2123.89544L843.96,2120.89542L838.32,2118.6154L835.68,2114.89538
				L834.36,2114.65537L833.88,2114.53537L832.08,2114.41537L830.52,2114.29537L829.44,2114.17537L828.48,2114.17537L823.92,2112.61536
				L820.44,2112.61536L819.24,2112.13536L815.76,2110.81535L812.52,2110.81535L809.88,2110.09534L806.88,2107.69532L804,2105.89531
				L798.96,2103.13529L797.88,2102.77529L793.32,2100.73527L792.72,2100.13527L792.6,2099.89527L792.6,2099.77527L792.6,2099.53526
				L790.8,2098.45526L789,2097.37525L788.4,2097.01525L787.56,2095.93524L786.72,2094.97523L786.24,2094.49523L785.28,2093.05522
				L784.92,2092.57521L784.68,2092.33521L783.84,2091.1352L782.88,2089.81519L782.4,2089.21519L780.96,2087.29518L778.68,2083.93515
				L777.96,2082.97514L777.24,2082.01514L776.88,2081.65513L776.04,2080.81513L774.6,2079.49512L774.48,2079.37512L773.16,2078.05511
				L772.56,2077.4551L771.96,2076.4951L771.84,2076.4951L771.84,2076.3751L771.48,2075.77509L769.92,2074.81508L769.92,2074.69508
				L769.92,2074.57508L769.44,2073.85508L769.2,2073.37507L768.6,2072.29507L768.48,2072.29507L768.36,2071.81506L767.52,2070.61505
				L764.28,2064.73501L764.16,2064.73501L764.76,2061.01498L763.68,2060.53498L762.72,2060.17498L761.76,2059.57497L761.28,2059.33497
				L758.88,2057.89496L758.28,2057.53496L756.6,2056.57495L756.12,2056.33495L756,2056.21495L755.16,2055.37494L750.12,2052.01492
				L747,2048.65489L744.84,2045.65487L743.4,2044.33486L743.04,2043.97486L742.92,2043.97486L742.08,2043.37486L741.48,2042.89485
				L741,2042.65485L740.76,2042.53485L740.52,2042.41485L739.44,2041.45484L738.84,2039.17483L738.48,2037.97482L738.24,2037.13481
				L736.56,2033.77479L735.84,2033.41478L735.12,2033.05478L733.68,2030.65476L732.12,2026.93474L732.12,2026.81474L730.92,2024.41472
				L730.8,2024.29472L730.44,2024.05472L729.48,2022.97471L728.88,2022.4947L728.16,2021.17469L727.56,2019.73468L725.4,2018.41467
				L725.16,2018.29467L724.8,2017.81467L723.96,2016.01466L723.36,2014.81465L718.68,2012.89463L711.48,2007.37459L710.52,2004.85458
				L710.04,2003.53457L709.68,2002.93456L707.64,1999.57454L707.28,1998.97453L706.2,1997.05452L706.08,1996.93452L704.76,1994.6545
				L704.04,1993.33449L702.72,1991.17448L702.36,1990.45447L700.8,1987.93445L700.32,1985.89444L700.32,1985.77444L699.6,1983.01442
				L697.92,1981.0944L696.96,1974.13435L696.6,1971.97434L696,1970.53433L694.56,1968.25431L693.84,1967.0543L693.48,1966.4543L
				690.96,1962.37427L687.12,1961.77426L685.32,1959.85425L684.96,1959.61425L683.88,1958.41424L683.4,1958.41424L683.04,1958.41424
				L682.2,1958.41424L681.84,1958.41424L680.64,1958.17424L680.16,1958.17424L679.8,1957.57423L679.68,1957.21423L678.24,1956.85423
				L677.52,1956.73423L676.08,1956.37422L674.52,1956.01422L672.36,1955.29422L671.76,1955.05421L670.68,1955.53422L668.76,1956.61423
				L666.6,1958.65424L666.12,1959.13424L665.4,1959.61425L665.28,1961.05426L665.04,1962.73427L663.96,1963.45427L663.24,1963.33427
				L662.4,1963.33427L657.12,1966.9343L654.84,1968.49431L653.16,1968.49431L653.04,1968.61431L649.56,1970.53433L646.92,1972.45434
				L645,1967.4143L644.52,1966.4543L643.8,1964.65428L642.24,1960.45425L641.76,1959.37425L640.8,1956.73423L639.96,1954.81421L
				639.96,1954.57421L639,1952.05419L638.76,1951.45419L639.24,1948.21416L639.36,1947.85416L639.48,1947.49416L639.48,1947.25416
				L639.48,1947.13416L639.6,1946.41415L642.96,1925.894L646.8,1922.05397L648.24,1920.61396L660.36,1900.57382L660.48,1900.33382
				L660.72,1900.09381L660.84,1899.85381L661.44,1898.89381L662.64,1897.09379L663.24,1896.25379L663.24,1896.13379L663.36,1896.01378
				L664.44,1893.49377L666.72,1876.09364L666.72,1875.97364L667.44,1874.41363L667.56,1874.05362L668.4,1865.89357L678.72,1844.89341
				L683.88,1851.13346L685.08,1851.01346L686.76,1850.77346L694.32,1850.65345L695.4,1850.05345L697.44,1848.97344L697.68,1848.85344
				L701.76,1845.97342L702,1845.73342L702.72,1845.25342L702.96,1845.01341L707.04,1841.53339L707.28,1841.41339L707.4,1841.17339
				L707.76,1840.93338L707.76,1840.81338L710.64,1838.05336L725.28,1836.73335L733.68,1830.49331L755.64,1841.41339L757.32,1840.57338
				L758.76,1839.97338L760.56,1839.01337L757.68,1833.01333L757.44,1832.41332L754.68,1824.37326L756,1823.53326L758.76,1821.61324
				L759.48,1821.13324L759.84,1820.89324L761.04,1820.41323L760.56,1815.6132L760.2,1811.41317L759.24,1803.49311L779.28,1805.29312
				L780.84,1804.57312L788.04,1801.6931L788.04,1804.33312L791.88,1803.97312L794.04,1802.77311L794.52,1801.8131L791.52,1800.25309
				L792,1798.69308L792.84,1797.13307L790.8,1794.13304L789.48,1792.33303L789.72,1790.29302L786.6,1790.53302L785.4,1788.373L785.28,1787.653
				L784.56,1785.01298L784.56,1781.89295L784.56,1781.41295L785.4,1779.49294L787.56,1778.17293L787.8,1776.97292L788.4,1776.49292
				L788.52,1776.37291L788.76,1775.89291L789.12,1775.41291L789.72,1774.4529L790.8,1774.2129L791.4,1774.4529L791.4,1773.7329L
				791.16,1773.13289L791.04,1772.77289L792.12,1772.53289L793.56,1772.53289L795.6,1771.33288L795.72,1770.25287L794.64,1769.29286
				L795.36,1768.09285L796.32,1767.61285L796.92,1767.73285L797.64,1767.85285L799.68,1767.25285L799.2,1765.81284L799.92,1764.49283
				L801.24,1763.77282L802.68,1763.41282L803.64,1764.61283L804.6,1765.33283L806.4,1765.57284L807,1764.61283L807.36,1763.65282
				L808.08,1763.77282L808.68,1763.05282L809.28,1762.57281L809.28,1761.61281L810,1761.2528L810.96,1761.49281L811.92,1761.97281
				L812.16,1761.73281L812.4,1761.61281L812.52,1761.37281L813.72,1760.7728L814.2,1760.6528L814.44,1760.5328L815.28,1761.37281
				L815.88,1761.37281L817.32,1760.7728L818.16,1760.7728L818.4,1760.6528L819.12,1760.8928L819.12,1761.1328L819.12,1761.49281
				L820.2,1761.37281L821.16,1761.49281L821.88,1761.85281L826.56,1755.49276L826.8,1755.25276L827.04,1754.89276L827.04,1754.77276
				L824.4,1752.13274L824.88,1750.57273L824.76,1748.29271L824.4,1745.65269L823.32,1742.41267L821.76,1740.01265L820.2,1737.73263
				L819.84,1737.25263L818.76,1736.17262L817.68,1734.37261L816.6,1731.97259L816.24,1730.05258L814.92,1727.41256L813,1724.53254
				L809.64,1722.25252L804.36,1717.21248L796.2,1711.69244L785.28,1704.25239L779.64,1700.05236L773.64,1695.73233L764.16,1674.37217
				L762.36,1671.01215L754.8,1665.73211L754.08,1659.37206L752.88,1649.53199L752.52,1646.17197L750.6,1633.09187L750.48,1632.97187
				L750,1629.37185L751.08,1628.77184L754.08,1627.21183L751.2,1622.7718L751.8,1622.17179L752.28,1621.57179L752.16,1621.33179
				L749.76,1615.93175L749.64,1615.81175L750,1615.69175L751.32,1615.21174L751.8,1614.97174L751.32,1613.77173L750.72,1612.93173
				L749.76,1611.73172L748.8,1610.17171L748.56,1609.2117L748.44,1608.6117L747.36,1606.09168L746.04,1604.29166L743.76,1596.97161
				L743.04,1594.45159L742.08,1591.09157L738.84,1590.85157L737.16,1590.61156L735,1590.73157L732.84,1590.73157L732.6,1590.73157
				L732.48,1590.73157L732.36,1590.73157L729.12,1590.13156L727.92,1589.89156L726.36,1587.97155L723.84,1586.89154L721.08,1586.89154
				L719.28,1587.25154L719.16,1587.25154L719.04,1587.25154L718.92,1586.53153L718.44,1585.21152L717.84,1584.25152L717,1583.17151
				L716.76,1582.81151L715.44,1581.4915L714,1579.93149L712.2,1577.53147L711.48,1576.81146L710.52,1576.09146L710.16,1575.73146
				L709.68,1575.73146L709.08,1575.13145L708.48,1574.17144L707.88,1572.97144L707.64,1572.25143L706.92,1570.57142L705.72,1569.01141
				L704.76,1567.4514L703.8,1566.01139L703.68,1565.65138L703.08,1564.81138L702,1563.25137L701.76,1562.89136L701.04,1561.69135
				L700.2,1560.49135L700.2,1560.37134L699.84,1559.53134L699.84,1559.29134L699.6,1558.45133L699.48,1558.21133L699.24,1557.61132
				L699,1557.13132L698.88,1557.01132L698.64,1556.77132L698.4,1556.53132L697.68,1556.05131L696.96,1555.45131L696.72,1555.09131
				L696.24,1554.2513L695.76,1553.41129L695.4,1552.93129L694.92,1552.69129L694.2,1552.57129L693.84,1552.45129L693.6,1552.45129
				L693.24,1559.29134L690.96,1560.49135L690.84,1560.61135L690.72,1560.61135L690.48,1560.73135L690.12,1560.97135L688.68,1561.69135
				L687.24,1562.53136L687.12,1562.53136L687,1562.65136L686.88,1562.65136L686.76,1562.77136L685.32,1563.61137L685.2,1563.61137
				L684.6,1563.85137L684.48,1563.85137L683.76,1564.09137L682.56,1564.69138L682.2,1564.81138L680.28,1565.65138L680.04,1565.41138
				L680.04,1565.29138L679.56,1564.69138L679.08,1564.57137L677.76,1563.13136L676.68,1561.69135L676.44,1560.97135L676.32,1560.85135
				L676.32,1560.61135L676.08,1560.49135L675.84,1560.25134L674.52,1559.17134L672.72,1557.61132L670.68,1555.93131L669.84,1555.21131
				L670.2,1554.97131L673.8,1552.09128L673.92,1551.97128L674.16,1551.73128L674.52,1551.49128L676.8,1549.69127L678.6,1550.17127
				L678.72,1550.17127L678.84,1550.17127L679.08,1550.65127L679.2,1550.89128L679.92,1551.01128L680.52,1550.77127L680.88,1550.53127
				L682.44,1548.85126L684.96,1544.77123L685.44,1544.29123L685.32,1544.17123L685.68,1543.69122L686.4,1542.25121L686.52,1540.9312
				L683.76,1537.93118L679.8,1533.37115L679.2,1532.65114L678.96,1532.41114L675.24,1531.69114L675.12,1531.69114L674.64,1531.57114
				L672.24,1531.09113L671.04,1530.97113L667.56,1530.25113L664.92,1529.41112L664.2,1529.17112L664.08,1529.05112L663.96,1529.05112
				L663.72,1528.93112L663.6,1528.93112L662.88,1528.69111L657,1526.6511L653.88,1525.57109L641.04,1522.45107L638.76,1521.97107
				L637.32,1519.93105L639.72,1519.81105L640.92,1520.05105L641.16,1519.21105L640.44,1513.93101L640.08,1512.851L638.76,1512.731
				L638.16,1511.53099L637.08,1509.49097L636.12,1508.17096L633.12,1506.25095L629.76,1504.33094L627,1502.89093L624.6,1501.69092
				L623.76,1501.45092L620.04,1497.73089L615.84,1493.29086L612.6,1488.97083L610.56,1485.3708L612.96,1485.4908L613.92,1484.53079
				L613.8,1482.85078L595.92,1470.37069L585.96,1465.69066L584.4,1455.73058L569.28,1447.93053L567.84,1443.25049L567.84,1440.73047
				L568.92,1439.89047L575.04,1432.93042L580.8,1428.85039L583.08,1428.01038L572.76,1412.53027L569.64,1395.49015L559.68,1376.53001
				L554.88,1375.93L554.4,1373.76999L555.6,1369.80996L557.52,1365.36993L557.28,1364.88992L556.08,1362.96991L556.08,1362.84991
				L556.44,1360.44989L555.96,1359.00988L555.84,1358.88988L555.6,1358.76988L555.36,1358.52988L553.92,1356.72986L553.8,1356.48986
				L553.68,1356.24986L552.12,1354.08984L551.76,1354.08984L551.28,1353.96984L550.8,1353.60984L550.56,1353.00984L550.44,1352.52983
				L550.92,1351.68983L552.24,1352.16983L552.36,1351.68983L552.48,1351.68983L552.6,1351.20982L552.12,1351.08982L552.24,1350.84982
				L551.64,1350.48982L552,1350.00982L552.48,1348.92981L553.08,1349.16981L553.8,1347.8498L554.04,1347.4898L554.4,1347.12979L
				555,1346.28979L555.6,1345.68978L556.56,1344.72978L556.92,1344.48977L557.52,1343.88977L557.88,1343.52977L557.88,1343.16977
				L558.36,1342.68976L558.6,1342.08976L558.96,1341.96976L558.96,1341.60975L559.44,1341.24975L559.68,1340.40975L559.92,1340.04974
				L560.4,1339.44974L560.52,1338.84973L560.52,1338.36973L560.76,1337.76973L560.88,1337.76973L560.88,1337.04972L561.24,1336.68972
				L561.12,1336.32972L561.12,1335.84971L561.36,1335.12971L561.72,1334.7697L561.84,1334.2897L561.96,1334.0497L562.08,1333.8097
				L562.2,1332.48969L562.56,1331.28968L562.68,1330.44967L562.92,1329.48967L562.92,1329.00966L563.16,1327.80965L563.52,1327.08965
				L563.64,1326.60964L563.76,1325.88964L564,1325.16963L564.12,1324.56963L564.24,1324.20963L564.48,1323.60962L564.6,1322.76962
				L564.72,1321.92961L564.84,1321.20961L564.96,1320.6096L565.08,1320.2496L565.2,1319.8896L565.44,1319.40959L565.56,1318.92959
				L565.68,1318.44959L565.92,1317.96958L566.04,1317.48958L566.28,1317.00958L566.4,1316.64957L566.4,1316.16957L566.52,1315.68957
				L566.64,1314.72956L566.64,1313.88955L566.76,1313.04955L566.88,1312.56954L566.88,1312.20954L566.88,1311.72954L566.76,1311.36953
				L566.64,1310.76953L566.64,1310.04952L566.64,1309.44952L566.64,1308.72951L566.52,1307.76951L566.4,1307.0495L566.28,1306.5695
				L566.28,1305.72949L566.16,1305.36949L566.04,1304.52948L566.04,1304.40948L565.68,1303.44948L565.8,1302.60947L565.68,1301.64946
				L565.32,1300.44945L565.08,1299.72945L565.08,1299.48945L565.32,1299.12945L565.56,1298.64944L566.04,1298.04944L566.4,1297.44943
				L566.88,1296.84943L567.24,1296.36943L567.6,1295.64942L567.96,1295.40942L568.32,1294.68941L568.44,1293.72941L568.68,1293.1294
				L569.16,1291.92939L569.28,1291.20939L569.64,1290.84938L569.76,1290.00938L569.76,1289.04937L569.64,1287.48936L569.16,1285.92935
				L568.68,1284.84934L568.2,1283.76933L567.36,1282.92933L566.28,1282.20932L565.8,1281.72932L565.32,1280.88931L564.84,1280.16931
				L564.48,1279.4493L564.12,1278.8493L564.12,1278.36929L564.36,1278.00929L564.96,1277.52929L565.56,1276.56928L566.4,1275.60927
				L566.88,1274.88927L567.36,1274.28926L567.6,1273.44926L567.84,1272.48925L567.72,1271.16924L567.72,1270.08923L567.72,1269.24923
				L567.24,1268.40922L566.88,1267.56922L566.52,1266.96921L565.92,1266.12921L565.56,1265.6492L565.44,1265.5292L565.32,1265.2892
				L565.08,1264.9292L564.48,1264.56919L563.52,1264.08919L562.44,1263.72919L561.24,1263.24918L560.28,1262.64918L559.56,1261.92917
				L558.6,1261.20917L558.24,1260.96917L558,1260.60917L557.64,1259.76916L557.28,1258.92915L557.28,1258.20915L557.64,1257.12914
				L558,1256.16913L558.24,1255.56913L558.36,1254.84912L558.48,1254.36912L558.6,1253.64911L558.48,1252.80911L558.36,1252.0891
				L558.24,1251.6091L557.88,1251.2491L557.4,1250.88909L555.6,1249.44908L555.6,1248.72908L555.36,1247.88907L555.12,1247.16907
				L554.64,1246.44906L554.16,1245.60906L553.92,1244.88905L553.8,1244.28905L553.44,1243.80904L552.96,1242.96904L552.84,1242.72904
				L552.36,1241.88903L552,1241.40903L552,1240.68902L552,1239.96902L552.12,1239.72901L552.36,1239.36901L552.84,1239.36901L553.32,1239.12901
				L553.8,1238.88901L554.28,1238.289L554.76,1237.809L555.48,1237.329L556.32,1236.96899L557.28,1236.00899L558,1235.40898L558.84,1234.44897
				L559.56,1233.72897L560.16,1232.52896L560.64,1231.68895L561.12,1231.20895L561.84,1230.60895L562.32,1230.24894L562.68,1229.52894
				L562.92,1228.56893L563.04,1227.84893L563.04,1227.00892L562.92,1226.40892L562.68,1225.92891L562.68,1225.20891L562.56,1224.6089
				L561.96,1223.8889L561.6,1223.28889L561.12,1223.04889L559.92,1223.04889L557.88,1223.40889L557.04,1223.5289L556.56,1223.5289
				L555.72,1223.04889L554.88,1222.56889L553.92,1221.72888L552.12,1219.56887L550.8,1217.76885L550.92,1217.28885L551.28,1216.80885
				L551.88,1215.48884L552.72,1214.40883L553.44,1213.32882L554.52,1212.84882L555.72,1212.12881L556.8,1211.64881L557.4,1211.16881
				L558.36,1209.60879L559.44,1208.04878L560.16,1206.48877L560.88,1204.44876L561.12,1203.24875L561.48,1202.28874L562.08,1201.32873
				L563.28,1200.24873L563.64,1199.16872L563.64,1197.84871L563.52,1196.8887L563.52,1195.92869L563.52,1195.44869L563.64,1194.84869
				L563.28,1194.00868L562.44,1192.92867L561.12,1191.84867L560.16,1191.12866L558.84,1190.52866L557.28,1189.92865L555.12,1189.20865
				L553.68,1188.60864L552.6,1187.88864L551.64,1186.92863L550.8,1185.60862L550.2,1184.52861L549.48,1183.2086L549.12,1181.88859
				L549,1181.40859L549.48,1179.72858L549.6,1178.88857L549.6,1177.92856L549.48,1177.08856L549.36,1175.88855L549.24,1175.40855
				L549,1174.80854L549.48,1173.60853L549.72,1171.92852L550.44,1170.24851L551.04,1168.6885L551.4,1167.60849L551.76,1166.88848
				L552.36,1166.40848L552.96,1165.44847L553.56,1164.12846L554.64,1162.92845L555.84,1161.48844L556.92,1159.80843L558,1158.12842
				L558.6,1156.92841L559.2,1156.32841L559.92,1155.8484L560.4,1155.4884L560.52,1155.0084L560.64,1154.64839L560.88,1154.40839
				L561.48,1153.92839L562.2,1153.56839L563.16,1153.32839L563.88,1152.72838L564.48,1152.12838L565.08,1151.64837L565.44,1151.28837
				L565.92,1151.28837L566.52,1151.04837L567,1150.92837L567.12,1150.56837L567.48,1149.72836L567.84,1147.56834L567.84,1145.88833
				L567.72,1144.92832L567.48,1143.72832L566.64,1141.9283L566.16,1140.48829L565.2,1138.80828L564.36,1137.72827L563.88,1137.12827
				L563.76,1136.52826L563.76,1135.56826L563.76,1134.96825L563.76,1134.60825L563.88,1134.12825L564.48,1133.16824L564.72,1132.80824
				L564.84,1131.72823L564.96,1130.88822L564.96,1130.28822L565.32,1129.56821L565.44,1128.96821L565.56,1128.1282L565.68,1125.84819
				L565.68,1124.76818L565.44,1123.68817L565.44,1122.24816L565.32,1121.04815L565.2,1120.08814L565.32,1119.36814L565.68,1118.52813
				L566.04,1117.92813L566.28,1116.24812L566.4,1111.32808L566.28,1110.60807L566.04,1109.28807L565.92,1108.44806L565.68,1107.24805
				L565.44,1106.52804L565.08,1105.44804L564.96,1104.84803L564.96,1103.28802L564.96,1102.20801L564.84,1101.48801L564.48,1100.768
				L563.76,1099.44799L563.16,1098.12798L562.92,1097.28798L562.92,1096.80797L562.92,1096.20797L562.92,1095.36796L563.04,1094.52796
				L563.16,1093.68795L563.28,1092.84795L563.76,1092.24794L564.96,1091.28793L566.28,1090.08793L566.76,1089.60792L566.88,1089.48792
				L567.6,1088.88792L568.2,1088.40791L568.44,1088.16791L569.04,1087.68791L569.76,1087.32791L570.36,1086.8479L570.84,1086.4879
				L571.32,1086.0079L571.68,1085.52789L571.92,1084.68789L572.4,1083.96788L572.88,1083.12787L573.36,1082.40787L572.88,1079.04785
				L572.76,1070.28778L573.72,1068.60777L573.96,1068.36777L574.32,1067.40776L574.32,1066.32775L573.48,1064.64774L573,1063.44773
				L572.28,1062.24772L572.04,1061.76772L571.8,1060.80771L571.8,1060.20771L571.68,1059.4877L571.8,1059.1277L571.92,1059.0077
				L572.16,1058.16769L572.28,1057.80769L572.4,1056.96768L572.52,1055.76768L572.88,1054.92767L573.48,1053.60766L573.72,1052.28765
				L573.96,1050.48764L574.2,1049.52763L574.92,1048.44762L575.52,1047.60762L576.24,1046.64761L577.44,1046.04761L577.8,1045.6876
				L579,1045.4476L579.96,1044.9676L583.08,1043.64759L583.68,1043.16758L584.52,1042.56758L585.36,1041.84757L585.96,1040.88757
				L586.44,1040.28756L587.16,1039.56756L588,1038.72755L588.72,1038.24755L588.96,1037.88755L589.2,1037.88755L590.16,1037.64754
				L591.12,1037.52754L591,1037.40754L591,1037.28754L590.88,1036.92754L590.88,1036.56754L591,1036.08753L591.48,1035.48753L591.96,1034.76752
				L592.32,1034.16752L592.56,1033.32751L592.68,1032.72751L592.68,1032.1275L592.8,1031.5275L593.16,1030.9275L593.64,1030.08749
				L594.12,1029.12748L594.72,1027.68747L595.32,1026.36746L595.68,1025.64746L595.92,1025.16745L596.16,1024.68745L596.28,1024.32745
				L596.52,1023.24744L596.64,1022.52743L596.76,1021.80743L596.88,1020.96742L596.88,1020.00742L597,1019.88742L597.12,1018.92741
				L597.36,1018.2074L597.6,1017.7274L598.08,1016.88739L598.56,1016.28739L599.04,1015.68738L594.6,1011.36735L594.24,1011.24735
				L594.12,1011.12735L593.76,1010.88735L547.92,975.84709L536.64,948.7269L517.68,940.32684L513.96,949.6869L494.52,941.40684L
				506.28,894.96651L496.32,851.40619L501.36,832.08605L498.84,826.20601L494.52,822.36598L485.76,817.32594L473.16,812.0459L456.12,801.84583
				L447.96,799.92582L437.88,796.68579L434.16,789.96574L429.96,786.24572L424.2,779.52567L420.6,773.40562L415.68,766.08557L414.96,760.80553
				L416.52,755.16549L418.56,748.32544L419.52,741.96539L421.2,734.40534L427.44,725.04527L428.28,723.24526L429.24,720.60524L429.84,716.88521
				L423.6,710.16516L416.04,708.60515L408.96,708.48515L407.4,701.5251L402.48,694.32505L396.48,692.04503L383.76,692.04503L372.48,691.56503
				L363.84,689.16501L352.32,686.52499L342.12,683.76497L329.28,680.52495L327.72,680.04494L296.52,669.48487L259.44,657.12478L
				259.32,657.12478L249.96,654.00476L202.2,638.16464L207.96,610.20444L219.24,600.60437L211.2,575.40418L228,549.00399L224.76,534.48389
				L216.36,512.88373L202.32,492.84358L188.88,485.88353L168.36,475.20346L117.84,433.92316L120.24,417.12303L131.4,413.52301L143.52,416.28303
				L152.64,414.24301L156.72,403.44293L155.88,395.88288L159.12,388.68283L184.32,365.76266L210,349.32254L223.56,336.00244L359.52,245.52179
				L448.44,267.24194L507.72,288.8421L541.92,259.32189L541.92,259.20188L542.04,259.20188L542.88,258.48188L543.72,257.76187L570.96,247.3218
				L575.52,245.52179L583.32,242.52176L593.64,238.56173L602.04,235.32171L608.76,234.96171L612.6,234.84171L640.8,233.6417L649.56,233.2817
				L652.08,233.1617L654.84,232.68169L665.28,230.64168L669.36,229.92167L683.76,227.16165L684.6,226.92165L690.36,225.84164L699.72,224.04163
				L736.8,231.84169L763.68,247.4418L772.2,252.00183L772.68,252.36184L779.16,255.72186L788.04,260.6419L795.6,264.72193L803.52,267.72195
				L825,275.88201L836.28,257.76187L843.36,254.64185L843.96,254.28185L852.84,239.52174L879.6,254.64185L896.88,259.80189L977.88,313.56228
				L1007.88,277.80202L1016.64,277.08201L1092.48,303.84221L1132.56,284.64207L1149.6,286.20208L1148.88,292.68213L1151.76,301.08219
				L1159.56,314.16228L1167.96,322.92235L1180.2,330.3624L1189.44,337.56245L1203.72,344.1625L1218.24,342.96249L1245.96,345.72251
				L1265.64,341.76249L1279.32,336.00244L1302.72,335.40244L1319.04,338.40246L1330.92,338.16246L1351.56,343.3225L1376.76,353.04257
				L1399.32,362.16263L1424.76,365.16266L1457.64,373.68272L1461.6,370.56269L1473.36,361.56263L1501.32,322.68235L1532.88,281.40205
				L1546.32,254.64185L1569.36,240.00175L1578.48,224.88164L1609.44,204.84149L1623.72,217.92158L1645.56,221.52161L1665.6,236.04172
				L1682.64,240.96175L1725.72,269.52196L1753.08,298.68217L1771.32,320.52233L1786.56,322.92235L1808.4,344.88251L1821.48,354.96258
				z"/>
			<path clip-path="url(#SVG_CP_1)" fill="none" stroke="#000000" stroke-width="3.96" stroke-miterlimit="10" stroke-linecap="round" stroke-linejoin="round" d="
				M1821.48,354.96258L1848,363.12264L1879.44,351.96256L1911.84,358.0826L1945.44,359.40261L1957.8,386.76281L1992.72,412.923L
				2006.16,416.40303L2040.12,425.04309L2041.2,425.40309L2072.4,427.80311L2180.28,501.72365L2167.8,525.72382L2163.36,534.12388
				L2158.8,543.00395L2144.4,562.68409L2133.48,574.80418L2133,575.28418L2126.52,582.48424L2106.72,585.96426L2099.64,594.96433
				L2093.04,597.00434L2082.36,600.36437L2077.44,601.92438L2070.96,603.96439L2069.16,627.24456L2069.16,645.12469L2077.32,660.6048
				L2080.68,667.08485L2085.24,675.60491L2097.24,687.605L2098.56,688.92501L2099.64,690.00502L2101.56,692.16503L2105.4,696.24506
				L2119.32,711.48517L2122.92,747.36543L2122.68,748.92545L2122.56,749.28545L2121.12,756.9655L2121.24,757.32551L2121.6,759.84552
				L2121.6,759.96553L2121.36,761.16553L2121.36,761.28554L2120.16,763.56555L2120.04,763.56555L2119.92,763.68555L2119.44,763.92555
				L2119.2,764.40556L2119.2,765.00556L2119.32,765.48557L2119.56,765.84557L2119.44,766.20557L2119.44,766.32557L2118.72,770.2856
				L2116.2,783.6057L2116.08,784.68571L2116.44,784.80571L2119.56,810.00589L2133.6,847.32616L2140.08,864.12628L2142.48,870.48633
				L2147.16,883.08642L2147.64,884.04643L2149.56,889.44647L2149.68,889.80647L2152.8,897.96653L2153.52,899.64654L2160.24,917.52667
				L2158.56,965.04702L2157.96,979.68712L2157.72,987.12718L2157.36,996.24724L2157.24,996.24724L2154.72,998.28726L2152.44,999.72727
				L2148.48,1000.56727L2143.92,1002.00729L2139.48,1003.32729L2134.08,1004.6473L2129.4,1007.52733L2128.08,1008.96734L2126.88,1010.16734
				L2126.04,1013.88737L2126.76,1015.92739L2129.28,1016.52739L2133,1014.84738L2136.96,1012.92736L2139.96,1013.40737L2140.56,1014.60738
				L2141.4,1016.40739L2140.68,1018.92741L2139.12,1018.92741L2135.64,1024.92745L2135.88,1025.16745L2140.68,1026.12746L2134.68,1031.2875
				L2118.36,1032.48751L2110.68,1032.60751L2110.92,1033.08751L2111.52,1035.72753L2111.52,1036.56754L2111.28,1037.16754L2110.68,1037.52754
				L2109.36,1038.36755L2108.64,1039.08755L2108.04,1040.04756L2107.68,1040.64757L2107.44,1041.24757L2107.44,1041.84757L2107.44,1042.20758
				L2108.76,1045.9276L2108.88,1047.96762L2108.52,1048.44762L2107.92,1048.92763L2107.2,1049.64763L2106.12,1050.72764L2105.76,1051.44764
				L2105.04,1052.40765L2103.96,1053.36766L2102.76,1054.68767L2101.92,1055.52767L2100.96,1056.60768L2100.84,1057.20769L2100.72,1058.16769
				L2100.6,1058.7677L2100.24,1059.2477L2099.4,1059.84771L2098.44,1060.32771L2097.36,1060.80771L2096.4,1061.16772L2094.72,1061.88772
				L2094.24,1062.00772L2093.88,1062.36772L2093.52,1063.08773L2093.04,1063.44773L2092.32,1063.80773L2091.84,1064.52774L2091.6,1065.00774
				L2091.24,1065.00774L2089.56,1065.36775L2088.84,1065.96775L2088.48,1066.68776L2088.24,1067.52776L2087.52,1068.00776L2086.56,1068.48777
				L2086.08,1069.08777L2085.6,1069.80778L2085,1070.52778L2084.4,1070.88779L2084.16,1070.88779L2083.32,1071.00779L2082.6,1070.88779
				L2081.88,1070.52778L2081.04,1069.92778L2079.6,1069.44778L2077.68,1069.80778L2075.88,1070.28778L2075.64,1070.52778L2071.92,1074.60781
				L2071.56,1074.84781L2070.24,1076.64783L2069.88,1077.60783L2069.64,1078.56784L2069.16,1080.12785L2068.44,1081.56786L2067.96,1082.40787
				L2067.72,1082.76787L2066.76,1083.84788L2066.28,1084.56789L2066.04,1085.28789L2066.04,1086.3679L2066.28,1087.56791L2066.4,1088.16791
				L2066.4,1089.12792L2066.04,1090.56793L2065.2,1092.96795L2065.2,1094.52796L2065.08,1095.96797L2065.08,1096.68797L2064.6,1099.08799
				L2064.24,1099.808L2063.76,1100.168L2063.52,1100.168L2062.2,1100.888L2060.76,1102.08801L2060.88,1103.04802L2061.36,1104.12803
				L2062.68,1105.56804L2064.36,1106.64805L2066.04,1107.00805L2063.88,1109.28807L2063.04,1110.12807L2059.32,1113.8481L2056.8,1116.12811
				L2053.8,1118.64813L2051.16,1120.68815L2048.76,1122.60816L2045.4,1123.92817L2043.12,1125.24818L2041.92,1125.84819L2039.16,1128.0082
				L2039.16,1128.1282L2037.6,1129.92822L2037,1131.96823L2036.4,1134.36825L2036.04,1135.44826L2034.84,1138.68828L2033.52,1140.72829
				L2033.52,1140.84829L2032.2,1142.40831L2029.44,1144.44832L2026.08,1144.80832L2021.52,1144.68832L2020.2,1145.04832L2019.36,1145.28833
				L2018.76,1146.36833L2018.04,1147.32834L2016.36,1149.72836L2015.16,1152.24838L2014.68,1155.0084L2014.8,1158.36842L2013.36,1159.80843
				L2013.12,1159.92843L2011.44,1160.40844L2007.12,1161.60845L2005.44,1161.72845L2004.24,1161.84845L2002.92,1165.32847L2001.48,1168.8085
				L2003.4,1174.80854L2003.76,1174.92854L2004.12,1175.04854L2008.44,1177.32856L2012.4,1177.32856L2019.6,1178.76857L2024.64,1181.64859
				L2025,1181.52859L2025.24,1181.52859L2030.16,1184.76861L2031.12,1185.96862L2032.56,1187.64863L2034,1194.36868L2036.16,1200.72873
				L2040.48,1204.44876L2040.48,1205.64877L2048.16,1216.68885L2051.16,1262.40918L2102.28,1281.84932L2117.16,1295.52942L2133.24,1322.76962
				L2142.96,1361.2899L2152.68,1401.73019L2154.36,1443.6105L2224.44,1429.9304L2327.64,1442.41049L2419.32,1502.05092L2474.16,1556.17131
				L2452.68,1555.81131L2434.56,1571.77143L2422.8,1598.89162L2419.32,1616.29175L2341.56,1670.41214L2303.4,1671.85215L2286,1678.0922
				L2275.68,1707.01241L2274.84,1709.29243L2277,1723.93253L2269.32,1728.13256L2260.8,1720.09251L2259.6,1719.0125L2237.52,1719.7325
				L2217.24,1720.45251L2200.44,1749.37272L2194.32,1760.0528L2185.92,1767.61285L2149.92,1768.33286L2138.76,1776.73292L2143.56,1810.09316
				L2140.2,1837.09336L2123.52,1892.65376L2104.08,1892.65376L2107.8,1945.33414L2116.8,1949.77418L2123.16,1968.73431L2139.12,2015.89466
				L2129.16,2025.25472L2131.56,2042.77485L2135.4,2059.33497L2144.28,2067.85503L2144.64,2077.5751L2133,2092.69521L2117.16,2106.49531
				L2110.8,2119.57541L2109.48,2122.33543L2104.2,2145.2556L2094.96,2199.73599L2093.64,2234.89625L2087.88,2260.09643L2084.16,2270.29651
				L2081.64,2277.37656L2081.16,2278.45656L2081.4,2298.13671L2086.92,2295.73669L2095.44,2295.13669L2114.64,2294.65668L2139.6,2297.5367
				L2183.64,2322.25688L2208.84,2334.61697L2223.24,2341.69702L2226.6,2343.37704L2236.2,2348.05707L2238.24,2349.13708L2237.76,2354.05711
				L2234.64,2380.93731L2228.52,2429.89767L2178.12,2469.25795L2171.04,2474.77799L2151.24,2479.57803L2150.16,2479.93803L2149.2,2480.17803
				L2144.16,2481.37804L2130.36,2484.85807L2089.44,2494.93814L2098.44,2522.29834L2103.12,2536.69844L2104.44,2540.41847L2118.6,2579.05875
				L2128.56,2588.53882L2146.44,2605.57894L2149.32,2608.33896L2149.8,2608.81897L2157.96,2614.099L2181.36,2629.33912L2207.76,2646.49924
				L2205,2652.25928L2212.2,2657.41932L2210.4,2658.85933L2210.16,2658.97933L2210.04,2659.21933L2209.8,2659.33933L2200.08,2667.13939
				L2197.56,2667.9794L2194.32,2669.0594L2192.4,2669.65941L2192.28,2669.77941L2192.16,2669.77941L2191.8,2669.89941L2178.36,2674.33944
				L2177.4,2673.61944L2176.56,2672.89943L2160,2659.81934L2147.88,2651.77928L2138.28,2645.29923L2128.92,2641.2192L2119.56,2637.01917
				L2112.48,2633.89915L2107.8,2631.73913L2106.36,2631.37913L2097.84,2629.09911L2081.4,2638.33918L2058.48,2637.13917L2026.32,2627.2991
				L2023.2,2626.45909L2020.2,2625.49909L2000.52,2658.13933L2000.28,2658.49933L2000.16,2658.73933L2000.04,2658.85933L1999.56,2659.69934
				L1994.16,2668.5794L1992.24,2671.69942L1985.64,2682.6195L1980.6,2696.5396L1970.52,2703.37965L1967.28,2705.53967L1961.88,2720.65978
				L1947.72,2728.21983L1943.04,2728.33984L1930.44,2728.81984L1926.84,2730.61985L1916.76,2735.77989L1910.4,2748.37998L1905,2752.34001
				L1896.96,2758.10005L1880.52,2769.98014L1877.04,2775.14018L1876.56,2777.9002L1875.6,2783.54024L1872,2797.22034L1872,2797.34034
				L1875.24,2818.58049L1872.12,2825.66054L1865.76,2827.82056L1861.32,2832.9806L1857.24,2837.78063L1854.48,2849.54072L1853.4,2850.98073
				L1850.28,2855.30076L1846.32,2860.8208L1845.36,2863.22082L1847.4,2867.30085L1843.56,2885.06097L1840.56,2898.74107L1837.68,2899.94108
				L1835.88,2905.58112L1835.16,2912.06117L1834.68,2916.1412L1836.84,2920.70123L1837.44,2924.90126L1839.84,2934.02133L1842,2942.42139
				L1840.08,2948.66144L1835.64,2952.50147L1815.12,2970.5016L1805.16,2971.4616L1757.64,3020.18196L1754.4,3023.66198L1753.92,3027.98201
				L1762.2,3029.42202L1797.6,3035.54207L1800,3039.8621L1797.12,3044.54213L1782.12,3056.30222L1773.36,3063.14227L1773.36,3071.66233
				L1773.36,3091.10247L1769.04,3104.42257L1772.88,3113.42264L1773.12,3117.50266L1773.48,3121.7027L1773.96,3130.10276L1774.8,3141.50284
				L1757.88,3141.50284L1755.84,3141.50284L1755.48,3141.62284L1739.28,3147.86289L1738.32,3148.22289L1726.8,3152.66292L1726.32,3152.90292
				L1716.12,3154.82294L1716,3154.82294L1715.76,3154.82294L1672.68,3162.86299L1671.36,3163.583L1671.24,3163.583L1671,3163.703
				L1663.68,3167.66303L1631.76,3170.42305L1616.64,3212.30335L1610.4,3218.4234L1578.12,3228.38347L1575.72,3232.2235L1575.72,3249.74363
				L1533,3246.5036L1526.4,3251.18364L1496.88,3251.18364L1494.96,3248.30362L1492.56,3229.34348L1489.32,3224.66344L1460.28,3195.14323
				L1480.44,3172.82307L1482.6,3170.42305L1480.92,3159.50297L1471.2,3100.10254L1463.64,3092.54248L1455,3092.06248L1433.28,3090.62247
				L1425.36,3095.0625L1396.68,3111.02262L1386.96,3105.14257L1382.16,3102.14255L1359.6,3088.22245L1349.64,3108.1426L1349.16,3109.2226
				L1335.12,3114.26264L1333.56,3114.86265L1319.28,3119.90268L1314.96,3121.58269L1291.32,3123.98271L1274.52,3125.78272L1273.08,3120.38269
				L1268.76,3105.02257L1263.36,3085.70243L1261.56,3078.98238L1260.12,3073.82235L1257.48,3064.46228L1257,3062.66227L1230.36,3068.78231
				L1217.4,3056.06222L1213.44,3052.22219L1203.24,3042.26212L1191.12,3030.50203L1178.64,3018.26194L1170.6,3010.46189L1168.68,3008.54187
				L1156.92,2990.54174L1150.32,2980.82167L1150.32,2980.70167L1139.76,2965.10156L1132.44,2955.02148L1109.64,2919.50123L1109.04,2918.54122
				L1108.92,2918.54122L1104.48,2918.30122L1089.24,2919.62123L1085.28,2919.26122L1066.92,2913.38118L1066.92,2919.50123L1065.84,2921.78124
				L1064.16,2925.38127L1063.08,2926.58128L1061.16,2928.50129L1058.16,2930.90131L1052.88,2932.46132L1049.16,2930.90131L1045.56,2927.42128
				L1043.76,2924.06126L1044.72,2921.54124L1046.4,2919.14122L1048.32,2915.5412L1048.8,2912.90118L1049.28,2909.78115L1047.96,2906.66113
				L1043.88,2904.50112L1037.88,2903.66111L1033.56,2902.8211L1028.52,2904.50112L1027.92,2902.7011L1026.36,2899.46108L1026.12,2898.98108
				L1026,2898.86108L1025.88,2898.62107L1021.8,2893.46104L1019.52,2886.14098L1007.76,2858.90078L1009.32,2854.82076L1008.24,2847.98071
				L1007.16,2816.30047L996.96,2803.94039L995.76,2802.50037L991.2,2796.98033L990.96,2796.62033L990.36,2795.90033L989.76,2795.18032
				L981.84,2785.58025L981.12,2784.62024L972.84,2774.54017L971.16,2772.62016L969.84,2770.82014L969,2762.42008L965.16,2757.02004
				L957.24,2751.26L952.32,2747.65998L951.36,2745.85996L950.76,2744.77996L950.4,2744.17995L950.04,2743.57995L948.72,2741.05993
				L962.16,2741.77993L962.88,2741.89993L963.84,2741.89993L979.8,2742.85994L986.76,2745.01996L1000.56,2745.61996L1001.52,2745.61996
				L1002.84,2745.73996L1008.48,2740.57992L1011.12,2738.89991L1012.44,2737.2199L1012.68,2733.01987L1016.16,2727.01983L1020.12,2723.7798
				L1024.56,2724.0198L1026.72,2721.13978L1029.12,2718.97977L1034.4,2717.53976L1037.28,2709.4997L1037.04,2703.73966L1039.08,2701.93964
				L1044,2700.61963L1050.24,2700.97964L1063.2,2699.65963L1069.32,2689.21955L1074,2679.61948L1077.84,2673.13943L1082.76,2670.37941
				L1085.76,2667.9794L1087.56,2664.73937L1092.96,2659.45933L1094.04,2656.33931L1095.48,2652.25928L1095.84,2649.01926L1095,2646.25924
				L1094.04,2644.09922L1094.04,2642.53921L1096.92,2640.6192L1099.08,2640.7392L1101.96,2639.41919L1104.12,2637.25917L1107.6,2636.29917
				L1113.12,2637.37917L1117.08,2634.97916L1118.52,2633.29914L1117.8,2629.09911L1118.28,2626.21909L1120.2,2600.2989L1121.28,2586.4988
				L1140.84,2552.65856L1142.04,2550.37854L1144.8,2545.45851L1144.92,2545.33851L1146.6,2543.05849L1146.72,2542.69849L1146.96,2542.21848
				L1146.96,2542.09848L1147.92,2541.13847L1156.08,2532.01841L1157.88,2530.09839L1158.48,2514.85828L1158.36,2514.37828L1158.24,2514.01828
				L1158.24,2513.89828L1158.24,2513.53827L1158.12,2513.29827L1158.12,2513.05827L1158,2512.69827L1158.24,2511.61826L1159.68,2502.37819
				L1158.24,2498.05816L1149.72,2486.53808L1146.36,2481.85804L1142.16,2475.498L1139.88,2472.25797L1135.44,2469.13795L1127.64,2460.49789
				L1123.32,2463.37791L1120.8,2463.25791L1117.92,2460.85789L1114.68,2460.49789L1109.64,2459.89788L1101.24,2458.93788L1099.32,2458.57787
				L1094.88,2458.21787L1091.52,2457.97787L1090.08,2457.73787L1080.6,2456.17786L1072.92,2457.37787L1070.52,2457.73787L1068.72,2457.85787
				L1068.48,2457.97787L1068.12,2457.85787L1067.76,2457.73787L1067.16,2457.49787L1066.32,2457.25786L1066.2,2457.13786L1066.08,2457.13786
				L1063.56,2456.29786L1063.32,2456.17786L1062.96,2456.05786L1059.24,2453.29784L1058.52,2451.73782L1055.28,2448.8578L1053.48,2447.29779
				L1053.84,2446.93779L1054.32,2446.57779L1055.64,2445.61778L1057.56,2444.17777L1056.72,2443.57777L1055.88,2442.85776L1045.56,2434.4577
				L1042.2,2435.1777L1036.56,2428.21765L1033.92,2425.09763L1032.72,2424.61763L1029.6,2423.29762L1028.52,2422.93762L1028.04,2422.69761
				L1024.68,2421.0176L1018.92,2418.13758L1013.76,2415.97756L1009.08,2418.01758L1009.08,2418.61758L1008.72,2422.81761L1012.2,2429.89767
				L1013.76,2433.01769L1015.92,2436.37771L1022.04,2441.65775L1027.32,2443.81777L1025.88,2452.33783L1023.48,2455.45785L1017.36,2454.61785
				L1011.24,2455.21785L1010.88,2455.33785L1008.84,2455.45785L1008.72,2455.45785L1008.12,2455.45785L1007.28,2455.21785L1004.4,2454.73785
				L1003.56,2454.73785L1002.84,2454.97785L1002.72,2455.21785L1000.2,2455.09785L999.12,2455.09785L993,2454.73785L987,2442.61776
				L989.76,2442.37776L989.76,2440.93775L989.64,2436.97772L989.64,2434.8177L989.64,2433.9777L989.4,2432.41768L987.72,2429.53766
				L985.44,2426.53764L985.2,2426.29764L983.52,2424.85763L983.04,2424.61763L981.6,2423.41762L981.6,2422.45761L981.48,2422.45761
				L981.12,2421.3776L979.8,2419.45759L978,2417.89758L976.68,2417.53758L975.48,2416.69757L974.4,2415.85756L973.92,2415.97756
				L972.96,2414.77756L971.4,2412.37754L969,2408.89751L968.4,2407.6975L966.12,2404.09748L965.64,2402.65747L965.04,2397.97743
				L964.92,2397.49743L964.8,2396.77743L964.56,2394.49741L964.08,2388.85737L964.08,2383.57733L963.84,2383.57733L955.44,2366.4172
				L943.08,2359.93716L942.84,2359.69716L942.48,2359.57715L939.36,2356.69713L936.84,2353.09711L936.84,2352.97711L936.72,2352.85711
				L931.2,2344.57705L923.64,2330.77695L923.4,2330.17694L922.56,2328.73693L919.44,2323.09689L917.28,2319.01686L914.4,2314.09682
				L913.56,2312.77681L913.8,2312.29681L913.92,2312.17681L914.16,2311.69681L914.52,2310.8568L914.04,2309.65679L912.96,2307.01677
				L912.84,2306.53677L911.4,2303.41675L911.16,2302.81674L909.72,2299.21672L908.16,2295.13669L907.44,2293.57667L906.48,2291.41666
				L905.28,2290.09665L905.16,2289.97665L905.04,2289.73665L904.8,2289.49665L903.24,2286.13662L901.32,2284.45661L901.08,2284.09661
				L898.2,2281.93659L896.52,2279.05657L895.8,2278.45656L890.4,2274.49654L890.16,2274.25653L888.24,2272.93652L887.88,2272.57652
				L884.04,2269.3365L882.6,2268.25649L881.88,2267.65649L881.76,2267.53649L880.92,2267.05648L879.96,2266.57648L879.84,2266.45648
				L878.64,2265.85647L877.8,2265.37647L876.72,2264.89647L875.88,2264.41646L871.92,2263.45646L870.48,2263.09645L869.28,2260.81644
				L868.8,2259.73643L867.24,2256.73641L866.52,2255.1764L866.04,2253.85639L864.96,2250.49636L864.84,2249.77636L864.84,2249.65636
				L864.36,2247.25634L863.16,2244.73632L861.12,2240.29629L860.52,2238.97628L859.56,2236.81626L859.44,2236.57626L859.32,2236.33626
				L858.96,2235.37625L859.44,2235.01625L863.04,2231.65622L867.6,2226.61619L873.48,2219.41614L873.6,2219.17613L875.28,2216.65612
				L876.84,2214.3761L878.76,2211.37608L878.88,2211.13608L881.28,2206.81604L884.28,2202.01601L884.4,2201.89601L884.52,2201.65601
				L885.24,2200.456L887.76,2196.13597L888.24,2195.41596L890.28,2192.05594L892.32,2188.45591L892.44,2188.33591L892.8,2187.97591
				L894.72,2185.21589L894.96,2184.73588L894.96,2184.37588L895.44,2182.81587L896.16,2180.17585L896.52,2178.85584L897.12,2176.69583
				L895.56,2176.21582L895.44,2176.21582L893.52,2175.61582L893.52,2175.49582L891.84,2174.53581L886.32,2171.17578L885.96,2170.93578
				L881.88,2168.53577L878.88,2166.49575L878.76,2166.49575L877.56,2164.81574L876.48,2163.49573L868.92,2158.57569L862.68,2154.49566
				L860.04,2152.93565L858.36,2151.25564L858.84,2150.29563L859.44,2149.21563L859.92,2147.77561L860.52,2146.3356L860.76,2145.7356
				L861,2145.01559L862.08,2144.29559L862.2,2144.17559L862.08,2142.73558L861.24,2141.77557L860.64,2141.53557L859.92,2141.17557
				L858,2140.09556L854.76,2138.05554L853.44,2136.01553L853.8,2133.49551L854.88,2131.21549L854.76,2128.81548L847.8,2123.89544
				L843.96,2120.89542L838.32,2118.6154L835.68,2114.89538L834.36,2114.65537L833.88,2114.53537L832.08,2114.41537L830.52,2114.29537
				L829.44,2114.17537L828.48,2114.17537L823.92,2112.61536L820.44,2112.61536L819.24,2112.13536L815.76,2110.81535L812.52,2110.81535
				L809.88,2110.09534L806.88,2107.69532L804,2105.89531L798.96,2103.13529L797.88,2102.77529L793.32,2100.73527L792.72,2100.13527
				L792.6,2099.89527L792.6,2099.77527L792.6,2099.53526L790.8,2098.45526L789,2097.37525L788.4,2097.01525L787.56,2095.93524L786.72,2094.97523
				L786.24,2094.49523L785.28,2093.05522L784.92,2092.57521L784.68,2092.33521L783.84,2091.1352L782.88,2089.81519L782.4,2089.21519
				L780.96,2087.29518L778.68,2083.93515L777.96,2082.97514L777.24,2082.01514L776.88,2081.65513L776.04,2080.81513L774.6,2079.49512
				L774.48,2079.37512L773.16,2078.05511L772.56,2077.4551L771.96,2076.4951L771.84,2076.4951L771.84,2076.3751L771.48,2075.77509
				L769.92,2074.81508L769.92,2074.69508L769.92,2074.57508L769.44,2073.85508L769.2,2073.37507L768.6,2072.29507L768.48,2072.29507
				L768.36,2071.81506L767.52,2070.61505L764.28,2064.73501L764.16,2064.73501L764.76,2061.01498L763.68,2060.53498L762.72,2060.17498
				L761.76,2059.57497L761.28,2059.33497L758.88,2057.89496L758.28,2057.53496L756.6,2056.57495L756.12,2056.33495L756,2056.21495
				L755.16,2055.37494L750.12,2052.01492L747,2048.65489L744.84,2045.65487L743.4,2044.33486L743.04,2043.97486L742.92,2043.97486
				L742.08,2043.37486L741.48,2042.89485L741,2042.65485L740.76,2042.53485L740.52,2042.41485L739.44,2041.45484L738.84,2039.17483
				L738.48,2037.97482L738.24,2037.13481L736.56,2033.77479L735.84,2033.41478L735.12,2033.05478L733.68,2030.65476L732.12,2026.93474
				L732.12,2026.81474L730.92,2024.41472L730.8,2024.29472L730.44,2024.05472L729.48,2022.97471L728.88,2022.4947L728.16,2021.17469
				L727.56,2019.73468L725.4,2018.41467L725.16,2018.29467L724.8,2017.81467L723.96,2016.01466L723.36,2014.81465L718.68,2012.89463
				L711.48,2007.37459L710.52,2004.85458L710.04,2003.53457L709.68,2002.93456L707.64,1999.57454L707.28,1998.97453L706.2,1997.05452
				L706.08,1996.93452L704.76,1994.6545L704.04,1993.33449L702.72,1991.17448L702.36,1990.45447L700.8,1987.93445L700.32,1985.89444
				L700.32,1985.77444L699.6,1983.01442L697.92,1981.0944L696.96,1974.13435L696.6,1971.97434L696,1970.53433L694.56,1968.25431
				L693.84,1967.0543L693.48,1966.4543L690.96,1962.37427L687.12,1961.77426L685.32,1959.85425L684.96,1959.61425L683.88,1958.41424
				L683.4,1958.41424L683.04,1958.41424L682.2,1958.41424L681.84,1958.41424L680.64,1958.17424L680.16,1958.17424L679.8,1957.57423
				L679.68,1957.21423L678.24,1956.85423L677.52,1956.73423L676.08,1956.37422L674.52,1956.01422L672.36,1955.29422L671.76,1955.05421
				L670.68,1955.53422"/>
			<path clip-path="url(#SVG_CP_1)" fill="none" stroke="#000000" stroke-width="3.96" stroke-miterlimit="10" stroke-linecap="round" stroke-linejoin="round" d="
				M670.68,1955.53422L668.76,1956.61423L666.6,1958.65424L666.12,1959.13424L665.4,1959.61425L665.28,1961.05426L665.04,1962.73427
				L663.96,1963.45427L663.24,1963.33427L662.4,1963.33427L657.12,1966.9343L654.84,1968.49431L653.16,1968.49431L653.04,1968.61431
				L649.56,1970.53433L646.92,1972.45434L645,1967.4143L644.52,1966.4543L643.8,1964.65428L642.24,1960.45425L641.76,1959.37425
				L640.8,1956.73423L639.96,1954.81421L639.96,1954.57421L639,1952.05419L638.76,1951.45419L639.24,1948.21416L639.36,1947.85416
				L639.48,1947.49416L639.48,1947.25416L639.48,1947.13416L639.6,1946.41415L642.96,1925.894L646.8,1922.05397L648.24,1920.61396
				L660.36,1900.57382L660.48,1900.33382L660.72,1900.09381L660.84,1899.85381L661.44,1898.89381L662.64,1897.09379L663.24,1896.25379
				L663.24,1896.13379L663.36,1896.01378L664.44,1893.49377L666.72,1876.09364L666.72,1875.97364L667.44,1874.41363L667.56,1874.05362
				L668.4,1865.89357L678.72,1844.89341L683.88,1851.13346L685.08,1851.01346L686.76,1850.77346L694.32,1850.65345L695.4,1850.05345
				L697.44,1848.97344L697.68,1848.85344L701.76,1845.97342L702,1845.73342L702.72,1845.25342L702.96,1845.01341L707.04,1841.53339
				L707.28,1841.41339L707.4,1841.17339L707.76,1840.93338L707.76,1840.81338L710.64,1838.05336L725.28,1836.73335L733.68,1830.49331
				L755.64,1841.41339L757.32,1840.57338L758.76,1839.97338L760.56,1839.01337L757.68,1833.01333L757.44,1832.41332L754.68,1824.37326
				L756,1823.53326L758.76,1821.61324L759.48,1821.13324L759.84,1820.89324L761.04,1820.41323L760.56,1815.6132L760.2,1811.41317
				L759.24,1803.49311L779.28,1805.29312L780.84,1804.57312L788.04,1801.6931L788.04,1804.33312L791.88,1803.97312L794.04,1802.77311
				L794.52,1801.8131L791.52,1800.25309L792,1798.69308L792.84,1797.13307L790.8,1794.13304L789.48,1792.33303L789.72,1790.29302
				L786.6,1790.53302L785.4,1788.373L785.28,1787.653L784.56,1785.01298L784.56,1781.89295L784.56,1781.41295L785.4,1779.49294L
				787.56,1778.17293L787.8,1776.97292L788.4,1776.49292L788.52,1776.37291L788.76,1775.89291L789.12,1775.41291L789.72,1774.4529
				L790.8,1774.2129L791.4,1774.4529L791.4,1773.7329L791.16,1773.13289L791.04,1772.77289L792.12,1772.53289L793.56,1772.53289
				L795.6,1771.33288L795.72,1770.25287L794.64,1769.29286L795.36,1768.09285L796.32,1767.61285L796.92,1767.73285L797.64,1767.85285
				L799.68,1767.25285L799.2,1765.81284L799.92,1764.49283L801.24,1763.77282L802.68,1763.41282L803.64,1764.61283L804.6,1765.33283
				L806.4,1765.57284L807,1764.61283L807.36,1763.65282L808.08,1763.77282L808.68,1763.05282L809.28,1762.57281L809.28,1761.61281
				L810,1761.2528L810.96,1761.49281L811.92,1761.97281L812.16,1761.73281L812.4,1761.61281L812.52,1761.37281L813.72,1760.7728
				L814.2,1760.6528L814.44,1760.5328L815.28,1761.37281L815.88,1761.37281L817.32,1760.7728L818.16,1760.7728L818.4,1760.6528L
				819.12,1760.8928L819.12,1761.1328L819.12,1761.49281L820.2,1761.37281L821.16,1761.49281L821.88,1761.85281L826.56,1755.49276
				L826.8,1755.25276L827.04,1754.89276L827.04,1754.77276L824.4,1752.13274L824.88,1750.57273L824.76,1748.29271L824.4,1745.65269
				L823.32,1742.41267L821.76,1740.01265L820.2,1737.73263L819.84,1737.25263L818.76,1736.17262L817.68,1734.37261L816.6,1731.97259
				L816.24,1730.05258L814.92,1727.41256L813,1724.53254L809.64,1722.25252L804.36,1717.21248L796.2,1711.69244L785.28,1704.25239
				L779.64,1700.05236L773.64,1695.73233L764.16,1674.37217L762.36,1671.01215L754.8,1665.73211L754.08,1659.37206L752.88,1649.53199
				L752.52,1646.17197L750.6,1633.09187L750.48,1632.97187L750,1629.37185L751.08,1628.77184L754.08,1627.21183L751.2,1622.7718
				L751.8,1622.17179L752.28,1621.57179L752.16,1621.33179L749.76,1615.93175L749.64,1615.81175L750,1615.69175L751.32,1615.21174
				L751.8,1614.97174L751.32,1613.77173L750.72,1612.93173L749.76,1611.73172L748.8,1610.17171L748.56,1609.2117L748.44,1608.6117
				L747.36,1606.09168L746.04,1604.29166L743.76,1596.97161L743.04,1594.45159L742.08,1591.09157L738.84,1590.85157L737.16,1590.61156
				L735,1590.73157L732.84,1590.73157L732.6,1590.73157L732.48,1590.73157L732.36,1590.73157L729.12,1590.13156L727.92,1589.89156
				L726.36,1587.97155L723.84,1586.89154L721.08,1586.89154L719.28,1587.25154L719.16,1587.25154L719.04,1587.25154L718.92,1586.53153
				L718.44,1585.21152L717.84,1584.25152L717,1583.17151L716.76,1582.81151L715.44,1581.4915L714,1579.93149L712.2,1577.53147L711.48,1576.81146
				L710.52,1576.09146L710.16,1575.73146L709.68,1575.73146L709.08,1575.13145L708.48,1574.17144L707.88,1572.97144L707.64,1572.25143
				L706.92,1570.57142L705.72,1569.01141L704.76,1567.4514L703.8,1566.01139L703.68,1565.65138L703.08,1564.81138L702,1563.25137
				L701.76,1562.89136L701.04,1561.69135L700.2,1560.49135L700.2,1560.37134L699.84,1559.53134L699.84,1559.29134L699.6,1558.45133
				L699.48,1558.21133L699.24,1557.61132L699,1557.13132L698.88,1557.01132L698.64,1556.77132L698.4,1556.53132L697.68,1556.05131
				L696.96,1555.45131L696.72,1555.09131L696.24,1554.2513L695.76,1553.41129L695.4,1552.93129L694.92,1552.69129L694.2,1552.57129
				L693.84,1552.45129L693.6,1552.45129L693.24,1559.29134L690.96,1560.49135L690.84,1560.61135L690.72,1560.61135L690.48,1560.73135
				L690.12,1560.97135L688.68,1561.69135L687.24,1562.53136L687.12,1562.53136L687,1562.65136L686.88,1562.65136L686.76,1562.77136
				L685.32,1563.61137L685.2,1563.61137L684.6,1563.85137L684.48,1563.85137L683.76,1564.09137L682.56,1564.69138L682.2,1564.81138
				L680.28,1565.65138L680.04,1565.41138L680.04,1565.29138L679.56,1564.69138L679.08,1564.57137L677.76,1563.13136L676.68,1561.69135
				L676.44,1560.97135L676.32,1560.85135L676.32,1560.61135L676.08,1560.49135L675.84,1560.25134L674.52,1559.17134L672.72,1557.61132
				L670.68,1555.93131L669.84,1555.21131L670.2,1554.97131L673.8,1552.09128L673.92,1551.97128L674.16,1551.73128L674.52,1551.49128
				L676.8,1549.69127L678.6,1550.17127L678.72,1550.17127L678.84,1550.17127L679.08,1550.65127L679.2,1550.89128L679.92,1551.01128
				L680.52,1550.77127L680.88,1550.53127L682.44,1548.85126L684.96,1544.77123L685.44,1544.29123L685.32,1544.17123L685.68,1543.69122
				L686.4,1542.25121L686.52,1540.9312L683.76,1537.93118L679.8,1533.37115L679.2,1532.65114L678.96,1532.41114L675.24,1531.69114
				L675.12,1531.69114L674.64,1531.57114L672.24,1531.09113L671.04,1530.97113L667.56,1530.25113L664.92,1529.41112L664.2,1529.17112
				L664.08,1529.05112L663.96,1529.05112L663.72,1528.93112L663.6,1528.93112L662.88,1528.69111L657,1526.6511L653.88,1525.57109
				L641.04,1522.45107L638.76,1521.97107L637.32,1519.93105L639.72,1519.81105L640.92,1520.05105L641.16,1519.21105L640.44,1513.93101
				L640.08,1512.851L638.76,1512.731L638.16,1511.53099L637.08,1509.49097L636.12,1508.17096L633.12,1506.25095L629.76,1504.33094
				L627,1502.89093L624.6,1501.69092L623.76,1501.45092L620.04,1497.73089L615.84,1493.29086L612.6,1488.97083L610.56,1485.3708
				L612.96,1485.4908L613.92,1484.53079L613.8,1482.85078L595.92,1470.37069L585.96,1465.69066L584.4,1455.73058L569.28,1447.93053
				L567.84,1443.25049L567.84,1440.73047L568.92,1439.89047L575.04,1432.93042L580.8,1428.85039L583.08,1428.01038L572.76,1412.53027
				L569.64,1395.49015L559.68,1376.53001L554.88,1375.93L554.4,1373.76999L555.6,1369.80996L557.52,1365.36993L557.28,1364.88992
				L556.08,1362.96991L556.08,1362.84991L556.44,1360.44989L555.96,1359.00988L555.84,1358.88988L555.6,1358.76988L555.36,1358.52988
				L553.92,1356.72986L553.8,1356.48986L553.68,1356.24986L552.12,1354.08984L551.76,1354.08984L551.28,1353.96984L550.8,1353.60984
				L550.56,1353.00984L550.44,1352.52983L550.92,1351.68983L552.24,1352.16983L552.36,1351.68983L552.48,1351.68983L552.6,1351.20982
				L552.12,1351.08982L552.24,1350.84982L551.64,1350.48982L552,1350.00982L552.48,1348.92981L553.08,1349.16981L553.8,1347.8498
				L554.04,1347.4898L554.4,1347.12979L555,1346.28979L555.6,1345.68978L556.56,1344.72978L556.92,1344.48977L557.52,1343.88977
				L557.88,1343.52977L557.88,1343.16977L558.36,1342.68976L558.6,1342.08976L558.96,1341.96976L558.96,1341.60975L559.44,1341.24975
				L559.68,1340.40975L559.92,1340.04974L560.4,1339.44974L560.52,1338.84973L560.52,1338.36973L560.76,1337.76973L560.88,1337.76973
				L560.88,1337.04972L561.24,1336.68972L561.12,1336.32972L561.12,1335.84971L561.36,1335.12971L561.72,1334.7697L561.84,1334.2897
				L561.96,1334.0497L562.08,1333.8097L562.2,1332.48969L562.56,1331.28968L562.68,1330.44967L562.92,1329.48967L562.92,1329.00966
				L563.16,1327.80965L563.52,1327.08965L563.64,1326.60964L563.76,1325.88964L564,1325.16963L564.12,1324.56963L564.24,1324.20963
				L564.48,1323.60962L564.6,1322.76962L564.72,1321.92961L564.84,1321.20961L564.96,1320.6096L565.08,1320.2496L565.2,1319.8896
				L565.44,1319.40959L565.56,1318.92959L565.68,1318.44959L565.92,1317.96958L566.04,1317.48958L566.28,1317.00958L566.4,1316.64957
				L566.4,1316.16957L566.52,1315.68957L566.64,1314.72956L566.64,1313.88955L566.76,1313.04955L566.88,1312.56954L566.88,1312.20954
				L566.88,1311.72954L566.76,1311.36953L566.64,1310.76953L566.64,1310.04952L566.64,1309.44952L566.64,1308.72951L566.52,1307.76951
				L566.4,1307.0495L566.28,1306.5695L566.28,1305.72949L566.16,1305.36949L566.04,1304.52948L566.04,1304.40948L565.68,1303.44948
				L565.8,1302.60947L565.68,1301.64946L565.32,1300.44945L565.08,1299.72945L565.08,1299.48945L565.32,1299.12945L565.56,1298.64944
				L566.04,1298.04944L566.4,1297.44943L566.88,1296.84943L567.24,1296.36943L567.6,1295.64942L567.96,1295.40942L568.32,1294.68941
				L568.44,1293.72941L568.68,1293.1294L569.16,1291.92939L569.28,1291.20939L569.64,1290.84938L569.76,1290.00938L569.76,1289.04937
				L569.64,1287.48936L569.16,1285.92935L568.68,1284.84934L568.2,1283.76933L567.36,1282.92933L566.28,1282.20932L565.8,1281.72932
				L565.32,1280.88931L564.84,1280.16931L564.48,1279.4493L564.12,1278.8493L564.12,1278.36929L564.36,1278.00929L564.96,1277.52929
				L565.56,1276.56928L566.4,1275.60927L566.88,1274.88927L567.36,1274.28926L567.6,1273.44926L567.84,1272.48925L567.72,1271.16924
				L567.72,1270.08923L567.72,1269.24923L567.24,1268.40922L566.88,1267.56922L566.52,1266.96921L565.92,1266.12921L565.56,1265.6492
				L565.44,1265.5292L565.32,1265.2892L565.08,1264.9292L564.48,1264.56919L563.52,1264.08919L562.44,1263.72919L561.24,1263.24918
				L560.28,1262.64918L559.56,1261.92917L558.6,1261.20917L558.24,1260.96917L558,1260.60917L557.64,1259.76916L557.28,1258.92915
				L557.28,1258.20915L557.64,1257.12914L558,1256.16913L558.24,1255.56913L558.36,1254.84912L558.48,1254.36912L558.6,1253.64911
				L558.48,1252.80911L558.36,1252.0891L558.24,1251.6091L557.88,1251.2491L557.4,1250.88909L555.6,1249.44908L555.6,1248.72908
				L555.36,1247.88907L555.12,1247.16907L554.64,1246.44906L554.16,1245.60906L553.92,1244.88905L553.8,1244.28905L553.44,1243.80904
				L552.96,1242.96904L552.84,1242.72904L552.36,1241.88903L552,1241.40903L552,1240.68902L552,1239.96902L552.12,1239.72901L552.36,1239.36901
				L552.84,1239.36901L553.32,1239.12901L553.8,1238.88901L554.28,1238.289L554.76,1237.809L555.48,1237.329L556.32,1236.96899L
				557.28,1236.00899L558,1235.40898L558.84,1234.44897L559.56,1233.72897L560.16,1232.52896L560.64,1231.68895L561.12,1231.20895
				L561.84,1230.60895L562.32,1230.24894L562.68,1229.52894L562.92,1228.56893L563.04,1227.84893L563.04,1227.00892L562.92,1226.40892
				L562.68,1225.92891L562.68,1225.20891L562.56,1224.6089L561.96,1223.8889L561.6,1223.28889L561.12,1223.04889L559.92,1223.04889
				L557.88,1223.40889L557.04,1223.5289L556.56,1223.5289L555.72,1223.04889L554.88,1222.56889L553.92,1221.72888L552.12,1219.56887
				L550.8,1217.76885L550.92,1217.28885L551.28,1216.80885L551.88,1215.48884L552.72,1214.40883L553.44,1213.32882L554.52,1212.84882
				L555.72,1212.12881L556.8,1211.64881L557.4,1211.16881L558.36,1209.60879L559.44,1208.04878L560.16,1206.48877L560.88,1204.44876
				L561.12,1203.24875L561.48,1202.28874L562.08,1201.32873L563.28,1200.24873L563.64,1199.16872L563.64,1197.84871L563.52,1196.8887
				L563.52,1195.92869L563.52,1195.44869L563.64,1194.84869L563.28,1194.00868L562.44,1192.92867L561.12,1191.84867L560.16,1191.12866
				L558.84,1190.52866L557.28,1189.92865L555.12,1189.20865L553.68,1188.60864L552.6,1187.88864L551.64,1186.92863L550.8,1185.60862
				L550.2,1184.52861L549.48,1183.2086L549.12,1181.88859L549,1181.40859L549.48,1179.72858L549.6,1178.88857L549.6,1177.92856L
				549.48,1177.08856L549.36,1175.88855L549.24,1175.40855L549,1174.80854L549.48,1173.60853L549.72,1171.92852L550.44,1170.24851
				L551.04,1168.6885L551.4,1167.60849L551.76,1166.88848L552.36,1166.40848L552.96,1165.44847L553.56,1164.12846L554.64,1162.92845
				L555.84,1161.48844L556.92,1159.80843L558,1158.12842L558.6,1156.92841L559.2,1156.32841L559.92,1155.8484L560.4,1155.4884L560.52,1155.0084
				L560.64,1154.64839L560.88,1154.40839L561.48,1153.92839L562.2,1153.56839L563.16,1153.32839L563.88,1152.72838L564.48,1152.12838
				L565.08,1151.64837L565.44,1151.28837L565.92,1151.28837L566.52,1151.04837L567,1150.92837L567.12,1150.56837L567.48,1149.72836
				L567.84,1147.56834L567.84,1145.88833L567.72,1144.92832L567.48,1143.72832L566.64,1141.9283L566.16,1140.48829L565.2,1138.80828
				L564.36,1137.72827L563.88,1137.12827L563.76,1136.52826L563.76,1135.56826L563.76,1134.96825L563.76,1134.60825L563.88,1134.12825
				L564.48,1133.16824L564.72,1132.80824L564.84,1131.72823L564.96,1130.88822L564.96,1130.28822L565.32,1129.56821L565.44,1128.96821
				L565.56,1128.1282L565.68,1125.84819L565.68,1124.76818L565.44,1123.68817L565.44,1122.24816L565.32,1121.04815L565.2,1120.08814
				L565.32,1119.36814L565.68,1118.52813L566.04,1117.92813L566.28,1116.24812L566.4,1111.32808L566.28,1110.60807L566.04,1109.28807
				L565.92,1108.44806L565.68,1107.24805L565.44,1106.52804L565.08,1105.44804L564.96,1104.84803L564.96,1103.28802L564.96,1102.20801
				L564.84,1101.48801L564.48,1100.768L563.76,1099.44799L563.16,1098.12798L562.92,1097.28798L562.92,1096.80797L562.92,1096.20797
				L562.92,1095.36796L563.04,1094.52796L563.16,1093.68795L563.28,1092.84795L563.76,1092.24794L564.96,1091.28793L566.28,1090.08793
				L566.76,1089.60792L566.88,1089.48792L567.6,1088.88792L568.2,1088.40791L568.44,1088.16791L569.04,1087.68791L569.76,1087.32791
				L570.36,1086.8479L570.84,1086.4879L571.32,1086.0079L571.68,1085.52789L571.92,1084.68789L572.4,1083.96788L572.88,1083.12787
				L573.36,1082.40787L572.88,1079.04785L572.76,1070.28778L573.72,1068.60777L573.96,1068.36777L574.32,1067.40776L574.32,1066.32775
				L573.48,1064.64774L573,1063.44773L572.28,1062.24772L572.04,1061.76772L571.8,1060.80771L571.8,1060.20771L571.68,1059.4877
				L571.8,1059.1277L571.92,1059.0077L572.16,1058.16769L572.28,1057.80769L572.4,1056.96768L572.52,1055.76768L572.88,1054.92767
				L573.48,1053.60766L573.72,1052.28765L573.96,1050.48764L574.2,1049.52763L574.92,1048.44762L575.52,1047.60762L576.24,1046.64761
				L577.44,1046.04761L577.8,1045.6876L579,1045.4476L579.96,1044.9676L583.08,1043.64759L583.68,1043.16758L584.52,1042.56758L
				585.36,1041.84757L585.96,1040.88757L586.44,1040.28756L587.16,1039.56756L588,1038.72755L588.72,1038.24755L588.96,1037.88755
				L589.2,1037.88755L590.16,1037.64754L591.12,1037.52754L591,1037.40754L591,1037.28754L590.88,1036.92754L590.88,1036.56754L
				591,1036.08753L591.48,1035.48753L591.96,1034.76752L592.32,1034.16752L592.56,1033.32751L592.68,1032.72751L592.68,1032.1275
				L592.8,1031.5275L593.16,1030.9275L593.64,1030.08749L594.12,1029.12748L594.72,1027.68747L595.32,1026.36746L595.68,1025.64746
				L595.92,1025.16745L596.16,1024.68745L596.28,1024.32745L596.52,1023.24744L596.64,1022.52743L596.76,1021.80743L596.88,1020.96742
				L596.88,1020.00742L597,1019.88742L597.12,1018.92741L597.36,1018.2074L597.6,1017.7274L598.08,1016.88739L598.56,1016.28739
				L599.04,1015.68738L594.6,1011.36735L594.24,1011.24735L594.12,1011.12735L593.76,1010.88735L547.92,975.84709L536.64,948.7269
				L517.68,940.32684L513.96,949.6869L494.52,941.40684L506.28,894.96651L496.32,851.40619L501.36,832.08605L498.84,826.20601L494.52,822.36598
				L485.76,817.32594L473.16,812.0459L456.12,801.84583L447.96,799.92582L437.88,796.68579L434.16,789.96574L429.96,786.24572L424.2,779.52567
				L420.6,773.40562L415.68,766.08557L414.96,760.80553L416.52,755.16549L418.56,748.32544L419.52,741.96539L421.2,734.40534L427.44,725.04527
				L428.28,723.24526L429.24,720.60524L429.84,716.88521L423.6,710.16516L416.04,708.60515L408.96,708.48515L407.4,701.5251L402.48,694.32505
				L396.48,692.04503L383.76,692.04503L372.48,691.56503L363.84,689.16501L352.32,686.52499L342.12,683.76497L329.28,680.52495L
				327.72,680.04494L296.52,669.48487L259.44,657.12478L259.32,657.12478L249.96,654.00476L202.2,638.16464L207.96,610.20444L219.24,600.60437
				L211.2,575.40418L228,549.00399L224.76,534.48389L216.36,512.88373L202.32,492.84358L188.88,485.88353L168.36,475.20346L117.84,433.92316
				L120.24,417.12303L131.4,413.52301L143.52,416.28303L152.64,414.24301L156.72,403.44293L155.88,395.88288L159.12,388.68283L184.32,365.76266
				L210,349.32254L223.56,336.00244L359.52,245.52179L448.44,267.24194L507.72,288.8421L541.92,259.32189L541.92,259.20188L542.04,259.20188
				L542.88,258.48188L543.72,257.76187L570.96,247.3218L575.52,245.52179L583.32,242.52176L593.64,238.56173L602.04,235.32171L608.76,234.96171
				L612.6,234.84171L640.8,233.6417L649.56,233.2817L652.08,233.1617L654.84,232.68169L665.28,230.64168L669.36,229.92167L683.76,227.16165
				L684.6,226.92165L690.36,225.84164L699.72,224.04163L736.8,231.84169L763.68,247.4418L772.2,252.00183L772.68,252.36184L779.16,255.72186
				L788.04,260.6419L795.6,264.72193L803.52,267.72195L825,275.88201L836.28,257.76187L843.36,254.64185L843.96,254.28185L852.84,239.52174
				L879.6,254.64185L896.88,259.80189L977.88,313.56228L1007.88,277.80202L1016.64,277.08201L1092.48,303.84221L1132.56,284.64207
				L1149.6,286.20208L1148.88,292.68213L1151.76,301.08219L1159.56,314.16228L1167.96,322.92235L1180.2,330.3624L1189.44,337.56245
				L1203.72,344.1625L1218.24,342.96249L1245.96,345.72251L1265.64,341.76249L1279.32,336.00244L1302.72,335.40244L1319.04,338.40246
				L1330.92,338.16246L1351.56,343.3225L1376.76,353.04257L1399.32,362.16263L1424.76,365.16266L1457.64,373.68272L1461.6,370.56269
				L1473.36,361.56263L1501.32,322.68235L1532.88,281.40205L1546.32,254.64185L1569.36,240.00175L1578.48,224.88164L1609.44,204.84149
				L1623.72,217.92158L1645.56,221.52161L1665.6,236.04172L1682.64,240.96175L1725.72,269.52196L1753.08,298.68217L1771.32,320.52233
				L1786.56,322.92235L1808.4,344.88251L1821.48,354.96258"/>
		</g>
		<g id="sattlements">
			<path clip-path="url(#SVG_CP_1)" fill="#FF0000" fill-rule="evenodd" stroke="#000000" stroke-width="0.96" stroke-miterlimit="10" stroke-linecap="round" stroke-linejoin="round" d="
				M807.12,1498.51089C807.12,1492.97696,802.66076,1488.49082,797.16,1488.49082C791.65924,1488.49082,787.2,1492.97696,787.2,1498.51089
				C787.2,1504.04483,791.65924,1508.53097,797.16,1508.53097C802.66076,1508.53097,807.12,1504.04483,807.12,1498.51089z"/>
			<path clip-path="url(#SVG_CP_1)" fill="#FF0000" fill-rule="evenodd" stroke="#000000" stroke-width="0.96" stroke-miterlimit="10" stroke-linecap="round" stroke-linejoin="round" d="
				M1291.92,1547.95125C1291.92,1542.41732,1287.46076,1537.93118,1281.96,1537.93118C1276.45924,1537.93118,1272,1542.41732,1272,1547.95125
				C1272,1553.48519,1276.45924,1557.97133,1281.96,1557.97133C1287.46076,1557.97133,1291.92,1553.48519,1291.92,1547.95125z"/>
			<path clip-path="url(#SVG_CP_1)" fill="#FF0000" fill-rule="evenodd" stroke="#000000" stroke-width="0.96" stroke-miterlimit="10" stroke-linecap="round" stroke-linejoin="round" d="
				M639.24,1233.18897C639.24,1227.65503,634.78076,1223.16889,629.28,1223.16889C623.77924,1223.16889,619.32,1227.65503,619.32,1233.18897
				C619.32,1238.7229,623.77924,1243.20904,629.28,1243.20904C634.78076,1243.20904,639.24,1238.7229,639.24,1233.18897z"/>
			<path clip-path="url(#SVG_CP_1)" fill="#FF0000" fill-rule="evenodd" stroke="#000000" stroke-width="0.96" stroke-miterlimit="10" stroke-linecap="round" stroke-linejoin="round" d="
				M1591.68,1294.44941C1591.68,1288.94862,1587.22076,1284.48934,1581.72,1284.48934C1576.21924,1284.48934,1571.76,1288.94862
				,1571.76,1294.44941C1571.76,1299.95021,1576.21924,1304.40948,1581.72,1304.40948C1587.22076,1304.40948,1591.68,1299.95021
				,1591.68,1294.44941z"/>
			<path clip-path="url(#SVG_CP_1)" fill="#FF0000" fill-rule="evenodd" stroke="#000000" stroke-width="0.96" stroke-miterlimit="10" stroke-linecap="round" stroke-linejoin="round" d="
				M628.08,700.26509C628.08,694.73116,623.62076,690.24502,618.12,690.24502C612.61924,690.24502,608.16,694.73116,608.16,700.26509
				C608.16,705.79902,612.61924,710.28516,618.12,710.28516C623.62076,710.28516,628.08,705.79902,628.08,700.26509z"/>
			<path clip-path="url(#SVG_CP_1)" fill="#FF0000" fill-rule="evenodd" stroke="#000000" stroke-width="0.96" stroke-miterlimit="10" stroke-linecap="round" stroke-linejoin="round" d="
				M1119.12,1629.49185C1119.12,1623.99105,1114.63389,1619.53177,1109.1,1619.53177C1103.56611,1619.53177,1099.08,1623.99105,
				1099.08,1629.49185C1099.08,1634.99264,1103.56611,1639.45192,1109.1,1639.45192C1114.63389,1639.45192,1119.12,1634.99264,1119.12,1629.49185
				z"/>
			<path clip-path="url(#SVG_CP_1)" fill="#FF0000" fill-rule="evenodd" stroke="#000000" stroke-width="0.96" stroke-miterlimit="10" stroke-linecap="round" stroke-linejoin="round" d="
				M1296,2065.63502C1296,2060.10108,1291.51389,2055.61494,1285.98,2055.61494C1280.44611,2055.61494,1275.96,2060.10108,1275.96,2065.63502
				C1275.96,2071.16895,1280.44611,2075.65509,1285.98,2075.65509C1291.51389,2075.65509,1296,2071.16895,1296,2065.63502z"/>
			<path clip-path="url(#SVG_CP_1)" fill="#FF0000" fill-rule="evenodd" stroke="#000000" stroke-width="0.96" stroke-miterlimit="10" stroke-linecap="round" stroke-linejoin="round" d="
				M1425.36,2594.11886C1425.36,2588.58493,1420.90076,2584.09879,1415.4,2584.09879C1409.89924,2584.09879,1405.44,2588.58493,
				1405.44,2594.11886C1405.44,2599.65279,1409.89924,2604.13893,1415.4,2604.13893C1420.90076,2604.13893,1425.36,2599.65279,1425.36,2594.11886
				z"/>
			<path clip-path="url(#SVG_CP_1)" fill="#FF0000" fill-rule="evenodd" stroke="#000000" stroke-width="0.96" stroke-miterlimit="10" stroke-linecap="round" stroke-linejoin="round" d="
				M930.12,1433.59042C930.12,1428.05649,925.66076,1423.57035,920.16,1423.57035C914.65924,1423.57035,910.2,1428.05649,910.2,1433.59042
				C910.2,1439.12436,914.65924,1443.6105,920.16,1443.6105C925.66076,1443.6105,930.12,1439.12436,930.12,1433.59042z"/>
			<path clip-path="url(#SVG_CP_1)" fill="#FF0000" fill-rule="evenodd" stroke="#000000" stroke-width="0.96" stroke-miterlimit="10" stroke-linecap="round" stroke-linejoin="round" d="
				M1092.12,1455.97059C1092.12,1450.46979,1087.66076,1446.01051,1082.16,1446.01051C1076.65924,1446.01051,1072.2,1450.46979,
				1072.2,1455.97059C1072.2,1461.47138,1076.65924,1465.93066,1082.16,1465.93066C1087.66076,1465.93066,1092.12,1461.47138,1092.12,1455.97059
				z"/>
			<path clip-path="url(#SVG_CP_1)" fill="#FF0000" fill-rule="evenodd" stroke="#000000" stroke-width="0.96" stroke-miterlimit="10" stroke-linecap="round" stroke-linejoin="round" d="
				M824.16,1952.7742C824.16,1947.2734,819.70076,1942.81412,814.2,1942.81412C808.69924,1942.81412,804.24,1947.2734,804.24,1952.7742
				C804.24,1958.27499,808.69924,1962.73427,814.2,1962.73427C819.70076,1962.73427,824.16,1958.27499,824.16,1952.7742z"/>
			<path clip-path="url(#SVG_CP_1)" fill="#FF0000" fill-rule="evenodd" stroke="#000000" stroke-width="0.96" stroke-miterlimit="10" stroke-linecap="round" stroke-linejoin="round" d="
				M1171.56,1215.30884C1171.56,1209.7749,1167.10076,1205.28876,1161.6,1205.28876C1156.09924,1205.28876,1151.64,1209.7749,1151.64,1215.30884
				C1151.64,1220.84277,1156.09924,1225.32891,1161.6,1225.32891C1167.10076,1225.32891,1171.56,1220.84277,1171.56,1215.30884z
				"/>
		</g>
		<g id="sattlements_Anno_6">
			<g font-family="'Sylfaen'" font-size="1" kerning="0" font-weight="700" fill="#000000" clip-path="url(#SVG_CP_1)" >
				<text text-anchor="start" transform="matrix(49.92 0 0 49.92036 803.28 1537.69118)" >
					<tspan direction="ltr" unicode-bidi="embed" x="0 ">Koreti</tspan>
					
				</text>
			</g>
			<g font-family="'Sylfaen'" font-size="1" kerning="0" font-weight="700" fill="#000000" clip-path="url(#SVG_CP_1)" >
				<text text-anchor="start" transform="matrix(49.92 0 0 49.92036 1293.48 1550.17127)" >
					<tspan direction="ltr" unicode-bidi="embed" x="0 ">Argveti</tspan>
					
				</text>
			</g>
			<g font-family="'Sylfaen'" font-size="1" kerning="0" font-weight="700" fill="#000000" clip-path="url(#SVG_CP_1)" >
				<text text-anchor="start" transform="matrix(49.92 0 0 49.92036 629.4 1221.72888)" >
					<tspan direction="ltr" unicode-bidi="embed" x="0 ">Sareki</tspan>
					
				</text>
			</g>
			<g font-family="'Sylfaen'" font-size="1" kerning="0" font-weight="700" fill="#000000" clip-path="url(#SVG_CP_1)" >
				<text text-anchor="start" transform="matrix(49.92 0 0 49.92036 1581.84 1272.60925)" >
					<tspan direction="ltr" unicode-bidi="embed" x="0 ">Chala</tspan>
                </text>
					
			</g>
			<g font-family="'Sylfaen'" font-size="1" kerning="0" font-weight="700" fill="#000000" clip-path="url(#SVG_CP_1)" >
				<text text-anchor="start" transform="matrix(49.92 0 0 49.92036 618.24 678.24493)" >
					<tspan direction="ltr" unicode-bidi="embed" x="0 ">Tskhomareti</tspan>
					
				</text>
			</g>
			<g font-family="'Sylfaen'" font-size="1" kerning="0" font-weight="700" fill="#000000" clip-path="url(#SVG_CP_1)" >
				<text text-anchor="start" transform="matrix(49.92 0 0 49.92036 1109.16 1607.65169)" >
					<tspan direction="ltr" unicode-bidi="embed" x="0 ">Gorisa</tspan>
					
				</text>
			</g>
			<g font-family="'Sylfaen'" font-size="1" kerning="0" font-weight="700" fill="#000000" clip-path="url(#SVG_CP_1)" >
				<text text-anchor="start" transform="matrix(49.92 0 0 49.92036 1287.6 2043.61486)" >
					<tspan direction="ltr" unicode-bidi="embed" x="0 ">Korbouli</tspan>
					
				</text>
			</g>
			<g font-family="'Sylfaen'" font-size="1" kerning="0" font-weight="700" fill="#000000" clip-path="url(#SVG_CP_1)" >
				<text text-anchor="start" transform="matrix(49.92 0 0 49.92036 1423.56 2570.53869)" >
					<tspan direction="ltr" unicode-bidi="embed" x="0 ">Chalovani</tspan>
					
				</text>
			</g>
			<g font-family="'Sylfaen'" font-size="1" kerning="0" font-weight="700" fill="#000000" clip-path="url(#SVG_CP_1)" >
				<text text-anchor="start" transform="matrix(49.92 0 0 49.92036 765.84 1403.65021)" >
					<tspan direction="ltr" unicode-bidi="embed" x="0 ">Sairkhe</tspan>
					
				</text>
			</g>
			<g font-family="'Sylfaen'" font-size="1" kerning="0" font-weight="700" fill="#000000" clip-path="url(#SVG_CP_1)" >
				<text text-anchor="start" transform="matrix(49.92 0 0 49.92036 1086.72 1445.53051)" >
					<tspan direction="ltr" unicode-bidi="embed" x="0 ">Merjevi</tspan>
					
				</text>
			</g>
			<g font-family="'Sylfaen'" font-size="1" kerning="0" font-weight="700" fill="#000000" clip-path="url(#SVG_CP_1)" >
				<text text-anchor="start" transform="matrix(49.92 0 0 49.92036 815.88 1927.57401)" >
					<tspan direction="ltr" unicode-bidi="embed" x="0 ">Jalaurta</tspan>
					
				</text>
			</g>
			<g font-family="'Sylfaen'" font-size="1" kerning="0" font-weight="700" fill="#000000" clip-path="url(#SVG_CP_1)" >
				<text text-anchor="start" transform="matrix(70.92 0 0 70.92036 914.76 1199.28872)" >
					<tspan direction="ltr" unicode-bidi="embed" x="0 ">Sachkhere</tspan>
					
				</text>
			</g>
			<g font-family="'Sylfaen'" font-size="1" kerning="0" font-weight="700" fill="#000000" clip-path="url(#SVG_CP_1)" >
				<text text-anchor="start" transform="matrix(49.92 0 0 49.92036 1161.72 1203.84875)" >
					<tspan direction="ltr" unicode-bidi="embed" x="0 ">Chikha</tspan>
					
				</text>
			</g>
		</g>
	</g>
</svg>
