<?xml version="1.0" encoding="utf-8" standalone="no"?>
<!-- Creator: Esri ArcMap 10.9.1.28388 -->
<!DOCTYPE svg PUBLIC "-//W3C//DTD SVG 1.1//EN"  "http://www.w3.org/Graphics/SVG/1.1/DTD/svg11.dtd">
<svg width="2592pt" height="3456pt" viewBox="0 0 2592 3456" enable-background="new 0 0 2592 3456"
	version="1.1" xmlns="http://www.w3.org/2000/svg" xmlns:xlink="http://www.w3.org/1999/xlink" >
	<g id="Layers">
		<g id="municipal">
			<path clip-path="url(#SVG_CP_1)" fill="#9e6e9c" fill-rule="evenodd" stroke="none" d="M1975.44,537.60391L1975.56,540.24393
				L1975.56,543.00395L1975.68,545.88397L1975.8,548.52399L1975.92,551.40401L1976.04,553.80403L1976.04,554.76403L1977.12,557.04405
				L1978.2,559.08407L1979.52,561.60408L1981.2,564.84411L1982.28,567.24412L1983.84,570.24415L1985.4,573.24417L1986.84,576.24419
				L1988.28,579.12421L1989.84,582.12423L1991.28,585.12425L1992.72,587.88427L1993.2,588.72428L1995.12,589.44429L2032.44,597.24434
				L2064.48,604.08439L2067.72,613.92446L2071.08,623.76454L2079.24,647.76471L2079.72,649.32472L2079.96,649.80472L2079.96,649.92473
				L2099.04,706.08513L2102.52,717.48522L2102.64,717.72522L2102.64,717.84522L2102.64,717.96522L2103.12,719.52523L2103.24,719.88523
				L2103.84,721.56525L2104.08,722.40525L2104.44,723.48526L2104.44,723.60526L2104.68,724.20527L2106,728.4053L2106,728.6453L2106,728.7653
				L2122.2,780.72568L2127.36,791.16575L2132.28,797.7658L2132.88,801.72583L2133.24,803.88584L2130,816.36594L2128.56,840.00611
				L2129.52,844.44614L2130.96,851.40619L2132.52,858.24624L2133.72,864.36628L2135.28,871.08633L2135.76,873.72635L2136.12,875.40636
				L2138.64,878.16638L2143.92,879.48639L2167.56,885.48644L2168.76,885.72644L2183.64,889.32647L2211.96,906.72659L2229.12,929.52676
				L2240.52,953.76693L2241.12,954.00694L2241.84,954.36694L2241.96,955.44695L2242.08,956.16695L2242.8,957.48696L2242.8,957.96696
				L2242.8,958.68697L2242.56,959.40698L2249.04,980.52713L2255.88,1027.80747L2251.08,1063.92774L2238.48,1096.44797L2222.76,1126.56819
				L2192.04,1169.88851L2166.72,1199.76872L2203.92,1234.80898L2244.24,1266.60921L2258.16,1272.12925L2270.52,1273.56926L2280.48,1276.56928
				L2292.36,1285.08934L2300.4,1296.48943L2298.36,1310.88953L2310.84,1367.52994L2326.2,1407.25023L2338.8,1455.01058L2341.68,1474.45072
				L2349.6,1493.77086L2362.08,1501.21091L2369.88,1511.53099L2371.32,1514.65101L2378.4,1530.25113L2383.44,1551.61128L2386.44,1563.85137
				L2396.64,1584.49152L2404.32,1591.33157L2408.16,1600.57164L2409.12,1610.41171L2425.44,1634.53188L2440.32,1715.89248L2440.56,1717.33249
				L2429.04,1732.09259L2420.64,1737.13263L2399.04,1751.17273L2390.04,1759.33279L2375.64,1773.9729L2375.52,1774.0929L2375.04,1774.6929
				L2374.08,1776.37291L2371.68,1780.57295L2370.96,1781.89295L2370.24,1783.09296L2370,1783.45297L2349.36,1820.05323L2331.48,1854.25348
				L2327.04,1878.97366L2326.8,1902.37383L2327.4,1919.05395L2329.68,1935.13407L2329.2,1939.9341L2329.08,1940.17411L2328.72,1943.89413
				L2321.52,1955.53422L2314.32,1965.97429L2307.96,1976.29437L2304.48,1986.73444L2307.36,2031.13477L2309.64,2045.53487L2311.2,2062.695
				L2307.48,2074.21508L2300.64,2081.29513L2264.64,2093.65522L2281.2,2112.37536L2349.6,2096.77524L2349.6,2103.25529L2335.56,2138.53555
				L2325,2147.53561L2322.6,2150.05563L2373.48,2191.57593L2374.44,2196.61597L2375.28,2200.816L2376.84,2208.25605L2375.4,2215.81611
				L2375.76,2216.17611L2376,2216.53611L2412.48,2261.17644L2405.64,2290.69665L2409.48,2314.45683L2423.28,2328.97693L2441.76,2369.41723
				L2443.56,2374.21726L2447.52,2384.77734L2452.68,2400.25745L2451,2418.01758L2451,2418.13758L2450.52,2422.81761L2448.12,2452.09783
				L2452.44,2463.73791L2465.64,2487.13808L2474.16,2513.53827L2472.48,2519.77832L2468.28,2528.29838L2419.2,2575.45872L2400.24,2597.65889
				L2372.52,2589.61883L2356.56,2587.33881L2346.84,2587.33881L2325.48,2590.93884L2310.6,2591.29884L2295.72,2592.97885L2280.84,2599.9389
				L2265.72,2595.37887L2247.96,2592.13885L2234.76,2594.17886L2227.32,2598.73889L2216.52,2609.77897L2209.68,2615.05901L2201.16,2619.61905
				L2192.16,2620.69905L2181.72,2620.33905L2171.16,2619.73905L2163.12,2622.97907L2151.72,2626.8191L2139.84,2627.0591L2128.44,2631.61913
				L2097.24,2642.77921L2062.32,2644.93923L2035.56,2645.41923L2012.16,2646.49924L1997.28,2644.93923L1933.08,2672.05943L1928.04,2675.05945
				L1913.28,2681.05949L1906.56,2683.57951L1901.16,2685.97953L1895.4,2688.37954L1891.56,2690.17956L1887.84,2691.49957L1882.56,2693.53958
				L1880.16,2694.49959L1876.68,2695.8196L1871.64,2698.09962L1868.52,2699.29962L1864.68,2700.73963L1862.04,2701.69964L1859.52,2702.77965
				L1856.88,2703.73966L1855.08,2704.45966L1852.44,2705.53967L1850.88,2706.61968L1850.76,2706.61968L1850.4,2706.73968L1847.16,2708.17969
				L1840.08,2711.05971L1833.36,2714.05973L1830.36,2715.25974L1825.44,2717.05975L1819.92,2719.21977L1816.2,2720.65978L1812.36,2722.57979
				L1808.76,2724.37981L1804.92,2726.65982L1800,2729.53984L1794.48,2733.25987L1789.44,2736.7399L1785.36,2739.61992L1782.24,2741.65993
				L1777.8,2744.65995L1774.44,2746.69997L1770.6,2748.97999L1767.12,2751.14L1762.32,2754.26002L1758.84,2756.42004L1758.72,2756.54004
				L1755.96,2758.46005L1751.28,2761.58008L1747.8,2763.86009L1743.72,2766.86012L1740.84,2768.66013L1737.48,2771.06015L1734.36,2773.22016
				L1732.2,2774.78017L1730.4,2776.22018L1729.32,2774.78017L1722.12,2780.42021L1717.08,2775.14018L1716.84,2775.38018L1716.6,2775.50018
				L1713.36,2772.02015L1708.92,2767.10012L1708.2,2766.26011L1701.96,2771.42015L1698.24,2774.42017L1688.4,2782.82023L1673.52,2794.34032
				L1663.44,2802.50037L1644.48,2817.26048L1631.76,2826.98055L1626.6,2830.94058L1617.84,2838.86064L1572,2874.02089L1536.96,2921.54124
				L1522.44,2955.74149L1516.32,2951.90146L1473.24,2925.74127L1456.8,2916.0212L1455,2915.06119L1437.72,2904.86112L1426.32,2898.98108
				L1398.72,2883.74097L1261.68,2813.66046L1225.92,2792.3003L1174.8,2782.34023L1138.92,2786.42026L1026.24,2805.14039L972.12,2810.54043
				L925.56,2808.98042L874.8,2816.30047L843.96,2764.4601L776.04,2746.21997L760.08,2741.77993L726.72,2732.89987L708.72,2740.57992
				L658.92,2759.06006L630.6,2771.18015L607.68,2786.06026L588.6,2809.34042L540.84,2821.70051L485.52,2809.94043L457.92,2825.90054
				L442.08,2853.38074L381.96,2851.58073L347.52,2849.42072L343.44,2865.02083L331.68,2865.14083L323.52,2829.26057L286.2,2740.93993
				L280.32,2727.01983L279.36,2717.65976L274.8,2682.2595L273.48,2673.37944L248.28,2577.73874L221.28,2553.13856L191.76,2540.41847
				L162.84,2527.33837L159.12,2515.69829L148.44,2481.73804L156.24,2434.8177L159.48,2405.17749L170.04,2334.85697L170.28,2315.65684
				L170.28,2311.4568L170.88,2298.61671L171.12,2297.2967L171,2296.5767L171.24,2292.25667L171.36,2290.57665L171.84,2284.81661
				L172.2,2280.61658L173.16,2268.13649L174.12,2256.3764L174.84,2210.89607L179.52,2201.65601L181.56,2194.45595L186.6,2185.21589
				L186.84,2179.21584L187.32,2172.8558L184.8,2169.37577L183.24,2164.45574L182.4,2157.61569L182.16,2152.45565L180.96,2148.85562
				L181.2,2148.25562L181.2,2147.41561L181.44,2147.17561L181.56,2146.93561L181.44,2146.69561L181.8,2145.8556L181.92,2145.1356
				L181.92,2144.53559L182.16,2140.93557L182.28,2140.09556L182.64,2139.13555L182.4,2138.89555L182.64,2138.05554L182.52,2137.57554
				L182.64,2137.09554L183.12,2136.97554L183.24,2136.85554L183.84,2136.01553L183.96,2135.77553L183.84,2135.41552L183.48,2135.05552
				L183.72,2134.45552L184.2,2133.49551L184.08,2133.13551L183.72,2132.77551L183.72,2132.4155L183.36,2131.8155L183.48,2131.3355
				L183.72,2131.3355L183.84,2131.21549L184.32,2130.61549L184.44,2130.13549L185.04,2129.53548L185.4,2128.21547L185.76,2127.37547
				L185.64,2126.29546L187.08,2125.09545L188.52,2123.65544L188.76,2122.21543L189.6,2121.61542L189.72,2121.25542L190.32,2121.13542
				L190.68,2121.01542L190.92,2120.77542L190.8,2120.53542L191.04,2120.41542L191.4,2120.05541L191.52,2119.57541L191.76,2119.09541
				L191.64,2118.6154L191.4,2118.3754L191.88,2118.1354L192.12,2117.6554L192.12,2116.57539L191.04,2115.25538L190.32,2114.29537
				L189.96,2113.09536L189.72,2112.37536L189.84,2111.77535L190.2,2111.05535L189.96,2109.97534L189.36,2109.13533L188.76,2107.93533
				L188.04,2107.45532L187.2,2106.61532L185.64,2106.01531L184.32,2104.8153L183.96,2104.2153L183.6,2104.0953L182.76,2103.49529
				L181.68,2102.53529L181.32,2101.93528L180.96,2101.21528L180.6,2100.37527L180.72,2098.93526L180.6,2097.25525L180.96,2096.53524
				L180.96,2095.21523L180.96,2094.01522L180.72,2093.05522L180.72,2092.45521L180.6,2091.85521L180.6,2091.2552L180.84,2090.6552
				L180.96,2089.93519L181.44,2089.45519L181.92,2088.85519L181.8,2088.13518L182.16,2087.29518L182.04,2086.69517L182.4,2085.73516
				L182.88,2085.37516L183.24,2084.89516L183.24,2084.05515L182.76,2083.33515L182.4,2082.73514L181.92,2082.13514L181.32,2081.77513
				L181.08,2081.53513L180.72,2080.69513L180.12,2079.97512L179.76,2079.61512L178.44,2078.41511L177.6,2077.69511L177.12,2077.0951
				L176.4,2076.8551L175.56,2076.3751L174.84,2076.25509L174.36,2075.77509L174.12,2075.17509L174,2074.09508L174,2073.13507L174.36,2072.89507
				L174.48,2072.29507L174.84,2071.09506L174.96,2070.01505L174.84,2068.09504L174.84,2066.77503L174.48,2065.33502L173.64,2064.37501
				L173.4,2063.775L173.52,2062.09499L173.52,2061.13498L173.4,2060.05498L173.16,2059.81498L172.8,2057.89496L172.68,2057.53496
				L172.92,2056.93495L173.16,2055.61494L173.28,2054.77494L173.16,2054.29494L172.56,2053.21493L172.56,2053.09493L173.16,2052.37492
				L173.28,2051.77492L173.4,2051.17491L173.64,2050.81491L173.88,2050.33491L174.12,2049.8549L174,2049.1349L174.24,2048.8949L
				174.36,2048.65489L174.72,2048.41489L174.84,2048.05489L175.08,2047.93489L175.44,2047.81489L175.8,2047.33488L175.92,2046.61488
				L175.68,2046.13488L175.44,2045.77487L175.08,2045.53487L175.08,2045.29487L175.2,2044.93487L175.2,2043.97486L175.32,2043.25485
				L175.32,2042.77485L175.2,2042.17485L174.96,2041.69484L174.6,2041.45484L174.36,2041.21484L173.88,2040.97484L173.64,2040.61484
				L172.92,2040.13483L172.08,2039.53483L171.36,2039.05482L169.56,2037.01481L168.24,2035.8148L166.92,2034.61479L165.96,2033.89479
				L165.96,2033.53478L165.72,2033.17478L165.24,2032.57478L165.12,2032.09477L165.36,2031.73477L165.24,2031.25477L164.88,2030.89477
				L164.64,2030.65476L164.04,2030.65476L163.56,2030.41476L163.56,2029.69476L163.32,2029.45475L163.2,2028.61475L162.96,2028.49475
				L162.84,2028.25475L162.6,2027.89474L162.84,2027.41474L162.72,2027.17474L162.6,2026.57473L162.84,2026.33473L163.8,2025.85473
				L164.28,2025.61473L164.52,2025.25472L164.76,2024.53472L165.12,2023.69471L165,2022.97471L165.96,2021.05469L166.32,2020.21469
				L166.92,2019.49468L167.4,2018.77468L167.28,2017.45467L167.28,2016.73466L167.4,2016.01466L167.16,2014.45465L166.92,2013.61464
				L167.16,2013.25464L167.16,2012.65463L167.16,2011.81463L167.04,2011.09462L167.04,2010.61462L167.4,2010.13461L167.52,2009.65461
				L167.76,2009.29461L167.88,2008.6946L167.88,2008.0946L168,2007.6146L168,2007.25459L168.12,2006.29459L168.24,2006.05458L168.6,2004.13457
				L168.72,2002.45456L168.72,2001.13455L168.48,2000.17454L168.48,1999.21453L168.36,1998.25453L168.24,1997.89453L168.12,1997.41452
				L168.12,1997.05452L168.12,1996.81452L167.88,1996.57452L167.88,1995.85451L167.4,1995.85451L166.44,1995.85451L165.72,1996.21451
				L163.32,1998.37453L161.52,1999.21453L160.32,1999.33454L159,2000.29454L157.2,2001.37455L156.12,2000.65455L156.84,1997.89453
				L157.92,1993.9345L160.56,1982.77442L161.4,1977.25438L162.96,1957.21423L163.44,1955.77422L163.8,1953.3742L163.92,1950.01418
				L163.92,1949.89418L163.8,1949.77418L163.68,1949.05417L163.44,1948.57417L163.44,1948.45417L164.52,1945.33414L166.08,1941.97412
				L166.08,1941.85412L166.32,1941.37411L166.44,1941.13411L166.56,1940.29411L166.68,1939.9341L166.8,1939.6941L167.16,1938.8541
				L167.76,1937.41409L168.12,1936.69408L168.36,1935.25407L168.48,1934.77407L168.72,1933.57406L169.08,1932.37405L169.32,1930.93404
				L169.32,1930.81404L169.92,1928.53402L170.16,1927.09401L170.52,1925.654L170.64,1924.93399L170.76,1924.81399L170.76,1924.45399
				L170.88,1924.09399L170.88,1923.85399L171,1923.73399L171,1923.61399L172.68,1918.21395L174.48,1913.53391L174.48,1913.41391
				L176.52,1907.05386L176.4,1906.93386L176.4,1906.81386L176.76,1901.29382L177,1897.09379L172.8,1892.05376L169.32,1890.01374
				L169.56,1861.93354L167.88,1859.41352L166.2,1857.61351L166.08,1857.4935L165.84,1857.2535L165.6,1857.0135L164.64,1856.17349
				L164.4,1855.93349L164.04,1855.57349L163.68,1855.21349L163.32,1854.85349L162.96,1854.49348L162.6,1854.25348L162.6,1854.13348
				L162.36,1854.01348L162.48,1853.89348L162.6,1853.53348L162.36,1853.29347L162.24,1853.17347L161.76,1852.69347L161.52,1852.57347
				L161.4,1852.45347L161.04,1852.33347L160.56,1851.97346L160.08,1851.85346L159.84,1851.73346L159.6,1851.49346L159.24,1851.37346
				L159.12,1851.25346L158.64,1851.01346L158.28,1850.65345L157.92,1850.41345L157.44,1850.17345L157.08,1849.93345L156.96,1849.81345
				L156.72,1849.57345L156.6,1849.57345L156.12,1849.21344L155.76,1848.85344L155.28,1848.49344L154.8,1848.01344L154.2,1847.65343
				L153.72,1847.29343L153.24,1846.81343L152.76,1846.21342L151.68,1845.13341L151.68,1843.2134L151.68,1840.57338L151.68,1840.45338
				L151.56,1840.21338L151.32,1839.73338L150.12,1837.93336L152.04,1836.97336L153.36,1836.25335L154.8,1835.05334L155.28,1833.61333
				L155.4,1832.53332L154.44,1830.61331L153.48,1829.2933L151.8,1827.61329L150.72,1826.77328L150.6,1826.77328L150.6,1826.65328
				L150.48,1826.65328L149.04,1825.09327L147.12,1824.13326L144.24,1823.17325L140.16,1821.01324L128.28,1814.17319L118.2,1810.21316
				L117.84,1809.37315L117.84,1808.89315L117.84,1807.93314L117.84,1806.97314L117.96,1805.05312L117.96,1803.85311L117.96,1802.89311
				L118.08,1801.9331L118.2,1800.85309L118.56,1799.65308L118.68,1798.69308L118.92,1797.61307L119.04,1796.53306L119.16,1795.21305
				L119.28,1794.25304L119.28,1793.41304L119.28,1792.57303L119.16,1791.61303L119.04,1791.37302L119.16,1791.25302L119.16,1791.13302
				L119.28,1789.57301L119.88,1785.85298L120.24,1784.41297L120.96,1782.25296L121.32,1780.93295L121.44,1780.09294L122.76,1780.09294
				L126.24,1772.05288L128.16,1768.81286L130.92,1762.21281L131.4,1759.81279L131.76,1758.25278L133.08,1751.65273L135.12,1744.21268
				L135.36,1743.61268L135.6,1742.53267L137.28,1739.53265L138.6,1731.61259L138.6,1731.49259L138.6,1731.37259L141.72,1725.61255
				L146.04,1721.77252L146.16,1721.65252L146.28,1721.53252L150.96,1717.33249L156.24,1710.49244L163.32,1700.77237L168.84,1697.29234
				L172.8,1695.61233L175.2,1693.81231L176.16,1692.2523L178.92,1690.69229L185.16,1687.21227L189.96,1684.09224L198.12,1678.81221
				L198.24,1678.81221L198.36,1678.81221L210.6,1671.13215L222.24,1670.17214L232.44,1668.85213L241.44,1664.8921L247.2,1664.0521
				L255.12,1664.0521L265.2,1661.41208L296.28,1632.85187L303.72,1626.13182L303.84,1626.01182L304.56,1625.41182L304.68,1625.29182
				L307.56,1622.5318L306.96,1620.85178L306.84,1620.37178L306.72,1620.01178L306.6,1619.89178L306.96,1619.65178L309,1616.05175
				L309.36,1615.45174L309.96,1614.37174L313.2,1611.01171L313.68,1610.17171L314.52,1608.8517L314.64,1608.7317L314.64,1608.6117
				L315.96,1607.41169L317.04,1606.21168L317.04,1606.09168L317.76,1605.13167L318.84,1604.05166L319.2,1603.69166L319.32,1603.57166
				L319.44,1603.45166L319.8,1602.97165L320.64,1602.49165L321.36,1602.13165L322.32,1601.53164L323.16,1601.17164L323.76,1600.69164
				L324.24,1600.45164L325.92,1599.37163L326.16,1599.13163L326.28,1599.13163L326.4,1599.01163L328.92,1595.8916L328.56,1595.2916
				L328.08,1594.33159L327.84,1593.73159L327.6,1593.37158L327,1592.41158L327.12,1592.41158L327.12,1592.29158L327.84,1591.21157
				L332.04,1588.33155L336,1586.29153L341.28,1584.25152L346.32,1582.0915L358.2,1577.77147L358.32,1577.65147L358.44,1577.65147
				L358.56,1577.53147L365.52,1572.85144L368.28,1571.05142L374.76,1566.85139L376.44,1565.65138L382.8,1563.97137L388.08,1562.53136
				L388.08,1562.41136L388.2,1562.41136L389.28,1562.41136L389.4,1562.41136L390.36,1562.29136L390.6,1562.29136L393.96,1561.81135
				L397.92,1561.21135L398.16,1561.21135L398.28,1561.21135L398.28,1561.57135L398.4,1562.41136L398.52,1563.97137L398.64,1565.17138
				L398.76,1566.25139L399,1567.09139L399.24,1567.6914L399.36,1568.5314L399.72,1569.13141L399.96,1569.49141L399.96,1569.97141
				L400.56,1570.81142L400.92,1571.65143L401.04,1572.37143L400.92,1573.09144L401.04,1573.93144L401.16,1574.65145L401.28,1575.49145
				L401.28,1576.33146L401.52,1577.41147L401.88,1578.37148L402.24,1578.97148L403.08,1579.57148L403.68,1580.41149L404.28,1581.1315
				L405,1581.7315L405.6,1582.57151L405.84,1583.05151L406.08,1584.01152L406.44,1585.93153L406.68,1587.13154L406.92,1587.61154
				L407.4,1588.21155L407.4,1588.81155L407.04,1589.53156L407.28,1590.37156L407.64,1590.61156L408,1590.85157L408.24,1591.21157
				L408.36,1591.81157L408.36,1592.53158L408.24,1592.89158L407.76,1593.37158L407.52,1593.73159L407.16,1594.21159L407.04,1594.45159
				L407.04,1594.81159L406.92,1595.2916L407.04,1595.7716L407.4,1596.0116L407.88,1596.37161L408,1596.49161L408.12,1596.85161L
				408.12,1596.97161L407.88,1596.97161L407.64,1596.85161L407.4,1596.97161L407.04,1597.09161L406.68,1597.33161L406.44,1597.57161
				L406.56,1598.05162L406.92,1598.77162L407.04,1599.37163L407.04,1600.09163L406.92,1601.29164L406.56,1602.13165L406.56,1602.97165
				L406.56,1604.17166L406.32,1605.25167L406.32,1605.97168L406.44,1606.33168L406.56,1606.45168L406.44,1606.69168L406.2,1607.17168
				L405.6,1607.53169L404.52,1608.25169L403.68,1608.6117L404.64,1609.6917L405.84,1611.13171L408.84,1616.65175L410.28,1619.41177
				L411.96,1622.5318L412.68,1623.97181L412.68,1625.17182L413.4,1625.89182L413.52,1626.01182L414.24,1627.09183L414.36,1627.09183
				L414.96,1628.29184L415.32,1628.89184L415.68,1629.73185L416.4,1630.57185L416.76,1631.29186L416.88,1632.49187L417,1633.57188
				L417,1633.69188L417,1633.81188L417.12,1634.53188L417.84,1635.73189L418.56,1636.4519L418.8,1637.53191L418.56,1637.77191L418.56,1637.89191
				L419.04,1638.61191L419.52,1638.97192L419.64,1639.09192L419.88,1639.21192L420.6,1639.57192L420.6,1639.81192L420.72,1639.93192
				L420.84,1640.17192L421.08,1640.17192L421.2,1640.17192L421.44,1640.17192L421.8,1640.53193L423.48,1642.69194L424.56,1644.25195
				L425.4,1644.61196L426.24,1644.85196L426.48,1644.85196L426.48,1645.21196L426.48,1646.05197L426.36,1647.49198L426.36,1649.17199
				L426.36,1649.892L426.6,1651.69201L426.72,1652.53201L427.32,1654.45203L428.28,1657.21205L429,1658.29206L429.6,1659.25206L
				430.68,1660.45207L431.4,1661.17208L432.48,1662.61209L433.2,1663.45209L434.88,1664.4121L436.32,1665.37211L438.96,1666.81212
				L440.28,1667.53212L441.6,1668.13213L443.16,1669.09213L444.12,1669.57214L446.04,1670.77215L447.6,1671.61215L450.48,1672.93216
				L453.6,1674.25217L454.08,1674.13217L454.8,1673.53217L455.04,1673.41217L455.76,1672.93216L456.24,1672.33216L457.56,1672.57216
				L458.52,1672.33216L459.6,1671.85215L460.08,1671.01215L460.2,1668.97213L460.2,1666.69212L461.64,1664.4121L465.12,1666.21211
				L465.12,1666.33211L468.48,1668.01213L468.72,1667.89213L469.08,1667.77213L469.56,1667.89213L469.92,1668.13213L471.24,1668.73213
				L472.08,1669.21214L473.88,1669.93214L474.36,1669.93214L474.84,1669.69214L475.56,1668.97213L476.4,1667.77213L477.24,1666.45212
				L478.2,1665.25211L479.64,1663.21209L481.08,1661.05208L482.76,1659.01206L483,1658.65206L483.24,1658.41206L490.92,1664.1721
				L496.92,1668.73213L498.24,1669.81214L500.4,1671.61215L501.6,1673.05216L507.12,1680.25222L506.76,1678.81221L506.76,1678.6922
				L506.64,1677.7322L506.52,1677.25219L506.16,1675.57218L506.04,1674.97218L506.04,1674.85218L506.04,1674.73218L505.68,1673.05216
				L505.44,1671.85215L505.08,1669.57214L504.96,1668.73213L504.84,1668.01213L504.84,1667.89213L504.48,1666.45212L504.36,1665.97211
				L503.88,1664.7721L503.64,1664.0521L503.64,1663.8121L503.04,1662.13208L502.68,1661.05208L502.44,1659.97207L501.84,1658.17206
				L501.48,1656.85205L501.36,1656.25204L501,1654.45203L501,1654.33203L501.12,1653.97202L501.36,1652.77202L501.36,1652.65202
				L501.48,1652.65202L501.48,1652.53201L501.48,1651.69201L501.48,1649.29199L501.48,1646.29197L501.72,1644.73196L502.44,1645.21196
				L502.92,1645.57196L503.52,1646.29197L504.12,1647.01197L504.96,1647.37198L505.68,1647.61198L506.28,1647.85198L507.12,1648.09198
				L507.84,1648.45198L508.68,1648.45198L509.88,1648.45198L510.72,1648.33198L511.8,1648.21198L513.12,1648.09198L513.48,1647.85198
				L514.08,1647.25198L514.56,1647.25198L515.88,1647.25198L518.04,1647.13198L519.96,1647.13198L520.8,1647.01197L521.88,1646.77197
				L522.96,1646.41197L524.16,1646.29197L525.36,1646.05197L528.36,1645.81197L530.16,1645.69196L531.6,1645.69196L532.8,1645.57196
				L534.24,1645.21196L534.96,1644.85196L536.04,1644.61196L536.88,1644.25195L537.72,1643.77195L538.68,1642.81194L538.8,1642.45194
				L539.76,1641.49193L540.72,1640.29193L541.44,1639.21192L541.8,1638.25191L542.28,1636.6919L542.52,1635.37189L542.52,1634.29188
				L542.76,1632.97187L543,1631.05186L543.24,1629.01184L543.36,1628.29184L543.36,1627.69183L543.6,1627.09183L543.96,1626.49183
				L543.96,1625.77182L543.96,1624.81181L544.08,1624.09181L544.56,1623.0118L544.8,1622.29179L545.4,1620.85178L545.64,1620.25178
				L546,1619.89178L546.48,1619.65178L546.84,1618.21176L547.56,1616.29175L548.28,1614.85174L549,1613.41173L549.24,1612.57172
				L549.72,1611.37172L549.96,1610.65171L550.2,1609.8117L550.56,1609.4517L550.68,1608.9717L551.52,1608.37169L552.24,1607.77169
				L552.96,1607.41169L553.92,1607.29169L555.12,1607.05168L556.44,1607.05168L557.76,1607.05168L558.36,1607.17168L559.2,1607.53169
				L560.04,1607.77169L560.4,1607.89169L560.88,1607.77169L561.36,1607.77169L562.44,1608.01169L563.16,1608.25169L563.64,1608.49169
				L564,1608.7317L564.36,1608.9717L564.84,1609.3317L565.08,1609.4517L565.8,1609.9317L566.04,1610.17171L566.64,1610.65171L567.36,1611.13171
				L567.6,1611.73172L567.84,1612.21172L567.72,1612.57172L567.72,1613.17173L567.72,1613.41173L567.72,1613.65173L567.72,1613.77173
				L567.84,1613.89173L567.84,1614.13174L567.96,1614.25174L568.2,1614.25174L568.56,1614.37174L568.92,1614.73174L569.04,1615.21174
				L569.16,1615.45174L569.16,1615.69175L569.04,1616.29175L569.16,1616.89176L569.4,1617.73176L569.4,1618.21176L569.52,1619.17177
				L569.64,1619.53177L569.76,1620.13178L569.76,1620.85178L570.12,1621.93179L570.48,1623.0118L570.6,1623.97181L570.72,1624.45181
				L570.6,1624.81181L570.6,1625.53182L570.6,1626.01182L570.24,1626.25182L569.88,1626.37182L569.76,1626.73183L569.64,1627.45183
				L569.76,1628.29184L569.76,1628.77184L569.52,1629.13184L569.4,1629.61185L569.4,1630.21185L569.4,1630.93186L569.52,1631.41186
				L569.76,1632.25187L570,1632.61187L570,1632.97187L570.24,1633.33187L570.48,1633.69188L570.84,1633.93188L571.2,1634.17188L
				571.44,1634.53188L571.8,1635.13189L572.04,1635.85189L572.4,1636.4519L572.64,1636.8119L572.76,1637.1719L573,1637.4119L573.24,1637.77191
				L573.36,1638.01191L573.72,1638.25191L573.96,1638.73191L574.44,1639.09192L575.04,1639.45192L575.4,1639.93192L575.64,1640.17192
				L575.76,1640.41193L576.12,1640.77193L576.48,1641.01193L576.84,1641.37193L577.08,1641.61194L577.08,1641.85194L577.56,1642.21194
				L577.92,1642.57194L578.16,1642.69194L578.52,1643.05195L578.76,1643.41195L578.88,1643.65195L579.36,1644.37196L579.72,1644.85196
				L580.08,1645.33196L580.56,1645.69196L580.92,1646.05197L581.52,1646.41197L582.24,1646.89197L582.72,1647.49198L582.96,1647.97198
				L583.8,1648.69199L583.8,1649.05199L584.04,1649.892L584.16,1650.732L584.16,1650.852L583.92,1651.33201L583.68,1651.81201L583.8,1652.29201
				L583.8,1652.65202L584.16,1653.01202L584.4,1653.61202L584.4,1653.97202L584.4,1655.05203L584.4,1656.61204L584.28,1657.33205
				L584.04,1657.93205L583.8,1658.41206L583.68,1658.89206L583.92,1659.49206L583.92,1660.21207L583.92,1660.93208L584.04,1661.41208
				L584.4,1661.89208L584.76,1662.37209L585.36,1662.73209L586.08,1663.21209L586.68,1663.33209L587.16,1663.6921L588.12,1664.0521
				L588.84,1664.5321L589.56,1665.13211L590.04,1665.61211L590.88,1666.33211L591.48,1666.93212L592.56,1667.77213L593.28,1668.37213
				L593.88,1668.85213L594.48,1669.33214L594.96,1669.57214L595.44,1669.81214L596.16,1669.81214L596.88,1669.93214L597.48,1670.41214
				L597.96,1670.89215L598.44,1671.61215L598.92,1672.45216L599.16,1673.05216L599.4,1673.53217L600,1674.25217L600.48,1674.73218
				L600.96,1675.45218L601.2,1676.29219L601.32,1677.01219L601.32,1677.8522L601.08,1678.4522L601.08,1679.17221L601.68,1680.25222
				L602.52,1681.09222L603.6,1681.93223L605.16,1683.49224L606.96,1684.45225L609,1685.05225L610.2,1685.89226L611.76,1687.09227
				L612.72,1688.41228L613.44,1689.13228L614.88,1689.85229L616.56,1690.69229L618.12,1691.05229L619.56,1692.0123L620.76,1692.85231
				L621.36,1693.33231L621.6,1693.21231L621.96,1693.33231L622.44,1693.45231L622.92,1694.17232L623.76,1695.01232L624.24,1695.61233
				L624.24,1696.21233L624.84,1696.69234L625.68,1697.41234L626.28,1697.53234L626.64,1697.89234L627.48,1698.13235L628.44,1698.13235
				L629.52,1695.61233L630.84,1692.85231L632.52,1688.17227L633.84,1685.41225L634.32,1684.45225L634.56,1684.33225L635.16,1684.09224
				L635.64,1684.09224L635.88,1684.21224L637.56,1685.29225L638.76,1685.89226L639.6,1686.37226L640.32,1686.85226L640.68,1687.45227
				L641.04,1687.81227L641.4,1688.05227L641.88,1688.29227L642.72,1688.41228L643.44,1688.65228L644.4,1688.65228L644.52,1688.65228
				L644.52,1688.53228L645.36,1687.57227L648.84,1680.97222L649.56,1678.93221L649.8,1676.53219L649.92,1673.05216L650.28,1670.77215
				L651.24,1668.61213L652.56,1665.37211L652.68,1665.37211L652.68,1665.25211L653.16,1664.1721L653.88,1662.49209L655.08,1660.33207
				L656.16,1658.17206L658.8,1654.21203L664.32,1651.57201L665.64,1651.212L667.08,1651.092L670.08,1650.732L671.28,1650.372L672.96,1649.892
				L676.8,1648.33198L680.52,1646.17197L683.04,1644.85196L684.6,1644.13195L684.12,1640.41193L684.96,1636.8119L686.52,1633.69188
				L686.88,1631.65186L686.88,1628.53184L687.12,1625.53182L688.08,1620.49178L688.32,1616.17175L688.44,1612.33172L688.8,1611.37172
				L691.2,1609.5717L692.64,1608.25169L693,1607.89169L693.72,1607.29169L694.08,1606.93168L694.08,1605.97168L693.84,1604.17166
				L693.72,1602.85165L693.48,1601.41164L693.36,1600.69164L693.12,1597.33161L693,1593.85159L693,1592.89158L692.28,1590.25156
				L692.28,1589.17155L692.04,1587.73154L691.92,1586.53153L691.92,1585.45153L692.16,1584.49152L692.76,1583.77151L692.64,1583.41151
				L692.52,1583.05151L692.52,1582.69151L693.24,1582.4515L693.36,1581.9715L693.36,1581.1315L693.84,1575.73146L693.96,1574.65145
				L694.2,1573.09144L694.08,1571.05142L693.72,1569.01141L693.6,1565.65138L693.48,1565.29138L693.48,1564.81138L693.72,1563.37137
				L694.68,1562.17136L695.4,1561.21135L695.64,1560.49135L695.76,1559.17134L696.24,1557.61132L696.24,1556.41132L696.12,1555.21131
				L695.88,1553.6513L695.52,1552.69129L694.56,1550.89128L693.48,1549.45126L691.68,1547.77125L689.28,1545.61124L688.56,1544.77123
				L687.36,1543.69122L686.64,1543.33122L686.04,1543.45122L685.44,1543.21122L684.96,1542.61122L684.96,1542.25121L685.32,1541.89121
				L684.96,1541.41121L684.12,1540.5712L683.4,1539.73119L683.04,1539.37119L681.84,1539.25119L681.6,1539.01119L681.24,1538.17118
				L680.76,1537.69118L680.28,1536.73117L680.28,1536.37117L680.04,1535.89117L679.68,1535.41116L679.8,1535.05116L679.8,1534.09115
				L679.32,1532.65114L678.72,1530.49113L677.88,1528.69111L677.52,1528.45111L673.2,1526.5311L672.84,1526.4111L666.48,1523.65108
				L665.52,1523.53108L664.32,1523.41108L664.08,1523.29107L663.96,1523.29107L663.84,1523.29107L663.72,1523.41108L663.6,1523.29107
				L661.32,1523.41108L657.72,1523.53108L655.8,1523.65108L650.4,1524.37108L650.4,1521.49106L650.28,1519.69105L650.4,1518.37104
				L650.28,1515.97102L650.4,1513.571L649.2,1506.37095L648.72,1505.89095L648,1505.17094L647.64,1504.57094L647.64,1504.09094L
				647.76,1503.85093L648.24,1503.49093L648.84,1502.77093L649.56,1502.17092L650.04,1501.69092L650.28,1501.21091L650.28,1500.85091
				L650.16,1499.6509L649.92,1497.85089L649.68,1495.93088L649.56,1494.25086L649.56,1493.53086L649.56,1493.05085L650.16,1492.69085
				L650.64,1492.33085L651.96,1491.73085L653.52,1491.01084L655.08,1490.53084L657.24,1489.57083L658.8,1488.85082L660.72,1488.13082
				L661.44,1487.89082L661.68,1487.65082L662.16,1487.41081L662.4,1487.29081L662.88,1487.05081L670.92,1483.09078L673.08,1482.01077
				L675.24,1480.81077L675.36,1480.81077L675.6,1480.69077L678.24,1480.69077L678.84,1480.81077L679.56,1480.21076L680.16,1479.61076
				L681,1479.13075L681.6,1478.53075L682.08,1478.17075L682.08,1477.45074L682.56,1476.37073L683.04,1475.65073L683.64,1475.17072
				L684.36,1475.05072L684.48,1474.81072L684.6,1474.57072L684.6,1474.21072L684.48,1473.97072L684.36,1473.61071L684.12,1473.13071
				L683.52,1472.53071L683.64,1472.0507L683.76,1471.5707L683.52,1470.37069L683.64,1469.65068L683.76,1468.81068L683.88,1467.73067
				L684.12,1467.01067L684.6,1466.53066L684.96,1466.05066L685.56,1465.69066L686.16,1465.09065L686.28,1464.25065L685.8,1463.53064
				L684.84,1462.57063L684.36,1461.85063L684,1460.65062L683.28,1459.09061L682.92,1457.7706L682.2,1456.81059L681.48,1455.61058
				L680.64,1454.41057L679.8,1452.49056L679.56,1451.17055L678.96,1450.21054L678.6,1449.73054L678.24,1448.29053L678.84,1447.21052
				L679.56,1446.25051L681.24,1444.0905L682.2,1443.25049L684.6,1439.89047L684.84,1438.69046L686.28,1436.89045L687.48,1434.13043
				L687.72,1433.05042L689.76,1430.1704L691.2,1428.25038L691.92,1427.29038L691.44,1426.45037L691.2,1425.49036L690.48,1425.01036
				L690,1424.17035L688.56,1416.4903L690,1416.1303L690.96,1415.89029L693.84,1416.01029L696.36,1416.01029L698.16,1415.53029L700.44,1413.73028
				L699.12,1412.89027L698.16,1412.05027L698.04,1411.69026L698.4,1410.85026L698.76,1410.37025L699.24,1410.01025L699.6,1409.65025
				L699.6,1409.41025L700.08,1409.05024L700.68,1408.45024L701.64,1408.09024L702.48,1407.61023L702.72,1407.37023L703.56,1406.89023
				L704.16,1406.05022L704.16,1405.93022L704.88,1404.37021L705.36,1403.5302L705.84,1402.8102L706.32,1401.85019L706.8,1401.37019
				L707.04,1400.89018L707.16,1400.77018L707.28,1399.93018L708.72,1397.65016L710.52,1395.01014L711.6,1394.29014L713.52,1392.97013
				L714.6,1391.89012L715.44,1391.29012L717.36,1390.09011L719.52,1388.41009L719.76,1388.05009L721.2,1387.21009L721.44,1386.73008
				L722.28,1386.01008L722.4,1385.89008L722.64,1385.77008L723.96,1384.69007L724.32,1384.45007L726.6,1382.77005L728.16,1381.69005
				L728.4,1381.57004L728.52,1381.45004L729,1381.09004L730.44,1380.13003L730.92,1380.01003L731.16,1379.89003L732.6,1377.97002
				L732.84,1377.49001L733.44,1377.01001L733.8,1376.77001L733.92,1376.53001L734.76,1376.05L737.28,1373.88999L738.72,1372.56998
				L740.04,1371.24997L741.6,1369.32996L742.92,1367.52994L743.52,1366.32993L743.52,1366.20993L743.52,1365.48993L743.04,1364.88992
				L742.56,1364.40992L742.68,1364.28992L743.76,1363.32991L743.88,1362.2499L743.88,1361.7699L744.24,1359.72989L744.12,1358.52988
				L747.96,1363.44991L749.76,1365.72993L750.48,1366.44993L750.6,1366.68994L750.84,1367.52994L750.96,1367.64994L750.96,1367.76994
				L751.44,1368.48995L751.56,1368.60995L751.8,1368.96995L752.4,1369.92996L753.12,1370.28996L753.72,1371.00997L753.96,1371.60997
				L754.2,1372.08998L754.56,1372.68998L761.52,1380.97004L761.64,1381.09004L762.12,1381.45004L762.72,1382.17005L762.72,1382.29005
				L763.8,1383.49006L766.92,1387.21009L769.08,1390.33011L769.68,1391.29012L778.44,1400.65018L778.56,1400.65018L778.56,1400.77018
				L791.64,1413.37028L807.12,1429.45039L807.12,1429.57039L807.36,1429.69039L809.4,1431.37041L815.52,1434.13043L820.44,1436.17044
				L823.56,1426.09037L824.64,1418.89032L824.76,1417.3303L827.88,1416.4903L833.4,1413.13027L848.76,1405.45022L851.04,1404.25021
				L855.6,1399.21017L859.2,1395.49015L862.92,1390.57011L865.08,1388.6501L870,1383.25006L873.6,1379.65003L873.6,1379.53003L874.2,1378.09002
				L875.16,1376.05L875.76,1374.85L877.2,1374.12999L879.96,1372.68998L881.28,1372.08998L882.6,1370.64997L883.32,1369.68996L886.08,1366.56994
				L886.2,1366.44993L886.32,1366.32993L896.4,1354.68985L901.32,1348.2098L902.64,1346.40979L904.2,1344.96978L905.52,1343.64977
				L905.76,1343.52977L912,1337.28972L916.92,1332.24969L922.32,1332.60969L936.12,1327.32965L945.6,1331.88968L970.44,1343.64977
				L970.56,1343.76977L971.04,1344.00977L971.28,1343.52977L971.52,1343.28977L971.88,1342.68976L972.24,1341.96976L972.6,1341.48975
				L973.08,1340.88975L974.52,1339.80974L975.24,1339.20974L976.68,1338.72973L978.48,1338.12973L980.16,1338.00973L981.84,1337.76973
				L983.76,1337.52972L985.44,1336.80972L986.28,1336.20971L987.12,1336.20971L988.08,1336.08971L990.36,1335.72971L991.8,1335.36971
				L993.24,1336.08971L993.48,1336.32972L993.84,1336.68972L994.56,1337.28972L995.76,1337.28972L997.32,1336.92972L999.12,1335.96971
				L1000.68,1334.1697L1000.8,1333.9297L1001.28,1333.08969L1002.84,1332.00968L1004.4,1331.76968L1005,1331.88968L1005.48,1331.88968
				L1005.6,1331.76968L1005.84,1331.76968L1008,1331.52968L1008.36,1331.52968L1008.72,1331.52968L1021.68,1323.60962L1030.08,1322.88962
				L1039.8,1321.32961L1040.16,1321.32961L1040.76,1321.20961L1040.88,1321.20961L1042.44,1320.9696L1044.12,1320.7296L1045.08,1320.6096
				L1046.76,1320.2496L1048.44,1320.0096L1049.04,1319.8896L1054.08,1319.28959L1054.44,1319.16959L1056.36,1318.92959L1058.52,1318.68959
				L1059.96,1318.44959L1060.2,1318.44959L1060.44,1318.44959L1060.92,1318.32958L1082.04,1314.24956L1082.64,1314.12955L1082.76,1314.12955
				L1082.76,1313.52955L1082.76,1312.20954L1082.76,1311.96954L1082.76,1311.12953L1082.64,1309.32952L1082.64,1308.96952L1082.64,1307.64951
				L1082.52,1306.9295L1082.52,1306.6895L1082.52,1306.2095L1082.52,1305.96949L1083.84,1306.5695L1085.16,1307.0495L1086,1307.40951
				L1088.52,1308.60951L1090.2,1309.32952L1090.68,1309.44952L1091.16,1309.68952L1091.52,1309.80952L1092.12,1310.16953L1092.84,1310.40953
				L1093.56,1310.76953L1094.16,1311.00953L1101.12,1314.00955L1101.24,1314.00955L1101.24,1314.12955L1107.72,1316.40957L1108.32,1316.64957
				L1114.68,1319.04959L1118.76,1320.7296L1125.6,1330.20967L1125.72,1330.32967L1125.96,1330.80968L1126.44,1331.88968L1126.92,1332.84969
				L1127.16,1333.32969L1134.84,1328.52966L1145.76,1321.20961L1155.6,1314.24956L1163.52,1310.40953L1164.48,1310.04952L1163.88,1305.72949
				L1163.76,1299.84945L1163.28,1294.68941L1163.04,1290.12938L1165.08,1290.60938L1167.96,1289.76938L1169.16,1289.52938L1171.44,1290.36938
				L1174.56,1291.80939L1176.6,1292.04939L1178.52,1292.4094L1180.68,1292.7694L1185.48,1294.44941L1187.28,1295.04942L1188.36,1294.44941
				L1195.08,1292.04939L1203.72,1290.36938L1211.76,1290.60938L1218.12,1290.00938L1224.12,1289.64938L1227.12,1289.88938L1230.72,1287.72936
				L1234.56,1286.28935L1239.96,1284.96934L1249.08,1249.92909L1229.64,1241.28902L1229.52,1241.16902L1193.76,1222.92889L1208.64,1210.6888
				L1246.44,1134.60825L1243.32,1129.92822L1239.48,1128.0082L1236.84,1123.44817L1231.68,1119.72814L1229.28,1115.04811L1229.28,1107.36805
				L1231.2,1098.00798L1234.8,1093.08795L1238.64,1090.92793L1242.24,1088.64791L1243.56,1081.44786L1243.32,1070.52778L1245.12,1062.24772
				L1244.16,1052.88765L1238.64,1044.60759L1233.24,1036.56754L1233.96,1032.36751L1236.6,1028.52748L1239.36,1021.92743L1206.36,993.96723
				L1172.76,971.76707L1208.4,964.32701L1235.88,948.3669L1272,911.88663L1274.64,859.20625L1275.96,823.44599L1279.2,775.92564
				L1280.52,740.16538L1283.88,692.64504L1287.84,648.36471L1285.32,643.68468L1281,639.48465L1280.64,633.36461L1283.88,626.76456
				L1288.68,618.4845L1290.36,609.36443L1291.08,602.16438L1289.88,593.52432L1288.8,586.32426L1292.52,582.96424L1297.08,580.20422
				L1302.48,579.24421L1310.52,583.44424L1319.76,586.56426L1328.28,586.56426L1335.84,586.56426L1341.72,591.7243L1350.72,604.5644
				L1357.56,613.92446L1364.88,612.60445L1380,608.52442L1391.76,604.9244L1394.4,597.00434L1395.84,590.04429L1401.24,587.04427
				L1405.92,585.36426L1413.36,589.32428L1414.44,580.56422L1426.56,568.20413L1444.8,565.80411L1475.64,561.84409L1500.48,558.48406
				L1508.28,566.64412L1516.68,573.84417L1525.8,578.1642L1562.04,541.08393L1648.92,526.32383L1657.68,514.68374L1664.52,512.64373
				L1664.76,512.52373L1664.88,512.40373L1680.96,507.48369L1693.08,517.56376L1693.32,517.80376L1693.56,517.92377L1694.28,518.52377
				L1715.88,530.16385L1729.2,519.12377L1755.72,522.0038L1755.96,522.0038L1756.44,522.1238L1763.28,522.8438L1763.52,522.8438
				L1763.76,522.8438L1765.92,523.0838L1787.64,529.92385L1817.04,536.4039L1830.96,537.96391L1839.48,538.32391L1848.6,535.68389
				L1865.76,529.92385L1867.08,529.44385L1894.8,522.0038L1894.92,521.88379L1896.96,520.44378L1897.92,519.84378L1898.4,519.60378
				L1898.52,519.48378L1899.6,518.88377L1904.28,516.12375L1904.64,515.88375L1905,515.64375L1906.92,514.92374L1907.04,514.92374
				L1911,513.36373L1918.56,511.08372L1938.6,500.28364L1954.32,517.32376L1954.44,517.44376L1954.56,517.56376L1955.4,518.52377
				L1957.56,520.44378L1960.08,522.6038L1963.32,525.48382L1966.08,527.88384L1968.24,529.80385L1970.88,532.20387L1973.4,534.36389
				L1975.44,536.1639L1975.44,537.60391z"/>
			<path clip-path="url(#SVG_CP_1)" fill="none" stroke="#000000" stroke-width="3.96" stroke-miterlimit="10" stroke-linecap="round" stroke-linejoin="round" d="
				M1975.44,537.60391L1975.56,540.24393L1975.56,543.00395L1975.68,545.88397L1975.8,548.52399L1975.92,551.40401L1976.04,553.80403
				L1976.04,554.76403L1977.12,557.04405L1978.2,559.08407L1979.52,561.60408L1981.2,564.84411L1982.28,567.24412L1983.84,570.24415
				L1985.4,573.24417L1986.84,576.24419L1988.28,579.12421L1989.84,582.12423L1991.28,585.12425L1992.72,587.88427L1993.2,588.72428
				L1995.12,589.44429L2032.44,597.24434L2064.48,604.08439L2067.72,613.92446L2071.08,623.76454L2079.24,647.76471L2079.72,649.32472
				L2079.96,649.80472L2079.96,649.92473L2099.04,706.08513L2102.52,717.48522L2102.64,717.72522L2102.64,717.84522L2102.64,717.96522
				L2103.12,719.52523L2103.24,719.88523L2103.84,721.56525L2104.08,722.40525L2104.44,723.48526L2104.44,723.60526L2104.68,724.20527
				L2106,728.4053L2106,728.6453L2106,728.7653L2122.2,780.72568L2127.36,791.16575L2132.28,797.7658L2132.88,801.72583L2133.24,803.88584
				L2130,816.36594L2128.56,840.00611L2129.52,844.44614L2130.96,851.40619L2132.52,858.24624L2133.72,864.36628L2135.28,871.08633
				L2135.76,873.72635L2136.12,875.40636L2138.64,878.16638L2143.92,879.48639L2167.56,885.48644L2168.76,885.72644L2183.64,889.32647
				L2211.96,906.72659L2229.12,929.52676L2240.52,953.76693L2241.12,954.00694L2241.84,954.36694L2241.96,955.44695L2242.08,956.16695
				L2242.8,957.48696L2242.8,957.96696L2242.8,958.68697L2242.56,959.40698L2249.04,980.52713L2255.88,1027.80747L2251.08,1063.92774
				L2238.48,1096.44797L2222.76,1126.56819L2192.04,1169.88851L2166.72,1199.76872L2203.92,1234.80898L2244.24,1266.60921L2258.16,1272.12925
				L2270.52,1273.56926L2280.48,1276.56928L2292.36,1285.08934L2300.4,1296.48943L2298.36,1310.88953L2310.84,1367.52994L2326.2,1407.25023
				L2338.8,1455.01058L2341.68,1474.45072L2349.6,1493.77086L2362.08,1501.21091L2369.88,1511.53099L2371.32,1514.65101L2378.4,1530.25113
				L2383.44,1551.61128L2386.44,1563.85137L2396.64,1584.49152L2404.32,1591.33157L2408.16,1600.57164L2409.12,1610.41171L2425.44,1634.53188
				L2440.32,1715.89248L2440.56,1717.33249L2429.04,1732.09259L2420.64,1737.13263L2399.04,1751.17273L2390.04,1759.33279L2375.64,1773.9729
				L2375.52,1774.0929L2375.04,1774.6929L2374.08,1776.37291L2371.68,1780.57295L2370.96,1781.89295L2370.24,1783.09296L2370,1783.45297
				L2349.36,1820.05323L2331.48,1854.25348L2327.04,1878.97366L2326.8,1902.37383L2327.4,1919.05395L2329.68,1935.13407L2329.2,1939.9341
				L2329.08,1940.17411L2328.72,1943.89413L2321.52,1955.53422L2314.32,1965.97429L2307.96,1976.29437L2304.48,1986.73444L2307.36,2031.13477
				L2309.64,2045.53487L2311.2,2062.695L2307.48,2074.21508L2300.64,2081.29513L2264.64,2093.65522L2281.2,2112.37536L2349.6,2096.77524
				L2349.6,2103.25529L2335.56,2138.53555L2325,2147.53561L2322.6,2150.05563L2373.48,2191.57593L2374.44,2196.61597L2375.28,2200.816
				L2376.84,2208.25605L2375.4,2215.81611L2375.76,2216.17611L2376,2216.53611L2412.48,2261.17644L2405.64,2290.69665L2409.48,2314.45683
				L2423.28,2328.97693L2441.76,2369.41723L2443.56,2374.21726L2447.52,2384.77734L2452.68,2400.25745L2451,2418.01758L2451,2418.13758
				L2450.52,2422.81761L2448.12,2452.09783L2452.44,2463.73791L2465.64,2487.13808L2474.16,2513.53827L2472.48,2519.77832L2468.28,2528.29838
				L2419.2,2575.45872L2400.24,2597.65889L2372.52,2589.61883L2356.56,2587.33881L2346.84,2587.33881L2325.48,2590.93884L2310.6,2591.29884
				L2295.72,2592.97885L2280.84,2599.9389L2265.72,2595.37887L2247.96,2592.13885L2234.76,2594.17886L2227.32,2598.73889L2216.52,2609.77897
				L2209.68,2615.05901L2201.16,2619.61905L2192.16,2620.69905L2181.72,2620.33905L2171.16,2619.73905L2163.12,2622.97907L2151.72,2626.8191
				L2139.84,2627.0591L2128.44,2631.61913L2097.24,2642.77921L2062.32,2644.93923L2035.56,2645.41923L2012.16,2646.49924L1997.28,2644.93923
				L1933.08,2672.05943L1928.04,2675.05945L1913.28,2681.05949L1906.56,2683.57951L1901.16,2685.97953L1895.4,2688.37954L1891.56,2690.17956
				L1887.84,2691.49957L1882.56,2693.53958L1880.16,2694.49959L1876.68,2695.8196L1871.64,2698.09962L1868.52,2699.29962L1864.68,2700.73963
				L1862.04,2701.69964L1859.52,2702.77965L1856.88,2703.73966L1855.08,2704.45966L1852.44,2705.53967L1850.88,2706.61968L1850.76,2706.61968
				L1850.4,2706.73968L1847.16,2708.17969L1840.08,2711.05971L1833.36,2714.05973L1830.36,2715.25974L1825.44,2717.05975L1819.92,2719.21977
				L1816.2,2720.65978L1812.36,2722.57979L1808.76,2724.37981L1804.92,2726.65982L1800,2729.53984L1794.48,2733.25987L1789.44,2736.7399
				L1785.36,2739.61992L1782.24,2741.65993L1777.8,2744.65995L1774.44,2746.69997L1770.6,2748.97999L1767.12,2751.14L1762.32,2754.26002
				L1758.84,2756.42004L1758.72,2756.54004L1755.96,2758.46005L1751.28,2761.58008L1747.8,2763.86009L1743.72,2766.86012L1740.84,2768.66013
				L1737.48,2771.06015L1734.36,2773.22016L1732.2,2774.78017L1730.4,2776.22018L1729.32,2774.78017L1722.12,2780.42021L1717.08,2775.14018
				L1716.84,2775.38018L1716.6,2775.50018L1713.36,2772.02015L1708.92,2767.10012L1708.2,2766.26011L1701.96,2771.42015L1698.24,2774.42017
				L1688.4,2782.82023L1673.52,2794.34032L1663.44,2802.50037L1644.48,2817.26048L1631.76,2826.98055L1626.6,2830.94058L1617.84,2838.86064
				L1572,2874.02089L1536.96,2921.54124L1522.44,2955.74149L1516.32,2951.90146L1473.24,2925.74127L1456.8,2916.0212L1455,2915.06119
				L1437.72,2904.86112L1426.32,2898.98108L1398.72,2883.74097L1261.68,2813.66046L1225.92,2792.3003L1174.8,2782.34023L1138.92,2786.42026
				L1026.24,2805.14039L972.12,2810.54043L925.56,2808.98042L874.8,2816.30047L843.96,2764.4601L776.04,2746.21997L760.08,2741.77993
				L726.72,2732.89987L708.72,2740.57992L658.92,2759.06006L630.6,2771.18015L607.68,2786.06026L588.6,2809.34042L540.84,2821.70051
				L485.52,2809.94043L457.92,2825.90054L442.08,2853.38074L381.96,2851.58073L347.52,2849.42072L343.44,2865.02083L331.68,2865.14083
				L323.52,2829.26057L286.2,2740.93993L280.32,2727.01983L279.36,2717.65976L274.8,2682.2595L273.48,2673.37944L248.28,2577.73874
				L221.28,2553.13856L191.76,2540.41847L162.84,2527.33837L159.12,2515.69829L148.44,2481.73804L156.24,2434.8177L159.48,2405.17749
				L170.04,2334.85697L170.28,2315.65684L170.28,2311.4568L170.88,2298.61671L171.12,2297.2967L171,2296.5767L171.24,2292.25667
				L171.36,2290.57665L171.84,2284.81661L172.2,2280.61658L173.16,2268.13649L174.12,2256.3764L174.84,2210.89607L179.52,2201.65601
				L181.56,2194.45595L186.6,2185.21589L186.84,2179.21584L187.32,2172.8558L184.8,2169.37577L183.24,2164.45574L182.4,2157.61569
				L182.16,2152.45565L180.96,2148.85562L181.2,2148.25562L181.2,2147.41561L181.44,2147.17561L181.56,2146.93561L181.44,2146.69561
				L181.8,2145.8556L181.92,2145.1356L181.92,2144.53559L182.16,2140.93557L182.28,2140.09556L182.64,2139.13555L182.4,2138.89555
				L182.64,2138.05554L182.52,2137.57554L182.64,2137.09554L183.12,2136.97554L183.24,2136.85554L183.84,2136.01553L183.96,2135.77553
				L183.84,2135.41552L183.48,2135.05552L183.72,2134.45552L184.2,2133.49551L184.08,2133.13551L183.72,2132.77551L183.72,2132.4155
				L183.36,2131.8155L183.48,2131.3355L183.72,2131.3355L183.84,2131.21549L184.32,2130.61549L184.44,2130.13549L185.04,2129.53548
				L185.4,2128.21547L185.76,2127.37547L185.64,2126.29546L187.08,2125.09545L188.52,2123.65544L188.76,2122.21543L189.6,2121.61542
				L189.72,2121.25542L190.32,2121.13542L190.68,2121.01542L190.92,2120.77542L190.8,2120.53542L191.04,2120.41542L191.4,2120.05541
				L191.52,2119.57541L191.76,2119.09541L191.64,2118.6154L191.4,2118.3754L191.88,2118.1354L192.12,2117.6554L192.12,2116.57539
				L191.04,2115.25538L190.32,2114.29537L189.96,2113.09536L189.72,2112.37536L189.84,2111.77535L190.2,2111.05535L189.96,2109.97534
				L189.36,2109.13533L188.76,2107.93533L188.04,2107.45532L187.2,2106.61532L185.64,2106.01531L184.32,2104.8153L183.96,2104.2153
				L183.6,2104.0953L182.76,2103.49529L181.68,2102.53529L181.32,2101.93528L180.96,2101.21528L180.6,2100.37527L180.72,2098.93526
				L180.6,2097.25525L180.96,2096.53524L180.96,2095.21523L180.96,2094.01522L180.72,2093.05522L180.72,2092.45521L180.6,2091.85521
				L180.6,2091.2552L180.84,2090.6552L180.96,2089.93519L181.44,2089.45519L181.92,2088.85519L181.8,2088.13518L182.16,2087.29518
				L182.04,2086.69517L182.4,2085.73516L182.88,2085.37516L183.24,2084.89516L183.24,2084.05515L182.76,2083.33515L182.4,2082.73514
				L181.92,2082.13514L181.32,2081.77513L181.08,2081.53513L180.72,2080.69513L180.12,2079.97512L179.76,2079.61512L178.44,2078.41511
				L177.6,2077.69511L177.12,2077.0951L176.4,2076.8551L175.56,2076.3751L174.84,2076.25509L174.36,2075.77509L174.12,2075.17509
				L174,2074.09508L174,2073.13507L174.36,2072.89507L174.48,2072.29507L174.84,2071.09506L174.96,2070.01505L174.84,2068.09504
				L174.84,2066.77503L174.48,2065.33502L173.64,2064.37501L173.4,2063.775L173.52,2062.09499L173.52,2061.13498L173.4,2060.05498
				L173.16,2059.81498L172.8,2057.89496L172.68,2057.53496L172.92,2056.93495L173.16,2055.61494L173.28,2054.77494L173.16,2054.29494
				L172.56,2053.21493L172.56,2053.09493L173.16,2052.37492L173.28,2051.77492L173.4,2051.17491L173.64,2050.81491L173.88,2050.33491
				L174.12,2049.8549L174,2049.1349L174.24,2048.8949L174.36,2048.65489L174.72,2048.41489L174.84,2048.05489L175.08,2047.93489
				L175.44,2047.81489L175.8,2047.33488L175.92,2046.61488L175.68,2046.13488L175.44,2045.77487L175.08,2045.53487L175.08,2045.29487
				L175.2,2044.93487L175.2,2043.97486L175.32,2043.25485L175.32,2042.77485L175.2,2042.17485L174.96,2041.69484L174.6,2041.45484
				L174.36,2041.21484L173.88,2040.97484L173.64,2040.61484L172.92,2040.13483L172.08,2039.53483L171.36,2039.05482L169.56,2037.01481
				L168.24,2035.8148L166.92,2034.61479L165.96,2033.89479L165.96,2033.53478L165.72,2033.17478L165.24,2032.57478L165.12,2032.09477
				L165.36,2031.73477L165.24,2031.25477L164.88,2030.89477L164.64,2030.65476L164.04,2030.65476L163.56,2030.41476L163.56,2029.69476
				L163.32,2029.45475L163.2,2028.61475L162.96,2028.49475L162.84,2028.25475L162.6,2027.89474L162.84,2027.41474L162.72,2027.17474
				L162.6,2026.57473L162.84,2026.33473L163.8,2025.85473L164.28,2025.61473L164.52,2025.25472L164.76,2024.53472L165.12,2023.69471
				L165,2022.97471L165.96,2021.05469L166.32,2020.21469L166.92,2019.49468L167.4,2018.77468L167.28,2017.45467L167.28,2016.73466
				L167.4,2016.01466L167.16,2014.45465L166.92,2013.61464L167.16,2013.25464L167.16,2012.65463L167.16,2011.81463L167.04,2011.09462
				L167.04,2010.61462L167.4,2010.13461L167.52,2009.65461L167.76,2009.29461L167.88,2008.6946L167.88,2008.0946L168,2007.6146L
				168,2007.25459L168.12,2006.29459L168.24,2006.05458L168.6,2004.13457L168.72,2002.45456L168.72,2001.13455L168.48,2000.17454
				L168.48,1999.21453L168.36,1998.25453L168.24,1997.89453L168.12,1997.41452L168.12,1997.05452L168.12,1996.81452L167.88,1996.57452
				L167.88,1995.85451L167.4,1995.85451L166.44,1995.85451L165.72,1996.21451L163.32,1998.37453L161.52,1999.21453L160.32,1999.33454
				L159,2000.29454L157.2,2001.37455L156.12,2000.65455L156.84,1997.89453L157.92,1993.9345L160.56,1982.77442L161.4,1977.25438
				L162.96,1957.21423L163.44,1955.77422L163.8,1953.3742L163.92,1950.01418L163.92,1949.89418L163.8,1949.77418L163.68,1949.05417
				L163.44,1948.57417L163.44,1948.45417L164.52,1945.33414L166.08,1941.97412L166.08,1941.85412L166.32,1941.37411L166.44,1941.13411
				L166.56,1940.29411L166.68,1939.9341L166.8,1939.6941L167.16,1938.8541L167.76,1937.41409L168.12,1936.69408L168.36,1935.25407
				L168.48,1934.77407L168.72,1933.57406L169.08,1932.37405L169.32,1930.93404L169.32,1930.81404L169.92,1928.53402L170.16,1927.09401
				L170.52,1925.654L170.64,1924.93399L170.76,1924.81399L170.76,1924.45399L170.88,1924.09399L170.88,1923.85399L171,1923.73399
				L171,1923.61399L172.68,1918.21395L174.48,1913.53391L174.48,1913.41391L176.52,1907.05386L176.4,1906.93386L176.4,1906.81386
				L176.76,1901.29382L177,1897.09379L172.8,1892.05376L169.32,1890.01374L169.56,1861.93354L167.88,1859.41352L166.2,1857.61351
				L166.08,1857.4935L165.84,1857.2535L165.6,1857.0135L164.64,1856.17349L164.4,1855.93349L164.04,1855.57349L163.68,1855.21349
				L163.32,1854.85349L162.96,1854.49348L162.6,1854.25348L162.6,1854.13348L162.36,1854.01348L162.48,1853.89348L162.6,1853.53348
				L162.36,1853.29347L162.24,1853.17347L161.76,1852.69347L161.52,1852.57347L161.4,1852.45347L161.04,1852.33347L160.56,1851.97346
				L160.08,1851.85346L159.84,1851.73346L159.6,1851.49346L159.24,1851.37346L159.12,1851.25346L158.64,1851.01346L158.28,1850.65345
				L157.92,1850.41345L157.44,1850.17345L157.08,1849.93345L156.96,1849.81345L156.72,1849.57345L156.6,1849.57345L156.12,1849.21344
				L155.76,1848.85344L155.28,1848.49344L154.8,1848.01344L154.2,1847.65343L153.72,1847.29343L153.24,1846.81343L152.76,1846.21342
				L151.68,1845.13341L151.68,1843.2134L151.68,1840.57338L151.68,1840.45338L151.56,1840.21338L151.32,1839.73338L150.12,1837.93336
				L152.04,1836.97336L153.36,1836.25335L154.8,1835.05334L155.28,1833.61333L155.4,1832.53332L154.44,1830.61331L153.48,1829.2933
				L151.8,1827.61329L150.72,1826.77328L150.6,1826.77328L150.6,1826.65328L150.48,1826.65328L149.04,1825.09327L147.12,1824.13326
				L144.24,1823.17325L140.16,1821.01324L128.28,1814.17319L118.2,1810.21316L117.84,1809.37315L117.84,1808.89315L117.84,1807.93314
				L117.84,1806.97314L117.96,1805.05312L117.96,1803.85311L117.96,1802.89311L118.08,1801.9331L118.2,1800.85309L118.56,1799.65308
				L118.68,1798.69308L118.92,1797.61307L119.04,1796.53306L119.16,1795.21305L119.28,1794.25304L119.28,1793.41304L119.28,1792.57303
				L119.16,1791.61303L119.04,1791.37302L119.16,1791.25302L119.16,1791.13302L119.28,1789.57301L119.88,1785.85298L120.24,1784.41297
				L120.96,1782.25296L121.32,1780.93295L121.44,1780.09294L122.76,1780.09294L126.24,1772.05288L128.16,1768.81286L130.92,1762.21281
				L131.4,1759.81279L131.76,1758.25278L133.08,1751.65273L135.12,1744.21268L135.36,1743.61268L135.6,1742.53267L137.28,1739.53265
				L138.6,1731.61259L138.6,1731.49259L138.6,1731.37259L141.72,1725.61255L146.04,1721.77252L146.16,1721.65252L146.28,1721.53252
				L150.96,1717.33249L156.24,1710.49244L163.32,1700.77237L168.84,1697.29234L172.8,1695.61233L175.2,1693.81231L176.16,1692.2523
				L178.92,1690.69229L185.16,1687.21227L189.96,1684.09224L198.12,1678.81221L198.24,1678.81221L198.36,1678.81221L210.6,1671.13215
				L222.24,1670.17214L232.44,1668.85213L241.44,1664.8921L247.2,1664.0521L255.12,1664.0521L265.2,1661.41208L296.28,1632.85187
				L303.72,1626.13182L303.84,1626.01182L304.56,1625.41182L304.68,1625.29182L307.56,1622.5318L306.96,1620.85178L306.84,1620.37178
				L306.72,1620.01178L306.6,1619.89178L306.96,1619.65178L309,1616.05175L309.36,1615.45174L309.96,1614.37174L313.2,1611.01171
				L313.68,1610.17171L314.52,1608.8517L314.64,1608.7317L314.64,1608.6117L315.96,1607.41169L317.04,1606.21168L317.04,1606.09168
				L317.76,1605.13167L318.84,1604.05166L319.2,1603.69166L319.32,1603.57166L319.44,1603.45166L319.8,1602.97165L320.64,1602.49165
				L321.36,1602.13165L322.32,1601.53164L323.16,1601.17164L323.76,1600.69164L324.24,1600.45164L325.92,1599.37163L326.16,1599.13163
				L326.28,1599.13163L326.4,1599.01163L328.92,1595.8916L328.56,1595.2916L328.08,1594.33159L327.84,1593.73159L327.6,1593.37158
				L327,1592.41158L327.12,1592.41158L327.12,1592.29158L327.84,1591.21157L332.04,1588.33155L336,1586.29153L341.28,1584.25152
				L346.32,1582.0915L358.2,1577.77147L358.32,1577.65147L358.44,1577.65147L358.56,1577.53147L365.52,1572.85144L368.28,1571.05142
				L374.76,1566.85139L376.44,1565.65138L382.8,1563.97137L388.08,1562.53136L388.08,1562.41136L388.2,1562.41136L389.28,1562.41136
				L389.4,1562.41136L390.36,1562.29136L390.6,1562.29136L393.96,1561.81135L397.92,1561.21135L398.16,1561.21135L398.28,1561.21135
				L398.28,1561.57135L398.4,1562.41136L398.52,1563.97137L398.64,1565.17138L398.76,1566.25139L399,1567.09139L399.24,1567.6914
				L399.36,1568.5314L399.72,1569.13141L399.96,1569.49141L399.96,1569.97141L400.56,1570.81142L400.92,1571.65143L401.04,1572.37143
				L400.92,1573.09144L401.04,1573.93144L401.16,1574.65145L401.28,1575.49145L401.28,1576.33146L401.52,1577.41147L401.88,1578.37148
				L402.24,1578.97148L403.08,1579.57148L403.68,1580.41149L404.28,1581.1315L405,1581.7315L405.6,1582.57151L405.84,1583.05151
				L406.08,1584.01152L406.44,1585.93153L406.68,1587.13154L406.92,1587.61154L407.4,1588.21155L407.4,1588.81155L407.04,1589.53156
				L407.28,1590.37156L407.64,1590.61156L408,1590.85157L408.24,1591.21157L408.36,1591.81157L408.36,1592.53158L408.24,1592.89158
				L407.76,1593.37158L407.52,1593.73159L407.16,1594.21159L407.04,1594.45159L407.04,1594.81159L406.92,1595.2916L407.04,1595.7716
				L407.4,1596.0116L407.88,1596.37161L408,1596.49161L408.12,1596.85161L408.12,1596.97161L407.88,1596.97161L407.64,1596.85161
				L407.4,1596.97161L407.04,1597.09161L406.68,1597.33161L406.44,1597.57161L406.56,1598.05162L406.92,1598.77162L407.04,1599.37163
				L407.04,1600.09163L406.92,1601.29164L406.56,1602.13165L406.56,1602.97165L406.56,1604.17166L406.32,1605.25167L406.32,1605.97168
				L406.44,1606.33168L406.56,1606.45168L406.44,1606.69168L406.2,1607.17168L405.6,1607.53169L404.52,1608.25169L403.68,1608.6117
				L404.64,1609.6917L405.84,1611.13171L408.84,1616.65175L410.28,1619.41177L411.96,1622.5318L412.68,1623.97181L412.68,1625.17182
				L413.4,1625.89182L413.52,1626.01182L414.24,1627.09183L414.36,1627.09183L414.96,1628.29184L415.32,1628.89184L415.68,1629.73185
				L416.4,1630.57185L416.76,1631.29186L416.88,1632.49187L417,1633.57188L417,1633.69188L417,1633.81188L417.12,1634.53188L417.84,1635.73189
				L418.56,1636.4519L418.8,1637.53191L418.56,1637.77191L418.56,1637.89191L419.04,1638.61191L419.52,1638.97192L419.64,1639.09192
				L419.88,1639.21192L420.6,1639.57192L420.6,1639.81192L420.72,1639.93192L420.84,1640.17192L421.08,1640.17192L421.2,1640.17192
				L421.44,1640.17192L421.8,1640.53193L423.48,1642.69194L424.56,1644.25195L425.4,1644.61196L426.24,1644.85196L426.48,1644.85196
				L426.48,1645.21196L426.48,1646.05197L426.36,1647.49198L426.36,1649.17199L426.36,1649.892L426.6,1651.69201L426.72,1652.53201
				L427.32,1654.45203L428.28,1657.21205L429,1658.29206L429.6,1659.25206L430.68,1660.45207L431.4,1661.17208L432.48,1662.61209
				L433.2,1663.45209L434.88,1664.4121L436.32,1665.37211L438.96,1666.81212L440.28,1667.53212L441.6,1668.13213L443.16,1669.09213
				L444.12,1669.57214L446.04,1670.77215L447.6,1671.61215L450.48,1672.93216L453.6,1674.25217L454.08,1674.13217L454.8,1673.53217
				L455.04,1673.41217L455.76,1672.93216L456.24,1672.33216L457.56,1672.57216L458.52,1672.33216L459.6,1671.85215L460.08,1671.01215
				L460.2,1668.97213L460.2,1666.69212L461.64,1664.4121L465.12,1666.21211L465.12,1666.33211L468.48,1668.01213L468.72,1667.89213
				L469.08,1667.77213L469.56,1667.89213L469.92,1668.13213L471.24,1668.73213L472.08,1669.21214L473.88,1669.93214L474.36,1669.93214
				L474.84,1669.69214L475.56,1668.97213L476.4,1667.77213L477.24,1666.45212L478.2,1665.25211L479.64,1663.21209L481.08,1661.05208
				L482.76,1659.01206L483,1658.65206L483.24,1658.41206L490.92,1664.1721L496.92,1668.73213L498.24,1669.81214L500.4,1671.61215
				L501.6,1673.05216L507.12,1680.25222L506.76,1678.81221L506.76,1678.6922L506.64,1677.7322L506.52,1677.25219L506.16,1675.57218
				"/>
			<path clip-path="url(#SVG_CP_1)" fill="none" stroke="#000000" stroke-width="3.96" stroke-miterlimit="10" stroke-linecap="round" stroke-linejoin="round" d="
				M506.16,1675.57218L506.04,1674.97218L506.04,1674.85218L506.04,1674.73218L505.68,1673.05216L505.44,1671.85215L505.08,1669.57214
				L504.96,1668.73213L504.84,1668.01213L504.84,1667.89213L504.48,1666.45212L504.36,1665.97211L503.88,1664.7721L503.64,1664.0521
				L503.64,1663.8121L503.04,1662.13208L502.68,1661.05208L502.44,1659.97207L501.84,1658.17206L501.48,1656.85205L501.36,1656.25204
				L501,1654.45203L501,1654.33203L501.12,1653.97202L501.36,1652.77202L501.36,1652.65202L501.48,1652.65202L501.48,1652.53201
				L501.48,1651.69201L501.48,1649.29199L501.48,1646.29197L501.72,1644.73196L502.44,1645.21196L502.92,1645.57196L503.52,1646.29197
				L504.12,1647.01197L504.96,1647.37198L505.68,1647.61198L506.28,1647.85198L507.12,1648.09198L507.84,1648.45198L508.68,1648.45198
				L509.88,1648.45198L510.72,1648.33198L511.8,1648.21198L513.12,1648.09198L513.48,1647.85198L514.08,1647.25198L514.56,1647.25198
				L515.88,1647.25198L518.04,1647.13198L519.96,1647.13198L520.8,1647.01197L521.88,1646.77197L522.96,1646.41197L524.16,1646.29197
				L525.36,1646.05197L528.36,1645.81197L530.16,1645.69196L531.6,1645.69196L532.8,1645.57196L534.24,1645.21196L534.96,1644.85196
				L536.04,1644.61196L536.88,1644.25195L537.72,1643.77195L538.68,1642.81194L538.8,1642.45194L539.76,1641.49193L540.72,1640.29193
				L541.44,1639.21192L541.8,1638.25191L542.28,1636.6919L542.52,1635.37189L542.52,1634.29188L542.76,1632.97187L543,1631.05186
				L543.24,1629.01184L543.36,1628.29184L543.36,1627.69183L543.6,1627.09183L543.96,1626.49183L543.96,1625.77182L543.96,1624.81181
				L544.08,1624.09181L544.56,1623.0118L544.8,1622.29179L545.4,1620.85178L545.64,1620.25178L546,1619.89178L546.48,1619.65178
				L546.84,1618.21176L547.56,1616.29175L548.28,1614.85174L549,1613.41173L549.24,1612.57172L549.72,1611.37172L549.96,1610.65171
				L550.2,1609.8117L550.56,1609.4517L550.68,1608.9717L551.52,1608.37169L552.24,1607.77169L552.96,1607.41169L553.92,1607.29169
				L555.12,1607.05168L556.44,1607.05168L557.76,1607.05168L558.36,1607.17168L559.2,1607.53169L560.04,1607.77169L560.4,1607.89169
				L560.88,1607.77169L561.36,1607.77169L562.44,1608.01169L563.16,1608.25169L563.64,1608.49169L564,1608.7317L564.36,1608.9717
				L564.84,1609.3317L565.08,1609.4517L565.8,1609.9317L566.04,1610.17171L566.64,1610.65171L567.36,1611.13171L567.6,1611.73172
				L567.84,1612.21172L567.72,1612.57172L567.72,1613.17173L567.72,1613.41173L567.72,1613.65173L567.72,1613.77173L567.84,1613.89173
				L567.84,1614.13174L567.96,1614.25174L568.2,1614.25174L568.56,1614.37174L568.92,1614.73174L569.04,1615.21174L569.16,1615.45174
				L569.16,1615.69175L569.04,1616.29175L569.16,1616.89176L569.4,1617.73176L569.4,1618.21176L569.52,1619.17177L569.64,1619.53177
				L569.76,1620.13178L569.76,1620.85178L570.12,1621.93179L570.48,1623.0118L570.6,1623.97181L570.72,1624.45181L570.6,1624.81181
				L570.6,1625.53182L570.6,1626.01182L570.24,1626.25182L569.88,1626.37182L569.76,1626.73183L569.64,1627.45183L569.76,1628.29184
				L569.76,1628.77184L569.52,1629.13184L569.4,1629.61185L569.4,1630.21185L569.4,1630.93186L569.52,1631.41186L569.76,1632.25187
				L570,1632.61187L570,1632.97187L570.24,1633.33187L570.48,1633.69188L570.84,1633.93188L571.2,1634.17188L571.44,1634.53188L
				571.8,1635.13189L572.04,1635.85189L572.4,1636.4519L572.64,1636.8119L572.76,1637.1719L573,1637.4119L573.24,1637.77191L573.36,1638.01191
				L573.72,1638.25191L573.96,1638.73191L574.44,1639.09192L575.04,1639.45192L575.4,1639.93192L575.64,1640.17192L575.76,1640.41193
				L576.12,1640.77193L576.48,1641.01193L576.84,1641.37193L577.08,1641.61194L577.08,1641.85194L577.56,1642.21194L577.92,1642.57194
				L578.16,1642.69194L578.52,1643.05195L578.76,1643.41195L578.88,1643.65195L579.36,1644.37196L579.72,1644.85196L580.08,1645.33196
				L580.56,1645.69196L580.92,1646.05197L581.52,1646.41197L582.24,1646.89197L582.72,1647.49198L582.96,1647.97198L583.8,1648.69199
				L583.8,1649.05199L584.04,1649.892L584.16,1650.732L584.16,1650.852L583.92,1651.33201L583.68,1651.81201L583.8,1652.29201L583.8,1652.65202
				L584.16,1653.01202L584.4,1653.61202L584.4,1653.97202L584.4,1655.05203L584.4,1656.61204L584.28,1657.33205L584.04,1657.93205
				L583.8,1658.41206L583.68,1658.89206L583.92,1659.49206L583.92,1660.21207L583.92,1660.93208L584.04,1661.41208L584.4,1661.89208
				L584.76,1662.37209L585.36,1662.73209L586.08,1663.21209L586.68,1663.33209L587.16,1663.6921L588.12,1664.0521L588.84,1664.5321
				L589.56,1665.13211L590.04,1665.61211L590.88,1666.33211L591.48,1666.93212L592.56,1667.77213L593.28,1668.37213L593.88,1668.85213
				L594.48,1669.33214L594.96,1669.57214L595.44,1669.81214L596.16,1669.81214L596.88,1669.93214L597.48,1670.41214L597.96,1670.89215
				L598.44,1671.61215L598.92,1672.45216L599.16,1673.05216L599.4,1673.53217L600,1674.25217L600.48,1674.73218L600.96,1675.45218
				L601.2,1676.29219L601.32,1677.01219L601.32,1677.8522L601.08,1678.4522L601.08,1679.17221L601.68,1680.25222L602.52,1681.09222
				L603.6,1681.93223L605.16,1683.49224L606.96,1684.45225L609,1685.05225L610.2,1685.89226L611.76,1687.09227L612.72,1688.41228
				L613.44,1689.13228L614.88,1689.85229L616.56,1690.69229L618.12,1691.05229L619.56,1692.0123L620.76,1692.85231L621.36,1693.33231
				L621.6,1693.21231L621.96,1693.33231L622.44,1693.45231L622.92,1694.17232L623.76,1695.01232L624.24,1695.61233L624.24,1696.21233
				L624.84,1696.69234L625.68,1697.41234L626.28,1697.53234L626.64,1697.89234L627.48,1698.13235L628.44,1698.13235L629.52,1695.61233
				L630.84,1692.85231L632.52,1688.17227L633.84,1685.41225L634.32,1684.45225L634.56,1684.33225L635.16,1684.09224L635.64,1684.09224
				L635.88,1684.21224L637.56,1685.29225L638.76,1685.89226L639.6,1686.37226L640.32,1686.85226L640.68,1687.45227L641.04,1687.81227
				L641.4,1688.05227L641.88,1688.29227L642.72,1688.41228L643.44,1688.65228L644.4,1688.65228L644.52,1688.65228L644.52,1688.53228
				L645.36,1687.57227L648.84,1680.97222L649.56,1678.93221L649.8,1676.53219L649.92,1673.05216L650.28,1670.77215L651.24,1668.61213
				L652.56,1665.37211L652.68,1665.37211L652.68,1665.25211L653.16,1664.1721L653.88,1662.49209L655.08,1660.33207L656.16,1658.17206
				L658.8,1654.21203L664.32,1651.57201L665.64,1651.212L667.08,1651.092L670.08,1650.732L671.28,1650.372L672.96,1649.892L676.8,1648.33198
				L680.52,1646.17197L683.04,1644.85196L684.6,1644.13195L684.12,1640.41193L684.96,1636.8119L686.52,1633.69188L686.88,1631.65186
				L686.88,1628.53184L687.12,1625.53182L688.08,1620.49178L688.32,1616.17175L688.44,1612.33172L688.8,1611.37172L691.2,1609.5717
				L692.64,1608.25169L693,1607.89169L693.72,1607.29169L694.08,1606.93168L694.08,1605.97168L693.84,1604.17166L693.72,1602.85165
				L693.48,1601.41164L693.36,1600.69164L693.12,1597.33161L693,1593.85159L693,1592.89158L692.28,1590.25156L692.28,1589.17155
				L692.04,1587.73154L691.92,1586.53153L691.92,1585.45153L692.16,1584.49152L692.76,1583.77151L692.64,1583.41151L692.52,1583.05151
				L692.52,1582.69151L693.24,1582.4515L693.36,1581.9715L693.36,1581.1315L693.84,1575.73146L693.96,1574.65145L694.2,1573.09144
				L694.08,1571.05142L693.72,1569.01141L693.6,1565.65138L693.48,1565.29138L693.48,1564.81138L693.72,1563.37137L694.68,1562.17136
				L695.4,1561.21135L695.64,1560.49135L695.76,1559.17134L696.24,1557.61132L696.24,1556.41132L696.12,1555.21131L695.88,1553.6513
				L695.52,1552.69129L694.56,1550.89128L693.48,1549.45126L691.68,1547.77125L689.28,1545.61124L688.56,1544.77123L687.36,1543.69122
				L686.64,1543.33122L686.04,1543.45122L685.44,1543.21122L684.96,1542.61122L684.96,1542.25121L685.32,1541.89121L684.96,1541.41121
				L684.12,1540.5712L683.4,1539.73119L683.04,1539.37119L681.84,1539.25119L681.6,1539.01119L681.24,1538.17118L680.76,1537.69118
				L680.28,1536.73117L680.28,1536.37117L680.04,1535.89117L679.68,1535.41116L679.8,1535.05116L679.8,1534.09115L679.32,1532.65114
				L678.72,1530.49113L677.88,1528.69111L677.52,1528.45111L673.2,1526.5311L672.84,1526.4111L666.48,1523.65108L665.52,1523.53108
				L664.32,1523.41108L664.08,1523.29107L663.96,1523.29107L663.84,1523.29107L663.72,1523.41108L663.6,1523.29107L661.32,1523.41108
				L657.72,1523.53108L655.8,1523.65108L650.4,1524.37108L650.4,1521.49106L650.28,1519.69105L650.4,1518.37104L650.28,1515.97102
				L650.4,1513.571L649.2,1506.37095L648.72,1505.89095L648,1505.17094L647.64,1504.57094L647.64,1504.09094L647.76,1503.85093L
				648.24,1503.49093L648.84,1502.77093L649.56,1502.17092L650.04,1501.69092L650.28,1501.21091L650.28,1500.85091L650.16,1499.6509
				L649.92,1497.85089L649.68,1495.93088L649.56,1494.25086L649.56,1493.53086L649.56,1493.05085L650.16,1492.69085L650.64,1492.33085
				L651.96,1491.73085L653.52,1491.01084L655.08,1490.53084L657.24,1489.57083L658.8,1488.85082L660.72,1488.13082L661.44,1487.89082
				L661.68,1487.65082L662.16,1487.41081L662.4,1487.29081L662.88,1487.05081L670.92,1483.09078L673.08,1482.01077L675.24,1480.81077
				L675.36,1480.81077L675.6,1480.69077L678.24,1480.69077L678.84,1480.81077L679.56,1480.21076L680.16,1479.61076L681,1479.13075
				L681.6,1478.53075L682.08,1478.17075L682.08,1477.45074L682.56,1476.37073L683.04,1475.65073L683.64,1475.17072L684.36,1475.05072
				L684.48,1474.81072L684.6,1474.57072L684.6,1474.21072L684.48,1473.97072L684.36,1473.61071L684.12,1473.13071L683.52,1472.53071
				L683.64,1472.0507L683.76,1471.5707L683.52,1470.37069L683.64,1469.65068L683.76,1468.81068L683.88,1467.73067L684.12,1467.01067
				L684.6,1466.53066L684.96,1466.05066L685.56,1465.69066L686.16,1465.09065L686.28,1464.25065L685.8,1463.53064L684.84,1462.57063
				L684.36,1461.85063L684,1460.65062L683.28,1459.09061L682.92,1457.7706L682.2,1456.81059L681.48,1455.61058L680.64,1454.41057
				L679.8,1452.49056L679.56,1451.17055L678.96,1450.21054L678.6,1449.73054L678.24,1448.29053L678.84,1447.21052L679.56,1446.25051
				L681.24,1444.0905L682.2,1443.25049L684.6,1439.89047L684.84,1438.69046L686.28,1436.89045L687.48,1434.13043L687.72,1433.05042
				L689.76,1430.1704L691.2,1428.25038L691.92,1427.29038L691.44,1426.45037L691.2,1425.49036L690.48,1425.01036L690,1424.17035
				L688.56,1416.4903L690,1416.1303L690.96,1415.89029L693.84,1416.01029L696.36,1416.01029L698.16,1415.53029L700.44,1413.73028
				L699.12,1412.89027L698.16,1412.05027L698.04,1411.69026L698.4,1410.85026L698.76,1410.37025L699.24,1410.01025L699.6,1409.65025
				L699.6,1409.41025L700.08,1409.05024L700.68,1408.45024L701.64,1408.09024L702.48,1407.61023L702.72,1407.37023L703.56,1406.89023
				L704.16,1406.05022L704.16,1405.93022L704.88,1404.37021L705.36,1403.5302L705.84,1402.8102L706.32,1401.85019L706.8,1401.37019
				L707.04,1400.89018L707.16,1400.77018L707.28,1399.93018L708.72,1397.65016L710.52,1395.01014L711.6,1394.29014L713.52,1392.97013
				L714.6,1391.89012L715.44,1391.29012L717.36,1390.09011L719.52,1388.41009L719.76,1388.05009L721.2,1387.21009L721.44,1386.73008
				L722.28,1386.01008L722.4,1385.89008L722.64,1385.77008L723.96,1384.69007L724.32,1384.45007L726.6,1382.77005L728.16,1381.69005
				L728.4,1381.57004L728.52,1381.45004L729,1381.09004L730.44,1380.13003L730.92,1380.01003L731.16,1379.89003L732.6,1377.97002
				L732.84,1377.49001L733.44,1377.01001L733.8,1376.77001L733.92,1376.53001L734.76,1376.05L737.28,1373.88999L738.72,1372.56998
				L740.04,1371.24997L741.6,1369.32996L742.92,1367.52994L743.52,1366.32993L743.52,1366.20993L743.52,1365.48993L743.04,1364.88992
				L742.56,1364.40992L742.68,1364.28992L743.76,1363.32991L743.88,1362.2499L743.88,1361.7699L744.24,1359.72989L744.12,1358.52988
				L747.96,1363.44991L749.76,1365.72993L750.48,1366.44993L750.6,1366.68994L750.84,1367.52994L750.96,1367.64994L750.96,1367.76994
				L751.44,1368.48995L751.56,1368.60995L751.8,1368.96995L752.4,1369.92996L753.12,1370.28996L753.72,1371.00997L753.96,1371.60997
				L754.2,1372.08998L754.56,1372.68998L761.52,1380.97004L761.64,1381.09004L762.12,1381.45004L762.72,1382.17005L762.72,1382.29005
				L763.8,1383.49006L766.92,1387.21009L769.08,1390.33011L769.68,1391.29012L778.44,1400.65018L778.56,1400.65018L778.56,1400.77018
				L791.64,1413.37028L807.12,1429.45039L807.12,1429.57039L807.36,1429.69039L809.4,1431.37041L815.52,1434.13043L820.44,1436.17044
				L823.56,1426.09037L824.64,1418.89032L824.76,1417.3303L827.88,1416.4903L833.4,1413.13027L848.76,1405.45022L851.04,1404.25021
				L855.6,1399.21017L859.2,1395.49015L862.92,1390.57011L865.08,1388.6501L870,1383.25006L873.6,1379.65003L873.6,1379.53003L874.2,1378.09002
				L875.16,1376.05L875.76,1374.85L877.2,1374.12999L879.96,1372.68998L881.28,1372.08998L882.6,1370.64997L883.32,1369.68996L886.08,1366.56994
				L886.2,1366.44993L886.32,1366.32993L896.4,1354.68985L901.32,1348.2098L902.64,1346.40979L904.2,1344.96978L905.52,1343.64977
				L905.76,1343.52977L912,1337.28972L916.92,1332.24969L922.32,1332.60969L936.12,1327.32965L945.6,1331.88968L970.44,1343.64977
				L970.56,1343.76977L971.04,1344.00977L971.28,1343.52977L971.52,1343.28977L971.88,1342.68976L972.24,1341.96976L972.6,1341.48975
				L973.08,1340.88975L974.52,1339.80974L975.24,1339.20974L976.68,1338.72973L978.48,1338.12973L980.16,1338.00973L981.84,1337.76973
				L983.76,1337.52972L985.44,1336.80972L986.28,1336.20971L987.12,1336.20971L988.08,1336.08971L990.36,1335.72971L991.8,1335.36971
				L993.24,1336.08971L993.48,1336.32972L993.84,1336.68972L994.56,1337.28972L995.76,1337.28972L997.32,1336.92972L999.12,1335.96971
				L1000.68,1334.1697L1000.8,1333.9297L1001.28,1333.08969L1002.84,1332.00968L1004.4,1331.76968L1005,1331.88968L1005.48,1331.88968
				L1005.6,1331.76968L1005.84,1331.76968L1008,1331.52968L1008.36,1331.52968L1008.72,1331.52968L1021.68,1323.60962L1030.08,1322.88962
				L1039.8,1321.32961L1040.16,1321.32961L1040.76,1321.20961L1040.88,1321.20961L1042.44,1320.9696L1044.12,1320.7296L1045.08,1320.6096
				L1046.76,1320.2496L1048.44,1320.0096L1049.04,1319.8896L1054.08,1319.28959L1054.44,1319.16959L1056.36,1318.92959L1058.52,1318.68959
				L1059.96,1318.44959L1060.2,1318.44959L1060.44,1318.44959L1060.92,1318.32958L1082.04,1314.24956L1082.64,1314.12955L1082.76,1314.12955
				L1082.76,1313.52955L1082.76,1312.20954L1082.76,1311.96954L1082.76,1311.12953L1082.64,1309.32952L1082.64,1308.96952L1082.64,1307.64951
				L1082.52,1306.9295L1082.52,1306.6895L1082.52,1306.2095L1082.52,1305.96949L1083.84,1306.5695L1085.16,1307.0495L1086,1307.40951
				L1088.52,1308.60951L1090.2,1309.32952L1090.68,1309.44952L1091.16,1309.68952L1091.52,1309.80952L1092.12,1310.16953L1092.84,1310.40953
				L1093.56,1310.76953L1094.16,1311.00953L1101.12,1314.00955L1101.24,1314.00955L1101.24,1314.12955L1107.72,1316.40957L1108.32,1316.64957
				L1114.68,1319.04959L1118.76,1320.7296L1125.6,1330.20967L1125.72,1330.32967L1125.96,1330.80968L1126.44,1331.88968L1126.92,1332.84969
				L1127.16,1333.32969L1134.84,1328.52966L1145.76,1321.20961L1155.6,1314.24956L1163.52,1310.40953L1164.48,1310.04952L1163.88,1305.72949
				L1163.76,1299.84945L1163.28,1294.68941L1163.04,1290.12938L1165.08,1290.60938L1167.96,1289.76938L1169.16,1289.52938L1171.44,1290.36938
				L1174.56,1291.80939L1176.6,1292.04939L1178.52,1292.4094L1180.68,1292.7694L1185.48,1294.44941L1187.28,1295.04942L1188.36,1294.44941
				L1195.08,1292.04939L1203.72,1290.36938L1211.76,1290.60938L1218.12,1290.00938L1224.12,1289.64938L1227.12,1289.88938L1230.72,1287.72936
				L1234.56,1286.28935L1239.96,1284.96934L1249.08,1249.92909L1229.64,1241.28902L1229.52,1241.16902L1193.76,1222.92889L1208.64,1210.6888
				L1246.44,1134.60825L1243.32,1129.92822L1239.48,1128.0082L1236.84,1123.44817L1231.68,1119.72814L1229.28,1115.04811L1229.28,1107.36805
				L1231.2,1098.00798L1234.8,1093.08795L1238.64,1090.92793L1242.24,1088.64791L1243.56,1081.44786L1243.32,1070.52778L1245.12,1062.24772
				L1244.16,1052.88765L1238.64,1044.60759L1233.24,1036.56754L1233.96,1032.36751L1236.6,1028.52748L1239.36,1021.92743L1206.36,993.96723
				L1172.76,971.76707L1208.4,964.32701L1235.88,948.3669L1272,911.88663L1274.64,859.20625L1275.96,823.44599L1279.2,775.92564
				L1280.52,740.16538L1283.88,692.64504L1287.84,648.36471L1285.32,643.68468L1281,639.48465L1280.64,633.36461L1283.88,626.76456
				L1288.68,618.4845L1290.36,609.36443L1291.08,602.16438L1289.88,593.52432L1288.8,586.32426L1292.52,582.96424L1297.08,580.20422
				L1302.48,579.24421L1310.52,583.44424L1319.76,586.56426L1328.28,586.56426L1335.84,586.56426L1341.72,591.7243L1350.72,604.5644
				L1357.56,613.92446L1364.88,612.60445L1380,608.52442L1391.76,604.9244L1394.4,597.00434L1395.84,590.04429L1401.24,587.04427
				L1405.92,585.36426L1413.36,589.32428L1414.44,580.56422L1426.56,568.20413L1444.8,565.80411L1475.64,561.84409L1500.48,558.48406
				L1508.28,566.64412L1516.68,573.84417L1525.8,578.1642L1562.04,541.08393L1648.92,526.32383L1657.68,514.68374L1664.52,512.64373
				L1664.76,512.52373L1664.88,512.40373L1680.96,507.48369L1693.08,517.56376L1693.32,517.80376L1693.56,517.92377L1694.28,518.52377
				L1715.88,530.16385L1729.2,519.12377L1755.72,522.0038L1755.96,522.0038L1756.44,522.1238L1763.28,522.8438L1763.52,522.8438
				L1763.76,522.8438L1765.92,523.0838L1787.64,529.92385L1817.04,536.4039L1830.96,537.96391L1839.48,538.32391L1848.6,535.68389
				L1865.76,529.92385L1867.08,529.44385L1894.8,522.0038L1894.92,521.88379L1896.96,520.44378L1897.92,519.84378L1898.4,519.60378
				L1898.52,519.48378L1899.6,518.88377L1904.28,516.12375L1904.64,515.88375L1905,515.64375L1906.92,514.92374L1907.04,514.92374
				L1911,513.36373L1918.56,511.08372L1938.6,500.28364L1954.32,517.32376L1954.44,517.44376L1954.56,517.56376L1955.4,518.52377
				L1957.56,520.44378L1960.08,522.6038L1963.32,525.48382L1966.08,527.88384L1968.24,529.80385L1970.88,532.20387L1973.4,534.36389
				L1975.44,536.1639L1975.44,537.60391"/>
		</g>
		<g id="sattlements">
			<path clip-path="url(#SVG_CP_1)" fill="#FF0000" fill-rule="evenodd" stroke="#000000" stroke-width="0.96" stroke-miterlimit="10" stroke-linecap="round" stroke-linejoin="round" d="
				M966.24,1601.77165C966.24,1596.27085,961.75389,1591.81157,956.22,1591.81157C950.68611,1591.81157,946.2,1596.27085,946.2,1601.77165
				C946.2,1607.27244,950.68611,1611.73172,956.22,1611.73172C961.75389,1611.73172,966.24,1607.27244,966.24,1601.77165z"/>
			<path clip-path="url(#SVG_CP_1)" fill="#FF0000" fill-rule="evenodd" stroke="#000000" stroke-width="0.96" stroke-miterlimit="10" stroke-linecap="round" stroke-linejoin="round" d="
				M1558.32,1576.87146C1558.32,1571.33753,1553.83389,1566.85139,1548.3,1566.85139C1542.76611,1566.85139,1538.28,1571.33753,
				1538.28,1576.87146C1538.28,1582.4054,1542.76611,1586.89154,1548.3,1586.89154C1553.83389,1586.89154,1558.32,1582.4054,1558.32,1576.87146
				z"/>
			<path clip-path="url(#SVG_CP_1)" fill="#FF0000" fill-rule="evenodd" stroke="#000000" stroke-width="0.96" stroke-miterlimit="10" stroke-linecap="round" stroke-linejoin="round" d="
				M1759.92,1307.1695C1759.92,1301.66871,1755.43389,1297.20943,1749.9,1297.20943C1744.36611,1297.20943,1739.88,1301.66871,1739.88,1307.1695
				C1739.88,1312.6703,1744.36611,1317.12958,1749.9,1317.12958C1755.43389,1317.12958,1759.92,1312.6703,1759.92,1307.1695z"/>
			<path clip-path="url(#SVG_CP_1)" fill="#FF0000" fill-rule="evenodd" stroke="#000000" stroke-width="0.96" stroke-miterlimit="10" stroke-linecap="round" stroke-linejoin="round" d="
				M663.6,1721.71252C663.6,1716.17858,659.14076,1711.69244,653.64,1711.69244C648.13924,1711.69244,643.68,1716.17858,643.68,1721.71252
				C643.68,1727.24645,648.13924,1731.73259,653.64,1731.73259C659.14076,1731.73259,663.6,1727.24645,663.6,1721.71252z"/>
		
			<path clip-path="url(#SVG_CP_1)" fill="#FF0000" fill-rule="evenodd" stroke="#000000" stroke-width="0.96" stroke-miterlimit="10" stroke-linecap="round" stroke-linejoin="round" d="
				M1304.28,2339.35701C1304.28,2333.82307,1299.79389,2329.33693,1294.26,2329.33693C1288.72611,2329.33693,1284.24,2333.82307
				,1284.24,2339.35701C1284.24,2344.89094,1288.72611,2349.37708,1294.26,2349.37708C1299.79389,2349.37708,1304.28,2344.89094
				,1304.28,2339.35701z"/>
			<path clip-path="url(#SVG_CP_1)" fill="#FF0000" fill-rule="evenodd" stroke="#000000" stroke-width="0.96" stroke-miterlimit="10" stroke-linecap="round" stroke-linejoin="round" d="
				M1103.16,1900.09381C1103.16,1894.59302,1098.67389,1890.13374,1093.14,1890.13374C1087.60611,1890.13374,1083.12,1894.59302
				,1083.12,1900.09381C1083.12,1905.59461,1087.60611,1910.05389,1093.14,1910.05389C1098.67389,1910.05389,1103.16,1905.59461
				,1103.16,1900.09381z"/>
		</g>
		<g id="sattlements1">
			<path clip-path="url(#SVG_CP_1)" fill="#FF0000" fill-rule="evenodd" stroke="#000000" stroke-width="0.96" stroke-miterlimit="10" stroke-linecap="round" stroke-linejoin="round" d="
				M1821.84,793.50577C1821.84,787.97184,1817.38076,783.4857,1811.88,783.4857C1806.37924,783.4857,1801.92,787.97184,1801.92,793.50577
				C1801.92,799.0397,1806.37924,803.52584,1811.88,803.52584C1817.38076,803.52584,1821.84,799.0397,1821.84,793.50577z"/>
			<path clip-path="url(#SVG_CP_1)" fill="#FF0000" fill-rule="evenodd" stroke="#000000" stroke-width="0.96" stroke-miterlimit="10" stroke-linecap="round" stroke-linejoin="round" d="
				M384.72,1879.93367C384.72,1874.43287,380.26076,1869.9736,374.76,1869.9736C369.25924,1869.9736,364.8,1874.43287,364.8,1879.93367
				C364.8,1885.43446,369.25924,1889.89374,374.76,1889.89374C380.26076,1889.89374,384.72,1885.43446,384.72,1879.93367z"/>
			<path clip-path="url(#SVG_CP_1)" fill="#FF0000" fill-rule="evenodd" stroke="#000000" stroke-width="0.96" stroke-miterlimit="10" stroke-linecap="round" stroke-linejoin="round" d="
				M294.48,1837.63336C294.48,1832.09943,289.99389,1827.61329,284.46,1827.61329C278.92611,1827.61329,274.44,1832.09943,274.44,1837.63336
				C274.44,1843.16729,278.92611,1847.65343,284.46,1847.65343C289.99389,1847.65343,294.48,1843.16729,294.48,1837.63336z"/>
			<path clip-path="url(#SVG_CP_1)" fill="#FF0000" fill-rule="evenodd" stroke="#000000" stroke-width="0.96" stroke-miterlimit="10" stroke-linecap="round" stroke-linejoin="round" d="
				M870,2149.51563C870,2143.98169,865.51389,2139.49555,859.98,2139.49555C854.44611,2139.49555,849.96,2143.98169,849.96,2149.51563
				C849.96,2155.04956,854.44611,2159.5357,859.98,2159.5357C865.51389,2159.5357,870,2155.04956,870,2149.51563z"/>
			<path clip-path="url(#SVG_CP_1)" fill="#FF0000" fill-rule="evenodd" stroke="#000000" stroke-width="0.96" stroke-miterlimit="10" stroke-linecap="round" stroke-linejoin="round" d="
				M609.12,2164.99574C609.12,2159.46181,604.63389,2154.97567,599.1,2154.97567C593.56611,2154.97567,589.08,2159.46181,589.08,2164.99574
				C589.08,2170.52967,593.56611,2175.01581,599.1,2175.01581C604.63389,2175.01581,609.12,2170.52967,609.12,2164.99574z"/>
		</g>
		<g id="sattlements_Anno_6">
			<g font-family="'Sylfaen'" font-size="1" kerning="0" font-weight="700" fill="#000000" clip-path="url(#SVG_CP_1)" >
				<text text-anchor="start" transform="matrix(49.92 0 0 49.92036 956.28 1579.81149)" >
					<tspan direction="ltr" unicode-bidi="embed" x="0 ">Eshtia</tspan>
					
				</text>
			</g>
			<g font-family="'Sylfaen'" font-size="1" kerning="0" font-weight="700" fill="#000000" clip-path="url(#SVG_CP_1)" >
				<text text-anchor="start" transform="matrix(49.92 0 0 49.92036 1548.36 1554.8513)" >
					<tspan direction="ltr" unicode-bidi="embed" x="0 ">Gandza</tspan>
					
				</text>
			</g>
			<g font-family="'Sylfaen'" font-size="1" kerning="0" font-weight="700" fill="#000000" clip-path="url(#SVG_CP_1)" >
				<text text-anchor="start" transform="matrix(49.92 0 0 49.92036 1750.08 1285.32934)" >
					<tspan direction="ltr" unicode-bidi="embed" x="0 ">Poka</tspan>
					
				</text>
			</g>
			<g font-family="'Sylfaen'" font-size="1" kerning="0" font-weight="700" fill="#000000" clip-path="url(#SVG_CP_1)" >
				<text text-anchor="start" transform="matrix(49.92 0 0 49.92036 653.76 1699.81236)" >
					<tspan direction="ltr" unicode-bidi="embed" x="0 ">Jigrasheni</tspan>
				
				</text>
			</g>
			<g font-family="'Sylfaen'" font-size="1" kerning="0" font-weight="700" fill="#000000" clip-path="url(#SVG_CP_1)" >
				<text text-anchor="start" transform="matrix(70.92 0 0 70.92036 847.8 2010.73462)" >
					<tspan direction="ltr" unicode-bidi="embed" x="0 ">Ninotsminda</tspan>
					
				</text>
			</g>
			<g font-family="'Sylfaen'" font-size="1" kerning="0" font-weight="700" fill="#000000" clip-path="url(#SVG_CP_1)" >
				<text text-anchor="start" transform="matrix(49.92 0 0 49.92036 1294.32 2317.33685)" >
					<tspan direction="ltr" unicode-bidi="embed" x="0 ">Gorelovka</tspan>
					
				</text>
			</g>
			<g font-family="'Sylfaen'" font-size="1" kerning="0" font-weight="700" fill="#000000" clip-path="url(#SVG_CP_1)" >
				<text text-anchor="start" transform="matrix(49.92 0 0 49.92036 1093.2 1888.81373)" >
					<tspan direction="ltr" unicode-bidi="embed" x="0 ">Satkhe</tspan>
					
				</text>
			</g>
		</g>
		<g id="sattlements_Anno_7">
			<g font-family="'Sylfaen'" font-size="1" kerning="0" font-weight="700" fill="#000000" clip-path="url(#SVG_CP_1)" >
				<text text-anchor="start" transform="matrix(49.92 0 0 49.92036 1813.56 764.76556)" >
					<tspan direction="ltr" unicode-bidi="embed" x="0 ">Tambovka</tspan>
				
				</text>
			</g>
			<g font-family="'Sylfaen'" font-size="1" kerning="0" font-weight="700" fill="#000000" clip-path="url(#SVG_CP_1)" >
				<text text-anchor="start" transform="matrix(49.92 0 0 49.92036 379.2 1869.37359)" >
					<tspan direction="ltr" unicode-bidi="embed" x="0 ">Didi Gondrio</tspan>
					
				</text>
			</g>
			<g font-family="'Sylfaen'" font-size="1" kerning="0" font-weight="700" fill="#000000" clip-path="url(#SVG_CP_1)" >
				<text text-anchor="start" transform="matrix(49.92 0 0 49.92036 206.76 1736.89263)" >
					<tspan direction="ltr" unicode-bidi="embed" x="0 ">Patara</tspan>
					
				</text>
			</g>
			<g font-family="'Sylfaen'" font-size="1" kerning="0" font-weight="700" fill="#000000" clip-path="url(#SVG_CP_1)" >
				<text text-anchor="start" transform="matrix(49.92 0 0 49.92036 174.06 1808.53315)" >
					<tspan direction="ltr" unicode-bidi="embed" x="0 ">Gondrio</tspan>
					
				</text>
			</g>
			<g font-family="'Sylfaen'" font-size="1" kerning="0" font-weight="700" fill="#000000" clip-path="url(#SVG_CP_1)" >
				<text text-anchor="start" transform="matrix(49.92 0 0 49.92036 860.04 2123.65544)" >
					<tspan direction="ltr" unicode-bidi="embed" x="0 ">Didi Khanchali</tspan>
					
				</text>
			</g>
			<g font-family="'Sylfaen'" font-size="1" kerning="0" font-weight="700" fill="#000000" clip-path="url(#SVG_CP_1)" >
				<text text-anchor="start" transform="matrix(49.92 0 0 49.92036 599.28 2082.01514)" >
					<tspan direction="ltr" unicode-bidi="embed" x="0 ">Patara</tspan>
					
				</text>
			</g>
			<g font-family="'Sylfaen'" font-size="1" kerning="0" font-weight="700" fill="#000000" clip-path="url(#SVG_CP_1)" >
				<text text-anchor="start" transform="matrix(49.92 0 0 49.92036 599.28 2153.65566)" >
					<tspan direction="ltr" unicode-bidi="embed" x="0 ">Khanchali</tspan>
					
				</text>
			</g>
		</g>
	</g>
</svg>
