<?xml version="1.0" encoding="utf-8" standalone="no"?>
<!-- Creator: Esri ArcMap 10.9.1.28388 -->
<!DOCTYPE svg PUBLIC "-//W3C//DTD SVG 1.1//EN"  "http://www.w3.org/Graphics/SVG/1.1/DTD/svg11.dtd">
<svg width="3456pt" height="2592pt" viewBox="0 0 3456 2592" enable-background="new 0 0 3456 2592"
	version="1.1" xmlns="http://www.w3.org/2000/svg" xmlns:xlink="http://www.w3.org/1999/xlink" >
	<g id="Layers">
		<g id="municipal">
			<path clip-path="url(#SVG_CP_1)" fill="#9e6e9c" fill-rule="evenodd" stroke="none" d="M1826.62942,247.80037L1853.98927,279.96042
				L1870.78917,296.28044L1882.0691,302.04045L1889.14906,307.32046L1899.829,315.48047L1905.82897,323.04048L1920.58888,334.4405
				L1922.50887,334.4405L1924.90886,333.0005L1929.82883,333.1205L1934.5088,333.0005L1938.70878,333.0005L1942.66875,333.0005L
				1947.58872,330.72049L1950.9487,330.12049L1959.46866,329.40049L1975.06857,321.48048L1985.02851,317.16047L1996.90844,311.88047
				L2003.6284,310.32046L2005.78839,309.84046L2010.70836,309.36046L2022.22829,308.64046L2027.50826,308.64046L2045.74816,310.20046
				L2068.42802,312.96047L2099.86784,312.48047L2106.8278,314.64047L2121.34772,318.96048L2122.66771,319.44048L2130.10767,320.88048
				L2131.78766,321.24048L2134.06764,321.72048L2136.10763,322.20048L2141.1476,323.16048L2153.86753,326.76049L2171.14743,327.36049
				L2184.70735,327.48049L2206.42723,332.4005L2217.94716,331.32049L2249.02698,324.72048L2287.54676,321.24048L2308.06664,316.80047
				L2347.78641,308.88046L2358.22635,305.28046L2369.14628,297.96044L2379.46622,289.80043L2390.98616,274.68041L2397.94612,264.00039
				L2403.22609,258.84039L2407.42606,258.12039L2416.06601,261.24039L2424.58596,265.2004L2440.42587,272.88041L2444.98584,276.96041
				L2445.10584,277.56041L2446.18584,279.96042L2448.22583,286.92043L2450.86581,290.52043L2455.54578,296.04044L2460.34576,301.08045
				L2465.02573,308.76046L2465.38573,315.12047L2466.22572,317.52047L2470.3057,326.28049L2474.74567,331.8005L2482.90563,335.2805
				L2487.2256,338.2805L2495.50555,346.20052L2507.26548,348.72052L2522.2654,350.64052L2536.42532,349.32052L2544.46527,347.28052
				L2550.46523,348.48052L2558.86519,349.80052L2563.66516,349.44052L2571.82511,348.84052L2573.9851,349.32052L2575.18509,351.12052
				L2576.50508,353.76053L2576.98508,358.20053L2577.22508,360.72054L2577.70508,366.72055L2580.34506,373.32056L2588.14502,382.92057
				L2598.22496,393.84059L2618.74484,408.36061L2629.78477,415.08062L2634.34475,421.44063L2647.54467,437.16065L2652.22464,439.56066
				L2669.50454,442.80066L2695.90439,444.36066L2703.22435,445.68067L2704.30434,447.24067L2711.5043,458.88068L2718.94426,468.4807
				L2726.38422,478.56071L2733.46417,483.48072L2740.30413,490.20073L2745.4641,504.12075L2750.86407,511.56076L2755.30405,517.56077
				L2755.42405,517.80077L2765.26399,535.2008L2767.18398,537.7208L2772.82395,544.20081L2771.74395,550.08082L2764.184,562.92084
				L2756.50404,572.16085L2751.94407,579.48086L2739.58414,592.08088L2738.50415,593.28089L2736.46416,595.56089L2735.86416,604.9209
				L2736.22416,615.12092L2738.38415,622.08093L2738.26415,624.00093L2736.22416,633.24094L2736.94415,643.32096L2740.30413,653.76098
				L2741.38413,657.24098L2742.58412,666.36099L2743.06412,676.32101L2744.02411,685.08102L2746.1841,699.84104L2747.50409,714.12107
				L2747.86409,719.16107L2748.70409,722.64108L2751.10407,723.48108L2752.90406,724.20108L2757.22404,727.20108L2762.50401,735.3611
				L2765.50399,740.0411L2769.94396,746.40111L2774.50394,754.08113L2777.50392,760.20113L2779.54391,766.92114L2787.10386,777.72116
				L2791.30384,785.52117L2792.98383,791.28118L2793.34383,799.56119L2795.26382,805.4412L2798.8638,816.36122L2797.6638,827.76123
				L2793.70383,837.00125L2790.46384,841.68126L2787.46386,845.76126L2787.10386,852.00127L2790.10385,860.64128L2794.78382,874.6813
				L2797.6638,878.40131L2802.70377,879.96131L2808.34374,885.00132L2811.10372,888.72133L2812.30372,890.40133L2815.4237,899.04134
				L2819.86367,905.04135L2821.90366,912.12136L2825.50364,926.52138L2830.78361,932.52139L2833.3036,936.4814L2834.86359,940.4414
				L2831.9836,949.80142L2829.58362,958.92143L2829.10362,966.60144L2830.78361,972.24145L2833.54359,980.16146L2837.50357,997.08149
				L2841.10355,1009.44151L2843.98353,1026.72153L2847.82351,1032.36154L2854.54347,1032.48154L2859.34345,1032.36154L2869.66339,1032.60154
				L2875.06335,1035.48154L2877.22334,1037.40155L2880.34332,1039.80155L2882.26331,1041.36155L2888.74328,1044.48156L2893.06325,1047.60156
				L2899.90321,1052.88157L2902.78319,1058.16158L2904.70318,1067.28159L2904.82318,1067.52159L2907.70317,1073.5216L2910.10315,1076.40161
				L2915.02312,1079.40161L2915.50312,1079.64161L2922.34308,1083.24162L2926.90305,1086.96162L2936.023,1096.92164L2943.22296,1106.40165
				L2947.90293,1113.36166L2950.78292,1120.44167L2951.62291,1124.04168L2952.70291,1129.08168L2955.82289,1136.5217L2958.94287,1141.9217
				L2968.78281,1152.72172L2974.66278,1159.56173L2974.66278,1161.48173L2975.02278,1167.48174L2979.70275,1174.44175L2985.46272,1179.72176
				L2998.30264,1193.28178L3008.98258,1204.5618L3016.30254,1210.20181L3023.3825,1212.48181L3029.26246,1213.08181L3034.42243,1212.12181
				L3043.06238,1209.3618L3052.54233,1206.8418L3060.46228,1206.2418L3067.18224,1206.3618L3077.62218,1206.0018L3086.50213,1205.2818
				L3109.90199,1202.64179L3124.66191,1202.64179L3132.70186,1203.4818L3134.26185,1204.2018L3139.78182,1206.8418L3144.46179,1206.3618
				L3148.30177,1204.3218L3151.66175,1200.72179L3157.30172,1194.60178L3158.02172,1193.88178L3168.94165,1187.28177L3175.30162,1187.28177
				L3180.34159,1187.76177L3180.46159,1187.76177L3187.30155,1188.84177L3196.1815,1194.36178L3202.90146,1200.96179L3205.30144,1204.3218
				L3206.62143,1208.4018L3216.22138,1222.44182L3220.06136,1228.80183L3228.82131,1234.20184L3236.62126,1242.24185L3237.46126,1243.08185
				L3242.14123,1249.32186L3242.74123,1251.72187L3244.78121,1260.84188L3246.9412,1268.04189L3253.06117,1271.8819L3256.78114,1279.08191
				L3257.50114,1289.88192L3266.62109,1311.00196L3271.18106,1318.56197L3274.66104,1322.88197L3285.58098,1331.04199L3291.82094,1339.082
				L3295.54092,1346.28201L3296.86091,1361.16203L3298.9009,1369.68204L3287.38097,1372.92205L3273.46105,1376.88205L3259.78113,1381.68206
				L3252.10117,1388.40207L3247.9012,1392.48208L3242.62123,1399.20209L3236.98126,1408.9221L3232.06129,1417.08211L3217.30137,1434.12214
				L3208.06143,1438.92215L3204.70145,1440.48215L3200.38147,1444.80216L3195.5815,1450.32216L3194.26151,1454.64217L3190.54153,1460.64218
				L3180.10159,1470.60219L3168.82165,1478.76221L3168.46166,1486.20222L3169.78165,1491.12222L3168.58166,1499.76224L3160.5417,1512.72226
				L3155.50173,1521.60227L3149.02177,1524.48227L3147.34178,1531.20228L3141.22181,1545.60231L3137.02184,1552.68232L3135.10185,1556.16232
				L3131.26187,1560.96233L3127.42189,1567.80234L3124.06191,1580.04236L3117.82195,1591.32237L3113.74197,1597.44238L3112.30198,1605.36239
				L3105.94202,1611.0024L3101.14205,1612.80241L3090.22211,1616.76241L3087.82212,1618.56241L3081.94216,1628.04243L3076.78219,1633.32244
				L3067.90224,1641.36245L3060.94228,1643.04245L3051.46233,1643.04245L3040.5424,1645.80245L3031.06245,1652.40246L3018.10253,1660.20248
				L3010.54257,1662.00248L2992.90267,1665.24248L2985.70271,1669.68249L2982.70273,1680.84251L2977.06276,1686.84252L2976.10277,1690.56252
				L2975.50277,1699.68254L2977.06276,1704.12254L2979.70275,1707.84255L2980.30275,1708.80255L2980.18275,1712.76255L2976.58277,1718.52256
				L2971.3028,1722.24257L2969.98281,1722.96257L2967.58282,1724.16257L2963.62284,1726.20257L2954.62289,1730.52258L2948.62293,1735.20259
				L2940.34298,1743.3626L2940.10298,1743.8426L2936.263,1750.20261L2935.30301,1751.88261L2929.66304,1755.60262L2924.50307,1756.68262
				L2917.42311,1755.24262L2911.90314,1751.28261L2908.18316,1751.40261L2903.02319,1754.76262L2893.90325,1761.36263L2878.54333,1773.00264
				L2862.34343,1781.52266L2855.14347,1790.04267L2851.30349,1794.96268L2843.86354,1801.44269L2832.5836,1806.60269L2830.54361,1806.72269
				L2826.46364,1806.9627L2824.66365,1808.6427L2822.14366,1811.1627L2818.06368,1813.80271L2816.1437,1815.60271L2815.6637,1815.96271
				L2813.74371,1817.64271L2812.06372,1818.12271L2811.82372,1818.12271L2809.54373,1818.12271L2807.50375,1818.96271L2804.98376,1819.08271
				L2802.58377,1818.60271L2796.46381,1815.72271L2792.14383,1814.76271L2786.26387,1816.20271L2784.22388,1816.92271L2782.30389,1817.40271
				L2782.18389,1817.40271L2780.0239,1817.28271L2776.78392,1816.68271L2775.46393,1818.48271L2773.78394,1820.16271L2770.42396,1820.40272
				L2765.50399,1818.96271L2762.50401,1818.36271L2761.06401,1819.20271L2759.14403,1819.80271L2755.66405,1819.68271L2752.30407,1818.36271
				L2749.90408,1817.28271L2746.4241,1816.80271L2743.66412,1817.40271L2740.42413,1817.88271L2737.78415,1818.60271L2732.50418,1819.56271
				L2729.7442,1819.80271L2727.46421,1818.36271L2721.10425,1817.28271L2714.62428,1815.72271L2708.02432,1815.48271L2704.78434,1816.44271
				L2703.10435,1817.76271L2702.50435,1819.80271L2700.46437,1820.76272L2697.22438,1824.72272L2696.14439,1825.56272L2695.0644,1826.52272
				L2693.8644,1827.24273L2690.50442,1825.68272L2687.98444,1825.08272L2686.30445,1824.24272L2685.22445,1821.48272L2684.98446,1820.76272
				L2684.62446,1819.92271L2682.70447,1818.84271L2679.34449,1817.64271L2677.9045,1817.64271L2677.7845,1817.64271L2675.86451,1817.40271
				L2673.10452,1815.96271L2672.02453,1815.12271L2670.34454,1813.56271L2668.54455,1812.6027L2667.34456,1812.4827L2666.38456,1812.7227
				L2665.66457,1812.8427L2664.10458,1812.4827L2662.18459,1812.1227L2657.74461,1808.8827L2656.06462,1807.6827L2649.70466,1805.40269
				L2639.62472,1797.60268L2634.46475,1795.20268L2628.22478,1796.64268L2626.0648,1804.68269L2623.30481,1811.8827L2621.02483,1817.04271
				L2615.86486,1824.60272L2610.82488,1830.84273L2602.30493,1842.00275L2595.94497,1851.36276L2586.22503,1869.12279L2582.74505,1878.2428
				L2575.78509,1888.44282L2567.26514,1899.12283L2563.06516,1902.00284L2559.46518,1903.68284L2558.86519,1905.12284L2556.3452,1910.28285
				L2554.90521,1914.48286L2553.46522,1916.28286L2551.18523,1917.84286L2548.66524,1918.32286L2548.42525,1918.32286L2546.62526,1918.44286
				L2544.70527,1918.44286L2543.14528,1918.68286L2542.06528,1919.88286L2542.06528,1921.56287L2540.26529,1922.76287L2538.8253,1923.72287
				L2537.98531,1925.64287L2537.98531,1928.76288L2537.74531,1932.84288L2538.10531,1936.44289L2538.2253,1936.68289L2538.8253,1941.9629
				L2536.18532,1939.92289L2531.74534,1936.32289L2521.7854,1927.68288L2517.22543,1923.96287L2511.22546,1916.04286L2509.90547,1912.56285
				L2509.42547,1908.00285L2509.42547,1902.36284L2509.30547,1897.92283L2509.30547,1893.84282L2508.10548,1890.12282L2501.38552,1888.68282
				L2496.70555,1888.92282L2492.50557,1891.08282L2489.02559,1891.08282L2483.86562,1891.56282L2478.10565,1891.80282L2473.06568,1890.60282
				L2470.0657,1891.80282L2466.58572,1893.24282L2463.94573,1896.12283L2459.02576,1895.40283L2448.70582,1895.40283L2445.10584,1894.44283
				L2440.90587,1891.68282L2437.42589,1889.04282L2436.46589,1888.44282L2431.18592,1884.12281L2426.02595,1881.00281L2422.30598,1881.24281
				L2416.90601,1879.3228L2413.30603,1878.4828L2408.14606,1872.48279L2403.70608,1867.56279L2396.86612,1858.20277L2392.06615,1855.56277
				L2387.38618,1850.76276L2386.54618,1849.92276L2385.46619,1848.60276L2383.1862,1846.92275L2381.62621,1844.64275L2381.38621,1842.84275
				L2381.38621,1842.24275L2380.30622,1838.52274L2374.30625,1829.76273L2374.06626,1829.52273L2372.14627,1828.32273L2369.02628,1826.28272
				L2366.3863,1824.84272L2363.38632,1823.40272L2361.70633,1823.64272L2360.86633,1824.60272L2359.54634,1827.12273L2357.26635,1829.40273
				L2354.14637,1832.16273L2353.54637,1833.84274L2353.54637,1836.24274L2354.02637,1840.32274L2353.54637,1843.08275L2353.06638,1847.16276
				L2351.74638,1850.28276L2351.14639,1851.96276L2348.9864,1852.80276L2343.94643,1853.40276L2340.58645,1852.92276L2337.58647,1855.56277
				L2333.74649,1862.04278L2330.62651,1863.96278L2327.62652,1866.00278L2322.82655,1867.44279L2320.90656,1867.32279L2320.06657,1867.20279
				L2319.10657,1869.24279L2317.54658,1872.96279L2311.66662,1878.0028L2311.06662,1878.0028L2309.14663,1878.6028L2307.22664,1880.5228
				L2306.02665,1882.92281L2305.06665,1883.64281L2302.06667,1885.08281L2299.66669,1885.32281L2294.86671,1887.36282L2293.66672,1888.20282
				L2292.22673,1890.48282L2288.02675,1895.04283L2284.66677,1898.28283L2282.86678,1902.36284L2281.18679,1906.56284L2281.06679,1911.00285
				L2280.4668,1911.84285L2279.7468,1914.48286L2278.90681,1915.80286L2278.30681,1917.48286L2275.66682,1920.36286L2272.66684,1923.48287
				L2270.98685,1928.16288L2268.46687,1929.12288L2266.42688,1932.00288L2261.02691,1940.88289L2258.14693,1947.4829L2257.66693,1952.88291
				L2258.14693,1956.36292L2259.82692,1960.68292L2259.82692,1964.52293L2258.86692,1968.48294L2258.74692,1969.56294L2257.66693,1972.08294
				L2257.42693,1972.08294L2255.62694,1972.80294L2253.94695,1973.28294L2251.90696,1981.08295L2250.34697,1983.60296L2249.14698,1986.24296
				L2246.267,1990.68297L2243.14701,1994.76298L2242.42702,1997.40298L2240.38703,2002.92299L2239.18704,2005.32299L2238.94704,2008.323
				L2236.90705,2011.683L2234.98706,2015.64301L2231.86708,2019.00301L2228.6271,2024.28302L2225.50712,2028.60303L2223.22713,2030.64303
				L2222.14713,2032.56303L2220.94714,2033.52303L2218.78715,2035.08304L2218.90715,2038.08304L2219.38715,2041.56305L2213.02719,2038.68304
				L2209.30721,2037.48304L2207.26722,2036.88304L2205.46723,2035.56304L2204.62724,2035.08304L2202.58725,2033.16303L2201.26726,2032.68303
				L2199.70726,2032.80303L2199.58727,2032.68303L2196.22728,2031.60303L2194.3073,2030.64303L2192.38731,2029.20303L2191.42731,2028.48303
				L2187.70733,2025.72302L2184.34735,2023.08302L2181.46737,2020.68301L2178.34739,2018.40301L2176.3074,2018.16301L2175.10741,2016.84301
				L2170.78743,2014.323L2168.86744,2014.083L2163.70747,2011.323L2159.1475,2009.043L2156.14752,2005.56299L2154.94752,2003.40299
				L2141.8676,1998.72298L2138.62762,1997.16298L2133.70765,1996.08298L2130.70766,1995.00298L2129.62767,1996.20298L2128.18768,1997.28298
				L2127.70768,1997.52298L2124.9477,1998.60298L2121.94771,1999.44298L2119.78773,2001.00298L2116.66775,2003.16299L2114.86776,2004.96299
				L2113.30776,2005.20299L2111.14778,2004.00299L2108.86779,2002.80299L2106.10781,2001.96299L2103.58782,2001.48299L2101.90783,2001.48299
				L2100.34784,2001.72299L2099.02785,2002.44299L2097.46786,2003.28299L2093.62788,2003.76299L2087.62791,2003.16299L2086.18792,2003.76299
				L2085.10793,2004.72299L2082.70794,2004.60299L2081.50795,2003.76299L2072.268,1999.68298L2068.42802,1998.48298L2065.66804,1998.48298
				L2060.74807,1998.24298L2057.74809,1997.76298L2054.8681,1998.36298L2053.90811,1998.72298L2050.42813,1999.68298L2046.94815,2001.48299
				L2046.10815,2000.88298L2039.86819,1996.32298L2035.90821,1994.52297L2034.10822,1993.68297L2033.86822,1992.72297L2033.62823,1989.84297
				L2033.02823,1987.80296L2031.58824,1983.24296L2028.94825,1977.00295L2026.42827,1971.00294L2026.18827,1969.20294L2025.22827,1967.16293
				L2022.70829,1962.60293L2020.4283,1957.92292L2017.66832,1953.48291L2013.34834,1949.16291L2012.26835,1946.7629L2011.42835,1943.6429
				L2008.42837,1941.3629L2005.42839,1937.88289L2003.1484,1936.68289L2000.98842,1932.72288L2000.38842,1931.28288L1998.46843,1930.68288
				L1995.46845,1929.72288L1994.02846,1928.76288L1991.98847,1927.08287L1989.34848,1926.12287L1985.6285,1924.44287L1983.58852,1922.64287
				L1981.66853,1920.36286L1979.50854,1916.04286L1976.26856,1910.28285L1973.14858,1910.40285L1970.02859,1909.32285L1967.62861,1909.08285
				L1966.18862,1908.84285L1962.94864,1907.04284L1959.34866,1906.56284L1956.22867,1904.52284L1955.74868,1904.16284L1955.02868,1904.16284
				L1948.66872,1905.48284L1945.66874,1905.96284L1945.06874,1906.20284L1944.46874,1906.32284L1934.5088,1908.60285L1930.30882,1910.76285
				L1922.98887,1913.28285L1920.70888,1914.84286L1918.30889,1916.52286L1913.02892,1919.52286L1908.22895,1922.52287L1901.38899,1928.04288
				L1899.589,1930.68288L1898.50901,1933.56288L1897.78901,1934.28289L1896.34902,1934.88289L1895.02903,1934.88289L1893.70904,1935.36289
				L1891.90905,1936.80289L1886.38908,1941.0029L1885.06909,1941.6029L1883.0291,1941.8429L1881.58911,1941.2429L1879.78912,1940.76289
				L1877.98913,1939.20289L1875.22914,1938.60289L1872.70916,1938.36289L1870.78917,1937.28289L1868.14918,1935.12289L1863.94921,1931.64288
				L1857.46925,1931.04288L1854.94926,1930.32288L1851.58928,1930.32288L1850.98928,1930.08288L1848.8293,1929.00288L1847.5093,1924.92287
				L1845.46932,1919.40286L1844.74932,1915.08286L1843.78933,1913.88285L1844.26932,1908.12285L1843.54933,1904.88284L1842.58933,1904.16284
				L1841.86934,1902.96284L1840.42934,1901.40284L1839.46935,1900.08283L1839.34935,1898.88283L1838.14936,1897.20283L1837.78936,1895.16283
				L1838.02936,1887.00281L1838.02936,1870.80279L1838.98935,1866.96278L1840.42934,1862.16278L1840.42934,1859.88277L1837.54936,1858.32277
				L1832.50939,1857.96277L1827.94942,1857.96277L1825.78943,1856.52277L1825.54943,1856.40277L1822.18945,1853.52276L1821.58945,1851.72276
				L1820.74946,1849.68276L1819.06947,1847.28276L1818.82947,1845.12275L1814.98949,1843.80275L1810.18952,1842.24275L1799.74958,1840.44275
				L1792.42962,1836.84274L1788.22965,1834.44274L1782.22968,1828.92273L1779.9497,1824.24272L1774.90972,1821.24272L1771.90974,1820.52272
				L1767.70977,1819.56271L1765.42978,1820.40272L1758.58982,1823.16272L1754.98984,1827.00273L1751.14986,1827.96273L1747.78988,1827.24273
				L1740.70992,1825.32272L1737.46994,1827.24273L1733.38996,1828.20273L1730.98998,1827.84273L1725.59001,1827.12273L1723.31002,1828.20273
				L1719.95004,1829.52273L1718.15005,1829.76273L1713.47008,1830.36273L1709.3901,1828.68273L1703.03014,1825.56272L1695.71018,1825.20272
				L1686.23024,1825.80272L1680.59027,1824.48272L1670.63033,1828.32273L1664.15037,1829.28273L1657.4304,1830.48273L1654.19042,1832.52273
				L1649.63045,1834.08274L1645.19048,1835.04274L1642.67049,1837.44274L1639.19051,1841.40275L1635.11053,1841.64275L1633.91054,1842.60275
				L1630.67056,1843.32275L1628.99057,1844.28275L1624.4306,1847.88276L1609.55068,1861.92278L1608.47069,1865.16278L1599.23074,1875.3628
				L1592.27078,1879.2028L1588.5508,1883.88281L1583.99083,1890.96282L1580.63085,1893.84282L1578.95086,1894.68283L1576.31087,1894.68283
				L1568.75092,1894.80283L1560.11097,1893.72282L1557.71098,1891.56282L1556.99099,1888.08282L1557.11099,1885.08281L1551.71102,1881.00281
				L1547.51104,1881.48281L1543.79106,1881.00281L1540.79108,1879.2028L1538.63109,1878.0028L1536.35111,1877.6428L1534.31112,1878.3628
				L1531.19114,1879.2028L1529.39115,1884.36281L1526.15116,1889.28282L1521.95119,1892.88282L1518.47121,1895.52283L1513.55124,1898.40283
				L1507.07127,1900.08283L1501.43131,1901.88284L1498.19133,1906.56284L1496.03134,1909.56285L1489.67138,1910.04285L1487.99139,1910.16285
				L1481.03143,1907.76285L1475.75146,1905.00284L1466.15151,1898.04283L1461.47154,1894.32283L1457.75156,1891.44282L1451.0316,1890.84282
				L1447.55162,1900.32283L1443.23164,1910.64285L1440.95166,1922.28287L1440.71166,1924.68287L1440.23166,1928.52288L1439.99166,1935.60289
				L1437.23168,1942.5629L1430.51172,1955.64292L1428.71173,1957.44292L1425.71175,1958.28292L1424.03176,1959.96292L1423.31176,1959.84292
				L1423.31176,1961.52293L1422.71176,1966.68293L1422.35177,1970.40294L1422.35177,1973.76294L1422.95176,1975.20295L1423.55176,1977.12295
				L1424.15176,1981.92296L1425.47175,1984.32296L1426.31174,1985.28296L1425.95174,1988.88297L1426.31174,1991.88297L1425.59175,1993.92297
				L1425.23175,1995.84298L1425.35175,1997.64298L1426.31174,1998.84298L1430.27172,2002.44299L1430.63172,2007.48299L1426.31174,2020.56301
				L1424.15176,2027.64302L1418.63179,2039.04304L1415.27181,2045.64305L1416.8318,2047.20305L1421.03177,2051.52306L1420.79177,2055.24307
				L1423.67176,2066.04308L1424.03176,2069.88309L1424.27175,2070.00309L1424.39175,2070.12309L1424.63175,2070.24309L1424.87175,2070.48309
				L1425.11175,2070.48309L1425.47175,2070.60309L1426.07174,2070.96309L1426.79174,2071.44309L1427.15174,2071.92309L1427.51174,2072.40309
				L1427.99173,2072.76309L1428.23173,2073.00309L1428.59173,2073.24309L1428.95173,2073.36309L1429.31173,2073.60309L1429.55172,2073.96309
				L1429.67172,2074.32309L1429.79172,2074.92309L1429.91172,2075.2831L1430.03172,2075.6431L1430.15172,2075.8831L1430.39172,2076.1231
				L1430.51172,2076.2431L1430.99172,2076.3631L1431.83171,2076.4831L1432.67171,2076.7231L1433.3917,2076.7231L1433.9917,2076.8431
				L1434.71169,2076.9631L1435.43169,2077.0831L1436.15169,2077.3231L1436.75168,2077.6831L1437.23168,2077.9231L1437.71168,2078.1631
				L1438.19167,2078.5231L1438.55167,2078.8831L1438.79167,2079.2431L1438.91167,2079.7231L1439.15167,2080.2031L1439.27167,2080.6831
				L1439.51167,2081.0431L1439.87166,2081.4031L1440.23166,2081.76311L1440.59166,2082.00311L1440.83166,2082.36311L1441.07166,2082.96311
				L1441.19166,2083.68311L1441.31166,2084.28311L1441.31166,2084.52311L1441.19166,2084.88311L1441.07166,2085.24311L1440.83166,2085.48311
				L1440.71166,2085.72311L1440.71166,2085.84311L1440.59166,2086.08311L1440.59166,2086.32311L1440.71166,2086.44311L1440.95166,2086.68311
				L1441.19166,2086.56311L1441.55165,2086.56311L1442.51165,2085.12311L1443.35164,2085.12311L1443.71164,2085.12311L1443.95164,2085.24311
				L1444.19164,2085.48311L1444.43164,2086.08311L1444.67164,2086.68311L1444.91163,2087.40311L1445.03163,2087.88311L1445.27163,2088.12311
				L1445.39163,2088.24311L1445.75163,2088.36311L1446.23163,2088.36311L1446.83162,2088.24311L1447.43162,2088.12311L1447.67162,2088.12311
				L1447.91162,2088.12311L1448.27162,2088.24311L1448.63161,2088.36311L1449.11161,2088.72312L1449.59161,2089.20312L1450.0716,2089.56312
				L1450.5516,2089.80312L1451.1516,2089.92312L1451.99159,2089.92312L1452.83159,2089.80312L1453.31159,2089.92312L1453.79158,2090.16312
				L1454.63158,2090.64312L1455.59157,2091.36312L1456.31157,2091.96312L1456.67157,2092.32312L1456.91157,2092.56312L1456.91157,2093.04312
				L1456.91157,2093.52312L1456.91157,2093.88312L1456.79157,2094.24312L1456.43157,2094.60312L1455.95157,2094.96312L1455.23158,2095.32313
				L1454.51158,2095.80313L1453.91158,2096.28313L1453.43159,2096.88313L1452.95159,2097.24313L1452.11159,2097.36313L1450.9116,2097.60313
				L1450.3116,2097.60313L1449.23161,2097.96313L1448.15162,2098.20313L1447.43162,2098.56313L1446.71162,2098.92313L1446.11163,2099.28313
				L1445.63163,2099.76313L1445.39163,2100.24313L1445.15163,2100.72313L1445.27163,2101.08313L1445.27163,2101.56313L1445.51163,2101.92314
				L1445.99163,2102.88314L1446.35163,2103.48314L1446.59163,2104.08314L1446.95162,2104.80314L1447.31162,2105.16314L1447.67162,2105.40314
				L1448.15162,2105.52314L1448.87161,2105.76314L1449.35161,2106.00314L1449.71161,2106.36314L1450.0716,2107.08314L1450.6716,2107.92314
				L1451.3916,2108.64315L1451.99159,2109.12315L1453.19159,2109.60315L1454.27158,2109.96315L1455.35157,2110.32315L1456.67157,2110.56315
				L1457.75156,2110.80315L1459.43155,2111.04315L1460.15155,2111.16315L1460.63154,2111.40315L1460.87154,2111.64315L1460.99154,2112.12315
				L1460.99154,2112.60315L1460.99154,2112.84315L1460.99154,2113.08315L1460.87154,2113.32315L1460.87154,2113.56315L1460.51154,2113.92315
				L1459.91155,2114.28315L1459.43155,2114.64315L1459.19155,2114.88315L1458.83155,2115.12315L1458.95155,2115.24315L1459.19155,2115.36316
				L1459.31155,2115.48316L1459.43155,2115.60316L1459.43155,2115.96316L1459.43155,2116.44316L1459.43155,2116.80316L1459.55155,2117.04316
				L1459.79155,2117.28316L1460.03155,2117.64316L1460.27155,2117.88316L1460.75154,2118.24316L1460.99154,2118.48316L1461.23154,2118.84316
				L1461.47154,2119.08316L1461.59154,2119.56316L1461.71154,2120.04316L1461.83154,2120.52316L1461.83154,2121.12316L1461.95154,2121.72316
				L1462.07154,2122.32317L1462.19153,2122.68317L1462.43153,2123.04317L1463.03153,2123.64317L1463.51153,2124.00317L1463.87153,2124.48317
				L1464.11152,2124.84317L1464.35152,2125.08317L1464.59152,2125.44317L1464.71152,2125.68317L1464.71152,2126.16317L1464.83152,2126.52317
				L1464.71152,2127.00317L1464.71152,2127.48317L1464.47152,2127.84317L1464.23152,2128.32317L1463.87153,2128.92318L1463.51153,2129.52318
				L1463.03153,2130.12318L1462.79153,2130.72318L1462.55153,2131.20318L1462.19153,2131.56318L1461.59154,2132.04318L1460.99154,2132.40318
				L1460.03155,2132.88318L1459.43155,2133.36318L1458.95155,2133.84318L1458.59156,2134.32318L1458.35156,2134.56318L1458.23156,2134.68318
				L1457.87156,2134.92318L1457.39156,2135.04318L1457.03156,2135.16318L1456.67157,2135.40319L1456.43157,2135.76319L1456.31157,2136.12319
				L1456.19157,2136.48319L1456.07157,2136.84319L1456.07157,2137.44319L1455.83157,2138.52319L1455.59157,2139.48319L1455.47157,2139.96319
				L1455.23158,2140.56319L1454.99158,2141.16319L1454.87158,2142.00319L1454.75158,2142.3632L1454.51158,2143.6832L1454.27158,2145.0032
				L1454.03158,2145.7232L1453.67158,2146.5632L1453.31159,2147.5232L1452.71159,2148.3632L1452.47159,2149.08321L1452.11159,2150.04321
				L1451.7516,2151.00321L1451.5116,2151.48321L1451.1516,2152.32321L1450.9116,2153.16321L1450.4316,2154.24321L1450.1916,2154.96321
				L1450.1916,2155.20321L1449.95161,2155.32321L1449.71161,2155.56322L1449.83161,2155.68322L1450.1916,2156.28322L1450.4316,2156.52322
				L1450.6716,2156.76322L1450.9116,2157.00322L1451.2716,2157.36322L1451.3916,2157.48322L1451.5116,2157.48322L1451.5116,2157.60322
				L1451.6316,2157.60322L1451.7516,2157.60322L1451.87159,2157.60322L1451.99159,2157.48322L1452.35159,2157.12322L1452.71159,2156.88322
				L1453.07159,2156.64322L1453.55158,2156.52322L1453.91158,2156.52322L1454.27158,2156.52322L1454.63158,2156.52322L1454.99158,2156.64322
				L1455.35157,2156.76322L1455.47157,2157.00322L1455.83157,2157.24322L1456.07157,2157.60322L1456.19157,2157.96322L1456.55157,2158.68322
				L1456.67157,2158.92322L1456.79157,2159.04322L1457.03156,2159.16322L1457.03156,2159.28322L1457.27156,2159.28322L1457.63156,2159.40322
				L1457.87156,2159.40322L1458.35156,2159.40322L1458.71155,2159.28322L1459.31155,2159.16322L1459.67155,2159.04322L1460.15155,2159.04322
				L1460.51154,2159.04322L1460.87154,2159.04322L1461.11154,2159.04322L1461.35154,2159.16322L1461.47154,2159.28322L1461.83154,2159.88322
				L1462.19153,2160.24322L1462.31153,2160.24322L1463.87153,2161.32322L1464.47152,2161.80322L1464.95152,2162.28323L1465.55152,2162.88323
				L1466.39151,2163.36323L1467.3515,2163.60323L1468.4315,2163.84323L1469.15149,2163.96323L1469.63149,2164.32323L1470.35149,2164.80323
				L1470.35149,2165.40323L1470.35149,2166.48323L1470.35149,2166.60323L1470.47149,2167.44323L1470.71149,2168.28323L1470.83148,2168.76323
				L1470.95148,2169.60324L1471.07148,2170.32324L1471.31148,2170.68324L1471.67148,2170.92324L1472.03148,2171.04324L1472.39148,2170.92324
				L1473.11147,2170.68324L1473.71147,2170.56324L1474.43146,2170.68324L1474.67146,2170.92324L1474.79146,2171.28324L1474.79146,2172.24324
				L1474.67146,2173.20324L1474.67146,2173.80324L1474.67146,2174.52324L1474.79146,2175.24324L1474.79146,2176.20325L1474.79146,2176.92325
				L1474.91146,2177.64325L1475.15146,2178.12325L1475.27146,2178.72325L1475.27146,2179.32325L1474.91146,2179.92325L1474.67146,2180.40325
				L1474.19147,2180.76325L1473.83147,2181.00325L1473.71147,2181.60325L1473.23147,2182.32325L1472.63147,2182.68326L1472.27148,2182.80326
				L1471.91148,2183.04326L1471.43148,2183.40326L1470.95148,2184.00326L1470.23149,2184.48326L1469.39149,2184.72326L1469.0315,2184.84326
				L1468.1915,2184.60326L1467.23151,2184.24326L1466.51151,2183.76326L1465.43152,2183.76326L1464.95152,2184.00326L1464.35152,2184.48326
				L1463.75153,2184.84326L1462.55153,2185.32326L1460.75154,2185.44326L1459.55155,2185.56326L1458.35156,2185.80326L1457.63156,2186.04326
				L1456.79157,2186.52326L1456.43157,2187.00326L1456.19157,2187.60326L1456.07157,2188.20326L1456.31157,2188.80326L1456.31157,2189.76327
				L1456.07157,2190.72327L1456.07157,2191.20327L1455.47157,2191.92327L1454.99158,2192.28327L1454.27158,2192.76327L1453.67158,2193.60327
				L1452.83159,2194.56327L1452.35159,2195.16327L1451.87159,2195.76328L1451.1516,2196.24328L1450.7916,2196.48328L1450.0716,2196.60328
				L1449.23161,2196.60328L1448.51161,2195.76328L1448.27162,2195.04327L1447.79162,2193.48327L1447.43162,2192.28327L1447.19162,2190.84327
				L1446.83162,2189.76327L1446.71162,2189.28327L1446.59163,2189.52327L1446.59163,2189.64327L1445.99163,2191.20327L1445.27163,2192.28327
				L1444.19164,2193.60327L1443.47164,2194.32327L1442.39165,2195.40327L1441.31166,2196.36328L1440.71166,2197.44328L1440.35166,2198.04328
				L1440.23166,2198.52328L1440.11166,2199.12328L1439.75166,2200.20328L1439.39167,2201.40328L1439.15167,2202.12328L1438.55167,2202.96329
				L1438.07167,2203.68329L1437.95168,2203.68329L1437.47168,2204.28329L1436.75168,2204.76329L1436.27168,2205.12329L1436.03169,2205.48329
				L1435.79169,2205.84329L1435.67169,2206.32329L1435.67169,2206.92329L1435.67169,2207.52329L1435.67169,2208.12329L1435.79169,2208.48329
				L1435.91169,2208.84329L1436.03169,2209.2033L1436.15169,2209.5633L1436.39168,2210.0433L1436.51168,2210.4033L1436.75168,2210.6433
				L1436.99168,2211.0033L1437.11168,2211.2433L1437.23168,2211.2433L1437.35168,2211.4833L1437.47168,2211.8433L1437.59168,2212.3233
				L1437.71168,2212.6833L1437.71168,2213.2833L1437.71168,2213.7633L1437.71168,2214.1233L1437.47168,2214.7233L1437.23168,2215.2033
				L1436.51168,2216.28331L1435.79169,2217.60331L1435.19169,2218.92331L1435.07169,2219.16331L1434.95169,2219.64331L1434.83169,2220.12331
				L1434.83169,2220.48331L1434.95169,2221.20331L1435.07169,2222.88332L1435.07169,2223.48332L1434.95169,2224.20332L1434.95169,2224.68332
				L1434.95169,2224.80332L1434.83169,2225.40332L1434.59169,2226.24332L1434.3517,2227.32332L1433.9917,2228.64332L1433.8717,2229.72333
				L1433.8717,2230.32333L1433.8717,2230.92333L1433.9917,2231.52333L1433.9917,2231.88333L1434.4717,2231.64333L1435.31169,2231.52333
				L1435.79169,2231.64333L1436.99168,2231.64333L1439.03167,2230.08333L1439.15167,2229.72333L1439.39167,2229.36333L1440.11166,2227.80332
				L1440.83166,2226.24332L1441.19166,2225.52332L1441.19166,2225.40332L1441.31166,2225.28332L1441.55165,2225.04332L1441.67165,2225.04332
				L1441.67165,2224.92332L1441.79165,2224.92332L1441.91165,2224.92332L1442.15165,2224.92332L1442.27165,2225.04332L1442.39165,2225.04332
				L1442.51165,2225.04332L1442.75165,2225.28332L1442.99165,2225.52332L1443.35164,2226.00332L1444.19164,2227.44332L1444.43164,2227.92332
				L1444.67164,2228.28332L1444.91163,2228.88332L1444.91163,2229.00332L1445.15163,2229.36333L1445.63163,2229.84333L1445.99163,2230.44333
				L1446.35163,2231.16333L1446.59163,2231.76333L1446.71162,2232.36333L1446.71162,2232.72333L1446.71162,2233.32333L1446.71162,2234.16333
				L1446.83162,2235.12333L1446.83162,2235.72333L1447.31162,2236.92334L1447.79162,2237.52334L1448.15162,2238.00334L1448.51161,2238.60334
				L1448.63161,2239.08334L1448.99161,2239.32334L1449.47161,2239.92334L1450.0716,2240.64334L1450.6716,2241.24334L1451.0316,2241.60334
				L1451.5116,2242.08334L1451.87159,2242.56334L1452.35159,2243.16335L1452.47159,2243.28335L1452.71159,2243.76335L1452.95159,2244.00335
				L1453.07159,2244.84335L1453.19159,2245.68335L1453.55158,2246.76335L1453.91158,2247.60335L1454.27158,2248.20335L1454.63158,2248.92335
				L1454.87158,2249.40336L1455.11158,2249.76336L1455.11158,2250.12336L1455.11158,2250.36336L1455.11158,2250.72336L1454.63158,2251.44336
				L1454.27158,2251.92336L1453.79158,2252.52336L1453.55158,2253.00336L1453.31159,2253.48336L1454.27158,2254.68336L1454.63158,2255.16336
				L1455.11158,2255.04336L1455.59157,2255.04336L1456.19157,2255.16336L1456.79157,2255.52336L1457.27156,2255.88336L1457.63156,2256.36337
				L1457.63156,2256.48337L1457.87156,2257.08337L1457.99156,2257.08337L1458.11156,2257.68337L1458.23156,2257.68337L1458.23156,2257.92337
				L1458.35156,2258.40337L1458.35156,2259.12337L1458.35156,2259.24337L1458.23156,2259.36337L1458.23156,2259.48337L1458.23156,2259.60337
				L1458.23156,2259.96337L1458.83155,2259.96337L1459.19155,2260.08337L1459.67155,2260.56337L1459.91155,2261.04337L1460.27155,2261.28337
				L1460.63154,2261.40337L1461.11154,2261.64337L1461.71154,2261.88337L1462.07154,2262.24337L1462.67153,2262.84338L1462.91153,2263.56338
				L1463.27153,2264.28338L1463.39153,2264.88338L1463.39153,2265.60338L1463.51153,2265.84338L1463.87153,2265.96338L1464.23152,2266.32338
				L1464.71152,2266.68338L1465.07152,2267.28338L1465.55152,2267.88338L1465.91151,2268.48338L1466.39151,2269.44338L1466.75151,2270.76339
				L1466.87151,2271.48339L1466.87151,2272.08339L1466.51151,2273.52339L1466.51151,2273.64339L1466.51151,2273.76339L1466.39151,2274.00339
				L1466.39151,2274.12339L1466.75151,2274.12339L1467.11151,2274.24339L1467.7115,2274.60339L1468.9115,2276.04339L1469.63149,2277.2434
				L1471.79148,2280.8434L1472.03148,2281.2034L1473.95147,2284.32341L1474.31146,2285.04341L1474.55146,2285.40341L1474.91146,2286.12341
				L1475.03146,2286.36341L1475.87146,2287.80341L1476.83145,2289.48341L1477.19145,2290.20342L1477.79144,2291.28342L1478.03144,2291.88342
				L1478.15144,2292.12342L1478.27144,2292.36342L1478.27144,2292.84342L1478.27144,2293.32342L1478.27144,2293.80342L1478.03144,2294.16342
				L1477.31145,2295.24342L1475.27146,2298.36343L1470.71149,2305.08344L1468.4315,2308.08344L1468.1915,2308.32344L1467.8315,2308.68344
				L1467.23151,2308.92344L1466.03151,2309.52344L1464.35152,2310.36345L1463.51153,2310.72345L1463.15153,2310.84345L1462.43153,2311.32345
				L1461.71154,2311.80345L1457.75156,2316.36345L1455.83157,2318.40346L1455.11158,2319.36346L1454.87158,2320.56346L1454.75158,2322.36346
				L1454.63158,2324.28347L1454.75158,2326.20347L1454.75158,2328.12347L1454.63158,2329.56347L1454.15158,2331.24348L1453.55158,2332.68348
				L1452.95159,2334.12348L1452.23159,2335.68348L1451.3916,2336.88349L1450.3116,2338.32349L1449.47161,2339.16349L1448.63161,2340.24349
				L1447.91162,2341.20349L1447.55162,2342.16349L1447.19162,2343.00349L1446.95162,2344.2035L1446.83162,2345.0435L1446.59163,2346.2435
				L1446.35163,2347.5635L1446.35163,2348.6435L1446.59163,2349.4835L1446.95162,2350.44351L1447.19162,2351.28351L1447.31162,2352.12351
				L1447.43162,2353.20351L1447.55162,2355.60351L1448.03162,2357.88352L1448.39161,2359.20352L1448.99161,2360.76352L1430.63172,2363.76353
				L1430.51172,2363.76353L1429.91172,2363.88353L1429.31173,2364.00353L1427.39174,2364.24353L1429.07173,2367.00353L1430.87172,2370.24354
				L1428.71173,2370.84354L1427.15174,2371.32354L1424.75175,2372.04354L1424.39175,2372.04354L1424.27175,2372.16354L1423.67176,2372.28354
				L1421.27177,2373.00354L1410.23184,2374.80354L1406.75186,2378.04355L1405.43186,2379.00355L1403.39188,2380.44355L1400.87189,2381.40355
				L1396.31192,2381.04355L1389.23196,2382.12355L1379.03202,2384.04356L1371.23206,2383.80356L1366.91209,2383.56356L1364.0321,2383.80356
				L1360.07213,2385.60356L1358.27214,2387.04356L1357.07214,2387.52356L1351.55218,2389.56356L1334.87227,2399.76358L1331.63229,2403.12358
				L1325.87232,2397.00358L1312.7924,2382.00355L1309.55242,2371.56354L1306.31244,2368.32353L1302.35246,2360.76352L1297.67249,2352.84351
				L1288.91254,2343.3635L1285.19256,2338.44349L1283.03257,2336.28348L1283.03257,2326.80347L1282.31258,2321.28346L1283.15257,2316.60346
				L1279.67259,2310.36345L1274.63262,2297.40343L1273.43263,2292.84342L1270.67264,2281.4434L1265.03268,2272.92339L1261.7927,2262.72337
				L1256.03273,2261.88337L1246.91278,2259.12337L1239.47282,2254.92336L1238.03283,2254.08336L1228.19289,2248.80335L1214.99297,2241.72334
				L1202.15304,2237.64334L1196.99307,2237.52334L1186.55313,2238.60334L1174.5532,2240.76334L1160.15328,2244.48335L1153.91332,2248.44335
				L1152.11333,2248.80335L1150.07334,2247.12335L1145.63337,2241.72334L1139.8734,2236.68334L1132.43344,2232.96333L1128.71347,2230.32333
				L1126.79348,2228.40332L1123.79349,2225.28332L1122.1135,2223.36332L1119.23352,2220.60331L1113.11356,2221.68331L1111.91356,2222.88332
				L1108.19358,2227.32332L1104.47361,2228.28332L1098.47364,2229.96333L1097.27365,2231.28333L1092.83367,2232.48333L1088.7537,2232.36333
				L1079.51375,2226.96332L1074.59378,2221.80331L1072.07379,2220.36331L1068.35381,2220.12331L1064.39384,2219.88331L1062.23385,2219.28331
				L1058.87387,2216.76331L1056.83388,2217.72331L1053.1139,2219.40331L1043.15396,2220.24331L1036.194,2222.40331L1033.07402,2222.52331
				L1025.27406,2221.92331L1020.23409,2222.64332L1016.39412,2224.32332L1011.95414,2228.28332L1009.07416,2232.12333L1005.11418,2236.92334
				L1000.19421,2242.32334L998.15422,2246.40335L997.31423,2249.52336L994.91424,2251.68336L992.03426,2254.32336L990.23427,2253.84336
				L975.59435,2249.76336L970.91438,2248.08335L968.39439,2247.12335L946.43452,2235.24333L933.3546,2224.68332L915.3547,2188.80326
				L907.31475,2178.00325L892.91483,2165.76323L889.55485,2164.20323L881.2749,2161.56322L868.55497,2163.48323L838.79514,2169.48324
				L814.67528,2176.08325L802.55535,2177.88325L796.67539,2177.40325L792.11541,2177.04325L787.31544,2173.32324L768.11555,2143.4432
				L759.7156,2136.24319L745.19569,2124.84317L735.23574,2114.28315L728.03579,2104.08314L717.11585,2076.6031L712.91587,2054.76306
				L707.5159,2046.48305L702.23593,2041.44304L693.23599,2034.24303L689.39601,2027.16302L690.476,2024.52302L722.63582,1995.36298
				L738.47572,1982.52296L747.23567,1971.24294L764.75557,1959.12292L779.75549,1954.08291L790.19543,1952.04291L814.55528,1950.60291
				L844.19511,1950.12291L873.11495,1949.04291L899.51479,1947.72291L899.75479,1946.7629L903.71477,1937.76289L907.67475,1924.68287
				L914.03471,1911.00285L915.4747,1904.04284L907.79474,1897.80283L902.15478,1894.68283L895.67481,1891.32282L890.75484,1888.56282
				L880.4349,1882.20281L877.79492,1880.4028L869.63497,1871.76279L860.75502,1862.16278L851.27507,1840.56275L840.71513,1817.04271
				L837.59515,1810.2027L829.9152,1805.88269L819.35526,1806.60269L808.31532,1809.0027L798.71538,1812.1227L789.83543,1813.3227
				L776.27551,1811.8827L765.95557,1804.92269L761.99559,1801.68269L757.31562,1797.72268L754.91563,1793.88268L753.95564,1785.96266
				L758.03561,1778.52265L764.75557,1767.00264L764.03558,1764.60263L757.79561,1749.00261L753.47564,1737.12259L750.83565,1727.28258
				L750.35566,1720.80257L753.95564,1708.80255L753.47564,1696.80253L746.75568,1685.76251L742.9157,1676.6425L744.59569,1665.00248
				L744.11569,1658.52247L744.11569,1657.80247L720.83583,1657.32247L717.71585,1656.84247L707.27591,1651.56246L699.95595,1647.36246
				L681.71605,1643.88245L671.03612,1638.84244L657.83619,1630.44243L650.03624,1626.12243L636.23632,1624.68242L625.79638,1622.28242
				L621.9564,1617.48241L619.79641,1605.9624L619.07642,1602.96239L618.83642,1602.36239L616.67643,1601.88239L611.03646,1602.12239
				L605.1565,1600.44239L594.83656,1591.68237L588.35659,1583.52236L582.11663,1575.60235L575.87667,1567.92234L573.23668,1563.60233
				L567.23672,1539.8423L564.35673,1524.24227L563.15674,1503.24224L559.19676,1489.80222L558.95676,1474.4422L558.95676,1449.96216
				L558.95676,1447.08216L557.99677,1445.16216L554.63679,1445.16216L552.3568,1445.52216L541.67686,1447.80216L533.99691,1448.28216
				L533.03691,1446.12216L532.79692,1441.20215L533.03691,1420.56212L532.55692,1417.20211L531.11693,1413.12211L525.83696,1406.8821
				L512.87703,1389.60207L498.71711,1376.16205L493.91714,1368.00204L487.19718,1362.12203L477.23724,1351.56202L470.27728,1343.642
				L461.87733,1334.28199L451.31739,1329.72198L424.19754,1316.52196L415.3176,1308.12195L406.79765,1301.88194L394.31772,1295.88193
				L387.83776,1292.16193L384.95777,1288.56192L382.79778,1285.92192L378.71781,1279.08191L377.03782,1276.0819L374.39783,1273.0819
				L371.99785,1270.32189L371.27785,1269.60189L367.67787,1267.92189L363.83789,1271.5219L355.67794,1278.72191L346.79799,1289.52192
				L325.31812,1302.60194L303.47824,1308.36195L299.15827,1313.40196L291.47831,1323.96197L288.11833,1335.48199L285.95834,1348.20201
				L281.87837,1355.16202L277.55839,1358.04203L268.67844,1354.20202L264.35847,1350.12201L256.19852,1339.562L249.11856,1333.56199
				L241.9186,1316.52196L234.95864,1299.48194L228.23868,1286.40192L225.4787,1279.92191L216.35875,1264.44189L214.55876,1260.96188
				L208.1988,1257.72188L205.19881,1256.16187L203.15882,1253.76187L199.19885,1248.72186L192.47889,1253.76187L188.63891,1257.36188
				L181.31895,1258.80188L176.51898,1257.12188L170.15902,1254.12187L165.95904,1248.96186L162.59906,1243.68186L158.75908,1231.92184
				L157.07909,1223.52183L159.71908,1219.44182L164.51905,1211.88181L166.91903,1206.1218L170.03902,1194.12178L175.07899,1180.20176
				L182.99894,1162.68173L184.67893,1147.80171L185.99892,1119.12167L189.9589,1114.20166L193.43888,1106.52165L193.43888,1090.68163
				L195.83887,1078.08161L196.91886,1070.6416L196.91886,1059.72158L195.47887,1051.32157L191.27889,1044.24156L185.99892,1037.28155
				L184.31893,1033.68154L184.31893,1025.64153L187.79891,1015.80152L193.43888,1003.4415L199.07885,998.88149L207.8388,992.16148
				L214.91876,985.56147L221.51872,975.00145L227.15869,960.48143L231.71866,941.1614L232.43865,921.12137L231.11866,903.60135L
				231.11866,898.68134L233.15865,881.40131L233.51865,870.1213L232.79865,859.56128L236.03863,849.36127L237.35863,844.08126L243.35859,839.16125
				L245.27858,837.12125L251.75854,828.96124L256.43852,819.48122L262.67848,802.9212L265.91846,792.72118L270.11844,775.44116L
				273.95841,760.08113L275.03841,757.92113L279.83838,755.16113L289.79832,749.52112L297.83828,742.92111L319.31815,727.32109L
				341.51802,710.04106L357.71793,697.80104L366.11788,692.88103L377.03782,687.60103L391.07774,675.24101L399.23769,665.76099L
				401.99767,658.32098L405.11765,653.40097L406.79765,650.76097L410.87762,648.24097L414.7176,647.16097L428.03752,646.80097L433.07749,645.36096
				L440.63745,642.00096L447.47741,638.28095L452.87738,635.40095L457.55735,634.08095L466.4373,633.96095L472.55726,632.16094L
				473.87726,631.20094L479.27723,625.56093L486.71718,617.04092L494.03714,613.44092L501.5971,609.60091L518.037,597.60089L533.39691,585.48087
				L540.47687,579.48086L551.63681,563.40084L556.79678,557.16083L560.27676,544.68081L562.07675,537.6008L569.8767,516.24077L576.47666,500.64075
				L582.71663,493.32074L595.07656,484.56072L605.51649,480.00072L613.79645,476.28071L620.03641,475.56071L630.11635,474.84071
				L632.63634,481.32072L637.31631,493.32074L640.43629,496.20074L645.11627,496.56074L653.03622,494.16074L660.95617,492.72074
				L673.4361,494.04074L685.67603,495.48074L695.75597,498.00074L706.79591,503.88075L712.43588,509.64076L719.27584,520.92078L
				724.6758,525.96078L730.91577,528.60079L737.63573,529.56079L743.0357,528.96079L743.75569,528.84079L749.87566,530.28079L760.5556,538.9208
				L767.99555,546.00081L775.91551,555.00083L778.79549,557.16083L788.51544,556.20083L801.47536,552.60082L804.23534,550.44082
				L806.87533,548.28082L817.19527,539.4008L827.63521,531.48079L841.91513,526.44079L853.79506,523.56078L869.39497,524.16078L
				880.1949,524.88078L885.11488,524.88078L895.91481,524.28078L900.59479,524.16078L907.07475,524.16078L911.63472,525.84078L914.15471,526.80079
				L921.47467,525.72078L933.5946,527.52079L947.27452,532.08079L957.59446,538.6808L967.5544,546.48082L970.07438,552.48082L975.47435,569.64085
				L979.43433,575.52086L981.59432,578.40086L984.5943,582.24087L986.51429,587.88088L990.59427,600.2409L993.47425,597.48089L998.75422,591.96088
				L1014.71413,578.52086L1028.63404,571.08085L1036.434,570.24085L1039.55398,570.96085L1045.55395,572.40085L1054.1939,576.60086
				L1060.07386,576.84086L1067.63382,576.60086L1071.7138,574.32086L1077.59376,571.92085L1082.63373,562.92084L1090.43369,546.48082
				L1102.67362,511.80076L1106.0336,497.52074L1113.47355,499.80075L1172.75321,517.56077L1241.87281,539.88081L1284.11257,553.44083
				L1367.99208,578.88086L1380.11201,582.60087L1492.67136,617.52092L1524.95117,628.92094L1556.63099,647.28097L1577.03087,657.00098
				L1582.31084,656.88098L1591.91078,656.64098L1601.75073,655.32098L1607.75069,655.68098L1610.99067,655.92098L1614.83065,657.72098
				L1616.99064,653.88098L1618.91063,646.44096L1623.2306,629.88094L1623.4706,613.20091L1612.67066,590.52088L1602.23072,570.48085
				L1593.47077,549.24082L1586.63081,532.68079L1579.31086,504.48075L1573.91089,482.88072L1563.35095,455.04068L1554.471,439.92066
				L1545.35105,431.64064L1534.79111,420.48063L1523.51118,405.72061L1522.31119,400.9206L1522.31119,397.32059L1523.51118,391.92058
				L1531.55113,380.64057L1553.63101,363.84054L1562.87095,352.56053L1564.67094,343.20051L1567.19093,330.24049L1569.35091,324.24048
				L1569.83091,315.12047L1568.51092,305.64046L1568.75092,297.60044L1577.39087,283.56042L1586.51081,275.16041L1596.59076,270.3604
				L1604.15071,271.44041L1610.27068,274.08041L1615.67065,275.16041L1623.2306,274.68041L1633.79054,271.92041L1641.5905,270.3604
				L1642.79049,270.6004L1649.15045,271.44041L1657.7904,275.40041L1667.99034,279.00042L1675.9103,279.96042L1677.35029,279.60042
				L1685.63024,277.80041L1691.51021,274.08041L1699.79016,264.9604L1708.55011,257.28038L1715.75007,253.32038L1727.63,250.32037
				L1736.74995,245.16037L1746.58989,243.96036L1750.30987,242.64036L1752.22986,238.20036L1757.26983,228.36034L1761.5898,214.56032
				L1762.5498,209.28031L1764.22979,202.6803L1768.42976,198.9603L1777.90971,193.80029L1782.70968,190.80029L1788.58965,188.88028
				L1789.06964,190.32028L1790.62963,193.44029L1793.86961,201.2403L1797.58959,209.64031L1804.78955,219.84033L1808.14953,222.48033
				L1809.70952,225.36034L1813.9095,232.68035L1826.62942,247.80037z"/>
			<path clip-path="url(#SVG_CP_1)" fill="none" stroke="#000000" stroke-width="3.95998" stroke-miterlimit="10" stroke-linecap="round" stroke-linejoin="round" d="
				M1826.62942,247.80037L1853.98927,279.96042L1870.78917,296.28044L1882.0691,302.04045L1889.14906,307.32046L1899.829,315.48047
				L1905.82897,323.04048L1920.58888,334.4405L1922.50887,334.4405L1924.90886,333.0005L1929.82883,333.1205L1934.5088,333.0005
				L1938.70878,333.0005L1942.66875,333.0005L1947.58872,330.72049L1950.9487,330.12049L1959.46866,329.40049L1975.06857,321.48048
				L1985.02851,317.16047L1996.90844,311.88047L2003.6284,310.32046L2005.78839,309.84046L2010.70836,309.36046L2022.22829,308.64046
				L2027.50826,308.64046L2045.74816,310.20046L2068.42802,312.96047L2099.86784,312.48047L2106.8278,314.64047L2121.34772,318.96048
				L2122.66771,319.44048L2130.10767,320.88048L2131.78766,321.24048L2134.06764,321.72048L2136.10763,322.20048L2141.1476,323.16048
				L2153.86753,326.76049L2171.14743,327.36049L2184.70735,327.48049L2206.42723,332.4005L2217.94716,331.32049L2249.02698,324.72048
				L2287.54676,321.24048L2308.06664,316.80047L2347.78641,308.88046L2358.22635,305.28046L2369.14628,297.96044L2379.46622,289.80043
				L2390.98616,274.68041L2397.94612,264.00039L2403.22609,258.84039L2407.42606,258.12039L2416.06601,261.24039L2424.58596,265.2004
				L2440.42587,272.88041L2444.98584,276.96041L2445.10584,277.56041L2446.18584,279.96042L2448.22583,286.92043L2450.86581,290.52043
				L2455.54578,296.04044L2460.34576,301.08045L2465.02573,308.76046L2465.38573,315.12047L2466.22572,317.52047L2470.3057,326.28049
				L2474.74567,331.8005L2482.90563,335.2805L2487.2256,338.2805L2495.50555,346.20052L2507.26548,348.72052L2522.2654,350.64052
				L2536.42532,349.32052L2544.46527,347.28052L2550.46523,348.48052L2558.86519,349.80052L2563.66516,349.44052L2571.82511,348.84052
				L2573.9851,349.32052L2575.18509,351.12052L2576.50508,353.76053L2576.98508,358.20053L2577.22508,360.72054L2577.70508,366.72055
				L2580.34506,373.32056L2588.14502,382.92057L2598.22496,393.84059L2618.74484,408.36061L2629.78477,415.08062L2634.34475,421.44063
				L2647.54467,437.16065L2652.22464,439.56066L2669.50454,442.80066L2695.90439,444.36066L2703.22435,445.68067L2704.30434,447.24067
				L2711.5043,458.88068L2718.94426,468.4807L2726.38422,478.56071L2733.46417,483.48072L2740.30413,490.20073L2745.4641,504.12075
				L2750.86407,511.56076L2755.30405,517.56077L2755.42405,517.80077L2765.26399,535.2008L2767.18398,537.7208L2772.82395,544.20081
				L2771.74395,550.08082L2764.184,562.92084L2756.50404,572.16085L2751.94407,579.48086L2739.58414,592.08088L2738.50415,593.28089
				L2736.46416,595.56089L2735.86416,604.9209L2736.22416,615.12092L2738.38415,622.08093L2738.26415,624.00093L2736.22416,633.24094
				L2736.94415,643.32096L2740.30413,653.76098L2741.38413,657.24098L2742.58412,666.36099L2743.06412,676.32101L2744.02411,685.08102
				L2746.1841,699.84104L2747.50409,714.12107L2747.86409,719.16107L2748.70409,722.64108L2751.10407,723.48108L2752.90406,724.20108
				L2757.22404,727.20108L2762.50401,735.3611L2765.50399,740.0411L2769.94396,746.40111L2774.50394,754.08113L2777.50392,760.20113
				L2779.54391,766.92114L2787.10386,777.72116L2791.30384,785.52117L2792.98383,791.28118L2793.34383,799.56119L2795.26382,805.4412
				L2798.8638,816.36122L2797.6638,827.76123L2793.70383,837.00125L2790.46384,841.68126L2787.46386,845.76126L2787.10386,852.00127
				L2790.10385,860.64128L2794.78382,874.6813L2797.6638,878.40131L2802.70377,879.96131L2808.34374,885.00132L2811.10372,888.72133
				L2812.30372,890.40133L2815.4237,899.04134L2819.86367,905.04135L2821.90366,912.12136L2825.50364,926.52138L2830.78361,932.52139
				L2833.3036,936.4814L2834.86359,940.4414L2831.9836,949.80142L2829.58362,958.92143L2829.10362,966.60144L2830.78361,972.24145
				L2833.54359,980.16146L2837.50357,997.08149L2841.10355,1009.44151L2843.98353,1026.72153L2847.82351,1032.36154L2854.54347,1032.48154
				L2859.34345,1032.36154L2869.66339,1032.60154L2875.06335,1035.48154L2877.22334,1037.40155L2880.34332,1039.80155L2882.26331,1041.36155
				L2888.74328,1044.48156L2893.06325,1047.60156L2899.90321,1052.88157L2902.78319,1058.16158L2904.70318,1067.28159L2904.82318,1067.52159
				L2907.70317,1073.5216L2910.10315,1076.40161L2915.02312,1079.40161L2915.50312,1079.64161L2922.34308,1083.24162L2926.90305,1086.96162
				L2936.023,1096.92164L2943.22296,1106.40165L2947.90293,1113.36166L2950.78292,1120.44167L2951.62291,1124.04168L2952.70291,1129.08168
				L2955.82289,1136.5217L2958.94287,1141.9217L2968.78281,1152.72172L2974.66278,1159.56173L2974.66278,1161.48173L2975.02278,1167.48174
				L2979.70275,1174.44175L2985.46272,1179.72176L2998.30264,1193.28178L3008.98258,1204.5618L3016.30254,1210.20181L3023.3825,1212.48181
				L3029.26246,1213.08181L3034.42243,1212.12181L3043.06238,1209.3618L3052.54233,1206.8418L3060.46228,1206.2418L3067.18224,1206.3618
				L3077.62218,1206.0018L3086.50213,1205.2818L3109.90199,1202.64179L3124.66191,1202.64179L3132.70186,1203.4818L3134.26185,1204.2018
				L3139.78182,1206.8418L3144.46179,1206.3618L3148.30177,1204.3218L3151.66175,1200.72179L3157.30172,1194.60178L3158.02172,1193.88178
				L3168.94165,1187.28177L3175.30162,1187.28177L3180.34159,1187.76177L3180.46159,1187.76177L3187.30155,1188.84177L3196.1815,1194.36178
				L3202.90146,1200.96179L3205.30144,1204.3218L3206.62143,1208.4018L3216.22138,1222.44182L3220.06136,1228.80183L3228.82131,1234.20184
				L3236.62126,1242.24185L3237.46126,1243.08185L3242.14123,1249.32186L3242.74123,1251.72187L3244.78121,1260.84188L3246.9412,1268.04189
				L3253.06117,1271.8819L3256.78114,1279.08191L3257.50114,1289.88192L3266.62109,1311.00196L3271.18106,1318.56197L3274.66104,1322.88197
				L3285.58098,1331.04199L3291.82094,1339.082L3295.54092,1346.28201L3296.86091,1361.16203L3298.9009,1369.68204L3287.38097,1372.92205
				L3273.46105,1376.88205L3259.78113,1381.68206L3252.10117,1388.40207L3247.9012,1392.48208L3242.62123,1399.20209L3236.98126,1408.9221
				L3232.06129,1417.08211L3217.30137,1434.12214L3208.06143,1438.92215L3204.70145,1440.48215L3200.38147,1444.80216L3195.5815,1450.32216
				L3194.26151,1454.64217L3190.54153,1460.64218L3180.10159,1470.60219L3168.82165,1478.76221L3168.46166,1486.20222L3169.78165,1491.12222
				L3168.58166,1499.76224L3160.5417,1512.72226L3155.50173,1521.60227L3149.02177,1524.48227L3147.34178,1531.20228L3141.22181,1545.60231
				L3137.02184,1552.68232L3135.10185,1556.16232L3131.26187,1560.96233L3127.42189,1567.80234L3124.06191,1580.04236L3117.82195,1591.32237
				L3113.74197,1597.44238L3112.30198,1605.36239L3105.94202,1611.0024L3101.14205,1612.80241L3090.22211,1616.76241L3087.82212,1618.56241
				L3081.94216,1628.04243L3076.78219,1633.32244L3067.90224,1641.36245L3060.94228,1643.04245L3051.46233,1643.04245L3040.5424,1645.80245
				L3031.06245,1652.40246L3018.10253,1660.20248L3010.54257,1662.00248L2992.90267,1665.24248L2985.70271,1669.68249L2982.70273,1680.84251
				L2977.06276,1686.84252L2976.10277,1690.56252L2975.50277,1699.68254L2977.06276,1704.12254L2979.70275,1707.84255L2980.30275,1708.80255
				L2980.18275,1712.76255L2976.58277,1718.52256L2971.3028,1722.24257L2969.98281,1722.96257L2967.58282,1724.16257L2963.62284,1726.20257
				L2954.62289,1730.52258L2948.62293,1735.20259L2940.34298,1743.3626L2940.10298,1743.8426L2936.263,1750.20261L2935.30301,1751.88261
				L2929.66304,1755.60262L2924.50307,1756.68262L2917.42311,1755.24262L2911.90314,1751.28261L2908.18316,1751.40261L2903.02319,1754.76262
				L2893.90325,1761.36263L2878.54333,1773.00264L2862.34343,1781.52266L2855.14347,1790.04267L2851.30349,1794.96268L2843.86354,1801.44269
				L2832.5836,1806.60269L2830.54361,1806.72269L2826.46364,1806.9627L2824.66365,1808.6427L2822.14366,1811.1627L2818.06368,1813.80271
				L2816.1437,1815.60271L2815.6637,1815.96271L2813.74371,1817.64271L2812.06372,1818.12271L2811.82372,1818.12271L2809.54373,1818.12271
				L2807.50375,1818.96271L2804.98376,1819.08271L2802.58377,1818.60271L2796.46381,1815.72271L2792.14383,1814.76271L2786.26387,1816.20271
				L2784.22388,1816.92271L2782.30389,1817.40271L2782.18389,1817.40271L2780.0239,1817.28271L2776.78392,1816.68271L2775.46393,1818.48271
				L2773.78394,1820.16271L2770.42396,1820.40272L2765.50399,1818.96271L2762.50401,1818.36271L2761.06401,1819.20271L2759.14403,1819.80271
				L2755.66405,1819.68271L2752.30407,1818.36271L2749.90408,1817.28271L2746.4241,1816.80271L2743.66412,1817.40271L2740.42413,1817.88271
				L2737.78415,1818.60271L2732.50418,1819.56271L2729.7442,1819.80271L2727.46421,1818.36271L2721.10425,1817.28271L2714.62428,1815.72271
				L2708.02432,1815.48271L2704.78434,1816.44271L2703.10435,1817.76271L2702.50435,1819.80271L2700.46437,1820.76272L2697.22438,1824.72272
				L2696.14439,1825.56272L2695.0644,1826.52272L2693.8644,1827.24273L2690.50442,1825.68272L2687.98444,1825.08272L2686.30445,1824.24272
				L2685.22445,1821.48272L2684.98446,1820.76272L2684.62446,1819.92271L2682.70447,1818.84271L2679.34449,1817.64271L2677.9045,1817.64271
				L2677.7845,1817.64271L2675.86451,1817.40271L2673.10452,1815.96271L2672.02453,1815.12271L2670.34454,1813.56271L2668.54455,1812.6027
				L2667.34456,1812.4827L2666.38456,1812.7227L2665.66457,1812.8427L2664.10458,1812.4827L2662.18459,1812.1227L2657.74461,1808.8827
				L2656.06462,1807.6827L2649.70466,1805.40269L2639.62472,1797.60268L2634.46475,1795.20268L2628.22478,1796.64268L2626.0648,1804.68269
				L2623.30481,1811.8827L2621.02483,1817.04271L2615.86486,1824.60272L2610.82488,1830.84273L2602.30493,1842.00275L2595.94497,1851.36276
				L2586.22503,1869.12279L2582.74505,1878.2428L2575.78509,1888.44282L2567.26514,1899.12283L2563.06516,1902.00284L2559.46518,1903.68284
				L2558.86519,1905.12284L2556.3452,1910.28285L2554.90521,1914.48286L2553.46522,1916.28286L2551.18523,1917.84286L2548.66524,1918.32286
				L2548.42525,1918.32286L2546.62526,1918.44286L2544.70527,1918.44286L2543.14528,1918.68286L2542.06528,1919.88286L2542.06528,1921.56287
				L2540.26529,1922.76287L2538.8253,1923.72287L2537.98531,1925.64287L2537.98531,1928.76288L2537.74531,1932.84288L2538.10531,1936.44289
				L2538.2253,1936.68289L2538.8253,1941.9629L2536.18532,1939.92289L2531.74534,1936.32289L2521.7854,1927.68288L2517.22543,1923.96287
				L2511.22546,1916.04286L2509.90547,1912.56285L2509.42547,1908.00285L2509.42547,1902.36284L2509.30547,1897.92283L2509.30547,1893.84282
				L2508.10548,1890.12282L2501.38552,1888.68282L2496.70555,1888.92282L2492.50557,1891.08282L2489.02559,1891.08282L2483.86562,1891.56282
				L2478.10565,1891.80282L2473.06568,1890.60282L2470.0657,1891.80282L2466.58572,1893.24282L2463.94573,1896.12283L2459.02576,1895.40283
				L2448.70582,1895.40283L2445.10584,1894.44283L2440.90587,1891.68282L2437.42589,1889.04282L2436.46589,1888.44282L2431.18592,1884.12281
				L2426.02595,1881.00281L2422.30598,1881.24281L2416.90601,1879.3228L2413.30603,1878.4828L2408.14606,1872.48279L2403.70608,1867.56279
				L2396.86612,1858.20277L2392.06615,1855.56277L2387.38618,1850.76276L2386.54618,1849.92276L2385.46619,1848.60276L2383.1862,1846.92275
				L2381.62621,1844.64275L2381.38621,1842.84275L2381.38621,1842.24275L2380.30622,1838.52274L2374.30625,1829.76273L2374.06626,1829.52273
				L2372.14627,1828.32273L2369.02628,1826.28272L2366.3863,1824.84272L2363.38632,1823.40272L2361.70633,1823.64272L2360.86633,1824.60272
				L2359.54634,1827.12273L2357.26635,1829.40273L2354.14637,1832.16273L2353.54637,1833.84274L2353.54637,1836.24274L2354.02637,1840.32274
				L2353.54637,1843.08275L2353.06638,1847.16276L2351.74638,1850.28276L2351.14639,1851.96276L2348.9864,1852.80276L2343.94643,1853.40276
				L2340.58645,1852.92276L2337.58647,1855.56277L2333.74649,1862.04278L2330.62651,1863.96278L2327.62652,1866.00278L2322.82655,1867.44279
				L2320.90656,1867.32279L2320.06657,1867.20279L2319.10657,1869.24279L2317.54658,1872.96279L2311.66662,1878.0028L2311.06662,1878.0028
				L2309.14663,1878.6028L2307.22664,1880.5228L2306.02665,1882.92281L2305.06665,1883.64281L2302.06667,1885.08281L2299.66669,1885.32281
				L2294.86671,1887.36282L2293.66672,1888.20282L2292.22673,1890.48282L2288.02675,1895.04283L2284.66677,1898.28283L2282.86678,1902.36284
				L2281.18679,1906.56284L2281.06679,1911.00285L2280.4668,1911.84285L2279.7468,1914.48286L2278.90681,1915.80286L2278.30681,1917.48286
				L2275.66682,1920.36286L2272.66684,1923.48287L2270.98685,1928.16288L2268.46687,1929.12288L2266.42688,1932.00288L2261.02691,1940.88289
				L2258.14693,1947.4829L2257.66693,1952.88291L2258.14693,1956.36292L2259.82692,1960.68292L2259.82692,1964.52293L2258.86692,1968.48294
				L2258.74692,1969.56294L2257.66693,1972.08294L2257.42693,1972.08294L2255.62694,1972.80294L2253.94695,1973.28294L2251.90696,1981.08295
				L2250.34697,1983.60296L2249.14698,1986.24296L2246.267,1990.68297L2243.14701,1994.76298L2242.42702,1997.40298L2240.38703,2002.92299
				L2239.18704,2005.32299L2238.94704,2008.323L2236.90705,2011.683L2234.98706,2015.64301L2231.86708,2019.00301L2228.6271,2024.28302
				L2225.50712,2028.60303L2223.22713,2030.64303L2222.14713,2032.56303L2220.94714,2033.52303L2218.78715,2035.08304L2218.90715,2038.08304
				L2219.38715,2041.56305L2213.02719,2038.68304L2209.30721,2037.48304L2207.26722,2036.88304L2205.46723,2035.56304L2204.62724,2035.08304
				L2202.58725,2033.16303L2201.26726,2032.68303L2199.70726,2032.80303L2199.58727,2032.68303L2196.22728,2031.60303L2194.3073,2030.64303
				L2192.38731,2029.20303L2191.42731,2028.48303L2187.70733,2025.72302L2184.34735,2023.08302L2181.46737,2020.68301L2178.34739,2018.40301
				L2176.3074,2018.16301L2175.10741,2016.84301L2170.78743,2014.323L2168.86744,2014.083L2163.70747,2011.323L2159.1475,2009.043
				L2156.14752,2005.56299L2154.94752,2003.40299L2141.8676,1998.72298L2138.62762,1997.16298L2133.70765,1996.08298L2130.70766,1995.00298
				L2129.62767,1996.20298L2128.18768,1997.28298L2127.70768,1997.52298L2124.9477,1998.60298L2121.94771,1999.44298L2119.78773,2001.00298
				L2116.66775,2003.16299L2114.86776,2004.96299L2113.30776,2005.20299L2111.14778,2004.00299L2108.86779,2002.80299L2106.10781,2001.96299
				L2103.58782,2001.48299L2101.90783,2001.48299L2100.34784,2001.72299L2099.02785,2002.44299L2097.46786,2003.28299L2093.62788,2003.76299
				L2087.62791,2003.16299L2086.18792,2003.76299L2085.10793,2004.72299L2082.70794,2004.60299L2081.50795,2003.76299L2072.268,1999.68298
				L2068.42802,1998.48298L2065.66804,1998.48298L2060.74807,1998.24298L2057.74809,1997.76298L2054.8681,1998.36298L2053.90811,1998.72298
				L2050.42813,1999.68298L2046.94815,2001.48299L2046.10815,2000.88298L2039.86819,1996.32298L2035.90821,1994.52297L2034.10822,1993.68297
				L2033.86822,1992.72297L2033.62823,1989.84297L2033.02823,1987.80296L2031.58824,1983.24296L2028.94825,1977.00295L2026.42827,1971.00294
				L2026.18827,1969.20294L2025.22827,1967.16293L2022.70829,1962.60293L2020.4283,1957.92292L2017.66832,1953.48291L2013.34834,1949.16291
				L2012.26835,1946.7629L2011.42835,1943.6429L2008.42837,1941.3629L2005.42839,1937.88289L2003.1484,1936.68289L2000.98842,1932.72288
				L2000.38842,1931.28288L1998.46843,1930.68288L1995.46845,1929.72288L1994.02846,1928.76288L1991.98847,1927.08287L1989.34848,1926.12287
				L1985.6285,1924.44287L1983.58852,1922.64287L1981.66853,1920.36286L1979.50854,1916.04286L1976.26856,1910.28285L1973.14858,1910.40285
				L1970.02859,1909.32285L1967.62861,1909.08285L1966.18862,1908.84285L1962.94864,1907.04284L1959.34866,1906.56284L1956.22867,1904.52284
				L1955.74868,1904.16284L1955.02868,1904.16284L1948.66872,1905.48284L1945.66874,1905.96284L1945.06874,1906.20284L1944.46874,1906.32284
				L1934.5088,1908.60285L1930.30882,1910.76285L1922.98887,1913.28285L1920.70888,1914.84286L1918.30889,1916.52286L1913.02892,1919.52286
				L1908.22895,1922.52287L1901.38899,1928.04288L1899.589,1930.68288L1898.50901,1933.56288L1897.78901,1934.28289L1896.34902,1934.88289
				L1895.02903,1934.88289L1893.70904,1935.36289L1891.90905,1936.80289L1886.38908,1941.0029L1885.06909,1941.6029L1883.0291,1941.8429
				L1881.58911,1941.2429L1879.78912,1940.76289L1877.98913,1939.20289L1875.22914,1938.60289L1872.70916,1938.36289L1870.78917,1937.28289
				L1868.14918,1935.12289L1863.94921,1931.64288L1857.46925,1931.04288L1854.94926,1930.32288L1851.58928,1930.32288L1850.98928,1930.08288
				L1848.8293,1929.00288L1847.5093,1924.92287L1845.46932,1919.40286L1844.74932,1915.08286L1843.78933,1913.88285L1844.26932,1908.12285
				L1843.54933,1904.88284L1842.58933,1904.16284L1841.86934,1902.96284L1840.42934,1901.40284L1839.46935,1900.08283L1839.34935,1898.88283
				L1838.14936,1897.20283L1837.78936,1895.16283L1838.02936,1887.00281L1838.02936,1870.80279L1838.98935,1866.96278L1840.42934,1862.16278
				L1840.42934,1859.88277L1837.54936,1858.32277L1832.50939,1857.96277L1827.94942,1857.96277L1825.78943,1856.52277L1825.54943,1856.40277
				L1822.18945,1853.52276L1821.58945,1851.72276L1820.74946,1849.68276L1819.06947,1847.28276L1818.82947,1845.12275L1814.98949,1843.80275
				L1810.18952,1842.24275L1799.74958,1840.44275L1792.42962,1836.84274L1788.22965,1834.44274L1782.22968,1828.92273L1779.9497,1824.24272
				L1774.90972,1821.24272L1771.90974,1820.52272L1767.70977,1819.56271L1765.42978,1820.40272L1758.58982,1823.16272L1754.98984,1827.00273
				L1751.14986,1827.96273L1747.78988,1827.24273L1740.70992,1825.32272L1737.46994,1827.24273L1733.38996,1828.20273L1730.98998,1827.84273
				L1725.59001,1827.12273L1723.31002,1828.20273L1719.95004,1829.52273L1718.15005,1829.76273L1713.47008,1830.36273L1709.3901,1828.68273
				L1703.03014,1825.56272L1695.71018,1825.20272L1686.23024,1825.80272L1680.59027,1824.48272L1670.63033,1828.32273L1664.15037,1829.28273
				L1657.4304,1830.48273L1654.19042,1832.52273L1649.63045,1834.08274L1645.19048,1835.04274L1642.67049,1837.44274L1639.19051,1841.40275
				L1635.11053,1841.64275L1633.91054,1842.60275L1630.67056,1843.32275L1628.99057,1844.28275L1624.4306,1847.88276L1609.55068,1861.92278
				L1608.47069,1865.16278L1599.23074,1875.3628L1592.27078,1879.2028L1588.5508,1883.88281L1583.99083,1890.96282L1580.63085,1893.84282
				L1578.95086,1894.68283L1576.31087,1894.68283L1568.75092,1894.80283L1560.11097,1893.72282L1557.71098,1891.56282L1556.99099,1888.08282
				L1557.11099,1885.08281L1551.71102,1881.00281L1547.51104,1881.48281L1543.79106,1881.00281L1540.79108,1879.2028L1538.63109,1878.0028
				L1536.35111,1877.6428L1534.31112,1878.3628L1531.19114,1879.2028L1529.39115,1884.36281L1526.15116,1889.28282L1521.95119,1892.88282
				L1518.47121,1895.52283L1513.55124,1898.40283L1507.07127,1900.08283L1501.43131,1901.88284L1498.19133,1906.56284L1496.03134,1909.56285
				L1489.67138,1910.04285L1487.99139,1910.16285L1481.03143,1907.76285L1475.75146,1905.00284L1466.15151,1898.04283L1461.47154,1894.32283
				L1457.75156,1891.44282L1451.0316,1890.84282L1447.55162,1900.32283L1443.23164,1910.64285L1440.95166,1922.28287L1440.71166,1924.68287
				L1440.23166,1928.52288L1439.99166,1935.60289L1437.23168,1942.5629L1430.51172,1955.64292L1428.71173,1957.44292L1425.71175,1958.28292
				L1424.03176,1959.96292L1423.31176,1959.84292L1423.31176,1961.52293L1422.71176,1966.68293L1422.35177,1970.40294L1422.35177,1973.76294
				L1422.95176,1975.20295L1423.55176,1977.12295L1424.15176,1981.92296L1425.47175,1984.32296L1426.31174,1985.28296L1425.95174,1988.88297
				L1426.31174,1991.88297L1425.59175,1993.92297L1425.23175,1995.84298L1425.35175,1997.64298L1426.31174,1998.84298L1430.27172,2002.44299
				L1430.63172,2007.48299L1426.31174,2020.56301L1424.15176,2027.64302L1418.63179,2039.04304L1415.27181,2045.64305L1416.8318,2047.20305
				L1421.03177,2051.52306L1420.79177,2055.24307L1423.67176,2066.04308L1424.03176,2069.88309L1424.27175,2070.00309L1424.39175,2070.12309
				L1424.63175,2070.24309L1424.87175,2070.48309L1425.11175,2070.48309L1425.47175,2070.60309L1426.07174,2070.96309L1426.79174,2071.44309
				L1427.15174,2071.92309L1427.51174,2072.40309L1427.99173,2072.76309L1428.23173,2073.00309L1428.59173,2073.24309L1428.95173,2073.36309
				L1429.31173,2073.60309L1429.55172,2073.96309L1429.67172,2074.32309L1429.79172,2074.92309L1429.91172,2075.2831L1430.03172,2075.6431
				L1430.15172,2075.8831L1430.39172,2076.1231L1430.51172,2076.2431L1430.99172,2076.3631L1431.83171,2076.4831L1432.67171,2076.7231
				L1433.3917,2076.7231L1433.9917,2076.8431L1434.71169,2076.9631L1435.43169,2077.0831L1436.15169,2077.3231L1436.75168,2077.6831
				L1437.23168,2077.9231L1437.71168,2078.1631L1438.19167,2078.5231L1438.55167,2078.8831L1438.79167,2079.2431L1438.91167,2079.7231
				L1439.15167,2080.2031L1439.27167,2080.6831L1439.51167,2081.0431L1439.87166,2081.4031L1440.23166,2081.76311L1440.59166,2082.00311
				L1440.83166,2082.36311L1441.07166,2082.96311L1441.19166,2083.68311L1441.31166,2084.28311L1441.31166,2084.52311L1441.19166,2084.88311
				L1441.07166,2085.24311L1440.83166,2085.48311L1440.71166,2085.72311L1440.71166,2085.84311L1440.59166,2086.08311L1440.59166,2086.32311
				L1440.71166,2086.44311L1440.95166,2086.68311L1441.19166,2086.56311L1441.55165,2086.56311L1442.51165,2085.12311L1443.35164,2085.12311
				L1443.71164,2085.12311L1443.95164,2085.24311L1444.19164,2085.48311L1444.43164,2086.08311L1444.67164,2086.68311L1444.91163,2087.40311
				L1445.03163,2087.88311L1445.27163,2088.12311L1445.39163,2088.24311L1445.75163,2088.36311L1446.23163,2088.36311L1446.83162,2088.24311
				L1447.43162,2088.12311L1447.67162,2088.12311L1447.91162,2088.12311L1448.27162,2088.24311L1448.63161,2088.36311L1449.11161,2088.72312
				L1449.59161,2089.20312L1450.0716,2089.56312L1450.5516,2089.80312L1451.1516,2089.92312L1451.99159,2089.92312L1452.83159,2089.80312
				L1453.31159,2089.92312L1453.79158,2090.16312L1454.63158,2090.64312L1455.59157,2091.36312L1456.31157,2091.96312L1456.67157,2092.32312
				L1456.91157,2092.56312L1456.91157,2093.04312L1456.91157,2093.52312L1456.91157,2093.88312L1456.79157,2094.24312L1456.43157,2094.60312
				L1455.95157,2094.96312L1455.23158,2095.32313L1454.51158,2095.80313L1453.91158,2096.28313L1453.43159,2096.88313L1452.95159,2097.24313
				L1452.11159,2097.36313L1450.9116,2097.60313L1450.3116,2097.60313L1449.23161,2097.96313L1448.15162,2098.20313L1447.43162,2098.56313
				L1446.71162,2098.92313L1446.11163,2099.28313L1445.63163,2099.76313L1445.39163,2100.24313L1445.15163,2100.72313L1445.27163,2101.08313
				L1445.27163,2101.56313L1445.51163,2101.92314L1445.99163,2102.88314L1446.35163,2103.48314L1446.59163,2104.08314L1446.95162,2104.80314
				L1447.31162,2105.16314L1447.67162,2105.40314L1448.15162,2105.52314L1448.87161,2105.76314L1449.35161,2106.00314L1449.71161,2106.36314
				L1450.0716,2107.08314L1450.6716,2107.92314L1451.3916,2108.64315L1451.99159,2109.12315L1453.19159,2109.60315L1454.27158,2109.96315
				L1455.35157,2110.32315L1456.67157,2110.56315L1457.75156,2110.80315L1459.43155,2111.04315L1460.15155,2111.16315L1460.63154,2111.40315
				L1460.87154,2111.64315L1460.99154,2112.12315L1460.99154,2112.60315L1460.99154,2112.84315L1460.99154,2113.08315L1460.87154,2113.32315
				L1460.87154,2113.56315L1460.51154,2113.92315L1459.91155,2114.28315L1459.43155,2114.64315L1459.19155,2114.88315L1458.83155,2115.12315
				L1458.95155,2115.24315L1459.19155,2115.36316L1459.31155,2115.48316L1459.43155,2115.60316L1459.43155,2115.96316L1459.43155,2116.44316
				L1459.43155,2116.80316L1459.55155,2117.04316L1459.79155,2117.28316L1460.03155,2117.64316"/>
			<path clip-path="url(#SVG_CP_1)" fill="none" stroke="#000000" stroke-width="3.95998" stroke-miterlimit="10" stroke-linecap="round" stroke-linejoin="round" d="
				M1460.03155,2117.64316L1460.27155,2117.88316L1460.75154,2118.24316L1460.99154,2118.48316L1461.23154,2118.84316L1461.47154,2119.08316
				L1461.59154,2119.56316L1461.71154,2120.04316L1461.83154,2120.52316L1461.83154,2121.12316L1461.95154,2121.72316L1462.07154,2122.32317
				L1462.19153,2122.68317L1462.43153,2123.04317L1463.03153,2123.64317L1463.51153,2124.00317L1463.87153,2124.48317L1464.11152,2124.84317
				L1464.35152,2125.08317L1464.59152,2125.44317L1464.71152,2125.68317L1464.71152,2126.16317L1464.83152,2126.52317L1464.71152,2127.00317
				L1464.71152,2127.48317L1464.47152,2127.84317L1464.23152,2128.32317L1463.87153,2128.92318L1463.51153,2129.52318L1463.03153,2130.12318
				L1462.79153,2130.72318L1462.55153,2131.20318L1462.19153,2131.56318L1461.59154,2132.04318L1460.99154,2132.40318L1460.03155,2132.88318
				L1459.43155,2133.36318L1458.95155,2133.84318L1458.59156,2134.32318L1458.35156,2134.56318L1458.23156,2134.68318L1457.87156,2134.92318
				L1457.39156,2135.04318L1457.03156,2135.16318L1456.67157,2135.40319L1456.43157,2135.76319L1456.31157,2136.12319L1456.19157,2136.48319
				L1456.07157,2136.84319L1456.07157,2137.44319L1455.83157,2138.52319L1455.59157,2139.48319L1455.47157,2139.96319L1455.23158,2140.56319
				L1454.99158,2141.16319L1454.87158,2142.00319L1454.75158,2142.3632L1454.51158,2143.6832L1454.27158,2145.0032L1454.03158,2145.7232
				L1453.67158,2146.5632L1453.31159,2147.5232L1452.71159,2148.3632L1452.47159,2149.08321L1452.11159,2150.04321L1451.7516,2151.00321
				L1451.5116,2151.48321L1451.1516,2152.32321L1450.9116,2153.16321L1450.4316,2154.24321L1450.1916,2154.96321L1450.1916,2155.20321
				L1449.95161,2155.32321L1449.71161,2155.56322L1449.83161,2155.68322L1450.1916,2156.28322L1450.4316,2156.52322L1450.6716,2156.76322
				L1450.9116,2157.00322L1451.2716,2157.36322L1451.3916,2157.48322L1451.5116,2157.48322L1451.5116,2157.60322L1451.6316,2157.60322
				L1451.7516,2157.60322L1451.87159,2157.60322L1451.99159,2157.48322L1452.35159,2157.12322L1452.71159,2156.88322L1453.07159,2156.64322
				L1453.55158,2156.52322L1453.91158,2156.52322L1454.27158,2156.52322L1454.63158,2156.52322L1454.99158,2156.64322L1455.35157,2156.76322
				L1455.47157,2157.00322L1455.83157,2157.24322L1456.07157,2157.60322L1456.19157,2157.96322L1456.55157,2158.68322L1456.67157,2158.92322
				L1456.79157,2159.04322L1457.03156,2159.16322L1457.03156,2159.28322L1457.27156,2159.28322L1457.63156,2159.40322L1457.87156,2159.40322
				L1458.35156,2159.40322L1458.71155,2159.28322L1459.31155,2159.16322L1459.67155,2159.04322L1460.15155,2159.04322L1460.51154,2159.04322
				L1460.87154,2159.04322L1461.11154,2159.04322L1461.35154,2159.16322L1461.47154,2159.28322L1461.83154,2159.88322L1462.19153,2160.24322
				L1462.31153,2160.24322L1463.87153,2161.32322L1464.47152,2161.80322L1464.95152,2162.28323L1465.55152,2162.88323L1466.39151,2163.36323
				L1467.3515,2163.60323L1468.4315,2163.84323L1469.15149,2163.96323L1469.63149,2164.32323L1470.35149,2164.80323L1470.35149,2165.40323
				L1470.35149,2166.48323L1470.35149,2166.60323L1470.47149,2167.44323L1470.71149,2168.28323L1470.83148,2168.76323L1470.95148,2169.60324
				L1471.07148,2170.32324L1471.31148,2170.68324L1471.67148,2170.92324L1472.03148,2171.04324L1472.39148,2170.92324L1473.11147,2170.68324
				L1473.71147,2170.56324L1474.43146,2170.68324L1474.67146,2170.92324L1474.79146,2171.28324L1474.79146,2172.24324L1474.67146,2173.20324
				L1474.67146,2173.80324L1474.67146,2174.52324L1474.79146,2175.24324L1474.79146,2176.20325L1474.79146,2176.92325L1474.91146,2177.64325
				L1475.15146,2178.12325L1475.27146,2178.72325L1475.27146,2179.32325L1474.91146,2179.92325L1474.67146,2180.40325L1474.19147,2180.76325
				L1473.83147,2181.00325L1473.71147,2181.60325L1473.23147,2182.32325L1472.63147,2182.68326L1472.27148,2182.80326L1471.91148,2183.04326
				L1471.43148,2183.40326L1470.95148,2184.00326L1470.23149,2184.48326L1469.39149,2184.72326L1469.0315,2184.84326L1468.1915,2184.60326
				L1467.23151,2184.24326L1466.51151,2183.76326L1465.43152,2183.76326L1464.95152,2184.00326L1464.35152,2184.48326L1463.75153,2184.84326
				L1462.55153,2185.32326L1460.75154,2185.44326L1459.55155,2185.56326L1458.35156,2185.80326L1457.63156,2186.04326L1456.79157,2186.52326
				L1456.43157,2187.00326L1456.19157,2187.60326L1456.07157,2188.20326L1456.31157,2188.80326L1456.31157,2189.76327L1456.07157,2190.72327
				L1456.07157,2191.20327L1455.47157,2191.92327L1454.99158,2192.28327L1454.27158,2192.76327L1453.67158,2193.60327L1452.83159,2194.56327
				L1452.35159,2195.16327L1451.87159,2195.76328L1451.1516,2196.24328L1450.7916,2196.48328L1450.0716,2196.60328L1449.23161,2196.60328
				L1448.51161,2195.76328L1448.27162,2195.04327L1447.79162,2193.48327L1447.43162,2192.28327L1447.19162,2190.84327L1446.83162,2189.76327
				L1446.71162,2189.28327L1446.59163,2189.52327L1446.59163,2189.64327L1445.99163,2191.20327L1445.27163,2192.28327L1444.19164,2193.60327
				L1443.47164,2194.32327L1442.39165,2195.40327L1441.31166,2196.36328L1440.71166,2197.44328L1440.35166,2198.04328L1440.23166,2198.52328
				L1440.11166,2199.12328L1439.75166,2200.20328L1439.39167,2201.40328L1439.15167,2202.12328L1438.55167,2202.96329L1438.07167,2203.68329
				L1437.95168,2203.68329L1437.47168,2204.28329L1436.75168,2204.76329L1436.27168,2205.12329L1436.03169,2205.48329L1435.79169,2205.84329
				L1435.67169,2206.32329L1435.67169,2206.92329L1435.67169,2207.52329L1435.67169,2208.12329L1435.79169,2208.48329L1435.91169,2208.84329
				L1436.03169,2209.2033L1436.15169,2209.5633L1436.39168,2210.0433L1436.51168,2210.4033L1436.75168,2210.6433L1436.99168,2211.0033
				L1437.11168,2211.2433L1437.23168,2211.2433L1437.35168,2211.4833L1437.47168,2211.8433L1437.59168,2212.3233L1437.71168,2212.6833
				L1437.71168,2213.2833L1437.71168,2213.7633L1437.71168,2214.1233L1437.47168,2214.7233L1437.23168,2215.2033L1436.51168,2216.28331
				L1435.79169,2217.60331L1435.19169,2218.92331L1435.07169,2219.16331L1434.95169,2219.64331L1434.83169,2220.12331L1434.83169,2220.48331
				L1434.95169,2221.20331L1435.07169,2222.88332L1435.07169,2223.48332L1434.95169,2224.20332L1434.95169,2224.68332L1434.95169,2224.80332
				L1434.83169,2225.40332L1434.59169,2226.24332L1434.3517,2227.32332L1433.9917,2228.64332L1433.8717,2229.72333L1433.8717,2230.32333
				L1433.8717,2230.92333L1433.9917,2231.52333L1433.9917,2231.88333L1434.4717,2231.64333L1435.31169,2231.52333L1435.79169,2231.64333
				L1436.99168,2231.64333L1439.03167,2230.08333L1439.15167,2229.72333L1439.39167,2229.36333L1440.11166,2227.80332L1440.83166,2226.24332
				L1441.19166,2225.52332L1441.19166,2225.40332L1441.31166,2225.28332L1441.55165,2225.04332L1441.67165,2225.04332L1441.67165,2224.92332
				L1441.79165,2224.92332L1441.91165,2224.92332L1442.15165,2224.92332L1442.27165,2225.04332L1442.39165,2225.04332L1442.51165,2225.04332
				L1442.75165,2225.28332L1442.99165,2225.52332L1443.35164,2226.00332L1444.19164,2227.44332L1444.43164,2227.92332L1444.67164,2228.28332
				L1444.91163,2228.88332L1444.91163,2229.00332L1445.15163,2229.36333L1445.63163,2229.84333L1445.99163,2230.44333L1446.35163,2231.16333
				L1446.59163,2231.76333L1446.71162,2232.36333L1446.71162,2232.72333L1446.71162,2233.32333L1446.71162,2234.16333L1446.83162,2235.12333
				L1446.83162,2235.72333L1447.31162,2236.92334L1447.79162,2237.52334L1448.15162,2238.00334L1448.51161,2238.60334L1448.63161,2239.08334
				L1448.99161,2239.32334L1449.47161,2239.92334L1450.0716,2240.64334L1450.6716,2241.24334L1451.0316,2241.60334L1451.5116,2242.08334
				L1451.87159,2242.56334L1452.35159,2243.16335L1452.47159,2243.28335L1452.71159,2243.76335L1452.95159,2244.00335L1453.07159,2244.84335
				L1453.19159,2245.68335L1453.55158,2246.76335L1453.91158,2247.60335L1454.27158,2248.20335L1454.63158,2248.92335L1454.87158,2249.40336
				L1455.11158,2249.76336L1455.11158,2250.12336L1455.11158,2250.36336L1455.11158,2250.72336L1454.63158,2251.44336L1454.27158,2251.92336
				L1453.79158,2252.52336L1453.55158,2253.00336L1453.31159,2253.48336L1454.27158,2254.68336L1454.63158,2255.16336L1455.11158,2255.04336
				L1455.59157,2255.04336L1456.19157,2255.16336L1456.79157,2255.52336L1457.27156,2255.88336L1457.63156,2256.36337L1457.63156,2256.48337
				L1457.87156,2257.08337L1457.99156,2257.08337L1458.11156,2257.68337L1458.23156,2257.68337L1458.23156,2257.92337L1458.35156,2258.40337
				L1458.35156,2259.12337L1458.35156,2259.24337L1458.23156,2259.36337L1458.23156,2259.48337L1458.23156,2259.60337L1458.23156,2259.96337
				L1458.83155,2259.96337L1459.19155,2260.08337L1459.67155,2260.56337L1459.91155,2261.04337L1460.27155,2261.28337L1460.63154,2261.40337
				L1461.11154,2261.64337L1461.71154,2261.88337L1462.07154,2262.24337L1462.67153,2262.84338L1462.91153,2263.56338L1463.27153,2264.28338
				L1463.39153,2264.88338L1463.39153,2265.60338L1463.51153,2265.84338L1463.87153,2265.96338L1464.23152,2266.32338L1464.71152,2266.68338
				L1465.07152,2267.28338L1465.55152,2267.88338L1465.91151,2268.48338L1466.39151,2269.44338L1466.75151,2270.76339L1466.87151,2271.48339
				L1466.87151,2272.08339L1466.51151,2273.52339L1466.51151,2273.64339L1466.51151,2273.76339L1466.39151,2274.00339L1466.39151,2274.12339
				L1466.75151,2274.12339L1467.11151,2274.24339L1467.7115,2274.60339L1468.9115,2276.04339L1469.63149,2277.2434L1471.79148,2280.8434
				L1472.03148,2281.2034L1473.95147,2284.32341L1474.31146,2285.04341L1474.55146,2285.40341L1474.91146,2286.12341L1475.03146,2286.36341
				L1475.87146,2287.80341L1476.83145,2289.48341L1477.19145,2290.20342L1477.79144,2291.28342L1478.03144,2291.88342L1478.15144,2292.12342
				L1478.27144,2292.36342L1478.27144,2292.84342L1478.27144,2293.32342L1478.27144,2293.80342L1478.03144,2294.16342L1477.31145,2295.24342
				L1475.27146,2298.36343L1470.71149,2305.08344L1468.4315,2308.08344L1468.1915,2308.32344L1467.8315,2308.68344L1467.23151,2308.92344
				L1466.03151,2309.52344L1464.35152,2310.36345L1463.51153,2310.72345L1463.15153,2310.84345L1462.43153,2311.32345L1461.71154,2311.80345
				L1457.75156,2316.36345L1455.83157,2318.40346L1455.11158,2319.36346L1454.87158,2320.56346L1454.75158,2322.36346L1454.63158,2324.28347
				L1454.75158,2326.20347L1454.75158,2328.12347L1454.63158,2329.56347L1454.15158,2331.24348L1453.55158,2332.68348L1452.95159,2334.12348
				L1452.23159,2335.68348L1451.3916,2336.88349L1450.3116,2338.32349L1449.47161,2339.16349L1448.63161,2340.24349L1447.91162,2341.20349
				L1447.55162,2342.16349L1447.19162,2343.00349L1446.95162,2344.2035L1446.83162,2345.0435L1446.59163,2346.2435L1446.35163,2347.5635
				L1446.35163,2348.6435L1446.59163,2349.4835L1446.95162,2350.44351L1447.19162,2351.28351L1447.31162,2352.12351L1447.43162,2353.20351
				L1447.55162,2355.60351L1448.03162,2357.88352L1448.39161,2359.20352L1448.99161,2360.76352L1430.63172,2363.76353L1430.51172,2363.76353
				L1429.91172,2363.88353L1429.31173,2364.00353L1427.39174,2364.24353L1429.07173,2367.00353L1430.87172,2370.24354L1428.71173,2370.84354
				L1427.15174,2371.32354L1424.75175,2372.04354L1424.39175,2372.04354L1424.27175,2372.16354L1423.67176,2372.28354L1421.27177,2373.00354
				L1410.23184,2374.80354L1406.75186,2378.04355L1405.43186,2379.00355L1403.39188,2380.44355L1400.87189,2381.40355L1396.31192,2381.04355
				L1389.23196,2382.12355L1379.03202,2384.04356L1371.23206,2383.80356L1366.91209,2383.56356L1364.0321,2383.80356L1360.07213,2385.60356
				L1358.27214,2387.04356L1357.07214,2387.52356L1351.55218,2389.56356L1334.87227,2399.76358L1331.63229,2403.12358L1325.87232,2397.00358
				L1312.7924,2382.00355L1309.55242,2371.56354L1306.31244,2368.32353L1302.35246,2360.76352L1297.67249,2352.84351L1288.91254,2343.3635
				L1285.19256,2338.44349L1283.03257,2336.28348L1283.03257,2326.80347L1282.31258,2321.28346L1283.15257,2316.60346L1279.67259,2310.36345
				L1274.63262,2297.40343L1273.43263,2292.84342L1270.67264,2281.4434L1265.03268,2272.92339L1261.7927,2262.72337L1256.03273,2261.88337
				L1246.91278,2259.12337L1239.47282,2254.92336L1238.03283,2254.08336L1228.19289,2248.80335L1214.99297,2241.72334L1202.15304,2237.64334
				L1196.99307,2237.52334L1186.55313,2238.60334L1174.5532,2240.76334L1160.15328,2244.48335L1153.91332,2248.44335L1152.11333,2248.80335
				L1150.07334,2247.12335L1145.63337,2241.72334L1139.8734,2236.68334L1132.43344,2232.96333L1128.71347,2230.32333L1126.79348,2228.40332
				L1123.79349,2225.28332L1122.1135,2223.36332L1119.23352,2220.60331L1113.11356,2221.68331L1111.91356,2222.88332L1108.19358,2227.32332
				L1104.47361,2228.28332L1098.47364,2229.96333L1097.27365,2231.28333L1092.83367,2232.48333L1088.7537,2232.36333L1079.51375,2226.96332
				L1074.59378,2221.80331L1072.07379,2220.36331L1068.35381,2220.12331L1064.39384,2219.88331L1062.23385,2219.28331L1058.87387,2216.76331
				L1056.83388,2217.72331L1053.1139,2219.40331L1043.15396,2220.24331L1036.194,2222.40331L1033.07402,2222.52331L1025.27406,2221.92331
				L1020.23409,2222.64332L1016.39412,2224.32332L1011.95414,2228.28332L1009.07416,2232.12333L1005.11418,2236.92334L1000.19421,2242.32334
				L998.15422,2246.40335L997.31423,2249.52336L994.91424,2251.68336L992.03426,2254.32336L990.23427,2253.84336L975.59435,2249.76336
				L970.91438,2248.08335L968.39439,2247.12335L946.43452,2235.24333L933.3546,2224.68332L915.3547,2188.80326L907.31475,2178.00325
				L892.91483,2165.76323L889.55485,2164.20323L881.2749,2161.56322L868.55497,2163.48323L838.79514,2169.48324L814.67528,2176.08325
				L802.55535,2177.88325L796.67539,2177.40325L792.11541,2177.04325L787.31544,2173.32324L768.11555,2143.4432L759.7156,2136.24319
				L745.19569,2124.84317L735.23574,2114.28315L728.03579,2104.08314L717.11585,2076.6031L712.91587,2054.76306L707.5159,2046.48305
				L702.23593,2041.44304L693.23599,2034.24303L689.39601,2027.16302L690.476,2024.52302L722.63582,1995.36298L738.47572,1982.52296
				L747.23567,1971.24294L764.75557,1959.12292L779.75549,1954.08291L790.19543,1952.04291L814.55528,1950.60291L844.19511,1950.12291
				L873.11495,1949.04291L899.51479,1947.72291L899.75479,1946.7629L903.71477,1937.76289L907.67475,1924.68287L914.03471,1911.00285
				L915.4747,1904.04284L907.79474,1897.80283L902.15478,1894.68283L895.67481,1891.32282L890.75484,1888.56282L880.4349,1882.20281
				L877.79492,1880.4028L869.63497,1871.76279L860.75502,1862.16278L851.27507,1840.56275L840.71513,1817.04271L837.59515,1810.2027
				L829.9152,1805.88269L819.35526,1806.60269L808.31532,1809.0027L798.71538,1812.1227L789.83543,1813.3227L776.27551,1811.8827
				L765.95557,1804.92269L761.99559,1801.68269L757.31562,1797.72268L754.91563,1793.88268L753.95564,1785.96266L758.03561,1778.52265
				L764.75557,1767.00264L764.03558,1764.60263L757.79561,1749.00261L753.47564,1737.12259L750.83565,1727.28258L750.35566,1720.80257
				L753.95564,1708.80255L753.47564,1696.80253L746.75568,1685.76251L742.9157,1676.6425L744.59569,1665.00248L744.11569,1658.52247
				L744.11569,1657.80247L720.83583,1657.32247L717.71585,1656.84247L707.27591,1651.56246L699.95595,1647.36246L681.71605,1643.88245
				L671.03612,1638.84244L657.83619,1630.44243L650.03624,1626.12243L636.23632,1624.68242L625.79638,1622.28242L621.9564,1617.48241
				L619.79641,1605.9624L619.07642,1602.96239L618.83642,1602.36239L616.67643,1601.88239L611.03646,1602.12239L605.1565,1600.44239
				L594.83656,1591.68237L588.35659,1583.52236L582.11663,1575.60235L575.87667,1567.92234L573.23668,1563.60233L567.23672,1539.8423
				L564.35673,1524.24227L563.15674,1503.24224L559.19676,1489.80222L558.95676,1474.4422L558.95676,1449.96216L558.95676,1447.08216
				L557.99677,1445.16216L554.63679,1445.16216L552.3568,1445.52216L541.67686,1447.80216L533.99691,1448.28216L533.03691,1446.12216
				L532.79692,1441.20215L533.03691,1420.56212L532.55692,1417.20211L531.11693,1413.12211L525.83696,1406.8821L512.87703,1389.60207
				L498.71711,1376.16205L493.91714,1368.00204L487.19718,1362.12203L477.23724,1351.56202L470.27728,1343.642L461.87733,1334.28199
				L451.31739,1329.72198L424.19754,1316.52196L415.3176,1308.12195L406.79765,1301.88194L394.31772,1295.88193L387.83776,1292.16193
				L384.95777,1288.56192L382.79778,1285.92192L378.71781,1279.08191L377.03782,1276.0819L374.39783,1273.0819L371.99785,1270.32189
				L371.27785,1269.60189L367.67787,1267.92189L363.83789,1271.5219L355.67794,1278.72191L346.79799,1289.52192L325.31812,1302.60194
				L303.47824,1308.36195L299.15827,1313.40196L291.47831,1323.96197L288.11833,1335.48199L285.95834,1348.20201L281.87837,1355.16202
				L277.55839,1358.04203L268.67844,1354.20202L264.35847,1350.12201L256.19852,1339.562L249.11856,1333.56199L241.9186,1316.52196
				L234.95864,1299.48194L228.23868,1286.40192L225.4787,1279.92191L216.35875,1264.44189L214.55876,1260.96188L208.1988,1257.72188
				L205.19881,1256.16187L203.15882,1253.76187L199.19885,1248.72186L192.47889,1253.76187L188.63891,1257.36188L181.31895,1258.80188
				L176.51898,1257.12188L170.15902,1254.12187L165.95904,1248.96186L162.59906,1243.68186L158.75908,1231.92184L157.07909,1223.52183
				L159.71908,1219.44182L164.51905,1211.88181L166.91903,1206.1218L170.03902,1194.12178L175.07899,1180.20176L182.99894,1162.68173
				L184.67893,1147.80171L185.99892,1119.12167L189.9589,1114.20166L193.43888,1106.52165L193.43888,1090.68163L195.83887,1078.08161
				L196.91886,1070.6416L196.91886,1059.72158L195.47887,1051.32157L191.27889,1044.24156L185.99892,1037.28155L184.31893,1033.68154
				L184.31893,1025.64153L187.79891,1015.80152L193.43888,1003.4415L199.07885,998.88149L207.8388,992.16148L214.91876,985.56147
				L221.51872,975.00145L227.15869,960.48143L231.71866,941.1614L232.43865,921.12137L231.11866,903.60135L231.11866,898.68134L
				233.15865,881.40131L233.51865,870.1213L232.79865,859.56128L236.03863,849.36127L237.35863,844.08126L243.35859,839.16125L245.27858,837.12125
				L251.75854,828.96124L256.43852,819.48122L262.67848,802.9212L265.91846,792.72118L270.11844,775.44116L273.95841,760.08113L
				275.03841,757.92113L279.83838,755.16113L289.79832,749.52112L297.83828,742.92111L319.31815,727.32109L341.51802,710.04106L
				357.71793,697.80104L366.11788,692.88103L377.03782,687.60103L391.07774,675.24101L399.23769,665.76099L401.99767,658.32098L
				405.11765,653.40097L406.79765,650.76097L410.87762,648.24097L414.7176,647.16097L428.03752,646.80097L433.07749,645.36096L440.63745,642.00096
				L447.47741,638.28095L452.87738,635.40095L457.55735,634.08095L466.4373,633.96095L472.55726,632.16094L473.87726,631.20094L
				479.27723,625.56093L486.71718,617.04092L494.03714,613.44092L501.5971,609.60091L518.037,597.60089L533.39691,585.48087L540.47687,579.48086
				L551.63681,563.40084L556.79678,557.16083L560.27676,544.68081L562.07675,537.6008L569.8767,516.24077L576.47666,500.64075L582.71663,493.32074
				L595.07656,484.56072L605.51649,480.00072L613.79645,476.28071L620.03641,475.56071L630.11635,474.84071L632.63634,481.32072
				L637.31631,493.32074L640.43629,496.20074L645.11627,496.56074L653.03622,494.16074L660.95617,492.72074L673.4361,494.04074L
				685.67603,495.48074L695.75597,498.00074L706.79591,503.88075L712.43588,509.64076L719.27584,520.92078L724.6758,525.96078L730.91577,528.60079
				L737.63573,529.56079L743.0357,528.96079L743.75569,528.84079L749.87566,530.28079L760.5556,538.9208L767.99555,546.00081L775.91551,555.00083
				L778.79549,557.16083L788.51544,556.20083L801.47536,552.60082L804.23534,550.44082L806.87533,548.28082L817.19527,539.4008L
				827.63521,531.48079L841.91513,526.44079L853.79506,523.56078L869.39497,524.16078L880.1949,524.88078L885.11488,524.88078L895.91481,524.28078
				L900.59479,524.16078L907.07475,524.16078L911.63472,525.84078L914.15471,526.80079L921.47467,525.72078L933.5946,527.52079L
				947.27452,532.08079L957.59446,538.6808L967.5544,546.48082L970.07438,552.48082L975.47435,569.64085L979.43433,575.52086L981.59432,578.40086
				L984.5943,582.24087L986.51429,587.88088L990.59427,600.2409L993.47425,597.48089L998.75422,591.96088L1014.71413,578.52086L
				1028.63404,571.08085L1036.434,570.24085L1039.55398,570.96085L1045.55395,572.40085L1054.1939,576.60086L1060.07386,576.84086
				L1067.63382,576.60086L1071.7138,574.32086L1077.59376,571.92085L1082.63373,562.92084L1090.43369,546.48082L1102.67362,511.80076
				L1106.0336,497.52074L1113.47355,499.80075L1172.75321,517.56077L1241.87281,539.88081L1284.11257,553.44083L1367.99208,578.88086
				L1380.11201,582.60087L1492.67136,617.52092L1524.95117,628.92094L1556.63099,647.28097L1577.03087,657.00098L1582.31084,656.88098
				L1591.91078,656.64098L1601.75073,655.32098L1607.75069,655.68098L1610.99067,655.92098L1614.83065,657.72098L1616.99064,653.88098
				L1618.91063,646.44096L1623.2306,629.88094L1623.4706,613.20091L1612.67066,590.52088L1602.23072,570.48085L1593.47077,549.24082
				L1586.63081,532.68079L1579.31086,504.48075L1573.91089,482.88072L1563.35095,455.04068L1554.471,439.92066L1545.35105,431.64064
				L1534.79111,420.48063L1523.51118,405.72061L1522.31119,400.9206L1522.31119,397.32059L1523.51118,391.92058L1531.55113,380.64057
				L1553.63101,363.84054L1562.87095,352.56053L1564.67094,343.20051L1567.19093,330.24049L1569.35091,324.24048L1569.83091,315.12047
				L1568.51092,305.64046L1568.75092,297.60044L1577.39087,283.56042L1586.51081,275.16041L1596.59076,270.3604L1604.15071,271.44041
				L1610.27068,274.08041L1615.67065,275.16041L1623.2306,274.68041L1633.79054,271.92041L1641.5905,270.3604L1642.79049,270.6004
				L1649.15045,271.44041L1657.7904,275.40041L1667.99034,279.00042L1675.9103,279.96042L1677.35029,279.60042L1685.63024,277.80041
				L1691.51021,274.08041L1699.79016,264.9604L1708.55011,257.28038L1715.75007,253.32038L1727.63,250.32037L1736.74995,245.16037
				L1746.58989,243.96036L1750.30987,242.64036L1752.22986,238.20036L1757.26983,228.36034L1761.5898,214.56032L1762.5498,209.28031
				L1764.22979,202.6803L1768.42976,198.9603L1777.90971,193.80029L1782.70968,190.80029L1788.58965,188.88028L1789.06964,190.32028
				L1790.62963,193.44029L1793.86961,201.2403L1797.58959,209.64031L1804.78955,219.84033L1808.14953,222.48033L1809.70952,225.36034
				L1813.9095,232.68035L1826.62942,247.80037"/>
		</g>
		<g id="sattlements">
			<path clip-path="url(#SVG_CP_1)" fill="#FF0000" fill-rule="evenodd" stroke="#000000" stroke-width="0.95999" stroke-miterlimit="10" stroke-linecap="round" stroke-linejoin="round" d="
				M1869.34918,1287.18192C1869.34918,1281.64802,1864.88996,1277.16191,1859.38924,1277.16191C1853.88851,1277.16191,1849.42929,1281.64802
				,1849.42929,1287.18192C1849.42929,1292.71582,1853.88851,1297.20194,1859.38924,1297.20194C1864.88996,1297.20194,1869.34918,1292.71582
				,1869.34918,1287.18192z"/>
			
			<path clip-path="url(#SVG_CP_1)" fill="#FF0000" fill-rule="evenodd" stroke="#000000" stroke-width="0.95999" stroke-miterlimit="10" stroke-linecap="round" stroke-linejoin="round" d="
				M1946.62873,1259.82188C1946.62873,1254.28798,1942.14265,1249.80186,1936.60879,1249.80186C1931.07493,1249.80186,1926.58885,1254.28798
				,1926.58885,1259.82188C1926.58885,1265.35578,1931.07493,1269.84189,1936.60879,1269.84189C1942.14265,1269.84189,1946.62873,1265.35578
				,1946.62873,1259.82188z"/>
			<path clip-path="url(#SVG_CP_1)" fill="#FF0000" fill-rule="evenodd" stroke="#000000" stroke-width="0.95999" stroke-miterlimit="10" stroke-linecap="round" stroke-linejoin="round" d="
				M2225.02712,1253.04187C2225.02712,1247.5411,2220.54104,1243.08185,2215.00718,1243.08185C2209.47332,1243.08185,2204.98723,1247.5411
				,2204.98723,1253.04187C2204.98723,1258.54263,2209.47332,1263.00188,2215.00718,1263.00188C2220.54104,1263.00188,2225.02712,1258.54263
				,2225.02712,1253.04187z"/>
			<path clip-path="url(#SVG_CP_1)" fill="#FF0000" fill-rule="evenodd" stroke="#000000" stroke-width="0.95999" stroke-miterlimit="10" stroke-linecap="round" stroke-linejoin="round" d="
				M1404.59187,2132.58318C1404.59187,2127.04928,1400.13265,2122.56317,1394.63193,2122.56317C1389.1312,2122.56317,1384.67198,2127.04928
				,1384.67198,2132.58318C1384.67198,2138.11708,1389.1312,2142.6032,1394.63193,2142.6032C1400.13265,2142.6032,1404.59187,2138.11708
				,1404.59187,2132.58318z"/>
			<path clip-path="url(#SVG_CP_1)" fill="#FF0000" fill-rule="evenodd" stroke="#000000" stroke-width="0.95999" stroke-miterlimit="10" stroke-linecap="round" stroke-linejoin="round" d="
				M1583.51083,1569.66234C1583.51083,1564.12844,1579.05161,1559.64233,1573.55089,1559.64233C1568.05017,1559.64233,1563.59095,1564.12844
				,1563.59095,1569.66234C1563.59095,1575.19624,1568.05017,1579.68236,1573.55089,1579.68236C1579.05161,1579.68236,1583.51083,1575.19624
				,1583.51083,1569.66234z"/>

				<path clip-path="url(#SVG_CP_1)" fill="#FF0000" fill-rule="evenodd" stroke="#000000" stroke-width="0.95999" stroke-miterlimit="10" stroke-linecap="round" stroke-linejoin="round" d="
				M1583.51083,1569.66234C1583.51083,1564.12844,1579.05161,1559.64233,1573.55089,1559.64233C1568.05017,1559.64233,1563.59095,1564.12844
				,1563.59095,1569.66234C1563.59095,1575.19624,1568.05017,1579.68236,1573.55089,1579.68236C1579.05161,1579.68236,1583.51083,1575.19624
				,1583.51083,1569.66234z" transform="translate(-850, -2195) scale(2.0)"/>
		</g>
		<g id="sattlements_Anno_7">
			<g font-family="'Sylfaen'" font-size="1" kerning="0" font-weight="700" fill="#000000" clip-path="url(#SVG_CP_1)" >
				<text text-anchor="start" transform="matrix(49.91971 0 0 49.92007 1596.23076 1268.16189)" >
					<tspan direction="ltr" unicode-bidi="embed" x="0 "></tspan>
					<tspan direction="ltr" unicode-bidi="embed" x="0.51443 "></tspan>
					<tspan direction="ltr" unicode-bidi="embed" x="1.20914 "></tspan>
					<tspan direction="ltr" unicode-bidi="embed" x="1.88944 "></tspan>
					<tspan direction="ltr" unicode-bidi="embed" x="2.43992 "></tspan>
					<tspan direction="ltr" unicode-bidi="embed" x="2.9255 "></tspan>
					<tspan direction="ltr" unicode-bidi="embed" x="3.50003 "></tspan>
					<tspan direction="ltr" unicode-bidi="embed" x="4.05051 "></tspan>
					<tspan direction="ltr" unicode-bidi="embed" x="4.57455 "></tspan>
				</text>
			</g>
			<g font-family="'Sylfaen'" font-size="1" kerning="0" font-weight="700" fill="#000000" clip-path="url(#SVG_CP_1)" >
				<text text-anchor="start" transform="matrix(49.91971 0 0 49.92007 1157.7533 2126.52317)" >
					<tspan direction="ltr" unicode-bidi="embed" x="0 "></tspan>
					<tspan direction="ltr" unicode-bidi="embed" x="0.51443 "></tspan>
					<tspan direction="ltr" unicode-bidi="embed" x="1.25001 "></tspan>
					<tspan direction="ltr" unicode-bidi="embed" x="2.08175 "></tspan>
					<tspan direction="ltr" unicode-bidi="embed" x="2.50002 "></tspan>
					<tspan direction="ltr" unicode-bidi="embed" x="3.2356 "></tspan>
					<tspan direction="ltr" unicode-bidi="embed" x="3.9183 "></tspan>
				</text>
			</g>
			<g font-family="'Sylfaen'" font-size="1" kerning="0" font-weight="700" fill="#000000" clip-path="url(#SVG_CP_1)" >
				<text text-anchor="start" transform="matrix(49.91971 0 0 49.92007 1579.07086 1540.5623)" >
					<tspan direction="ltr" unicode-bidi="embed" x="0 "></tspan>
					<tspan direction="ltr" unicode-bidi="embed" x="0.45193 "></tspan>
					<tspan direction="ltr" unicode-bidi="embed" x="1.14664 "></tspan>
					<tspan direction="ltr" unicode-bidi="embed" x="1.65386 "></tspan>
				</text>
			</g>
			<g font-family="'Sylfaen'" font-size="1" kerning="0" font-weight="700" fill="#000000" clip-path="url(#SVG_CP_1)" >
				<text text-anchor="start" transform="matrix(70.91971 0 0 70.92007 2240.38703 891.60133)" >
					<tspan direction="ltr" unicode-bidi="embed" x="0 "></tspan>
					<tspan direction="ltr" unicode-bidi="embed" x="0.48558 "></tspan>
					<tspan direction="ltr" unicode-bidi="embed" x="1.21636 "></tspan>
					<tspan direction="ltr" unicode-bidi="embed" x="1.68271 "></tspan>
					<tspan direction="ltr" unicode-bidi="embed" x="2.3654 "></tspan>
					<tspan direction="ltr" unicode-bidi="embed" x="2.78608 "></tspan>
					<tspan direction="ltr" unicode-bidi="embed" x="3.27166 "></tspan>
					<tspan direction="ltr" unicode-bidi="embed" x="3.76926 "></tspan>
					<tspan direction="ltr" unicode-bidi="embed" x="4.25484 "></tspan>
					<tspan direction="ltr" unicode-bidi="embed" x="4.80532 "></tspan>
					<tspan direction="ltr" unicode-bidi="embed" x="5.2909 "></tspan>
					<tspan direction="ltr" unicode-bidi="embed" x="6.12264 "></tspan>
				</text>
			</g>
			<g font-family="'Sylfaen'" font-size="1" kerning="0" font-weight="700" fill="#000000" clip-path="url(#SVG_CP_1)" >
				<text text-anchor="start" transform="matrix(49.91971 0 0 49.92007 1941.10876 1249.20186)" >
					<tspan direction="ltr" unicode-bidi="embed" x="0 "></tspan>
					<tspan direction="ltr" unicode-bidi="embed" x="0.48558 "></tspan>
					<tspan direction="ltr" unicode-bidi="embed" x="1.03366 "></tspan>
					<tspan direction="ltr" unicode-bidi="embed" x="1.72838 "></tspan>
					<tspan direction="ltr" unicode-bidi="embed" x="2.21636 "></tspan>
				</text>
			</g>
			<g font-family="'Sylfaen'" font-size="1" kerning="0" font-weight="700" fill="#000000" clip-path="url(#SVG_CP_1)" >
				<text text-anchor="start" transform="matrix(49.91971 0 0 49.92007 2215.06718 1241.64185)" >
					<tspan direction="ltr" unicode-bidi="embed" x="0 "></tspan>
					<tspan direction="ltr" unicode-bidi="embed" x="0.48558 "></tspan>
					<tspan direction="ltr" unicode-bidi="embed" x="0.97116 "></tspan>
				</text>
			</g>
		</g>
	</g>
</svg>
