<?xml version="1.0" encoding="utf-8" standalone="no"?>
<!-- Creator: Esri ArcMap 10.9.1.28388 -->
<!DOCTYPE svg PUBLIC "-//W3C//DTD SVG 1.1//EN"  "http://www.w3.org/Graphics/SVG/1.1/DTD/svg11.dtd">
<svg width="2592pt" height="3456pt" viewBox="0 0 2592 3456" enable-background="new 0 0 2592 3456"
	version="1.1" xmlns="http://www.w3.org/2000/svg" xmlns:xlink="http://www.w3.org/1999/xlink" >
	<g id="Layers">
		<g id="municipal">
			<path clip-path="url(#SVG_CP_1)" fill="#9e6e9c" fill-rule="evenodd" stroke="none" d="M2132.76,308.75689L2138.76,352.67645
				L2138.76,353.03645L2139.12,356.63641L2141.52,378.35619L2141.4,380.15617L2141.28,383.03614L2141.16,386.15611L2139.48,425.03572
				L2140.68,438.59559L2140.68,448.55549L2130.72,464.51532L2118.72,478.55518L2102.76,490.43506L2093.16,500.15497L2092.8,500.51496
				L2078.76,510.47486L2054.88,524.39472L2024.88,530.39466L2012.16,532.55464L1979.76,540.83456L1953.96,546.95449L1949.04,548.03448
				L1944.96,548.99447L1908.72,557.63439L1908.6,557.63439L1905.6,559.31437L1904.88,560.51436L1904.16,561.59435L1903.56,562.43434
				L1903.32,563.87432L1902.96,564.83431L1902.6,565.31431L1902.24,565.55431L1902,565.79431L1901.04,566.99429L1900.44,567.59429
				L1899,568.67428L1898.16,569.27427L1897.8,569.63427L1897.2,570.23426L1895.4,572.15424L1893.84,573.83422L1893,575.27421L1891.44,572.51424
				L1890.72,571.19425L1886.76,563.99432L1885.8,562.43434L1884.96,562.55434L1869.12,564.95431L1869,564.95431L1865.16,575.03421
				L1863.48,579.59417L1870.92,589.19407L1867.68,591.47405L1867.2,591.83404L1863.24,594.71401L1862.52,595.31401L1857.12,599.27397
				L1853.4,602.03394L1851.36,603.59392L1844.28,608.87387L1840.92,607.91388L1838.64,607.19389L1836.36,606.3539L1830.84,604.43392
				L1824.6,602.39394L1821.6,601.31395L1812.48,609.95386L1812,610.43386L1809.72,613.19383L1807.68,614.15382L1804.44,615.7138
				L1799.4,622.07374L1809.36,630.11366L1811.4,631.79364L1812.36,632.51363L1811.4,633.35362L1810.08,634.55361L1811.88,642.23354
				L1812.84,646.43349L1813.56,648.95347L1814.52,652.43343L1815.12,654.23341L1814.4,654.71341L1807.92,658.43337L1807.68,658.55337
				L1810.32,660.95335L1815.48,665.8733L1815.12,668.87327L1814.4,675.3532L1813.92,679.31316L1808.16,676.55319L1803.48,674.27321
				L1794.84,680.15315L1799.76,685.3131L1800.36,685.9131L1805.04,688.19307L1812.24,691.67304L1813.08,692.03303L1813.08,693.35302
				L1813.08,694.19301L1813.08,696.35299L1813.08,696.71299L1813.08,698.75297L1813.08,698.99296L1813.32,699.11296L1828.92,702.11293
				L1827,707.27288L1826.52,708.47287L1825.44,711.23284L1825.08,712.31283L1824.72,713.27282L1824.48,714.47281L1824.24,715.6728
				L1824,718.55277L1824.48,720.47275L1825.08,721.31274L1825.2,721.55274L1825.92,722.39273L1828.2,723.95271L1829.76,724.67271
				L1830.6,725.0327L1832.88,726.23269L1835.04,727.55268L1842.96,732.47263L1846.08,734.51261L1849.2,736.43259L1851.36,737.75257
				L1849.32,736.91258L1845.24,735.2326L1839.84,733.07262L1838.64,732.59263L1828.32,728.39267L1817.04,723.83271L1815.96,723.47272
				L1813.92,722.63273L1810.92,723.95271L1807.44,725.6327L1806.36,725.99269L1804.44,726.95268L1803.12,727.55268L1801.92,728.03267
				L1800.6,728.63267L1797.36,728.51267L1785.48,727.91267L1780.2,727.55268L1776.36,728.51267L1771.08,729.83265L1748.64,735.2326
				L1740.84,746.03249L1739.88,750.71244L1738.2,759.11236L1733.4,770.51224L1730.64,776.27219L1730.52,776.39219L1730.52,776.51218
				L1730.64,782.27213L1728.96,782.39212L1727.88,782.63212L1723.08,779.39215L1723.08,779.15216L1723.56,775.79219L1723.8,773.99221
				L1724.4,770.15225L1724.52,769.31226L1725.12,765.1123L1725.48,762.95232L1726.08,758.87236L1722.84,757.67237L1716.84,755.3924
				L1716,754.9124L1715.16,754.43241L1714.56,754.07241L1712.64,752.87242L1706.76,749.63245L1706.16,749.15246L1706.04,749.15246
				L1704.12,748.07247L1701.96,747.35248L1694.16,737.99257L1690.68,739.55256L1683.12,742.31253L1682.16,742.67252L1672.32,751.19244
				L1667.88,755.0324L1659.36,763.55231L1657.68,766.67228L1656.84,768.11227L1656,768.95226L1655.88,769.07226L1653.72,771.23224
				L1651.8,773.51221L1650.96,774.4722L1648.68,777.23218L1648.44,778.79216L1648.2,779.99215L1647.72,783.95211L1645.32,791.51203
				L1635.96,791.87203L1628.76,792.23203L1628.76,816.11179L1636.68,836.15158L1644.72,864.1113L1644.72,880.31114L1644.72,885.11109
				L1644.72,899.99094L1631.28,902.27092L1626.48,903.11091L1620.72,904.0709L1619.88,905.15089L1618.2,907.19087L1604.76,923.9907
				L1584.36,944.2705L1575.6,952.91041L1572,956.63037L1570.8,957.71036L1570.56,958.07036L1568.4,960.23033L1567.68,970.19023L
				1566.36,988.19005L1565.76,996.10997L1565.64,999.22994L1564.92,1008.82985L1564.44,1016.14977L1554.48,1024.06969L1545.36,1031.38962
				L1545.24,1031.50962L1545.12,1031.50962L1544.4,1032.10961L1525.44,1044.34949L1521.36,1061.38932L1517.64,1074.94918L1512.96,1091.74901
				L1511.64,1099.42893L1510.92,1103.98889L1510.56,1106.02887L1508.88,1115.74877L1508.88,1148.14844L1508.88,1155.70837L1499.28,1168.54824
				L1495.56,1173.34819L1487.4,1184.14808L1495.68,1199.86792L1498.08,1204.66787L1500.48,1209.10783L1500.48,1217.38775L1500.48,1223.74768
				L1500.48,1235.14757L1483.44,1252.0674L1484.16,1273.18718L1484.28,1277.02715L1485,1295.26696L1485,1297.78694L1485.12,1298.86693
				L1485.36,1307.26684L1485.48,1310.02681L1482.48,1325.98665L1482.24,1330.54661L1480.92,1359.34632L1465.8,1383.22608L1461.48,1389.82601
				L1449.72,1416.46574L1447.08,1422.34568L1445.52,1425.82565L1445.4,1425.94565L1434.24,1448.38542L1433.52,1449.82541L1433.52,1469.74521
				L1429.56,1501.66488L1425.6,1525.66464L1425.6,1525.90464L1425.6,1526.02464L1425.6,1526.14464L1425.6,1526.26464L1425.6,1541.62448
				L1425.6,1561.66428L1428,1574.02416L1429.56,1581.58408L1437.48,1601.50388L1424.52,1621.06368L1424.4,1621.18368L1424.4,1621.30368
				L1421.52,1625.50364L1397.64,1625.50364L1384.08,1625.50364L1381.56,1625.50364L1361.28,1637.14352L1353.6,1641.46348L1323.48,1663.42326
				L1317.6,1667.74321L1312.56,1671.34318L1309.68,1673.38316L1309.08,1673.62315L1297.8,1677.46311L1289.88,1697.02292L1289.76,1697.38291
				L1286.04,1707.34281L1277.76,1729.30259L1277.76,1732.54256L1277.76,1751.26237L1277.76,1761.34227L1313.76,1777.30211L1337.64,1789.30199
				L1369.68,1797.22191L1389.6,1825.18163L1405.56,1849.18139L1413.6,1869.10119L1397.64,1901.14086L1377.6,1933.06054L1357.68,1949.02038
				L1345.68,1968.94018L1333.68,1996.8999L1328.76,2001.81985L1328.64,2002.05985L1328.4,2002.17985L1325.76,2004.93982L1325.76,2009.61977
				L1325.76,2020.89966L1330.2,2034.45952L1333.68,2044.89942L1334.88,2046.9394L1335.12,2047.29939L1335.24,2047.41939L1335.24,2047.53939
				L1335.24,2047.65939L1335.48,2048.01938L1339.92,2055.45931L1339.92,2055.57931L1340.04,2055.69931L1361.64,2092.77893L1373.64,2120.73865
				L1374.48,2122.41864L1389,2151.45834L1392.12,2157.69828L1393.56,2160.69825L1409.52,2184.69801L1437.48,2196.57789L1438.2,2197.41788
				L1442.28,2202.21783L1444.08,2204.37781L1444.08,2204.49781L1445.4,2206.05779L1446,2206.77779L1446.12,2206.89779L1446.12,2207.01778
				L1457.52,2220.57765L1469.52,2244.57741L1481.52,2260.53725L1493.4,2276.49708L1485.48,2308.41676L1485.48,2317.17668L1485.48,2317.29667
				L1485.48,2317.41667L1485.48,2324.4966L1485.48,2340.45644L1473.24,2347.77637L1473.12,2347.77637L1473,2347.89637L1465.44,2352.45632
				L1457.76,2387.37597L1457.64,2387.49597L1457.64,2387.61597L1457.52,2388.33596L1451.4,2392.41592L1449.72,2393.49591L1448.76,2394.0959
				L1448.64,2394.2159L1448.52,2394.3359L1431.96,2405.37579L1424.16,2410.53574L1421.52,2412.33572L1417.56,2428.29556L1416.6,2429.49554
				L1416.48,2429.61554L1416.36,2429.73554L1416.36,2429.85554L1401.6,2448.21536L1390.2,2465.37518L1385.64,2472.21511L1377.6,2488.17495
				L1375.44,2496.93487L1375.44,2497.05486L1375.32,2497.17486L1373.64,2504.13479L1373.64,2520.09463L1375.44,2520.81463L1389.72,2525.49458
				L1389.84,2525.61458L1389.96,2525.61458L1391.88,2526.21457L1397.64,2528.13455L1407.12,2540.01443L1413.6,2548.05435L1419.72,2553.2143
				L1426.32,2558.73424L1426.44,2558.85424L1426.56,2558.97424L1437.48,2568.09415L1437.48,2588.01395L1437.48,2594.37388L1437.48,2600.01383
				L1451.04,2620.29362L1453.56,2624.01359L1459.8,2633.37349L1465.08,2641.41341L1469.52,2647.89335L1471.92,2652.8133L1481.52,2671.8931
				L1489.8,2677.41305L1496.76,2682.093L1497,2682.213L1497.12,2682.333L1500,2684.25298L1501.2,2685.09297L1504.44,2687.25295L
				1505.4,2687.85294L1537.44,2691.9329L1540.92,2690.73291L1542.72,2690.13292L1542.84,2690.01292L1542.96,2690.01292L1546.44,2688.81293
				L1549.2,2687.97294L1561.32,2683.89298L1563.84,2682.093L1589.28,2663.97318L1629.24,2651.9733L1657.2,2667.93314L1657.92,2668.53314
				L1677.12,2683.89298L1705.08,2695.89286L1729.08,2735.85246L1761,2727.81254L1788.96,2723.85258L1812.96,2719.89262L1852.92,2719.89262
				L1860.84,2731.7725L1860.84,2747.85234L1840.92,2759.73222L1844.88,2779.77202L1880.88,2787.69194L1908.84,2799.69182L1928.76,2811.6917
				L1936.8,2819.73162L1948.8,2851.65129L1952.76,2879.61101L1956.72,2907.57073L1932.48,2921.49059L1923,2916.81064L1921.92,2916.33064
				L1907.4,2911.89069L1889.88,2910.6907L1878.96,2912.37068L1875.96,2912.85068L1875.72,2912.73068L1859.76,2902.77078L1851.72,2915.49065
				L1844.04,2927.85053L1843.08,2928.93052L1825.8,2948.13032L1807.2,2968.05012L1794.6,2981.96998L1788.12,2995.16985L1780.8,3020.84959
				L1780.56,3021.92958L1779.84,3021.92958L1778.16,3022.04958L1777.32,3020.60959L1776.72,3019.40961L1774.68,3015.68964L1772.16,3012.44968
				L1769.16,3009.8097L1765.2,3007.64972L1760.52,3005.48975L1758.96,3004.88975L1758.48,3004.76975L1756.92,3004.28976L1754.4,3003.44977
				L1752,3002.96977L1751.28,3002.84977L1749.84,3002.48978L1747.68,3001.28979L1745.52,3000.3298L1744.56,2999.9698L1743.72,2999.7298
				L1743.24,2999.60981L1742.88,2999.60981L1742.04,2999.48981L1740.48,2999.60981L1738.68,2999.60981L1736.4,2999.48981L1734.24,2999.8498
				L1731.12,3000.5698L1729.8,3001.16979L1728.6,3002.00978L1726.92,3002.72977L1725.24,3003.44977L1724.04,3004.16976L1723.2,3005.00975
				L1723.08,3006.08974L1723.44,3007.04973L1723.2,3007.88972L1722.48,3008.60971L1721.28,3008.96971L1720.2,3009.56971L1719.36,3009.9297
				L1718.76,3010.76969L1718.4,3012.08968L1717.92,3013.04967L1717.44,3013.64966L1716.36,3014.24966L1715.4,3014.96965L1714.56,3015.92964
				L1713.84,3016.52964L1713,3017.00963L1712.28,3017.36963L1712.16,3017.36963L1711.32,3017.84962L1710.6,3018.44962L1709.88,3019.04961
				L1708.32,3019.6496L1708.08,3019.7696L1707.96,3019.7696L1707.84,3019.7696L1707.72,3019.8896L1707.6,3019.8896L1707.48,3019.8896
				L1706.88,3020.0096L1706.16,3020.0096L1705.8,3020.0096L1705.08,3020.0096L1704.12,3020.0096L1703.76,3020.0096L1703.64,3020.0096
				L1701.12,3020.3696L1701,3020.3696L1700.4,3020.3696L1700.16,3020.4896L1699.92,3020.4896L1699.56,3021.44959L1699.2,3022.40958
				L1698.36,3024.32956L1698.36,3025.64954L1698.72,3026.48953L1700.64,3028.52951L1702.68,3030.92949L1703.16,3031.76948L1703.76,3032.72947
				L1704.12,3034.40946L1704.24,3035.12945L1704.36,3037.16943L1704.48,3038.60941L1704.48,3038.84941L1704.72,3040.40939L1705.56,3042.08938
				L1706.16,3043.52936L1706.28,3045.20935L1706.4,3045.92934L1701.72,3045.44934L1677.36,3032.48947L1672.2,3020.4896L1670.04,3016.28964
				L1669.8,3015.80964L1659.48,3014.36966L1648.44,2998.76981L1637.88,2990.1299L1623.96,2999.9698L1623.84,2999.9698L1623.84,3000.0898
				L1623.72,3000.0898L1620.84,3002.12978L1593.36,3003.08977L1581.12,3000.0898L1583.16,2984.24996L1579.08,2978.13002L1578.96,2977.89002
				L1578.96,2977.77003L1574.52,2970.93009L1570.44,2966.49014L1555.8,2958.33022L1534.08,2952.09028L1521.96,2944.17036L1521.84,2944.17036
				L1521.72,2944.05036L1519.92,2942.85038L1519.68,2942.73038L1519.56,2942.73038L1517.16,2919.57061L1512,2913.57067L1484.88,2898.45082
				L1477.68,2895.93085L1475.88,2895.21086L1471.08,2893.53087L1464,2901.2108L1457.4,2899.05082L1450.44,2896.53084L1432.2,2898.81082
				L1434.36,2923.53057L1434.96,2930.9705L1435.2,2932.65048L1435.44,2935.53045L1455.84,2933.37047L1460.76,2932.89048L1454.16,2949.21031
				L1481.76,2954.01026L1484.04,2954.49026L1487.28,2957.49023L1493.52,2963.37017L1503.84,2988.92991L1505.16,2991.92988L1489.32,3004.76975
				L1487.28,3007.28973L1480.32,3015.92964L1466.88,3026.36954L1464.36,3042.32938L1464.24,3043.40936L1467.24,3045.44934L1481.28,3048.92931
				L1513.2,3075.68904L1532.76,3098.12881L1514.04,3116.24863L1494.6,3122.48857L1493.4,3122.96856L1479.72,3127.40852L1473.36,3131.24848
				L1472.64,3131.72848L1470.24,3133.04846L1448.4,3146.12833L1448.28,3146.24833L1447.08,3145.76833L1446.48,3145.52834L1445.76,3145.16834
				L1438.8,3142.28837L1439.16,3146.96832L1437.96,3148.16831L1437.24,3148.7683L1433.4,3152.36827L1425,3154.52825L1417.8,3156.32823
				L1413.72,3153.56826L1412.16,3152.48827L1410.24,3151.16828L1404.84,3152.48827L1402.68,3149.0083L1396.44,3150.32829L1394.04,3149.96829
				L1392.12,3149.6083L1390.92,3148.7683L1388.76,3145.16834L1385.52,3142.52837L1379.88,3137.72842L1377.96,3139.4084L1377.24,3140.12839
				L1376.76,3140.36839L1376.76,3140.48839L1376.64,3140.60839L1374.6,3142.40837L1374.12,3142.76836L1373.16,3143.60836L1368,3148.04831
				L1374.12,3149.72829L1371.84,3153.20826L1369.08,3157.64821L1371.12,3160.76818L1361.64,3163.04816L1358.16,3164.00815L1357.92,3164.00815
				L1356.12,3164.48815L1355.52,3164.36815L1353,3163.88815L1348.8,3173.48806L1349.64,3186.68792L1348.08,3191.00788L1347.84,3191.72787
				L1347.6,3192.20787L1346.76,3197.60781L1347,3199.1678L1348.44,3199.52779L1353.48,3200.84778L1355.28,3203.48775L1335.48,3203.48775
				L1335.48,3268.4071L1330.2,3276.32702L1321.44,3289.40689L1316.88,3296.24682L1316.88,3298.88679L1316.76,3298.88679L1315.92,3298.6468
				L1315.8,3298.5268L1314.84,3298.1668L1313.88,3297.8068L1313.28,3297.56681L1312.8,3297.32681L1312.32,3297.08681L1311.72,3296.96681
				L1310.88,3296.72681L1310.52,3296.60682L1310.4,3296.60682L1310.04,3296.48682L1309.32,3296.12682L1306.92,3295.04683L1306.2,3294.56684
				L1305.84,3294.20684L1304.52,3293.12685L1303.92,3292.64686L1303.8,3292.40686L1303.08,3291.56687L1302.24,3290.72688L1302.12,3290.72688
				L1301.76,3290.36688L1299.96,3289.16689L1299.12,3288.5669L1299,3288.4469L1298.88,3288.3269L1298.52,3287.9669L1297.8,3287.48691
				L1296.96,3287.12691L1296.84,3287.12691L1296.36,3286.88691L1296,3286.88691L1295.4,3286.88691L1294.8,3287.00691L1294.32,3287.12691
				L1292.52,3287.8469L1290.36,3289.04689L1289.64,3289.40689L1288.8,3289.76688L1288.2,3289.88688L1287.96,3289.88688L1287.72,3289.88688
				L1287.6,3289.76688L1286.04,3289.16689L1285.92,3289.04689L1285.8,3289.04689L1284.6,3288.5669L1283.88,3288.2069L1283.76,3288.2069
				L1283.28,3288.0869L1283.04,3287.9669L1282.44,3287.8469L1281.72,3287.8469L1280.88,3287.8469L1280.4,3287.9669L1280.28,3287.9669
				L1280.16,3287.9669L1278.96,3288.2069L1278.48,3288.2069L1277.88,3288.3269L1277.16,3288.3269L1276.44,3288.5669L1276.08,3288.6869
				L1275.84,3288.5669L1275.72,3288.4469L1275.24,3287.9669L1275,3287.60691L1274.88,3287.48691L1274.16,3286.28692L1273.92,3285.92692
				L1273.32,3285.20693L1272.96,3284.84693L1272.6,3284.72694L1272.24,3284.48694L1271.52,3284.36694L1271.16,3284.24694L1268.64,3283.52695
				L1268.28,3283.40695L1267.8,3283.16695L1267.08,3282.80695L1266.6,3282.68696L1265.4,3282.32696L1265.28,3282.20696L1265.16,3282.20696
				L1264.2,3281.96696L1263.72,3281.84696L1262.16,3281.36697L1261.8,3281.36697L1261.68,3281.36697L1261.56,3281.24697L1261.32,3281.24697
				L1260.72,3281.00697L1259.88,3280.52698L1259.16,3280.16698L1258.92,3280.04698L1258.8,3280.16698L1258.68,3280.16698L1258.44,3280.16698
				L1258.32,3280.16698L1257.6,3280.52698L1257.48,3280.64698L1257.36,3280.64698L1257.24,3280.76698L1256.88,3280.88697L1254.84,3282.32696
				L1254.36,3282.56696L1254.12,3282.68696L1253.28,3283.04695L1252.68,3283.28695L1252.44,3283.40695L1251.36,3283.52695L1251.12,3283.52695
				L1250.52,3283.52695L1250.4,3283.52695L1249.44,3283.28695L1248.36,3282.92695L1246.68,3282.20696L1246.44,3282.08696L1246.2,3282.08696
				L1245.96,3282.20696L1245.84,3282.20696L1245.96,3282.08696L1246.44,3281.72697L1246.68,3281.00697L1246.92,3279.80698L1247.28,3276.92701
				L1248,3272.84705L1249.08,3266.48712L1249.56,3263.24715L1250.16,3261.08717L1250.52,3258.8072L1250.64,3256.52722L1250.76,3253.88725
				L1250.64,3251.12727L1250.04,3246.92732L1249.56,3244.16734L1248.84,3239.0074L1248.24,3235.40743L1248.24,3232.88746L1247.16,3226.40752
				L1246.44,3222.44756L1246.08,3219.0876L1245.36,3216.44762L1243.92,3211.76767L1242.72,3207.32771L1242,3204.44774L1240.56,3199.0478
				L1238.76,3193.04786L1237.32,3189.44789L1236.72,3188.00791L1235.88,3185.84793L1234.56,3184.28795L1233.12,3182.84796L1231.8,3182.36797
				L1229.76,3181.40798L1227.6,3180.20799L1226.64,3179.60799L1225.44,3178.768L1224.12,3177.44802L1223.28,3176.12803L1222.8,3174.56804
				L1222.8,3174.32805L1222.68,3173.84805L1222.32,3172.28807L1221.96,3170.00809L1221.72,3166.76812L1221.72,3164.48815L1221.72,3162.68816
				L1221.36,3160.52819L1221.36,3158.36821L1221.36,3155.96823L1221.72,3153.44826L1221.84,3151.40828L1222.08,3147.56832L1222.2,3143.48836
				L1222.2,3140.84838L1221.84,3139.0484L1221.24,3137.00842L1220.4,3134.12845L1219.2,3129.92849L1217.4,3123.80856L1216.44,3119.7286
				L1216.32,3119.6086L1216.32,3119.4886L1216.32,3119.3686L1215.96,3118.16861L1215.6,3116.24863L1215.6,3113.84866L1215.84,3110.48869
				L1215.96,3104.60875L1216.44,3100.04879L1216.92,3092.00888L1217.64,3082.64897L1218.48,3072.44907L1212.96,3070.40909L1202.64,3068.36911
				L1191,3063.32916L1190.28,3062.96917L1176.48,3056.96923L1166.4,3053.84926L1164.36,3053.48926L1152.72,3051.44928L1135.44,3046.64933
				L1125.84,3044.00936L1125.48,3044.00936L1111.68,3040.1694L1095.48,3031.76948L1083,3025.28955L1078.56,3025.16955L1072.56,3024.92955
				L1072.44,3024.92955L1072.08,3024.92955L1071.96,3024.92955L1062.36,3024.44956L1039.2,3024.20956L1017.12,3025.40955L995.76,3025.40955
				L984,3025.40955L973.44,3024.44956L966.96,3023.96956L965.4,3023.72956L965.04,3023.72956L964.92,3023.72956L964.8,3023.72956
				L964.44,3023.72956L962.76,3023.60956L945.72,3019.16961L931.44,3015.56964L930,3015.08965L929.76,3014.96965L928.92,3014.72965
				L928.68,3014.72965L927.12,3014.24966L924.84,3013.64966L923.4,3013.16967L921.72,3012.68967L921.36,3012.56968L919.68,3012.08968
				L919.44,3012.08968L918.96,3011.96968L918.84,3011.96968L918.48,3011.84968L918.24,3011.84968L915.6,3011.24969L915.12,3011.12969
				L914.88,3011.12969L913.56,3010.76969L913.2,3010.76969L913.08,3010.64969L912.96,3010.64969L912.6,3010.5297L912.12,3010.5297
				L904.44,3008.84971L901.92,3008.24972L901.68,3008.12972L901.08,3008.00972L893.28,3006.20974L891.6,3005.84974L849.36,2996.72983
				L834,2997.32983L833.88,2997.32983L833.4,2997.32983L831.36,2997.44983L829.44,2997.68982L829.2,2997.68982L817.92,2998.64982
				L817.56,2998.64982L814.08,2999.00981L810.24,2999.60981L801.48,3000.92979L799.92,3001.16979L773.64,3004.28976L760.44,3003.44977
				L754.68,3002.96977L743.16,2999.8498L734.16,2996.24984L715.68,2988.80991L700.44,2980.41L697.08,2977.53003L697.08,2977.41003
				L696.84,2977.29003L696.72,2977.17003L696.6,2977.17003L694.32,2975.85004L686.88,2971.17009L682.68,2967.81013L680.16,2964.81016
				L678.36,2960.8502L675.24,2952.93028L671.52,2937.81043L668.88,2926.53054L668.76,2926.29054L668.76,2926.17054L668.64,2926.05055
				L668.64,2925.93055L668.16,2924.73056L666.36,2920.17061L662.52,2915.73065L661.92,2914.89066L659.52,2912.73068L657.24,2910.4507
				L657.12,2910.3307L657.12,2910.21071L651.96,2905.17076L645.24,2899.17082L639.6,2892.69088L632.16,2881.77099L628.32,2874.57106
				L625.44,2869.89111L625.2,2869.41112L623.04,2865.81115L618.12,2859.93121L612.6,2849.97131L608.64,2840.7314L606.24,2833.05148
				L604.44,2826.45155L602.04,2816.85165L601.32,2814.81167L600.96,2813.73168L594.72,2807.85174L594.6,2807.61174L594.48,2807.61174
				L594.48,2807.49174L594.36,2807.37174L593.4,2806.17175L592.8,2805.81176L592.08,2805.21176L587.88,2802.33179L581.52,2797.41184
				L572.88,2789.73192L571.92,2789.01193L571.08,2788.41193L570.96,2788.29193L570.84,2788.17193L565.68,2784.21197L556.44,2777.73204
				L546.72,2770.05212L545.28,2768.97213L542.88,2767.17215L538.44,2763.33218L534.12,2758.29223L510.96,2727.69254L510.96,2727.57254
				L510.84,2727.45255L510.84,2727.33255L510.72,2727.33255L504.96,2724.45258L504.84,2724.45258L504.72,2724.33258L504.6,2724.33258
				L504.48,2724.21258L504.36,2724.21258L504.24,2724.21258L504,2724.21258L501.36,2723.73258L500.52,2722.89259L500.16,2722.53259
				L498.96,2721.45261L496.44,2718.93263L494.4,2716.29266L490.68,2712.3327L486.6,2706.81275L450.48,2663.49319L463.2,2638.05345
				L477.36,2613.69369L477.24,2610.81372L477,2600.49382L475.8,2592.5739L475.68,2591.97391L475.08,2587.65395L472.44,2580.81402
				L470.4,2575.53407L470.4,2565.81417L470.76,2563.0542L470.76,2562.9342L470.76,2562.8142L471,2561.13422L472.92,2552.01431L472.56,2543.3744
				L472.2,2538.69445L468.48,2533.5345L468.72,2526.93456L468.84,2525.37458L469.08,2523.93459L470.04,2516.61467L472.56,2506.89477
				L476.04,2499.09484L479.04,2494.05489L479.04,2493.9349L479.16,2493.8149L479.16,2491.89492L479.4,2486.25497L478.8,2479.77504
				L477,2473.7751L475.44,2470.41513L476.28,2467.29516L477,2464.77519L482.88,2458.17526L483.24,2456.37527L484.8,2449.17535L484.8,2443.7754
				L484.08,2436.33548L482.88,2428.65555L482.52,2421.81562L481.32,2416.17568L481.32,2410.89573L481.92,2404.0558L481.92,2398.65585
				L481.92,2391.21593L482.52,2385.21599L482.88,2382.57602L482.88,2382.45602L482.88,2382.33602L482.88,2382.21602L482.88,2381.97602
				L483.24,2379.57605L488.76,2372.49612L491.28,2364.3362L491.88,2359.05625L491.88,2357.13627L491.64,2353.41631L491.88,2349.93635
				L491.88,2349.57635L491.4,2347.77637L491.28,2347.65637L491.28,2347.53637L491.28,2347.29637L490.68,2345.25639L491.28,2335.65649
				L483.84,2317.05668L483.72,2316.69668L483.24,2315.73669L479.28,2295.69689L481.32,2291.61693L481.32,2291.49693L481.44,2291.37693
				L487.2,2279.73705L500.4,2273.13712L500.52,2273.13712L500.64,2273.13712L500.76,2273.01712L504,2271.33714L511.2,2267.73717
				L512.88,2268.21717L514.8,2268.69716L516.6,2269.17716L516.72,2269.17716L516.84,2269.17716L516.96,2269.17716L524.88,2271.21714
				L525.36,2270.85714L525.48,2270.73714L525.6,2270.61714L529.2,2267.73717L574.08,2268.81716L584.4,2266.77718L584.52,2266.77718
				L584.64,2266.77718L584.76,2266.77718L593.4,2265.0972L595.08,2264.7372L617.04,2260.77724L644.04,2256.81728L657,2246.85738
				L657.48,2246.37739L659.52,2244.21741L659.64,2244.21741L659.76,2244.09741L668.04,2235.81749L668.04,2233.89751L668.04,2232.93752
				L668.04,2232.69753L668.04,2232.45753L668.04,2232.33753L668.04,2231.37754L668.04,2230.89754L668.04,2230.77754L668.04,2230.65755
				L668.04,2229.93755L668.04,2220.81765L668.64,2218.65767L668.64,2218.53767L668.64,2218.41767L673.32,2202.21783L673.32,2201.97783
				L673.44,2201.85784L673.92,2199.93786L663,2179.53806L661.56,2177.01809L657.96,2170.41815L655.32,2165.4982L654.96,2164.77821
				L642,2140.77845L641.88,2140.65845L641.76,2140.53845L641.76,2140.41845L641.16,2139.21847L636.12,2129.85856L635.04,2127.93858
				L635.04,2120.97865L635.04,2118.09868L635.04,2113.05873L635.04,2097.21889L635.04,2096.3789L635.04,2096.2589L635.04,2096.0189
				L635.04,2094.69891L635.04,2090.97895L635.04,2090.85895L635.04,2079.93906L635.04,2060.13926L619.08,2010.21976L620.04,1939.30048
				L626.88,1902.34085L626.88,1902.22085L626.88,1902.10085L626.88,1901.98085L627,1901.86086L627,1901.38086L630.6,1897.1809L632.16,1893.22094
				L633.6,1889.02099L634.8,1885.66102L634.92,1885.42102L634.92,1885.30102L635.04,1885.18102L635.04,1884.94103L635.52,1883.86104
				L635.64,1881.82106L635.64,1881.46106L635.64,1881.34106L635.64,1881.22106L635.64,1880.86107L635.64,1879.66108L635.28,1875.70112
				L635.16,1875.34112L635.16,1875.22112L635.16,1875.10113L635.16,1874.74113L635.16,1874.38113L634.8,1874.14113L634.44,1873.66114
				L634.44,1873.54114L634.32,1873.54114L633.84,1872.94115L630.84,1869.58118L630.48,1869.22118L630.36,1869.22118L630.24,1869.10119
				L629.88,1868.86119L626.16,1866.10122L625.92,1865.98122L625.8,1865.86122L625.68,1865.74122L625.2,1865.38122L620.64,1865.38122
				L613.68,1864.42123L606.24,1862.62125L597.6,1856.74131L593.4,1853.38134L590.88,1851.34136L587.28,1846.06142L584.76,1841.26147
				L584.16,1839.94148L584.16,1839.82148L584.16,1839.70148L584.04,1839.70148L584.04,1839.58148L582.24,1835.74152L581.88,1834.42153
				L581.76,1833.94154L580.68,1829.62158L580.44,1827.34161L580.32,1826.74161L580.32,1826.14162L581.04,1823.02165L581.28,1822.30166
				L582.12,1819.78168L582.6,1818.58169L582.72,1818.3417L583.08,1815.94172L583.32,1813.66174L584.04,1812.22176L585.36,1809.82178
				L585.36,1807.18181L585.24,1807.06181L582.96,1805.38183L577.92,1803.82184L574.92,1803.82184L573.36,1803.82184L572.88,1803.70184
				L569.28,1802.86185L568.2,1802.98185L565.8,1803.34185L561.6,1802.14186L561.24,1802.14186L560.04,1801.78186L554.64,1801.54187
				L553.08,1801.66186L552.12,1801.66186L550.32,1801.78186L546.72,1802.14186L546.12,1802.26186L543.72,1802.50186L540,1803.22185
				L537.12,1803.70184L534.12,1804.06184L532.32,1804.30184L528.24,1802.98185L527.04,1802.62185L524.4,1800.82187L522.12,1799.26189
				L520.44,1797.9419L517.44,1795.42193L517.2,1794.94193L515.76,1792.06196L515.76,1791.94196L515.52,1791.58197L515.52,1788.462
				L515.52,1786.06202L515.16,1782.22206L515.04,1781.38207L515.04,1780.66208L514.68,1777.30211L514.56,1776.34212L514.2,1771.06217
				L514.08,1770.94217L514.08,1770.10218L513.12,1768.4222L512.16,1766.74222L512.04,1766.14222L510.84,1761.70227L510.84,1761.58227
				L510.84,1761.46227L510.48,1760.14228L508.2,1751.98236L506.04,1741.06247L498,1713.10276L493.68,1705.54283L490.08,1699.0629
				L484.56,1689.94299L484.44,1689.82299L484.44,1689.70299L484.2,1689.343L478.08,1679.1431L467.28,1661.14328L466.08,1659.1033
				L457.68,1649.0234L457.08,1648.18341L456.6,1647.58342L456.48,1647.46342L456.36,1647.34342L456.24,1647.22342L456.12,1647.10342
				L455.52,1646.26343L453,1642.06347L452.4,1630.78358L456.84,1620.94368L456.96,1620.22369L457.32,1610.38379L457.44,1609.4238
				L457.56,1605.58384L457.92,1598.9839L462.84,1584.22405L467.16,1575.94414L469.68,1568.02422L470.04,1563.82426L470.4,1560.58429
				L470.64,1557.22432L470.64,1557.10433L470.16,1554.22436L470.16,1553.86436L470.04,1553.62436L470.04,1553.50436L470.04,1553.26436
				L470.04,1553.14437L470.04,1553.02437L469.8,1551.58438L469.2,1547.86442L469.2,1541.26449L469.2,1541.14449L469.2,1541.02449
				L468.48,1536.34454L468.24,1534.54455L467.76,1532.62457L467.52,1532.02458L467.4,1531.66458L467.4,1531.54458L467.4,1531.42458
				L467.16,1530.82459L465.48,1524.46465L465.24,1523.74466L463.8,1517.26473L463.8,1517.14473L463.8,1517.02473L463.68,1516.90473
				L463.32,1514.86475L465.72,1510.54479L466.32,1509.46481L466.56,1508.98481L466.56,1508.86481L466.68,1508.74481L467.04,1508.14482
				L467.04,1508.02482L467.16,1507.90482L467.16,1507.78482L468.12,1506.10484L469.2,1504.06486L470.16,1503.70486L470.28,1503.70486
				L470.28,1503.58486L470.52,1503.58486L476.52,1501.18489L483.48,1502.14488L490.44,1497.94492L490.8,1497.70492L500.64,1492.30498
				L504.6,1486.78503L507.12,1483.42507L511.68,1478.50512L514.44,1475.50515L518.88,1469.62521L519.84,1462.30528L523.08,1453.06537
				L523.8,1450.9054L528.96,1442.50548L529.32,1441.90549L530.52,1439.98551L530.76,1439.62551L530.76,1439.50551L530.88,1439.38551
				L531,1439.26551L531,1439.14551L531.12,1438.90552L533.16,1427.14563L537.6,1418.26572L541.44,1408.90582L543.48,1404.10587L
				544.56,1404.94586L545.52,1404.82586L545.64,1404.70586L545.76,1404.70586L546,1404.70586L549.12,1404.22587L553.2,1401.94589
				L557.64,1397.62593L559.68,1396.54594L560.88,1394.74596L560.76,1391.38599L563.4,1384.66606L565.2,1382.50608L568.92,1380.22611
				L572.04,1380.8261L575.76,1382.86608L580.2,1384.66606L584.28,1385.02606L585,1383.94607L585,1381.3061L584.64,1378.78612L584.52,1375.54615
				L586.44,1372.54618L589.56,1370.26621L592.2,1369.54621L593.4,1367.86623L593.88,1367.38624L595.08,1364.86626L597.24,1361.98629
				L597.36,1360.42631L596.16,1356.94634L595.92,1356.46635L595.32,1354.90636L594.72,1353.22638L594.36,1352.98638L594.24,1352.98638
				L594.12,1352.86638L594,1352.86638L594,1352.74638L593.52,1352.50639L593.4,1352.50639L591.48,1351.66639L590.28,1348.06643L
				589.68,1344.82646L589.2,1341.5865L587.52,1338.58653L585.36,1336.42655L583.8,1334.98656L580.56,1334.62657L576.12,1335.10656
				L576,1335.22656L572.76,1336.18655L569.88,1337.50654L568.08,1337.98653L564.84,1337.98653L562.32,1335.46656L560.52,1332.82658
				L557.64,1329.94661L556.92,1328.02663L554.4,1324.54667L553.08,1320.8267L552.84,1318.30673L551.76,1316.02675L550.2,1314.34677
				L545.88,1312.42679L542.52,1310.50681L541.2,1308.70683L541.08,1306.18685L540.84,1304.86687L539.64,1303.42688L537.6,1302.94688
				L534.12,1303.30688L531.24,1304.38687L528.96,1303.78688L528.72,1303.66688L527.4,1303.30688L523.56,1303.06688L520.68,1303.30688
				L516.24,1303.90687L516,1303.90687L515.88,1303.90687L515.4,1304.02687L514.68,1304.02687L513.6,1301.5069L513,1300.06691L512.04,1297.66694
				L506.04,1288.66703L505.68,1287.94704L505.56,1287.70704L505.44,1287.58704L505.44,1287.46704L505.32,1287.22704L502.68,1282.66709
				L500.4,1275.58716L498.72,1270.42721L497.76,1260.10732L494.76,1246.78745L497.28,1236.94755L496.92,1231.6676L496.68,1228.66763
				L498.24,1214.86777L501.6,1207.90784L501.96,1189.90802L502.2,1180.90811L504.12,1163.14829L505.56,1154.86838L509.04,1150.18842
				L512.28,1145.62847L512.4,1145.50847L513.48,1143.94849L513.6,1143.82849L519.48,1136.86856L520.32,1135.90857L521.16,1134.82858
				L521.4,1134.46858L522.72,1132.6686L522.84,1132.5486L522.96,1132.4286L523.08,1132.3086L523.2,1132.1886L523.8,1131.34861L524.76,1130.62862
				L529.44,1127.50865L531.12,1126.06867L531.24,1126.06867L531.24,1125.94867L531.36,1125.94867L537.84,1120.42872L544.32,1115.14878
				L544.68,1114.78878L549.96,1107.58885L556.08,1103.74889L556.8,1103.26889L558.6,1102.9089L560.28,1102.6689L565.44,1101.82891
				L565.68,1101.70891L565.8,1101.70891L565.92,1101.70891L566.04,1101.70891L569.28,1101.10892L569.88,1100.98892L570.24,1100.86892
				L582.84,1097.74895L582.96,1097.74895L583.2,1097.74895L585.36,1097.26896L591,1095.34897L591.6,1095.22898L593.4,1094.62898
				L594,1094.38898L601.56,1088.98904L602.04,1088.62904L603.96,1087.18906L605.16,1086.58906L605.52,1086.34906L609,1084.42908
				L619.44,1078.66914L619.8,1078.42914L620.16,1078.18915L623.88,1073.86919L624.12,1073.50919L624.84,1072.6692L632.28,1061.98931
				L634.56,1057.66935L635.76,1056.46937L636.12,1055.98937L636.6,1055.50938L636.96,1055.26938L639.24,1052.9894L639.36,1052.8694
				L639.6,1052.7494L642.72,1051.06942L645.12,1049.86943L649.8,1047.10946L654.48,1043.3895L654.96,1041.70951L655.08,1041.22952
				L656.04,1038.10955L656.16,1037.62956L656.4,1037.26956L658.44,1032.7096L663.48,1028.98964L665.64,1026.46967L665.88,1026.22967
				L667.2,1024.66969L669.36,1019.38974L671.52,1014.70979L675.24,1010.98982L678.72,1005.34988L682.2,1000.06993L682.56,999.34994
				L683.4,998.14995L686.88,993.11L687.12,992.75001L688.08,991.31002L691.68,986.51007L693.48,982.79011L693.72,982.07011L694.44,980.63013
				L699.12,974.99019L699.48,974.75019L700.08,970.19023L700.08,969.71024L700.32,967.79026L701.64,963.2303L701.76,963.11031L702,962.75031
				L703.8,960.71033L703.92,960.59033L706.92,957.23036L707.64,954.1104L707.64,953.7504L708.12,951.71042L711,944.1505L712.44,941.51052
				L712.68,941.15053L718.08,931.91062L718.56,930.95063L718.68,930.71063L719.64,928.43065L720.24,925.91068L721.56,921.95072L
				721.8,916.91077L720.96,913.19081L723.12,909.47085L728.04,903.47091L732.12,897.95096L735.24,892.67101L739.56,887.03107L744.6,879.23115
				L748.32,874.91119L751.68,870.23124L751.92,868.67126L752.4,865.55129L752.04,862.79132L754.8,859.31135L760.2,853.67141L763.92,849.35145
				L768.6,838.43156L769.92,836.39158L775.68,827.63167L775.92,827.51167L776.28,826.79168L781.68,822.11172L786,817.43177L788.16,810.23184
				L790.68,804.9519L791.64,799.67195L795.6,791.27204L798.48,787.19208L802.2,780.35215L805.56,776.39219L807.48,773.27222L807.72,768.23227
				L807.48,763.31232L805.92,754.9124L805.08,743.39252L804.96,741.47254L805.92,730.31265L809.64,724.67271L814.68,721.19274L820.2,715.6728
				L823.92,713.39282L830.16,714.11281L832.68,716.27279L835.44,720.95274L837.36,725.87269L841.08,732.47263L845.16,737.75257L
				853.8,744.59251L866.04,748.91246L883.08,753.35242L893.4,756.47239L904.32,759.23236L911.16,760.19235L917.4,758.87236L928.56,753.59241
				L937.56,747.95247L939.24,747.95247L941.64,747.83247L944.76,746.51249L945.12,746.27249L945.24,746.27249L945.36,746.27249L
				945.6,746.15249L949.44,744.47251L954.72,739.91255L954.96,739.67255L955.08,739.55256L955.08,739.43256L955.32,739.43256L958.8,736.31259
				L960.6,733.31262L964.44,726.95268L969.72,714.8328L972.12,704.87291L977.76,693.35302L981.24,684.59311L984.48,677.99318L985.92,675.3532
				L987.12,670.79325L989.04,664.07332L992.4,656.27339L993.36,647.87348L994.92,641.03355L996.96,636.83359L998.64,633.23363L1005.12,624.83371
				L1010.76,613.91382L1017.36,600.59395L1022.28,590.87405L1028.52,582.23414L1035.96,577.55419L1040.88,572.75423L1049.4,556.3144
				L1056.12,544.19452L1065.12,532.79464L1078.44,519.59477L1081.08,516.8348L1097.16,504.95492L1097.16,472.91524L1097.28,464.39533
				L1102.8,447.83549L1104.84,441.59556L1104.96,441.47556L1105.32,440.39557L1128,435.35562L1137,428.99568L1145.04,409.07588L
				1161,401.03596L1176.96,381.11616L1200.96,353.15645L1202.28,346.67651L1202.28,346.55651L1204.92,333.11665L1228.92,289.19709
				L1251,294.71703L1260,296.87701L1284.96,304.67693L1308.96,316.67681L1324.44,321.95676L1328.76,329.15669L1364.76,349.07649
				L1400.64,345.11653L1408.68,345.11653L1420.68,357.11641L1416,371.87626L1413.96,390.59607L1392.84,424.43573L1392.72,428.99568
				L1396.8,444.47553L1405.44,447.83549L1416.84,452.39545L1423.68,447.83549L1440.72,436.43561L1476.72,424.43573L1483.44,414.35583
				L1488.84,405.11592L1496.52,397.076L1508.64,376.55621L1540.56,360.59637L1568.4,349.07649L1600.32,337.19661L1619.88,337.19661
				L1620.36,337.19661L1638.72,332.27666L1667.76,328.1967L1688.4,324.59673L1708.32,308.63689L1748.16,301.19697L1782.24,296.87701
				L1796.04,293.51705L1821.24,286.79711L1837.2,278.75719L1856.28,278.2772L1877.16,266.87731L1894.68,263.63735L1915.44,232.43766
				L1999.68,193.67805L2007,188.7581L2029.92,180.35818L2032.32,178.5582L2044.68,168.9583L2055.48,157.19842L2055.84,157.07842
				L2056.08,157.07842L2056.2,157.07842L2056.32,157.19842L2071.68,169.43829L2091.6,189.35809L2111.52,233.27765L2118.48,249.47749
				L2119.92,252.71746L2120.04,252.95745L2123.52,277.19721L2132.76,308.75689z"/>
			<path clip-path="url(#SVG_CP_1)" fill="none" stroke="#000000" stroke-width="3.96" stroke-miterlimit="10" stroke-linecap="round" stroke-linejoin="round" d="
				M2132.76,308.75689L2138.76,352.67645L2138.76,353.03645L2139.12,356.63641L2141.52,378.35619L2141.4,380.15617L2141.28,383.03614
				L2141.16,386.15611L2139.48,425.03572L2140.68,438.59559L2140.68,448.55549L2130.72,464.51532L2118.72,478.55518L2102.76,490.43506
				L2093.16,500.15497L2092.8,500.51496L2078.76,510.47486L2054.88,524.39472L2024.88,530.39466L2012.16,532.55464L1979.76,540.83456
				L1953.96,546.95449L1949.04,548.03448L1944.96,548.99447L1908.72,557.63439L1908.6,557.63439L1905.6,559.31437L1904.88,560.51436
				L1904.16,561.59435L1903.56,562.43434L1903.32,563.87432L1902.96,564.83431L1902.6,565.31431L1902.24,565.55431L1902,565.79431
				L1901.04,566.99429L1900.44,567.59429L1899,568.67428L1898.16,569.27427L1897.8,569.63427L1897.2,570.23426L1895.4,572.15424
				L1893.84,573.83422L1893,575.27421L1891.44,572.51424L1890.72,571.19425L1886.76,563.99432L1885.8,562.43434L1884.96,562.55434
				L1869.12,564.95431L1869,564.95431L1865.16,575.03421L1863.48,579.59417L1870.92,589.19407L1867.68,591.47405L1867.2,591.83404
				L1863.24,594.71401L1862.52,595.31401L1857.12,599.27397L1853.4,602.03394L1851.36,603.59392L1844.28,608.87387L1840.92,607.91388
				L1838.64,607.19389L1836.36,606.3539L1830.84,604.43392L1824.6,602.39394L1821.6,601.31395L1812.48,609.95386L1812,610.43386
				L1809.72,613.19383L1807.68,614.15382L1804.44,615.7138L1799.4,622.07374L1809.36,630.11366L1811.4,631.79364L1812.36,632.51363
				L1811.4,633.35362L1810.08,634.55361L1811.88,642.23354L1812.84,646.43349L1813.56,648.95347L1814.52,652.43343L1815.12,654.23341
				L1814.4,654.71341L1807.92,658.43337L1807.68,658.55337L1810.32,660.95335L1815.48,665.8733L1815.12,668.87327L1814.4,675.3532
				L1813.92,679.31316L1808.16,676.55319L1803.48,674.27321L1794.84,680.15315L1799.76,685.3131L1800.36,685.9131L1805.04,688.19307
				L1812.24,691.67304L1813.08,692.03303L1813.08,693.35302L1813.08,694.19301L1813.08,696.35299L1813.08,696.71299L1813.08,698.75297
				L1813.08,698.99296L1813.32,699.11296L1828.92,702.11293L1827,707.27288L1826.52,708.47287L1825.44,711.23284L1825.08,712.31283
				L1824.72,713.27282L1824.48,714.47281L1824.24,715.6728L1824,718.55277L1824.48,720.47275L1825.08,721.31274L1825.2,721.55274
				L1825.92,722.39273L1828.2,723.95271L1829.76,724.67271L1830.6,725.0327L1832.88,726.23269L1835.04,727.55268L1842.96,732.47263
				L1846.08,734.51261L1849.2,736.43259L1851.36,737.75257L1849.32,736.91258L1845.24,735.2326L1839.84,733.07262L1838.64,732.59263
				L1828.32,728.39267L1817.04,723.83271L1815.96,723.47272L1813.92,722.63273L1810.92,723.95271L1807.44,725.6327L1806.36,725.99269
				L1804.44,726.95268L1803.12,727.55268L1801.92,728.03267L1800.6,728.63267L1797.36,728.51267L1785.48,727.91267L1780.2,727.55268
				L1776.36,728.51267L1771.08,729.83265L1748.64,735.2326L1740.84,746.03249L1739.88,750.71244L1738.2,759.11236L1733.4,770.51224
				L1730.64,776.27219L1730.52,776.39219L1730.52,776.51218L1730.64,782.27213L1728.96,782.39212L1727.88,782.63212L1723.08,779.39215
				L1723.08,779.15216L1723.56,775.79219L1723.8,773.99221L1724.4,770.15225L1724.52,769.31226L1725.12,765.1123L1725.48,762.95232
				L1726.08,758.87236L1722.84,757.67237L1716.84,755.3924L1716,754.9124L1715.16,754.43241L1714.56,754.07241L1712.64,752.87242
				L1706.76,749.63245L1706.16,749.15246L1706.04,749.15246L1704.12,748.07247L1701.96,747.35248L1694.16,737.99257L1690.68,739.55256
				L1683.12,742.31253L1682.16,742.67252L1672.32,751.19244L1667.88,755.0324L1659.36,763.55231L1657.68,766.67228L1656.84,768.11227
				L1656,768.95226L1655.88,769.07226L1653.72,771.23224L1651.8,773.51221L1650.96,774.4722L1648.68,777.23218L1648.44,778.79216
				L1648.2,779.99215L1647.72,783.95211L1645.32,791.51203L1635.96,791.87203L1628.76,792.23203L1628.76,816.11179L1636.68,836.15158
				L1644.72,864.1113L1644.72,880.31114L1644.72,885.11109L1644.72,899.99094L1631.28,902.27092L1626.48,903.11091L1620.72,904.0709
				L1619.88,905.15089L1618.2,907.19087L1604.76,923.9907L1584.36,944.2705L1575.6,952.91041L1572,956.63037L1570.8,957.71036L1570.56,958.07036
				L1568.4,960.23033L1567.68,970.19023L1566.36,988.19005L1565.76,996.10997L1565.64,999.22994L1564.92,1008.82985L1564.44,1016.14977
				L1554.48,1024.06969L1545.36,1031.38962L1545.24,1031.50962L1545.12,1031.50962L1544.4,1032.10961L1525.44,1044.34949L1521.36,1061.38932
				L1517.64,1074.94918L1512.96,1091.74901L1511.64,1099.42893L1510.92,1103.98889L1510.56,1106.02887L1508.88,1115.74877L1508.88,1148.14844
				L1508.88,1155.70837L1499.28,1168.54824L1495.56,1173.34819L1487.4,1184.14808L1495.68,1199.86792L1498.08,1204.66787L1500.48,1209.10783
				L1500.48,1217.38775L1500.48,1223.74768L1500.48,1235.14757L1483.44,1252.0674L1484.16,1273.18718L1484.28,1277.02715L1485,1295.26696
				L1485,1297.78694L1485.12,1298.86693L1485.36,1307.26684L1485.48,1310.02681L1482.48,1325.98665L1482.24,1330.54661L1480.92,1359.34632
				L1465.8,1383.22608L1461.48,1389.82601L1449.72,1416.46574L1447.08,1422.34568L1445.52,1425.82565L1445.4,1425.94565L1434.24,1448.38542
				L1433.52,1449.82541L1433.52,1469.74521L1429.56,1501.66488L1425.6,1525.66464L1425.6,1525.90464L1425.6,1526.02464L1425.6,1526.14464
				L1425.6,1526.26464L1425.6,1541.62448L1425.6,1561.66428L1428,1574.02416L1429.56,1581.58408L1437.48,1601.50388L1424.52,1621.06368
				L1424.4,1621.18368L1424.4,1621.30368L1421.52,1625.50364L1397.64,1625.50364L1384.08,1625.50364L1381.56,1625.50364L1361.28,1637.14352
				L1353.6,1641.46348L1323.48,1663.42326L1317.6,1667.74321L1312.56,1671.34318L1309.68,1673.38316L1309.08,1673.62315L1297.8,1677.46311
				L1289.88,1697.02292L1289.76,1697.38291L1286.04,1707.34281L1277.76,1729.30259L1277.76,1732.54256L1277.76,1751.26237L1277.76,1761.34227
				L1313.76,1777.30211L1337.64,1789.30199L1369.68,1797.22191L1389.6,1825.18163L1405.56,1849.18139L1413.6,1869.10119L1397.64,1901.14086
				L1377.6,1933.06054L1357.68,1949.02038L1345.68,1968.94018L1333.68,1996.8999L1328.76,2001.81985L1328.64,2002.05985L1328.4,2002.17985
				L1325.76,2004.93982L1325.76,2009.61977L1325.76,2020.89966L1330.2,2034.45952L1333.68,2044.89942L1334.88,2046.9394L1335.12,2047.29939
				L1335.24,2047.41939L1335.24,2047.53939L1335.24,2047.65939L1335.48,2048.01938L1339.92,2055.45931L1339.92,2055.57931L1340.04,2055.69931
				L1361.64,2092.77893L1373.64,2120.73865L1374.48,2122.41864L1389,2151.45834L1392.12,2157.69828L1393.56,2160.69825L1409.52,2184.69801
				L1437.48,2196.57789L1438.2,2197.41788L1442.28,2202.21783L1444.08,2204.37781L1444.08,2204.49781L1445.4,2206.05779L1446,2206.77779
				L1446.12,2206.89779L1446.12,2207.01778L1457.52,2220.57765L1469.52,2244.57741L1481.52,2260.53725L1493.4,2276.49708L1485.48,2308.41676
				L1485.48,2317.17668L1485.48,2317.29667L1485.48,2317.41667L1485.48,2324.4966L1485.48,2340.45644L1473.24,2347.77637L1473.12,2347.77637
				L1473,2347.89637L1465.44,2352.45632L1457.76,2387.37597L1457.64,2387.49597L1457.64,2387.61597L1457.52,2388.33596L1451.4,2392.41592
				L1449.72,2393.49591L1448.76,2394.0959L1448.64,2394.2159L1448.52,2394.3359L1431.96,2405.37579L1424.16,2410.53574L1421.52,2412.33572
				L1417.56,2428.29556L1416.6,2429.49554L1416.48,2429.61554L1416.36,2429.73554L1416.36,2429.85554L1401.6,2448.21536L1390.2,2465.37518
				L1385.64,2472.21511L1377.6,2488.17495L1375.44,2496.93487L1375.44,2497.05486L1375.32,2497.17486L1373.64,2504.13479L1373.64,2520.09463
				L1375.44,2520.81463L1389.72,2525.49458L1389.84,2525.61458L1389.96,2525.61458L1391.88,2526.21457L1397.64,2528.13455L1407.12,2540.01443
				L1413.6,2548.05435L1419.72,2553.2143L1426.32,2558.73424L1426.44,2558.85424L1426.56,2558.97424L1437.48,2568.09415L1437.48,2588.01395
				L1437.48,2594.37388L1437.48,2600.01383L1451.04,2620.29362L1453.56,2624.01359L1459.8,2633.37349L1465.08,2641.41341L1469.52,2647.89335
				L1471.92,2652.8133L1481.52,2671.8931L1489.8,2677.41305L1496.76,2682.093L1497,2682.213L1497.12,2682.333L1500,2684.25298L1501.2,2685.09297
				L1504.44,2687.25295L1505.4,2687.85294L1537.44,2691.9329L1540.92,2690.73291L1542.72,2690.13292L1542.84,2690.01292L1542.96,2690.01292
				L1546.44,2688.81293L1549.2,2687.97294L1561.32,2683.89298L1563.84,2682.093L1589.28,2663.97318L1629.24,2651.9733L1657.2,2667.93314
				L1657.92,2668.53314L1677.12,2683.89298L1705.08,2695.89286L1729.08,2735.85246L1761,2727.81254L1788.96,2723.85258L1812.96,2719.89262
				L1852.92,2719.89262L1860.84,2731.7725L1860.84,2747.85234L1840.92,2759.73222L1844.88,2779.77202L1880.88,2787.69194L1908.84,2799.69182
				L1928.76,2811.6917L1936.8,2819.73162L1948.8,2851.65129L1952.76,2879.61101L1956.72,2907.57073L1932.48,2921.49059L1923,2916.81064
				L1921.92,2916.33064L1907.4,2911.89069L1889.88,2910.6907L1878.96,2912.37068L1875.96,2912.85068L1875.72,2912.73068L1859.76,2902.77078
				L1851.72,2915.49065L1844.04,2927.85053L1843.08,2928.93052L1825.8,2948.13032L1807.2,2968.05012L1794.6,2981.96998L1788.12,2995.16985
				L1780.8,3020.84959L1780.56,3021.92958L1779.84,3021.92958L1778.16,3022.04958L1777.32,3020.60959L1776.72,3019.40961L1774.68,3015.68964
				L1772.16,3012.44968L1769.16,3009.8097L1765.2,3007.64972L1760.52,3005.48975L1758.96,3004.88975L1758.48,3004.76975L1756.92,3004.28976
				L1754.4,3003.44977L1752,3002.96977L1751.28,3002.84977L1749.84,3002.48978L1747.68,3001.28979L1745.52,3000.3298L1744.56,2999.9698
				L1743.72,2999.7298L1743.24,2999.60981L1742.88,2999.60981L1742.04,2999.48981L1740.48,2999.60981L1738.68,2999.60981L1736.4,2999.48981
				L1734.24,2999.8498L1731.12,3000.5698L1729.8,3001.16979L1728.6,3002.00978L1726.92,3002.72977L1725.24,3003.44977L1724.04,3004.16976
				L1723.2,3005.00975L1723.08,3006.08974L1723.44,3007.04973L1723.2,3007.88972L1722.48,3008.60971L1721.28,3008.96971L1720.2,3009.56971
				L1719.36,3009.9297L1718.76,3010.76969L1718.4,3012.08968L1717.92,3013.04967L1717.44,3013.64966L1716.36,3014.24966L1715.4,3014.96965
				L1714.56,3015.92964L1713.84,3016.52964L1713,3017.00963L1712.28,3017.36963L1712.16,3017.36963L1711.32,3017.84962L1710.6,3018.44962
				L1709.88,3019.04961L1708.32,3019.6496L1708.08,3019.7696L1707.96,3019.7696L1707.84,3019.7696L1707.72,3019.8896L1707.6,3019.8896
				L1707.48,3019.8896L1706.88,3020.0096L1706.16,3020.0096L1705.8,3020.0096L1705.08,3020.0096L1704.12,3020.0096L1703.76,3020.0096
				L1703.64,3020.0096L1701.12,3020.3696L1701,3020.3696L1700.4,3020.3696L1700.16,3020.4896L1699.92,3020.4896L1699.56,3021.44959
				L1699.2,3022.40958L1698.36,3024.32956L1698.36,3025.64954L1698.72,3026.48953L1700.64,3028.52951L1702.68,3030.92949L1703.16,3031.76948
				L1703.76,3032.72947L1704.12,3034.40946L1704.24,3035.12945L1704.36,3037.16943L1704.48,3038.60941L1704.48,3038.84941L1704.72,3040.40939
				L1705.56,3042.08938L1706.16,3043.52936L1706.28,3045.20935L1706.4,3045.92934L1701.72,3045.44934L1677.36,3032.48947L1672.2,3020.4896
				L1670.04,3016.28964L1669.8,3015.80964L1659.48,3014.36966L1648.44,2998.76981L1637.88,2990.1299L1623.96,2999.9698L1623.84,2999.9698
				L1623.84,3000.0898L1623.72,3000.0898L1620.84,3002.12978L1593.36,3003.08977L1581.12,3000.0898L1583.16,2984.24996L1579.08,2978.13002
				L1578.96,2977.89002L1578.96,2977.77003L1574.52,2970.93009L1570.44,2966.49014L1555.8,2958.33022L1534.08,2952.09028L1521.96,2944.17036
				L1521.84,2944.17036L1521.72,2944.05036L1519.92,2942.85038L1519.68,2942.73038L1519.56,2942.73038L1517.16,2919.57061L1512,2913.57067
				L1484.88,2898.45082L1477.68,2895.93085L1475.88,2895.21086L1471.08,2893.53087L1464,2901.2108L1457.4,2899.05082L1450.44,2896.53084
				L1432.2,2898.81082L1434.36,2923.53057L1434.96,2930.9705L1435.2,2932.65048L1435.44,2935.53045L1455.84,2933.37047L1460.76,2932.89048
				L1454.16,2949.21031L1481.76,2954.01026L1484.04,2954.49026L1487.28,2957.49023L1493.52,2963.37017L1503.84,2988.92991L1505.16,2991.92988
				L1489.32,3004.76975L1487.28,3007.28973L1480.32,3015.92964L1466.88,3026.36954L1464.36,3042.32938L1464.24,3043.40936L1467.24,3045.44934
				L1481.28,3048.92931L1513.2,3075.68904L1532.76,3098.12881L1514.04,3116.24863L1494.6,3122.48857L1493.4,3122.96856L1479.72,3127.40852
				L1473.36,3131.24848L1472.64,3131.72848L1470.24,3133.04846L1448.4,3146.12833L1448.28,3146.24833L1447.08,3145.76833L1446.48,3145.52834
				L1445.76,3145.16834L1438.8,3142.28837L1439.16,3146.96832L1437.96,3148.16831L1437.24,3148.7683L1433.4,3152.36827L1425,3154.52825
				L1417.8,3156.32823L1413.72,3153.56826L1412.16,3152.48827L1410.24,3151.16828L1404.84,3152.48827L1402.68,3149.0083L1396.44,3150.32829
				L1394.04,3149.96829L1392.12,3149.6083L1390.92,3148.7683L1388.76,3145.16834L1385.52,3142.52837L1379.88,3137.72842L1377.96,3139.4084
				L1377.24,3140.12839L1376.76,3140.36839L1376.76,3140.48839L1376.64,3140.60839L1374.6,3142.40837L1374.12,3142.76836L1373.16,3143.60836
				L1368,3148.04831L1374.12,3149.72829L1371.84,3153.20826L1369.08,3157.64821L1371.12,3160.76818L1361.64,3163.04816L1358.16,3164.00815
				L1357.92,3164.00815L1356.12,3164.48815L1355.52,3164.36815L1353,3163.88815L1348.8,3173.48806L1349.64,3186.68792L1348.08,3191.00788
				L1347.84,3191.72787L1347.6,3192.20787L1346.76,3197.60781L1347,3199.1678L1348.44,3199.52779L1353.48,3200.84778L1355.28,3203.48775
				L1335.48,3203.48775L1335.48,3268.4071L1330.2,3276.32702L1321.44,3289.40689L1316.88,3296.24682L1316.88,3298.88679L1316.76,3298.88679
				L1315.92,3298.6468L1315.8,3298.5268L1314.84,3298.1668L1313.88,3297.8068L1313.28,3297.56681L1312.8,3297.32681L1312.32,3297.08681
				L1311.72,3296.96681L1310.88,3296.72681L1310.52,3296.60682L1310.4,3296.60682L1310.04,3296.48682L1309.32,3296.12682L1306.92,3295.04683
				L1306.2,3294.56684L1305.84,3294.20684L1304.52,3293.12685L1303.92,3292.64686L1303.8,3292.40686L1303.08,3291.56687L1302.24,3290.72688
				L1302.12,3290.72688L1301.76,3290.36688L1299.96,3289.16689L1299.12,3288.5669L1299,3288.4469L1298.88,3288.3269L1298.52,3287.9669
				L1297.8,3287.48691L1296.96,3287.12691L1296.84,3287.12691L1296.36,3286.88691L1296,3286.88691L1295.4,3286.88691L1294.8,3287.00691
				L1294.32,3287.12691L1292.52,3287.8469L1290.36,3289.04689L1289.64,3289.40689L1288.8,3289.76688L1288.2,3289.88688L1287.96,3289.88688
				L1287.72,3289.88688L1287.6,3289.76688L1286.04,3289.16689L1285.92,3289.04689L1285.8,3289.04689L1284.6,3288.5669L1283.88,3288.2069
				L1283.76,3288.2069L1283.28,3288.0869L1283.04,3287.9669L1282.44,3287.8469L1281.72,3287.8469L1280.88,3287.8469L1280.4,3287.9669
				L1280.28,3287.9669L1280.16,3287.9669L1278.96,3288.2069L1278.48,3288.2069L1277.88,3288.3269L1277.16,3288.3269L1276.44,3288.5669
				L1276.08,3288.6869L1275.84,3288.5669L1275.72,3288.4469L1275.24,3287.9669L1275,3287.60691L1274.88,3287.48691L1274.16,3286.28692
				L1273.92,3285.92692L1273.32,3285.20693L1272.96,3284.84693L1272.6,3284.72694L1272.24,3284.48694L1271.52,3284.36694L1271.16,3284.24694
				L1268.64,3283.52695L1268.28,3283.40695L1267.8,3283.16695L1267.08,3282.80695L1266.6,3282.68696L1265.4,3282.32696L1265.28,3282.20696
				L1265.16,3282.20696L1264.2,3281.96696L1263.72,3281.84696L1262.16,3281.36697L1261.8,3281.36697L1261.68,3281.36697L1261.56,3281.24697
				L1261.32,3281.24697L1260.72,3281.00697L1259.88,3280.52698L1259.16,3280.16698L1258.92,3280.04698L1258.8,3280.16698L1258.68,3280.16698
				L1258.44,3280.16698L1258.32,3280.16698L1257.6,3280.52698L1257.48,3280.64698L1257.36,3280.64698L1257.24,3280.76698L1256.88,3280.88697
				L1254.84,3282.32696L1254.36,3282.56696L1254.12,3282.68696L1253.28,3283.04695L1252.68,3283.28695L1252.44,3283.40695L1251.36,3283.52695
				L1251.12,3283.52695L1250.52,3283.52695L1250.4,3283.52695L1249.44,3283.28695L1248.36,3282.92695L1246.68,3282.20696L1246.44,3282.08696
				L1246.2,3282.08696L1245.96,3282.20696L1245.84,3282.20696L1245.96,3282.08696L1246.44,3281.72697L1246.68,3281.00697L1246.92,3279.80698
				L1247.28,3276.92701L1248,3272.84705L1249.08,3266.48712L1249.56,3263.24715L1250.16,3261.08717L1250.52,3258.8072L1250.64,3256.52722
				L1250.76,3253.88725L1250.64,3251.12727L1250.04,3246.92732L1249.56,3244.16734L1248.84,3239.0074L1248.24,3235.40743L1248.24,3232.88746
				L1247.16,3226.40752L1246.44,3222.44756L1246.08,3219.0876L1245.36,3216.44762L1243.92,3211.76767L1242.72,3207.32771L1242,3204.44774
				L1240.56,3199.0478L1238.76,3193.04786L1237.32,3189.44789L1236.72,3188.00791L1235.88,3185.84793L1234.56,3184.28795L1233.12,3182.84796
				L1231.8,3182.36797L1229.76,3181.40798L1227.6,3180.20799L1226.64,3179.60799L1225.44,3178.768L1224.12,3177.44802L1223.28,3176.12803
				L1222.8,3174.56804L1222.8,3174.32805L1222.68,3173.84805L1222.32,3172.28807L1221.96,3170.00809L1221.72,3166.76812L1221.72,3164.48815
				L1221.72,3162.68816L1221.36,3160.52819L1221.36,3158.36821L1221.36,3155.96823L1221.72,3153.44826L1221.84,3151.40828L1222.08,3147.56832
				L1222.2,3143.48836L1222.2,3140.84838L1221.84,3139.0484L1221.24,3137.00842L1220.4,3134.12845L1219.2,3129.92849L1217.4,3123.80856
				L1216.44,3119.7286L1216.32,3119.6086L1216.32,3119.4886L1216.32,3119.3686L1215.96,3118.16861L1215.6,3116.24863L1215.6,3113.84866
				L1215.84,3110.48869L1215.96,3104.60875L1216.44,3100.04879L1216.92,3092.00888L1217.64,3082.64897L1218.48,3072.44907L1212.96,3070.40909
				L1202.64,3068.36911L1191,3063.32916L1190.28,3062.96917L1176.48,3056.96923L1166.4,3053.84926L1164.36,3053.48926L1152.72,3051.44928
				L1135.44,3046.64933L1125.84,3044.00936L1125.48,3044.00936L1111.68,3040.1694L1095.48,3031.76948L1083,3025.28955L1078.56,3025.16955
				L1072.56,3024.92955L1072.44,3024.92955L1072.08,3024.92955L1071.96,3024.92955L1062.36,3024.44956L1039.2,3024.20956L1017.12,3025.40955
				L995.76,3025.40955L984,3025.40955L973.44,3024.44956L966.96,3023.96956L965.4,3023.72956L965.04,3023.72956L964.92,3023.72956
				L964.8,3023.72956L964.44,3023.72956L962.76,3023.60956L945.72,3019.16961L931.44,3015.56964L930,3015.08965L929.76,3014.96965
				L928.92,3014.72965L928.68,3014.72965L927.12,3014.24966L924.84,3013.64966L923.4,3013.16967L921.72,3012.68967L921.36,3012.56968
				L919.68,3012.08968L919.44,3012.08968L918.96,3011.96968L918.84,3011.96968L918.48,3011.84968L918.24,3011.84968L915.6,3011.24969
				L915.12,3011.12969L914.88,3011.12969L913.56,3010.76969L913.2,3010.76969L913.08,3010.64969L912.96,3010.64969L912.6,3010.5297
				L912.12,3010.5297L904.44,3008.84971L901.92,3008.24972L901.68,3008.12972L901.08,3008.00972L893.28,3006.20974L891.6,3005.84974
				L849.36,2996.72983L834,2997.32983L833.88,2997.32983L833.4,2997.32983L831.36,2997.44983L829.44,2997.68982L829.2,2997.68982
				L817.92,2998.64982L817.56,2998.64982L814.08,2999.00981L810.24,2999.60981L801.48,3000.92979L799.92,3001.16979L773.64,3004.28976
				L760.44,3003.44977L754.68,3002.96977L743.16,2999.8498L734.16,2996.24984L715.68,2988.80991L700.44,2980.41L697.08,2977.53003
				L697.08,2977.41003L696.84,2977.29003L696.72,2977.17003L696.6,2977.17003L694.32,2975.85004L686.88,2971.17009L682.68,2967.81013
				L680.16,2964.81016L678.36,2960.8502L675.24,2952.93028L671.52,2937.81043L668.88,2926.53054L668.76,2926.29054L668.76,2926.17054
				L668.64,2926.05055L668.64,2925.93055L668.16,2924.73056L666.36,2920.17061L662.52,2915.73065L661.92,2914.89066L659.52,2912.73068
				L657.24,2910.4507L657.12,2910.3307L657.12,2910.21071L651.96,2905.17076L645.24,2899.17082L639.6,2892.69088L632.16,2881.77099
				L628.32,2874.57106L625.44,2869.89111L625.2,2869.41112L623.04,2865.81115L618.12,2859.93121L612.6,2849.97131L608.64,2840.7314
				L606.24,2833.05148L604.44,2826.45155L602.04,2816.85165L601.32,2814.81167L600.96,2813.73168L594.72,2807.85174L594.6,2807.61174
				L594.48,2807.61174L594.48,2807.49174L594.36,2807.37174L593.4,2806.17175L592.8,2805.81176L592.08,2805.21176L587.88,2802.33179
				L581.52,2797.41184L572.88,2789.73192L571.92,2789.01193L571.08,2788.41193L570.96,2788.29193L570.84,2788.17193L565.68,2784.21197
				"/>
			<path clip-path="url(#SVG_CP_1)" fill="none" stroke="#000000" stroke-width="3.96" stroke-miterlimit="10" stroke-linecap="round" stroke-linejoin="round" d="
				M565.68,2784.21197L556.44,2777.73204L546.72,2770.05212L545.28,2768.97213L542.88,2767.17215L538.44,2763.33218L534.12,2758.29223
				L510.96,2727.69254L510.96,2727.57254L510.84,2727.45255L510.84,2727.33255L510.72,2727.33255L504.96,2724.45258L504.84,2724.45258
				L504.72,2724.33258L504.6,2724.33258L504.48,2724.21258L504.36,2724.21258L504.24,2724.21258L504,2724.21258L501.36,2723.73258
				L500.52,2722.89259L500.16,2722.53259L498.96,2721.45261L496.44,2718.93263L494.4,2716.29266L490.68,2712.3327L486.6,2706.81275
				L450.48,2663.49319L463.2,2638.05345L477.36,2613.69369L477.24,2610.81372L477,2600.49382L475.8,2592.5739L475.68,2591.97391
				L475.08,2587.65395L472.44,2580.81402L470.4,2575.53407L470.4,2565.81417L470.76,2563.0542L470.76,2562.9342L470.76,2562.8142
				L471,2561.13422L472.92,2552.01431L472.56,2543.3744L472.2,2538.69445L468.48,2533.5345L468.72,2526.93456L468.84,2525.37458
				L469.08,2523.93459L470.04,2516.61467L472.56,2506.89477L476.04,2499.09484L479.04,2494.05489L479.04,2493.9349L479.16,2493.8149
				L479.16,2491.89492L479.4,2486.25497L478.8,2479.77504L477,2473.7751L475.44,2470.41513L476.28,2467.29516L477,2464.77519L482.88,2458.17526
				L483.24,2456.37527L484.8,2449.17535L484.8,2443.7754L484.08,2436.33548L482.88,2428.65555L482.52,2421.81562L481.32,2416.17568
				L481.32,2410.89573L481.92,2404.0558L481.92,2398.65585L481.92,2391.21593L482.52,2385.21599L482.88,2382.57602L482.88,2382.45602
				L482.88,2382.33602L482.88,2382.21602L482.88,2381.97602L483.24,2379.57605L488.76,2372.49612L491.28,2364.3362L491.88,2359.05625
				L491.88,2357.13627L491.64,2353.41631L491.88,2349.93635L491.88,2349.57635L491.4,2347.77637L491.28,2347.65637L491.28,2347.53637
				L491.28,2347.29637L490.68,2345.25639L491.28,2335.65649L483.84,2317.05668L483.72,2316.69668L483.24,2315.73669L479.28,2295.69689
				L481.32,2291.61693L481.32,2291.49693L481.44,2291.37693L487.2,2279.73705L500.4,2273.13712L500.52,2273.13712L500.64,2273.13712
				L500.76,2273.01712L504,2271.33714L511.2,2267.73717L512.88,2268.21717L514.8,2268.69716L516.6,2269.17716L516.72,2269.17716
				L516.84,2269.17716L516.96,2269.17716L524.88,2271.21714L525.36,2270.85714L525.48,2270.73714L525.6,2270.61714L529.2,2267.73717
				L574.08,2268.81716L584.4,2266.77718L584.52,2266.77718L584.64,2266.77718L584.76,2266.77718L593.4,2265.0972L595.08,2264.7372
				L617.04,2260.77724L644.04,2256.81728L657,2246.85738L657.48,2246.37739L659.52,2244.21741L659.64,2244.21741L659.76,2244.09741
				L668.04,2235.81749L668.04,2233.89751L668.04,2232.93752L668.04,2232.69753L668.04,2232.45753L668.04,2232.33753L668.04,2231.37754
				L668.04,2230.89754L668.04,2230.77754L668.04,2230.65755L668.04,2229.93755L668.04,2220.81765L668.64,2218.65767L668.64,2218.53767
				L668.64,2218.41767L673.32,2202.21783L673.32,2201.97783L673.44,2201.85784L673.92,2199.93786L663,2179.53806L661.56,2177.01809
				L657.96,2170.41815L655.32,2165.4982L654.96,2164.77821L642,2140.77845L641.88,2140.65845L641.76,2140.53845L641.76,2140.41845
				L641.16,2139.21847L636.12,2129.85856L635.04,2127.93858L635.04,2120.97865L635.04,2118.09868L635.04,2113.05873L635.04,2097.21889
				L635.04,2096.3789L635.04,2096.2589L635.04,2096.0189L635.04,2094.69891L635.04,2090.97895L635.04,2090.85895L635.04,2079.93906
				L635.04,2060.13926L619.08,2010.21976L620.04,1939.30048L626.88,1902.34085L626.88,1902.22085L626.88,1902.10085L626.88,1901.98085
				L627,1901.86086L627,1901.38086L630.6,1897.1809L632.16,1893.22094L633.6,1889.02099L634.8,1885.66102L634.92,1885.42102L634.92,1885.30102
				L635.04,1885.18102L635.04,1884.94103L635.52,1883.86104L635.64,1881.82106L635.64,1881.46106L635.64,1881.34106L635.64,1881.22106
				L635.64,1880.86107L635.64,1879.66108L635.28,1875.70112L635.16,1875.34112L635.16,1875.22112L635.16,1875.10113L635.16,1874.74113
				L635.16,1874.38113L634.8,1874.14113L634.44,1873.66114L634.44,1873.54114L634.32,1873.54114L633.84,1872.94115L630.84,1869.58118
				L630.48,1869.22118L630.36,1869.22118L630.24,1869.10119L629.88,1868.86119L626.16,1866.10122L625.92,1865.98122L625.8,1865.86122
				L625.68,1865.74122L625.2,1865.38122L620.64,1865.38122L613.68,1864.42123L606.24,1862.62125L597.6,1856.74131L593.4,1853.38134
				L590.88,1851.34136L587.28,1846.06142L584.76,1841.26147L584.16,1839.94148L584.16,1839.82148L584.16,1839.70148L584.04,1839.70148
				L584.04,1839.58148L582.24,1835.74152L581.88,1834.42153L581.76,1833.94154L580.68,1829.62158L580.44,1827.34161L580.32,1826.74161
				L580.32,1826.14162L581.04,1823.02165L581.28,1822.30166L582.12,1819.78168L582.6,1818.58169L582.72,1818.3417L583.08,1815.94172
				L583.32,1813.66174L584.04,1812.22176L585.36,1809.82178L585.36,1807.18181L585.24,1807.06181L582.96,1805.38183L577.92,1803.82184
				L574.92,1803.82184L573.36,1803.82184L572.88,1803.70184L569.28,1802.86185L568.2,1802.98185L565.8,1803.34185L561.6,1802.14186
				L561.24,1802.14186L560.04,1801.78186L554.64,1801.54187L553.08,1801.66186L552.12,1801.66186L550.32,1801.78186L546.72,1802.14186
				L546.12,1802.26186L543.72,1802.50186L540,1803.22185L537.12,1803.70184L534.12,1804.06184L532.32,1804.30184L528.24,1802.98185
				L527.04,1802.62185L524.4,1800.82187L522.12,1799.26189L520.44,1797.9419L517.44,1795.42193L517.2,1794.94193L515.76,1792.06196
				L515.76,1791.94196L515.52,1791.58197L515.52,1788.462L515.52,1786.06202L515.16,1782.22206L515.04,1781.38207L515.04,1780.66208
				L514.68,1777.30211L514.56,1776.34212L514.2,1771.06217L514.08,1770.94217L514.08,1770.10218L513.12,1768.4222L512.16,1766.74222
				L512.04,1766.14222L510.84,1761.70227L510.84,1761.58227L510.84,1761.46227L510.48,1760.14228L508.2,1751.98236L506.04,1741.06247
				L498,1713.10276L493.68,1705.54283L490.08,1699.0629L484.56,1689.94299L484.44,1689.82299L484.44,1689.70299L484.2,1689.343L
				478.08,1679.1431L467.28,1661.14328L466.08,1659.1033L457.68,1649.0234L457.08,1648.18341L456.6,1647.58342L456.48,1647.46342
				L456.36,1647.34342L456.24,1647.22342L456.12,1647.10342L455.52,1646.26343L453,1642.06347L452.4,1630.78358L456.84,1620.94368
				L456.96,1620.22369L457.32,1610.38379L457.44,1609.4238L457.56,1605.58384L457.92,1598.9839L462.84,1584.22405L467.16,1575.94414
				L469.68,1568.02422L470.04,1563.82426L470.4,1560.58429L470.64,1557.22432L470.64,1557.10433L470.16,1554.22436L470.16,1553.86436
				L470.04,1553.62436L470.04,1553.50436L470.04,1553.26436L470.04,1553.14437L470.04,1553.02437L469.8,1551.58438L469.2,1547.86442
				L469.2,1541.26449L469.2,1541.14449L469.2,1541.02449L468.48,1536.34454L468.24,1534.54455L467.76,1532.62457L467.52,1532.02458
				L467.4,1531.66458L467.4,1531.54458L467.4,1531.42458L467.16,1530.82459L465.48,1524.46465L465.24,1523.74466L463.8,1517.26473
				L463.8,1517.14473L463.8,1517.02473L463.68,1516.90473L463.32,1514.86475L465.72,1510.54479L466.32,1509.46481L466.56,1508.98481
				L466.56,1508.86481L466.68,1508.74481L467.04,1508.14482L467.04,1508.02482L467.16,1507.90482L467.16,1507.78482L468.12,1506.10484
				L469.2,1504.06486L470.16,1503.70486L470.28,1503.70486L470.28,1503.58486L470.52,1503.58486L476.52,1501.18489L483.48,1502.14488
				L490.44,1497.94492L490.8,1497.70492L500.64,1492.30498L504.6,1486.78503L507.12,1483.42507L511.68,1478.50512L514.44,1475.50515
				L518.88,1469.62521L519.84,1462.30528L523.08,1453.06537L523.8,1450.9054L528.96,1442.50548L529.32,1441.90549L530.52,1439.98551
				L530.76,1439.62551L530.76,1439.50551L530.88,1439.38551L531,1439.26551L531,1439.14551L531.12,1438.90552L533.16,1427.14563
				L537.6,1418.26572L541.44,1408.90582L543.48,1404.10587L544.56,1404.94586L545.52,1404.82586L545.64,1404.70586L545.76,1404.70586
				L546,1404.70586L549.12,1404.22587L553.2,1401.94589L557.64,1397.62593L559.68,1396.54594L560.88,1394.74596L560.76,1391.38599
				L563.4,1384.66606L565.2,1382.50608L568.92,1380.22611L572.04,1380.8261L575.76,1382.86608L580.2,1384.66606L584.28,1385.02606
				L585,1383.94607L585,1381.3061L584.64,1378.78612L584.52,1375.54615L586.44,1372.54618L589.56,1370.26621L592.2,1369.54621L593.4,1367.86623
				L593.88,1367.38624L595.08,1364.86626L597.24,1361.98629L597.36,1360.42631L596.16,1356.94634L595.92,1356.46635L595.32,1354.90636
				L594.72,1353.22638L594.36,1352.98638L594.24,1352.98638L594.12,1352.86638L594,1352.86638L594,1352.74638L593.52,1352.50639
				L593.4,1352.50639L591.48,1351.66639L590.28,1348.06643L589.68,1344.82646L589.2,1341.5865L587.52,1338.58653L585.36,1336.42655
				L583.8,1334.98656L580.56,1334.62657L576.12,1335.10656L576,1335.22656L572.76,1336.18655L569.88,1337.50654L568.08,1337.98653
				L564.84,1337.98653L562.32,1335.46656L560.52,1332.82658L557.64,1329.94661L556.92,1328.02663L554.4,1324.54667L553.08,1320.8267
				L552.84,1318.30673L551.76,1316.02675L550.2,1314.34677L545.88,1312.42679L542.52,1310.50681L541.2,1308.70683L541.08,1306.18685
				L540.84,1304.86687L539.64,1303.42688L537.6,1302.94688L534.12,1303.30688L531.24,1304.38687L528.96,1303.78688L528.72,1303.66688
				L527.4,1303.30688L523.56,1303.06688L520.68,1303.30688L516.24,1303.90687L516,1303.90687L515.88,1303.90687L515.4,1304.02687
				L514.68,1304.02687L513.6,1301.5069L513,1300.06691L512.04,1297.66694L506.04,1288.66703L505.68,1287.94704L505.56,1287.70704
				L505.44,1287.58704L505.44,1287.46704L505.32,1287.22704L502.68,1282.66709L500.4,1275.58716L498.72,1270.42721L497.76,1260.10732
				L494.76,1246.78745L497.28,1236.94755L496.92,1231.6676L496.68,1228.66763L498.24,1214.86777L501.6,1207.90784L501.96,1189.90802
				L502.2,1180.90811L504.12,1163.14829L505.56,1154.86838L509.04,1150.18842L512.28,1145.62847L512.4,1145.50847L513.48,1143.94849
				L513.6,1143.82849L519.48,1136.86856L520.32,1135.90857L521.16,1134.82858L521.4,1134.46858L522.72,1132.6686L522.84,1132.5486
				L522.96,1132.4286L523.08,1132.3086L523.2,1132.1886L523.8,1131.34861L524.76,1130.62862L529.44,1127.50865L531.12,1126.06867
				L531.24,1126.06867L531.24,1125.94867L531.36,1125.94867L537.84,1120.42872L544.32,1115.14878L544.68,1114.78878L549.96,1107.58885
				L556.08,1103.74889L556.8,1103.26889L558.6,1102.9089L560.28,1102.6689L565.44,1101.82891L565.68,1101.70891L565.8,1101.70891
				L565.92,1101.70891L566.04,1101.70891L569.28,1101.10892L569.88,1100.98892L570.24,1100.86892L582.84,1097.74895L582.96,1097.74895
				L583.2,1097.74895L585.36,1097.26896L591,1095.34897L591.6,1095.22898L593.4,1094.62898L594,1094.38898L601.56,1088.98904L602.04,1088.62904
				L603.96,1087.18906L605.16,1086.58906L605.52,1086.34906L609,1084.42908L619.44,1078.66914L619.8,1078.42914L620.16,1078.18915
				L623.88,1073.86919L624.12,1073.50919L624.84,1072.6692L632.28,1061.98931L634.56,1057.66935L635.76,1056.46937L636.12,1055.98937
				L636.6,1055.50938L636.96,1055.26938L639.24,1052.9894L639.36,1052.8694L639.6,1052.7494L642.72,1051.06942L645.12,1049.86943
				L649.8,1047.10946L654.48,1043.3895L654.96,1041.70951L655.08,1041.22952L656.04,1038.10955L656.16,1037.62956L656.4,1037.26956
				L658.44,1032.7096L663.48,1028.98964L665.64,1026.46967L665.88,1026.22967L667.2,1024.66969L669.36,1019.38974L671.52,1014.70979
				L675.24,1010.98982L678.72,1005.34988L682.2,1000.06993L682.56,999.34994L683.4,998.14995L686.88,993.11L687.12,992.75001L688.08,991.31002
				L691.68,986.51007L693.48,982.79011L693.72,982.07011L694.44,980.63013L699.12,974.99019L699.48,974.75019L700.08,970.19023L
				700.08,969.71024L700.32,967.79026L701.64,963.2303L701.76,963.11031L702,962.75031L703.8,960.71033L703.92,960.59033L706.92,957.23036
				L707.64,954.1104L707.64,953.7504L708.12,951.71042L711,944.1505L712.44,941.51052L712.68,941.15053L718.08,931.91062L718.56,930.95063
				L718.68,930.71063L719.64,928.43065L720.24,925.91068L721.56,921.95072L721.8,916.91077L720.96,913.19081L723.12,909.47085L728.04,903.47091
				L732.12,897.95096L735.24,892.67101L739.56,887.03107L744.6,879.23115L748.32,874.91119L751.68,870.23124L751.92,868.67126L752.4,865.55129
				L752.04,862.79132L754.8,859.31135L760.2,853.67141L763.92,849.35145L768.6,838.43156L769.92,836.39158L775.68,827.63167L775.92,827.51167
				L776.28,826.79168L781.68,822.11172L786,817.43177L788.16,810.23184L790.68,804.9519L791.64,799.67195L795.6,791.27204L798.48,787.19208
				L802.2,780.35215L805.56,776.39219L807.48,773.27222L807.72,768.23227L807.48,763.31232L805.92,754.9124L805.08,743.39252L804.96,741.47254
				L805.92,730.31265L809.64,724.67271L814.68,721.19274L820.2,715.6728L823.92,713.39282L830.16,714.11281L832.68,716.27279L835.44,720.95274
				L837.36,725.87269L841.08,732.47263L845.16,737.75257L853.8,744.59251L866.04,748.91246L883.08,753.35242L893.4,756.47239L904.32,759.23236
				L911.16,760.19235L917.4,758.87236L928.56,753.59241L937.56,747.95247L939.24,747.95247L941.64,747.83247L944.76,746.51249L945.12,746.27249
				L945.24,746.27249L945.36,746.27249L945.6,746.15249L949.44,744.47251L954.72,739.91255L954.96,739.67255L955.08,739.55256L955.08,739.43256
				L955.32,739.43256L958.8,736.31259L960.6,733.31262L964.44,726.95268L969.72,714.8328L972.12,704.87291L977.76,693.35302L981.24,684.59311
				L984.48,677.99318L985.92,675.3532L987.12,670.79325L989.04,664.07332L992.4,656.27339L993.36,647.87348L994.92,641.03355L996.96,636.83359
				L998.64,633.23363L1005.12,624.83371L1010.76,613.91382L1017.36,600.59395L1022.28,590.87405L1028.52,582.23414L1035.96,577.55419
				L1040.88,572.75423L1049.4,556.3144L1056.12,544.19452L1065.12,532.79464L1078.44,519.59477L1081.08,516.8348L1097.16,504.95492
				L1097.16,472.91524L1097.28,464.39533L1102.8,447.83549L1104.84,441.59556L1104.96,441.47556L1105.32,440.39557L1128,435.35562
				L1137,428.99568L1145.04,409.07588L1161,401.03596L1176.96,381.11616L1200.96,353.15645L1202.28,346.67651L1202.28,346.55651
				L1204.92,333.11665L1228.92,289.19709L1251,294.71703L1260,296.87701L1284.96,304.67693L1308.96,316.67681L1324.44,321.95676
				L1328.76,329.15669L1364.76,349.07649L1400.64,345.11653L1408.68,345.11653L1420.68,357.11641L1416,371.87626L1413.96,390.59607
				L1392.84,424.43573L1392.72,428.99568L1396.8,444.47553L1405.44,447.83549L1416.84,452.39545L1423.68,447.83549L1440.72,436.43561
				L1476.72,424.43573L1483.44,414.35583L1488.84,405.11592L1496.52,397.076L1508.64,376.55621L1540.56,360.59637L1568.4,349.07649
				L1600.32,337.19661L1619.88,337.19661L1620.36,337.19661L1638.72,332.27666L1667.76,328.1967L1688.4,324.59673L1708.32,308.63689
				L1748.16,301.19697L1782.24,296.87701L1796.04,293.51705L1821.24,286.79711L1837.2,278.75719L1856.28,278.2772L1877.16,266.87731
				L1894.68,263.63735L1915.44,232.43766L1999.68,193.67805L2007,188.7581L2029.92,180.35818L2032.32,178.5582L2044.68,168.9583
				L2055.48,157.19842L2055.84,157.07842L2056.08,157.07842L2056.2,157.07842L2056.32,157.19842L2071.68,169.43829L2091.6,189.35809
				L2111.52,233.27765L2118.48,249.47749L2119.92,252.71746L2120.04,252.95745L2123.52,277.19721L2132.76,308.75689"/>
		</g>
		<g id="sattlements">
			<path clip-path="url(#SVG_CP_1)" fill="#FF0000" fill-rule="evenodd" stroke="#000000" stroke-width="0.96" stroke-miterlimit="10" stroke-linecap="round" stroke-linejoin="round" d="
				M1018.56,1813.18175C1018.56,1807.68105,1014.10076,1803.22185,1008.6,1803.22185C1003.09924,1803.22185,998.64,1807.68105,998.64,1813.18175
				C998.64,1818.68245,1003.09924,1823.14165,1008.6,1823.14165C1014.10076,1823.14165,1018.56,1818.68245,1018.56,1813.18175z"/>
			<path clip-path="url(#SVG_CP_1)" fill="#FF0000" fill-rule="evenodd" stroke="#000000" stroke-width="0.96" stroke-miterlimit="10" stroke-linecap="round" stroke-linejoin="round" d="
				M1061.16,2764.53217C1061.16,2759.03147,1056.70076,2754.57227,1051.2,2754.57227C1045.69924,2754.57227,1041.24,2759.03147,
				1041.24,2764.53217C1041.24,2770.03287,1045.69924,2774.49207,1051.2,2774.49207C1056.70076,2774.49207,1061.16,2770.03287,1061.16,2764.53217
				z"/>
			<path clip-path="url(#SVG_CP_1)" fill="#FF0000" fill-rule="evenodd" stroke="#000000" stroke-width="0.96" stroke-miterlimit="10" stroke-linecap="round" stroke-linejoin="round" d="
				M907.92,2559.81423C907.92,2554.31353,903.46076,2549.85433,897.96,2549.85433C892.45924,2549.85433,888,2554.31353,888,2559.81423
				C888,2565.31493,892.45924,2569.77413,897.96,2569.77413C903.46076,2569.77413,907.92,2565.31493,907.92,2559.81423z"/>
			<path clip-path="url(#SVG_CP_1)" fill="#FF0000" fill-rule="evenodd" stroke="#000000" stroke-width="0.96" stroke-miterlimit="10" stroke-linecap="round" stroke-linejoin="round" d="
				M840.12,2478.09506C840.12,2472.59435,835.66076,2468.13516,830.16,2468.13516C824.65924,2468.13516,820.2,2472.59435,820.2,2478.09506
				C820.2,2483.59576,824.65924,2488.05495,830.16,2488.05495C835.66076,2488.05495,840.12,2483.59576,840.12,2478.09506z"/>
			<path clip-path="url(#SVG_CP_1)" fill="#FF0000" fill-rule="evenodd" stroke="#000000" stroke-width="0.96" stroke-miterlimit="10" stroke-linecap="round" stroke-linejoin="round" d="
				M792.72,2760.69221C792.72,2755.19151,788.26076,2750.73231,782.76,2750.73231C777.25924,2750.73231,772.8,2755.19151,772.8,2760.69221
				C772.8,2766.19291,777.25924,2770.65211,782.76,2770.65211C788.26076,2770.65211,792.72,2766.19291,792.72,2760.69221z"/>
			<path clip-path="url(#SVG_CP_1)" fill="#FF0000" fill-rule="evenodd" stroke="#000000" stroke-width="0.96" stroke-miterlimit="10" stroke-linecap="round" stroke-linejoin="round" d="
				M1230,2618.97364C1230,2613.47294,1225.54076,2609.01374,1220.04,2609.01374C1214.53924,2609.01374,1210.08,2613.47294,1210.08,2618.97364
				C1210.08,2624.47434,1214.53924,2628.93354,1220.04,2628.93354C1225.54076,2628.93354,1230,2624.47434,1230,2618.97364z"/>
			<path clip-path="url(#SVG_CP_1)" fill="#FF0000" fill-rule="evenodd" stroke="#000000" stroke-width="0.96" stroke-miterlimit="10" stroke-linecap="round" stroke-linejoin="round" d="
				M1209.12,2465.25518C1209.12,2459.75448,1204.66076,2455.29528,1199.16,2455.29528C1193.65924,2455.29528,1189.2,2459.75448,
				1189.2,2465.25518C1189.2,2470.75589,1193.65924,2475.21508,1199.16,2475.21508C1204.66076,2475.21508,1209.12,2470.75589,1209.12,2465.25518
				z"/>
			<path clip-path="url(#SVG_CP_1)" fill="#FF0000" fill-rule="evenodd" stroke="#000000" stroke-width="0.96" stroke-miterlimit="10" stroke-linecap="round" stroke-linejoin="round" d="
				M768.6,2383.17601C768.6,2377.67531,764.14076,2373.21611,758.64,2373.21611C753.13924,2373.21611,748.68,2377.67531,748.68,2383.17601
				C748.68,2388.67671,753.13924,2393.13591,758.64,2393.13591C764.14076,2393.13591,768.6,2388.67671,768.6,2383.17601z"/>
			<path clip-path="url(#SVG_CP_1)" fill="#FF0000" fill-rule="evenodd" stroke="#000000" stroke-width="0.96" stroke-miterlimit="10" stroke-linecap="round" stroke-linejoin="round" d="
				M700.08,2400.69583C700.08,2395.19513,695.62076,2390.73593,690.12,2390.73593C684.61924,2390.73593,680.16,2395.19513,680.16,2400.69583
				C680.16,2406.19654,684.61924,2410.65573,690.12,2410.65573C695.62076,2410.65573,700.08,2406.19654,700.08,2400.69583z"/>
			<path clip-path="url(#SVG_CP_1)" fill="#FF0000" fill-rule="evenodd" stroke="#000000" stroke-width="0.96" stroke-miterlimit="10" stroke-linecap="round" stroke-linejoin="round" d="
				M1100.64,1650.22339C1100.64,1644.72269,1096.18076,1640.26349,1090.68,1640.26349C1085.17924,1640.26349,1080.72,1644.72269
				,1080.72,1650.22339C1080.72,1655.72409,1085.17924,1660.18329,1090.68,1660.18329C1096.18076,1660.18329,1100.64,1655.72409
				,1100.64,1650.22339z"/>
			<path clip-path="url(#SVG_CP_1)" fill="#FF0000" fill-rule="evenodd" stroke="#000000" stroke-width="0.96" stroke-miterlimit="10" stroke-linecap="round" stroke-linejoin="round" d="
				M957,1778.2621C957,1772.7614,952.54076,1768.3022,947.04,1768.3022C941.53924,1768.3022,937.08,1772.7614,937.08,1778.2621C
				937.08,1783.7628,941.53924,1788.222,947.04,1788.222C952.54076,1788.222,957,1783.7628,957,1778.2621z"/>
			<path clip-path="url(#SVG_CP_1)" fill="#FF0000" fill-rule="evenodd" stroke="#000000" stroke-width="0.96" stroke-miterlimit="10" stroke-linecap="round" stroke-linejoin="round" d="
				M651.12,1620.82368C651.12,1615.32298,646.66076,1610.86379,641.16,1610.86379C635.65924,1610.86379,631.2,1615.32298,631.2,1620.82368
				C631.2,1626.32439,635.65924,1630.78358,641.16,1630.78358C646.66076,1630.78358,651.12,1626.32439,651.12,1620.82368z"/>
			<path clip-path="url(#SVG_CP_1)" fill="#FF0000" fill-rule="evenodd" stroke="#000000" stroke-width="0.96" stroke-miterlimit="10" stroke-linecap="round" stroke-linejoin="round" d="
				M724.44,1700.14289C724.44,1694.64219,719.98076,1690.18299,714.48,1690.18299C708.97924,1690.18299,704.52,1694.64219,704.52,1700.14289
				C704.52,1705.64359,708.97924,1710.10279,714.48,1710.10279C719.98076,1710.10279,724.44,1705.64359,724.44,1700.14289z"/>
		</g>
		<g id="sattlements_Anno_4">
			<g font-family="'Sylfaen'" font-size="1" kerning="0" font-weight="700" fill="#000000" clip-path="url(#SVG_CP_1)" >
				<text text-anchor="start" transform="matrix(49.92 0 0 49.9195 1020 1788.102)" >
					<tspan direction="ltr" unicode-bidi="embed" x="0 "></tspan>
					<tspan direction="ltr" unicode-bidi="embed" x="0.45673 "></tspan>
					<tspan direction="ltr" unicode-bidi="embed" x="0.92307 "></tspan>
					<tspan direction="ltr" unicode-bidi="embed" x="1.43027 "></tspan>
					<tspan direction="ltr" unicode-bidi="embed" x="2.12498 "></tspan>
					<tspan direction="ltr" unicode-bidi="embed" x="2.85814 "></tspan>
				</text>
			</g>
			<g font-family="'Sylfaen'" font-size="1" kerning="0" font-weight="700" fill="#000000" clip-path="url(#SVG_CP_1)" >
				<text text-anchor="start" transform="matrix(49.92 0 0 49.9195 1223.52 2599.77383)" >
					<tspan direction="ltr" unicode-bidi="embed" x="0 "></tspan>
					<tspan direction="ltr" unicode-bidi="embed" x="0.69471 "></tspan>
					<tspan direction="ltr" unicode-bidi="embed" x="1.37739 "></tspan>
					<tspan direction="ltr" unicode-bidi="embed" x="1.90142 "></tspan>
					<tspan direction="ltr" unicode-bidi="embed" x="2.36777 "></tspan>
					<tspan direction="ltr" unicode-bidi="embed" x="2.85093 "></tspan>
				</text>
			</g>
			<g font-family="'Sylfaen'" font-size="1" kerning="0" font-weight="700" fill="#000000" clip-path="url(#SVG_CP_1)" >
				<text text-anchor="start" transform="matrix(49.92 0 0 49.9195 1206.12 2447.13537)" >
					<tspan direction="ltr" unicode-bidi="embed" x="0 "></tspan>
					<tspan direction="ltr" unicode-bidi="embed" x="0.48557 "></tspan>
					<tspan direction="ltr" unicode-bidi="embed" x="1.03605 "></tspan>
					<tspan direction="ltr" unicode-bidi="embed" x="1.73075 "></tspan>
					<tspan direction="ltr" unicode-bidi="embed" x="2.21873 "></tspan>
				</text>
			</g>
			<g font-family="'Sylfaen'" font-size="1" kerning="0" font-weight="700" fill="#000000" clip-path="url(#SVG_CP_1)" >
				<text text-anchor="start" transform="matrix(49.92 0 0 49.9195 1053.6 2743.05239)" >
					<tspan direction="ltr" unicode-bidi="embed" x="0 "></tspan>
					<tspan direction="ltr" unicode-bidi="embed" x="0.48557 "></tspan>
					<tspan direction="ltr" unicode-bidi="embed" x="0.90384 "></tspan>
					<tspan direction="ltr" unicode-bidi="embed" x="1.42066 "></tspan>
					<tspan direction="ltr" unicode-bidi="embed" x="2.10094 "></tspan>
					<tspan direction="ltr" unicode-bidi="embed" x="2.51921 "></tspan>
					<tspan direction="ltr" unicode-bidi="embed" x="3.00718 "></tspan>
					<tspan direction="ltr" unicode-bidi="embed" x="3.47352 "></tspan>
					<tspan direction="ltr" unicode-bidi="embed" x="4.28602 "></tspan>
				</text>
			</g>
			<g font-family="'Sylfaen'" font-size="1" kerning="0" font-weight="700" fill="#000000" clip-path="url(#SVG_CP_1)" >
				<text text-anchor="start" transform="matrix(49.92 0 0 49.9195 868.92 2604.57378)" >
					<tspan direction="ltr" unicode-bidi="embed" x="0 "></tspan>
					<tspan direction="ltr" unicode-bidi="embed" x="0.48557 "></tspan>
					<tspan direction="ltr" unicode-bidi="embed" x="0.90384 "></tspan>
					<tspan direction="ltr" unicode-bidi="embed" x="1.36778 "></tspan>
					<tspan direction="ltr" unicode-bidi="embed" x="2.1995 "></tspan>
					<tspan direction="ltr" unicode-bidi="embed" x="2.88218 "></tspan>
					<tspan direction="ltr" unicode-bidi="embed" x="3.43025 "></tspan>
					<tspan direction="ltr" unicode-bidi="embed" x="4.12736 "></tspan>
					<tspan direction="ltr" unicode-bidi="embed" x="4.61293 "></tspan>
				</text>
			</g>
			<g font-family="'Sylfaen'" font-size="1" kerning="0" font-weight="700" fill="#000000" clip-path="url(#SVG_CP_1)" >
				<text text-anchor="start" transform="matrix(49.92 0 0 49.9195 550.56 2519.37464)" >
					<tspan direction="ltr" unicode-bidi="embed" x="0 "></tspan>
					<tspan direction="ltr" unicode-bidi="embed" x="0.52403 "></tspan>
					<tspan direction="ltr" unicode-bidi="embed" x="0.99038 "></tspan>
					<tspan direction="ltr" unicode-bidi="embed" x="1.47354 "></tspan>
					<tspan direction="ltr" unicode-bidi="embed" x="1.96152 "></tspan>
					<tspan direction="ltr" unicode-bidi="embed" x="2.69709 "></tspan>
					<tspan direction="ltr" unicode-bidi="embed" x="3.37977 "></tspan>
					<tspan direction="ltr" unicode-bidi="embed" x="4.18986 "></tspan>
					<tspan direction="ltr" unicode-bidi="embed" x="4.67784 "></tspan>
					<tspan direction="ltr" unicode-bidi="embed" x="5.37254 "></tspan>
					<tspan direction="ltr" unicode-bidi="embed" x="6.05763 "></tspan>
					<tspan direction="ltr" unicode-bidi="embed" x="6.52397 "></tspan>
					<tspan direction="ltr" unicode-bidi="embed" x="7.46387 "></tspan>
				</text>
			</g>
			<g font-family="'Sylfaen'" font-size="1" kerning="0" font-weight="700" fill="#000000" clip-path="url(#SVG_CP_1)" >
				<text text-anchor="start" transform="matrix(49.92 0 0 49.9195 732.78 2725.89256)" >
					<tspan direction="ltr" unicode-bidi="embed" x="0 "></tspan>
					<tspan direction="ltr" unicode-bidi="embed" x="0.67307 "></tspan>
					<tspan direction="ltr" unicode-bidi="embed" x="1.40864 "></tspan>
					<tspan direction="ltr" unicode-bidi="embed" x="2.35094 "></tspan>
					<tspan direction="ltr" unicode-bidi="embed" x="2.81728 "></tspan>
					<tspan direction="ltr" unicode-bidi="embed" x="3.75958 "></tspan>
					<tspan direction="ltr" unicode-bidi="embed" x="4.22592 "></tspan>
					<tspan direction="ltr" unicode-bidi="embed" x="4.73072 "></tspan>
				</text>
			</g>
			<g font-family="'Sylfaen'" font-size="1" kerning="0" font-weight="700" fill="#000000" clip-path="url(#SVG_CP_1)" >
				<text text-anchor="start" transform="matrix(49.92 0 0 49.9195 759.96 2361.69623)" >
					<tspan direction="ltr" unicode-bidi="embed" x="0 "></tspan>
					<tspan direction="ltr" unicode-bidi="embed" x="0.81009 "></tspan>
					<tspan direction="ltr" unicode-bidi="embed" x="1.50479 "></tspan>
					<tspan direction="ltr" unicode-bidi="embed" x="2.44709 "></tspan>
					<tspan direction="ltr" unicode-bidi="embed" x="2.91343 "></tspan>
					<tspan direction="ltr" unicode-bidi="embed" x="3.399 "></tspan>
					<tspan direction="ltr" unicode-bidi="embed" x="4.12977 "></tspan>
				</text>
			</g>
			<g font-family="'Sylfaen'" font-size="1" kerning="0" font-weight="700" fill="#000000" clip-path="url(#SVG_CP_1)" >
				<text text-anchor="start" transform="matrix(49.92 0 0 49.9195 701.4 2449.89534)" >
					<tspan direction="ltr" unicode-bidi="embed" x="0 "></tspan>
					<tspan direction="ltr" unicode-bidi="embed" x="0.48557 "></tspan>
					<tspan direction="ltr" unicode-bidi="embed" x="1.03605 "></tspan>
					<tspan direction="ltr" unicode-bidi="embed" x="1.52162 "></tspan>
					<tspan direction="ltr" unicode-bidi="embed" x="2.21632 "></tspan>
					<tspan direction="ltr" unicode-bidi="embed" x="2.7043 "></tspan>
					<tspan direction="ltr" unicode-bidi="embed" x="3.25478 "></tspan>
					<tspan direction="ltr" unicode-bidi="embed" x="3.67304 "></tspan>
					<tspan direction="ltr" unicode-bidi="embed" x="4.16102 "></tspan>
					<tspan direction="ltr" unicode-bidi="embed" x="4.9711 "></tspan>
					<tspan direction="ltr" unicode-bidi="embed" x="5.49514 "></tspan>
					<tspan direction="ltr" unicode-bidi="embed" x="5.96148 "></tspan>
					<tspan direction="ltr" unicode-bidi="embed" x="6.44705 "></tspan>
				</text>
			</g>
			<g font-family="'Sylfaen'" font-size="1" kerning="0" font-weight="700" fill="#000000" clip-path="url(#SVG_CP_1)" >
				<text text-anchor="start" transform="matrix(49.92 0 0 49.9195 1037.88 1635.70353)" >
					<tspan direction="ltr" unicode-bidi="embed" x="0 "></tspan>
					<tspan direction="ltr" unicode-bidi="embed" x="0.41827 "></tspan>
					<tspan direction="ltr" unicode-bidi="embed" x="0.9423 "></tspan>
					<tspan direction="ltr" unicode-bidi="embed" x="1.36056 "></tspan>
					<tspan direction="ltr" unicode-bidi="embed" x="2.30286 "></tspan>
					<tspan direction="ltr" unicode-bidi="embed" x="2.78843 "></tspan>
					<tspan direction="ltr" unicode-bidi="embed" x="3.48314 "></tspan>
					<tspan direction="ltr" unicode-bidi="embed" x="4.16823 "></tspan>
					<tspan direction="ltr" unicode-bidi="embed" x="4.63457 "></tspan>
					<tspan direction="ltr" unicode-bidi="embed" x="5.57687 "></tspan>
				</text>
			</g>
			<g font-family="'Sylfaen'" font-size="1" kerning="0" font-weight="700" fill="#000000" clip-path="url(#SVG_CP_1)" >
				<text text-anchor="start" transform="matrix(49.92 0 0 49.9195 763.68 1758.8223)" >
					<tspan direction="ltr" unicode-bidi="embed" x="0 "></tspan>
					<tspan direction="ltr" unicode-bidi="embed" x="0.81009 "></tspan>
					<tspan direction="ltr" unicode-bidi="embed" x="1.35816 "></tspan>
					<tspan direction="ltr" unicode-bidi="embed" x="1.77883 "></tspan>
					<tspan direction="ltr" unicode-bidi="embed" x="2.2644 "></tspan>
					<tspan direction="ltr" unicode-bidi="embed" x="2.73074 "></tspan>
					<tspan direction="ltr" unicode-bidi="embed" x="3.54323 "></tspan>
				</text>
			</g>
			<g font-family="'Sylfaen'" font-size="1" kerning="0" font-weight="700" fill="#000000" clip-path="url(#SVG_CP_1)" >
				<text text-anchor="start" transform="matrix(49.92 0 0 49.9195 641.28 1609.4238)" >
					<tspan direction="ltr" unicode-bidi="embed" x="0 "></tspan>
					<tspan direction="ltr" unicode-bidi="embed" x="0.72595 "></tspan>
					<tspan direction="ltr" unicode-bidi="embed" x="1.14422 "></tspan>
					<tspan direction="ltr" unicode-bidi="embed" x="1.82691 "></tspan>
					<tspan direction="ltr" unicode-bidi="embed" x="2.37498 "></tspan>
					<tspan direction="ltr" unicode-bidi="embed" x="2.86295 "></tspan>
					<tspan direction="ltr" unicode-bidi="embed" x="3.32929 "></tspan>
					<tspan direction="ltr" unicode-bidi="embed" x="3.79564 "></tspan>
					<tspan direction="ltr" unicode-bidi="embed" x="4.30284 "></tspan>
				</text>
			</g>
			<g font-family="'Sylfaen'" font-size="1" kerning="0" font-weight="700" fill="#000000" clip-path="url(#SVG_CP_1)" >
				<text text-anchor="start" transform="matrix(49.92 0 0 49.9195 726.96 1684.78304)" >
					<tspan direction="ltr" unicode-bidi="embed" x="0 "></tspan>
					<tspan direction="ltr" unicode-bidi="embed" x="0.73076 "></tspan>
					<tspan direction="ltr" unicode-bidi="embed" x="1.46874 "></tspan>
					<tspan direction="ltr" unicode-bidi="embed" x="1.96873 "></tspan>
					<tspan direction="ltr" unicode-bidi="embed" x="2.7067 "></tspan>
					<tspan direction="ltr" unicode-bidi="embed" x="3.38939 "></tspan>
					<tspan direction="ltr" unicode-bidi="embed" x="3.85573 "></tspan>
					<tspan direction="ltr" unicode-bidi="embed" x="4.36053 "></tspan>
				</text>
			</g>
		</g>
	</g>
</svg>
