<?xml version="1.0" encoding="utf-8" standalone="no"?>
<!-- Creator: Esri ArcMap 10.9.1.28388 -->
<!DOCTYPE svg PUBLIC "-//W3C//DTD SVG 1.1//EN"  "http://www.w3.org/Graphics/SVG/1.1/DTD/svg11.dtd">
<svg width="2592pt" height="3456pt" viewBox="0 0 2592 3456" enable-background="new 0 0 2592 3456"
	version="1.1" xmlns="http://www.w3.org/2000/svg" xmlns:xlink="http://www.w3.org/1999/xlink" >
	<g id="Layers">
		<g id="municipal">
			<path clip-path="url(#SVG_CP_1)" fill="#9e6e9c" fill-rule="evenodd" stroke="none" d="M2132.76,308.76225L2138.76,352.68256
				L2138.76,353.04257L2139.12,356.64259L2141.52,378.36275L2141.4,380.16276L2141.28,383.04279L2141.16,386.16281L2139.48,425.04309
				L2140.68,438.60319L2140.68,448.56326L2130.72,464.52338L2118.72,478.56348L2102.76,490.44357L2093.16,500.16364L2092.8,500.52364
				L2078.76,510.48371L2054.88,524.40381L2024.88,530.40386L2012.16,532.56387L1979.76,540.84393L1953.96,546.96398L1949.04,548.04398
				L1944.96,549.00399L1908.72,557.64405L1908.6,557.64405L1905.6,559.32407L1904.88,560.52408L1904.16,561.60408L1903.56,562.44409
				L1903.32,563.8841L1902.96,564.84411L1902.6,565.32411L1902.24,565.56411L1902,565.80411L1901.04,567.00412L1900.44,567.60413
				L1899,568.68413L1898.16,569.28414L1897.8,569.64414L1897.2,570.24415L1895.4,572.16416L1893.84,573.84417L1893,575.28418L1891.44,572.52416
				L1890.72,571.20415L1886.76,564.0041L1885.8,562.44409L1884.96,562.56409L1869.12,564.96411L1869,564.96411L1865.16,575.04418
				L1863.48,579.60421L1870.92,589.20428L1867.68,591.4843L1867.2,591.8443L1863.24,594.72432L1862.52,595.32433L1857.12,599.28436
				L1853.4,602.04438L1851.36,603.60439L1844.28,608.88443L1840.92,607.92442L1838.64,607.20441L1836.36,606.36441L1830.84,604.44439
				L1824.6,602.40438L1821.6,601.32437L1812.48,609.96443L1812,610.44444L1809.72,613.20446L1807.68,614.16447L1804.44,615.72448
				L1799.4,622.08452L1809.36,630.12458L1811.4,631.80459L1812.36,632.5246L1811.4,633.36461L1810.08,634.56461L1811.88,642.24467
				L1812.84,646.4447L1813.56,648.96472L1814.52,652.44474L1815.12,654.24476L1814.4,654.72476L1807.92,658.44479L1807.68,658.56479
				L1810.32,660.96481L1815.48,665.88484L1815.12,668.88486L1814.4,675.36491L1813.92,679.32494L1808.16,676.56492L1803.48,674.2849
				L1794.84,680.16495L1799.76,685.32498L1800.36,685.92499L1805.04,688.205L1812.24,691.68503L1813.08,692.04503L1813.08,693.36504
				L1813.08,694.20505L1813.08,696.36506L1813.08,696.72507L1813.08,698.76508L1813.08,699.00508L1813.32,699.12508L1828.92,702.1251
				L1827,707.28514L1826.52,708.48515L1825.44,711.24517L1825.08,712.32518L1824.72,713.28519L1824.48,714.48519L1824.24,715.6852
				L1824,718.56522L1824.48,720.48524L1825.08,721.32524L1825.2,721.56525L1825.92,722.40525L1828.2,723.96526L1829.76,724.68527
				L1830.6,725.04527L1832.88,726.24528L1835.04,727.56529L1842.96,732.48533L1846.08,734.52534L1849.2,736.44535L1851.36,737.76536
				L1849.32,736.92536L1845.24,735.24535L1839.84,733.08533L1838.64,732.60533L1828.32,728.4053L1817.04,723.84526L1815.96,723.48526
				L1813.92,722.64525L1810.92,723.96526L1807.44,725.64528L1806.36,726.00528L1804.44,726.96529L1803.12,727.56529L1801.92,728.04529
				L1800.6,728.6453L1797.36,728.5253L1785.48,727.92529L1780.2,727.56529L1776.36,728.5253L1771.08,729.84531L1748.64,735.24535
				L1740.84,746.04542L1739.88,750.72546L1738.2,759.12552L1733.4,770.5256L1730.64,776.28564L1730.52,776.40564L1730.52,776.52565
				L1730.64,782.28569L1728.96,782.40569L1727.88,782.64569L1723.08,779.40567L1723.08,779.16567L1723.56,775.80564L1723.8,774.00563
				L1724.4,770.1656L1724.52,769.32559L1725.12,765.12556L1725.48,762.96555L1726.08,758.88552L1722.84,757.68551L1716.84,755.40549
				L1716,754.92549L1715.16,754.44549L1714.56,754.08548L1712.64,752.88547L1706.76,749.64545L1706.16,749.16545L1706.04,749.16545
				L1704.12,748.08544L1701.96,747.36543L1694.16,738.00537L1690.68,739.56538L1683.12,742.3254L1682.16,742.6854L1672.32,751.20546
				L1667.88,755.04549L1659.36,763.56555L1657.68,766.68557L1656.84,768.12558L1656,768.96559L1655.88,769.08559L1653.72,771.24561
				L1651.8,773.52562L1650.96,774.48563L1648.68,777.24565L1648.44,778.80566L1648.2,780.00567L1647.72,783.9657L1645.32,791.52575
				L1635.96,791.88576L1628.76,792.24576L1628.76,816.12593L1636.68,836.16608L1644.72,864.12628L1644.72,880.3264L1644.72,885.12644
				L1644.72,900.00654L1631.28,902.28656L1626.48,903.12657L1620.72,904.08657L1619.88,905.16658L1618.2,907.2066L1604.76,924.00672
				L1584.36,944.28687L1575.6,952.92693L1572,956.64696L1570.8,957.72696L1570.56,958.08697L1568.4,960.24698L1567.68,970.20705
				L1566.36,988.20718L1565.76,996.12724L1565.64,999.24727L1564.92,1008.84733L1564.44,1016.16739L1554.48,1024.08745L1545.36,1031.4075
				L1545.24,1031.5275L1545.12,1031.5275L1544.4,1032.1275L1525.44,1044.36759L1521.36,1061.40772L1517.64,1074.96782L1512.96,1091.76794
				L1511.64,1099.44799L1510.92,1104.00803L1510.56,1106.04804L1508.88,1115.76811L1508.88,1148.16835L1508.88,1155.7284L1499.28,1168.5685
				L1495.56,1173.36853L1487.4,1184.16861L1495.68,1199.88872L1498.08,1204.68876L1500.48,1209.12879L1500.48,1217.40885L1500.48,1223.7689
				L1500.48,1235.16898L1483.44,1252.0891L1484.16,1273.20926L1484.28,1277.04928L1485,1295.28942L1485,1297.80944L1485.12,1298.88944
				L1485.36,1307.2895L1485.48,1310.04952L1482.48,1326.00964L1482.24,1330.56967L1480.92,1359.36988L1465.8,1383.25006L1461.48,1389.8501
				L1449.72,1416.4903L1447.08,1422.37034L1445.52,1425.85037L1445.4,1425.97037L1434.24,1448.41053L1433.52,1449.85054L1433.52,1469.77069
				L1429.56,1501.69092L1425.6,1525.69109L1425.6,1525.93109L1425.6,1526.05109L1425.6,1526.1711L1425.6,1526.2911L1425.6,1541.65121
				L1425.6,1561.69135L1428,1574.05144L1429.56,1581.6115L1437.48,1601.53164L1424.52,1621.09179L1424.4,1621.21179L1424.4,1621.33179
				L1421.52,1625.53182L1397.64,1625.53182L1384.08,1625.53182L1381.56,1625.53182L1361.28,1637.1719L1353.6,1641.49193L1323.48,1663.45209
				L1317.6,1667.77213L1312.56,1671.37215L1309.68,1673.41217L1309.08,1673.65217L1297.8,1677.4922L1289.88,1697.05234L1289.76,1697.41234
				L1286.04,1707.37241L1277.76,1729.33257L1277.76,1732.5726L1277.76,1751.29273L1277.76,1761.37281L1313.76,1777.33292L1337.64,1789.33301
				L1369.68,1797.25307L1389.6,1825.21327L1405.56,1849.21344L1413.6,1869.13359L1397.64,1901.17382L1377.6,1933.09405L1357.68,1949.05417
				L1345.68,1968.97431L1333.68,1996.93452L1328.76,2001.85455L1328.64,2002.09456L1328.4,2002.21456L1325.76,2004.97458L1325.76,2009.65461
				L1325.76,2020.93469L1330.2,2034.49479L1333.68,2044.93487L1334.88,2046.97488L1335.12,2047.33488L1335.24,2047.45489L1335.24,2047.57489
				L1335.24,2047.69489L1335.48,2048.05489L1339.92,2055.49494L1339.92,2055.61494L1340.04,2055.73495L1361.64,2092.81522L1373.64,2120.77542
				L1374.48,2122.45543L1389,2151.49564L1392.12,2157.73569L1393.56,2160.73571L1409.52,2184.73588L1437.48,2196.61597L1438.2,2197.45598
				L1442.28,2202.25601L1444.08,2204.41603L1444.08,2204.53603L1445.4,2206.09604L1446,2206.81604L1446.12,2206.93604L1446.12,2207.05605
				L1457.52,2220.61614L1469.52,2244.61632L1481.52,2260.57643L1493.4,2276.53655L1485.48,2308.45678L1485.48,2317.21685L1485.48,2317.33685
				L1485.48,2317.45685L1485.48,2324.5369L1485.48,2340.49702L1473.24,2347.81707L1473.12,2347.81707L1473,2347.93707L1465.44,2352.4971
				L1457.76,2387.41736L1457.64,2387.53736L1457.64,2387.65736L1457.52,2388.37736L1451.4,2392.45739L1449.72,2393.5374L1448.76,2394.13741
				L1448.64,2394.25741L1448.52,2394.37741L1431.96,2405.41749L1424.16,2410.57753L1421.52,2412.37754L1417.56,2428.33765L1416.6,2429.53766
				L1416.48,2429.65766L1416.36,2429.77766L1416.36,2429.89767L1401.6,2448.2578L1390.2,2465.41792L1385.64,2472.25797L1377.6,2488.21809
				L1375.44,2496.97815L1375.44,2497.09815L1375.32,2497.21816L1373.64,2504.17821L1373.64,2520.13832L1375.44,2520.85833L1389.72,2525.53836
				L1389.84,2525.65836L1389.96,2525.65836L1391.88,2526.25837L1397.64,2528.17838L1407.12,2540.05847L1413.6,2548.09853L1419.72,2553.25856
				L1426.32,2558.7786L1426.44,2558.8986L1426.56,2559.0186L1437.48,2568.13867L1437.48,2588.05882L1437.48,2594.41886L1437.48,2600.0589
				L1451.04,2620.33905L1453.56,2624.05908L1459.8,2633.41915L1465.08,2641.4592L1469.52,2647.93925L1471.92,2652.85929L1481.52,2671.93943
				L1489.8,2677.45947L1496.76,2682.1395L1497,2682.2595L1497.12,2682.3795L1500,2684.29952L1501.2,2685.13952L1504.44,2687.29954
				L1505.4,2687.89954L1537.44,2691.97957L1540.92,2690.77956L1542.72,2690.17956L1542.84,2690.05956L1542.96,2690.05956L1546.44,2688.85955
				L1549.2,2688.01954L1561.32,2683.93951L1563.84,2682.1395L1589.28,2664.01937L1629.24,2652.01928L1657.2,2667.9794L1657.92,2668.5794
				L1677.12,2683.93951L1705.08,2695.9396L1729.08,2735.89989L1761,2727.85983L1788.96,2723.8998L1812.96,2719.93977L1852.92,2719.93977
				L1860.84,2731.81986L1860.84,2747.89998L1840.92,2759.78006L1844.88,2779.82021L1880.88,2787.74027L1908.84,2799.74035L1928.76,2811.74044
				L1936.8,2819.7805L1948.8,2851.70073L1952.76,2879.66094L1956.72,2907.62114L1932.48,2921.54124L1923,2916.86121L1921.92,2916.3812
				L1907.4,2911.94117L1889.88,2910.74116L1878.96,2912.42117L1875.96,2912.90118L1875.72,2912.78118L1859.76,2902.8211L1851.72,2915.5412
				L1844.04,2927.90129L1843.08,2928.98129L1825.8,2948.18143L1807.2,2968.10158L1794.6,2982.02168L1788.12,2995.22178L1780.8,3020.90196
				L1780.56,3021.98197L1779.84,3021.98197L1778.16,3022.10197L1777.32,3020.66196L1776.72,3019.46195L1774.68,3015.74192L1772.16,3012.5019
				L1769.16,3009.86188L1765.2,3007.70187L1760.52,3005.54185L1758.96,3004.94185L1758.48,3004.82185L1756.92,3004.34184L1754.4,3003.50184
				L1752,3003.02183L1751.28,3002.90183L1749.84,3002.54183L1747.68,3001.34182L1745.52,3000.38181L1744.56,3000.02181L1743.72,2999.78181
				L1743.24,2999.66181L1742.88,2999.66181L1742.04,2999.54181L1740.48,2999.66181L1738.68,2999.66181L1736.4,2999.54181L1734.24,2999.90181
				L1731.12,3000.62181L1729.8,3001.22182L1728.6,3002.06183L1726.92,3002.78183L1725.24,3003.50184L1724.04,3004.22184L1723.2,3005.06185
				L1723.08,3006.14186L1723.44,3007.10186L1723.2,3007.94187L1722.48,3008.66187L1721.28,3009.02188L1720.2,3009.62188L1719.36,3009.98188
				L1718.76,3010.82189L1718.4,3012.1419L1717.92,3013.10191L1717.44,3013.70191L1716.36,3014.30191L1715.4,3015.02192L1714.56,3015.98193
				L1713.84,3016.58193L1713,3017.06193L1712.28,3017.42194L1712.16,3017.42194L1711.32,3017.90194L1710.6,3018.50194L1709.88,3019.10195
				L1708.32,3019.70195L1708.08,3019.82195L1707.96,3019.82195L1707.84,3019.82195L1707.72,3019.94196L1707.6,3019.94196L1707.48,3019.94196
				L1706.88,3020.06196L1706.16,3020.06196L1705.8,3020.06196L1705.08,3020.06196L1704.12,3020.06196L1703.76,3020.06196L1703.64,3020.06196
				L1701.12,3020.42196L1701,3020.42196L1700.4,3020.42196L1700.16,3020.54196L1699.92,3020.54196L1699.56,3021.50197L1699.2,3022.46197
				L1698.36,3024.38199L1698.36,3025.702L1698.72,3026.542L1700.64,3028.58202L1702.68,3030.98204L1703.16,3031.82204L1703.76,3032.78205
				L1704.12,3034.46206L1704.24,3035.18207L1704.36,3037.22208L1704.48,3038.66209L1704.48,3038.90209L1704.72,3040.4621L1705.56,3042.14212
				L1706.16,3043.58213L1706.28,3045.26214L1706.4,3045.98214L1701.72,3045.50214L1677.36,3032.54205L1672.2,3020.54196L1670.04,3016.34193
				L1669.8,3015.86193L1659.48,3014.42192L1648.44,2998.8218L1637.88,2990.18174L1623.96,3000.02181L1623.84,3000.02181L1623.84,3000.14181
				L1623.72,3000.14181L1620.84,3002.18183L1593.36,3003.14183L1581.12,3000.14181L1583.16,2984.3017L1579.08,2978.18165L1578.96,2977.94165
				L1578.96,2977.82165L1574.52,2970.9816L1570.44,2966.54157L1555.8,2958.38151L1534.08,2952.14146L1521.96,2944.2214L1521.84,2944.2214
				L1521.72,2944.1014L1519.92,2942.9014L1519.68,2942.78139L1519.56,2942.78139L1517.16,2919.62123L1512,2913.62118L1484.88,2898.50107
				L1477.68,2895.98105L1475.88,2895.26105L1471.08,2893.58104L1464,2901.26109L1457.4,2899.10108L1450.44,2896.58106L1432.2,2898.86108
				L1434.36,2923.58125L1434.96,2931.02131L1435.2,2932.70132L1435.44,2935.58134L1455.84,2933.42133L1460.76,2932.94132L1454.16,2949.26144
				L1481.76,2954.06148L1484.04,2954.54148L1487.28,2957.5415L1493.52,2963.42154L1503.84,2988.98173L1505.16,2991.98175L1489.32,3004.82185
				L1487.28,3007.34186L1480.32,3015.98193L1466.88,3026.422L1464.36,3042.38212L1464.24,3043.46213L1467.24,3045.50214L1481.28,3048.98217
				L1513.2,3075.74236L1532.76,3098.18252L1514.04,3116.30266L1494.6,3122.5427L1493.4,3123.0227L1479.72,3127.46274L1473.36,3131.30277
				L1472.64,3131.78277L1470.24,3133.10278L1448.4,3146.18287L1448.28,3146.30287L1447.08,3145.82287L1446.48,3145.58287L1445.76,3145.22287
				L1438.8,3142.34285L1439.16,3147.02288L1437.96,3148.22289L1437.24,3148.82289L1433.4,3152.42292L1425,3154.58293L1417.8,3156.38295
				L1413.72,3153.62293L1412.16,3152.54292L1410.24,3151.22291L1404.84,3152.54292L1402.68,3149.06289L1396.44,3150.3829L1394.04,3150.0229
				L1392.12,3149.6629L1390.92,3148.82289L1388.76,3145.22287L1385.52,3142.58285L1379.88,3137.78281L1377.96,3139.46282L1377.24,3140.18283
				L1376.76,3140.42283L1376.76,3140.54283L1376.64,3140.66283L1374.6,3142.46285L1374.12,3142.82285L1373.16,3143.66285L1368,3148.10289
				L1374.12,3149.7829L1371.84,3153.26292L1369.08,3157.70296L1371.12,3160.82298L1361.64,3163.103L1358.16,3164.063L1357.92,3164.063
				L1356.12,3164.54301L1355.52,3164.42301L1353,3163.943L1348.8,3173.54307L1349.64,3186.74317L1348.08,3191.0632L1347.84,3191.7832
				L1347.6,3192.26321L1346.76,3197.66325L1347,3199.22326L1348.44,3199.58326L1353.48,3200.90327L1355.28,3203.54329L1335.48,3203.54329
				L1335.48,3268.46376L1330.2,3276.38382L1321.44,3289.46391L1316.88,3296.30396L1316.88,3298.94398L1316.76,3298.94398L1315.92,3298.70398
				L1315.8,3298.58398L1314.84,3298.22398L1313.88,3297.86398L1313.28,3297.62397L1312.8,3297.38397L1312.32,3297.14397L1311.72,3297.02397
				L1310.88,3296.78397L1310.52,3296.66397L1310.4,3296.66397L1310.04,3296.54397L1309.32,3296.18396L1306.92,3295.10396L1306.2,3294.62395
				L1305.84,3294.26395L1304.52,3293.18394L1303.92,3292.70394L1303.8,3292.46394L1303.08,3291.62393L1302.24,3290.78392L1302.12,3290.78392
				L1301.76,3290.42392L1299.96,3289.22391L1299.12,3288.62391L1299,3288.50391L1298.88,3288.38391L1298.52,3288.0239L1297.8,3287.5439
				L1296.96,3287.1839L1296.84,3287.1839L1296.36,3286.9439L1296,3286.9439L1295.4,3286.9439L1294.8,3287.0639L1294.32,3287.1839
				L1292.52,3287.9039L1290.36,3289.10391L1289.64,3289.46391L1288.8,3289.82392L1288.2,3289.94392L1287.96,3289.94392L1287.72,3289.94392
				L1287.6,3289.82392L1286.04,3289.22391L1285.92,3289.10391L1285.8,3289.10391L1284.6,3288.62391L1283.88,3288.26391L1283.76,3288.26391
				L1283.28,3288.14391L1283.04,3288.0239L1282.44,3287.9039L1281.72,3287.9039L1280.88,3287.9039L1280.4,3288.0239L1280.28,3288.0239
				L1280.16,3288.0239L1278.96,3288.26391L1278.48,3288.26391L1277.88,3288.38391L1277.16,3288.38391L1276.44,3288.62391L1276.08,3288.74391
				L1275.84,3288.62391L1275.72,3288.50391L1275.24,3288.0239L1275,3287.6639L1274.88,3287.5439L1274.16,3286.34389L1273.92,3285.98389
				L1273.32,3285.26388L1272.96,3284.90388L1272.6,3284.78388L1272.24,3284.54388L1271.52,3284.42388L1271.16,3284.30388L1268.64,3283.58387
				L1268.28,3283.46387L1267.8,3283.22387L1267.08,3282.86387L1266.6,3282.74387L1265.4,3282.38386L1265.28,3282.26386L1265.16,3282.26386
				L1264.2,3282.02386L1263.72,3281.90386L1262.16,3281.42386L1261.8,3281.42386L1261.68,3281.42386L1261.56,3281.30386L1261.32,3281.30386
				L1260.72,3281.06385L1259.88,3280.58385L1259.16,3280.22385L1258.92,3280.10385L1258.8,3280.22385L1258.68,3280.22385L1258.44,3280.22385
				L1258.32,3280.22385L1257.6,3280.58385L1257.48,3280.70385L1257.36,3280.70385L1257.24,3280.82385L1256.88,3280.94385L1254.84,3282.38386
				L1254.36,3282.62387L1254.12,3282.74387L1253.28,3283.10387L1252.68,3283.34387L1252.44,3283.46387L1251.36,3283.58387L1251.12,3283.58387
				L1250.52,3283.58387L1250.4,3283.58387L1249.44,3283.34387L1248.36,3282.98387L1246.68,3282.26386L1246.44,3282.14386L1246.2,3282.14386
				L1245.96,3282.26386L1245.84,3282.26386L1245.96,3282.14386L1246.44,3281.78386L1246.68,3281.06385L1246.92,3279.86385L1247.28,3276.98382
				L1248,3272.90379L1249.08,3266.54375L1249.56,3263.30372L1250.16,3261.14371L1250.52,3258.86369L1250.64,3256.58368L1250.76,3253.94366
				L1250.64,3251.18364L1250.04,3246.98361L1249.56,3244.22359L1248.84,3239.06355L1248.24,3235.46352L1248.24,3232.9435L1247.16,3226.46346
				L1246.44,3222.50343L1246.08,3219.1434L1245.36,3216.50338L1243.92,3211.82335L1242.72,3207.38332L1242,3204.5033L1240.56,3199.10326
				L1238.76,3193.10321L1237.32,3189.50319L1236.72,3188.06318L1235.88,3185.90316L1234.56,3184.34315L1233.12,3182.90314L1231.8,3182.42314
				L1229.76,3181.46313L1227.6,3180.26312L1226.64,3179.66312L1225.44,3178.82311L1224.12,3177.5031L1223.28,3176.18309L1222.8,3174.62308
				L1222.8,3174.38308L1222.68,3173.90307L1222.32,3172.34306L1221.96,3170.06305L1221.72,3166.82302L1221.72,3164.54301L1221.72,3162.74299
				L1221.36,3160.58298L1221.36,3158.42296L1221.36,3156.02294L1221.72,3153.50293L1221.84,3151.46291L1222.08,3147.62288L1222.2,3143.54285
				L1222.2,3140.90283L1221.84,3139.10282L1221.24,3137.06281L1220.4,3134.18279L1219.2,3129.98276L1217.4,3123.86271L1216.44,3119.78268
				L1216.32,3119.66268L1216.32,3119.54268L1216.32,3119.42268L1215.96,3118.22267L1215.6,3116.30266L1215.6,3113.90264L1215.84,3110.54261
				L1215.96,3104.66257L1216.44,3100.10254L1216.92,3092.06248L1217.64,3082.70241L1218.48,3072.50234L1212.96,3070.46232L1202.64,3068.42231
				L1191,3063.38227L1190.28,3063.02227L1176.48,3057.02223L1166.4,3053.9022L1164.36,3053.5422L1152.72,3051.50218L1135.44,3046.70215
				L1125.84,3044.06213L1125.48,3044.06213L1111.68,3040.2221L1095.48,3031.82204L1083,3025.34199L1078.56,3025.22199L1072.56,3024.98199
				L1072.44,3024.98199L1072.08,3024.98199L1071.96,3024.98199L1062.36,3024.50199L1039.2,3024.26199L1017.12,3025.462L995.76,3025.462
				L984,3025.462L973.44,3024.50199L966.96,3024.02199L965.4,3023.78198L965.04,3023.78198L964.92,3023.78198L964.8,3023.78198L
				964.44,3023.78198L962.76,3023.66198L945.72,3019.22195L931.44,3015.62192L930,3015.14192L929.76,3015.02192L928.92,3014.78192
				L928.68,3014.78192L927.12,3014.30191L924.84,3013.70191L923.4,3013.22191L921.72,3012.7419L921.36,3012.6219L919.68,3012.1419
				L919.44,3012.1419L918.96,3012.0219L918.84,3012.0219L918.48,3011.9019L918.24,3011.9019L915.6,3011.30189L915.12,3011.18189
				L914.88,3011.18189L913.56,3010.82189L913.2,3010.82189L913.08,3010.70189L912.96,3010.70189L912.6,3010.58189L912.12,3010.58189
				L904.44,3008.90188L901.92,3008.30187L901.68,3008.18187L901.08,3008.06187L893.28,3006.26186L891.6,3005.90185L849.36,2996.78179
				L834,2997.38179L833.88,2997.38179L833.4,2997.38179L831.36,2997.50179L829.44,2997.74179L829.2,2997.74179L817.92,2998.7018
				L817.56,2998.7018L814.08,2999.0618L810.24,2999.66181L801.48,3000.98182L799.92,3001.22182L773.64,3004.34184L760.44,3003.50184
				L754.68,3003.02183L743.16,2999.90181L734.16,2996.30178L715.68,2988.86173L700.44,2980.46167L697.08,2977.58165L697.08,2977.46165
				L696.84,2977.34165L696.72,2977.22164L696.6,2977.22164L694.32,2975.90164L686.88,2971.2216L682.68,2967.86158L680.16,2964.86156
				L678.36,2960.90153L675.24,2952.98147L671.52,2937.86136L668.88,2926.58128L668.76,2926.34127L668.76,2926.22127L668.64,2926.10127
				L668.64,2925.98127L668.16,2924.78126L666.36,2920.22123L662.52,2915.7812L661.92,2914.94119L659.52,2912.78118L657.24,2910.50116
				L657.12,2910.38116L657.12,2910.26116L651.96,2905.22112L645.24,2899.22108L639.6,2892.74103L632.16,2881.82095L628.32,2874.6209
				L625.44,2869.94086L625.2,2869.46086L623.04,2865.86084L618.12,2859.98079L612.6,2850.02072L608.64,2840.78065L606.24,2833.1006
				L604.44,2826.50055L602.04,2816.90048L601.32,2814.86046L600.96,2813.78046L594.72,2807.90041L594.6,2807.66041L594.48,2807.66041
				L594.48,2807.54041L594.36,2807.42041L593.4,2806.2204L592.8,2805.8604L592.08,2805.26039L587.88,2802.38037L581.52,2797.46034
				L572.88,2789.78028L571.92,2789.06028L571.08,2788.46027L570.96,2788.34027L570.84,2788.22027L565.68,2784.26024L556.44,2777.78019
				L546.72,2770.10014L545.28,2769.02013L542.88,2767.22012L538.44,2763.38009L534.12,2758.34005L510.96,2727.73983L510.96,2727.61983
				L510.84,2727.49983L510.84,2727.37983L510.72,2727.37983L504.96,2724.49981L504.84,2724.49981L504.72,2724.37981L504.6,2724.37981
				L504.48,2724.25981L504.36,2724.25981L504.24,2724.25981L504,2724.25981L501.36,2723.7798L500.52,2722.9398L500.16,2722.57979
				L498.96,2721.49979L496.44,2718.97977L494.4,2716.33975L490.68,2712.37972L486.6,2706.85968L450.48,2663.53936L463.2,2638.09918
				L477.36,2613.739L477.24,2610.85898L477,2600.53891L475.8,2592.61885L475.68,2592.01884L475.08,2587.69881L472.44,2580.85876
				L470.4,2575.57872L470.4,2565.85865L470.76,2563.09863L470.76,2562.97863L470.76,2562.85863L471,2561.17862L472.92,2552.05855
				L472.56,2543.41849L472.2,2538.73846L468.48,2533.57842L468.72,2526.97837L468.84,2525.41836L469.08,2523.97835L470.04,2516.6583
				L472.56,2506.93823L476.04,2499.13817L479.04,2494.09813L479.04,2493.97813L479.16,2493.85813L479.16,2491.93812L479.4,2486.29808
				L478.8,2479.81803L477,2473.81799L475.44,2470.45796L476.28,2467.33794L477,2464.81792L482.88,2458.21787L483.24,2456.41786L
				484.8,2449.21781L484.8,2443.81777L484.08,2436.37771L482.88,2428.69766L482.52,2421.85761L481.32,2416.21757L481.32,2410.93753
				L481.92,2404.09748L481.92,2398.69744L481.92,2391.25738L482.52,2385.25734L482.88,2382.61732L482.88,2382.49732L482.88,2382.37732
				L482.88,2382.25732L482.88,2382.01732L483.24,2379.6173L488.76,2372.53725L491.28,2364.37719L491.88,2359.09715L491.88,2357.17714
				L491.64,2353.45711L491.88,2349.97708L491.88,2349.61708L491.4,2347.81707L491.28,2347.69707L491.28,2347.57707L491.28,2347.33707
				L490.68,2345.29705L491.28,2335.69698L483.84,2317.09685L483.72,2316.73684L483.24,2315.77684L479.28,2295.73669L481.32,2291.65666
				L481.32,2291.53666L481.44,2291.41666L487.2,2279.77657L500.4,2273.17653L500.52,2273.17653L500.64,2273.17653L500.76,2273.05653
				L504,2271.37651L511.2,2267.77649L512.88,2268.25649L514.8,2268.73649L516.6,2269.2165L516.72,2269.2165L516.84,2269.2165L516.96,2269.2165
				L524.88,2271.25651L525.36,2270.89651L525.48,2270.77651L525.6,2270.65651L529.2,2267.77649L574.08,2268.8565L584.4,2266.81648
				L584.52,2266.81648L584.64,2266.81648L584.76,2266.81648L593.4,2265.13647L595.08,2264.77647L617.04,2260.81644L644.04,2256.85641
				L657,2246.89634L657.48,2246.41633L659.52,2244.25632L659.64,2244.25632L659.76,2244.13632L668.04,2235.85626L668.04,2233.93624
				L668.04,2232.97623L668.04,2232.73623L668.04,2232.49623L668.04,2232.37623L668.04,2231.41622L668.04,2230.93622L668.04,2230.81622
				L668.04,2230.69622L668.04,2229.97621L668.04,2220.85615L668.64,2218.69613L668.64,2218.57613L668.64,2218.45613L673.32,2202.25601
				L673.32,2202.01601L673.44,2201.89601L673.92,2199.97599L663,2179.57585L661.56,2177.05583L657.96,2170.45578L655.32,2165.53574
				L654.96,2164.81574L642,2140.81556L641.88,2140.69556L641.76,2140.57556L641.76,2140.45556L641.16,2139.25555L636.12,2129.89548
				L635.04,2127.97547L635.04,2121.01542L635.04,2118.1354L635.04,2113.09536L635.04,2097.25525L635.04,2096.41524L635.04,2096.29524
				L635.04,2096.05524L635.04,2094.73523L635.04,2091.0152L635.04,2090.8952L635.04,2079.97512L635.04,2060.17498L619.08,2010.25462
				L620.04,1939.3341L626.88,1902.37383L626.88,1902.25383L626.88,1902.13383L626.88,1902.01383L627,1901.89383L627,1901.41382L
				630.6,1897.21379L632.16,1893.25376L633.6,1889.05373L634.8,1885.69371L634.92,1885.45371L634.92,1885.33371L635.04,1885.21371
				L635.04,1884.9737L635.52,1883.8937L635.64,1881.85368L635.64,1881.49368L635.64,1881.37368L635.64,1881.25368L635.64,1880.89367
				L635.64,1879.69367L635.28,1875.73364L635.16,1875.37363L635.16,1875.25363L635.16,1875.13363L635.16,1874.77363L635.16,1874.41363
				L634.8,1874.17363L634.44,1873.69362L634.44,1873.57362L634.32,1873.57362L633.84,1872.97362L630.84,1869.61359L630.48,1869.25359
				L630.36,1869.25359L630.24,1869.13359L629.88,1868.89359L626.16,1866.13357L625.92,1866.01357L625.8,1865.89357L625.68,1865.77356
				L625.2,1865.41356L620.64,1865.41356L613.68,1864.45356L606.24,1862.65354L597.6,1856.7735L593.4,1853.41347L590.88,1851.37346
				L587.28,1846.09342L584.76,1841.29339L584.16,1839.97338L584.16,1839.85338L584.16,1839.73338L584.04,1839.73338L584.04,1839.61337
				L582.24,1835.77335L581.88,1834.45334L581.76,1833.97333L580.68,1829.6533L580.44,1827.37329L580.32,1826.77328L580.32,1826.17328
				L581.04,1823.05325L581.28,1822.33325L582.12,1819.81323L582.6,1818.61322L582.72,1818.37322L583.08,1815.9732L583.32,1813.69319
				L584.04,1812.25318L585.36,1809.85316L585.36,1807.21314L585.24,1807.09314L582.96,1805.41313L577.92,1803.85311L574.92,1803.85311
				L573.36,1803.85311L572.88,1803.73311L569.28,1802.89311L568.2,1803.01311L565.8,1803.37311L561.6,1802.1731L561.24,1802.1731
				L560.04,1801.8131L554.64,1801.5731L553.08,1801.6931L552.12,1801.6931L550.32,1801.8131L546.72,1802.1731L546.12,1802.2931L
				543.72,1802.5331L540,1803.25311L537.12,1803.73311L534.12,1804.09312L532.32,1804.33312L528.24,1803.01311L527.04,1802.65311
				L524.4,1800.85309L522.12,1799.29308L520.44,1797.97307L517.44,1795.45305L517.2,1794.97305L515.76,1792.09303L515.76,1791.97303
				L515.52,1791.61303L515.52,1788.493L515.52,1786.09299L515.16,1782.25296L515.04,1781.41295L515.04,1780.69295L514.68,1777.33292
				L514.56,1776.37291L514.2,1771.09288L514.08,1770.97288L514.08,1770.13287L513.12,1768.45286L512.16,1766.77284L512.04,1766.17284
				L510.84,1761.73281L510.84,1761.61281L510.84,1761.49281L510.48,1760.1728L508.2,1752.01274L506.04,1741.09266L498,1713.13245
				L493.68,1705.5724L490.08,1699.09235L484.56,1689.97229L484.44,1689.85229L484.44,1689.73228L484.2,1689.37228L478.08,1679.17221
				L467.28,1661.17208L466.08,1659.13206L457.68,1649.05199L457.08,1648.21198L456.6,1647.61198L456.48,1647.49198L456.36,1647.37198
				L456.24,1647.25198L456.12,1647.13198L455.52,1646.29197L453,1642.09194L452.4,1630.81186L456.84,1620.97178L456.96,1620.25178
				L457.32,1610.41171L457.44,1609.4517L457.56,1605.61167L457.92,1599.01163L462.84,1584.25152L467.16,1575.97146L469.68,1568.0514
				L470.04,1563.85137L470.4,1560.61135L470.64,1557.25132L470.64,1557.13132L470.16,1554.2513L470.16,1553.8913L470.04,1553.6513
				L470.04,1553.53129L470.04,1553.29129L470.04,1553.17129L470.04,1553.05129L469.8,1551.61128L469.2,1547.89125L469.2,1541.29121
				L469.2,1541.1712L469.2,1541.0512L468.48,1536.37117L468.24,1534.57116L467.76,1532.65114L467.52,1532.05114L467.4,1531.69114
				L467.4,1531.57114L467.4,1531.45113L467.16,1530.85113L465.48,1524.49108L465.24,1523.77108L463.8,1517.29103L463.8,1517.17103
				L463.8,1517.05103L463.68,1516.93103L463.32,1514.89101L465.72,1510.57098L466.32,1509.49097L466.56,1509.01097L466.56,1508.89097
				L466.68,1508.77097L467.04,1508.17096L467.04,1508.05096L467.16,1507.93096L467.16,1507.81096L468.12,1506.13095L469.2,1504.09094
				L470.16,1503.73093L470.28,1503.73093L470.28,1503.61093L470.52,1503.61093L476.52,1501.21091L483.48,1502.17092L490.44,1497.97089
				L490.8,1497.73089L500.64,1492.33085L504.6,1486.81081L507.12,1483.45079L511.68,1478.53075L514.44,1475.53073L518.88,1469.65068
				L519.84,1462.33063L523.08,1453.09056L523.8,1450.93055L528.96,1442.53049L529.32,1441.93048L530.52,1440.01047L530.76,1439.65047
				L530.76,1439.53047L530.88,1439.41046L531,1439.29046L531,1439.17046L531.12,1438.93046L533.16,1427.17038L537.6,1418.29031L
				541.44,1408.93024L543.48,1404.13021L544.56,1404.97021L545.52,1404.85021L545.64,1404.73021L545.76,1404.73021L546,1404.73021
				L549.12,1404.25021L553.2,1401.97019L557.64,1397.65016L559.68,1396.57015L560.88,1394.77014L560.76,1391.41012L563.4,1384.69007
				L565.2,1382.53005L568.92,1380.25003L572.04,1380.85004L575.76,1382.89005L580.2,1384.69007L584.28,1385.05007L585,1383.97006
				L585,1381.33004L584.64,1378.81002L584.52,1375.57L586.44,1372.56998L589.56,1370.28996L592.2,1369.56996L593.4,1367.88995L593.88,1367.40994
				L595.08,1364.88992L597.24,1362.0099L597.36,1360.44989L596.16,1356.96987L595.92,1356.48986L595.32,1354.92985L594.72,1353.24984
				L594.36,1353.00984L594.24,1353.00984L594.12,1352.88984L594,1352.88984L594,1352.76984L593.52,1352.52983L593.4,1352.52983L
				591.48,1351.68983L590.28,1348.0898L589.68,1344.84978L589.2,1341.60975L587.52,1338.60973L585.36,1336.44972L583.8,1335.00971
				L580.56,1334.6497L576.12,1335.12971L576,1335.24971L572.76,1336.20971L569.88,1337.52972L568.08,1338.00973L564.84,1338.00973
				L562.32,1335.48971L560.52,1332.84969L557.64,1329.96967L556.92,1328.04966L554.4,1324.56963L553.08,1320.8496L552.84,1318.32958
				L551.76,1316.04957L550.2,1314.36956L545.88,1312.44954L542.52,1310.52953L541.2,1308.72951L541.08,1306.2095L540.84,1304.88949
				L539.64,1303.44948L537.6,1302.96947L534.12,1303.32948L531.24,1304.40948L528.96,1303.80948L528.72,1303.68948L527.4,1303.32948
				L523.56,1303.08947L520.68,1303.32948L516.24,1303.92948L516,1303.92948L515.88,1303.92948L515.4,1304.04948L514.68,1304.04948
				L513.6,1301.52946L513,1300.08945L512.04,1297.68943L506.04,1288.68937L505.68,1287.96936L505.56,1287.72936L505.44,1287.60936
				L505.44,1287.48936L505.32,1287.24936L502.68,1282.68933L500.4,1275.60927L498.72,1270.44924L497.76,1260.12916L494.76,1246.80906
				L497.28,1236.96899L496.92,1231.68895L496.68,1228.68893L498.24,1214.88883L501.6,1207.92878L501.96,1189.92865L502.2,1180.92859
				L504.12,1163.16846L505.56,1154.8884L509.04,1150.20836L512.28,1145.64833L512.4,1145.52833L513.48,1143.96832L513.6,1143.84832
				L519.48,1136.88827L520.32,1135.92826L521.16,1134.84825L521.4,1134.48825L522.72,1132.68824L522.84,1132.56823L522.96,1132.44823
				L523.08,1132.32823L523.2,1132.20823L523.8,1131.36823L524.76,1130.64822L529.44,1127.5282L531.12,1126.08819L531.24,1126.08819
				L531.24,1125.96819L531.36,1125.96819L537.84,1120.44815L544.32,1115.16811L544.68,1114.80811L549.96,1107.60805L556.08,1103.76802
				L556.8,1103.28802L558.6,1102.92802L560.28,1102.68802L565.44,1101.84801L565.68,1101.72801L565.8,1101.72801L565.92,1101.72801
				L566.04,1101.72801L569.28,1101.12801L569.88,1101.008L570.24,1100.888L582.84,1097.76798L582.96,1097.76798L583.2,1097.76798
				L585.36,1097.28798L591,1095.36796L591.6,1095.24796L593.4,1094.64796L594,1094.40796L601.56,1089.00792L602.04,1088.64791L603.96,1087.2079
				L605.16,1086.6079L605.52,1086.3679L609,1084.44788L619.44,1078.68784L619.8,1078.44784L620.16,1078.20784L623.88,1073.88781
				L624.12,1073.52781L624.84,1072.6878L632.28,1062.00772L634.56,1057.68769L635.76,1056.48768L636.12,1056.00768L636.6,1055.52767
				L636.96,1055.28767L639.24,1053.00766L639.36,1052.88765L639.6,1052.76765L642.72,1051.08764L645.12,1049.88763L649.8,1047.12761
				L654.48,1043.40759L654.96,1041.72757L655.08,1041.24757L656.04,1038.12755L656.16,1037.64754L656.4,1037.28754L658.44,1032.72751
				L663.48,1029.00748L665.64,1026.48746L665.88,1026.24746L667.2,1024.68745L669.36,1019.40741L671.52,1014.72738L675.24,1011.00735
				L678.72,1005.36731L682.2,1000.08727L682.56,999.36727L683.4,998.16726L686.88,993.12722L687.12,992.76722L688.08,991.32721L
				691.68,986.52717L693.48,982.80715L693.72,982.08714L694.44,980.64713L699.12,975.00709L699.48,974.76709L700.08,970.20705L700.08,969.72705
				L700.32,967.80704L701.64,963.247L701.76,963.127L702,962.767L703.8,960.72698L703.92,960.60698L706.92,957.24696L707.64,954.12694
				L707.64,953.76693L708.12,951.72692L711,944.16686L712.44,941.52685L712.68,941.16684L718.08,931.92678L718.56,930.96677L718.68,930.72677
				L719.64,928.44675L720.24,925.92673L721.56,921.9667L721.8,916.92667L720.96,913.20664L723.12,909.48661L728.04,903.48657L732.12,897.96653
				L735.24,892.68649L739.56,887.04645L744.6,879.24639L748.32,874.92636L751.68,870.24633L751.92,868.68632L752.4,865.56629L752.04,862.80627
				L754.8,859.32625L760.2,853.68621L763.92,849.36618L768.6,838.4461L769.92,836.40608L775.68,827.64602L775.92,827.52602L776.28,826.80601
				L781.68,822.12598L786,817.44594L788.16,810.24589L790.68,804.96585L791.64,799.68581L795.6,791.28575L798.48,787.20572L802.2,780.36567
				L805.56,776.40564L807.48,773.28562L807.72,768.24559L807.48,763.32555L805.92,754.92549L805.08,743.40541L804.96,741.48539L
				805.92,730.32531L809.64,724.68527L814.68,721.20524L820.2,715.6852L823.92,713.40519L830.16,714.12519L832.68,716.28521L835.44,720.96524
				L837.36,725.88528L841.08,732.48533L845.16,737.76536L853.8,744.60541L866.04,748.92545L883.08,753.36548L893.4,756.4855L904.32,759.24552
				L911.16,760.20553L917.4,758.88552L928.56,753.60548L937.56,747.96544L939.24,747.96544L941.64,747.84544L944.76,746.52543L945.12,746.28543
				L945.24,746.28543L945.36,746.28543L945.6,746.16543L949.44,744.48541L954.72,739.92538L954.96,739.68538L955.08,739.56538L955.08,739.44538
				L955.32,739.44538L958.8,736.32535L960.6,733.32533L964.44,726.96529L969.72,714.8452L972.12,704.88513L977.76,693.36504L981.24,684.60498
				L984.48,678.00493L985.92,675.36491L987.12,670.80488L989.04,664.08483L992.4,656.28477L993.36,647.88471L994.92,641.04466L996.96,636.84463
				L998.64,633.2446L1005.12,624.84454L1010.76,613.92446L1017.36,600.60437L1022.28,590.8843L1028.52,582.24423L1035.96,577.5642
				L1040.88,572.76416L1049.4,556.32404L1056.12,544.20396L1065.12,532.80387L1078.44,519.60378L1081.08,516.84376L1097.16,504.96367
				L1097.16,472.92344L1097.28,464.40338L1102.8,447.84326L1104.84,441.60321L1104.96,441.48321L1105.32,440.4032L1128,435.36317
				L1137,429.00312L1145.04,409.08297L1161,401.04292L1176.96,381.12277L1200.96,353.16257L1202.28,346.68252L1202.28,346.56252
				L1204.92,333.12242L1228.92,289.2021L1251,294.72214L1260,296.88216L1284.96,304.68222L1308.96,316.6823L1324.44,321.96234L1328.76,329.16239
				L1364.76,349.08254L1400.64,345.12251L1408.68,345.12251L1420.68,357.1226L1416,371.8827L1413.96,390.60284L1392.84,424.44309
				L1392.72,429.00312L1396.8,444.48323L1405.44,447.84326L1416.84,452.40329L1423.68,447.84326L1440.72,436.44317L1476.72,424.44309
				L1483.44,414.36301L1488.84,405.12295L1496.52,397.08289L1508.64,376.56274L1540.56,360.60262L1568.4,349.08254L1600.32,337.20245
				L1619.88,337.20245L1620.36,337.20245L1638.72,332.28242L1667.76,328.20239L1688.4,324.60236L1708.32,308.64224L1748.16,301.20219
				L1782.24,296.88216L1796.04,293.52213L1821.24,286.80209L1837.2,278.76203L1856.28,278.28202L1877.16,266.88194L1894.68,263.64192
				L1915.44,232.44169L1999.68,193.68141L2007,188.76137L2029.92,180.36131L2032.32,178.5613L2044.68,168.96123L2055.48,157.20114
				L2055.84,157.08114L2056.08,157.08114L2056.2,157.08114L2056.32,157.20114L2071.68,169.44123L2091.6,189.36138L2111.52,233.2817
				L2118.48,249.48181L2119.92,252.72184L2120.04,252.96184L2123.52,277.20202L2132.76,308.76225z"/>
			<path clip-path="url(#SVG_CP_1)" fill="none" stroke="#000000" stroke-width="3.96" stroke-miterlimit="10" stroke-linecap="round" stroke-linejoin="round" d="
				M2132.76,308.76225L2138.76,352.68256L2138.76,353.04257L2139.12,356.64259L2141.52,378.36275L2141.4,380.16276L2141.28,383.04279
				L2141.16,386.16281L2139.48,425.04309L2140.68,438.60319L2140.68,448.56326L2130.72,464.52338L2118.72,478.56348L2102.76,490.44357
				L2093.16,500.16364L2092.8,500.52364L2078.76,510.48371L2054.88,524.40381L2024.88,530.40386L2012.16,532.56387L1979.76,540.84393
				L1953.96,546.96398L1949.04,548.04398L1944.96,549.00399L1908.72,557.64405L1908.6,557.64405L1905.6,559.32407L1904.88,560.52408
				L1904.16,561.60408L1903.56,562.44409L1903.32,563.8841L1902.96,564.84411L1902.6,565.32411L1902.24,565.56411L1902,565.80411
				L1901.04,567.00412L1900.44,567.60413L1899,568.68413L1898.16,569.28414L1897.8,569.64414L1897.2,570.24415L1895.4,572.16416
				L1893.84,573.84417L1893,575.28418L1891.44,572.52416L1890.72,571.20415L1886.76,564.0041L1885.8,562.44409L1884.96,562.56409
				L1869.12,564.96411L1869,564.96411L1865.16,575.04418L1863.48,579.60421L1870.92,589.20428L1867.68,591.4843L1867.2,591.8443
				L1863.24,594.72432L1862.52,595.32433L1857.12,599.28436L1853.4,602.04438L1851.36,603.60439L1844.28,608.88443L1840.92,607.92442
				L1838.64,607.20441L1836.36,606.36441L1830.84,604.44439L1824.6,602.40438L1821.6,601.32437L1812.48,609.96443L1812,610.44444
				L1809.72,613.20446L1807.68,614.16447L1804.44,615.72448L1799.4,622.08452L1809.36,630.12458L1811.4,631.80459L1812.36,632.5246
				L1811.4,633.36461L1810.08,634.56461L1811.88,642.24467L1812.84,646.4447L1813.56,648.96472L1814.52,652.44474L1815.12,654.24476
				L1814.4,654.72476L1807.92,658.44479L1807.68,658.56479L1810.32,660.96481L1815.48,665.88484L1815.12,668.88486L1814.4,675.36491
				L1813.92,679.32494L1808.16,676.56492L1803.48,674.2849L1794.84,680.16495L1799.76,685.32498L1800.36,685.92499L1805.04,688.205
				L1812.24,691.68503L1813.08,692.04503L1813.08,693.36504L1813.08,694.20505L1813.08,696.36506L1813.08,696.72507L1813.08,698.76508
				L1813.08,699.00508L1813.32,699.12508L1828.92,702.1251L1827,707.28514L1826.52,708.48515L1825.44,711.24517L1825.08,712.32518
				L1824.72,713.28519L1824.48,714.48519L1824.24,715.6852L1824,718.56522L1824.48,720.48524L1825.08,721.32524L1825.2,721.56525
				L1825.92,722.40525L1828.2,723.96526L1829.76,724.68527L1830.6,725.04527L1832.88,726.24528L1835.04,727.56529L1842.96,732.48533
				L1846.08,734.52534L1849.2,736.44535L1851.36,737.76536L1849.32,736.92536L1845.24,735.24535L1839.84,733.08533L1838.64,732.60533
				L1828.32,728.4053L1817.04,723.84526L1815.96,723.48526L1813.92,722.64525L1810.92,723.96526L1807.44,725.64528L1806.36,726.00528
				L1804.44,726.96529L1803.12,727.56529L1801.92,728.04529L1800.6,728.6453L1797.36,728.5253L1785.48,727.92529L1780.2,727.56529
				L1776.36,728.5253L1771.08,729.84531L1748.64,735.24535L1740.84,746.04542L1739.88,750.72546L1738.2,759.12552L1733.4,770.5256
				L1730.64,776.28564L1730.52,776.40564L1730.52,776.52565L1730.64,782.28569L1728.96,782.40569L1727.88,782.64569L1723.08,779.40567
				L1723.08,779.16567L1723.56,775.80564L1723.8,774.00563L1724.4,770.1656L1724.52,769.32559L1725.12,765.12556L1725.48,762.96555
				L1726.08,758.88552L1722.84,757.68551L1716.84,755.40549L1716,754.92549L1715.16,754.44549L1714.56,754.08548L1712.64,752.88547
				L1706.76,749.64545L1706.16,749.16545L1706.04,749.16545L1704.12,748.08544L1701.96,747.36543L1694.16,738.00537L1690.68,739.56538
				L1683.12,742.3254L1682.16,742.6854L1672.32,751.20546L1667.88,755.04549L1659.36,763.56555L1657.68,766.68557L1656.84,768.12558
				L1656,768.96559L1655.88,769.08559L1653.72,771.24561L1651.8,773.52562L1650.96,774.48563L1648.68,777.24565L1648.44,778.80566
				L1648.2,780.00567L1647.72,783.9657L1645.32,791.52575L1635.96,791.88576L1628.76,792.24576L1628.76,816.12593L1636.68,836.16608
				L1644.72,864.12628L1644.72,880.3264L1644.72,885.12644L1644.72,900.00654L1631.28,902.28656L1626.48,903.12657L1620.72,904.08657
				L1619.88,905.16658L1618.2,907.2066L1604.76,924.00672L1584.36,944.28687L1575.6,952.92693L1572,956.64696L1570.8,957.72696L
				1570.56,958.08697L1568.4,960.24698L1567.68,970.20705L1566.36,988.20718L1565.76,996.12724L1565.64,999.24727L1564.92,1008.84733
				L1564.44,1016.16739L1554.48,1024.08745L1545.36,1031.4075L1545.24,1031.5275L1545.12,1031.5275L1544.4,1032.1275L1525.44,1044.36759
				L1521.36,1061.40772L1517.64,1074.96782L1512.96,1091.76794L1511.64,1099.44799L1510.92,1104.00803L1510.56,1106.04804L1508.88,1115.76811
				L1508.88,1148.16835L1508.88,1155.7284L1499.28,1168.5685L1495.56,1173.36853L1487.4,1184.16861L1495.68,1199.88872L1498.08,1204.68876
				L1500.48,1209.12879L1500.48,1217.40885L1500.48,1223.7689L1500.48,1235.16898L1483.44,1252.0891L1484.16,1273.20926L1484.28,1277.04928
				L1485,1295.28942L1485,1297.80944L1485.12,1298.88944L1485.36,1307.2895L1485.48,1310.04952L1482.48,1326.00964L1482.24,1330.56967
				L1480.92,1359.36988L1465.8,1383.25006L1461.48,1389.8501L1449.72,1416.4903L1447.08,1422.37034L1445.52,1425.85037L1445.4,1425.97037
				L1434.24,1448.41053L1433.52,1449.85054L1433.52,1469.77069L1429.56,1501.69092L1425.6,1525.69109L1425.6,1525.93109L1425.6,1526.05109
				L1425.6,1526.1711L1425.6,1526.2911L1425.6,1541.65121L1425.6,1561.69135L1428,1574.05144L1429.56,1581.6115L1437.48,1601.53164
				L1424.52,1621.09179L1424.4,1621.21179L1424.4,1621.33179L1421.52,1625.53182L1397.64,1625.53182L1384.08,1625.53182L1381.56,1625.53182
				L1361.28,1637.1719L1353.6,1641.49193L1323.48,1663.45209L1317.6,1667.77213L1312.56,1671.37215L1309.68,1673.41217L1309.08,1673.65217
				L1297.8,1677.4922L1289.88,1697.05234L1289.76,1697.41234L1286.04,1707.37241L1277.76,1729.33257L1277.76,1732.5726L1277.76,1751.29273
				L1277.76,1761.37281L1313.76,1777.33292L1337.64,1789.33301L1369.68,1797.25307L1389.6,1825.21327L1405.56,1849.21344L1413.6,1869.13359
				L1397.64,1901.17382L1377.6,1933.09405L1357.68,1949.05417L1345.68,1968.97431L1333.68,1996.93452L1328.76,2001.85455L1328.64,2002.09456
				L1328.4,2002.21456L1325.76,2004.97458L1325.76,2009.65461L1325.76,2020.93469L1330.2,2034.49479L1333.68,2044.93487L1334.88,2046.97488
				L1335.12,2047.33488L1335.24,2047.45489L1335.24,2047.57489L1335.24,2047.69489L1335.48,2048.05489L1339.92,2055.49494L1339.92,2055.61494
				L1340.04,2055.73495L1361.64,2092.81522L1373.64,2120.77542L1374.48,2122.45543L1389,2151.49564L1392.12,2157.73569L1393.56,2160.73571
				L1409.52,2184.73588L1437.48,2196.61597L1438.2,2197.45598L1442.28,2202.25601L1444.08,2204.41603L1444.08,2204.53603L1445.4,2206.09604
				L1446,2206.81604L1446.12,2206.93604L1446.12,2207.05605L1457.52,2220.61614L1469.52,2244.61632L1481.52,2260.57643L1493.4,2276.53655
				L1485.48,2308.45678L1485.48,2317.21685L1485.48,2317.33685L1485.48,2317.45685L1485.48,2324.5369L1485.48,2340.49702L1473.24,2347.81707
				L1473.12,2347.81707L1473,2347.93707L1465.44,2352.4971L1457.76,2387.41736L1457.64,2387.53736L1457.64,2387.65736L1457.52,2388.37736
				L1451.4,2392.45739L1449.72,2393.5374L1448.76,2394.13741L1448.64,2394.25741L1448.52,2394.37741L1431.96,2405.41749L1424.16,2410.57753
				L1421.52,2412.37754L1417.56,2428.33765L1416.6,2429.53766L1416.48,2429.65766L1416.36,2429.77766L1416.36,2429.89767L1401.6,2448.2578
				L1390.2,2465.41792L1385.64,2472.25797L1377.6,2488.21809L1375.44,2496.97815L1375.44,2497.09815L1375.32,2497.21816L1373.64,2504.17821
				L1373.64,2520.13832L1375.44,2520.85833L1389.72,2525.53836L1389.84,2525.65836L1389.96,2525.65836L1391.88,2526.25837L1397.64,2528.17838
				L1407.12,2540.05847L1413.6,2548.09853L1419.72,2553.25856L1426.32,2558.7786L1426.44,2558.8986L1426.56,2559.0186L1437.48,2568.13867
				L1437.48,2588.05882L1437.48,2594.41886L1437.48,2600.0589L1451.04,2620.33905L1453.56,2624.05908L1459.8,2633.41915L1465.08,2641.4592
				L1469.52,2647.93925L1471.92,2652.85929L1481.52,2671.93943L1489.8,2677.45947L1496.76,2682.1395L1497,2682.2595L1497.12,2682.3795
				L1500,2684.29952L1501.2,2685.13952L1504.44,2687.29954L1505.4,2687.89954L1537.44,2691.97957L1540.92,2690.77956L1542.72,2690.17956
				L1542.84,2690.05956L1542.96,2690.05956L1546.44,2688.85955L1549.2,2688.01954L1561.32,2683.93951L1563.84,2682.1395L1589.28,2664.01937
				L1629.24,2652.01928L1657.2,2667.9794L1657.92,2668.5794L1677.12,2683.93951L1705.08,2695.9396L1729.08,2735.89989L1761,2727.85983
				L1788.96,2723.8998L1812.96,2719.93977L1852.92,2719.93977L1860.84,2731.81986L1860.84,2747.89998L1840.92,2759.78006L1844.88,2779.82021
				L1880.88,2787.74027L1908.84,2799.74035L1928.76,2811.74044L1936.8,2819.7805L1948.8,2851.70073L1952.76,2879.66094L1956.72,2907.62114
				L1932.48,2921.54124L1923,2916.86121L1921.92,2916.3812L1907.4,2911.94117L1889.88,2910.74116L1878.96,2912.42117L1875.96,2912.90118
				L1875.72,2912.78118L1859.76,2902.8211L1851.72,2915.5412L1844.04,2927.90129L1843.08,2928.98129L1825.8,2948.18143L1807.2,2968.10158
				L1794.6,2982.02168L1788.12,2995.22178L1780.8,3020.90196L1780.56,3021.98197L1779.84,3021.98197L1778.16,3022.10197L1777.32,3020.66196
				L1776.72,3019.46195L1774.68,3015.74192L1772.16,3012.5019L1769.16,3009.86188L1765.2,3007.70187L1760.52,3005.54185L1758.96,3004.94185
				L1758.48,3004.82185L1756.92,3004.34184L1754.4,3003.50184L1752,3003.02183L1751.28,3002.90183L1749.84,3002.54183L1747.68,3001.34182
				L1745.52,3000.38181L1744.56,3000.02181L1743.72,2999.78181L1743.24,2999.66181L1742.88,2999.66181L1742.04,2999.54181L1740.48,2999.66181
				L1738.68,2999.66181L1736.4,2999.54181L1734.24,2999.90181L1731.12,3000.62181L1729.8,3001.22182L1728.6,3002.06183L1726.92,3002.78183
				L1725.24,3003.50184L1724.04,3004.22184L1723.2,3005.06185L1723.08,3006.14186L1723.44,3007.10186L1723.2,3007.94187L1722.48,3008.66187
				L1721.28,3009.02188L1720.2,3009.62188L1719.36,3009.98188L1718.76,3010.82189L1718.4,3012.1419L1717.92,3013.10191L1717.44,3013.70191
				L1716.36,3014.30191L1715.4,3015.02192L1714.56,3015.98193L1713.84,3016.58193L1713,3017.06193L1712.28,3017.42194L1712.16,3017.42194
				L1711.32,3017.90194L1710.6,3018.50194L1709.88,3019.10195L1708.32,3019.70195L1708.08,3019.82195L1707.96,3019.82195L1707.84,3019.82195
				L1707.72,3019.94196L1707.6,3019.94196L1707.48,3019.94196L1706.88,3020.06196L1706.16,3020.06196L1705.8,3020.06196L1705.08,3020.06196
				L1704.12,3020.06196L1703.76,3020.06196L1703.64,3020.06196L1701.12,3020.42196L1701,3020.42196L1700.4,3020.42196L1700.16,3020.54196
				L1699.92,3020.54196L1699.56,3021.50197L1699.2,3022.46197L1698.36,3024.38199L1698.36,3025.702L1698.72,3026.542L1700.64,3028.58202
				L1702.68,3030.98204L1703.16,3031.82204L1703.76,3032.78205L1704.12,3034.46206L1704.24,3035.18207L1704.36,3037.22208L1704.48,3038.66209
				L1704.48,3038.90209L1704.72,3040.4621L1705.56,3042.14212L1706.16,3043.58213L1706.28,3045.26214L1706.4,3045.98214L1701.72,3045.50214
				L1677.36,3032.54205L1672.2,3020.54196L1670.04,3016.34193L1669.8,3015.86193L1659.48,3014.42192L1648.44,2998.8218L1637.88,2990.18174
				L1623.96,3000.02181L1623.84,3000.02181L1623.84,3000.14181L1623.72,3000.14181L1620.84,3002.18183L1593.36,3003.14183L1581.12,3000.14181
				L1583.16,2984.3017L1579.08,2978.18165L1578.96,2977.94165L1578.96,2977.82165L1574.52,2970.9816L1570.44,2966.54157L1555.8,2958.38151
				L1534.08,2952.14146L1521.96,2944.2214L1521.84,2944.2214L1521.72,2944.1014L1519.92,2942.9014L1519.68,2942.78139L1519.56,2942.78139
				L1517.16,2919.62123L1512,2913.62118L1484.88,2898.50107L1477.68,2895.98105L1475.88,2895.26105L1471.08,2893.58104L1464,2901.26109
				L1457.4,2899.10108L1450.44,2896.58106L1432.2,2898.86108L1434.36,2923.58125L1434.96,2931.02131L1435.2,2932.70132L1435.44,2935.58134
				L1455.84,2933.42133L1460.76,2932.94132L1454.16,2949.26144L1481.76,2954.06148L1484.04,2954.54148L1487.28,2957.5415L1493.52,2963.42154
				L1503.84,2988.98173L1505.16,2991.98175L1489.32,3004.82185L1487.28,3007.34186L1480.32,3015.98193L1466.88,3026.422L1464.36,3042.38212
				L1464.24,3043.46213L1467.24,3045.50214L1481.28,3048.98217L1513.2,3075.74236L1532.76,3098.18252L1514.04,3116.30266L1494.6,3122.5427
				L1493.4,3123.0227L1479.72,3127.46274L1473.36,3131.30277L1472.64,3131.78277L1470.24,3133.10278L1448.4,3146.18287L1448.28,3146.30287
				L1447.08,3145.82287L1446.48,3145.58287L1445.76,3145.22287L1438.8,3142.34285L1439.16,3147.02288L1437.96,3148.22289L1437.24,3148.82289
				L1433.4,3152.42292L1425,3154.58293L1417.8,3156.38295L1413.72,3153.62293L1412.16,3152.54292L1410.24,3151.22291L1404.84,3152.54292
				L1402.68,3149.06289L1396.44,3150.3829L1394.04,3150.0229L1392.12,3149.6629L1390.92,3148.82289L1388.76,3145.22287L1385.52,3142.58285
				L1379.88,3137.78281L1377.96,3139.46282L1377.24,3140.18283L1376.76,3140.42283L1376.76,3140.54283L1376.64,3140.66283L1374.6,3142.46285
				L1374.12,3142.82285L1373.16,3143.66285L1368,3148.10289L1374.12,3149.7829L1371.84,3153.26292L1369.08,3157.70296L1371.12,3160.82298
				L1361.64,3163.103L1358.16,3164.063L1357.92,3164.063L1356.12,3164.54301L1355.52,3164.42301L1353,3163.943L1348.8,3173.54307
				L1349.64,3186.74317L1348.08,3191.0632L1347.84,3191.7832L1347.6,3192.26321L1346.76,3197.66325L1347,3199.22326L1348.44,3199.58326
				L1353.48,3200.90327L1355.28,3203.54329L1335.48,3203.54329L1335.48,3268.46376L1330.2,3276.38382L1321.44,3289.46391L1316.88,3296.30396
				L1316.88,3298.94398L1316.76,3298.94398L1315.92,3298.70398L1315.8,3298.58398L1314.84,3298.22398L1313.88,3297.86398L1313.28,3297.62397
				L1312.8,3297.38397L1312.32,3297.14397L1311.72,3297.02397L1310.88,3296.78397L1310.52,3296.66397L1310.4,3296.66397L1310.04,3296.54397
				L1309.32,3296.18396L1306.92,3295.10396L1306.2,3294.62395L1305.84,3294.26395L1304.52,3293.18394L1303.92,3292.70394L1303.8,3292.46394
				L1303.08,3291.62393L1302.24,3290.78392L1302.12,3290.78392L1301.76,3290.42392L1299.96,3289.22391L1299.12,3288.62391L1299,3288.50391
				L1298.88,3288.38391L1298.52,3288.0239L1297.8,3287.5439L1296.96,3287.1839L1296.84,3287.1839L1296.36,3286.9439L1296,3286.9439
				L1295.4,3286.9439L1294.8,3287.0639L1294.32,3287.1839L1292.52,3287.9039L1290.36,3289.10391L1289.64,3289.46391L1288.8,3289.82392
				L1288.2,3289.94392L1287.96,3289.94392L1287.72,3289.94392L1287.6,3289.82392L1286.04,3289.22391L1285.92,3289.10391L1285.8,3289.10391
				L1284.6,3288.62391L1283.88,3288.26391L1283.76,3288.26391L1283.28,3288.14391L1283.04,3288.0239L1282.44,3287.9039L1281.72,3287.9039
				L1280.88,3287.9039L1280.4,3288.0239L1280.28,3288.0239L1280.16,3288.0239L1278.96,3288.26391L1278.48,3288.26391L1277.88,3288.38391
				L1277.16,3288.38391L1276.44,3288.62391L1276.08,3288.74391L1275.84,3288.62391L1275.72,3288.50391L1275.24,3288.0239L1275,3287.6639
				L1274.88,3287.5439L1274.16,3286.34389L1273.92,3285.98389L1273.32,3285.26388L1272.96,3284.90388L1272.6,3284.78388L1272.24,3284.54388
				L1271.52,3284.42388L1271.16,3284.30388L1268.64,3283.58387L1268.28,3283.46387L1267.8,3283.22387L1267.08,3282.86387L1266.6,3282.74387
				L1265.4,3282.38386L1265.28,3282.26386L1265.16,3282.26386L1264.2,3282.02386L1263.72,3281.90386L1262.16,3281.42386L1261.8,3281.42386
				L1261.68,3281.42386L1261.56,3281.30386L1261.32,3281.30386L1260.72,3281.06385L1259.88,3280.58385L1259.16,3280.22385L1258.92,3280.10385
				L1258.8,3280.22385L1258.68,3280.22385L1258.44,3280.22385L1258.32,3280.22385L1257.6,3280.58385L1257.48,3280.70385L1257.36,3280.70385
				L1257.24,3280.82385L1256.88,3280.94385L1254.84,3282.38386L1254.36,3282.62387L1254.12,3282.74387L1253.28,3283.10387L1252.68,3283.34387
				L1252.44,3283.46387L1251.36,3283.58387L1251.12,3283.58387L1250.52,3283.58387L1250.4,3283.58387L1249.44,3283.34387L1248.36,3282.98387
				L1246.68,3282.26386L1246.44,3282.14386L1246.2,3282.14386L1245.96,3282.26386L1245.84,3282.26386L1245.96,3282.14386L1246.44,3281.78386
				L1246.68,3281.06385L1246.92,3279.86385L1247.28,3276.98382L1248,3272.90379L1249.08,3266.54375L1249.56,3263.30372L1250.16,3261.14371
				L1250.52,3258.86369L1250.64,3256.58368L1250.76,3253.94366L1250.64,3251.18364L1250.04,3246.98361L1249.56,3244.22359L1248.84,3239.06355
				L1248.24,3235.46352L1248.24,3232.9435L1247.16,3226.46346L1246.44,3222.50343L1246.08,3219.1434L1245.36,3216.50338L1243.92,3211.82335
				L1242.72,3207.38332L1242,3204.5033L1240.56,3199.10326L1238.76,3193.10321L1237.32,3189.50319L1236.72,3188.06318L1235.88,3185.90316
				L1234.56,3184.34315L1233.12,3182.90314L1231.8,3182.42314L1229.76,3181.46313L1227.6,3180.26312L1226.64,3179.66312L1225.44,3178.82311
				L1224.12,3177.5031L1223.28,3176.18309L1222.8,3174.62308L1222.8,3174.38308L1222.68,3173.90307L1222.32,3172.34306L1221.96,3170.06305
				L1221.72,3166.82302L1221.72,3164.54301L1221.72,3162.74299L1221.36,3160.58298L1221.36,3158.42296L1221.36,3156.02294L1221.72,3153.50293
				L1221.84,3151.46291L1222.08,3147.62288L1222.2,3143.54285L1222.2,3140.90283L1221.84,3139.10282L1221.24,3137.06281L1220.4,3134.18279
				L1219.2,3129.98276L1217.4,3123.86271L1216.44,3119.78268L1216.32,3119.66268L1216.32,3119.54268L1216.32,3119.42268L1215.96,3118.22267
				L1215.6,3116.30266L1215.6,3113.90264L1215.84,3110.54261L1215.96,3104.66257L1216.44,3100.10254L1216.92,3092.06248L1217.64,3082.70241
				L1218.48,3072.50234L1212.96,3070.46232L1202.64,3068.42231L1191,3063.38227L1190.28,3063.02227L1176.48,3057.02223L1166.4,3053.9022
				L1164.36,3053.5422L1152.72,3051.50218L1135.44,3046.70215L1125.84,3044.06213L1125.48,3044.06213L1111.68,3040.2221L1095.48,3031.82204
				L1083,3025.34199L1078.56,3025.22199L1072.56,3024.98199L1072.44,3024.98199L1072.08,3024.98199L1071.96,3024.98199L1062.36,3024.50199
				L1039.2,3024.26199L1017.12,3025.462L995.76,3025.462L984,3025.462L973.44,3024.50199L966.96,3024.02199L965.4,3023.78198L965.04,3023.78198
				L964.92,3023.78198L964.8,3023.78198L964.44,3023.78198L962.76,3023.66198L945.72,3019.22195L931.44,3015.62192L930,3015.14192
				L929.76,3015.02192L928.92,3014.78192L928.68,3014.78192L927.12,3014.30191L924.84,3013.70191L923.4,3013.22191L921.72,3012.7419
				L921.36,3012.6219L919.68,3012.1419L919.44,3012.1419L918.96,3012.0219L918.84,3012.0219L918.48,3011.9019L918.24,3011.9019L
				915.6,3011.30189L915.12,3011.18189L914.88,3011.18189L913.56,3010.82189L913.2,3010.82189L913.08,3010.70189L912.96,3010.70189
				L912.6,3010.58189L912.12,3010.58189L904.44,3008.90188L901.92,3008.30187L901.68,3008.18187L901.08,3008.06187L893.28,3006.26186
				L891.6,3005.90185L849.36,2996.78179L834,2997.38179L833.88,2997.38179L833.4,2997.38179L831.36,2997.50179L829.44,2997.74179
				L829.2,2997.74179L817.92,2998.7018L817.56,2998.7018L814.08,2999.0618L810.24,2999.66181L801.48,3000.98182L799.92,3001.22182
				L773.64,3004.34184L760.44,3003.50184L754.68,3003.02183L743.16,2999.90181L734.16,2996.30178L715.68,2988.86173L700.44,2980.46167
				L697.08,2977.58165L697.08,2977.46165L696.84,2977.34165L696.72,2977.22164L696.6,2977.22164L694.32,2975.90164L686.88,2971.2216
				L682.68,2967.86158L680.16,2964.86156L678.36,2960.90153L675.24,2952.98147L671.52,2937.86136L668.88,2926.58128L668.76,2926.34127
				L668.76,2926.22127L668.64,2926.10127L668.64,2925.98127L668.16,2924.78126L666.36,2920.22123L662.52,2915.7812L661.92,2914.94119
				L659.52,2912.78118L657.24,2910.50116L657.12,2910.38116L657.12,2910.26116L651.96,2905.22112L645.24,2899.22108L639.6,2892.74103
				L632.16,2881.82095L628.32,2874.6209L625.44,2869.94086L625.2,2869.46086L623.04,2865.86084L618.12,2859.98079L612.6,2850.02072
				L608.64,2840.78065L606.24,2833.1006L604.44,2826.50055L602.04,2816.90048L601.32,2814.86046L600.96,2813.78046L594.72,2807.90041
				L594.6,2807.66041L594.48,2807.66041L594.48,2807.54041L594.36,2807.42041L593.4,2806.2204L592.8,2805.8604L592.08,2805.26039
				L587.88,2802.38037L581.52,2797.46034L572.88,2789.78028L571.92,2789.06028L571.08,2788.46027L570.96,2788.34027L570.84,2788.22027
				L565.68,2784.26024"/>
			<path clip-path="url(#SVG_CP_1)" fill="none" stroke="#000000" stroke-width="3.96" stroke-miterlimit="10" stroke-linecap="round" stroke-linejoin="round" d="
				M565.68,2784.26024L556.44,2777.78019L546.72,2770.10014L545.28,2769.02013L542.88,2767.22012L538.44,2763.38009L534.12,2758.34005
				L510.96,2727.73983L510.96,2727.61983L510.84,2727.49983L510.84,2727.37983L510.72,2727.37983L504.96,2724.49981L504.84,2724.49981
				L504.72,2724.37981L504.6,2724.37981L504.48,2724.25981L504.36,2724.25981L504.24,2724.25981L504,2724.25981L501.36,2723.7798
				L500.52,2722.9398L500.16,2722.57979L498.96,2721.49979L496.44,2718.97977L494.4,2716.33975L490.68,2712.37972L486.6,2706.85968
				L450.48,2663.53936L463.2,2638.09918L477.36,2613.739L477.24,2610.85898L477,2600.53891L475.8,2592.61885L475.68,2592.01884L
				475.08,2587.69881L472.44,2580.85876L470.4,2575.57872L470.4,2565.85865L470.76,2563.09863L470.76,2562.97863L470.76,2562.85863
				L471,2561.17862L472.92,2552.05855L472.56,2543.41849L472.2,2538.73846L468.48,2533.57842L468.72,2526.97837L468.84,2525.41836
				L469.08,2523.97835L470.04,2516.6583L472.56,2506.93823L476.04,2499.13817L479.04,2494.09813L479.04,2493.97813L479.16,2493.85813
				L479.16,2491.93812L479.4,2486.29808L478.8,2479.81803L477,2473.81799L475.44,2470.45796L476.28,2467.33794L477,2464.81792L482.88,2458.21787
				L483.24,2456.41786L484.8,2449.21781L484.8,2443.81777L484.08,2436.37771L482.88,2428.69766L482.52,2421.85761L481.32,2416.21757
				L481.32,2410.93753L481.92,2404.09748L481.92,2398.69744L481.92,2391.25738L482.52,2385.25734L482.88,2382.61732L482.88,2382.49732
				L482.88,2382.37732L482.88,2382.25732L482.88,2382.01732L483.24,2379.6173L488.76,2372.53725L491.28,2364.37719L491.88,2359.09715
				L491.88,2357.17714L491.64,2353.45711L491.88,2349.97708L491.88,2349.61708L491.4,2347.81707L491.28,2347.69707L491.28,2347.57707
				L491.28,2347.33707L490.68,2345.29705L491.28,2335.69698L483.84,2317.09685L483.72,2316.73684L483.24,2315.77684L479.28,2295.73669
				L481.32,2291.65666L481.32,2291.53666L481.44,2291.41666L487.2,2279.77657L500.4,2273.17653L500.52,2273.17653L500.64,2273.17653
				L500.76,2273.05653L504,2271.37651L511.2,2267.77649L512.88,2268.25649L514.8,2268.73649L516.6,2269.2165L516.72,2269.2165L516.84,2269.2165
				L516.96,2269.2165L524.88,2271.25651L525.36,2270.89651L525.48,2270.77651L525.6,2270.65651L529.2,2267.77649L574.08,2268.8565
				L584.4,2266.81648L584.52,2266.81648L584.64,2266.81648L584.76,2266.81648L593.4,2265.13647L595.08,2264.77647L617.04,2260.81644
				L644.04,2256.85641L657,2246.89634L657.48,2246.41633L659.52,2244.25632L659.64,2244.25632L659.76,2244.13632L668.04,2235.85626
				L668.04,2233.93624L668.04,2232.97623L668.04,2232.73623L668.04,2232.49623L668.04,2232.37623L668.04,2231.41622L668.04,2230.93622
				L668.04,2230.81622L668.04,2230.69622L668.04,2229.97621L668.04,2220.85615L668.64,2218.69613L668.64,2218.57613L668.64,2218.45613
				L673.32,2202.25601L673.32,2202.01601L673.44,2201.89601L673.92,2199.97599L663,2179.57585L661.56,2177.05583L657.96,2170.45578
				L655.32,2165.53574L654.96,2164.81574L642,2140.81556L641.88,2140.69556L641.76,2140.57556L641.76,2140.45556L641.16,2139.25555
				L636.12,2129.89548L635.04,2127.97547L635.04,2121.01542L635.04,2118.1354L635.04,2113.09536L635.04,2097.25525L635.04,2096.41524
				L635.04,2096.29524L635.04,2096.05524L635.04,2094.73523L635.04,2091.0152L635.04,2090.8952L635.04,2079.97512L635.04,2060.17498
				L619.08,2010.25462L620.04,1939.3341L626.88,1902.37383L626.88,1902.25383L626.88,1902.13383L626.88,1902.01383L627,1901.89383
				L627,1901.41382L630.6,1897.21379L632.16,1893.25376L633.6,1889.05373L634.8,1885.69371L634.92,1885.45371L634.92,1885.33371
				L635.04,1885.21371L635.04,1884.9737L635.52,1883.8937L635.64,1881.85368L635.64,1881.49368L635.64,1881.37368L635.64,1881.25368
				L635.64,1880.89367L635.64,1879.69367L635.28,1875.73364L635.16,1875.37363L635.16,1875.25363L635.16,1875.13363L635.16,1874.77363
				L635.16,1874.41363L634.8,1874.17363L634.44,1873.69362L634.44,1873.57362L634.32,1873.57362L633.84,1872.97362L630.84,1869.61359
				L630.48,1869.25359L630.36,1869.25359L630.24,1869.13359L629.88,1868.89359L626.16,1866.13357L625.92,1866.01357L625.8,1865.89357
				L625.68,1865.77356L625.2,1865.41356L620.64,1865.41356L613.68,1864.45356L606.24,1862.65354L597.6,1856.7735L593.4,1853.41347
				L590.88,1851.37346L587.28,1846.09342L584.76,1841.29339L584.16,1839.97338L584.16,1839.85338L584.16,1839.73338L584.04,1839.73338
				L584.04,1839.61337L582.24,1835.77335L581.88,1834.45334L581.76,1833.97333L580.68,1829.6533L580.44,1827.37329L580.32,1826.77328
				L580.32,1826.17328L581.04,1823.05325L581.28,1822.33325L582.12,1819.81323L582.6,1818.61322L582.72,1818.37322L583.08,1815.9732
				L583.32,1813.69319L584.04,1812.25318L585.36,1809.85316L585.36,1807.21314L585.24,1807.09314L582.96,1805.41313L577.92,1803.85311
				L574.92,1803.85311L573.36,1803.85311L572.88,1803.73311L569.28,1802.89311L568.2,1803.01311L565.8,1803.37311L561.6,1802.1731
				L561.24,1802.1731L560.04,1801.8131L554.64,1801.5731L553.08,1801.6931L552.12,1801.6931L550.32,1801.8131L546.72,1802.1731L
				546.12,1802.2931L543.72,1802.5331L540,1803.25311L537.12,1803.73311L534.12,1804.09312L532.32,1804.33312L528.24,1803.01311
				L527.04,1802.65311L524.4,1800.85309L522.12,1799.29308L520.44,1797.97307L517.44,1795.45305L517.2,1794.97305L515.76,1792.09303
				L515.76,1791.97303L515.52,1791.61303L515.52,1788.493L515.52,1786.09299L515.16,1782.25296L515.04,1781.41295L515.04,1780.69295
				L514.68,1777.33292L514.56,1776.37291L514.2,1771.09288L514.08,1770.97288L514.08,1770.13287L513.12,1768.45286L512.16,1766.77284
				L512.04,1766.17284L510.84,1761.73281L510.84,1761.61281L510.84,1761.49281L510.48,1760.1728L508.2,1752.01274L506.04,1741.09266
				L498,1713.13245L493.68,1705.5724L490.08,1699.09235L484.56,1689.97229L484.44,1689.85229L484.44,1689.73228L484.2,1689.37228
				L478.08,1679.17221L467.28,1661.17208L466.08,1659.13206L457.68,1649.05199L457.08,1648.21198L456.6,1647.61198L456.48,1647.49198
				L456.36,1647.37198L456.24,1647.25198L456.12,1647.13198L455.52,1646.29197L453,1642.09194L452.4,1630.81186L456.84,1620.97178
				L456.96,1620.25178L457.32,1610.41171L457.44,1609.4517L457.56,1605.61167L457.92,1599.01163L462.84,1584.25152L467.16,1575.97146
				L469.68,1568.0514L470.04,1563.85137L470.4,1560.61135L470.64,1557.25132L470.64,1557.13132L470.16,1554.2513L470.16,1553.8913
				L470.04,1553.6513L470.04,1553.53129L470.04,1553.29129L470.04,1553.17129L470.04,1553.05129L469.8,1551.61128L469.2,1547.89125
				L469.2,1541.29121L469.2,1541.1712L469.2,1541.0512L468.48,1536.37117L468.24,1534.57116L467.76,1532.65114L467.52,1532.05114
				L467.4,1531.69114L467.4,1531.57114L467.4,1531.45113L467.16,1530.85113L465.48,1524.49108L465.24,1523.77108L463.8,1517.29103
				L463.8,1517.17103L463.8,1517.05103L463.68,1516.93103L463.32,1514.89101L465.72,1510.57098L466.32,1509.49097L466.56,1509.01097
				L466.56,1508.89097L466.68,1508.77097L467.04,1508.17096L467.04,1508.05096L467.16,1507.93096L467.16,1507.81096L468.12,1506.13095
				L469.2,1504.09094L470.16,1503.73093L470.28,1503.73093L470.28,1503.61093L470.52,1503.61093L476.52,1501.21091L483.48,1502.17092
				L490.44,1497.97089L490.8,1497.73089L500.64,1492.33085L504.6,1486.81081L507.12,1483.45079L511.68,1478.53075L514.44,1475.53073
				L518.88,1469.65068L519.84,1462.33063L523.08,1453.09056L523.8,1450.93055L528.96,1442.53049L529.32,1441.93048L530.52,1440.01047
				L530.76,1439.65047L530.76,1439.53047L530.88,1439.41046L531,1439.29046L531,1439.17046L531.12,1438.93046L533.16,1427.17038
				L537.6,1418.29031L541.44,1408.93024L543.48,1404.13021L544.56,1404.97021L545.52,1404.85021L545.64,1404.73021L545.76,1404.73021
				L546,1404.73021L549.12,1404.25021L553.2,1401.97019L557.64,1397.65016L559.68,1396.57015L560.88,1394.77014L560.76,1391.41012
				L563.4,1384.69007L565.2,1382.53005L568.92,1380.25003L572.04,1380.85004L575.76,1382.89005L580.2,1384.69007L584.28,1385.05007
				L585,1383.97006L585,1381.33004L584.64,1378.81002L584.52,1375.57L586.44,1372.56998L589.56,1370.28996L592.2,1369.56996L593.4,1367.88995
				L593.88,1367.40994L595.08,1364.88992L597.24,1362.0099L597.36,1360.44989L596.16,1356.96987L595.92,1356.48986L595.32,1354.92985
				L594.72,1353.24984L594.36,1353.00984L594.24,1353.00984L594.12,1352.88984L594,1352.88984L594,1352.76984L593.52,1352.52983
				L593.4,1352.52983L591.48,1351.68983L590.28,1348.0898L589.68,1344.84978L589.2,1341.60975L587.52,1338.60973L585.36,1336.44972
				L583.8,1335.00971L580.56,1334.6497L576.12,1335.12971L576,1335.24971L572.76,1336.20971L569.88,1337.52972L568.08,1338.00973
				L564.84,1338.00973L562.32,1335.48971L560.52,1332.84969L557.64,1329.96967L556.92,1328.04966L554.4,1324.56963L553.08,1320.8496
				L552.84,1318.32958L551.76,1316.04957L550.2,1314.36956L545.88,1312.44954L542.52,1310.52953L541.2,1308.72951L541.08,1306.2095
				L540.84,1304.88949L539.64,1303.44948L537.6,1302.96947L534.12,1303.32948L531.24,1304.40948L528.96,1303.80948L528.72,1303.68948
				L527.4,1303.32948L523.56,1303.08947L520.68,1303.32948L516.24,1303.92948L516,1303.92948L515.88,1303.92948L515.4,1304.04948
				L514.68,1304.04948L513.6,1301.52946L513,1300.08945L512.04,1297.68943L506.04,1288.68937L505.68,1287.96936L505.56,1287.72936
				L505.44,1287.60936L505.44,1287.48936L505.32,1287.24936L502.68,1282.68933L500.4,1275.60927L498.72,1270.44924L497.76,1260.12916
				L494.76,1246.80906L497.28,1236.96899L496.92,1231.68895L496.68,1228.68893L498.24,1214.88883L501.6,1207.92878L501.96,1189.92865
				L502.2,1180.92859L504.12,1163.16846L505.56,1154.8884L509.04,1150.20836L512.28,1145.64833L512.4,1145.52833L513.48,1143.96832
				L513.6,1143.84832L519.48,1136.88827L520.32,1135.92826L521.16,1134.84825L521.4,1134.48825L522.72,1132.68824L522.84,1132.56823
				L522.96,1132.44823L523.08,1132.32823L523.2,1132.20823L523.8,1131.36823L524.76,1130.64822L529.44,1127.5282L531.12,1126.08819
				L531.24,1126.08819L531.24,1125.96819L531.36,1125.96819L537.84,1120.44815L544.32,1115.16811L544.68,1114.80811L549.96,1107.60805
				L556.08,1103.76802L556.8,1103.28802L558.6,1102.92802L560.28,1102.68802L565.44,1101.84801L565.68,1101.72801L565.8,1101.72801
				L565.92,1101.72801L566.04,1101.72801L569.28,1101.12801L569.88,1101.008L570.24,1100.888L582.84,1097.76798L582.96,1097.76798
				L583.2,1097.76798L585.36,1097.28798L591,1095.36796L591.6,1095.24796L593.4,1094.64796L594,1094.40796L601.56,1089.00792L602.04,1088.64791
				L603.96,1087.2079L605.16,1086.6079L605.52,1086.3679L609,1084.44788L619.44,1078.68784L619.8,1078.44784L620.16,1078.20784L
				623.88,1073.88781L624.12,1073.52781L624.84,1072.6878L632.28,1062.00772L634.56,1057.68769L635.76,1056.48768L636.12,1056.00768
				L636.6,1055.52767L636.96,1055.28767L639.24,1053.00766L639.36,1052.88765L639.6,1052.76765L642.72,1051.08764L645.12,1049.88763
				L649.8,1047.12761L654.48,1043.40759L654.96,1041.72757L655.08,1041.24757L656.04,1038.12755L656.16,1037.64754L656.4,1037.28754
				L658.44,1032.72751L663.48,1029.00748L665.64,1026.48746L665.88,1026.24746L667.2,1024.68745L669.36,1019.40741L671.52,1014.72738
				L675.24,1011.00735L678.72,1005.36731L682.2,1000.08727L682.56,999.36727L683.4,998.16726L686.88,993.12722L687.12,992.76722
				L688.08,991.32721L691.68,986.52717L693.48,982.80715L693.72,982.08714L694.44,980.64713L699.12,975.00709L699.48,974.76709L
				700.08,970.20705L700.08,969.72705L700.32,967.80704L701.64,963.247L701.76,963.127L702,962.767L703.8,960.72698L703.92,960.60698
				L706.92,957.24696L707.64,954.12694L707.64,953.76693L708.12,951.72692L711,944.16686L712.44,941.52685L712.68,941.16684L718.08,931.92678
				L718.56,930.96677L718.68,930.72677L719.64,928.44675L720.24,925.92673L721.56,921.9667L721.8,916.92667L720.96,913.20664L723.12,909.48661
				L728.04,903.48657L732.12,897.96653L735.24,892.68649L739.56,887.04645L744.6,879.24639L748.32,874.92636L751.68,870.24633L751.92,868.68632
				L752.4,865.56629L752.04,862.80627L754.8,859.32625L760.2,853.68621L763.92,849.36618L768.6,838.4461L769.92,836.40608L775.68,827.64602
				L775.92,827.52602L776.28,826.80601L781.68,822.12598L786,817.44594L788.16,810.24589L790.68,804.96585L791.64,799.68581L795.6,791.28575
				L798.48,787.20572L802.2,780.36567L805.56,776.40564L807.48,773.28562L807.72,768.24559L807.48,763.32555L805.92,754.92549L805.08,743.40541
				L804.96,741.48539L805.92,730.32531L809.64,724.68527L814.68,721.20524L820.2,715.6852L823.92,713.40519L830.16,714.12519L832.68,716.28521
				L835.44,720.96524L837.36,725.88528L841.08,732.48533L845.16,737.76536L853.8,744.60541L866.04,748.92545L883.08,753.36548L893.4,756.4855
				L904.32,759.24552L911.16,760.20553L917.4,758.88552L928.56,753.60548L937.56,747.96544L939.24,747.96544L941.64,747.84544L944.76,746.52543
				L945.12,746.28543L945.24,746.28543L945.36,746.28543L945.6,746.16543L949.44,744.48541L954.72,739.92538L954.96,739.68538L955.08,739.56538
				L955.08,739.44538L955.32,739.44538L958.8,736.32535L960.6,733.32533L964.44,726.96529L969.72,714.8452L972.12,704.88513L977.76,693.36504
				L981.24,684.60498L984.48,678.00493L985.92,675.36491L987.12,670.80488L989.04,664.08483L992.4,656.28477L993.36,647.88471L994.92,641.04466
				L996.96,636.84463L998.64,633.2446L1005.12,624.84454L1010.76,613.92446L1017.36,600.60437L1022.28,590.8843L1028.52,582.24423
				L1035.96,577.5642L1040.88,572.76416L1049.4,556.32404L1056.12,544.20396L1065.12,532.80387L1078.44,519.60378L1081.08,516.84376
				L1097.16,504.96367L1097.16,472.92344L1097.28,464.40338L1102.8,447.84326L1104.84,441.60321L1104.96,441.48321L1105.32,440.4032
				L1128,435.36317L1137,429.00312L1145.04,409.08297L1161,401.04292L1176.96,381.12277L1200.96,353.16257L1202.28,346.68252L1202.28,346.56252
				L1204.92,333.12242L1228.92,289.2021L1251,294.72214L1260,296.88216L1284.96,304.68222L1308.96,316.6823L1324.44,321.96234L1328.76,329.16239
				L1364.76,349.08254L1400.64,345.12251L1408.68,345.12251L1420.68,357.1226L1416,371.8827L1413.96,390.60284L1392.84,424.44309
				L1392.72,429.00312L1396.8,444.48323L1405.44,447.84326L1416.84,452.40329L1423.68,447.84326L1440.72,436.44317L1476.72,424.44309
				L1483.44,414.36301L1488.84,405.12295L1496.52,397.08289L1508.64,376.56274L1540.56,360.60262L1568.4,349.08254L1600.32,337.20245
				L1619.88,337.20245L1620.36,337.20245L1638.72,332.28242L1667.76,328.20239L1688.4,324.60236L1708.32,308.64224L1748.16,301.20219
				L1782.24,296.88216L1796.04,293.52213L1821.24,286.80209L1837.2,278.76203L1856.28,278.28202L1877.16,266.88194L1894.68,263.64192
				L1915.44,232.44169L1999.68,193.68141L2007,188.76137L2029.92,180.36131L2032.32,178.5613L2044.68,168.96123L2055.48,157.20114
				L2055.84,157.08114L2056.08,157.08114L2056.2,157.08114L2056.32,157.20114L2071.68,169.44123L2091.6,189.36138L2111.52,233.2817
				L2118.48,249.48181L2119.92,252.72184L2120.04,252.96184L2123.52,277.20202L2132.76,308.76225"/>
		</g>
		<g id="sattlements">
			<path clip-path="url(#SVG_CP_1)" fill="#FF0000" fill-rule="evenodd" stroke="#000000" stroke-width="0.96" stroke-miterlimit="10" stroke-linecap="round" stroke-linejoin="round" d="
				M900.36,2238.73628C900.36,2233.23548,895.87389,2228.7762,890.34,2228.7762C884.80611,2228.7762,880.32,2233.23548,880.32,2238.73628
				C880.32,2244.23707,884.80611,2248.69635,890.34,2248.69635C895.87389,2248.69635,900.36,2244.23707,900.36,2238.73628z"/>
			<path clip-path="url(#SVG_CP_1)" fill="#FF0000" fill-rule="evenodd" stroke="#000000" stroke-width="0.96" stroke-miterlimit="10" stroke-linecap="round" stroke-linejoin="round" d="
				M1018.56,1813.27318C1018.56,1807.73925,1014.10076,1803.25311,1008.6,1803.25311C1003.09924,1803.25311,998.64,1807.73925,998.64,1813.27318
				C998.64,1818.80712,1003.09924,1823.29326,1008.6,1823.29326C1014.10076,1823.29326,1018.56,1818.80712,1018.56,1813.27318z"/>
			<path clip-path="url(#SVG_CP_1)" fill="#FF0000" fill-rule="evenodd" stroke="#000000" stroke-width="0.96" stroke-miterlimit="10" stroke-linecap="round" stroke-linejoin="round" d="
				M840.12,2478.13802C840.12,2472.63722,835.66076,2468.17794,830.16,2468.17794C824.65924,2468.17794,820.2,2472.63722,820.2,2478.13802
				C820.2,2483.63881,824.65924,2488.09809,830.16,2488.09809C835.66076,2488.09809,840.12,2483.63881,840.12,2478.13802z"/>
			<path clip-path="url(#SVG_CP_1)" fill="#FF0000" fill-rule="evenodd" stroke="#000000" stroke-width="0.96" stroke-miterlimit="10" stroke-linecap="round" stroke-linejoin="round" d="
				M792.72,2760.80007C792.72,2755.26614,788.26076,2750.78,782.76,2750.78C777.25924,2750.78,772.8,2755.26614,772.8,2760.80007
				C772.8,2766.334,777.25924,2770.82014,782.76,2770.82014C788.26076,2770.82014,792.72,2766.334,792.72,2760.80007z"/>
			<path clip-path="url(#SVG_CP_1)" fill="#FF0000" fill-rule="evenodd" stroke="#000000" stroke-width="0.96" stroke-miterlimit="10" stroke-linecap="round" stroke-linejoin="round" d="
				M700.2,2400.73745C700.2,2395.23666,695.71389,2390.77738,690.18,2390.77738C684.64611,2390.77738,680.16,2395.23666,680.16,2400.73745
				C680.16,2406.23825,684.64611,2410.69753,690.18,2410.69753C695.71389,2410.69753,700.2,2406.23825,700.2,2400.73745z"/>
			<path clip-path="url(#SVG_CP_1)" fill="#FF0000" fill-rule="evenodd" stroke="#000000" stroke-width="0.96" stroke-miterlimit="10" stroke-linecap="round" stroke-linejoin="round" d="
				M1100.64,1650.252C1100.64,1644.7512,1096.18076,1640.29193,1090.68,1640.29193C1085.17924,1640.29193,1080.72,1644.7512,1080.72,1650.252
				C1080.72,1655.75279,1085.17924,1660.21207,1090.68,1660.21207C1096.18076,1660.21207,1100.64,1655.75279,1100.64,1650.252z"/>
			<path clip-path="url(#SVG_CP_1)" fill="#FF0000" fill-rule="evenodd" stroke="#000000" stroke-width="0.96" stroke-miterlimit="10" stroke-linecap="round" stroke-linejoin="round" d="
				M651.24,1620.91178C651.24,1615.37785,646.75389,1610.89171,641.22,1610.89171C635.68611,1610.89171,631.2,1615.37785,631.2,1620.91178
				C631.2,1626.44572,635.68611,1630.93186,641.22,1630.93186C646.75389,1630.93186,651.24,1626.44572,651.24,1620.91178z"/>
			<path clip-path="url(#SVG_CP_1)" fill="#FF0000" fill-rule="evenodd" stroke="#000000" stroke-width="0.96" stroke-miterlimit="10" stroke-linecap="round" stroke-linejoin="round" d="
				M724.56,1700.17236C724.56,1694.67156,720.07389,1690.21229,714.54,1690.21229C709.00611,1690.21229,704.52,1694.67156,704.52,1700.17236
				C704.52,1705.67316,709.00611,1710.13243,714.54,1710.13243C720.07389,1710.13243,724.56,1705.67316,724.56,1700.17236z"/>

				<path clip-path="url(#SVG_CP_1)" fill="#FF0000" fill-rule="evenodd" stroke="#000000" stroke-width="0.96" stroke-miterlimit="10" stroke-linecap="round" stroke-linejoin="round" d="
				M724.56,1700.17236C724.56,1694.67156,720.07389,1690.21229,714.54,1690.21229C709.00611,1690.21229,704.52,1694.67156,704.52,1700.17236
				C704.52,1705.67316,709.00611,1710.13243,714.54,1710.13243C720.07389,1710.13243,724.56,1705.67316,724.56,1700.17236z" transform="translate(-470, -1595) scale(2.0)"/>
		</g>
		<g id="sattlements1">
			<path clip-path="url(#SVG_CP_1)" fill="#FF0000" fill-rule="evenodd" stroke="#000000" stroke-width="0.96" stroke-miterlimit="10" stroke-linecap="round" stroke-linejoin="round" d="
				M1209.24,2465.29792C1209.24,2459.79713,1204.75389,2455.33785,1199.22,2455.33785C1193.68611,2455.33785,1189.2,2459.79713,
				1189.2,2465.29792C1189.2,2470.79872,1193.68611,2475.258,1199.22,2475.258C1204.75389,2475.258,1209.24,2470.79872,1209.24,2465.29792
				z"/>
			
		</g>
		<g id="sattlements_Anno_5">
			<g font-family="'Sylfaen'" font-size="1" kerning="0" font-weight="700" fill="#000000" clip-path="url(#SVG_CP_1)" >
				<text text-anchor="start" transform="matrix(49.92 0 0 49.92036 1201.56 2451.61782)" >
					<tspan direction="ltr" unicode-bidi="embed" x="0 ">Sioni</tspan>
				
				</text>
			</g>
			<g font-family="'Sylfaen'" font-size="1" kerning="0" font-weight="700" fill="#000000" clip-path="url(#SVG_CP_1)" >
				<text text-anchor="start" transform="matrix(70.92 0 0 70.92036 952.8 1763.53282)" >
					<tspan direction="ltr" unicode-bidi="embed" x="0 ">Tianeti</tspan>
				
				</text>
			</g>
		</g>
		<g id="sattlements_Anno_6">
			<g font-family="'Sylfaen'" font-size="1" kerning="0" font-weight="700" fill="#000000" clip-path="url(#SVG_CP_1)" >
				<text text-anchor="start" transform="matrix(49.92 0 0 49.92036 897.12 2223.85617)" >
					<tspan direction="ltr" unicode-bidi="embed" x="0 ">Chekuraantgori</tspan>
					
				</text>
			</g>
			<g font-family="'Sylfaen'" font-size="1" kerning="0" font-weight="700" fill="#000000" clip-path="url(#SVG_CP_1)" >
				<text text-anchor="start" transform="matrix(49.92 0 0 49.92036 1019.16 1838.53337)" >
					<tspan direction="ltr" unicode-bidi="embed" x="0 ">Zhebota</tspan>
					
				</text>
			</g>
			<g font-family="'Sylfaen'" font-size="1" kerning="0" font-weight="700" fill="#000000" clip-path="url(#SVG_CP_1)" >
				<text text-anchor="start" transform="matrix(49.92 0 0 49.92036 760.38 2525.77836)" >
					<tspan direction="ltr" unicode-bidi="embed" x="0 ">Khevsurtsopeli</tspan>
					
				</text>
			</g>
			<g font-family="'Sylfaen'" font-size="1" kerning="0" font-weight="700" fill="#000000" clip-path="url(#SVG_CP_1)" >
				<text text-anchor="start" transform="matrix(49.92 0 0 49.92036 782.88 2738.77991)" >
					<tspan direction="ltr" unicode-bidi="embed" x="0 ">Ghulelebi</tspan>
					
				</text>
			</g>
			<g font-family="'Sylfaen'" font-size="1" kerning="0" font-weight="700" fill="#000000" clip-path="url(#SVG_CP_1)" >
				<text text-anchor="start" transform="matrix(49.92 0 0 49.92036 691.8 2388.13736)" >
					<tspan direction="ltr" unicode-bidi="embed" x="0 ">Simoniantkhevi</tspan>
				
				</text>
			</g>
			<g font-family="'Sylfaen'" font-size="1" kerning="0" font-weight="700" fill="#000000" clip-path="url(#SVG_CP_1)" >
				<text text-anchor="start" transform="matrix(49.92 0 0 49.92036 1036.92 1629.85185)" >
					<tspan direction="ltr" unicode-bidi="embed" x="0 ">Akhalsopeli</tspan>
					
				</text>
			</g>
			<g font-family="'Sylfaen'" font-size="1" kerning="0" font-weight="700" fill="#000000" clip-path="url(#SVG_CP_1)" >
				<text text-anchor="start" transform="matrix(49.92 0 0 49.92036 639 1609.4517)" >
					<tspan direction="ltr" unicode-bidi="embed" x="0 ">Zaridzeebi</tspan>
				
				</text>
			</g>
			<g font-family="'Sylfaen'" font-size="1" kerning="0" font-weight="700" fill="#000000" clip-path="url(#SVG_CP_1)" >
				<text text-anchor="start" transform="matrix(49.92 0 0 49.92036 727.92 1687.33227)" >
					<tspan direction="ltr" unicode-bidi="embed" x="0 ">Tushurebi</tspan>
					
				</text>
			</g>
		</g>
	</g>
</svg>
